<svg id="Layer_1" data-name="Layer 1" xmlns="http://www.w3.org/2000/svg" xmlns:xlink="http://www.w3.org/1999/xlink" viewBox="0 0 783.27 309.76"><defs><style>.cls-1,.cls-15{fill:none;}.cls-2{fill:#263238;}.cls-3{fill:#455a64;}.cls-4{fill:#e0e0e0;}.cls-5{fill:#fec901;}.cls-6{opacity:0.3;}.cls-7{fill:#fff;}.cls-8{fill:#ffbe9d;}.cls-9{fill:#eb996e;}.cls-10{fill:#2a454e;}.cls-11{clip-path:url(#clip-path);}.cls-12{fill:#b78876;}.cls-13{opacity:0.16;}.cls-14{fill:#aa6550;}.cls-15{stroke:#aa6550;stroke-linecap:round;stroke-miterlimit:10;stroke-width:0.75px;}.cls-16{fill:#44d5d5;}.cls-17{fill:#2e3552;}</style><clipPath id="clip-path"><rect class="cls-1" x="318.27" y="9.49" width="254.34" height="282.24"/></clipPath></defs><path class="cls-2" d="M269.85,213.94l-13.8,35.75-.1.94v0l0,.49v.07l-4.19,41.5H202.29l-3.93-58.38v-23.4l43.93,1.84Z"/><polygon class="cls-2" points="292.41 215.01 288.23 292.72 236.66 292.72 237.9 275.2 238.29 269.65 238.33 269.04 238.33 269.02 241.33 226.51 241.35 226.24 242.29 212.78 242.31 212.54 271.49 213.98 272.16 214.01 292.41 215.01"/><path class="cls-3" d="M256,251.16c0,.38,0,.89,0,1.55-.05,1.4-.11,3.4-.18,6-.15,5.18-.51,12.67-1,21.92-.22,3.76-.48,7.82-.78,12.13h-.54c.32-4.32.6-8.39.85-12.16.57-9.25,1-16.73,1.23-21.9.13-2.56.23-4.56.3-6,0-.61.07-1.1.1-1.48v-.07a2.9,2.9,0,0,1,0-.52v0A4.23,4.23,0,0,1,256,251.16Z"/><path class="cls-3" d="M258.21,218.8a1.84,1.84,0,1,1-1.83-1.88A1.85,1.85,0,0,1,258.21,218.8Z"/><path class="cls-3" d="M289.61,236.57a11.59,11.59,0,0,1-2.52-2.42,28.77,28.77,0,0,1-4.49-7.2,29.86,29.86,0,0,1-2.25-8.22,11.78,11.78,0,0,1-.08-3.54c.11,0,.18,1.34.55,3.46a34.25,34.25,0,0,0,6.63,15.19C288.76,235.54,289.69,236.49,289.61,236.57Z"/><path class="cls-4" d="M285.34,96.18s6.84,2.68,10,12.69c2.2,7,12.51,58.8,12.51,58.8l-14.37,9.47-5.83-48.49Z"/><path class="cls-4" d="M302.51,292.72H196.32c.28-21.88.69-49.85,1.17-60.37.32-7,.9-21.5.78-37.3,0-4.22-.08-8.59-.13-13.05,0-.25,0-.5,0-.76s0-.72,0-1.08c-.52-39.28-1.83-84-1.83-84a.35.35,0,0,1,.09-.19l0-.06.09-.09.1-.1c2.33-2.1,16.64-9.64,24.48-13.7l1.7-.88,2.56-1.31.36-.18.33-.17.17-.09h0l.43-.77h0l4.06-7.21.19,0,22.2,6.11,6.65,1.83,1.22.33.24.2,1,.81,5.56,4.5.25.21,1.81,3.71.15.3,1.56.68,13.78,6,1.19,13.59.29,3.37.25,2.79a.11.11,0,0,0,0,.08l.71,8.16.4,4.53.06.65.4,4.6.06.65.56,6.49.05.57v.08l.25,2.91v.13l.08.85.27,3.13.7,8,1.06,12.13.59,6.76L296.86,228s0,0,0,0Z"/><path class="cls-2" d="M276.88,292.72h-.46c0-.11,0-.23,0-.34-1.15-17-2.65-40.4-4.2-66.29q-.36-6.15-.71-12.11c-.69-11.92-1.32-23.14-1.85-33.23-.21-3.84-.4-7.51-.57-11,0,0,0-.09,0-.13l0-.72c0-.66-.07-1.3-.1-1.94,0-.23,0-.46,0-.68-.05-1.15-.11-2.28-.16-3.38s-.1-2.13-.15-3.16c-.4-8.49-.71-15.36-.87-20.11,0-.22,0-.43,0-.63s0-.17,0-.26,0-.42,0-.63c-.06-1.63-.1-3-.14-4,0-.6,0-1.07,0-1.43a3.47,3.47,0,0,1,0-.48,3,3,0,0,1,.06.48c0,.35.05.82.1,1.42,0,1,.12,2.28.21,3.88,0,.2,0,.41,0,.63a2.11,2.11,0,0,1,0,.25c0,.23,0,.47,0,.71.26,4.78.63,11.64,1.08,20.1,0,.88.1,1.78.16,2.7.06,1.09.12,2.21.18,3.35,0,.23,0,.45,0,.68.05.71.09,1.43.14,2.16,0,.24,0,.48,0,.72v.14c.21,3.55.42,7.29.65,11.2.58,10.11,1.23,21.37,1.91,33.33q.34,5.91.7,12c1.56,25.88,3,49.3,4,66.3C276.87,292.47,276.87,292.6,276.88,292.72Z"/><polygon class="cls-5" points="260.99 79.74 263.51 97.2 268.04 132.26 248.33 98.44 231.22 76.03 259.41 95.78 259.77 79.41 260.99 79.74"/><path class="cls-2" d="M226.1,80.46a8.83,8.83,0,0,0,.54,1.37l1.68,3.78,6.12,13.3.07.17h.19l4.12,0-.2-.55-3,2.47-.28.23.26.25,5.73,5.62L259.74,125l5.63,5.36,1.56,1.44a4.35,4.35,0,0,0,.57.47,2.91,2.91,0,0,0-.48-.57l-1.47-1.52-5.49-5.51c-4.74-4.67-11.17-11-18.29-18L236,101l0,.48L239,99l.66-.55h-5l.27.17c-2.58-5.37-4.75-9.91-6.33-13.2-.76-1.53-1.37-2.78-1.83-3.71A9.14,9.14,0,0,0,226.1,80.46Z"/><path class="cls-2" d="M268,132.26a15.57,15.57,0,0,0,.39-2.17c.21-1.52.5-3.52.84-6,.68-5,1.57-12,2.51-19.66.3-2.47.59-4.88.87-7.15l0-.29-.28-.06-4.94-1.17,0,.57,5-.89.33-.06-.14-.3c-1.34-2.89-2.45-5.3-3.27-7.08-.37-.78-.68-1.41-.93-1.93a3.21,3.21,0,0,0-.37-.66,2.32,2.32,0,0,0,.23.72c.22.53.48,1.19.81,2,.77,1.81,1.8,4.25,3.06,7.18l.19-.35-5,.81-1.42.23,1.4.35,4.93,1.22-.24-.35c-.28,2.28-.58,4.68-.89,7.15-.94,7.68-1.76,14.64-2.32,19.68-.26,2.44-.47,4.46-.63,6A12.42,12.42,0,0,0,268,132.26Z"/><path class="cls-2" d="M251.22,225.56l-.7,0-2.1.13-8,.58-28.75,2.22-.29,0,0,.29c.46,5.4,1,11.27,1.49,17.47.27,3.1.54,6.28.83,9.53.14,1.63.28,3.27.42,4.93a13.3,13.3,0,0,0,.4,2.53,8.85,8.85,0,0,0,1.13,2.36,10.34,10.34,0,0,0,6.76,4.09,55.59,55.59,0,0,0,7.67.41,64.77,64.77,0,0,0,14.37-1.58,21.56,21.56,0,0,0,3.27-1.07,10,10,0,0,0,1.53-.78,4.38,4.38,0,0,0,.69-.55,8.46,8.46,0,0,0,.54-.68,15.93,15.93,0,0,0,1.88-6.13,77.29,77.29,0,0,0,.57-11.38c-.11-6.95-.61-12.56-1-16.43-.19-1.93-.37-3.43-.5-4.45-.06-.47-.12-.85-.16-1.15a1.76,1.76,0,0,0-.08-.39,2.4,2.4,0,0,0,0,.4c0,.3,0,.68.09,1.16.09,1.06.22,2.55.38,4.45.29,3.87.72,9.48.77,16.42a77.94,77.94,0,0,1-.65,11.29,15.61,15.61,0,0,1-1.82,5.88,4.94,4.94,0,0,1-2.51,1.8,20.83,20.83,0,0,1-3.19,1,64.38,64.38,0,0,1-14.22,1.52,56.36,56.36,0,0,1-7.55-.4,9.75,9.75,0,0,1-6.34-3.82,8.34,8.34,0,0,1-1-2.17,11.88,11.88,0,0,1-.37-2.41c-.15-1.66-.29-3.3-.43-4.92-.29-3.25-.57-6.44-.85-9.54L212,228.78l-.26.31,28.55-2.49,8.07-.73,2.15-.21A6.2,6.2,0,0,0,251.22,225.56Z"/><g class="cls-6"><path d="M214.57,262.47c3.06,8,11.09,8.48,19.71,7.22,8.11-1.19,15.92-2.89,16.52-5.22-.21,4.24-3.33,7.5-7.23,9.2s-8.24,1.94-12.48,1.75c-4.44-.19-8.27,0-11.93-2.52S214.56,266.12,214.57,262.47Z"/></g><path class="cls-2" d="M296.86,228s0-.1-.06-.3l-.11-.87c-.09-.83-.21-2-.37-3.38-.29-3-.71-7.22-1.21-12.42-1-10.5-2.33-25-3.74-41S288.76,139.51,288,129c-.4-5.26-.7-9.51-.86-12.46-.1-1.47-.14-2.61-.16-3.39,0-.35,0-.64,0-.88a1.36,1.36,0,0,1,0-.3c.3,3.4,2.32,26.5,5.07,58,1.38,16,2.64,30.48,3.55,41,.42,5.21.77,9.45,1,12.44.1,1.43.18,2.56.24,3.38,0,.36,0,.65.05.89A1.17,1.17,0,0,1,296.86,228Z"/><path class="cls-4" d="M312.62,168.82a15,15,0,0,1,.5,5.15c-.25,2.64-.37,9.15-7.42,11.37s-10.46.1-12.64-2.88L292,169.52l7.54-5Z"/><g class="cls-6"><path d="M253.73,177.14s-18,17.81-32,20.37-19-2.44-22.73-14.95Z"/></g><path class="cls-4" d="M196.61,95.74s-11.46,10.62-8.2,35.75c3,23.35,8.41,55.88,15.58,59.65s22.64,1.89,34-4.53,44.15-23.77,44.15-23.77l-13.58-24.15-43.78,17s-5.66-38.73-9.05-45.41Z"/><path class="cls-2" d="M215.55,109.73s.13.25.34.74c.11.25.25.56.39.93s.27.82.43,1.32c.65,2,1.41,5,2.25,8.93,1.69,7.83,3.72,19.25,5.88,33.45l-.32-.18,43.75-17,.25-.09.12.23c4.31,7.63,8.87,15.74,13.61,24.14l.16.28-.29.16-28.07,15.12-13.77,7.41c-2.26,1.21-4.51,2.48-6.85,3.49a57.66,57.66,0,0,1-7.15,2.48,46.79,46.79,0,0,1-14.6,1.69,21.22,21.22,0,0,1-7-1.48l-.82-.36a8,8,0,0,1-.79-.49,8.21,8.21,0,0,1-1.28-1.29,17.16,17.16,0,0,1-1.85-3,67.35,67.35,0,0,1-4.39-12.67c-1.1-4.2-2-8.32-2.76-12.32-1.55-8-2.7-15.49-3.66-22.34s-1.8-13.1-1.55-18.62a46.11,46.11,0,0,1,2.49-13.86,30.36,30.36,0,0,1,4.15-7.89,16.08,16.08,0,0,1,1.5-1.77,5.16,5.16,0,0,1,.58-.53s-.19.19-.54.58a21.67,21.67,0,0,0-1.44,1.8,31.53,31.53,0,0,0-4,7.89,46.44,46.44,0,0,0-2.36,13.8c-.22,5.48.65,11.69,1.64,18.53s2.17,14.33,3.74,22.31c.79,4,1.68,8.09,2.78,12.28a66.75,66.75,0,0,0,4.37,12.54,17,17,0,0,0,1.79,2.87,7.68,7.68,0,0,0,1.17,1.18,6.88,6.88,0,0,0,.7.43l.78.35a20.73,20.73,0,0,0,6.81,1.41,46.49,46.49,0,0,0,14.4-1.68,57.35,57.35,0,0,0,7.06-2.46c2.32-1,4.52-2.24,6.79-3.46l13.77-7.41L281.82,162l-.13.44c-4.72-8.4-9.28-16.51-13.57-24.16l.37.14-43.8,16.92-.27.1,0-.29c-2.1-14.2-4.07-25.63-5.68-33.46-.79-3.92-1.52-6.94-2.12-8.95-.15-.5-.28-.94-.39-1.33l-.36-.93C215.64,110,215.55,109.73,215.55,109.73Z"/><rect class="cls-7" x="231.22" y="131.47" width="21.72" height="7.23" transform="translate(484.17 270.17) rotate(180)"/><path class="cls-2" d="M235.72,134.65c0-.18,3-.32,6.78-.32s6.77.14,6.77.32-3,.31-6.77.31S235.72,134.82,235.72,134.65Z"/><g class="cls-6"><polygon points="266.93 131.79 234.96 105.85 235.72 103.58 232.94 103.58 228.32 85.61 234.97 98.66 238.82 98.48 236.03 101.04 266.93 131.79"/></g><path class="cls-3" d="M227.44,102.22l1.16-.49c0-.06-2.63-6.3-5.19-12.92a12.78,12.78,0,0,1-1.09-6.51,3,3,0,0,1,3.06-2.46l.85-.44.44-.78c-2.24-.48-5.24,1.39-5.59,3.46a13.86,13.86,0,0,0,1.15,7.18C224.8,95.9,227.41,102.16,227.44,102.22Z"/><path class="cls-3" d="M225.56,116.82l1.6-.63c-1.31-3.39-3.12-9.4-2.34-11.09a5,5,0,0,1,3.45-2.28,5.81,5.81,0,0,1,5,1c1.84,1.56,4.62,7.05,5.53,9l1.57-.72c-.14-.31-3.48-7.51-6-9.63a7.46,7.46,0,0,0-6.53-1.4,6.6,6.6,0,0,0-4.65,3.24C222,107.23,224.94,115.24,225.56,116.82Z"/><path class="cls-2" d="M242.91,143c2,0,3.94-1.07,5.81-3.18l-.64-.57c-2.06,2.32-4.18,3.25-6.3,2.75-8.59-2-15.13-25.9-15.2-26.14l-.83.22c.27,1,6.75,24.62,15.84,26.76A6,6,0,0,0,242.91,143Z"/><path class="cls-2" d="M247.07,140.85h0a1,1,0,0,0,1.34.09l1.87-1.39a1.22,1.22,0,0,0,.34-1.71h0a1.23,1.23,0,0,0-1.9-.19l-1.67,1.75A1,1,0,0,0,247.07,140.85Z"/><path class="cls-2" d="M239.26,143.81c2.66,0,4.62-.87,5.86-2.61,5.29-7.41-4.67-28-5.1-28.86l-.77.38c.1.21,10.16,21,5.17,28-1.3,1.82-3.58,2.55-6.79,2.15l-.11.85A13.33,13.33,0,0,0,239.26,143.81Z"/><path class="cls-2" d="M239.42,143.35h0a1,1,0,0,1-.95,1l-2.31.19a1.24,1.24,0,0,1-1.4-1.06h0a1.24,1.24,0,0,1,1.3-1.4l2.41.21A1,1,0,0,1,239.42,143.35Z"/><circle class="cls-2" cx="280.79" cy="111.97" r="6.15"/><circle class="cls-2" cx="280.79" cy="111.97" r="6.15"/><path class="cls-4" d="M276.25,112a4.54,4.54,0,1,0,4.54-4.54A4.54,4.54,0,0,0,276.25,112Z"/><path class="cls-3" d="M267.76,85.21c.57.84,7,14.39,10.5,21.22l1-.53c-.52-1-9.85-20.27-10.58-21.34L261.92,79l-.24,1.29Z"/><path class="cls-2" d="M265.18,111.81c4.45,4.44,15.7,16,15.7,16l3-1.81L268,109.05a2,2,0,0,0-2.55-.29h0A2,2,0,0,0,265.18,111.81Z"/><path class="cls-8" d="M268.38,138.16l3.78-10.66a6,6,0,0,1,5.46-4.09,5.44,5.44,0,0,1,.57,0c2.27.25,13.84,1,13.84,1l4.48,5a2.34,2.34,0,0,1,.05,3h0l1.28,9.05-2.54,1.72.25,6.33s-2.26,1.51-3.27,1l-1-.5-1.51-1.51-4.27,6-5.92,3.42Z"/><path class="cls-9" d="M296.57,133a17.29,17.29,0,0,0-1.62-1.76,7.61,7.61,0,0,0-2.16-1.31,17.07,17.07,0,0,0-3.13-.42c-4.58-.43-8.28-.93-8.26-1.11s3.74,0,8.32.46a14.33,14.33,0,0,1,3.27.5,7.25,7.25,0,0,1,2.28,1.53A3.82,3.82,0,0,1,296.57,133Z"/><path class="cls-9" d="M296.32,141.31a16.49,16.49,0,0,0-.93-2.32,9,9,0,0,0-4.47-3.75,17,17,0,0,0-5.92-1,14.55,14.55,0,0,1-2.55-.08,7.5,7.5,0,0,1,2.54-.39,14.89,14.89,0,0,1,6.17.85,8.71,8.71,0,0,1,4.64,4.15A4,4,0,0,1,296.32,141.31Z"/><path class="cls-9" d="M295.18,149.08a5.07,5.07,0,0,1-.6-2.5A8.49,8.49,0,0,0,294,144a3.19,3.19,0,0,0-2.37-1.81,44.26,44.26,0,0,0-6-.86,6.8,6.8,0,0,1-2.5-.59,19.62,19.62,0,0,1,2.54.12,29.34,29.34,0,0,1,6.16.7,4.58,4.58,0,0,1,1.69.78,3.43,3.43,0,0,1,1.07,1.41,7.93,7.93,0,0,1,.47,2.81C295,148.12,295.26,149.05,295.18,149.08Z"/><polygon class="cls-3" points="301.49 129.08 251.59 180.61 253.51 182.56 289.26 178.53 337.37 132.71 337.31 130.5 301.49 129.08"/><g class="cls-6"><path d="M310.84,153.12a11.34,11.34,0,0,0-8.76-2.93,16.12,16.12,0,0,0-8.64,3.64,11.64,11.64,0,0,0-4.3,6.16c-1,4.33,2.55,10.39,6.48,12.49h0c5-4,9.82-10.14,14.8-14.14a4.13,4.13,0,0,0,1.73-2.2A3.44,3.44,0,0,0,310.84,153.12Z"/></g><path class="cls-2" d="M337.17,132.61a3.1,3.1,0,0,1-.66,0h-1.9l-7.16-.08-24.87-.48.23-.09-12.5,13-25.92,26.68-7.91,8-2.18,2.16a6.31,6.31,0,0,1-.79.72,7.37,7.37,0,0,1,.7-.82l2.08-2.24,7.76-8.18,25.79-26.82,12.53-12.93.09-.1h.14l24.86.72,7.15.26,1.9.09A3,3,0,0,1,337.17,132.61Z"/><path class="cls-8" d="M305.94,147.73s4.84.09,6.41.88,5.92,5.41,5.92,5.41,0,3.14-1.26,3.27a12.59,12.59,0,0,1,.25,2.14c.12,1.76.38,2.76-2,4.27,0,0,.25,2.89-.63,3.65a18.18,18.18,0,0,1-1.89,1.38s-.14,3.19-4.4,3.15l-4,1.76s-8.9-.84-8-1.88,3.08-6.26,3.08-6.26-6.09-4.44-6-5.82.62-1.51.62-1.51-.25-2.64,1.89-2.9c0,0,1.64-3.27,3.27-3.39s12.71,3.9,12.71,3.9l-4.16-3.52s-4.15-.63-4-2S305.94,147.73,305.94,147.73Z"/><path class="cls-9" d="M305.2,164.3c-.1.16-2.52-1.24-5.61-2.73s-5.69-2.52-5.63-2.7,2.78.59,5.91,2.11S305.3,164.16,305.2,164.3Z"/><path class="cls-9" d="M311,160.45c-.06.17-3.29-.88-7.21-2.34s-7.06-2.79-7-3,3.29.88,7.21,2.34S311,160.28,311,160.45Z"/><path class="cls-2" d="M232.22,49.05a99.36,99.36,0,0,1-3.46-16.76A34.63,34.63,0,0,1,231,15.47c.34-.79,3.19-6.1,4-6,.61.09-1.24,5.08-.95,5.63,2.7,5.25,3.2,11.43,2.42,17.28a77.25,77.25,0,0,1-4.29,16.64Z"/><path class="cls-8" d="M232.78,27.25c.27-14.32,8.83-26.11,23.15-25.44l1.32.14a25.63,25.63,0,0,1,22.93,26.1c-.31,12.42-.81,26.13-1.58,32.73C277,74.43,263.09,75.12,263.09,75.12s-3.16,21.06-3.16,21.06L230.73,75.9Z"/><path class="cls-9" d="M263.09,75.22a33.17,33.17,0,0,1-17.25-7.14s2.73,11.7,16.5,11.9Z"/><path class="cls-2" d="M275,39.49a2,2,0,0,1-2.09,1.77,1.89,1.89,0,0,1-1.83-2,2,2,0,0,1,2.09-1.78A1.89,1.89,0,0,1,275,39.49Z"/><path class="cls-2" d="M276.65,33.42c-.26.23-1.63-1-3.73-1.24s-3.75.67-3.95.39c-.1-.12.19-.56.91-1a5.41,5.41,0,0,1,3.2-.62,5.13,5.13,0,0,1,2.94,1.3C276.62,32.83,276.79,33.32,276.65,33.42Z"/><path class="cls-2" d="M257,38.65a2,2,0,0,1-2.09,1.77,1.89,1.89,0,0,1-1.83-2,2,2,0,0,1,2.09-1.78A1.89,1.89,0,0,1,257,38.65Z"/><path class="cls-2" d="M256,32.1c-.27.23-1.63-1-3.73-1.24s-3.76.67-4,.39c-.1-.12.2-.56.92-1a5.32,5.32,0,0,1,3.2-.63,5.13,5.13,0,0,1,2.94,1.3C255.94,31.51,256.11,32,256,32.1Z"/><path class="cls-2" d="M261.82,49a14,14,0,0,1,3.48-.26c.54,0,1.06-.05,1.19-.41a2.82,2.82,0,0,0-.19-1.62c-.37-1.36-.76-2.77-1.16-4.26-1.59-6.05-2.68-11-2.44-11.06s1.73,4.79,3.32,10.84c.38,1.49.75,2.91,1.09,4.27a3.12,3.12,0,0,1,.06,2.14,1.38,1.38,0,0,1-1,.69,3.65,3.65,0,0,1-.92,0A13.74,13.74,0,0,1,261.82,49Z"/><path class="cls-8" d="M232.83,37.5c-.22-.13-9.1-3.77-9.79,5.61S231.91,51.24,232,51,232.83,37.5,232.83,37.5Z"/><path class="cls-9" d="M229.34,47.21s-.17.1-.46.21a1.65,1.65,0,0,1-1.22-.07c-1-.43-1.68-2.07-1.6-3.76a5.31,5.31,0,0,1,.62-2.31A1.9,1.9,0,0,1,228,40.12a.83.83,0,0,1,.93.52c.1.27,0,.45.08.47s.21-.14.16-.53a1,1,0,0,0-.32-.62,1.21,1.21,0,0,0-.89-.3A2.29,2.29,0,0,0,226.16,41a5.46,5.46,0,0,0-.76,2.57c-.08,1.89.76,3.73,2.09,4.22a1.72,1.72,0,0,0,1.51-.14C229.31,47.43,229.37,47.23,229.34,47.21Z"/><path class="cls-2" d="M275.1,12.11c1.58-.74-2.66-5.95-6.29-7.88-5.48-2.93-14-5.06-19.28-3.92-6.38,1.38-11.79,4.16-15.3,9.65a37,37,0,0,0-5.35,18.59,11.25,11.25,0,0,0,1,5.81c1.18,2.16,3.61,3.63,3.31,6.49a4,4,0,0,0,.8,2.93c1.59,1.93,3.81.35,4.88-1.31,2.3-3.54,2.81-7.91,3.27-12.11a27.55,27.55,0,0,0,0-9c-.36-1.59-1-3.12-1.27-4.73a5.65,5.65,0,0,1,1-4.64,5.92,5.92,0,0,1,.82-.72,9.79,9.79,0,0,1,9.82-1.23c5.17,2.21,14,5.59,16.49,3.94,3.56-2.36,4.47-4,4.47-4Z"/><path class="cls-2" d="M267.21,27.7s7.55-1.9,9.88-1.06c.25.09-9.45,2.82-9.45,2.82-.43.19-.52-.25-.64-.77C267,28.69,266.75,27.8,267.21,27.7Z"/><path class="cls-2" d="M258.22,27.7s-7.36-1.9-9.63-1.06c-.25.09,9.2,2.82,9.2,2.82.43.19.51-.25.64-.77C258.43,28.69,258.67,27.8,258.22,27.7Z"/><path class="cls-10" d="M257.64,56.5a22.23,22.23,0,0,1,4.32.12,21.46,21.46,0,0,1,4.23.86,24.39,24.39,0,0,1-8.55-1Z"/><g class="cls-11"><path class="cls-12" d="M531.47,241a1.76,1.76,0,0,0,.15-1.15,2.54,2.54,0,1,0-4.59,2,3.88,3.88,0,0,0,.66.74l.5.38.29.26a1.19,1.19,0,0,0,.18.59,1.51,1.51,0,0,0,.88.69,1.58,1.58,0,0,0,1.15-.15,1.49,1.49,0,0,0,.69-.89,2.48,2.48,0,0,0,0-1.21,2.35,2.35,0,0,0-.4-.73A1.3,1.3,0,0,0,531.47,241Z"/><path class="cls-12" d="M550.24,166.94c-11-16.26-47.92-70-53.41-66.06-.82.58-3.15,10.33-3.79,13a12.89,12.89,0,0,1-.41,1.38l-2.06,5.77a12.87,12.87,0,0,0,2.57,13l35.73,39.45a12.8,12.8,0,0,1,3.33,8.55c.09,12.4.3,44.35.35,49.27a2,2,0,0,0-.22.27,29.76,29.76,0,0,1-5.85,6.76,13.64,13.64,0,0,0-3.17,3.31,5.28,5.28,0,0,0-.53,4.51,1.54,1.54,0,0,0,1.83,1,1.51,1.51,0,0,0,1-1.84,2.38,2.38,0,0,1,0-1.78,1.55,1.55,0,0,0,.71,1,1.51,1.51,0,0,0,1.5,0,4.64,4.64,0,0,0,1.31-.88,2.82,2.82,0,0,0,.83-1.94,1.56,1.56,0,0,0-.36-1l.05-.07-.06.07h0a1.47,1.47,0,0,0,.33-.91,1.59,1.59,0,0,0-.11-.56,33.78,33.78,0,0,0,3-3.33.5.5,0,0,0,.7,0,2.47,2.47,0,0,0,.41-.62.5.5,0,0,0,.77.11l.17-.16.14.23a.54.54,0,0,0,.6.22.44.44,0,0,0,.58-.21l.06-.12a17.56,17.56,0,0,1-1.27,7.66c-1.76,3.73-3.54,7.45-5.3,11.18-.82,1.72,1.75,3.23,2.57,1.5,1.88-4,3.86-7.92,5.65-11.94a17.77,17.77,0,0,0,1.29-6.72c.1,0,9.59-45,12.92-60.2A12.83,12.83,0,0,0,550.24,166.94Z"/><path class="cls-13" d="M529.71,235.77c-.11.22.09-.69-.09-.51a7.08,7.08,0,0,0-.64.7l0,0-.56.72a7.27,7.27,0,0,1-1.3,1.24,22.83,22.83,0,0,0-.41,4c.68.13.29,3.08.61,3.58.45.18,1.69-2.09,1.94-1.72a1.36,1.36,0,0,0,.43-1c0-.57,0-1.13,0-1.69,0-.3,0-.61.07-.91,0-.13,0-.26,0-.39s0-.11,0-.17h0a22.22,22.22,0,0,1,.79-3.34C530.78,235.68,530.18,236.13,529.71,235.77Z"/><path class="cls-4" d="M498.84,101.15s10.19-.33,18.35,13c5.67,9.28,33.44,46.3,33.44,46.3s2.56,4.26-3.83,12.31-18.91,2.49-18.91,2.49l-28.78-33.61Z"/><path class="cls-3" d="M420.75,109.17c-1.12-2.36,3.52-52.63,5.61-64.16s2.62-18.34,5.77-20.7,14.41-6.29,23.58-5.77,19.76,4,24.1,10.57,8.49,24,10,31.06C491.1,66,499.5,87.83,502,89.81s2.5,12.32,2.5,12.32l-70.3,13.07Z"/><g class="cls-6"><path d="M441.16,89.88a26.76,26.76,0,0,0-3-4.91c-4.65-6.59-8.3-13.82-11.93-21l-1.45-.55c1.52,4.63.43,9.6.79,14.46s1.3,9.94,4.42,13.68a19.38,19.38,0,0,0,7.81,5.29,3.3,3.3,0,0,0,1.91.34,2.7,2.7,0,0,0,1.72-1.66A7.3,7.3,0,0,0,441.16,89.88Z"/></g><g class="cls-6"><path d="M470,97.72c4.15-6.74,5.46-15.77,6.11-24.58-2,.69-3.72,1.85-5.73,2.54a1.16,1.16,0,0,0-.7.45,1.2,1.2,0,0,0-.07.65c.54,7.13-.06,15.12.39,20.94Z"/></g><path class="cls-2" d="M481.14,51.66a8,8,0,0,0-1.05-10.16c1.4-1.88.78-4.68-.76-6.44s-3.77-2.73-5.93-3.64A10.73,10.73,0,0,0,460.64,24c-2.91-4-8.84-4.42-13.52-2.89a12.71,12.71,0,0,1-3.49.89,19.54,19.54,0,0,1-2.64-.28c-4.84-.48-9.5,3.07-11.23,7.61a9.21,9.21,0,0,1-.95,2.12,12,12,0,0,1-2.32,2,7.65,7.65,0,0,0-2.75,5.78c0,1.87.64,3.84-.09,5.56-.36.87-1,1.58-1.33,2.48-.81,2.6,2.13,5.13,1.69,7.81-.09.55-.32,1.07-.45,1.6A4.74,4.74,0,0,0,424,60a7,7,0,0,1,1.13,2.35,7.81,7.81,0,0,1-.33,2c-.27,1.6,3.37,7.63,4.78,8.45l41.13-1a7.69,7.69,0,0,0,5.72-6.82,2.89,2.89,0,0,1,.34-1.52,3.27,3.27,0,0,1,1.09-.77c2.6-1.51,2.8-5.16,2.42-8.14a3.81,3.81,0,0,1,0-1.26A4.91,4.91,0,0,1,481.14,51.66Z"/><path class="cls-12" d="M469.36,52.12c-.12-7.29-5-15.5-12.31-18.81-4.63-2.09-8.19-2-10.6-2.19a16.74,16.74,0,0,0-9.63,2.36c-2.24.61-10.29,8.5-10.45,16.76-.17,9.19,0,20.41,1.37,27.19,2.79,13.65,13.4,14.93,13.4,14.93s-.22,22.84-.22,22.84l29.26-2.58Z"/><path class="cls-14" d="M448.08,75a2.68,2.68,0,0,0-.92-1.67,2.74,2.74,0,0,0-3.34-.23c-1,.69-1.16,1.87-1,3.21h0c.56.79,1,1.56,1.93,1.66l.45,0a3,3,0,0,0,2-.78A2.72,2.72,0,0,0,448.08,75Z"/><path class="cls-2" d="M431.12,61.32A1.77,1.77,0,0,0,432.9,63a1.7,1.7,0,0,0,1.75-1.67,1.77,1.77,0,0,0-1.78-1.7A1.69,1.69,0,0,0,431.12,61.32Z"/><path class="cls-2" d="M429.76,55.38c.23.22,1.52-.83,3.42-.91s3.32.81,3.52.57-.15-.51-.77-.93a4.92,4.92,0,0,0-2.83-.74,4.67,4.67,0,0,0-2.71,1C429.83,54.85,429.65,55.28,429.76,55.38Z"/><path class="cls-2" d="M441.52,69.86a12.59,12.59,0,0,0-3.11-.42c-.48,0-1-.1-1-.43a2.47,2.47,0,0,1,.26-1.45c.4-1.19.82-2.44,1.27-3.75,1.75-5.34,3-9.72,2.79-9.79s-1.82,4.2-3.58,9.54l-1.2,3.77a2.79,2.79,0,0,0-.17,1.91,1.22,1.22,0,0,0,.83.68,3.68,3.68,0,0,0,.83.08A12.52,12.52,0,0,0,441.52,69.86Z"/><path class="cls-14" d="M441.14,92.36a35.13,35.13,0,0,0,18.25-5.72s-4.47,9.9-18.28,9.22Z"/><path class="cls-2" d="M437.89,46.92c-.48-.3-1.7.55-3.32,1.07s-3.09.66-3.28,1.19c-.07.25.28.59,1,.8a5.14,5.14,0,0,0,2.91-.17,5.09,5.09,0,0,0,2.4-1.65C438,47.56,438.1,47.08,437.89,46.92Z"/><path class="cls-2" d="M452.69,60.85A1.77,1.77,0,0,1,451,62.64a1.69,1.69,0,0,1-1.83-1.58,1.76,1.76,0,0,1,1.68-1.79A1.69,1.69,0,0,1,452.69,60.85Z"/><path class="cls-2" d="M455.37,55.85c-.22.23-1.56-.74-3.46-.73s-3.28,1-3.49.75.12-.52.72-1a4.93,4.93,0,0,1,2.79-.88,4.68,4.68,0,0,1,2.76.87C455.28,55.33,455.48,55.75,455.37,55.85Z"/><path class="cls-2" d="M447.61,46.84c.49-.29,1.73.6,3.4,1.18s3.17.76,3.36,1.29c.07.26-.29.59-1,.77a5.67,5.67,0,0,1-5.44-2C447.44,47.48,447.38,47,447.61,46.84Z"/><path class="cls-12" d="M467.73,65.24c-.05-1,1-3.49,2-3.69,2.68-.54,7.56-.54,7.91,6.31.47,9.36-9,7.91-9.06,7.64S467.88,68.77,467.73,65.24Z"/><path class="cls-14" d="M471,72s.17.11.45.22a1.62,1.62,0,0,0,1.22,0c1-.41,1.73-2,1.69-3.72a5.36,5.36,0,0,0-.58-2.31,1.88,1.88,0,0,0-1.29-1.19.83.83,0,0,0-.94.5c-.11.27,0,.45-.09.47s-.21-.15-.15-.54a1,1,0,0,1,.33-.61,1.25,1.25,0,0,1,.89-.28,2.29,2.29,0,0,1,1.78,1.37,5.5,5.5,0,0,1,.7,2.58c0,1.89-.84,3.7-2.17,4.16a1.74,1.74,0,0,1-1.51-.17C471.05,72.18,471,72,471,72Z"/><path class="cls-2" d="M424.3,50.46c1.84-1.26,3-2.92,2.76-5.15,1.27.32,2.48-1.35,3.16-2.47s1.56-1.7,1.45-3a1.39,1.39,0,0,1,.06-.76c.17-.37.61-.51,1-.65a6.3,6.3,0,0,0,3.95-4.54,13.3,13.3,0,0,0,6.46.78,5.08,5.08,0,0,0,8.58-.75A4.5,4.5,0,0,0,454.85,36a13.33,13.33,0,0,0,3.89,0A5.38,5.38,0,0,0,462.55,42c.33.09.72.17.89.48a1.35,1.35,0,0,1-.1,1.05,4.24,4.24,0,0,0,3.07,5.26,3.16,3.16,0,0,0,.5,4.93c.35.19.8.42.77.81a.91.91,0,0,1-.19.41,6.09,6.09,0,0,0-1.34,3.16,2.26,2.26,0,0,0,2,2.43,3,3,0,0,0-1.1,2.1c0,.82.88,1.61,1.63,1.28.32-.14,4.94-1.26,5.14-1.54,2.49-3.72-1-7.55-1.47-12a29.14,29.14,0,0,0-4.61-12.48,20.9,20.9,0,0,0-3.52-4.37A28.28,28.28,0,0,0,458.86,30a25.77,25.77,0,0,0-7.67-3.25c-5.11-1-10.28,1.09-14.9,3.47a21.81,21.81,0,0,0-5,3.23,19.67,19.67,0,0,0-4,5.78,25,25,0,0,0-3,9.74Z"/><path class="cls-3" d="M422.32,47.27a3.4,3.4,0,0,1,.46-1c.18-.32.45-.7.7-1.17a4.56,4.56,0,0,0,.45-1.77,14.9,14.9,0,0,0-.14-2.32,10.3,10.3,0,0,1-.05-2.79,7.83,7.83,0,0,1,2.2-4.37,11.85,11.85,0,0,1,1.44-1.17,5.78,5.78,0,0,0,1.37-1.29,7.2,7.2,0,0,0,.81-1.8,12.35,12.35,0,0,1,2.13-3.72,12,12,0,0,1,3.51-2.94,11,11,0,0,1,2.22-.95,9.68,9.68,0,0,1,3.71-.33l1.26.17a6,6,0,0,0,2.5-.1c.84-.2,1.65-.54,2.5-.79a16.5,16.5,0,0,1,5.38-.72,13.7,13.7,0,0,1,2.77.39,9.22,9.22,0,0,1,4.85,2.91l.37.45-.15-.06a10.52,10.52,0,0,1,8.13,1.29,10.41,10.41,0,0,1,4.79,6.23l-.07-.09a31.21,31.21,0,0,1,3.35,1.59,9.85,9.85,0,0,1,2.78,2.29A6.35,6.35,0,0,1,481,38.36a4.41,4.41,0,0,1-.76,3.21l0-.16a7.72,7.72,0,0,1,2.36,4.72,8,8,0,0,1-.78,4.7,8.31,8.31,0,0,1-.58,1,9.09,9.09,0,0,0-.61.86,2.16,2.16,0,0,0-.3.94,6.33,6.33,0,0,0,.07,1,15.28,15.28,0,0,1,.05,3.56,7.31,7.31,0,0,1-.81,2.74,4.63,4.63,0,0,1-1.39,1.59c-.47.34-.89.48-1.12.66a2.35,2.35,0,0,0-.33.3,1,1,0,0,1,.3-.33c.23-.19.66-.35,1.11-.69a4.5,4.5,0,0,0,1.34-1.58,7.34,7.34,0,0,0,.77-2.71,15.62,15.62,0,0,0-.08-3.52,6.43,6.43,0,0,1-.08-1,2.15,2.15,0,0,1,.32-1,7.78,7.78,0,0,1,.61-.89,7.16,7.16,0,0,0,.56-.93,7.72,7.72,0,0,0,.74-4.58A7.6,7.6,0,0,0,480,41.58l-.07-.07.06-.08a4.24,4.24,0,0,0,.71-3,6.21,6.21,0,0,0-1.31-3,9.67,9.67,0,0,0-2.72-2.22,28.31,28.31,0,0,0-3.33-1.57l-.06,0,0-.07a10.6,10.6,0,0,0-12.59-7.3l-.09,0-.06-.08c-.12-.14-.24-.28-.35-.43a9,9,0,0,0-4.71-2.82,13.11,13.11,0,0,0-2.71-.38,15.07,15.07,0,0,0-2.69.13,16,16,0,0,0-2.6.57c-.84.25-1.65.59-2.51.79a5.84,5.84,0,0,1-1.31.19,8,8,0,0,1-1.3-.08c-.42-.06-.83-.13-1.25-.18a10.12,10.12,0,0,0-1.23-.05,10,10,0,0,0-2.38.37,11.29,11.29,0,0,0-2.17.91A12,12,0,0,0,431.87,26a11.81,11.81,0,0,0-2.1,3.65,8.1,8.1,0,0,1-.85,1.84,5.94,5.94,0,0,1-1.42,1.33A10.9,10.9,0,0,0,426.08,34,7.56,7.56,0,0,0,425,35.29a7.63,7.63,0,0,0-1.1,2.93,10.09,10.09,0,0,0,0,2.75A13.68,13.68,0,0,1,424,43.3a4.49,4.49,0,0,1-.49,1.81c-.26.48-.53.85-.72,1.16a4.81,4.81,0,0,0-.4.73C422.35,47.18,422.32,47.27,422.32,47.27Z"/><path class="cls-3" d="M456.16,22.14s-.25-.14-.72-.34a6.14,6.14,0,0,0-2.07-.51,6,6,0,0,0-3.06.57,6.11,6.11,0,0,0-2.69,2.66,5.17,5.17,0,0,0-.43,1.08,1.2,1.2,0,0,0,.11,1l.24.31-.38-.09a3.85,3.85,0,0,0-2.88.47,3.72,3.72,0,0,0-1.52,1.8,4.2,4.2,0,0,0-.3,1.56c0,.37,0,.58,0,.58s0-.05-.05-.15a2.58,2.58,0,0,1-.06-.43A3.78,3.78,0,0,1,442.6,29a3.88,3.88,0,0,1,1.55-1.94,4.14,4.14,0,0,1,3.08-.53l-.14.22a1.43,1.43,0,0,1-.17-1.22,5.48,5.48,0,0,1,.44-1.14,6.29,6.29,0,0,1,2.84-2.76,5.92,5.92,0,0,1,3.19-.54,5.73,5.73,0,0,1,2.1.61,4.32,4.32,0,0,1,.51.3C456.11,22.08,456.17,22.13,456.16,22.14Z"/><path class="cls-3" d="M471.81,32.26a1.42,1.42,0,0,1-.31.35,5.75,5.75,0,0,1-1,.78,4.63,4.63,0,0,1-1.85.64,3.39,3.39,0,0,1-2.36-.61l.21,0-.26.4c-.09.13-.2.25-.3.38a5.7,5.7,0,0,1-2.28,1.55,5.92,5.92,0,0,1-2.22.38,5.11,5.11,0,0,1-1.49-.28,1.5,1.5,0,0,1-.5-.24,8.4,8.4,0,0,0,2,.32,6.07,6.07,0,0,0,2.12-.42,5.43,5.43,0,0,0,2.16-1.5l.29-.36c.09-.12.17-.25.25-.37l.09-.13.12.09a3.1,3.1,0,0,0,2.16.58,4.4,4.4,0,0,0,1.77-.55C471.31,32.71,471.78,32.22,471.81,32.26Z"/><path class="cls-3" d="M477.12,40.75s0,.06,0,.17a1.86,1.86,0,0,1-.19.46,2.5,2.5,0,0,1-1.47,1.07,4.77,4.77,0,0,1-2.69-.18,14.92,14.92,0,0,1-1.5-.52,2.6,2.6,0,0,1-1.35-1.13l-.06-.15.22.06a10.82,10.82,0,0,1-2.71,1.78,4.85,4.85,0,0,1-2.62.39,3.61,3.61,0,0,1-1.65-.67,1.9,1.9,0,0,1-.35-.34c-.07-.08-.11-.13-.1-.14s.17.16.51.39a3.75,3.75,0,0,0,1.62.56,4.72,4.72,0,0,0,2.49-.42,11,11,0,0,0,2.63-1.77l.14-.12.08.18.06.13a2.26,2.26,0,0,0,1.2,1,14.43,14.43,0,0,0,1.47.53,4.64,4.64,0,0,0,2.55.23,2.45,2.45,0,0,0,1.43-.93A4.7,4.7,0,0,0,477.12,40.75Z"/><path class="cls-2" d="M441.28,76.55c-.12-.12,1.25-1.47,3.47-2.22s4.17-.33,4.12-.16-1.83.1-3.9.82S441.4,76.72,441.28,76.55Z"/><path class="cls-2" d="M473.86,40.37a12.73,12.73,0,0,1,.4,2.18c.22,1.41.5,3.45.82,6a159.13,159.13,0,0,1,1.35,19.89,92.42,92.42,0,0,1-.75,11,62.64,62.64,0,0,1-1.85,8.79c-.31,1.24-.72,2.32-1.05,3.28a23,23,0,0,1-.95,2.43,13.14,13.14,0,0,1-.94,2,15.84,15.84,0,0,1,.69-2.1c.26-.66.55-1.48.83-2.45s.67-2,.95-3.29a70.87,70.87,0,0,0,1.69-8.74,101,101,0,0,0,.69-10.9,192.83,192.83,0,0,0-1.15-19.82c-.24-2.45-.44-4.47-.59-6A12.54,12.54,0,0,1,473.86,40.37Z"/><path class="cls-5" d="M528.9,292.72H427.72c.39-24,1.43-52.78,2.14-70.74v0q.06-1.51.12-2.91c0-.9.07-1.76.1-2.59.27-6.6.46-10.89.49-11.65a1.09,1.09,0,0,0,0-.12l3.95-.36.55-.05,14.58-1.35,8.91-.82,3.18-.29L470,201l11.34-1,5.81-.53,3.06-.29,19.68-1.81.56-.05.48,1.27c.79,2.14,2.49,6.86,4.49,13,2.58,8,5.66,18.43,7.93,29C524.77,247.07,526.77,267.36,528.9,292.72Z"/><path class="cls-2" d="M510.61,198.9s0,.08,0,.24,0,.24,0,.4c-.05.45-.11,1.07-.18,1.87-.18,1.68-.43,4.09-.76,7.19-.17,1.56-.36,3.3-.57,5.19s-.55,4-.87,6.15c-.65,4.41-1.29,9.45-2.34,15-.49,2.76-1,5.66-1.53,8.67s-1.26,6.13-1.92,9.36c0,.21-.08.43-.13.65-1.25,6.28-2.92,12.91-4.57,19.89-1.57,6.19-3.3,12.62-5.19,19.24h-.69c1.92-6.67,3.67-13.15,5.27-19.39.15-.62.29-1.23.45-1.84,0-.11,0-.22.08-.33,1.54-6.41,3.06-12.52,4.22-18.34.67-3.23,1.37-6.33,2-9.34s1.08-5.9,1.58-8.66c1.08-5.5,1.76-10.53,2.44-14.93q.49-3.3.93-6.14c.23-1.89.43-3.62.62-5.18.38-3.09.68-5.5.89-7.17.11-.8.19-1.42.25-1.87a3.88,3.88,0,0,1,.08-.45Z"/><g class="cls-6"><path d="M496.49,292.72h-4.72c2.19-7.76,4.15-15.06,5.77-21.23,0-.11,0-.22.08-.33,2.87-11,4.62-18.36,4.62-18.36l0,.79C502.78,266.82,500,279.87,496.49,292.72Z"/></g><path class="cls-4" d="M506.86,144.88,514.71,110l-11.87-9.15c-1.87-1.08-14.45-5.45-16.61-5.62A146,146,0,0,0,470.09,95s1.67,15.85-14.69,15.06-14.31-12.26-14.31-12.26-18.15,5.66-18.77,7.82l7.58,99.12c19.41,2.2,80.7-5.81,80.7-5.81s6.27-5.31,7-12.21S506.86,144.88,506.86,144.88Z"/><path class="cls-4" d="M423.08,104.84s-9.28,4.25-10.61,19.85c-.93,10.83-9.24,56.36-9.24,56.36s-.39,4.95,8.92,9.3,18-6.21,18-6.21Z"/><path class="cls-2" d="M422.63,115.47a3,3,0,0,1-.07.72c-.08.54-.19,1.21-.32,2s-.33,2-.49,3.22-.4,2.68-.55,4.27c-.38,3.17-.67,7-.83,11.18s-.06,8.85.27,13.71,1,9.46,1.67,13.62,1.56,7.86,2.39,10.95c.37,1.55.8,2.93,1.15,4.15s.66,2.26.94,3.11.44,1.45.6,2a3.33,3.33,0,0,1,.17.7s-.13-.21-.3-.65-.43-1.15-.73-1.93-.68-1.87-1-3.09-.85-2.59-1.25-4.14c-.89-3.08-1.76-6.8-2.55-11a124.75,124.75,0,0,1-1.94-27.46c.19-4.24.53-8,1-11.22.18-1.59.45-3,.66-4.27s.41-2.33.61-3.21l.45-2A2.93,2.93,0,0,1,422.63,115.47Z"/><g class="cls-6"><path d="M449,291.73c1.78-2.28,1.71-5.46,1.52-8.35-.71-11-1.89-22.09-1.62-33.15S451,228,455.85,218c0,0,6.11-17,8.76-23.9S477,157,477,157s-20.8,29.66-21.3,30.19-21.2,56.23-21.2,56.23L441.2,281Z"/></g><path class="cls-3" d="M460.68,24.45c-1-.63,12.89,6,14.77,18.3s-.79,69.15-.79,69.15l25.19-22.79s-12.46-45.33-17.06-53.59S473.87,22.77,471,22.21c-8.46-1.66-10.33,2.24-10.33,2.24Z"/><path class="cls-3" d="M502.54,100.72c-1.16-1.47-5.38-3.2-10.41-4.62-1.95-.55-4-1-6.07-1.47a.32.32,0,0,0-.14,0l-.49-.1c-.56-.12-1.13-.22-1.69-.32a48.85,48.85,0,0,0-8.34-.87,11.53,11.53,0,0,0-3.37.39l-.11,0-.06.11a.49.49,0,0,1-.06.13c-.1.2-.27.53-.48,1q-.18.33-.39.75v0l-.83,1.64h0l-.12.24h0c-1.22,2.45-3,6-5.07,10.19-.31.61-.62,1.24-.94,1.88-.57,1.17-1.18,2.39-1.79,3.66-9.87,20-24.68,50.63-32.15,69q-.75,1.81-1.38,3.45s0,0,0,0l-.15.38a75.7,75.7,0,0,0-2.79,8.29c-5.58,22.88-20,85-15.61,98.27h10.46a12.24,12.24,0,0,1,3.82,0h25c-.05-.32-.11-.72-.19-1.2-1.4-8.74-6.48-42.39-3.71-52.63,2.46-9.09,6.87-21.25,12.2-34.58.29-.74.59-1.48.89-2.22,4.95-12.29,10.61-25.47,16.19-38.11q2.31-5.21,4.56-10.24c.13-.28.25-.57.38-.85s.15-.33.22-.49q1.24-2.76,2.45-5.45l.47-1,2.13-4.72c1.92-4.22,3.75-8.25,5.48-12,6.18-13.51,10.82-23.54,12.06-26.7a8.12,8.12,0,0,0,.28-.79,1,1,0,0,0,0-.21A1.25,1.25,0,0,0,502.54,100.72Z"/><path class="cls-2" d="M440.7,188.75l-1.34,3.05c-.58,1.32-1.27,2.94-2,4.86s-1.62,4.08-2.44,6.52c-.13.37-.26.75-.4,1.13s-.16.48-.25.72c-.67,1.92-1.36,4-2,6.16L432,212c-.7,2.21-1.34,4.55-2,7-.13.48-.27,1-.41,1.47-1.71,6.61-3.33,13.95-4.6,21.72s-2,15.27-2.41,22.08c-.16,3.41-.34,6.65-.34,9.69s0,5.86,0,8.44.18,4.91.28,7c0,1,.1,1.94.17,2.81H423c0-.88-.08-1.81-.11-2.82-.06-2-.19-4.37-.17-6.95s-.06-5.39.05-8.42.23-6.26.41-9.66c.47-6.79,1.23-14.24,2.45-22,1.11-6.78,2.47-13.23,3.91-19.16l.15-.62c.06-.19.1-.38.15-.57l.33-1.31c.89-3.29,1.7-6.42,2.62-9.31.66-2.25,1.34-4.35,2-6.32.08-.26.17-.53.26-.78s.21-.62.31-.92c.79-2.45,1.64-4.62,2.34-6.54s1.34-3.57,1.88-4.9.92-2.33,1.21-3.09a8.2,8.2,0,0,0,.38-1.09A9.86,9.86,0,0,0,440.7,188.75Z"/><path class="cls-2" d="M488.08,65.12a3.41,3.41,0,0,1,.12.87c.06.65.13,1.48.21,2.5,0,.56.09,1.16.14,1.82s0,1.38,0,2.16c0,1.55.08,3.32-.08,5.26-.05,1-.11,2-.17,3.07s-.24,2.16-.36,3.3c-.21,2.29-.69,4.7-1.15,7.24A99.9,99.9,0,0,1,482,107.43a101.27,101.27,0,0,1-7.66,14.95c-1.44,2.15-2.76,4.22-4.19,6-.7.91-1.34,1.82-2,2.64l-2,2.32c-1.24,1.52-2.52,2.74-3.6,3.86-.54.55-1,1.08-1.52,1.53L459.66,140l-1.88,1.66a4.6,4.6,0,0,1-.69.54,4,4,0,0,1,.59-.65l1.8-1.75,1.3-1.25c.47-.47,1-1,1.48-1.57,1-1.14,2.29-2.38,3.49-3.9.63-.75,1.28-1.53,1.95-2.35s1.3-1.73,2-2.64c1.4-1.8,2.7-3.87,4.11-6a104.68,104.68,0,0,0,7.56-14.87,104.06,104.06,0,0,0,4.84-16c.47-2.52,1-4.91,1.2-7.18.13-1.13.32-2.22.4-3.28s.15-2.07.22-3c.18-1.94.14-3.7.18-5.24,0-.77,0-1.49,0-2.15s-.05-1.26-.07-1.81c0-1-.06-1.86-.09-2.51A4.69,4.69,0,0,1,488.08,65.12Z"/><g class="cls-6"><path d="M450.36,155.3a21,21,0,0,1,5.43-11c8.21-8.76,16.19-17.8,22.15-28.2,7-12.24,10-27.31,10.49-42.36-2.79,14.56-6.61,32-15.26,44.15-4.38,6.16-10.16,11.17-14.91,17s-8.59,13.09-7.94,20.61Z"/></g><g class="cls-6"><path d="M420.54,292.72h0l.81-.1c.36,0,.73-.05,1.1-.05l.39,0H423a69.7,69.7,0,0,1-.57-11.11c.38-8.22.47-25.74,1.88-34,1.36-7.94,3.46-17.06,5.25-24.32l.15-.62.15-.61c1.7-6.82,3.06-11.74,3.14-12.05-.34.71-.67,1.43-1,2.15q-1,2.18-1.92,4.4a150,150,0,0,0-10.28,76.28Z"/></g><path class="cls-12" d="M406.3,157.73,370.41,141.1l-10.72,10.71s41.55,33.23,48.72,36.64S406.3,157.73,406.3,157.73Z"/><polygon class="cls-12" points="364.94 135.28 370.41 141.1 381.48 146.27 377.17 164.56 364.01 155.6 344.75 145.24 347.01 143.8 350.95 134.42 358.58 133.33 364.94 135.28"/><path class="cls-12" d="M341.92,137.66s-3.94-2.59-.36-4.75,6.35-1,6.51-.25a12.67,12.67,0,0,1-.23,2.92s4.35.35,5.3.84a2.92,2.92,0,0,1,1.21,1.88s3.11,2,1.37,3.31a4.36,4.36,0,0,1-3.09,1.12s2.67.52,3.1,1.54a1.84,1.84,0,0,1-1.69,2.36c-.57.08-5.76-.66-5.76-.66l-3.53-.73s-2.37-1.32-1-3C343.79,142.23,340.18,140,341.92,137.66Z"/><path class="cls-14" d="M341.92,137.66a3.44,3.44,0,0,0-.36,1.36c0,.93.9,2.13,2.34,3l.19.12-.14.18a1.39,1.39,0,0,0-.29,1.4,2.82,2.82,0,0,0,1.21,1.26l-.07,0,3.42.67c1.2.17,2.52.33,3.87.49a13.08,13.08,0,0,0,2,.14,1.69,1.69,0,0,0,1.35-1.1,1.13,1.13,0,0,0-.06-.83,1.65,1.65,0,0,0-.71-.59,8.18,8.18,0,0,0-2.11-.7l.12-.68a4.16,4.16,0,0,0,2.46-.8,1.76,1.76,0,0,0,.7-.68,1,1,0,0,0-.14-.83,5.14,5.14,0,0,0-1.55-1.49l-.12-.08,0-.15a2.7,2.7,0,0,0-.83-1.52,4.59,4.59,0,0,0-1.71-.5c-1.25-.21-2.49-.34-3.66-.45l-.34,0,.06-.34c.1-.57.19-1.15.24-1.7s.15-1.17-.17-1.33a4,4,0,0,0-2.76-.51,7.64,7.64,0,0,0-2.53.77,4.78,4.78,0,0,0-1.77,1.32,1.69,1.69,0,0,0-.18,1.64,4,4,0,0,0,.74,1.13c.5.55.84.79.82.82a3,3,0,0,1-1-.69,3.7,3.7,0,0,1-.86-1.15,2,2,0,0,1,.13-1.95,5,5,0,0,1,1.88-1.52,8.17,8.17,0,0,1,2.66-.88,4.46,4.46,0,0,1,3.2.58,1.05,1.05,0,0,1,.34.44,1.43,1.43,0,0,1,.09.5,8.53,8.53,0,0,1,0,.88c-.05.58-.13,1.17-.23,1.76l-.28-.36c1.19.1,2.43.22,3.72.42a4.89,4.89,0,0,1,2,.62,3.28,3.28,0,0,1,1.09,1.93l-.15-.23a5.82,5.82,0,0,1,1.78,1.72,1.64,1.64,0,0,1,.18,1.43,2.37,2.37,0,0,1-.95,1,4.73,4.73,0,0,1-3,.91l.12-.68a9.25,9.25,0,0,1,2.29.78,2.31,2.31,0,0,1,1,.88,1.74,1.74,0,0,1,.09,1.34,2.35,2.35,0,0,1-1.87,1.54,12.29,12.29,0,0,1-2.19-.15c-1.37-.18-2.66-.35-3.9-.55l-3.42-.74h-.05l0,0a3.28,3.28,0,0,1-1.4-1.53,1.82,1.82,0,0,1,.4-1.83l.05.3c-1.49-1-2.39-2.33-2.34-3.37A2,2,0,0,1,341.92,137.66Z"/><path class="cls-14" d="M342.38,137.62c-.06,0,.33-.73,1.43-1.28a7,7,0,0,1,4.58-.41c3.53.76,6,2.28,5.94,2.43s-2.69-1-6.07-1.75a7.58,7.58,0,0,0-4.26.18C343,137.17,342.46,137.7,342.38,137.62Z"/><path class="cls-14" d="M352.91,142.79c0,.22-2.11.08-4.6-.28-1.25-.14-2.39-.27-3.19-.29s-1.32,0-1.35-.08.47-.31,1.33-.41a15.12,15.12,0,0,1,3.29.1A17.92,17.92,0,0,1,352.91,142.79Z"/><path class="cls-12" d="M361.94,140.88a8.12,8.12,0,0,1-5-3l-2.22-2.81-1.62.6s.75,4.94-5.21,3.21c0,0-.59-5.15,1-6.7s6.62-3.44,8.35-2.32,7.3,3.44,8.12,6.31Z"/><path class="cls-14" d="M365.39,136.21a10.42,10.42,0,0,0-1-1.43,16,16,0,0,0-3.84-2.76l-2.93-1.57a2.83,2.83,0,0,0-1.58-.57,7.15,7.15,0,0,0-1.86.2,14.34,14.34,0,0,0-3.81,1.51,4.26,4.26,0,0,0-1.55,1.3,5.43,5.43,0,0,0-.59,2.06,12.12,12.12,0,0,0-.11,1.47,3.58,3.58,0,0,0,.12,1.35,1.85,1.85,0,0,0,2,1.17,2.46,2.46,0,0,0,2.12-.95,3.47,3.47,0,0,0,.47-2.24l0-.24.21-.08,1.62-.58.2-.07.12.16,2.39,3.1a8.74,8.74,0,0,0,2.23,1.88,11.44,11.44,0,0,0,2.37,1,1.66,1.66,0,0,1-.69,0,6.53,6.53,0,0,1-1.84-.63,8.9,8.9,0,0,1-2.41-1.87l-2.49-3.05.32.09-1.61.61.19-.32a4,4,0,0,1-.53,2.67,2.75,2.75,0,0,1-1.16,1,3.94,3.94,0,0,1-1.47.3,2.61,2.61,0,0,1-1.56-.33,2.57,2.57,0,0,1-1.07-1.27,2.61,2.61,0,0,1-.17-.83v-.77a13.62,13.62,0,0,1,.11-1.55,6.27,6.27,0,0,1,.69-2.32,4.74,4.74,0,0,1,1.8-1.54,14.6,14.6,0,0,1,4-1.54,7.73,7.73,0,0,1,2-.19,3.27,3.27,0,0,1,1,.22,8.22,8.22,0,0,1,.82.47c1,.58,2,1.11,2.89,1.64a14.32,14.32,0,0,1,3.79,3,4.17,4.17,0,0,1,.67,1.15A1.43,1.43,0,0,1,365.39,136.21Z"/><path class="cls-12" d="M506.53,251.44l-.49-7.19a12.25,12.25,0,0,1-10.88-11,96.49,96.49,0,0,1-.55-13c0-8.47,2.91-12.86,2.91-12.86a16,16,0,0,1,14.26-7.11c6.68.27,12.66,4.43,15.72,8.57a10.37,10.37,0,0,1,2,7.12c-.54,5.82-1.56,16.85-1.88,19.82a33.85,33.85,0,0,0-.31,5.55l-.18,6.57a11.37,11.37,0,0,1-10.49,12h0C510.63,260.4,507.16,256.39,506.53,251.44Z"/><path class="cls-13" d="M528.38,225.26s0,2.39,0,4.82a2.7,2.7,0,0,1,1.64.74,2.62,2.62,0,0,1,.75,1.82c0,.7.11,1.12-.3,1.64l-.72.8c-.31.42.06-.14-.15.34,2,.12,5.75-.48,5.7-5.58C535.25,222.91,528.55,225.18,528.38,225.26Z"/><path class="cls-12" d="M527.39,224.25c.17-.08,6.86-2.34,6.92,4.58s-6.89,5.56-6.91,5.36S527.39,224.25,527.39,224.25Z"/><path class="cls-14" d="M529.49,231.55s.12.08.33.17a1.19,1.19,0,0,0,.9,0,3,3,0,0,0,1.36-2.69,4,4,0,0,0-.36-1.72,1.38,1.38,0,0,0-.91-.92.61.61,0,0,0-.71.34c-.09.19-.05.33-.08.34s-.15-.11-.1-.4a.79.79,0,0,1,.27-.43.91.91,0,0,1,.66-.19,1.7,1.7,0,0,1,1.27,1.07,4.09,4.09,0,0,1,.44,1.92c0,1.4-.73,2.71-1.73,3a1.27,1.27,0,0,1-1.11-.18C529.51,231.72,529.47,231.56,529.49,231.55Z"/><path class="cls-2" d="M519.67,216.76c-.07-.44-1.3-.61-2.61-1.16s-2.31-1.27-2.67-1c-.17.13-.12.54.23,1a4.39,4.39,0,0,0,4.16,1.7C519.38,217.22,519.7,217,519.67,216.76Z"/><path class="cls-2" d="M503.58,214.79c-.36-.26-1.35.49-2.67,1s-2.54.74-2.61,1.18c0,.21.3.46.9.57a4.15,4.15,0,0,0,2.32-.29,4.21,4.21,0,0,0,1.83-1.43C503.69,215.33,503.75,214.92,503.58,214.79Z"/><path class="cls-2" d="M513.84,232.57a.94.94,0,0,0-.44-.44,6.55,6.55,0,0,0-2.48-.31c-2.28.24-1.23,2.73-.83,3.06a1.05,1.05,0,0,0,.46.23,1,1,0,0,0,.52,0c.58-.29,2.24-1,2.39-1.2h0a1.06,1.06,0,0,0,.24-.19,1,1,0,0,0,.23-.59A1,1,0,0,0,513.84,232.57Z"/><path class="cls-14" d="M506,244.25s8.29-.14,10.2-1.64c0,0-1.31,4-10.1,3.87Z"/><path class="cls-2" d="M507.47,226.43c-.1,0-.28.34-.49.94q-.17.47-.33,1.08c0,.2-.11.42-.17.64a2.72,2.72,0,0,0-.14.78,1.23,1.23,0,0,0,.36.91,1.43,1.43,0,0,0,.79.37,1.63,1.63,0,0,0,.74-.09,2,2,0,0,0,.52-.3c.54-.47.69-.84.64-.91s-.42.19-.93.46a1.27,1.27,0,0,1-.86.15.67.67,0,0,1-.38-.2.5.5,0,0,1-.13-.38,2.71,2.71,0,0,1,.11-.62l.12-.65q.12-.63.18-1.11C507.57,226.86,507.57,226.45,507.47,226.43Z"/><path class="cls-2" d="M494.83,216.39c-1.57-9.28,5-16.15,13.52-17.63,5.72-1,10.39-1,15.88,2.35.91.57,3.85,2.34,5,4,4.76,6.79,3.67,13,2.07,18.79l-2.34-.08,0,.84a2.87,2.87,0,0,1-2.61,2.69,4.21,4.21,0,0,1-1.07,0c-1.06-.18-1.93-2.44-2-3.51a27.14,27.14,0,0,1,.42-5.2c.45-2.67.73-4.17,0-6.41,0,0-.5-4.58-4.52-6.31-4.38-1.88-6.3.68-11.58,1-4.55.23-6.08-1.57-9.16.58S494.83,216.39,494.83,216.39Z"/><path class="cls-3" d="M527.07,244.12c0,.72,2.82,17.58,2.25,22s-.42,26.61-.42,26.61l-40.48,1.12s.11-2.68.39-6.62c.63-9,4.17-21.32,6.32-26.88,3-7.85,11-13.86,11-13.86Z"/><path class="cls-2" d="M529.08,273.07a23,23,0,0,1-.38-4c-.12-2.69-.27-6-.44-9.66s-.4-7.18-.6-9.65a26,26,0,0,1-.24-4,20.28,20.28,0,0,1,.72,4c.33,2.46.64,5.88.81,9.66s.22,7.21.24,9.69A22.56,22.56,0,0,1,529.08,273.07Z"/><path class="cls-12" d="M496.76,293.26S486.23,297,485,298a13.62,13.62,0,0,0-2.41,3.08s-.26,1.77.13,1.75-.82,1.7,0,2.52a1.09,1.09,0,0,0,1.62-.11s-1.23,1.84.13,1.84,5.55-1.85,5.55-1.85l1.54-1.07s-2.25,4.62-1.66,5.17,1.61-.21,1.86-.81a48.62,48.62,0,0,1,3.6-4.14s6-.71,6.87-1.94a17.35,17.35,0,0,0,1.61-3l14.26-9.13a10.82,10.82,0,0,0,5.06-8.07c0-.06,0-.11,0-.15.13-1.1-.86-25-1.21-25.75s-.26-5.26-4.83-5.14-9.54,1.15-9.8,4.38,3.28,22.14,3.28,22.14l-.12,2.79C510.05,281.71,496.76,293.26,496.76,293.26Z"/><path class="cls-14" d="M496.76,293.26A1.53,1.53,0,0,1,497,293l.69-.64,2.72-2.47,4.36-4,2.72-2.54L509,282a11.55,11.55,0,0,0,1.38-1.55v.07c0-.86.07-1.81.1-2.79v.05c-.73-3.84-1.52-8.15-2.28-12.89-.37-2.37-.76-4.84-1-7.43a11.22,11.22,0,0,1-.05-2,3.3,3.3,0,0,1,.92-1.93,7.77,7.77,0,0,1,3.73-1.92,21.94,21.94,0,0,1,4.21-.63c1.36-.11,3.08-.19,4.35.87a6.41,6.41,0,0,1,1.93,4.11,5.8,5.8,0,0,1,.21,1.14l.1,1.13.15,2.28c.35,6.09.62,12.43.83,18.95a17,17,0,0,1-.15,3.95A10.91,10.91,0,0,1,521.9,287a11.62,11.62,0,0,1-2.62,2.88c-1,.79-2.1,1.4-3.14,2.08L504,299.72l.13-.15a19.08,19.08,0,0,1-1.28,2.46c-.12.2-.25.39-.39.58a2.34,2.34,0,0,1-.63.5,7.74,7.74,0,0,1-1.29.52,31.86,31.86,0,0,1-5.15,1l.19-.09c-.82.86-1.61,1.71-2.37,2.57-.37.42-.76.86-1.07,1.29a3.82,3.82,0,0,1-.5.73,2,2,0,0,1-.8.53,1.1,1.1,0,0,1-1.06-.11.54.54,0,0,1-.21-.28.88.88,0,0,1-.06-.29,3.58,3.58,0,0,1,0-.48,11.06,11.06,0,0,1,.49-1.6c.38-1,.81-2,1.26-2.91l.4.34-1.54,1.07,0,0h0a39.82,39.82,0,0,1-4,1.51c-.33.1-.67.19-1,.26a1.84,1.84,0,0,1-1.15,0,.72.72,0,0,1-.35-.61,1.43,1.43,0,0,1,.1-.56,3.77,3.77,0,0,1,.46-.92l.37.28a1.58,1.58,0,0,1-.85.5,1.13,1.13,0,0,1-1-.25,1.21,1.21,0,0,1-.48-.83,2.31,2.31,0,0,1,.06-.88c.07-.27.16-.53.23-.77l.05-.17s0-.13,0,0c.26.1-.17,0-.19-.11a1,1,0,0,1-.1-.26,5.85,5.85,0,0,1,.06-1.58v0l0,0a13.15,13.15,0,0,1,2.31-3,14.52,14.52,0,0,1,3-1.47c1.9-.76,3.54-1.36,4.88-1.84l3.06-1.07.79-.26.27-.06a1.27,1.27,0,0,1-.25.12l-.78.31-3,1.16c-1.32.52-2.95,1.14-4.83,1.93a15,15,0,0,0-2.88,1.45,13.31,13.31,0,0,0-2.2,2.91l0-.07a6.31,6.31,0,0,0-.05,1.43.25.25,0,0,0,0,.1s-.09.11-.07.06h0c0-.17,0-.05,0-.09h0a.33.33,0,0,1,.17.07.3.3,0,0,1,.08.25.45.45,0,0,1,0,.13q0,.12-.06.21a7.72,7.72,0,0,0-.21.75,1.13,1.13,0,0,0,.27,1.26.83.83,0,0,0,1.17-.2l.38.28a3.59,3.59,0,0,0-.4.81c-.1.28-.09.55,0,.6a3.78,3.78,0,0,0,1.78-.26,40.93,40.93,0,0,0,3.95-1.53l0,0,1.53-1.09.84-.59-.44.93c-.44.93-.86,1.89-1.23,2.88a9.15,9.15,0,0,0-.44,1.5c-.05.24,0,.51,0,.49a.52.52,0,0,0,.52,0,1.53,1.53,0,0,0,.57-.39,3.69,3.69,0,0,0,.44-.67c.35-.49.72-.91,1.1-1.35.77-.86,1.56-1.72,2.37-2.59l.08-.08.11,0a31.75,31.75,0,0,0,5-1,8.16,8.16,0,0,0,1.17-.47,2.29,2.29,0,0,0,.43-.33c.12-.16.24-.35.36-.54a17.64,17.64,0,0,0,1.22-2.37l0-.1.08-.05,12.08-7.75c1-.68,2.14-1.31,3.09-2.05a11,11,0,0,0,2.46-2.71,10.24,10.24,0,0,0,1.37-3.43,15.85,15.85,0,0,0,.14-3.79c-.21-6.51-.48-12.85-.81-18.93l-.15-2.27-.09-1.11a4.45,4.45,0,0,0-.2-1.06,5.85,5.85,0,0,0-1.69-3.75c-1-.88-2.49-.85-3.9-.74a21.92,21.92,0,0,0-4.09.59,7.27,7.27,0,0,0-3.44,1.74,2.6,2.6,0,0,0-.77,1.59,10.93,10.93,0,0,0,0,1.89c.23,2.56.61,5,1,7.4.74,4.73,1.49,9,2.18,12.88v.05c-.05,1-.09,1.94-.14,2.8v.07a10.93,10.93,0,0,1-1.5,1.68l-1.49,1.41L505,286.19l-4.43,3.89-2.79,2.39-.74.6C496.86,293.2,496.77,293.27,496.76,293.26Z"/><path class="cls-14" d="M492,300.39c0,.2-2.15.55-4.33,2.07s-3.32,3.4-3.5,3.29.75-2.26,3.11-3.86S492,300.21,492,300.39Z"/><path class="cls-14" d="M489.68,298c.05.2-1.81.78-3.73,2.16s-3.1,2.92-3.26,2.8.81-1.92,2.86-3.37S489.65,297.81,489.68,298Z"/><path class="cls-3" d="M512.82,249.56c-2.35.25-5.8,1.58-7.05,7.6S508,277.93,508,277.93l18.22-1.48s-2-13.52-2.61-17C522.19,252.22,520.33,248.75,512.82,249.56Z"/><path class="cls-2" d="M512.82,249.56a3.08,3.08,0,0,1,.66-.12,15.09,15.09,0,0,1,1.93-.1,9.48,9.48,0,0,1,3.05.56,6.38,6.38,0,0,1,3.13,2.71c1.63,2.7,2.21,6.41,2.83,10.43s1.34,8.57,2.1,13.36l.05.35-.36,0-8.18.67-10,.81-.29,0-.06-.29a113.73,113.73,0,0,1-2.13-12.68,46.07,46.07,0,0,1-.26-5.5,15,15,0,0,1,.86-4.69,8.23,8.23,0,0,1,4.34-5.06,5.57,5.57,0,0,1,2.38-.51,11.68,11.68,0,0,0-2.28.73,8,8,0,0,0-4,5c-1,2.68-.85,6.15-.43,10a118.37,118.37,0,0,0,2.2,12.59l-.35-.26,10.05-.82,8.18-.66-.31.38c-.72-4.78-1.4-9.28-2-13.34s-1.11-7.72-2.61-10.31a6.19,6.19,0,0,0-2.89-2.62,9.49,9.49,0,0,0-2.93-.64C513.74,249.5,512.83,249.63,512.82,249.56Z"/><path class="cls-12" d="M536.14,233.31l-.69,6.45c-.2,1.93-.14,4.15-1.08,5.89a54.66,54.66,0,0,1-3.42,5c-1.18,1.71-2.37,3.41-3.56,5.12s1.49,3.06,2.57,1.5q1.9-2.74,3.82-5.48a34.8,34.8,0,0,0,3.51-5.36c.85-1.92.87-4.16,1.09-6.22l.73-6.91C539.31,231.41,536.34,231.42,536.14,233.31Z"/><path class="cls-12" d="M537.05,232.3a6.7,6.7,0,0,1-2.78,2.44A33.45,33.45,0,0,1,532,245.37a27.69,27.69,0,0,1-7.64,9.64c-1.47,1.24.64,3.33,2.1,2.11a29.84,29.84,0,0,0,8.27-10.61c1.81-4.17,2.26-8.72,2.64-13.2A1.26,1.26,0,0,0,537.05,232.3Z"/><path class="cls-12" d="M535.43,234a8.77,8.77,0,0,1-3,1.39q-.54,2.61-1.07,5.21a16,16,0,0,1-1.83,5.25,27.54,27.54,0,0,1-7.29,8,1.53,1.53,0,0,0-.53,2,1.5,1.5,0,0,0,2,.54,31.69,31.69,0,0,0,8.19-8.77c2.33-3.76,2.74-8.41,3.62-12.68A1.45,1.45,0,0,0,535.43,234Z"/><path class="cls-12" d="M531.78,235.6h0a5.68,5.68,0,0,1-1.87-.39l-.18-.06c-.92,1.06-2.28,2.51-2.28,2.51.46,1.2,2.08,3.28,1.58,4.38s-1.09,2.33-1.72,3.44a14.11,14.11,0,0,1-4.8,5.31,1.49,1.49,0,0,0,1.5,2.57,17.35,17.35,0,0,0,6-6.57,41.28,41.28,0,0,0,1.92-4,6.75,6.75,0,0,0,.53-5.07C532.29,237.4,532.06,236.45,531.78,235.6Z"/><path class="cls-15" d="M532.73,240.07c.4,2,.93,3.15-.29,4.94-.83,1.21-3.12,5-4.32,5.87a15.13,15.13,0,0,1-5.07,2.72"/><path class="cls-15" d="M535,242.61c.4,1.95-.53,3.11-1.75,4.9-.82,1.21-3.11,5-4.31,5.87a15.32,15.32,0,0,1-5.07,2.72"/><path class="cls-15" d="M536.54,243.46a7.51,7.51,0,0,1-1.2,4.79c-.82,1.2-4.41,6.06-5.61,6.89a11.79,11.79,0,0,1-2.63,1.52"/><path class="cls-2" d="M500.64,223.21a3.5,3.5,0,0,1,1.11-1.36,4,4,0,0,1,1.65-.76,3.08,3.08,0,0,1,1.85.22,2.84,2.84,0,0,1,1.33,1.18,9.33,9.33,0,0,0-1.56-.44,4.35,4.35,0,0,0-1.44,0A12.07,12.07,0,0,0,500.64,223.21Z"/><path class="cls-2" d="M510,222.78a3.65,3.65,0,0,1,1.51-.9,3.94,3.94,0,0,1,1.81-.15,3.13,3.13,0,0,1,1.66.83,2.87,2.87,0,0,1,.85,1.57,8.55,8.55,0,0,0-1.32-.94,3.86,3.86,0,0,0-1.36-.47A12,12,0,0,0,510,222.78Z"/><path class="cls-16" d="M520.86,219.79a1.88,1.88,0,0,1,1.75,3.32c-.92.48-4.7.74-4.86.45S519.94,220.28,520.86,219.79Z"/><path class="cls-16" d="M530.49,221.52a1.88,1.88,0,1,1-.09,3.75c-1,0-4.47-1.64-4.46-2S529.45,221.5,530.49,221.52Z"/><path class="cls-16" d="M532,229.3a1.88,1.88,0,0,1-2.37,2.91c-.8-.66-2.51-4-2.3-4.3S531.23,228.65,532,229.3Z"/><path class="cls-16" d="M496.24,218.84a1.87,1.87,0,1,0-1.76,3.31c.92.48,4.7.74,4.86.45S497.15,219.32,496.24,218.84Z"/><path class="cls-16" d="M486.61,220.56a1.88,1.88,0,1,0,.08,3.75c1,0,4.47-1.64,4.46-2S487.64,220.54,486.61,220.56Z"/><path class="cls-16" d="M485.06,228.34a1.88,1.88,0,1,0,2.37,2.91c.8-.65,2.52-4,2.31-4.3S485.86,227.69,485.06,228.34Z"/></g><rect class="cls-17" y="290.96" width="783.27" height="1.96" rx="0.98"/></svg>