<svg xmlns="http://www.w3.org/2000/svg" xmlns:xlink="http://www.w3.org/1999/xlink" viewBox="0 0 645.44 669.75"><defs><style>.cls-1{fill:none;}.cls-2{isolation:isolate;}.cls-3{clip-path:url(#clip-path);}.cls-4{fill:#fafafa;}.cls-5,.cls-8{fill:#385a64;}.cls-10,.cls-6{fill:#065b7a;}.cls-7{fill:#044c64;}.cls-8{stroke:#fee48f;stroke-miterlimit:10;}.cls-9{fill:#fec901;}.cls-10{mix-blend-mode:multiply;opacity:0.1;}.cls-11{fill:#636675;}.cls-12{fill:#828591;}.cls-13{fill:#063f52;}.cls-14{fill:#9b9da7;}.cls-15{fill:#c8c8c8;}.cls-16{fill:#ffbe9d;}.cls-17{fill:#b28f83;}</style><clipPath id="clip-path"><rect class="cls-1" width="645.44" height="645.44" rx="322.72"/></clipPath></defs><g class="cls-2"><g id="Layer_1" data-name="Layer 1"><g class="cls-3"><rect class="cls-4" width="645.44" height="645.44" rx="162.5"/><rect class="cls-5" x="173.38" y="144.73" width="298.68" height="355.98"/><rect class="cls-5" x="173.38" y="499.11" width="298.68" height="1.6"/><rect class="cls-6" x="163.97" y="192.62" width="317.49" height="260.19" transform="translate(645.44 0) rotate(90)"/><rect class="cls-7" x="316.31" y="40.29" width="12.83" height="260.19" transform="translate(493.11 -152.33) rotate(90)"/><rect class="cls-7" x="316.31" y="152.7" width="12.83" height="259.87" transform="translate(605.36 -40.09) rotate(90)"/><rect class="cls-7" x="248.13" y="329.91" width="12.83" height="123.52" transform="translate(646.22 137.13) rotate(90)"/><rect class="cls-7" x="46.7" y="309.89" width="317.49" height="25.66" transform="translate(528.17 117.27) rotate(90)"/><rect class="cls-7" x="236.13" y="362.81" width="211.66" height="25.66" transform="translate(717.6 33.67) rotate(90)"/><rect class="cls-5" x="163.97" y="192.62" width="317.49" height="260.19" transform="translate(645.44 0) rotate(90)"/><rect class="cls-8" x="165.58" y="194.23" width="314.29" height="256.99" transform="translate(645.44 0) rotate(90)"/><circle class="cls-9" cx="322.88" cy="297.07" r="48.11"/><rect class="cls-5" x="290.97" y="286.7" width="63.82" height="20.73"/><rect class="cls-5" x="290.97" y="286.7" width="63.82" height="20.73" transform="translate(25.82 619.95) rotate(-90)"/><path class="cls-10" d="M228,326.3a9.41,9.41,0,0,1-8.36,9.35v4.89l-1.15,0v-4.85A9.42,9.42,0,1,1,228,326.3Z"/><circle class="cls-11" cx="218.28" cy="325.98" r="9.42"/><circle class="cls-11" cx="218.28" cy="325.98" r="9.42"/><path class="cls-11" d="M219.66,323.44v11.85a8.77,8.77,0,0,1-1.15.1V323.44a.58.58,0,0,1,1.15,0Z"/><circle class="cls-12" cx="218.28" cy="325.98" r="7.45"/><path class="cls-10" d="M227.21,326.94a1.25,1.25,0,0,1-1.25,1.25h-6.3v7.1a8.77,8.77,0,0,1-1.15.1v-7.2h-7.26a1.26,1.26,0,0,1-.89-2.14,1.28,1.28,0,0,1,.89-.36H226A1.25,1.25,0,0,1,227.21,326.94Z"/><path class="cls-10" d="M219.66,323.77v1.92h-1.15v-1.92a.58.58,0,1,1,1.15,0Z"/><path class="cls-10" d="M227.9,342.87A2.19,2.19,0,0,0,226,341a48.62,48.62,0,0,0-6.25-.42h-.07l-1.15,0c-2.19.05-3.63.25-5,.4a2.19,2.19,0,0,0-1.92,1.91c-.19,1.6-.44,3.91-.44,4.89s.22,3.07.41,4.61a2.16,2.16,0,0,0,2.15,1.92h2.87l0,.09,1.14,2.22a.41.41,0,0,1,0,.43l-.38.53a.42.42,0,0,0,0,.43l.47,1a.45.45,0,0,1,0,.36l-.49,1.06a.45.45,0,0,0,0,.39l.42.69a.45.45,0,0,1,0,.36l-.56,1.59a.41.41,0,0,0,0,.31l.53,1.16a.44.44,0,0,1,0,.37l-.44.84a.41.41,0,0,0,0,.4l.41.73a.42.42,0,0,1,0,.43l-.34.54a.42.42,0,0,0,0,.52l1.17,1.25a1.52,1.52,0,0,0,2.27-.05l1.34-1.57a.44.44,0,0,0,.08-.4l-.53-1.64a.39.39,0,0,1,0-.26l.58-1.87a.44.44,0,0,0,0-.3l-.59-1.29a.45.45,0,0,1,0-.39l.53-.89a.4.4,0,0,0,0-.41l-.4-.78a.38.38,0,0,1,0-.33l.46-1.32a.41.41,0,0,0,0-.29l-.59-1.53a.45.45,0,0,1,0-.34l1-2h3a2.17,2.17,0,0,0,2.16-1.92c.18-1.54.4-3.63.4-4.64S228.08,344.47,227.9,342.87Zm-8.17,3.45a2,2,0,0,1-1.07-3.74.56.56,0,0,0,.43.19.57.57,0,0,0,.56-.49h.08a2,2,0,0,1,0,4Z"/><path class="cls-12" d="M215.3,353.42l1.14,2.22a.4.4,0,0,1,0,.43l-.38.53a.42.42,0,0,0,0,.43l.46,1a.41.41,0,0,1,0,.36l-.49,1.06a.39.39,0,0,0,0,.39l.42.69a.41.41,0,0,1,0,.36l-.56,1.59a.42.42,0,0,0,0,.31l.52,1.16a.4.4,0,0,1,0,.37l-.44.84a.43.43,0,0,0,0,.4l.41.73a.42.42,0,0,1,0,.43l-.34.54a.41.41,0,0,0,0,.51l1.17,1.26a1.53,1.53,0,0,0,2.27-.05l1.33-1.57a.39.39,0,0,0,.08-.4l-.52-1.65a.36.36,0,0,1,0-.25l.57-1.88a.37.37,0,0,0,0-.29l-.58-1.29a.41.41,0,0,1,0-.39l.54-.9a.43.43,0,0,0,0-.41l-.41-.77a.42.42,0,0,1,0-.33l.46-1.33a.42.42,0,0,0,0-.29l-.58-1.52a.4.4,0,0,1,0-.34l1.09-2.11a.42.42,0,0,0-.39-.61l-5.45.2A.42.42,0,0,0,215.3,353.42Z"/><path class="cls-11" d="M218.71,352.8v16.63a1.68,1.68,0,0,1-.55,0V352.8Z"/><path class="cls-11" d="M218.71,352.8v16.63a1.68,1.68,0,0,1-.55,0V352.8Z"/><path class="cls-13" d="M226.61,341.91A2.17,2.17,0,0,0,224.7,340a46.79,46.79,0,0,0-12.51,0,2.17,2.17,0,0,0-1.91,1.91c-.19,1.6-.44,3.91-.44,4.89s.22,3.07.4,4.61a2.18,2.18,0,0,0,2.16,1.92h12.09a2.16,2.16,0,0,0,2.15-1.92c.19-1.54.41-3.63.41-4.64S226.8,343.51,226.61,341.91Zm-8.17,3.45a2,2,0,1,1,2-2A2,2,0,0,1,218.44,345.36Z"/><path class="cls-13" d="M227.05,326h0a1.25,1.25,0,0,1-1.25,1.25H211.09a1.25,1.25,0,0,1-1.25-1.25h0a1.25,1.25,0,0,1,1.25-1.25H225.8A1.25,1.25,0,0,1,227.05,326Z"/><path class="cls-14" d="M218.44,342.77h0a.58.58,0,0,1-.57-.57V323.44a.58.58,0,0,1,.57-.57h0a.58.58,0,0,1,.58.57V342.2A.58.58,0,0,1,218.44,342.77Z"/><rect class="cls-15" x="30.17" y="499.81" width="590.61" height="9.84"/><path class="cls-16" d="M557.57,564.06,359.89,579.58,217.53,435.23l.14-3.15s3.6-24,6.18-41.83l.11.12,11.26-39.28s-9.42-5.91-16.24,1.59a24.21,24.21,0,0,0-2.66,3.7l-1.9-21.28-23-39.75s-10.79,2.69-10.12,12.81,14.16,35,14.16,35l-3.37,20.5s-11-28.49-19-43.47a7.91,7.91,0,0,0,.26-2V318a7.61,7.61,0,0,0-4.85-7.21,5.86,5.86,0,0,0-3-.67l-2.1.28a8,8,0,0,0-3.48,2c-.41.54-3.88,8.28-3.49,10.33.71,3.73,5.92,21.12,9.07,31.48a9.66,9.66,0,0,0-9-5.53c-5.33.14-9,4.85-10.09,9.7a20.45,20.45,0,0,0,.93,12.16,88.37,88.37,0,0,0,5.09,13.81l0,.29a11.17,11.17,0,0,0-14.47-2.2c-5.17,3.24-6.46,9.94-4.91,15.45,3.16,11.24,30.73,68.93,30.73,68.93s125,177.12,147.61,195.75,206.6-4.83,206.6-4.83ZM166,360.28a8.57,8.57,0,0,0,.26-1.94,10.42,10.42,0,0,0-.14-1.69c1,3.26,1.64,5.37,1.64,5.37S167.09,361.32,166,360.28Z"/><path class="cls-17" d="M213.05,379.88c.3-4,.78-8,1.26-12s1-8,1.75-11.91c-.3,4-.79,8-1.26,12S213.76,375.92,213.05,379.88Z"/><path class="cls-17" d="M167.78,362a34.44,34.44,0,0,1-3.54-2.7,35.87,35.87,0,0,1-3.21-3.08,35.56,35.56,0,0,1,3.54,2.7A37.27,37.27,0,0,1,167.78,362Z"/><path class="cls-17" d="M173.74,320.84a8.1,8.1,0,0,1-1.75-1.17,8,8,0,0,1-1.41-1.54,8,8,0,0,1,1.74,1.16A8.08,8.08,0,0,1,173.74,320.84Z"/><path class="cls-17" d="M153.21,386.87a7.65,7.65,0,0,1-3.88,0,7.65,7.65,0,0,1,3.88,0Z"/></g></g></g></svg>