<svg id="Layer_1" data-name="Layer 1" xmlns="http://www.w3.org/2000/svg" xmlns:xlink="http://www.w3.org/1999/xlink" viewBox="0 0 831.06 612.58"><defs><style>.cls-1,.cls-17,.cls-19,.cls-20,.cls-28,.cls-33,.cls-37{fill:none;}.cls-2{fill:#bfbfbf;opacity:0.21;}.cls-10,.cls-11,.cls-2,.cls-21,.cls-22,.cls-23,.cls-24,.cls-25,.cls-26,.cls-29,.cls-30,.cls-31,.cls-32,.cls-34,.cls-35,.cls-36,.cls-8,.cls-9{isolation:isolate;}.cls-3{clip-path:url(#clip-path);}.cls-4{fill:#fec901;}.cls-5{fill:#8f8f8f;}.cls-6{fill:#d89c84;}.cls-11,.cls-7{fill:#c8c8c8;}.cls-10,.cls-8{opacity:0.53;}.cls-8{fill:url(#linear-gradient);}.cls-9{opacity:0.65;fill:url(#linear-gradient-2);}.cls-10{fill:url(#linear-gradient-3);}.cls-11{opacity:0.34;}.cls-12{fill:#f0f0f0;}.cls-13{fill:url(#linear-gradient-4);}.cls-14{fill:#f2c5b1;}.cls-15{fill:#39525a;}.cls-16,.cls-34{fill:#fff;}.cls-17,.cls-33{stroke:#2a454e;}.cls-17,.cls-19,.cls-20,.cls-33,.cls-37{stroke-linecap:round;stroke-linejoin:round;}.cls-17,.cls-19,.cls-20{stroke-width:0.27px;}.cls-18{fill:#2a454e;}.cls-19,.cls-20{stroke:#f0f0f0;}.cls-20{stroke-dasharray:2.12 2.12;}.cls-21,.cls-22,.cls-23,.cls-24,.cls-25,.cls-29,.cls-35,.cls-36{opacity:0.46;}.cls-21{fill:url(#linear-gradient-5);}.cls-22{fill:url(#linear-gradient-6);}.cls-23{fill:url(#linear-gradient-7);}.cls-24{fill:url(#linear-gradient-8);}.cls-25{fill:url(#linear-gradient-9);}.cls-26{opacity:0.6;fill:url(#linear-gradient-10);}.cls-27{fill:#fff6ed;}.cls-28{stroke:#fff6ed;stroke-miterlimit:10;}.cls-28,.cls-37{stroke-width:0.25px;}.cls-29{fill:url(#linear-gradient-11);}.cls-30{opacity:0.37;fill:url(#linear-gradient-12);}.cls-31{opacity:0.23;fill:url(#linear-gradient-13);}.cls-32,.cls-34{opacity:0.35;}.cls-32{fill:url(#linear-gradient-14);}.cls-33{stroke-width:0.15px;}.cls-35{fill:url(#linear-gradient-15);}.cls-36{fill:url(#linear-gradient-16);}.cls-37{stroke:#dadada;}.cls-38{fill:#dadada;}.cls-39{fill:#efefff;}.cls-40{fill:url(#linear-gradient-17);}</style><clipPath id="clip-path" transform="translate(132.42 0)"><circle class="cls-1" cx="306.29" cy="306.29" r="306.29"/></clipPath><linearGradient id="linear-gradient" x1="138.64" y1="273.27" x2="208.22" y2="273.27" gradientTransform="matrix(1, 0, 0, -1, 132.42, 614)" gradientUnits="userSpaceOnUse"><stop offset="0" stop-color="#dadada" stop-opacity="0"/><stop offset="1" stop-color="#c8c8c8" stop-opacity="0.5"/></linearGradient><linearGradient id="linear-gradient-2" x1="418.19" y1="376.48" x2="420.15" y2="259.69" gradientTransform="matrix(1, 0, 0, -1, 0, 614)" xlink:href="#linear-gradient"/><linearGradient id="linear-gradient-3" x1="414.25" y1="220.94" x2="412.28" y2="102.72" gradientTransform="matrix(1, 0, 0, -1, 0, 614)" xlink:href="#linear-gradient"/><linearGradient id="linear-gradient-4" x1="461.66" y1="281.31" x2="462.32" y2="226.85" xlink:href="#linear-gradient"/><linearGradient id="linear-gradient-5" x1="467.72" y1="377.46" x2="453.58" y2="420.89" gradientTransform="matrix(1, 0, 0, -1, 0, 614)" gradientUnits="userSpaceOnUse"><stop offset="0" stop-color="#d89c84" stop-opacity="0"/><stop offset="1" stop-color="#f2c5b1"/></linearGradient><linearGradient id="linear-gradient-6" x1="4764.31" y1="415.85" x2="4771.47" y2="425.28" gradientTransform="translate(5198.36 614) rotate(180)" xlink:href="#linear-gradient-5"/><linearGradient id="linear-gradient-7" x1="188.74" y1="920.76" x2="195.9" y2="930.18" gradientTransform="matrix(0.98, -0.22, -0.22, -0.98, 457.18, 1132.84)" xlink:href="#linear-gradient-5"/><linearGradient id="linear-gradient-8" x1="479.99" y1="420.71" x2="431.06" y2="433.47" gradientTransform="matrix(1, 0, 0, -1, 0, 614)" gradientUnits="userSpaceOnUse"><stop offset="0" stop-color="#d89c84" stop-opacity="0"/><stop offset="1" stop-color="#f2c5b1" stop-opacity="0.5"/></linearGradient><linearGradient id="linear-gradient-9" x1="421.44" y1="392.8" x2="432.44" y2="428.06" xlink:href="#linear-gradient-8"/><linearGradient id="linear-gradient-10" x1="373.14" y1="308.65" x2="447.36" y2="468.46" gradientTransform="matrix(1, 0, 0, -1, 0, 614)" gradientUnits="userSpaceOnUse"><stop offset="0" stop-color="#d89c84" stop-opacity="0"/><stop offset="1" stop-color="#f2c5b1" stop-opacity="0.6"/></linearGradient><linearGradient id="linear-gradient-11" x1="88.25" y1="381.94" x2="88.41" y2="410.58" xlink:href="#linear-gradient-5"/><linearGradient id="linear-gradient-12" x1="237.85" y1="278.32" x2="229.72" y2="284.34" gradientTransform="matrix(1, 0, 0, -1, 0, 614)" gradientUnits="userSpaceOnUse"><stop offset="0.01" stop-color="#d89c84" stop-opacity="0"/><stop offset="1" stop-color="#f2c5b1"/></linearGradient><linearGradient id="linear-gradient-13" x1="242.15" y1="296.07" x2="223.15" y2="286.61" xlink:href="#linear-gradient-12"/><linearGradient id="linear-gradient-14" x1="233.42" y1="308.93" x2="222.79" y2="286.56" xlink:href="#linear-gradient-12"/><linearGradient id="linear-gradient-15" x1="110.4" y1="410.11" x2="118.44" y2="410.11" xlink:href="#linear-gradient-5"/><linearGradient id="linear-gradient-16" x1="110.54" y1="416.08" x2="120.61" y2="416.08" xlink:href="#linear-gradient-5"/><linearGradient id="linear-gradient-17" x1="191.96" y1="102.41" x2="147.61" y2="108.29" gradientTransform="matrix(1, 0, 0, -1, 0, 614)" xlink:href="#linear-gradient"/></defs><g id="Layer_1-2" data-name="Layer 1"><circle class="cls-2" cx="438.71" cy="306.29" r="306.29"/><g class="cls-3"><path class="cls-4" d="M448.45,138.82a10.72,10.72,0,0,1-8.23-3.71,10.85,10.85,0,0,1,.71-14.13c2.9-2.88,6.95-3.67,10.86-4.43,1.2-.24,2.39-.47,3.54-.76,4.09-1,9.4-4.52,8.37-9a5.87,5.87,0,0,0-3.12-3.79l-1.51.2A64.88,64.88,0,0,1,441.26,108c-11.47,1.28-22.38-1.59-30-7.87C402.58,93,398.73,81.09,402,71.34c2.16-6.35,7.2-11.83,14.36-15.79a7.38,7.38,0,0,1,1.52-3.95,10,10,0,0,1,1-1.14,10.29,10.29,0,0,1,.17-5.53c2-6.12,9.16-8.38,14.83-9.19,1.91-.28,3.85-.49,5.76-.63a35.42,35.42,0,0,1,6.58-2.31,13.33,13.33,0,0,1,11,2.64l.34.31c7.16,1,11.57,3.69,13.12,7.86a8.87,8.87,0,0,1,.55,3.61,15.64,15.64,0,0,1,5.46,1.93c2.54,1.55,4.69,4.62,4.47,7.83,3.61,2,5.77,4.27,6.56,6.87a19.6,19.6,0,0,1,5.54,12C493.93,86,485.26,94,476.92,98a54.3,54.3,0,0,1-13.78,4.57,7,7,0,0,1,2.34,3.77c1.18,5.18-4,9.76-9.71,11.21-1.18.3-2.41.54-3.64.78-3.81.74-7.41,1.45-9.92,3.94a8.65,8.65,0,0,0,11,13.29.92.92,0,0,1,1.23,1.37.76.76,0,0,1-.23.15A10.26,10.26,0,0,1,448.45,138.82ZM404.51,70.09a16.67,16.67,0,0,0-.72,1.84c-3.07,9,.49,20.08,8.66,26.84,7.21,6,17.63,8.68,28.59,7.45a57.45,57.45,0,0,0,11.79-2.64,55.6,55.6,0,0,1-9.29-.73,14.77,14.77,0,0,1-2.19-.22,12,12,0,0,1-2.61-.78l-.48-.13A57.58,57.58,0,0,1,425,99.59c-10.19-2.89-20.75-10.86-19.83-21.52a15,15,0,0,1,.95-4.13A7.16,7.16,0,0,1,404.51,70.09ZM455.65,99.9a14.79,14.79,0,0,1,4.4.89c3.1-1.36,6.32-3,9.72-4.89,6.94-3.88,15-10.18,14.55-18.29-2.53,7.62-9.5,14.1-16.84,17.84A58.2,58.2,0,0,1,455.65,99.9Zm29.57-26.56a14.19,14.19,0,0,1,.88,3.52c1,9.38-7.85,16.4-15.43,20.65-1.72.95-3.38,1.83-5,2.65a52.57,52.57,0,0,0,10.44-3.79c7.8-3.81,15.93-11.18,15.37-20.44a16.62,16.62,0,0,0-3.42-8.88,9.18,9.18,0,0,1-2.78,5.29C485.27,72.68,485.24,73,485.22,73.34ZM438.93,99.91a57.16,57.16,0,0,0,27.72-6.1c7.92-4,15.42-11.38,16.64-19.77a22.54,22.54,0,0,1-2.17,1.37c-1.54,5.17-6.62,9.76-12.22,12.21a47.34,47.34,0,0,1-29.19,2.76,25.17,25.17,0,0,1-8.49-3.57v.36A14.49,14.49,0,0,0,438.93,99.91ZM407.49,75.44a12.62,12.62,0,0,0-.53,2.79c-.85,9.62,9,16.9,18.5,19.59a51.21,51.21,0,0,0,5,1.17l-.62-.28c-4.07-1.84-13.54-7.11-13.7-16.23a11.9,11.9,0,0,1,.27-2.79L415,79.28A21.25,21.25,0,0,1,407.49,75.44Zm10.63,4.74a11.55,11.55,0,0,0-.2,2.27c.16,8.3,9.66,13.26,12.66,14.55q1.62.73,3.3,1.35a16.53,16.53,0,0,1-4.47-11.22,12.38,12.38,0,0,1,.08-1.72A13.23,13.23,0,0,1,426.67,82,84.47,84.47,0,0,1,418.12,80.18Zm13.29,4.52a22.7,22.7,0,0,0,8.71,3.89,45.55,45.55,0,0,0,28.05-2.65c4.51-2,8.67-5.42,10.54-9.34-.51.22-1,.41-1.38.56a97.24,97.24,0,0,1-45.49,5.61A16.25,16.25,0,0,0,431.41,84.7Zm-2.29-2.28c.22.28.45.55.69.82a2.86,2.86,0,0,1,.17-.7Zm3.3-1.42a95.53,95.53,0,0,0,44.25-5.54,28,28,0,0,0,2.91-1.3,8.72,8.72,0,0,0-1-6.16,18.65,18.65,0,0,1-3.37,2.28,61.68,61.68,0,0,1-40.36,6.27A20.89,20.89,0,0,0,432.42,81Zm-4.52-.61c.87.14,1.74.27,2.62.38a22.44,22.44,0,0,1,2.34-4.64,29.75,29.75,0,0,1-5.28-1.76,9,9,0,0,0-.34,3.65,8.49,8.49,0,0,0,.67,2.36Zm-9.28-2q3.57.94,7.19,1.61a12,12,0,0,1-.37-1.78,10.71,10.71,0,0,1,.49-4.7,17.61,17.61,0,0,1-2.46-1.65,16.3,16.3,0,0,0-4.85,6.54Zm-10.42-4.8a18.5,18.5,0,0,0,7.27,3.91l1.38.4a17.59,17.59,0,0,1,4.64-6.71,5.72,5.72,0,0,1-3.72-4.43,5.06,5.06,0,0,1,.11-2.19c-3.83,2-7.71,4.91-9.67,9Zm27.91,1.28a59.82,59.82,0,0,0,38.21-6.24,17.65,17.65,0,0,0,2.77-1.82,17.22,17.22,0,0,0-2.59-1.26c-.58-.22-1.17-.42-1.78-.6l-.9.29-2.22.66a.88.88,0,0,1-.4.67,49.82,49.82,0,0,1-32.8,8Zm-5.63-1.37a30.15,30.15,0,0,0,3.31.92H434l.18-.23c-1.23-.19-2.47-.44-3.68-.73Zm7.57-.65a48.1,48.1,0,0,0,26.39-5.55,163.82,163.82,0,0,1-25,4.34c-.46.41-.93.81-1.39,1.23Zm43.37-2.35a10,10,0,0,1,.16,2.5c.35-.24.71-.5,1.06-.76a13,13,0,0,0-1.22-1.72Zm-48.58,1.64c.94.18,1.88.33,2.83.46q.33-.36.69-.69c-1.16.09-2.34.18-3.51.25ZM417.16,59.29q-2.34,1.2-4.56,2.52c-4.2,2.49-6.2,4.87-6.28,7.48A5.21,5.21,0,0,0,407,72c2.69-4.89,7.76-8.08,12.21-10.06h0A8.27,8.27,0,0,1,417.16,59.29Zm10,11.21h.25a17.31,17.31,0,0,1,1.84-2.35A28.51,28.51,0,0,0,426.08,70l1.1.5Zm7-4.25a22.16,22.16,0,0,0-4.49,4.21c3-.11,6-.31,9.05-.58l.34-.25a34.12,34.12,0,0,1,9.52-4.76,51.51,51.51,0,0,1-14.37,1.38Zm45.75.3a17.72,17.72,0,0,1,3.42,3.5,5.07,5.07,0,0,0-.1-.77,17,17,0,0,0-1.91-5.64A7,7,0,0,1,480,66.55Zm2-5.4A19,19,0,0,1,485.1,69a3.65,3.65,0,0,0,.08.55,6.18,6.18,0,0,0,1.06-4.13c0-.22-.06-.44-.11-.66A32.52,32.52,0,0,0,482,61.15Zm-22.19,3.19-1.43.19a43,43,0,0,0-15.62,4.94,162.35,162.35,0,0,0,21.74-4,38.79,38.79,0,0,0-4.64-1.13Zm-38.34-.94a6.82,6.82,0,0,0,.34,2,7.5,7.5,0,0,0,2.67,3.51,32,32,0,0,1,5.47-3c-.85-.12-1.7-.26-2.54-.42A20.91,20.91,0,0,1,421.38,63.4Zm-1.8,2.39a2.81,2.81,0,0,0,0,.71,3.42,3.42,0,0,0,.9,1.82A9.55,9.55,0,0,1,419.58,65.79Zm57.13-2.51a14.34,14.34,0,0,1,2.06,1.84,4.46,4.46,0,0,0,.9-2.77,3.86,3.86,0,0,0-.21-1.22,10.79,10.79,0,0,1-2.79,2.15ZM466.18,64c.54.16,1.06.34,1.6.52l1.12-.32A23.66,23.66,0,0,0,466.18,64Zm-42.92-1.72a21.12,21.12,0,0,0,4.4,1.35,46.82,46.82,0,0,0,6,.74c.91-.63,1.74-1.14,2.41-1.52l.24-.14c-.87-.14-1.73-.3-2.59-.5a31.39,31.39,0,0,1-4.9-1.48c-.69.15-1.38.32-2.07.49s-2.07.57-3.49,1.07ZM453,63.58l-.51.17.7-.16Zm12.15-1.43a29.27,29.27,0,0,1,7.39.85A31.17,31.17,0,0,0,467,61.12c-1.89-.47-3.8-.88-5.72-1.21A48.14,48.14,0,0,1,457,62.05q1.42.16,2.85.42a47.49,47.49,0,0,1,5.33-.31Zm-1.33-3.62c1.21.25,2.4.52,3.6.82a30.59,30.59,0,0,1,7.43,2.79,9.47,9.47,0,0,0,3.46-2.62l-.42-.43c-1.94-1.58-5.1-2.25-7.26-2.39-1.12-.08-2.25-.12-3.38-.13-.59.4-1.2.78-1.82,1.12s-1.07.59-1.61.85ZM443,61.45a44.06,44.06,0,0,0,14.09-2.15c-2.13-.26-4.28-.44-6.42-.54a60.64,60.64,0,0,0-7.67,2.7ZM432.42,60c.55.16,1.12.3,1.71.43a41.67,41.67,0,0,0,5,.81,59.74,59.74,0,0,1,5.8-2.52A83.28,83.28,0,0,0,432.42,60Zm-7.3-1.17a24.22,24.22,0,0,0-1.89,1.53c1.18-.39,2.2-.68,3-.88a11.79,11.79,0,0,1-1.12-.65Zm-6.32-.37A6.13,6.13,0,0,0,420,60.1a12.38,12.38,0,0,1,1.51-2.91c-.9.41-1.81.81-2.69,1.27Zm7.92-.79A21,21,0,0,0,429,58.82a83.52,83.52,0,0,1,21.51-1.89,62.38,62.38,0,0,1,14.76-2.17c.37-.36.73-.73,1.07-1.12A69.21,69.21,0,0,0,453.76,51a76.08,76.08,0,0,0-10.46-.21A43,43,0,0,0,426.72,57.67Zm30.09-.25c1.31.15,2.61.33,3.92.55l1-.46c.39-.26.79-.53,1.17-.81-2,.14-4.06.38-6.1.72Zm-33.31.22-.2.28.27-.22Zm-5.23-1h0l3-1.39h0c-1,.43-2,.9-3,1.39Zm6.41-.41.41.33c1.15-.82,2.34-1.59,3.58-2.31-1,.37-2,.76-3,1.16a8.09,8.09,0,0,0-1,.82ZM474.58,54q2.43.95,4.81,2.06a7.49,7.49,0,0,0-3.6-5.32,12.86,12.86,0,0,0-4.12-1.56v.61a6.17,6.17,0,0,1-.4,2.21A26.65,26.65,0,0,1,474.58,54Zm-5.16.82h.31l-.24-.09Zm-49.84-2.36-.19.24a5.83,5.83,0,0,0-.93,1.78c.56-.27,1.14-.54,1.71-.79A11.56,11.56,0,0,1,419.58,52.46ZM421,51.05A10.41,10.41,0,0,0,421.9,53c1.53-.6,3.15-1.15,4.82-1.63l1.16-.34a51.51,51.51,0,0,1,6.57-3.88c-1.42.1-2.85.24-4.25.41A19.62,19.62,0,0,0,421,51.05Zm32.89-1.9a75.09,75.09,0,0,1,9.43,1.45c-.82-.28-1.54-.5-2.1-.66q-2.62-.75-5.31-1.31c-.86,0-1.72.11-2.59.19l-.56.2Zm8.83-.68a51.2,51.2,0,0,1,5.69,2.11,11.56,11.56,0,0,0,.7-1.8c-.7-.07-1.39-.12-2-.15-1.49-.09-2.93-.14-4.39-.16ZM439.41,47a49.26,49.26,0,0,0-6.07,2.83,69.89,69.89,0,0,1,7.52-.94q3.93-.86,7.92-1.38A81.6,81.6,0,0,0,439.41,47ZM430,38.47c-4,1.13-7.89,3.21-9.14,7.07a8.08,8.08,0,0,0-.29,3.62A22.34,22.34,0,0,1,430,45.77a76.65,76.65,0,0,1,9.09-.6,52.6,52.6,0,0,1,18.86-3.46,3.93,3.93,0,0,0,.06-.48,4.94,4.94,0,0,0-1.25-3.71A80.76,80.76,0,0,0,440.14,37l-.57.25a32.55,32.55,0,0,1-9,3,.92.92,0,0,1-1-.8.91.91,0,0,1,.43-.9Zm31.59,8.16c1.87,0,3.75,0,5.62.16l1.59.12c-1.84-2.18-5.69-3.19-8.54-3.33h-1a9.09,9.09,0,0,1-2.41,3.21C458.42,46.66,460,46.63,461.58,46.63Zm-17-1.37a81.3,81.3,0,0,1,9.58,1.15,8.79,8.79,0,0,0,3.07-2.9A50.91,50.91,0,0,0,444.58,45.26Zm15.2-3.55h.58a15.53,15.53,0,0,1,8.82,3,3.53,3.53,0,0,0-.15-.46c-1.17-3.15-4.47-5.28-9.83-6.37a6.8,6.8,0,0,1,.63,3.47l-.06.36Zm-26.72-4c-.82.14-1.66.32-2.5.54a18.8,18.8,0,0,0,2.48-.51Zm12.69-2.85c2.59,0,5.18.12,7.75.36a11.86,11.86,0,0,0-6.84-.65c-.39.08-.79.18-1.18.29Z" transform="translate(132.42 0)"/><path class="cls-5" d="M642.58,483.11,659.42,504a5.56,5.56,0,0,0,7.83.82,5.74,5.74,0,0,0,1.32-1.54l12.36-21.51Z" transform="translate(132.42 0)"/><path class="cls-6" d="M147.5,483.11,164.38,504a5.56,5.56,0,0,0,9.14-.72l12.36-21.51Z" transform="translate(132.42 0)"/><polygon class="cls-7" points="271.06 307.76 337 305.3 340.64 361.88 317.81 376.16 271.06 307.76"/><polygon class="cls-8" points="271.06 307.76 337 305.3 340.64 361.88 317.81 376.16 271.06 307.76"/><path class="cls-7" d="M209,363.53s-13.12-84.64,2-89.23,393.66-3.28,412.7,1.31,8.53,89.23,8.53,89.23S208.36,362.87,209,363.53Z" transform="translate(132.42 0)"/><path class="cls-9" d="M209,363.53s-13.12-84.64,2-89.23,393.66-3.28,412.7,1.31,8.53,89.23,8.53,89.23S208.36,362.87,209,363.53Z" transform="translate(132.42 0)"/><path class="cls-7" d="M188.21,422.74H633.47a5.13,5.13,0,0,1,5.13,5.13h0V487H187.85V423.1a.36.36,0,0,1,.35-.36Z" transform="translate(132.42 0)"/><path class="cls-10" d="M187.85,423.07H633.47a5.13,5.13,0,0,1,5.11,5.13v59.17H187.85v-64.3Z" transform="translate(132.42 0)"/><path class="cls-7" d="M639.58,414.33a9.19,9.19,0,0,1-9.22,8.61l-442.18,1.41a8,8,0,0,1-8-7.81c-.11-12.12-.28-34.36.08-37.93.51-4.91,28-16.73,28-16.73-.74-.73,423.85,2.95,423.85,2.95s6.57,6.05,8.17,13.78a13.72,13.72,0,0,1,.34,2.47C640.91,387,640.11,403.92,639.58,414.33Z" transform="translate(132.42 0)"/><path class="cls-11" d="M639.58,414.33a9.19,9.19,0,0,1-9.22,8.61l-442.18,1.41a8,8,0,0,1-8-7.81c-.11-12.12-.28-34.36.08-37.93h460a13.72,13.72,0,0,1,.34,2.47C640.91,387,640.11,403.92,639.58,414.33Z" transform="translate(132.42 0)"/><path class="cls-7" d="M632.07,362.86s-.85-47.23,32.11-54.61,34.46,22.64,34.46,22.64v139.5a17,17,0,0,1-17,17h-51.9Z" transform="translate(132.42 0)"/><path class="cls-7" d="M186.52,362.86s.84-47.23-32.13-54.61-34.45,22.64-34.45,22.64v139.5a17,17,0,0,0,17,17h51.92Z" transform="translate(132.42 0)"/><path class="cls-4" d="M319,359.72a6.21,6.21,0,0,1-6.38,4.28c-11.25-.86-41.05-2.87-55.26-1.29-12.92,1.45-35.08,3.05-46.12,3.82H211a4.14,4.14,0,0,1-1-.06,5.65,5.65,0,0,1-4.89-5.94c.8-12.77-3.86-25.47-7-37.79-2.43-9.39-4.88-18.83-8.83-27.74-3.82-8.61-11.43-13.83-18-20.31a2.2,2.2,0,0,1,0-3.11,2,2,0,0,1,.67-.47,4,4,0,0,1,.6-.25c.33-.16.66-.29,1-.45a66.17,66.17,0,0,1,11.45-3.6c6.34-1.37,12.92-1,19.29-.35a100.21,100.21,0,0,0,21.13-.54c12.66-1.48,25.21-3.64,37.74-5.9,11.6-2.08,24.09-6,35.94-5.39a3.64,3.64,0,0,1,3.47,3.78,3.87,3.87,0,0,1-.17,1c-6,17.46,5,33,11.62,48.55C320.81,323.94,324.51,342.6,319,359.72Z" transform="translate(132.42 0)"/><path class="cls-12" d="M211,366.52a4.14,4.14,0,0,1-1-.06l-6.58-38.41c-2.14-12.45-4.57-26.56-12-37.85-5-7.6-12-13.61-18.92-19.35.32-.16.66-.29,1-.45,6.85,5.71,13.76,11.68,18.73,19.28,7.55,11.46,10,25.67,12.15,38.21Z" transform="translate(132.42 0)"/><path class="cls-4" d="M526.3,362.67a6.22,6.22,0,0,0,6.38,4.28c11.25-.87,41-2.88,55.25-1.29,12.92,1.44,35.09,3,46.14,3.81h.19a4.2,4.2,0,0,0,1-.06,5.65,5.65,0,0,0,4.88-5.93c-.79-12.78,3.87-25.48,7-37.8,2.43-9.38,4.89-18.83,8.84-27.73,3.81-8.62,11.43-13.84,18-20.32a2.21,2.21,0,0,0,0-3.11,2,2,0,0,0-.66-.47,5.09,5.09,0,0,0-.6-.25c-.33-.16-.66-.29-1-.45a66.61,66.61,0,0,0-11.44-3.6c-6.34-1.37-12.92-1-19.3-.35a100.1,100.1,0,0,1-21.12-.54c-12.66-1.48-25.21-3.64-37.74-5.89-11.6-2.09-24.09-6-35.94-5.4a3.64,3.64,0,0,0-3.48,3.78,3.88,3.88,0,0,0,.18,1c6,17.46-5,33-11.62,48.55C524.46,326.9,520.76,345.55,526.3,362.67Z" transform="translate(132.42 0)"/><path class="cls-12" d="M634.26,369.47a4.2,4.2,0,0,0,1-.06L641.83,331c2.14-12.45,4.57-26.56,12-37.85,5-7.6,12-13.61,18.93-19.35l-1-.45C664.91,279.06,658,285,653,292.63c-7.55,11.47-10,25.67-12.14,38.22Z" transform="translate(132.42 0)"/><ellipse class="cls-13" cx="594.53" cy="369.27" rx="109.9" ry="7.87"/><polygon class="cls-14" points="549.7 470.38 551.6 486.04 526.98 488.81 524.96 473.41 549.7 470.38"/><path class="cls-15" d="M389.26,488.81c3.9-5.8,3.48-11.91,12.12-12.83,11.94-1.28,13.76,6.65,14.59,8.33s3-2.19,4.88-2,3.2,10.77,3.87,14.31,2,7.74.17,9.76S399.1,520,392.08,522.85c-6.12,2.49-22.9,4.34-20.87-7.4C372.58,507.72,385.38,494.57,389.26,488.81Z" transform="translate(132.42 0)"/><polygon class="cls-14" points="656.87 473.71 655.36 488.85 678.08 488.35 678.84 474.21 656.87 473.71"/><path class="cls-15" d="M537.18,482.31c3-1.19,6.54-1.63,9.22.12,2.34,1.54,3.42,4.36,4.63,6.9A40.85,40.85,0,0,0,560,501.54c2.6,2.45,5.54,4.57,7.87,7.3s4,6.3,3.4,9.84c-.71,4.37-4.84,7.63-9.21,8.38s-8.85-.6-12.79-2.62-7.51-4.7-11.36-6.91a52.87,52.87,0,0,0-13.62-5.47c-3.48-.86-7.55-1.74-9.12-5-1.33-2.72-.25-6,.85-8.78q1.83-4.77,3.68-9.53c.63-1.62,1.34-3.36,2.84-4.26a4.07,4.07,0,0,1,4,0c2.29,1.33,1.55,4.17,4.26,1.83A22.7,22.7,0,0,1,537.18,482.31Z" transform="translate(132.42 0)"/><path class="cls-16" d="M554,259.87s-2.52-6.31-10.59-32.57c-9.06-29.44-37.69-52.14-69.35-49-64.13-6.47-72,11.37-82.89,23.48C378.78,218.7,371,270.71,371,270.71l34.9-.21C409.11,294,412.43,321,412.43,321s6.41-.34,46.12-11.11,77.77-6.39,77.77-6.39-7.9-15.42-15.74-32.73Z" transform="translate(132.42 0)"/><path class="cls-17" d="M504.24,210.39s-5.4,25.89,16.36,60.41" transform="translate(132.42 0)"/><path class="cls-17" d="M506.08,200.81a28.1,28.1,0,0,1,7.18-13.22" transform="translate(132.42 0)"/><path class="cls-17" d="M500.58,230.12a53.61,53.61,0,0,0,8.22,16l-.21-.69" transform="translate(132.42 0)"/><path class="cls-17" d="M390.9,202.53c7.61,6.78,10.59,15.43,13.38,27" transform="translate(132.42 0)"/><path class="cls-18" d="M468.74,179.74a1.79,1.79,0,0,0,1.1.88,1.24,1.24,0,0,0,1.23-.87,3.42,3.42,0,0,0,.09-1.62q-.59-6.12-1.19-12.25c-.09-.9-.3-2-1.15-2.3s-1.9.53-2.41,1.41C463.62,169.81,465.85,175.57,468.74,179.74Z" transform="translate(132.42 0)"/><path class="cls-14" d="M372.47,270.73s-5.55,27.51,5,37.11,22-1.35,29.4-14.56l3.41-23.82Z" transform="translate(132.42 0)"/><path class="cls-15" d="M564.58,342.59c-3.7-26.59-13.12-37.7-26.93-38.71h-.88l-.47-.31s-33.65-4.72-82.14,4.37a209.59,209.59,0,0,0-24.42,6,129,129,0,0,0-37.09-2.56C358.8,314.23,366,357.08,368,372.56s21.59,103.67,21.59,103.67l30.3-2L416.51,377s16.5,2.35,32.65-.67,20.2-4.38,28.62-4.38c7.06,0,27.87,2.37,37.15,2.73l.21,1L520.53,479l27.94.34S568.29,369.19,564.58,342.59Z" transform="translate(132.42 0)"/><path class="cls-19" d="M465.42,305.31q1.86,14.74,3.71,29.5a7.81,7.81,0,0,0,.89,3.24,2.71,2.71,0,0,0,2.86,1.35c1.73-.5,1.92-2.84,1.76-4.63q-1.35-15-3.48-30" transform="translate(132.42 0)"/><path class="cls-19" d="M474.36,372.22v-1.08" transform="translate(132.42 0)"/><path class="cls-20" d="M474.26,369q-.24-8-.47-15.89" transform="translate(132.42 0)"/><path class="cls-19" d="M473.76,352.08V351" transform="translate(132.42 0)"/><path class="cls-19" d="M522.93,337.12s-8.59,10.27-7.83,38.46" transform="translate(132.42 0)"/><path class="cls-19" d="M512.79,344c-2.25,9.83-1.31,21.07,1.94,30.62" transform="translate(132.42 0)"/><path class="cls-19" d="M429.58,313.66c6.9.83,13.31,1.16,19.93,2.72" transform="translate(132.42 0)"/><path class="cls-19" d="M413.11,345.8c3.69,11.39,3.79,17.83,3.29,31.21" transform="translate(132.42 0)"/><path class="cls-14" d="M520.74,270.81,538,313.06s18.68-1.77,21.22-11.11S553.48,260,553.48,260Z" transform="translate(132.42 0)"/><path class="cls-14" d="M529.24,282.84s-62.1,28.28-69.42,35.6l9.59,10.86s67.92-10.1,84.33-22.47Z" transform="translate(132.42 0)"/><path class="cls-14" d="M459.86,318.57s-11.86,12-17.42,20.11-8.71,14.14-9.38,18-1.39,24.4.25,24.83c1.48.37,10.48.25,11.15-3.12s1.85-11.61,1.85-11.61-.67,6.73.68,6.9S451.86,358,451.86,358s9.35-5.73,12-13,5.56-15.66,5.56-15.66Z" transform="translate(132.42 0)"/><path class="cls-17" d="M436.92,357.15s-.63,19.15-.34,24.28" transform="translate(132.42 0)"/><path class="cls-17" d="M440.76,380.93s.71-18.18,1-23.36" transform="translate(132.42 0)"/><line class="cls-17" x1="578.61" y1="368.6" x2="579.11" y2="357.83"/><path class="cls-17" d="M526,284.11s11.11-2,20.7,2.27" transform="translate(132.42 0)"/><path class="cls-14" d="M438.32,220.06s8.08,15.15,21.36,11.45,16.67-30.63,15.33-46.45Z" transform="translate(132.42 0)"/><path class="cls-21" d="M438.32,220.06s8.08,15.15,21.36,11.45,16.67-30.63,15.33-46.45Z" transform="translate(132.42 0)"/><path class="cls-18" d="M405.15,177.57c.68,1.86,1.71,3.59,2.26,5.5.51,1.75.59,3.61,1.18,5.33,1.44,4.18,5.51,6.78,9.3,9,1.15.69,2.49,1.41,3.78,1,1.61-.48,2.27-2.35,2.62-4a47.64,47.64,0,0,0,0-19.61,24.11,24.11,0,0,0-3.11-8.19,12.36,12.36,0,0,0-6.77-5.33c-3.22-.92-7.47-.13-8.65,3.31C404.27,168.92,403.58,173.24,405.15,177.57Z" transform="translate(132.42 0)"/><path class="cls-18" d="M466.66,133.05c1.88,0,3.93-.24,5.49.81s2.23,3.35,2.36,5.38,0,4.15.88,6c1.12,2.37,3.65,3.76,5.06,6,1.56,2.48,1.47,5.61,1.34,8.54-.28,6.35-.59,12.82-2.77,18.8-1.06,2.89-3.07,6-6.14,6.17-2.89.17-5.2-2.33-6.73-4.78a47.48,47.48,0,0,1-6.31-19,137.65,137.65,0,0,1-.69-20.1c0-2.13-.29-6.4,1.46-8C462.16,131.48,464.83,133.07,466.66,133.05Z" transform="translate(132.42 0)"/><path class="cls-14" d="M472.35,200.72h0c-.44,1.35-.93,2.65-1.49,3.94a29.12,29.12,0,0,1-15.54,15.56,23.38,23.38,0,0,1-16.47.77,26,26,0,0,1-5.82-2.86c-7-4.59-12.2-12.38-15.88-19.66-.39-.79-.79-1.6-1.15-2.41-4.19-9.18-6.4-19.54-4.68-29.55a22.91,22.91,0,0,1,3.28-8.74c4.27-6.49,11.94-9.81,19.32-11.31,12-2.46,24.68-.64,32.08,10a50.13,50.13,0,0,1,8.38,23.06h0A51.41,51.41,0,0,1,472.35,200.72Z" transform="translate(132.42 0)"/><path class="cls-18" d="M423,178.23a9.44,9.44,0,0,1,3.21-1.73,3.16,3.16,0,0,1,3.31,1,3,3,0,0,1,.1,3,7.27,7.27,0,0,1-2,2.34c-1.73,1.41-10.63,7-12.46,4S421.39,179.37,423,178.23Z" transform="translate(132.42 0)"/><path class="cls-18" d="M446.58,170.8a9.31,9.31,0,0,0-3.57.74,3.18,3.18,0,0,0-1.89,2.91A3,3,0,0,0,443,176.8a7,7,0,0,0,3.07.49c2.24,0,12.68-1.42,12.13-4.91S448.52,170.66,446.58,170.8Z" transform="translate(132.42 0)"/><path class="cls-18" d="M424.23,189.85a2.37,2.37,0,1,0,2-2.68h0A2.36,2.36,0,0,0,424.23,189.85Z" transform="translate(132.42 0)"/><path class="cls-22" d="M431.28,191l-2.58,3.6S431.89,197.35,431.28,191Z" transform="translate(132.42 0)"/><path class="cls-18" d="M449.58,182.84a2.37,2.37,0,1,1-2.55-2.18h0A2.38,2.38,0,0,1,449.58,182.84Z" transform="translate(132.42 0)"/><path class="cls-23" d="M443,185.53l3.3,2.95S443.74,191.83,443,185.53Z" transform="translate(132.42 0)"/><path class="cls-18" d="M433.58,182.06a50.41,50.41,0,0,0,.59,6.6,29.79,29.79,0,0,0,1.7,6.35,16.21,16.21,0,0,0,1.47,2.91,9.54,9.54,0,0,0,2.06,2.46,5.73,5.73,0,0,0,2.78,1.39,4,4,0,0,0,3-.78.12.12,0,0,1,.17,0h0a.13.13,0,0,1,0,.18,4.21,4.21,0,0,1-3.21,1.1,5.84,5.84,0,0,1-3.16-1.41,9.85,9.85,0,0,1-2.22-2.59,17.15,17.15,0,0,1-1.5-3,33.89,33.89,0,0,1-1.93-13.2.12.12,0,0,1,.12-.13h0A.14.14,0,0,1,433.58,182.06Z" transform="translate(132.42 0)"/><path class="cls-18" d="M447.23,198.26l1.78.51c.38-.28.22-1.12,0-1.7a.12.12,0,1,1,.21-.11,3.11,3.11,0,0,1,.41,1,1.18,1.18,0,0,1-.3,1.21h0a.23.23,0,0,1-.25.08l-1.43-.41.21.58a.27.27,0,0,1-.19.33.28.28,0,0,1-.26-.07v-.08l-.38-1.07a.29.29,0,0,1,.06-.27Z" transform="translate(132.42 0)"/><path class="cls-17" d="M444.08,208.17l-.13.09a23.56,23.56,0,0,1,11.47-6.78" transform="translate(132.42 0)"/><path class="cls-17" d="M448.76,208.13a8.55,8.55,0,0,0,3.52-1.92" transform="translate(132.42 0)"/><path class="cls-24" d="M472.35,200.72h0a14,14,0,1,1,2-21.24h0A51.26,51.26,0,0,1,472.35,200.72Z" transform="translate(132.42 0)"/><path class="cls-25" d="M438.48,206.72a13.79,13.79,0,0,1-1.07,5.67,1.57,1.57,0,0,1-.2.46,13.72,13.72,0,0,1-4.19,5.3c-7-4.59-12.2-12.38-15.88-19.66-.39-.79-.79-1.6-1.15-2.41a13.73,13.73,0,0,1,8.15-2.93A14,14,0,0,1,438.48,206.72Z" transform="translate(132.42 0)"/><path class="cls-14" d="M470.67,162.53c1.22-1.76,3.13-3.43,5.23-3.05s3.21,2.42,3.86,4.35a21.79,21.79,0,0,1-2,18.16c-1.23,2-3.33,4-5.59,3.39-1.94-.5-2.91-2.64-3.47-4.57C466.89,174.63,466.89,168,470.67,162.53Z" transform="translate(132.42 0)"/><path class="cls-17" d="M475,164.49a18.34,18.34,0,0,0,0,10.33" transform="translate(132.42 0)"/><path class="cls-17" d="M474.36,168.42a4.76,4.76,0,0,1,3.1,5.06" transform="translate(132.42 0)"/><path class="cls-18" d="M476.43,152.73a13.48,13.48,0,0,0-3.92-5.5c-1.91-1.73-4.08-3.23-5.49-5.37s-2-5-3-7.48c-1.62-4.15-4.87-7.95-9.22-8.92-3.46-.77-7,.33-10.57.82-5.63.78-11.37,0-17,.38-8.22.57-15.55,5.17-20.56,11.57-3.78,4.84-7.16,11.52-7.39,17.74a6.67,6.67,0,0,0,.84,3.86c1,1.5,2.86,2.16,4.22,3.38,2,1.85,2.34,4.86,4.15,6.92a9.19,9.19,0,0,0,5.67,2.83c3.8.58,9.16.88,12.09-2.15s2.48-10.85,9-7.77c1.5.71,2.88,1.75,4.5,2.07,4.53.9,6.92-3.85,9.26-6.76a8.63,8.63,0,0,1,4.37-3.18c4.18-1.06,5.76,3.22,5.88,6.55.09,2.76,0,5.63,1.34,8.15,1,1.93,6.31,9.23,8.48,9.46s1.08-6.91,1.47-9.05-1-4.19-.36-6.17c.73-2.34,3.65-3.1,5.27-4.93A6.74,6.74,0,0,0,476.43,152.73Z" transform="translate(132.42 0)"/><path class="cls-14" d="M372.85,290.5s.75-11.86,13.62-34.59c13.45-23.73,24-38.37,24-38.37s-4.79-10.6-5.55-17.17-.9-26.87,2-27.52,4.54,6.32,5.3,9.6a56.45,56.45,0,0,1,1,8.08s7.83-9.34,13.13-14.39,10.6-9.09,12.87-8.33-2.27,6.81-3.78,8.83-7.83,10.6-7.83,10.6,18.43-17.42,22-16.41,2,4.3,2,4.3,3.53.75,3.28,3.53S444,193.81,444,193.81s5.55-4.55,7.55-3.81-.76,6.82-3.29,9.85-7.07,14.64-9.84,18.43-8.34,6.81-8.34,6.81-16.66,56-23.22,68.17S389.26,317,379.66,309.69C368.34,301.05,372.85,290.5,372.85,290.5Z" transform="translate(132.42 0)"/><path class="cls-26" d="M372.85,290.5s.75-11.86,13.62-34.59c13.45-23.73,24-38.37,24-38.37s-4.79-10.6-5.55-17.17-.9-26.87,2-27.52,4.54,6.32,5.3,9.6a56.45,56.45,0,0,1,1,8.08s7.83-9.34,13.13-14.39,10.6-9.09,12.87-8.33-2.27,6.81-3.78,8.83-7.83,10.6-7.83,10.6,18.43-17.42,22-16.41,2,4.3,2,4.3,3.53.75,3.28,3.53S444,193.81,444,193.81s5.55-4.55,7.55-3.81-.76,6.82-3.29,9.85-7.07,14.64-9.84,18.43-8.34,6.81-8.34,6.81-16.66,56-23.22,68.17S389.26,317,379.66,309.69C368.34,301.05,372.85,290.5,372.85,290.5Z" transform="translate(132.42 0)"/><line class="cls-17" x1="584.04" y1="175.13" x2="564.72" y2="194.06"/><path class="cls-17" d="M444.67,192.93c0,.12-6.43,7.44-6.43,7.44" transform="translate(132.42 0)"/><path class="cls-17" d="M379.12,270.39s-4.88,6.4-5.73,13.46" transform="translate(132.42 0)"/><polygon class="cls-6" points="320.78 538.72 320.07 548.11 337.9 548.81 338.37 538.49 320.78 538.72"/><path class="cls-18" d="M258,577.72c-.43,6.08-32.18,6.12-40.5,4.5s-30.49.08-32.15-.13c-.9-.11-2.15-1-3.13-3.1a1.85,1.85,0,0,1-.18-.44,20.73,20.73,0,0,1-1.29-8.14c.06-8.45,7.07-22.89,7.07-22.89l17.62-.12s6.68,4.14,12.38,6.9l.44.22c.83.38,1.62.73,2.37,1l2.34,1a4.68,4.68,0,0,1,.45.2c1.27.53,2.8,1.19,4.49,2,.15,0,.27.13.43.2,10.54,4.68,27.17,12.79,29.39,17.67a2.26,2.26,0,0,1,.17.43A2.37,2.37,0,0,1,258,577.72Z" transform="translate(132.42 0)"/><path class="cls-27" d="M257.88,577c-5.15,2.53-11.28,3.78-18.64,3.78-1.41,0-2.85,0-4.36-.13-4.21-.25-8.46-.82-12.58-1.37-3.82-.52-7.79-1-11.7-1.31-9.46-.66-19.07.13-28.41,1a3.38,3.38,0,0,1-.18-.44c9.41-.92,19.09-1.73,28.62-1,3.94.28,7.91.79,11.75,1.31,4.09.55,8.32,1.12,12.51,1.37,9.28.57,16.76-.62,22.82-3.62A3,3,0,0,1,257.88,577Z" transform="translate(132.42 0)"/><path class="cls-27" d="M218.25,554.52a38.23,38.23,0,0,0-8,10.56l-.4-.2a38.27,38.27,0,0,1,8-10.58Z" transform="translate(132.42 0)"/><path class="cls-27" d="M223.4,556.74a38.45,38.45,0,0,0-6.5,9l-.39-.2a37.41,37.41,0,0,1,6.45-9Z" transform="translate(132.42 0)"/><path class="cls-27" d="M228.32,558.89a36.8,36.8,0,0,0-5,7.37l-.4-.22a36.67,36.67,0,0,1,4.94-7.35A2.77,2.77,0,0,1,228.32,558.89Z" transform="translate(132.42 0)"/><path class="cls-18" d="M36.75,366.09s-12.19,37.14-5,80.61c5.15,31.13,67.71,20,87.41,15.79s71.31-13.13,71.31-13.13-11.73,54.88-3.75,90.07l20.64.47c6.13-20.56,11.81-41.25,16.87-62.1,4.75-19.56,11.28-40.65,10.82-60.92-.37-16.66-12.24-25.75-28-28.46s-31.85.5-47.55,1.23c-2.73.12-40.66,2.92-40.82,2l-4.84-28.77Z" transform="translate(132.42 0)"/><path class="cls-28" d="M46.15,365.42c1.49,12.72,0,25.65,1.4,38.38s6.67,26.07,17.75,32.5c8.58,5,19.07,4.94,29,4.62q46.13-1.46,92-7.06c5.1-.62,11.42-.72,14,3.72,1.53,2.63,1.07,5.91.6,8.92a438.75,438.75,0,0,0-4.74,92.8" transform="translate(132.42 0)"/><path class="cls-18" d="M117.19,169.68a6.93,6.93,0,0,1-1.06,2.29,1.65,1.65,0,0,1-1.93.64A3.3,3.3,0,0,1,113,171.1c-2.38-4.43-4.8-9-5.68-14.23-.59-3.5.1-16.11,5.13-13.53,4,2,5.68,11.49,5.92,16.16A31.27,31.27,0,0,1,117.19,169.68Z" transform="translate(132.42 0)"/><path class="cls-6" d="M99.58,215.81a13.54,13.54,0,0,0-.42,1.78h0c-.61,2.89-1.62,8.6-2.23,14.15-.53,4.65-.79,9.19-.29,11.81.88,4.74-22.58,2.94-27.65-1-5.52-4.32-6.71-5.19-6.71-5.19l6.61-38.1,1-5.48Z" transform="translate(132.42 0)"/><path class="cls-29" d="M99.16,217.59h0c-.61,2.89-1.62,8.6-2.23,14.15-8-3-14.29-14.5-17.36-21.13-1.29-2.81-2-4.74-2-4.74,3.93,5.14,20.5,11.3,21.53,11.69Z" transform="translate(132.42 0)"/><path class="cls-6" d="M125.36,191.34c-.9,1.49-2.78,2.15-3.77,3.58a7.91,7.91,0,0,0-1,1.64,5.76,5.76,0,0,0-.3,1c-.08.33-.08.86-.36,1.12a1.25,1.25,0,0,1-.5.11c-.39,0-.78.07-1.17.09-1.11.07-2.25.11-3.39.18l-2,.13-1.27.11-.64.06c-.14,0-.29,0-.36.13s0,0,0,0c-.08.33.61.79.8,1s.58.53.89.79a23.13,23.13,0,0,0,1.87,1.43,33.08,33.08,0,0,0,3.8,2.15.88.88,0,0,1,.5,1c-.14.72-.28,1.44-.46,2.15-.26,1.16-.51,2.3-.79,3.44-.86,3.56-1.64,6.52-5.77,7a38.81,38.81,0,0,1-11.17-.66c-.37-.06-.72-.13-1.08-.21-6.64-1.17-13.29-3-19-6.56A35.5,35.5,0,0,1,68.9,199.3a40,40,0,0,1-3.36-7.13,51.15,51.15,0,0,1-2.3-20.56,34.59,34.59,0,0,1,5.22-16.39,28.78,28.78,0,0,1,27.39-12.37,26.41,26.41,0,0,1,11.08,4.34,20.65,20.65,0,0,1,6,6.48,27.69,27.69,0,0,1,3.25,13.07c.08,2.92-.13,5.93.89,8.67,1.21,3.33,4,5.79,6.3,8.45C125.21,185.94,126.83,189,125.36,191.34Z" transform="translate(132.42 0)"/><path class="cls-18" d="M108.2,179.86a2.2,2.2,0,1,0,1.86-2.49h0A2.19,2.19,0,0,0,108.2,179.86Z" transform="translate(132.42 0)"/><path class="cls-18" d="M100.58,175.1a5.64,5.64,0,0,1,1.67-3.31,7.94,7.94,0,0,1,3.09-2,7.55,7.55,0,0,1,3.74-.38,4.83,4.83,0,0,1,3.3,1.92.38.38,0,0,1-.11.51.42.42,0,0,1-.14.06h0a20.49,20.49,0,0,0-2.92.75l-2.5.87-2.57.94-3,1h0a.41.41,0,0,1-.53-.24h0A.23.23,0,0,1,100.58,175.1Z" transform="translate(132.42 0)"/><path class="cls-18" d="M120.58,191.33h-2.4c-.38-.5.12-1.51.65-2.14a.2.2,0,0,0,0-.23.17.17,0,0,0-.23,0,4.25,4.25,0,0,0-.91,1.16,1.59,1.59,0,0,0-.07,1.63h0a0,0,0,0,0,0,.05h0a.33.33,0,0,0,.28.2h2l-.47.66a.34.34,0,0,0,.07.48h0a.33.33,0,0,0,.38,0l.1-.09.88-1.21a.38.38,0,0,0,0-.36A.35.35,0,0,0,120.58,191.33Z" transform="translate(132.42 0)"/><path class="cls-18" d="M85.58,182.27s16.27-9.54,21.89-23.93S112.91,141,112.91,141c-.74-1.76-3.88-2.83-5.39-3.85-13.61-9.19-35.8-13.52-48.87-2.1-5.34,4.67-10.5,12.29-13.61,18.61-4.67,9.49-6.68,22.83-5.17,33.56,1.37,9.65,8.19,15.1,15.46,20.64a32.85,32.85,0,0,0,5.44,3.48c.64.31,5.2,2.92,5.69,2.1,0,0,3.56-1.68,6.61-8.17C77.79,195.22,85.58,182.27,85.58,182.27Z" transform="translate(132.42 0)"/><path class="cls-18" d="M25.37,166.45a19,19,0,0,1-8.66-16.38c.25-7.49,4.91-14,9.68-19.84,3.64-4.41,7.83-8.92,13.42-10.13,6.49-1.42,13.41,2.29,16.92,7.93s4,12.77,2.59,19.26c-1.54,7.09-6,16.88-12.78,20.46C40.79,170.78,30.64,169.78,25.37,166.45Z" transform="translate(132.42 0)"/><path class="cls-6" d="M83.38,186s-7.32-10.39-13.06-5.64-2.38,19,7.71,15.33Z" transform="translate(132.42 0)"/><path class="cls-18" d="M72.1,184.35A8.94,8.94,0,0,1,78.43,191" transform="translate(132.42 0)"/><path class="cls-18" d="M75.45,186.22a8.27,8.27,0,0,0-1.46,5.3" transform="translate(132.42 0)"/><path class="cls-18" d="M83.75,191.39c.56.22,1.08-.39,1.38-.92L91,180.41a15.08,15.08,0,0,0,1.53-3.28,4.73,4.73,0,0,0-.32-3.52A4.27,4.27,0,0,0,87,172.08c-3.25,1.26-4.77,5.58-4.8,8.82C82.19,182.62,82.39,190.87,83.75,191.39Z" transform="translate(132.42 0)"/><path class="cls-6" d="M220.84,327s8,3.22,9.73,4.15,7.15,4.27,7.73,3.09-4.18-5.14-5.22-6-7.12-4.56-7.12-4.56Z" transform="translate(132.42 0)"/><path class="cls-30" d="M220.84,327s8,3.22,9.73,4.15,7.15,4.27,7.73,3.09-4.18-5.14-5.22-6-7.12-4.56-7.12-4.56Z" transform="translate(132.42 0)"/><path class="cls-6" d="M223.48,323.46s5,0,6.69-.54,9.09-3.35,10.32-2.7-3.52,4.21-4.87,5.08-8.27,2.91-9.44,3.07-7.58-1.71-7.6-2.5S223.48,323.46,223.48,323.46Z" transform="translate(132.42 0)"/><path class="cls-31" d="M223.48,323.46s5,0,6.69-.54,9.09-3.35,10.32-2.7-3.52,4.21-4.87,5.08-8.27,2.91-9.44,3.07-7.58-1.71-7.6-2.5S223.48,323.46,223.48,323.46Z" transform="translate(132.42 0)"/><path class="cls-6" d="M220.26,323.87s6.92-5.63,8.2-8.21,2.81-6.92,4-6.69-.35,7.39-.82,8.92-4.52,6.27-5.69,7.79-5.16,2-6.34,1.18C218.65,326.18,220.26,323.87,220.26,323.87Z" transform="translate(132.42 0)"/><path class="cls-32" d="M220.26,323.87s6.92-5.63,8.2-8.21,2.81-6.92,4-6.69-.35,7.39-.82,8.92-4.52,6.27-5.69,7.79-5.16,2-6.34,1.18C218.65,326.18,220.26,323.87,220.26,323.87Z" transform="translate(132.42 0)"/><path class="cls-6" d="M140.51,316.13s47.38-13.14,48.54-13.61,16-.7,19.47-.7,19,.94,19.71,3.05-9.38,3.28-12.66,3.75-26.52,8.68-26.52,8.68l-45,22.28Z" transform="translate(132.42 0)"/><path class="cls-6" d="M187,317.53s14.7,8,17.83,8.76,15,1.56,16,.78,3.71-9,4.07-10.53c.47-1.94.93-8.08-.32-7.61s-4.07,8.45-4.07,8.45l-11-10.79Z" transform="translate(132.42 0)"/><path class="cls-33" d="M208.4,307.21l4.28,2.29a16.76,16.76,0,0,1-3.66,3.37c-3.42,2.32-6.85,2.71-10.82,3.1" transform="translate(132.42 0)"/><path class="cls-33" d="M214,323.48a31.2,31.2,0,0,0,4.07-1.33c.55-.39,2.42-4.77,2.42-4.77" transform="translate(132.42 0)"/><path class="cls-33" d="M212.65,309.41c-.07-.92-.14-1.84-.22-2.76" transform="translate(132.42 0)"/><polygon class="cls-16" points="249.47 313.78 275.74 312.84 276.92 340.99 248.06 351.31 249.47 313.78"/><polygon class="cls-34" points="249.47 313.78 275.74 312.84 276.92 340.99 248.06 351.31 249.47 313.78"/><path class="cls-35" d="M118.43,205.85c-.15.72-.29,1.44-.46,2.15a1.9,1.9,0,0,1-.79-.07,5,5,0,0,1-1.4-.81,18.38,18.38,0,0,1-3.65-3.45c-.54-.7-1.88-2.47-1.71-3.4a.57.57,0,0,1,.37-.5v.11a23.78,23.78,0,0,0,7.18,5A.89.89,0,0,1,118.43,205.85Z" transform="translate(132.42 0)"/><path class="cls-36" d="M120.58,196.56a5.76,5.76,0,0,0-.3,1c-.07.33-.07.86-.35,1.12a1.34,1.34,0,0,1-.51.11c-.39,0-.77.07-1.16.09-1.12.07-2.26.11-3.4.18l-2,.13-1.27.11-.64.06c-.13,0-.29,0-.35.13a.24.24,0,0,1-.06-.11,38.44,38.44,0,0,1,4-1.36l4.06-1.38a4.05,4.05,0,0,1,1.14-.28A1.65,1.65,0,0,1,120.58,196.56Z" transform="translate(132.42 0)"/><path class="cls-16" d="M65.51,218.72a18.23,18.23,0,0,0-.39,2.44C65,222.74,87,232,96.93,231.76l.5-4.45s7.42,2.26,8.36,7.66-2.11,19.47-2.11,19.47-13.61,4.22-30.26-1.88-24.16-12.67-24.16-12.67S51.2,216.14,65.51,218.72Z" transform="translate(132.42 0)"/><path class="cls-16" d="M54.42,236.61c-5.54-3.24-15.63,17.72-17.3,21a93.65,93.65,0,0,0-9.48,34.6c-1.1,12.43-2.05,24.66-.3,37.11C28,334.08,33.2,366,36.25,368l77.13-2.58s10.32-47.22,10-57.23-19.7-53.71-19.7-53.71Z" transform="translate(132.42 0)"/><polygon class="cls-4" points="279.96 381.8 301.78 358.82 385.75 358.82 400.76 381.8 279.96 381.8 279.96 381.8"/><polygon class="cls-16" points="291.07 380.39 310.34 360.08 384.93 359.99 397.79 380.39 291.07 380.39 291.07 380.39"/><path class="cls-15" d="M253,363.27l5.63,9.93s4.88-2.16,2.42-6.8C259,362.57,253,363.27,253,363.27Z" transform="translate(132.42 0)"/><line class="cls-37" x1="380.01" y1="361.28" x2="388.8" y2="378.05"/><line class="cls-37" x1="376.58" y1="361.29" x2="383.98" y2="377.89"/><line class="cls-37" x1="373.16" y1="361.29" x2="379.16" y2="377.74"/><line class="cls-37" x1="369.74" y1="361.3" x2="374.34" y2="377.58"/><line class="cls-37" x1="366.32" y1="361.3" x2="369.52" y2="377.42"/><line class="cls-37" x1="362.9" y1="361.31" x2="364.69" y2="377.27"/><line class="cls-37" x1="359.48" y1="361.32" x2="359.87" y2="377.11"/><path class="cls-16" d="M44.26,245.6s17.83-7.82,29.39,9.07S93.51,356.78,93.51,356.78l42.69,9.85L134,392s-67.87,6.25-74.44-9.7-31-85.69-29.08-101.64S44.26,245.6,44.26,245.6Z" transform="translate(132.42 0)"/><path class="cls-37" d="M37.3,284.46c.37,28.58,4.19,58,17,83.89" transform="translate(132.42 0)"/><path class="cls-37" d="M34.37,300.06a63.39,63.39,0,0,0,4.21,10.78" transform="translate(132.42 0)"/><path class="cls-37" d="M69,251.86s13.6,8.67,15.71,35.65,7,69.66,7,69.66l44.49,9.46" transform="translate(132.42 0)"/><path class="cls-37" d="M92,357.09a20.66,20.66,0,0,0-13,7.77" transform="translate(132.42 0)"/><path class="cls-37" d="M49.73,237.94a51.75,51.75,0,0,0,15.85,8.24" transform="translate(132.42 0)"/><path class="cls-37" d="M88.7,253c4.82,1.37,10.13,1.4,15.14,1.5" transform="translate(132.42 0)"/><path class="cls-37" d="M131.15,365.86a83.57,83.57,0,0,0-3.11,25.8" transform="translate(132.42 0)"/><path class="cls-37" d="M63.49,219.8s13.09,11.2,36.2,12.12" transform="translate(132.42 0)"/><path class="cls-6" d="M135.82,373.59l33.29,5.16s10.79-2.81,15-2.58,25.09-8.44,27.44-6.56S195.86,383,195.86,383l-7.28,7.25L134,392Z" transform="translate(132.42 0)"/><path class="cls-6" d="M195.62,382l25.33-.31s-7.35,5.16-11.1,6.56-21.27,2-21.27,2Z" transform="translate(132.42 0)"/><path class="cls-7" d="M133.71,562.18l6,23.37a2.63,2.63,0,0,0,5,.17l7.52-23.07Z" transform="translate(132.42 0)"/><path class="cls-38" d="M185.76,459.24,170.29,563.36l-18-.4h-.15c-2.85-.07-6-.15-9.35-.2h-.94l-8-.16C86,561.51,4,559.78-30,559.47H-42.15a16.4,16.4,0,0,0-3.36.17l-86-317-.28-1-.1-.64a15.37,15.37,0,0,1,2.59-13.3c14.56-19.28,42.12-33.81,66.63-29.2,31.86,6,37,42.22,32.91,69.12-3,20-9.85,39.43-11,59.63-1.35,23.75,8.42,49.89,32.34,58.46,13,4.65,26.79,3.65,40.44,1.26,5-.88,9.94-1.94,14.84-3,4.19-.88,8.35-1.77,12.41-2.48h.18c18.47-3.29,37.17-6.94,55.89-9.65,4.92-.71,9.84-1.36,14.78-1.91,1.94-.22,3.88-.42,5.84-.6,1.67-.17,3.34-.33,5-.46,6.06-.74,13-1.45,19.1-.28a21,21,0,0,1,7.21,2.68,15.52,15.52,0,0,1,5.8,6.55,19.27,19.27,0,0,1,1,2.55h0c.17.48.31.95.44,1.43a35.69,35.69,0,0,1,1.07,6.58c0,.75.09,1.51.1,2.26.21,8-1.54,16.22-2.39,23.79q-1.17,10.65-3,21.23c-.95,5.67-2,11.35-3.23,17h.24l3,.2h0l10.71.68a5,5,0,0,1,4.79,5.21C185.79,458.91,185.78,459.08,185.76,459.24Z" transform="translate(132.42 0)"/><path class="cls-39" d="M159.58,428.15c-.27,2.7-.55,5.27-.75,7.77a4,4,0,0,1-.07.92c-.5,5.88-1.09,11.94-1.8,18.45s-1.6,13.71-2.59,21.4c-1.46,11.19-3.07,22.53-4.63,33.5-2.25,15.65-4.54,31.82-6.42,47.77-.22,1.84-.24,2.15-.25,2.46s-.06.57-.22,2v.5l-.93-.11v-.08a.61.61,0,0,1,.06-.33c.16-1.47.18-1.74.22-2s0-.62.25-2.5c1.88-16,4.19-32.13,6.43-47.79,1.55-11,3.19-22.3,4.64-33.48,1-7.6,1.81-14.58,2.55-21.13s1.3-12.64,1.8-18.52a10,10,0,0,1,.09-1.08c.2-2.52.48-5.07.77-7.79,1.11-10.53,2.26-21.41-.09-30.94a20.43,20.43,0,0,0-2.39-5.85,8.78,8.78,0,0,0-.92-1.36,14.81,14.81,0,0,0-2.26-2.42c-4.61-3.88-11-4.89-18.08-4.43a.11.11,0,0,0-.11,0c-2.16.13-4.39.41-6.65.77-3.45.57-7,1.36-10.4,2.21-2.66.68-5.27,1.38-7.77,2.06-4.24,1.15-8.27,2.24-11.61,2.86-2.92.55-5.86,1.12-8.78,1.69h0l-9.19,1.86c-10.84,2.18-21.92,4.43-33.11,6.06-5.7.85-11.41,1.53-17.12,2l-3.66.24c-16.15.91-29.53-.54-40.88-4.47-14.28-4.94-25.56-13.93-31.77-25.34-12.81-23.52-6.51-51.32-.41-78.2,3.2-14.11,6.21-27.43,6.58-40,.37-12.22-1.49-21.24-5.82-28.41-5.7-9.41-13.56-14.64-23.36-15.56-21.09-2-47.24,16.61-62.3,31.77l-.28-1C-116.4,226.43-90.23,208-69,210c10.1.93,18.21,6.3,24.07,16,4.43,7.33,6.32,16.52,6,28.91-.37,12.69-3.4,26.07-6.61,40.22-6,26.71-12.31,54.35.33,77.55,6.1,11.21,17.2,20.05,31.25,24.92,11.25,3.87,24.51,5.33,40.53,4.41,1.27-.08,2.52-.15,3.79-.26,5.68-.42,11.34-1.1,17-1.93,11.13-1.63,22.17-3.88,33-6.06,2-.41,4.06-.83,6.12-1.23,4-.81,7.93-1.6,11.88-2.32,3.31-.62,7.3-1.71,11.54-2.85,2.54-.68,5.18-1.39,7.87-2,3.49-.89,7.07-1.69,10.6-2.26a60,60,0,0,1,6.67-.76.2.2,0,0,1,.11,0h0c7.18-.42,13.78.65,18.57,4.67a16.13,16.13,0,0,1,2.78,3c.31.46.6.94.86,1.4a21,21,0,0,1,2.22,5.66C161.82,406.6,160.65,417.55,159.58,428.15Z" transform="translate(132.42 0)"/><path class="cls-40" d="M185.77,459.24,170.3,563.36l-18-.4,15.14-110.3,13.76.88a5,5,0,0,1,4.6,5.36Z" transform="translate(132.42 0)"/><path class="cls-7" d="M-42.22,559.13l6,23.38A2.61,2.61,0,0,0-33,584.3a2.64,2.64,0,0,0,1.75-1.63l7.51-23.07Z" transform="translate(132.42 0)"/><path class="cls-16" d="M140.74,198.84l23-34.93c-5.17-15.64-1.19-33.58,9.26-46.31s26.37-20.35,42.72-22.35c13.43-1.65,27.45.37,39.4,6.72s21.68,17.17,25.71,30.09,2,27.81-6.15,38.61-21.59,16.76-35,19.3a96,96,0,0,1-61-8.63C166.58,188.51,153.75,193.45,140.74,198.84Z" transform="translate(132.42 0)"/><path class="cls-18" d="M204.9,143.49a4.38,4.38,0,1,1-4.38-4.38,4.39,4.39,0,0,1,4.38,4.38Z" transform="translate(132.42 0)"/><path class="cls-18" d="M228.11,143.49a4.38,4.38,0,1,1-4.38-4.38,4.39,4.39,0,0,1,4.38,4.38Z" transform="translate(132.42 0)"/><path class="cls-18" d="M250,143.49a4.38,4.38,0,1,1-4.38-4.38,4.39,4.39,0,0,1,4.38,4.38Z" transform="translate(132.42 0)"/></g></g></svg>