<svg id="Layer_1" data-name="Layer 1" xmlns="http://www.w3.org/2000/svg" xmlns:xlink="http://www.w3.org/1999/xlink" viewBox="0 0 612.57 612.57"><defs><style>.cls-1{fill:none;}.cls-2{fill:#bfbfbf;opacity:0.21;}.cls-3{clip-path:url(#clip-path);}.cls-4{fill:#3f5860;}.cls-5{fill:#fec901;}.cls-6{fill:#fed436;}.cls-7{fill:#9fafb4;}.cls-8{fill:#84999f;}.cls-9{fill:#e1e5e6;}.cls-10{fill:#fff;}.cls-11{fill:#7f8f95;}.cls-12{fill:#8e9ca1;}.cls-13{fill:#75868c;}.cls-14{fill:#8d9ca1;}.cls-15{fill:#dde1e3;}.cls-16{fill:#c1cccf;}.cls-17{fill:#d9dfe1;}.cls-18{fill:#d9e0e2;}.cls-19{fill:#2a454e;}.cls-20{fill:#385a64;}.cls-21{fill:#b78876;}.cls-22{fill:#8f6a5c;}.cls-23{fill:#aa7b6d;}.cls-24{fill:#333;}.cls-25{fill:#aa6550;}.cls-26{fill:#7f9095;}.cls-27{fill:#64777e;}.cls-28{fill:#a3afb3;}.cls-29{fill:#fee06c;}</style><clipPath id="clip-path"><circle class="cls-1" cx="307.44" cy="306.29" r="305.13"/></clipPath></defs><circle class="cls-2" cx="306.29" cy="306.29" r="306.29"/><g class="cls-3"><path class="cls-4" d="M332.47,536.22a2.42,2.42,0,0,1-.47-.62c-.8-1.57.05-3.42.9-4.7.49-.73,1.05-1.42,1.64-2.15a22.1,22.1,0,0,0,2.3-3.19,10.7,10.7,0,0,0,.8-8.6c-1.35-4.33-5.07-8.35-10-10.75-6.48-3.19-14.77-4.33-26.1-3.6-11.9.76-28.7,3.48-43.51,11.84-7.65.73-15.75,1.83-24.45,3.3-4.89.83-10.71,2.3-12.44,6.43-1.07,2.56-.16,5.65,2.37,8.06a25.39,25.39,0,0,0,7.79,4.51c23.32,9.68,50.6,12.38,75.36,14.37a2.28,2.28,0,0,1,0-.45h0a3.25,3.25,0,0,1,.92-1.74c-24.8-2-52.21-4.63-75.45-14.28a23.23,23.23,0,0,1-7.1-4c-1.44-1.37-2.68-3.54-1.84-5.55,1.31-3.14,6.75-4.39,10.73-5.06,6.9-1.17,13.42-2.1,19.63-2.8-1.81,1.28-4.76,3.77-5.33,6.7a4.81,4.81,0,0,0,.81,3.8c1.37,1.95,3.92,2.89,6.21,3.61a109.83,109.83,0,0,0,46.49,4.11c3.68-.46,7.89-1.2,11.19-3.2,3.85-2.33,5.63-6.19,4.33-9.38-.86-2.1-3-3.92-6.34-5.4-6.2-2.73-13.39-3.46-19.6-3.81A212.9,212.9,0,0,0,264,514c10.7-5.06,23.56-8.17,37.76-9.08,10.91-.7,18.84.37,24.95,3.37,4.34,2.13,7.63,5.64,8.8,9.39a8.44,8.44,0,0,1-.62,6.82,20.13,20.13,0,0,1-2.08,2.87c-.6.74-1.22,1.51-1.76,2.32-1.68,2.52-2,5-1,7a4.89,4.89,0,0,0,1.22,1.49A3.43,3.43,0,0,1,332.47,536.22Zm-41.21-20.34c6,.34,12.95,1,18.81,3.62,2.8,1.24,4.53,2.65,5.16,4.19,1,2.49-1.05,5.15-3.4,6.58-2.94,1.78-6.86,2.46-10.3,2.89a107.6,107.6,0,0,1-45.53-4c-2.07-.66-4.12-1.44-5-2.75a2.56,2.56,0,0,1-.44-2.07c.34-1.74,2.23-3.88,5.06-5.72,1-.67,2.09-1.32,3.18-1.94A215.62,215.62,0,0,1,291.26,515.88Z"/><path class="cls-5" d="M306.74,550.67h0a2.28,2.28,0,0,0,0,.45c0,1.61,1.34,3.06,3.35,3.5L352.74,564c2.5.54,5.05-.66,5.66-2.62a77.67,77.67,0,0,1-20-4c-4.36-1.25-9.18-4.32-11.61-8.55l-15-1.28a5.19,5.19,0,0,0-4.11,1.38A3.25,3.25,0,0,0,306.74,550.67Z"/><path class="cls-6" d="M338.36,557.38a77.67,77.67,0,0,0,20,4c0-.08.05-.15.07-.23l1.26-5.58c.46-2.06-1.38-4-4-4.23l-29-2.47C329.18,553.06,334,556.13,338.36,557.38Z"/><path class="cls-6" d="M384.52,540.13l-.36-5.66c-.14-2.09-2.48-3.65-5.12-3.41l-28.33,2.67c10.1,5.62,22,7.74,33.69,7.4A2.78,2.78,0,0,0,384.52,540.13Z"/><path class="cls-5" d="M350.71,533.73l-15.56,1.46a5.13,5.13,0,0,0-2.68,1,3.43,3.43,0,0,0-1.27,1.9,2.79,2.79,0,0,0-.06,1c.22,1.79,2.07,3.19,4.35,3.26l44.26,1.54c2.25.08,4.17-1.14,4.65-2.79C372.66,541.47,360.81,539.35,350.71,533.73Z"/><path class="cls-7" d="M518.12,367.89h89.55v-5.3A16.62,16.62,0,0,0,591.05,346h-14a165.48,165.48,0,0,1-28.91,13.81A169,169,0,0,1,518.12,367.89Z"/><path class="cls-8" d="M416,365.46l0,0c-.07.06-.27.07-.59,0a465.68,465.68,0,0,1-69.19-.63c-4.6,1.44-11.36,2.46-21.34,2.45a159.87,159.87,0,0,1-30.15-2.66,75.46,75.46,0,0,1-13.27,2.25l.22.18s-13.91,1.46-18.41-1.13l-.76-.76a38.65,38.65,0,0,1-6.87-2.66c-3.26,1.14-7,2.58-9.8,3.36-4.86,1.37-5.87-.49-5.87-.49s3.46-2,7.49-4.31h0a36.57,36.57,0,0,1,3.46-2.66l.13-.08-.22-.35c-.94-.32-1.81-.63-2.62-.93-3.7.4-8.54,1.19-11.88,1.38-5,.28-5.48-1.79-5.48-1.79l1.57-.51a1.58,1.58,0,0,1-.18-.23l4.87-1.3v0l3.3-1,0-.07c-1,.06-1.94.09-2.78.1-4.94,0-5.34-2.09-5.34-2.09l.41-.12h0l2.56-.69-8.72-2.83c-5.67,3.43-14.67,7.32-28.91,10.59a77,77,0,0,1-7.68,1.35l.39.43a28.8,28.8,0,0,1-8.11,2.15,19.08,19.08,0,0,1-13.32.2s-.29-.4-.76-1.17q-1.31-.36-2.67-.84c-.33-.19-.65-.39-1-.6a212.16,212.16,0,0,1-47.11-10.33C99.27,361,92.1,351.6,91.55,346H53.3a16.62,16.62,0,0,0-16.62,16.62v5.3h388.1c.09-1.07.22-2.13.38-3.19C422.08,365,419,365.25,416,365.46Z"/><path class="cls-9" d="M610.27,367.9H541.51a116.22,116.22,0,0,1-16.39,8H513.87c-.12.57-.26,1.15-.43,1.73a25.19,25.19,0,0,1-2.19,5.21h77.89v52.64H59.86V382.87h367a23,23,0,0,1-1.91-6.94H40V380a2.89,2.89,0,0,0,2.89,2.89h8.21v155.5h8.72V444.23H589.14v94.14h8.73V382.87h6.91a2.89,2.89,0,0,0,2.89-2.89v-4.05h2.6a2.3,2.3,0,0,0,2.3-2.3V370.2A2.3,2.3,0,0,0,610.27,367.9Z"/><path class="cls-10" d="M513.87,375.93h11.25a116.22,116.22,0,0,0,16.39-8h-27.1A27.09,27.09,0,0,1,513.87,375.93Z"/><path class="cls-10" d="M424.9,375.93c-.08-.6-.14-1.21-.18-1.81a40.3,40.3,0,0,1,.06-6.22H33.06a2.3,2.3,0,0,0-2.3,2.3v3.43a2.3,2.3,0,0,0,2.3,2.3H424.9Z"/><path class="cls-11" d="M587.66,538.37v15.85a2.81,2.81,0,0,0,2.81,2.82h5.94a2.81,2.81,0,0,0,2.81-2.82V538.37H587.66Z"/><path class="cls-11" d="M49.72,538.37v15.85A2.82,2.82,0,0,0,52.54,557h5.93a2.81,2.81,0,0,0,2.81-2.82V538.37H49.72Z"/><path class="cls-10" d="M207.66,128.19a7.68,7.68,0,0,0,3.4,4.95l-.19-2.94a1.68,1.68,0,0,1,0-.45,5.32,5.32,0,0,1,2.94-8.26l-.49-2.35A7.74,7.74,0,0,0,207.66,128.19Z"/><path class="cls-10" d="M220.47,125.57a5.34,5.34,0,0,1-.71,3.89l.23,3.27a7.73,7.73,0,0,0-4.23-13.81l.53,2.49A5.35,5.35,0,0,1,220.47,125.57Z"/><path class="cls-12" d="M220,132.73l-.23-3.27v-.06A1.55,1.55,0,0,0,218,128l-5.78.58a1.57,1.57,0,0,0-1.35,1.2,1.68,1.68,0,0,0,0,.45l.19,2.94,3.34,51.67a22.89,22.89,0,0,0,9.12-3.18Z"/><path class="cls-10" d="M306,141.36a5.34,5.34,0,0,1-.47,2.19,1.44,1.44,0,0,1,.13.43l.4,2.92a7.73,7.73,0,0,0-4.92-13.25l.44,2.46A5.34,5.34,0,0,1,306,141.36Z"/><path class="cls-10" d="M293,141.36a7.72,7.72,0,0,0,4.3,6.92l-.43-3.25a5.28,5.28,0,0,1-1.47-3.67,5.34,5.34,0,0,1,3.84-5.12l-.43-2.36A7.73,7.73,0,0,0,293,141.36Z"/><path class="cls-13" d="M303.6,196.9l1,7.44a58.27,58.27,0,0,1,7.79,9.81c-2.6,4.63-14.53,23.17-44.53,34.8l-.33,8.6c31.51-9.16,47.95-33.74,50.65-38.08-.9-1.28-1.75-2.39-2.51-3.32l-2.47-18A22.84,22.84,0,0,1,303.6,196.9Z"/><path class="cls-14" d="M305.56,143.55a1.54,1.54,0,0,0-1.57-.91l-5.78.59a1.55,1.55,0,0,0-1.38,1.75V145l.43,3.25,6.34,48.62a22.84,22.84,0,0,0,9.57,1.29l-7.08-51.29-.4-2.92A1.44,1.44,0,0,0,305.56,143.55Z"/><path class="cls-10" d="M183.16,248.7a7.68,7.68,0,0,0,1.93-5.6,7.77,7.77,0,0,0-5.39-6.9l-.13,2.52a5.34,5.34,0,0,1,1.88,8.29l-.23,3.27A7.73,7.73,0,0,0,183.16,248.7Z"/><path class="cls-10" d="M172.65,246.06a5.33,5.33,0,0,1-.61-2.16,5.34,5.34,0,0,1,5-5.65h.15l.12-2.39h-.42a7.74,7.74,0,0,0-4.65,13.52l.08.06.22-2.94A1.24,1.24,0,0,1,172.65,246.06Z"/><path class="cls-13" d="M182.51,362.31l-.32.13a28.8,28.8,0,0,0,8.11-2.15l-.39-.43c-2.41-2.72-15.1-18.34-10.87-42.58.21-1.2.47-2.43.76-3.67.07-.26.12-.51.19-.77-1.06.18-2.08.37-3.06.56l1-14.21a22.82,22.82,0,0,1-9.47,1.87l-1.06,14,3.76-1S167.06,350.48,182.51,362.31Z"/><path class="cls-12" d="M181.22,250.28l.23-3.27V247a1.56,1.56,0,0,0-1.49-1.67l-5.81-.23a1.55,1.55,0,0,0-1.5,1,1.24,1.24,0,0,0-.11.43l-.22,2.94-3.9,51.63a22.82,22.82,0,0,0,9.47-1.87Z"/><path class="cls-10" d="M117.36,349.7a37,37,0,0,1-.76-4.66,10.11,10.11,0,0,1-7.2-3.83c1.32.43,2.56.84,3.8,1.17a16.63,16.63,0,0,0,3.25.59c-.17-3.59.18-7.91,2.18-11.09-2.67-1.75-6-3.74-9.94-5.89-14.08-7.6-19.47-22.11-23-23.47-3-1.19-4.69,4.93-4,8.81a9.31,9.31,0,0,1-.09,3.56c-1.29,6.2,1.84,13.6,7.54,16.36,6.33,3.06,2.15,8.71,2.34,14.25,0,.15,0,.31,0,.47C92.1,351.6,99.27,361,117.36,349.7Z"/><path class="cls-15" d="M113.2,342.38c-1.24-.33-2.48-.74-3.8-1.17a10.11,10.11,0,0,0,7.2,3.83c-.06-.65-.12-1.34-.15-2.07A16.63,16.63,0,0,1,113.2,342.38Z"/><path class="cls-10" d="M166.26,219.8a10.22,10.22,0,0,1-7.74-3c1.37.27,2.65.54,3.91.73a17,17,0,0,0,3.67.19l.6-.07c0-3.33.43-8.24,2.85-12.25A124.92,124.92,0,0,0,155.61,199c-14.87-5.91-21.9-19.7-25.54-20.65-3.15-.82-4.08,5.45-2.94,9.22a9.31,9.31,0,0,1,.32,3.55c-.56,6.31,3.41,13.29,9.4,15.37,6.63,2.31,3.15,8.4,4,13.89s9,14.9,26.16,1.17c0,0-.11-.66-.19-1.76Z"/><path class="cls-15" d="M162.43,217.56c-1.26-.19-2.54-.46-3.91-.73a10.22,10.22,0,0,0,7.74,3l.53-.06c0-.58-.08-1.28-.09-2.06l-.6.07A17,17,0,0,1,162.43,217.56Z"/><path class="cls-16" d="M266.6,280.69l0,.55v.39A48.46,48.46,0,0,0,271,292a24.58,24.58,0,0,1,2.45.21l-.17.49,12-2.65s-1.33-1.4-.1-5.23a14.15,14.15,0,0,1,8.62-8.88c10.13-3.71,33.33-12.78,37.58-19.3l.29-.49s-2-6.12-5.42-14.37C313.51,270.16,270.63,279.84,266.6,280.69Z"/><path class="cls-17" d="M296.84,199.28h0s-1.74-5.16-11.53-6.83c-7.28-1.24-12.05,1.25-14,2.62l-.29,0a15.61,15.61,0,0,0-4.3,4.28L266,215.58a7.73,7.73,0,0,1,2.68,13.87l-.08.06L267.83,249c30-11.63,41.93-30.17,44.53-34.8a58.27,58.27,0,0,0-7.79-9.81,20.15,20.15,0,0,0-7.73-5.06Z"/><path class="cls-17" d="M266.87,195.51h0l3.2-.32Z"/><path class="cls-17" d="M259,222.18a5.28,5.28,0,0,0,.81,3.87V226a1.57,1.57,0,0,1,1.67-1.48l5.8.44a1.54,1.54,0,0,1,1.38,1.16,5.31,5.31,0,0,0-2.77-8.07l-.14,3.16a1.2,1.2,0,0,1-1.2,1.15h-.06a1.2,1.2,0,0,1-1.14-1.25l.14-3.27a5.17,5.17,0,0,0-2.29.91A5.27,5.27,0,0,0,259,222.18Z"/><path class="cls-18" d="M169.65,205.25l-.1.18c-2.42,4-2.88,8.92-2.85,12.25,0,.78.05,1.48.09,2.06.08,1.1.19,1.76.19,1.76s4.07,2.62,10.76,6.15L179,204.32Z"/><path class="cls-18" d="M204.87,201.72l-23.49,2.35-1.3,24.79a191.89,191.89,0,0,0,23.24,10.06C196.7,222,202.56,206.67,204.87,201.72Z"/><path class="cls-17" d="M264.45,195.76h0l-34.53,3.46a.06.06,0,0,1,0,0Z"/><path class="cls-16" d="M229.93,199.25a1.69,1.69,0,0,1-.07.83c-.53,1.65-1,3.3-1.34,4.94-4.31,19.55,2.92,38,4,40.63a75.89,75.89,0,0,0,9.87.25A138,138,0,0,0,259,244.29l.69-15a7.72,7.72,0,0,1-3-7.57,7.72,7.72,0,0,1,3.19-5,7.64,7.64,0,0,1,3.78-1.36l.09-2.1.78-17.55Z"/><path class="cls-16" d="M271,195.09h0l-.93.1-3.2.32-.17,3.86A15.61,15.61,0,0,1,271,195.09Z"/><path class="cls-7" d="M516.35,321.9c-5.68,4-5.94,9.15-6.62,17.12a131,131,0,0,0,30.69-8.84,35.49,35.49,0,0,0,9.78-6.5,13.15,13.15,0,0,0-8.63-3.22H518.71A20.15,20.15,0,0,1,516.35,321.9Z"/><path class="cls-8" d="M509.73,339v.13c-1,11.06,4,19.29,4.69,28.74h3.71a169,169,0,0,0,30-8.11A165.48,165.48,0,0,0,577.07,346H546.26a13.18,13.18,0,0,0,8.5-12.32h0a13.17,13.17,0,0,0-4.56-10,35.49,35.49,0,0,1-9.78,6.5A131,131,0,0,1,509.73,339Z"/><path class="cls-19" d="M424.72,374.12c0,.6.1,1.21.18,1.81a23,23,0,0,0,1.91,6.94,16.71,16.71,0,0,0,1.62,2.77c2.1,2.87,5.11,4.93,7.6,7.48,8.69,8.87,11.08,23.47,21.81,29.72,4.52,2.63,9.9,3.32,15.13,3.56s11.1-.11,15-3.64c4.7-4.21,5.11-11.27,7.48-17.11,3.47-8.57,11.38-14.8,15.75-22.78a25.19,25.19,0,0,0,2.19-5.21c.17-.58.31-1.16.43-1.73a27.09,27.09,0,0,0,.54-8h0c-.72-9.45-5.64-17.68-4.69-28.74V339c.68-8,.94-13.12,6.62-17.12a20.15,20.15,0,0,0,2.36-1.44h0c5-3.56,9-10,8-21.44-1.19-13.81-5.28-19-9.13-20.68a8.49,8.49,0,0,0-2.77-.7l.82.7c8.49,14.18-15.91,33.08-15.6,32.72,9-10.69,12.14-19.29,12.93-25.33-8.89,5-16.4,19.93-16.23,19.34,5.89-19.88,14-26,16-27.19a1.24,1.24,0,0,1,0-.16,10.83,10.83,0,0,0-2,.5,6.19,6.19,0,0,0-.78.34S492.7,293,487.45,311.78h0c1.91,1.85,4.18,4.85,2.78,7.81-.81,1.7-3.44,1.57-6.38.41a9.08,9.08,0,0,0,0,1.65c.24,4.15,3.23,7.56,4.65,11.46,3.45,9.46-2.74,19.79-1.91,29.83.28,3.34,1.34,6.59,1.48,9.94a18.17,18.17,0,0,1-29.47,15c-2.17-1.72-4-4-6.57-5-2.76-1.12-5.95-.64-8.76-1.64-5.15-1.83-7.43-8-7.31-13.46a20.39,20.39,0,0,0-.18-4.63,77.18,77.18,0,0,1-9.39,1.49l-1.19.11c-.16,1.06-.29,2.12-.38,3.19h0A40.3,40.3,0,0,0,424.72,374.12Z"/><path class="cls-18" d="M116.45,343c0,.73.09,1.42.15,2.07a37,37,0,0,0,.76,4.66A212.16,212.16,0,0,0,164.47,360C149.05,349.92,153,323,153.19,321.81l-2.11.57-32.44,9.47v0C116.63,335.06,116.28,339.38,116.45,343Z"/><path class="cls-20" d="M458.76,323.07c.41.73,1.38,3.13-1.42,6,1.91,5.06,8.37,27.23-21.6,34.06a20.39,20.39,0,0,1,.18,4.63c-.12,5.46,2.16,11.63,7.31,13.46,2.81,1,6,.52,8.76,1.64,2.57,1,4.4,3.29,6.57,5a18.17,18.17,0,0,0,29.47-15c-.14-3.35-1.2-6.6-1.48-9.94-.83-10,5.36-20.37,1.91-29.83-1.42-3.9-4.41-7.31-4.65-11.46a9.08,9.08,0,0,1,0-1.65,23,23,0,0,1-7.31-4.77C471.86,317.13,464.52,320.23,458.76,323.07Z"/><path class="cls-21" d="M451,280.06a7.73,7.73,0,0,1,1,1.28c-.14-6.92-1-14.26-3.63-18-7.8-11.11-22.9-9.83-31.09-8.12,4.72,4.56,8.57,7.72,8.57,7.72S443.89,278.51,451,280.06Z"/><path class="cls-21" d="M498.08,273.75l-.13,0-.17,0c-.38,0-.75-.11-1.16-.14a69.64,69.64,0,0,0-14.29,0c-.61.05-1.21.13-1.84.2a49,49,0,0,0-12.31,3.11,20.51,20.51,0,0,0-9,6.43,13,13,0,0,0-2.12,8.87,16.48,16.48,0,0,0,.41,2.45c1.38,5.75,5.14,11.24,10.67,13.65a23.84,23.84,0,0,0,5.48,1.49c0,1.78,1.14,3.71,2.9,5.47l-1.25.48a5.9,5.9,0,0,1-2.57-2.89c-8.29,2-24.71,3.2-22.23-19.6l1.21-.17c.13-1.87.26-4.2.31-6.74l-.11.15s-18.37-5.75-30.63-17A63.71,63.71,0,0,0,414.36,285c.33,0,.65,0,1,0,.59,0,1.16-.06,1.71-.07s1.1-.08,1.67-.15c1.1-.11,2.2-.26,3.34-.44l3.64-.61a5.81,5.81,0,0,1-1.28,1.54,9.36,9.36,0,0,1-1.64,1.13,10,10,0,0,1-3.78,1.13,5.65,5.65,0,0,1-1,.06,5.72,5.72,0,0,1-.59,0,23.17,23.17,0,0,1,2.88,3.22,16.94,16.94,0,0,1,2.92,5.91c-1.52-1.58-3-3.07-4.55-4.48a60.19,60.19,0,0,0-4.74-3.93l-.32-.22a70.68,70.68,0,0,0-1,25.81c.22.09.44.21.66.32,17.64,8.47,45.39,8.7,45.39,8.7a1.33,1.33,0,0,1,.15.23c5.76-2.85,13.1-5.94,17.78-7.85a22.76,22.76,0,0,0,7.31,4.76c2.94,1.17,5.57,1.3,6.38-.41,1.4-2.95-.86-5.95-2.77-7.79a48.46,48.46,0,0,1,2.2-10.41c-.35.8-.73,1.63-1.14,2.44l0-13.06a6.1,6.1,0,0,1,2.65,4.55,8.25,8.25,0,0,1-.3,2.7c2.78-7,7.76-14.9,16.63-19.45C501.86,274.72,499,273.91,498.08,273.75Zm-27.44,20.84s-7.38-6-.49-12.22c1.1,2.15,1.5,3.67-.31,5.12C472.68,290,471.65,291.87,470.64,294.59Zm12.07-18.8a3.14,3.14,0,0,1,1.75-1.25,12.77,12.77,0,0,0-.64,1.8,6.36,6.36,0,0,0-.24,1.62,8.76,8.76,0,0,0,.18,1.65,2.36,2.36,0,0,0,.11.44,2.4,2.4,0,0,1,.09.48,5.13,5.13,0,0,1,.24,1,5.64,5.64,0,0,1-.88-.59,2.83,2.83,0,0,1-.37-.4,2.27,2.27,0,0,1-.33-.42,4.09,4.09,0,0,1-.62-2.17A3.74,3.74,0,0,1,482.71,275.79Zm4.05,40.88a1.77,1.77,0,0,0-.48-1.06c-.26-.32-.5-.63-.75-.92a18.35,18.35,0,0,0-1.66-1.64l-.4-.31a1.1,1.1,0,0,1-.08.51,1.59,1.59,0,0,1-.51.78,1.39,1.39,0,0,1-1,.27,7.48,7.48,0,0,1,0-.88,3.1,3.1,0,0,1,.11-.59,2.48,2.48,0,0,1,.24-.53c.06-.11.13-.2.2-.31l-.47-.34c-.65-.44-1.34-.86-2.08-1.32a5.64,5.64,0,0,1,2.57.33,7.28,7.28,0,0,1,2.3,1.33,7.05,7.05,0,0,1,1.64,2.07,6.7,6.7,0,0,1,.45,1.25,2.68,2.68,0,0,1,.08.7A1.33,1.33,0,0,1,486.76,316.67Zm-4-20.49,0,.3a1.26,1.26,0,0,0,0,.27c0,.21,0,.41.07.61a5.11,5.11,0,0,1,.13.59,3.71,3.71,0,0,0,.15.64c.05.2.09.42.14.64a10.52,10.52,0,0,1,.34,1.44,3.86,3.86,0,0,1-.65-.39,7.11,7.11,0,0,1-.62-.46c-.19-.18-.35-.37-.52-.55a3.12,3.12,0,0,1-.46-.62,5.9,5.9,0,0,1-.38-.7,4.26,4.26,0,0,1-.28-.76l-.11-.38-.05-.41a5.23,5.23,0,0,1,.93-3.85,4.55,4.55,0,0,1,2.48-1.8,25.37,25.37,0,0,0-.91,2.57,9,9,0,0,0-.34,2.29C482.7,295.82,482.73,296,482.73,296.18Zm3.72-10.54c-1-.06-1.95-.11-2.93-.22-1.91-.19-3.82-.46-5.69-.79a2.8,2.8,0,0,0-1.64.35,3,3,0,0,0-1.19,1.28,3.14,3.14,0,0,0-.28.9,4,4,0,0,0,0,.5l0,.53a15.83,15.83,0,0,0,.3,2.24,7.61,7.61,0,0,1-1.09-2.05,4.92,4.92,0,0,1-.18-.59,3.06,3.06,0,0,1-.13-.63,3.6,3.6,0,0,1,.13-1.34,3.85,3.85,0,0,1,1.56-2.2,4.17,4.17,0,0,1,2.66-.78h.08q2.9.45,5.73,1.11c.94.22,1.87.47,2.81.75a27.84,27.84,0,0,1,2.79,1C488.39,285.71,487.42,285.67,486.45,285.64Zm4.83-6.51c-.26,1-1.22,2-3,2.65l1.11-8.18a19.47,19.47,0,0,1,1.32,2.45A4.68,4.68,0,0,1,491.28,279.13Z"/><path class="cls-20" d="M496.62,273.57c.5.05,1,.11,1.45.18a1.7,1.7,0,0,0-.29,0s5.77,0,12.88,4.43c0,0,0,.06,0,.08a10.83,10.83,0,0,1,2-.5,1.24,1.24,0,0,0,0,.16c-1.94,1.21-10.09,7.31-16,27.19-.17.59,7.34-14.35,16.23-19.34-.79,6-3.89,14.64-12.93,25.33-.31.36,24.09-18.54,15.6-32.72l-.82-.7a8.49,8.49,0,0,1,2.77.7h0l-.11-.06c-.16-2.63-1.71-5.89-7-8.84-8-4.44-20.94.58-28.15,4.08A69.55,69.55,0,0,1,496.62,273.57Z"/><path class="cls-22" d="M450.47,293.19C448,316,464.42,314.79,472.7,312.8a6,6,0,0,0,2.58,2.89l1.24-.5c-1.75-1.75-2.93-3.68-2.89-5.46a23.92,23.92,0,0,1-5.49-1.49c-5.52-2.41-9.3-7.9-10.68-13.66a17.74,17.74,0,0,1-.4-2.44c-1.75.33-4,.68-5.38.88Z"/><path class="cls-23" d="M497.78,273.71a1.7,1.7,0,0,1,.29,0c.88.17,3.79,1,9.41,4.8C498.6,283.11,493.62,291,490.85,298a17.77,17.77,0,0,1-.69,2.1c-.16.42-.33.84-.51,1.25a49.22,49.22,0,0,0-2.2,10.41h0c5.25-18.8,22.45-33.22,22.45-33.22a6.19,6.19,0,0,1,.78-.34s0-.05,0-.08C503.55,273.71,497.78,273.71,497.78,273.71Z"/><path class="cls-24" d="M490.85,298a8.62,8.62,0,0,0,.3-2.71,6.09,6.09,0,0,0-2.64-4.55l0,13.06c.4-.81.78-1.63,1.12-2.45.18-.41.35-.83.51-1.25A17.77,17.77,0,0,0,490.85,298Z"/><path class="cls-24" d="M488.27,281.78c1.8-.63,2.74-1.63,3-2.65a4.73,4.73,0,0,0-.58-3.09,23.27,23.27,0,0,0-1.32-2.44Z"/><path class="cls-25" d="M470.64,294.58c1-2.71,2-4.62-.8-7.09,1.81-1.44,1.41-3,.31-5.13C463.25,288.59,470.64,294.58,470.64,294.58Z"/><path class="cls-17" d="M248.18,357.09c.81.3,1.68.61,2.62.93l-.65-1.11C249.55,357,248.88,357,248.18,357.09Z"/><path class="cls-17" d="M240.36,353.55l0,.07.27-.08Z"/><path class="cls-24" d="M482.52,310.66a5.83,5.83,0,0,0-2.58-.34c.74.48,1.43.89,2.08,1.34l.47.33a2.86,2.86,0,0,0-.19.3,3.12,3.12,0,0,0-.25.53,3.22,3.22,0,0,0-.11.6,6,6,0,0,0,0,.87,1.33,1.33,0,0,0,.95-.27,1.6,1.6,0,0,0,.52-.76,1.57,1.57,0,0,0,.08-.52l.4.32a16.71,16.71,0,0,1,1.64,1.62c.26.29.5.61.75.92a1.85,1.85,0,0,1,.48,1.06A1.11,1.11,0,0,0,487,316a2.61,2.61,0,0,0-.08-.69,5.66,5.66,0,0,0-.45-1.25,6.94,6.94,0,0,0-1.64-2.09A7.2,7.2,0,0,0,482.52,310.66Z"/><path class="cls-17" d="M293.83,275.89a14.15,14.15,0,0,0-8.62,8.88c-1.23,3.83.1,5.23.1,5.23,26.73-4,42.85,11.75,38.55,38,0,0-12.47-38.63-38.55-38l-12,2.65a67.11,67.11,0,0,0,6.91,54.73l1.36.49c5.91-.91,43.06-6.52,62.88-6.44,3.4-1.26,7-2.4,10.61-3.45-8.29-43.11,21.61-57.23,21.61-57.23s-3.18-13.95-.83-23.62c-12.07,2.57-33.64,5.8-44.11-1a5.21,5.21,0,0,1-.29.49C327.16,263.11,304,272.18,293.83,275.89Z"/><path class="cls-24" d="M418.63,292.17c1.54,1.4,3,2.89,4.56,4.48a17.14,17.14,0,0,0-2.93-5.93,22.52,22.52,0,0,0-2.89-3.2l.6,0c.34,0,.67,0,1-.06a10.29,10.29,0,0,0,3.8-1.15,9.07,9.07,0,0,0,1.63-1.12,6,6,0,0,0,1.29-1.53l-3.64.6c-1.15.18-2.25.33-3.36.44-.55.08-1.11.08-1.66.15s-1.13.08-1.7.07l-1,0c-.29,1-.55,2-.79,3l.3.23A53.63,53.63,0,0,1,418.63,292.17Z"/><path class="cls-24" d="M473.74,287.8q.08.29.18.57a8.22,8.22,0,0,0,1.1,2.07,20.38,20.38,0,0,1-.31-2.24l0-.55a3.79,3.79,0,0,1,0-.49,3.18,3.18,0,0,1,.27-.89A3,3,0,0,1,476.2,285a2.88,2.88,0,0,1,1.62-.36q2.83.51,5.71.8c1,.1,1.94.17,2.91.21s2,.07,2.95,0c-.92-.38-1.86-.66-2.79-.95s-1.88-.52-2.83-.75c-1.89-.44-3.8-.8-5.71-1.1H478a4.27,4.27,0,0,0-2.67.77,4,4,0,0,0-1.56,2.21,3.59,3.59,0,0,0-.11,1.34A3.43,3.43,0,0,0,473.74,287.8Z"/><path class="cls-16" d="M367.13,334.93a28.77,28.77,0,0,1-5.23-14.59c-2-27,14.74-39.59,14.74-39.59S346.74,294.87,355,338C359,336.85,363.07,335.84,367.13,334.93Z"/><path class="cls-10" d="M376.64,280.75s-16.76,12.6-14.74,39.59a28.77,28.77,0,0,0,5.23,14.59A356.11,356.11,0,0,1,414,328.15c10.66.59,25.54,1.13,43.25,1l.11-.12c2.8-2.84,1.83-5.24,1.42-6l-.15-.23s-27.74-.24-45.38-8.71l-.67-.31a70.32,70.32,0,0,1,1-25.82c.24-1,.5-2,.79-3a62.53,62.53,0,0,1,6.89-15.52c12.24,11.21,30.62,17,30.62,17a1.39,1.39,0,0,0,.11-.16,4.32,4.32,0,0,0,0-4.93,7.73,7.73,0,0,0-1-1.28c-7.12-1.55-25.15-17.14-25.15-17.14s-3.85-3.16-8.57-7.72l-.59-.57.49.62A87.85,87.85,0,0,0,406.7,247a38.25,38.25,0,0,0-5.77-3.1,21.25,21.25,0,0,0-6.18-1.63,14.42,14.42,0,0,0-6.19.74,17.4,17.4,0,0,0-5.45,3.27,24.15,24.15,0,0,0-4.26,5,32,32,0,0,0-3,5.95v0C373.46,266.8,376.64,280.75,376.64,280.75Z"/><path class="cls-16" d="M245.06,346.74h-.12c-4.83-.65-4.92-2.81-4.92-2.81l3.69-.5c-5-12.95-8.24-30.81,2.59-44.82l-9.31,2c-1.63-1.29-5.15-3.08-11.7-2.51-7.91.7-11.92,4.83-13.21,6.46l-8.5,2.48c-7,1.74-15.58,4.13-23.78,6.53-.29,1.24-.55,2.47-.76,3.67-4.23,24.24,8.46,39.86,10.87,42.58a77,77,0,0,0,7.68-1.35c14.24-3.27,23.24-7.16,28.91-10.59l8.72,2.83,2.27-.6h0c2.37-.62,5.23-1.35,7.88-2h0l.24-.09C245.44,347.63,245.25,347.19,245.06,346.74Z"/><path class="cls-16" d="M153.19,321.77l.1-.11-3.44,1.08,1.23-.36,2.11-.57Z"/><path class="cls-24" d="M482,277.94a4.07,4.07,0,0,0,.62,2.16,2.81,2.81,0,0,0,.33.44l.36.39a4.81,4.81,0,0,0,.9.59,6.67,6.67,0,0,0-.24-1c0-.16-.07-.32-.11-.46s-.08-.3-.1-.45a8.06,8.06,0,0,1-.18-1.64,5.81,5.81,0,0,1,.23-1.62,15.66,15.66,0,0,1,.65-1.82,3.25,3.25,0,0,0-1.75,1.26A3.76,3.76,0,0,0,482,277.94Z"/><path class="cls-24" d="M483.05,293.33a23.45,23.45,0,0,1,.92-2.58,4.59,4.59,0,0,0-2.48,1.79,5.32,5.32,0,0,0-1,3,5.66,5.66,0,0,0,.06.82l.05.4c0,.13.07.26.12.39a6.21,6.21,0,0,0,.27.76c.12.23.25.46.38.69a3.43,3.43,0,0,0,.46.62c.17.19.34.38.52.55a5.41,5.41,0,0,0,.61.46,6.24,6.24,0,0,0,.66.38,12.35,12.35,0,0,0-.34-1.42l-.15-.66A4.66,4.66,0,0,1,483,298a6,6,0,0,0-.12-.61c0-.2,0-.4-.07-.59a2.93,2.93,0,0,0-.05-.29v-.28a5.43,5.43,0,0,1,0-.57A8.86,8.86,0,0,1,483.05,293.33Z"/><path class="cls-16" d="M323.86,328c4.3-26.26-11.82-42-38.55-38C311.39,289.38,323.86,328,323.86,328Z"/><path class="cls-13" d="M211.37,199.45l-4.68.5a1.85,1.85,0,0,0-1.46,1c-.1.21-.23.46-.36.75-2.31,4.95-8.17,20.3-1.55,37.2.37.93.77,1.87,1.22,2.81a27,27,0,0,0,7.05,3.66h0S202.25,226.78,211.37,199.45Z"/><path class="cls-13" d="M228.52,205c.37-1.64.81-3.29,1.34-4.94a1.69,1.69,0,0,0,.07-.83.06.06,0,0,0,0,0,1.84,1.84,0,0,0-2-1.51l-3.21.34-1.19-16.41a22.89,22.89,0,0,1-9.12,3.18l.88,13.55,6.09-.67s-9.64,35.3,3.7,49.43a36.62,36.62,0,0,0,7.58-1.16l-.13-.31C231.44,243.05,224.21,224.57,228.52,205Z"/><path class="cls-13" d="M266.89,273.31l-.29,7.38c4-.85,46.91-10.53,59.68-39h0a31.53,31.53,0,0,0-2-10.76C316,256.3,277.65,269.94,266.89,273.31Z"/><path class="cls-13" d="M153.19,321.81C153,323,149.05,349.92,164.47,360c.32.21.64.41,1,.6q1.37.48,2.67.84c-2.56-4.29-10.62-20.08-6.61-44.09-6,2.11-7.81,3.84-8.21,4.28l-.1.11Z"/><path class="cls-13" d="M267.56,292c-6,22.21-4.46,39-.67,51.06,4.35,1.2,9.57,3,13.29,4.35a67.11,67.11,0,0,1-6.91-54.73l.17-.49A24.58,24.58,0,0,0,271,292C270.07,291.92,268.91,291.9,267.56,292Z"/><path class="cls-13" d="M259.2,361.37c-1.05.31-2.28.72-3.59,1.18a38.65,38.65,0,0,0,6.87,2.66A36.16,36.16,0,0,1,259.2,361.37Z"/><path class="cls-13" d="M253.21,357l-.76-.11a13.41,13.41,0,0,0-2.3,0l.65,1.11.22.35C251.72,357.9,252.45,357.44,253.21,357Z"/><path class="cls-13" d="M281.73,361.29h0a13,13,0,0,1-4.79.88,36.8,36.8,0,0,0,4.5,4.75,75.46,75.46,0,0,0,13.27-2.25A94.71,94.71,0,0,1,281.73,361.29Z"/><path class="cls-13" d="M251.92,295.63a42.48,42.48,0,0,0-5.62,3h0c-10.83,14-7.55,31.87-2.59,44.82l1.66-.21h0c1.72-.22,3.69-.47,5.65-.69C246.1,320.51,251.87,295.82,251.92,295.63Z"/><path class="cls-13" d="M248.47,347.07c-1.23-.09-2.39-.2-3.41-.33.19.45.38.89.58,1.32C246.58,347.71,247.52,347.38,248.47,347.07Z"/><path class="cls-11" d="M221.37,197.69l-6.09.67-3.69.41c-.08.23-.15.46-.22.68-9.12,27.33.22,45.94.22,45.94h0a19.07,19.07,0,0,0,13.53,1.79l-.05-.06C211.73,233,221.37,197.69,221.37,197.69Z"/><path class="cls-11" d="M168.11,361.47c.47.77.76,1.17.76,1.17a19.08,19.08,0,0,0,13.32-.2l.32-.13C167.06,350.48,171.12,314,171.12,314l-3.76,1-5.73,1.56c0,.27-.09.53-.13.79C157.49,341.39,165.55,357.18,168.11,361.47Z"/><path class="cls-26" d="M267.5,257.55l-.61,15.76c10.76-3.37,49.08-17,57.37-42.34.1-.3.2-.6.29-.9.25-5.19-6-11.27-6-11.27l-.4.67C315.45,223.81,299,248.39,267.5,257.55Z"/><path class="cls-10" d="M269.49,224a5.37,5.37,0,0,1-.85,2.07,1.33,1.33,0,0,1,.05.45l-.11,2.95.08-.06A7.72,7.72,0,0,0,266,215.58l-.11,2.46A5.33,5.33,0,0,1,269.49,224Z"/><path class="cls-10" d="M256.61,221.76a7.72,7.72,0,0,0,3,7.57l.15-3.28a5.32,5.32,0,0,1,1.39-7.31,5.17,5.17,0,0,1,2.29-.91l.11-2.42a7.64,7.64,0,0,0-3.78,1.36A7.72,7.72,0,0,0,256.61,221.76Z"/><path class="cls-13" d="M257.38,278.3l-.68,14.82a25,25,0,0,1,9.48-1.5l.39-10v-.39A22.83,22.83,0,0,1,257.38,278.3Z"/><path class="cls-14" d="M268.58,229.51l.11-2.95a1.33,1.33,0,0,0-.05-.45,1.54,1.54,0,0,0-1.38-1.16l-5.8-.44a1.57,1.57,0,0,0-1.67,1.48v.06l-.15,3.28-.69,15-1.57,34a22.83,22.83,0,0,0,9.2,2.94l0-.55.29-7.38.61-15.76.33-8.6Z"/><path class="cls-26" d="M276.93,362.17a77,77,0,0,1-15.45-1.31,14.35,14.35,0,0,0-2.28.51,36.16,36.16,0,0,0,3.28,3.84l.76.76c4.5,2.59,18.41,1.13,18.41,1.13l-.22-.18A36.8,36.8,0,0,1,276.93,362.17Z"/><path class="cls-26" d="M267.56,292a2.68,2.68,0,0,1,.07-.27c-.5,0-1-.06-1.45-.08a25,25,0,0,0-9.48,1.5,18.18,18.18,0,0,0-4.78,2.51h0c0,.19-5.82,24.88-.88,46.89,3.53-.41,7-.75,9-.81a28.78,28.78,0,0,1,6.8,1.32C263.1,331,261.56,314.18,267.56,292Z"/><path class="cls-21" d="M237.49,350.15l-2.27.6-2.56.69Z"/><path class="cls-27" d="M236.7,352c1.26-.4.82-1.9.82-1.9h0l-4.83,1.29h0S233.66,353.19,236.7,352Z"/><path class="cls-27" d="M245.37,343.21l-4.93.65s.73,1.89,3.87,1.14c1.3-.24,1.08-1.79,1.08-1.79h0Z"/><path class="cls-27" d="M236.26,356.54c1.19-.38.87-1.73.82-1.88v0l-4.87,1.3a1.58,1.58,0,0,0,.18.23C232.8,356.6,233.93,357.42,236.26,356.54Z"/><path class="cls-27" d="M241.14,364.75s1.49,1.38,4.17-.5c1.13-.71.27-2,.27-2Z"/><path class="cls-12" d="M195.6,73.24A3.29,3.29,0,0,1,192.31,70V65.49a6.62,6.62,0,1,0,6.58,0V70A3.29,3.29,0,0,1,195.6,73.24Z"/><path class="cls-28" d="M287.17,69.88c0,.05,0,.1,0,.14l11.59,63.86.43,2.36.54,3a1.2,1.2,0,1,0,2.36-.43l-.49-2.68-.44-2.46-11.61-64A9.26,9.26,0,0,0,283,61.05V63.6A6.93,6.93,0,0,1,287.17,69.88Z"/><path class="cls-28" d="M270.05,69.72l-5.6,126h0l-.78,17.55-.09,2.1-.11,2.42-.14,3.27a1.2,1.2,0,0,0,1.14,1.25h.06a1.2,1.2,0,0,0,1.2-1.15l.14-3.16.11-2.46.72-16.21.17-3.86h0l5.58-125.66a6.91,6.91,0,0,1,4-6.15V61.11A9.29,9.29,0,0,0,270.05,69.72Z"/><path class="cls-12" d="M273.09,70.4a6.62,6.62,0,1,0,9.9-5.74V70a3.28,3.28,0,0,1-3.28,3.29h0A3.29,3.29,0,0,1,276.42,70V64.66A6.6,6.6,0,0,0,273.09,70.4Z"/><path class="cls-10" d="M602,43.41v9.67H283V70a3.29,3.29,0,0,1-6.58,0V53.08H198.89v8.8a10.48,10.48,0,0,0-3.16-.5h0a11,11,0,0,0-3.39.55V53.08H36.69V43.41Z"/><path class="cls-10" d="M192.31,70a3.29,3.29,0,0,0,6.58,0V64.43a7.89,7.89,0,0,0-3.17-.65h0a8,8,0,0,0-3.39.74V70Z"/><path class="cls-21" d="M457.34,329a.5.5,0,0,0-.11.13c-17.71.11-32.6-.43-43.25-1a357.6,357.6,0,0,0-46.84,6.78c-4.06.91-8.14,1.92-12.11,3.05-3.65,1-7.22,2.19-10.62,3.44-19.8-.07-57,5.53-62.87,6.45-.42-.15-.88-.31-1.36-.5-3.71-1.34-8.95-3.14-13.29-4.35a29.77,29.77,0,0,0-6.81-1.31c-2,.06-5.51.41-9,.81-2,.22-3.93.46-5.66.68,0,0,.22,1.56-1.07,1.8-3.14.76-3.87-1.14-3.87-1.14l-.41.06s.08,2.17,4.91,2.81a.37.37,0,0,1,.13,0c1,.13,2.16.22,3.4.31-.94.31-1.9.64-2.83,1-.08,0-.17.06-.24.1-2.65.64-5.52,1.37-7.89,2,0,0,.45,1.49-.8,1.89a5.48,5.48,0,0,1-1.92.41,2.35,2.35,0,0,1-2.14-1l-.41.13s.41,2.1,5.35,2.08c.82,0,1.78,0,2.77-.09a1.62,1.62,0,0,0,.3,0c-.1,0-.19.05-.28.09l-3.29,1c0,.17.37,1.51-.83,1.89-2.33.88-3.47.06-3.87-.36-1,.31-1.56.51-1.56.51s.51,2.06,5.47,1.78c3.35-.2,8.18-1,11.87-1.38.72-.07,1.38-.14,2-.18a13.32,13.32,0,0,1,2.29,0l.76.11c-.76.42-1.49.88-2.19,1.36l-.13.07a35,35,0,0,0-3.45,2.67c-4.05,2.26-7.5,4.3-7.5,4.3s1,1.85,5.88.49c2.77-.79,6.52-2.22,9.79-3.36,1.31-.46,2.54-.88,3.59-1.18a13.45,13.45,0,0,1,2.27-.51,78.77,78.77,0,0,0,15.46,1.31,12.75,12.75,0,0,0,4.79-.89h0a93.41,93.41,0,0,0,12.95,3.4,161.9,161.9,0,0,0,30.16,2.65c10,0,16.75-1,21.33-2.45a465.79,465.79,0,0,0,69.19.63c.34.05.54,0,.59,0s0,0,0,0c3-.2,6.08-.46,9.15-.75l1.19-.11a74.39,74.39,0,0,0,9.39-1.49C465.7,356.27,459.25,334.11,457.34,329Zm-212,35.22c-2.68,1.87-4.17.5-4.17.5l4.45-2.5S246.44,363.54,245.3,364.26Z"/><path class="cls-15" d="M378.85,251.18a24.15,24.15,0,0,1,4.26-5,17.4,17.4,0,0,1,5.45-3.27,14.42,14.42,0,0,1,6.19-.74,21.25,21.25,0,0,1,6.18,1.63,38.25,38.25,0,0,1,5.77,3.1,87.85,87.85,0,0,1,10.49,8.3l-.49-.62a49.29,49.29,0,0,0-9.08-9,32.71,32.71,0,0,0-5.91-3.57,21.23,21.23,0,0,0-6.78-1.88,16.5,16.5,0,0,0-3.58.06,16,16,0,0,0-3.48.9,17.28,17.28,0,0,0-5.85,3.93,21.72,21.72,0,0,0-4,5.61,23.69,23.69,0,0,0-2.17,6.43v0A32,32,0,0,1,378.85,251.18Z"/><path class="cls-28" d="M177.05,240.84a1.21,1.21,0,0,0,1.14,1.27h.06a1.21,1.21,0,0,0,1.2-1.14l.12-2.25.13-2.52.38-7.34,1.3-24.79,7-133.39a6.92,6.92,0,0,1,4-6.16,8,8,0,0,1,3.39-.74h0a7.89,7.89,0,0,1,3.17.65,6.88,6.88,0,0,1,4.17,6.28l0,.17,10.27,48.26.49,2.35.43,2a1.2,1.2,0,0,0,1.43.92,1.19,1.19,0,0,0,.92-1.42l-.34-1.6-.53-2.49-10.3-48.45a9.27,9.27,0,0,0-6.57-8.59,10.24,10.24,0,0,0-3.17-.5h0a10.52,10.52,0,0,0-3.39.56,9.29,9.29,0,0,0-6.36,8.6l-7,133.78-1.22,23.33-.43,8.2-.12,2.39Z"/><path class="cls-5" d="M235.12,519.68c-16.06,3-31.58,4.36-47.1-.27-14.16-4.08-27.5-8.44-40.3-17.42a83.66,83.66,0,0,1-14.89-13.25,112,112,0,0,0,19.46,8.19A108.05,108.05,0,0,0,164.85,500a115.27,115.27,0,0,0,12.82,1.67,129.79,129.79,0,0,0,25.77-.87c4.26-.58,8.49-1.36,12.67-2.31s8.33-2.07,12.41-3.36a197.1,197.1,0,0,0,46.15-21.82c-15.09,7.8-30.71,14.56-47,19.12a161.92,161.92,0,0,1-24.71,5,128.27,128.27,0,0,1-25.08.66,113.37,113.37,0,0,1-24.65-4.42,110,110,0,0,1-11.83-4.19A124,124,0,0,1,130.14,484c-.69-.38-1.37-.78-2.06-1.18-13.14-18-18.18-40.34-17.35-62.59A99.64,99.64,0,0,0,83.78,521.82q1.32,4.32,3,8.46c1.25,1.43,2.56,2.81,3.9,4.15s2.73,2.65,4.14,3.93c2.81,2.54,5.72,5,8.75,7.26s6.1,4.48,9.29,6.51,6.44,4,9.78,5.71a127.64,127.64,0,0,0,20.81,8.74c3.59,1.14,7.21,2.15,10.88,3s7.38,1.45,11.11,1.93c.94.11,1.87.25,2.8.34l2.81.28c1.87.13,3.75.29,5.63.34s3.76.09,5.64.12,3.77-.06,5.65-.16c3.76-.13,7.52-.48,11.26-.94l2.8-.38c.94-.13,1.87-.3,2.8-.45,1.87-.27,3.72-.65,5.58-1a206,206,0,0,0,43.14-14.29A164.5,164.5,0,0,1,211,572.13c-3.75.87-7.52,1.62-11.33,2.16s-7.64,1-11.49,1.2c-1.93.16-3.86.16-5.78.22s-3.86,0-5.79-.08-3.85-.19-5.78-.31l-2.88-.27c-1-.08-1.92-.22-2.88-.33-3.82-.52-7.63-1.19-11.39-2.06s-7.49-1.9-11.14-3.14a120.67,120.67,0,0,1-21.07-9.45,124.33,124.33,0,0,1-18.86-13.2c-1.46-1.25-2.88-2.53-4.28-3.84s-2.77-2.64-4.09-4a82.05,82.05,0,0,1-7.41-8.72,99.52,99.52,0,0,0,190.37-21.8,182.29,182.29,0,0,1-26,8.21C245.74,518.05,240.57,518.87,235.12,519.68Zm28.57.3c1.93-1.31,3.82-2.67,5.66-4.1a65.81,65.81,0,0,0,5.32-4.55,66.47,66.47,0,0,1-5,4.93c-1.76,1.55-3.59,3-5.45,4.45a112.26,112.26,0,0,1-11.77,7.76,121,121,0,0,1-26,11,117.91,117.91,0,0,1-13.79,3.22l-1.74.32c-.58.1-1.17.17-1.75.25l-3.51.5-3.53.36-1.76.18c-.59.07-1.18.08-1.77.13a154.56,154.56,0,0,1-28.29-.77,141.62,141.62,0,0,1-27.65-6.13,122.61,122.61,0,0,1-13.17-5.28,112.86,112.86,0,0,1-12.39-6.92,104.52,104.52,0,0,1-11.29-8.58,93.56,93.56,0,0,1-9.89-10.12,87.23,87.23,0,0,1-8.13-11.54,62.22,62.22,0,0,1-5.86-12.77,51.54,51.54,0,0,0,3,6.32c1.11,2.05,2.33,4,3.61,6a92.78,92.78,0,0,0,8.57,11,100.37,100.37,0,0,0,21.34,17.6c2,1.16,4,2.37,6,3.41s4.12,2.07,6.2,3.07a119.5,119.5,0,0,0,12.93,4.94,142,142,0,0,0,27.08,5.82,146.4,146.4,0,0,0,55.07-3.4A125.54,125.54,0,0,0,239,532.74a120.22,120.22,0,0,0,12.7-5.68A117.77,117.77,0,0,0,263.69,520Z"/><path class="cls-6" d="M144.47,406.36a21,21,0,0,0,.68,3.53,18.25,18.25,0,0,0,1.31,3.31,20,20,0,0,0,4.28,5.59,28.09,28.09,0,0,0,5.8,4.06,50.8,50.8,0,0,0,13.54,4.64c2.36.48,4.75.9,7.15,1.2s4.82.52,7.25.7a87.39,87.39,0,0,0,14.47,0,49.86,49.86,0,0,0,14-3.06A29.81,29.81,0,0,0,219.2,423a21.12,21.12,0,0,0,5.09-4.89,15.3,15.3,0,0,0,2.86-6.44,10.64,10.64,0,0,0,0-3.56,6.51,6.51,0,0,0-1.45-3.27A99.76,99.76,0,0,0,145,399.12a19.38,19.38,0,0,0-.57,3.61A20.93,20.93,0,0,0,144.47,406.36Zm38.16-4.56c.29-1,1.67-1.67,3.3-1.59,1.81.08,3.24,1.06,3.19,2.2a1.68,1.68,0,0,1-.84,1.29c-.29,1-1.67,1.67-3.31,1.6-1.81-.08-3.23-1.07-3.18-2.2A1.67,1.67,0,0,1,182.63,401.8Z"/><path class="cls-6" d="M225.75,404.87a6.54,6.54,0,0,1,1.88,3.16,10.79,10.79,0,0,1,.33,3.76A16,16,0,0,1,225.5,419a22.77,22.77,0,0,1-5.14,5.63,30.41,30.41,0,0,1-6.54,3.88,39,39,0,0,1-7.17,2.42,57,57,0,0,1-7.42,1.29,84.14,84.14,0,0,1-15,.14,100.62,100.62,0,0,1-14.78-2.12,49.77,49.77,0,0,1-14.06-5.37,29.12,29.12,0,0,1-3.16-2.13,24.6,24.6,0,0,1-2.85-2.55,21.11,21.11,0,0,1-4.24-6.34,19.82,19.82,0,0,1-.18-14.68,99.57,99.57,0,0,0-34.26,21.11c-.83,22.25,4.21,44.58,17.35,62.59.69.4,1.37.8,2.06,1.18a124,124,0,0,0,11.31,5.48,110,110,0,0,0,11.83,4.19,113.37,113.37,0,0,0,24.65,4.42,128.27,128.27,0,0,0,25.08-.66,161.92,161.92,0,0,0,24.71-5c16.24-4.56,31.86-11.32,47-19.12a197.1,197.1,0,0,1-46.15,21.82c-4.08,1.29-8.22,2.44-12.41,3.36s-8.41,1.73-12.67,2.31a129.79,129.79,0,0,1-25.77.87A115.27,115.27,0,0,1,164.85,500a108.05,108.05,0,0,1-12.56-3.09,112,112,0,0,1-19.46-8.19A83.66,83.66,0,0,0,147.72,502c12.8,9,26.14,13.34,40.3,17.42,15.52,4.63,31,3.27,47.1.27,5.45-.81,10.62-1.63,16.07-3a182.29,182.29,0,0,0,26-8.21,100.49,100.49,0,0,0,1.25-15.81A99.46,99.46,0,0,0,225.75,404.87Zm-.69,54.52q-2.49.72-5,1.35c-1.69.41-3.38.78-5.09,1.13q-5.12,1-10.3,1.65a112.23,112.23,0,0,1-20.9.47,100.67,100.67,0,0,1-20.58-3.77,95.29,95.29,0,0,1-28.06-13.73A98.26,98.26,0,0,1,127,440a86.4,86.4,0,0,1-7.29-7.41c-1.13-1.31-2.23-2.65-3.26-4-.52-.69-1-1.4-1.49-2.12-.24-.36-.47-.72-.7-1.09-.11-.19-.22-.38-.32-.57a1.88,1.88,0,0,1-.24-.59,1.58,1.58,0,0,0,.29.56c.12.18.24.36.37.53.25.35.51.69.78,1,.53.68,1.08,1.33,1.65,2,1.13,1.29,2.3,2.55,3.51,3.76a93.5,93.5,0,0,0,7.63,6.87A102.22,102.22,0,0,0,145,450.07a98.85,98.85,0,0,0,18.94,7.48,100,100,0,0,0,20,3.51,112.73,112.73,0,0,0,20.37-.31,139.4,139.4,0,0,0,20.13-3.58A208.62,208.62,0,0,0,263,442.85,163.39,163.39,0,0,1,225.06,459.39Z"/><path class="cls-5" d="M204.34,460.75a112.73,112.73,0,0,1-20.37.31,100,100,0,0,1-20-3.51A98.85,98.85,0,0,1,145,450.07a102.22,102.22,0,0,1-17.09-11.2,93.5,93.5,0,0,1-7.63-6.87c-1.21-1.21-2.38-2.47-3.51-3.76-.57-.65-1.12-1.3-1.65-2-.27-.34-.53-.68-.78-1-.13-.17-.25-.35-.37-.53a1.58,1.58,0,0,1-.29-.56,1.88,1.88,0,0,0,.24.59c.1.19.21.38.32.57.23.37.46.73.7,1.09.47.72,1,1.43,1.49,2.12,1,1.39,2.13,2.73,3.26,4A86.4,86.4,0,0,0,127,440a98.26,98.26,0,0,0,8.12,6.53,95.29,95.29,0,0,0,28.06,13.73A100.67,100.67,0,0,0,183.74,464a112.23,112.23,0,0,0,20.9-.47q5.19-.61,10.3-1.65c1.71-.35,3.4-.72,5.09-1.13s3.37-.87,5-1.35A163.39,163.39,0,0,0,263,442.85a208.62,208.62,0,0,1-38.54,14.32A139.4,139.4,0,0,1,204.34,460.75Z"/><path class="cls-29" d="M225.77,537a146.4,146.4,0,0,1-55.07,3.4,142,142,0,0,1-27.08-5.82,119.5,119.5,0,0,1-12.93-4.94c-2.08-1-4.18-1.95-6.2-3.07s-4-2.25-6-3.41a100.37,100.37,0,0,1-21.34-17.6,92.78,92.78,0,0,1-8.57-11c-1.28-1.94-2.5-3.93-3.61-6a51.54,51.54,0,0,1-3-6.32,62.22,62.22,0,0,0,5.86,12.77,87.23,87.23,0,0,0,8.13,11.54,93.56,93.56,0,0,0,9.89,10.12,104.52,104.52,0,0,0,11.29,8.58,112.86,112.86,0,0,0,12.39,6.92,122.61,122.61,0,0,0,13.17,5.28,141.62,141.62,0,0,0,27.65,6.13,154.56,154.56,0,0,0,28.29.77c.59,0,1.18-.06,1.77-.13l1.76-.18,3.53-.36,3.51-.5c.58-.08,1.17-.15,1.75-.25l1.74-.32a117.91,117.91,0,0,0,13.79-3.22,121,121,0,0,0,26-11,112.26,112.26,0,0,0,11.77-7.76c1.86-1.43,3.69-2.9,5.45-4.45a66.47,66.47,0,0,0,5-4.93,65.81,65.81,0,0,1-5.32,4.55c-1.84,1.43-3.73,2.79-5.66,4.1a117.77,117.77,0,0,1-12,7.08,120.22,120.22,0,0,1-12.7,5.68A125.54,125.54,0,0,1,225.77,537Z"/><path class="cls-29" d="M98.3,543c1.4,1.31,2.82,2.59,4.28,3.84a124.33,124.33,0,0,0,18.86,13.2,120.67,120.67,0,0,0,21.07,9.45c3.65,1.24,7.38,2.26,11.14,3.14s7.57,1.54,11.39,2.06c1,.11,1.92.25,2.88.33l2.88.27c1.93.12,3.85.27,5.78.31s3.86.07,5.79.08,3.85-.06,5.78-.22c3.85-.22,7.68-.65,11.49-1.2s7.58-1.29,11.33-2.16a164.5,164.5,0,0,0,42.6-16.78,206,206,0,0,1-43.14,14.29c-1.86.34-3.71.72-5.58,1-.93.15-1.86.32-2.8.45l-2.8.38c-3.74.46-7.5.81-11.26.94-1.88.1-3.77.11-5.65.16s-3.76,0-5.64-.12-3.76-.21-5.63-.34l-2.81-.28c-.93-.09-1.86-.23-2.8-.34-3.73-.48-7.44-1.11-11.11-1.93s-7.29-1.83-10.88-3a127.64,127.64,0,0,1-20.81-8.74c-3.34-1.75-6.59-3.68-9.78-5.71s-6.29-4.2-9.29-6.51-5.94-4.72-8.75-7.26q-2.11-1.92-4.14-3.93c-1.34-1.34-2.65-2.72-3.9-4.15h0A82.05,82.05,0,0,0,94.21,539C95.53,540.39,96.9,541.73,98.3,543Z"/><path class="cls-5" d="M145.17,413.8a21.11,21.11,0,0,0,4.24,6.34,24.6,24.6,0,0,0,2.85,2.55,29.12,29.12,0,0,0,3.16,2.13,49.77,49.77,0,0,0,14.06,5.37,100.62,100.62,0,0,0,14.78,2.12,84.14,84.14,0,0,0,15-.14,57,57,0,0,0,7.42-1.29,39,39,0,0,0,7.17-2.42,30.41,30.41,0,0,0,6.54-3.88A22.77,22.77,0,0,0,225.5,419a16,16,0,0,0,2.46-7.16,10.79,10.79,0,0,0-.33-3.76,6.54,6.54,0,0,0-1.88-3.16l0,0h0a6.51,6.51,0,0,1,1.45,3.27,10.64,10.64,0,0,1,0,3.56,15.3,15.3,0,0,1-2.86,6.44A21.12,21.12,0,0,1,219.2,423a29.81,29.81,0,0,1-6.27,3.31,49.86,49.86,0,0,1-14,3.06,87.39,87.39,0,0,1-14.47,0c-2.43-.18-4.85-.39-7.25-.7s-4.79-.72-7.15-1.2a50.8,50.8,0,0,1-13.54-4.64,28.09,28.09,0,0,1-5.8-4.06,20,20,0,0,1-4.28-5.59,18.25,18.25,0,0,1-1.31-3.31,20.49,20.49,0,0,1-.73-7.16,19.38,19.38,0,0,1,.57-3.61h0a19.82,19.82,0,0,0,.18,14.68Z"/><path class="cls-19" d="M185,405.3c1.64.07,3-.62,3.31-1.6a4.29,4.29,0,0,1-2.53.62c-1.81-.08-3.23-1.06-3.18-2.2a.87.87,0,0,1,.06-.32,1.67,1.67,0,0,0-.84,1.3C181.74,404.23,183.16,405.22,185,405.3Z"/><path class="cls-10" d="M185.75,404.32a4.29,4.29,0,0,0,2.53-.62,1.68,1.68,0,0,0,.84-1.29c0-1.14-1.38-2.12-3.19-2.2-1.63-.08-3,.62-3.3,1.59a.87.87,0,0,0-.06.32C182.52,403.26,183.94,404.24,185.75,404.32Z"/></g></svg>