<svg id="Layer_1" data-name="Layer 1" xmlns="http://www.w3.org/2000/svg" xmlns:xlink="http://www.w3.org/1999/xlink" viewBox="0 0 1335.38 343.72"><defs><style>.cls-1{fill:none;}.cls-2{fill:#415961;}.cls-14,.cls-3{fill:#2a454e;}.cls-4{fill:#526870;}.cls-5{fill:#fee48f;}.cls-6{fill:#feeaa7;}.cls-7{fill:#fee79a;}.cls-8{fill:#fec901;}.cls-9{fill:#fecd13;}.cls-10{fill:#fee79b;}.cls-11{fill:#fdfdfd;}.cls-12{fill:#385a64;}.cls-13{fill:#263238;}.cls-14{opacity:0.3;}.cls-15{fill:#e0e0e0;}.cls-16{fill:#ebebeb;}.cls-17{fill:#fff;}.cls-18{clip-path:url(#clip-path);}.cls-19{fill:#2e3552;}</style><clipPath id="clip-path"><rect class="cls-1" width="1335.38" height="343.72" rx="171.86"/></clipPath></defs><rect class="cls-2" x="772.87" y="274.06" width="57.44" height="24.09" rx="4.5"/><rect class="cls-3" x="772.87" y="273.86" width="57.44" height="10.82"/><rect class="cls-2" x="509.01" y="274.06" width="57.44" height="24.09" rx="4.5"/><rect class="cls-3" x="509.01" y="274.06" width="57.44" height="10.82"/><rect class="cls-4" x="566.74" y="65.83" width="24.38" height="4.06" rx="1.25"/><rect class="cls-4" x="750.55" y="65.83" width="24.38" height="4.06" rx="1.25"/><rect class="cls-5" x="397.99" y="69.93" width="545.69" height="209.22" rx="72"/><path class="cls-6" d="M474.77,100.7a73.35,73.35,0,0,1-14.29,5.15l-1.24.67A72.34,72.34,0,0,0,474.77,100.7Z"/><path class="cls-6" d="M882.34,106.52l-.79-.43a70.6,70.6,0,0,1-14.84-5.54A74.24,74.24,0,0,0,882.34,106.52Z"/><path class="cls-6" d="M914.84,162.8a64.53,64.53,0,0,0-32.78-56.59c-.17,0-.34-.08-.51-.12l.79.43a74.24,74.24,0,0,1-15.63-6,70.6,70.6,0,0,0,14.84,5.54,64.16,64.16,0,0,0-30.83-7.55H491a64.57,64.57,0,0,0-30.48,7.31,73.35,73.35,0,0,0,14.29-5.15,72.34,72.34,0,0,1-15.53,5.82l1.24-.67-1.87.44c-19.78,11.11-33.77,32.21-33.77,56.51v23.1c0,3.43.89,6.8,1.4,10.09.18.21.36.42.53.64l-.06-.36c4.68,5.48,9,13.19,12.71,24-3.57-10.44-8.14-18.23-12.65-23.68A65.3,65.3,0,0,0,491,251.34H850.72c32.39,0,59.24-24,64.08-55.07l-.37-.21C914.94,192.77,914.84,162.8,914.84,162.8Z"/><path class="cls-6" d="M426.71,196.27l.06.36c4.51,5.45,9.08,13.24,12.65,23.68C435.71,209.46,431.39,201.75,426.71,196.27Z"/><path class="cls-7" d="M859,70.54H482.7A84.25,84.25,0,0,0,441.21,80.9c-6.29,6.94-8.6,13.88-6.09,18.75,3.18,6.17,11.48,9.69,24.12,6.87a64.32,64.32,0,0,1,31.72-8H850.72a64.37,64.37,0,0,1,31.72,8c12.63,2.82,20.93-.55,24.11-6.72,2.51-4.87.2-11.89-6.09-18.82A84.31,84.31,0,0,0,859,70.54Z"/><path class="cls-8" d="M859,78.54H482.7a76.16,76.16,0,0,0-36.17,8.79c-4,4.81-4.26,8-3.95,8.57,1,2,4.26,3.16,8.26,3.16v.08a26.65,26.65,0,0,0,5.61-.32A72.32,72.32,0,0,1,491,90.54H850.72a72.71,72.71,0,0,1,34.61,8.28,28.16,28.16,0,0,0,5.74.17c4.15,0,7.12-1,8.14-3,.31-.6,0-3.91-4-8.72A76.38,76.38,0,0,0,859,78.54Z"/><path class="cls-9" d="M933.75,187.06c-5.71-1.33-12.51,1.69-19,9.21-4.84,31-31.69,55.07-64.08,55.07H491c-32.4,0-59.25-24-64.09-55.07-6.44-7.52-13.24-10.4-18.95-9.07-5.12,1.19-8.76,7.74-9.7,16.46,4.41,42.77,40.55,76.68,84.48,76.68H859c43.94,0,80.07-34,84.48-76.76C942.51,194.86,938.87,188.24,933.75,187.06Z"/><path class="cls-8" d="M931.88,195.14a4.39,4.39,0,0,0-1-.07c-2.4,0-5.39,1.8-8.38,4.85a72.84,72.84,0,0,1-71.81,59.42H491A72.82,72.82,0,0,1,419.14,200c-3-3.06-6-4.9-8.38-4.9a4.37,4.37,0,0,0-1,.17c-.52.12-2.5,2.44-3.26,8a76.65,76.65,0,0,0,76.17,68.08H859a76.63,76.63,0,0,0,76.17-68.06C934.38,197.69,932.4,195.26,931.88,195.14Z"/><path class="cls-10" d="M914.84,167.88v7.77Q914.89,171.69,914.84,167.88Z"/><path class="cls-10" d="M914.29,153.7c.29,4.5.48,9.24.55,14.18V162.8A66.59,66.59,0,0,0,914.29,153.7Z"/><polygon class="cls-2" points="739.59 147.86 697.59 147.86 697.59 106.5 643.95 106.5 643.95 147.86 601.95 147.86 601.95 202.79 643.95 202.79 643.95 244.8 697.59 244.8 697.59 202.79 739.59 202.79 739.59 147.86"/><path class="cls-11" d="M735.71,152.39h-42a.65.65,0,0,1-.65-.65V111H648.47v40.54a.82.82,0,0,1-.82.82H605.82v46.52h42.65v41.36h44.59V198.91h42.65Z"/><polygon class="cls-12" points="936.01 96.48 934.78 114.26 926.88 122 923.56 149.75 961.85 149.33 958.04 122.16 949.55 114.1 948.05 96.48 936.01 96.48"/><rect class="cls-12" x="922.99" y="154.21" width="39.14" height="24.82"/><rect class="cls-12" x="917.85" y="142.44" width="49.43" height="26.27" rx="1.16"/><path class="cls-13" d="M963.86,169c0,.37-9.64.66-21.53.66s-21.54-.29-21.54-.66,9.64-.67,21.54-.67S963.86,168.62,963.86,169Z"/><path class="cls-13" d="M964.75,142.44c0,.37-10.14.66-22.64.66s-22.65-.29-22.65-.66,10.13-.67,22.65-.67S964.75,142.07,964.75,142.44Z"/><rect class="cls-12" x="917.12" y="179.03" width="52.03" height="25.99"/><path class="cls-13" d="M968.89,179c0,.37-11.59.66-25.89.66s-25.88-.29-25.88-.66,11.59-.67,25.88-.67S968.89,178.66,968.89,179Z"/><path class="cls-13" d="M968.89,205c0,.37-11.59.66-25.89.66s-25.88-.29-25.88-.66,11.59-.67,25.88-.67S968.89,204.65,968.89,205Z"/><path class="cls-13" d="M921.62,204.62c-.37,0-.66-5.81-.66-13s.29-13,.66-13,.67,5.81.67,13S922,204.62,921.62,204.62Z"/><path class="cls-13" d="M928.84,204.62c-.37,0-.67-5.81-.67-13s.3-13,.67-13,.67,5.81.67,13S929.21,204.62,928.84,204.62Z"/><path class="cls-13" d="M936.06,204.62c-.37,0-.67-5.81-.67-13s.3-13,.67-13,.66,5.81.66,13S936.43,204.62,936.06,204.62Z"/><path class="cls-13" d="M943.28,204.62c-.37,0-.67-5.81-.67-13s.3-13,.67-13,.66,5.81.66,13S943.64,204.62,943.28,204.62Z"/><path class="cls-13" d="M950.49,204.62c-.36,0-.66-5.81-.66-13s.3-13,.66-13,.67,5.81.67,13S950.86,204.62,950.49,204.62Z"/><path class="cls-13" d="M957.71,204.62c-.37,0-.66-5.81-.66-13s.29-13,.66-13,.67,5.81.67,13S958.08,204.62,957.71,204.62Z"/><path class="cls-13" d="M964.93,204.62c-.37,0-.67-5.81-.67-13s.3-13,.67-13,.67,5.81.67,13S965.3,204.62,964.93,204.62Z"/><path class="cls-12" d="M967.13,297a4.66,4.66,0,0,0,4.66-4.69l-.65-75.66a12.16,12.16,0,0,0-2.92-7.89l-2.69-3.12h-43.8l-3.09,4.2a12.05,12.05,0,0,0-2.34,7.42c.26,13.19,0,55.83-.13,75.06a4.65,4.65,0,0,0,4.65,4.68Z"/><rect class="cls-12" x="915.45" y="179.03" width="56.66" height="25.99"/><path class="cls-13" d="M971.83,179c0,.37-12.63.66-28.19.66s-28.19-.29-28.19-.66,12.62-.67,28.19-.67S971.83,178.66,971.83,179Z"/><path class="cls-13" d="M971.83,205c0,.37-12.63.66-28.19.66s-28.19-.29-28.19-.66,12.62-.67,28.19-.67S971.83,204.65,971.83,205Z"/><path class="cls-13" d="M921.62,204.62c-.37,0-.66-5.81-.66-13s.29-13,.66-13,.67,5.81.67,13S922,204.62,921.62,204.62Z"/><path class="cls-13" d="M928.84,204.62c-.37,0-.67-5.81-.67-13s.3-13,.67-13,.67,5.81.67,13S929.21,204.62,928.84,204.62Z"/><path class="cls-13" d="M936.06,204.62c-.37,0-.67-5.81-.67-13s.3-13,.67-13,.66,5.81.66,13S936.43,204.62,936.06,204.62Z"/><path class="cls-13" d="M943.28,204.62c-.37,0-.67-5.81-.67-13s.3-13,.67-13,.66,5.81.66,13S943.64,204.62,943.28,204.62Z"/><path class="cls-13" d="M950.49,204.62c-.36,0-.66-5.81-.66-13s.3-13,.66-13,.67,5.81.67,13S950.86,204.62,950.49,204.62Z"/><path class="cls-13" d="M957.71,204.62c-.37,0-.66-5.81-.66-13s.29-13,.66-13,.67,5.81.67,13S958.08,204.62,957.71,204.62Z"/><path class="cls-13" d="M964.93,178.64c.37,0,.67,5.81.67,13s-.3,13-.67,13-.67-5.81-.67-13S964.56,178.64,964.93,178.64Z"/><path class="cls-13" d="M949.55,114.1c0,.36-3.32.66-7.42.66s-7.41-.3-7.41-.66,3.32-.67,7.41-.67S949.55,113.73,949.55,114.1Z"/><path class="cls-13" d="M958,122.16c0,.37-7,.63-15.59.59s-15.58-.38-15.58-.75,7-.63,15.59-.58S958,121.79,958,122.16Z"/><path class="cls-14" d="M923,169a64.52,64.52,0,0,0,20.29,3.87A47.56,47.56,0,0,0,962.14,169Z"/><rect class="cls-5" x="925.15" y="233.24" width="38.85" height="38.85"/><path class="cls-13" d="M962.81,87.46a5.65,5.65,0,0,1,1.83.12,7.78,7.78,0,0,1,6,6.47c.17,1.47.08,3,.13,4.65,0,3.34,0,7.14.08,11.38.06,17.07.15,41,.24,69v.63h-.63l-47.35,0h-8.32V179c0-18.92,0-36.85.06-53.12,0-8.13,0-15.84.07-23.06,0-1.8,0-3.57,0-5.31,0-.87,0-1.74,0-2.59a7.89,7.89,0,0,1,.51-2.64,8.15,8.15,0,0,1,7.92-5.3l28.89.2,7.83.12,2,.07a3,3,0,0,1,.69.06,2.17,2.17,0,0,1-.69.07l-2,.06-7.83.13-28.89.2a7.2,7.2,0,0,0-7,4.74c-.59,1.44-.4,3.12-.42,4.88s0,3.51,0,5.31c0,7.22,0,14.93.06,23.06,0,16.27,0,34.2.06,53.12l-.66-.67h7.65l47.35,0-.62.63c.09-27.93.18-51.88.24-68.95,0-4.24.06-8,.08-11.38,0-1.65.11-3.24,0-4.58a7.15,7.15,0,0,0-1.35-3.44,7.64,7.64,0,0,0-4.18-2.89C963.45,87.49,962.81,87.53,962.81,87.46Z"/><path class="cls-15" d="M922.71,155.71a9.13,9.13,0,0,1,1.53-2.05c1-1.25,2.6-3,4.53-5.23,3.87-4.37,9.28-10.35,15.32-16.9s11.55-12.43,15.6-16.65c2-2.1,3.68-3.79,4.84-4.94a9.34,9.34,0,0,1,1.92-1.69,10,10,0,0,1-1.53,2c-1,1.25-2.59,3-4.53,5.22-3.87,4.38-9.28,10.36-15.33,16.92s-11.56,12.44-15.61,16.65c-2,2.1-3.67,3.79-4.84,4.94A9.64,9.64,0,0,1,922.71,155.71Z"/><path class="cls-15" d="M924.7,131.89c-.12-.14,1.64-1.78,4.5-4.37s6.82-6.17,11.12-10.2,8.11-7.76,10.88-10.46,4.5-4.34,4.64-4.21-1.36,2-4,4.87-6.33,6.72-10.64,10.77-8.39,7.53-11.42,10S924.81,132,924.7,131.89Z"/><path class="cls-14" d="M921.73,205.66s13.6,5.62,22.85,5.62,20.95-5.62,20.95-5.62Z"/><polygon class="cls-12" points="408.03 113.34 411.9 113.91 420.34 47.91 419.05 47.72 408.03 113.34"/><rect class="cls-3" x="400.3" y="102.48" width="19.27" height="22.76" transform="translate(237.36 502.74) rotate(-81.59)"/><rect class="cls-16" x="325.36" y="180.13" width="145.08" height="30.29" transform="translate(146.55 560.35) rotate(-81.59)"/><path class="cls-12" d="M387.87,120.33a6.24,6.24,0,0,0,5.26,7.09l29,4.28a6.24,6.24,0,0,0,7.09-5.26h0a6.23,6.23,0,0,0-5.26-7.08l-29-4.28a6.24,6.24,0,0,0-7.09,5.25Z"/><path class="cls-12" d="M366.8,262.94a6.23,6.23,0,0,0,5.26,7.09l29,4.28a6.23,6.23,0,0,0,7.08-5.26h0a6.24,6.24,0,0,0-5.26-7.09l-29-4.28a6.24,6.24,0,0,0-7.08,5.26Z"/><polygon class="cls-12" points="379.72 286.1 382.79 265.31 392.12 266.69 389.04 287.48 397.11 288.67 395.73 298 370.27 294.24 371.65 284.91 379.72 286.1"/><rect class="cls-17" x="362.98" y="160.47" width="77.87" height="15.22" transform="translate(176.89 541.11) rotate(-81.59)"/><rect class="cls-17" x="397.27" y="135.86" width="2.97" height="17.1" transform="translate(197.58 517.76) rotate(-81.59)"/><rect class="cls-17" x="391.14" y="177.34" width="2.97" height="17.1" transform="translate(151.33 547.11) rotate(-81.59)"/><rect class="cls-17" x="385.01" y="218.81" width="2.97" height="17.1" transform="translate(105.06 576.45) rotate(-81.59)"/><g class="cls-18"><rect class="cls-19" x="23.81" y="296.02" width="1275.55" height="2.11" rx="0.98"/></g></svg>