<svg xmlns="http://www.w3.org/2000/svg" viewBox="0 0 548.99 313.05"><defs><style>.cls-1{isolation:isolate;}.cls-2{fill:#ffbe9d;}.cls-3{fill:#eb996e;}.cls-14,.cls-4{fill:#385a64;}.cls-5{fill:#c8c8c8;}.cls-6{fill:#3c5660;}.cls-7{fill:#e1b6a4;}.cls-10,.cls-14,.cls-15,.cls-7{mix-blend-mode:multiply;}.cls-14,.cls-15,.cls-7{opacity:0.5;}.cls-8{fill:#35474f;}.cls-10,.cls-9{fill:#b5d8eb;}.cls-11{fill:#4b6071;}.cls-12,.cls-15{fill:#3c5462;}.cls-13{fill:#dedede;}.cls-16{fill:#969696;}</style></defs><g class="cls-1"><g id="Layer_1" data-name="Layer 1"><path class="cls-2" d="M108.65,41l12.76,10.11s21.07,1.78,22.27-3.66c1-4.57-15.08-10.61-15.08-10.61s-9.12-2.41-12.71-5.3S108.65,41,108.65,41Z"/><path class="cls-3" d="M115.89,31.54c-3.6-2.9-7.24,9.46-7.24,9.46l1.06.84c4.68,2.56,13-1.54,12.37-7.12A25,25,0,0,1,115.89,31.54Z"/><path class="cls-2" d="M88.45,22.84C88.06,23,100.53,40,108.36,40.46S125,35,124.55,29.18c-.51-6.47-16.24-22.5-26.32-21S88.45,22.84,88.45,22.84Z"/><path class="cls-4" d="M88.2,2.31a23,23,0,0,0-3.93,13.37c-1.86,2.27-3.59,6.18-1.84,13.9,2.16,9.49,11.24,13.56,18.6,12.76a20.84,20.84,0,0,1,12.57,2.58s-5.09-5.85-6.75-7.24a12.35,12.35,0,0,0-3.34-2.1c-3.11-1.21-1.31-5.73-2.16-8.4-.66-2.06-3.7-5.29-4.84-8.64l-.4-3s.75-5.21,4.31-7.37S93-4.61,88.2,2.31Z"/><path class="cls-2" d="M103.73,30.05c1.8,1.8,2.41,4.11,1.37,5.15s-3.35.41-5.14-1.39-2.42-4.12-1.38-5.16S101.93,28.24,103.73,30.05Z"/><path class="cls-5" d="M212.84,44s-58.55-8-66.56-7.12-28.48,8.08-26.42,18.56,47.56,50.59,96.88,44.79Z"/><polygon class="cls-2" points="165.18 66.06 187.51 77.15 182.37 97.4 147.93 81.39 165.18 66.06"/><path class="cls-6" d="M195.52,35.7s114.2,6.78,120.5,8.23S366.41,50,373.1,54.12s23.23,16.56,35,11,22.65-14.71,30.61-5.52,27.82,41.84,27.82,41.84S402.23,114.36,379,116.66s-35.18,9.65-64.63,0-21.05-15.18-58.91-7.36-74.19,9.66-79.84-.92S180.8,38,195.52,35.7Z"/><path class="cls-4" d="M53.9,35.9a12.35,12.35,0,0,1,7.55-9.09c13-5.45,27.37.68,40.18,6.58,39.48,18.18,14.25,38.8,5.4,36.91C97.13,67.5,81.52,64.59,72,61,66,58,64.43,52.73,61.67,47.42,55.08,45.05,53.09,40.55,53.9,35.9Z"/><path class="cls-7" d="M93.39,41.63c-12.49-5.75-26.5-11.72-39.19-7a10.66,10.66,0,0,0-.3,1.24c-.81,4.65,1.18,9.15,7.77,11.52C64.43,52.73,66,58,72,61,81.52,64.59,97.13,67.5,107,70.3a10.79,10.79,0,0,0,6.66-1.39C117.07,61.62,114.35,51.28,93.39,41.63Z"/><path class="cls-8" d="M184.86,162.49l-4.55,10.87a2.1,2.1,0,0,1-2.74,1.13L1.29,100.67A2.1,2.1,0,0,1,.16,97.93L4.72,87.06a2.1,2.1,0,0,1,2.74-1.13l176.28,73.82A2.09,2.09,0,0,1,184.86,162.49Z"/><path class="cls-9" d="M502.54,97.6H185.6L43,36.08A17,17,0,1,0,29.54,67.22L177,130.84a16.88,16.88,0,0,0,7.26,1.36v9H502.54a21.82,21.82,0,0,0,21.82-21.82h0A21.82,21.82,0,0,0,502.54,97.6Z"/><path class="cls-10" d="M502.54,141.24h.29c19.08-.25,20.49-28.72,1.5-30.66-.74-.07-1.49-.11-2.24-.11H185.15L42.51,49a16.88,16.88,0,0,0-12.27-.45c-8.52,3-9.1,15-.84,18.66l.14.06L177,130.84a16.88,16.88,0,0,0,7.26,1.36v9Z"/><rect class="cls-8" x="297.39" y="96.67" width="4.76" height="223.96" transform="translate(12.48 434.18) rotate(-72.97)"/><rect class="cls-8" x="297.39" y="96.67" width="4.76" height="223.96" transform="translate(188.05 556.39) rotate(-107.03)"/><path class="cls-8" d="M494.53,37.69H217.63a8.36,8.36,0,0,0-8.36,8.36v70.29a8.36,8.36,0,0,0,8.36,8.36h24.1v16.54h6.49V124.7H458.45v16.54h6.49V124.7h29.59a8.36,8.36,0,0,0,8.36-8.36V46.05A8.36,8.36,0,0,0,494.53,37.69ZM268.19,118.21H226.12a8.36,8.36,0,0,1-8.36-8.37V83.46h50.43Zm0-40.65H217.76v-25a8.36,8.36,0,0,1,8.36-8.36h42.07Zm164.64,40.65H274.09V83.46H432.83Zm0-40.65H274.09V44.18H432.83Zm61.57,32.28a8.36,8.36,0,0,1-8.36,8.37H438.73V83.46H494.4Zm0-32.28H438.73V44.18H486a8.36,8.36,0,0,1,8.36,8.36Z"/><rect class="cls-11" x="9.53" y="163.96" width="529.13" height="19.48"/><rect class="cls-8" x="47.49" y="233.87" width="475.37" height="13.48"/><rect class="cls-8" x="128.5" y="183.44" width="8.99" height="50.44"/><rect class="cls-8" x="455.95" y="183.44" width="8.99" height="50.44"/><circle class="cls-12" cx="74.3" cy="294.68" r="18.37"/><path d="M84.12,294.68a9.82,9.82,0,1,1-9.82-9.82A9.82,9.82,0,0,1,84.12,294.68Z"/><path class="cls-13" d="M51.12,266.37s-.71,9.14,9.07,14.11S70,290.26,70,290.26s-.94,7.41,4.42,7.57,5.68-6.78,5.21-12.46-4.74-11.51-5.6-12.93-.32-6.07-.32-6.07Z"/><rect class="cls-12" x="47.49" y="262.03" width="28.07" height="6.47"/><rect class="cls-8" x="58.93" y="247.35" width="4.35" height="14.67"/><path class="cls-12" d="M527.56,294.68a18.38,18.38,0,1,1-18.38-18.38A18.37,18.37,0,0,1,527.56,294.68Z"/><path d="M519.34,294.68a9.82,9.82,0,1,1-9.81-9.82A9.82,9.82,0,0,1,519.34,294.68Z"/><path class="cls-13" d="M486,266.37s-.71,9.14,9.06,14.11,9.78,9.78,9.78,9.78-.94,7.41,4.42,7.57,5-7.31,4.48-13-4-11-4.87-12.4-.32-6.07-.32-6.07Z"/><rect class="cls-12" x="482.37" y="262.03" width="28.07" height="6.47"/><rect class="cls-8" x="493.81" y="247.35" width="4.35" height="14.67"/><path class="cls-4" d="M193.42,137.5,23.59,64.63l-2.77,7.3A18.66,18.66,0,0,0,31.65,96l161.77,68H499.83A18.66,18.66,0,0,0,518.5,145.3v-7.8Z"/><path class="cls-14" d="M191.88,152.11H517.21a18.58,18.58,0,0,0,1.29-6.81v-7.8H193.42L23.59,64.63l-2.77,7.3a18.54,18.54,0,0,0-1.18,7.76Z"/><rect class="cls-8" x="533.01" y="82.57" width="15.98" height="105.11" rx="5.55"/><rect class="cls-8" x="3.31" y="122.02" width="15.98" height="61.42" rx="5.55"/><path class="cls-11" d="M186.26,126.26h8.07a9.19,9.19,0,0,1,9.19,9.19v48a0,0,0,0,1,0,0H177.07a0,0,0,0,1,0,0v-48A9.19,9.19,0,0,1,186.26,126.26Z"/><circle class="cls-8" cx="190.29" cy="141.24" r="9.58"/><rect class="cls-15" x="177.07" y="154.85" width="26.45" height="9.11"/><path class="cls-16" d="M165.69,65.26S140.88,49,131.81,47.63s-16.6,7.61-15.65,15.92,38.73,18.62,38.73,18.62Z"/></g></g></svg>