<svg xmlns="http://www.w3.org/2000/svg" viewBox="0 0 1154.24 531.99"><defs><style>.cls-1{isolation:isolate;}.cls-19,.cls-2{fill:#455a64;}.cls-3{fill:#263238;}.cls-4{fill:#2a454e;}.cls-5{opacity:0.3;}.cls-6{fill:#fec901;}.cls-7{fill:#fff;}.cls-8{fill:#ffbe9d;}.cls-9{fill:#eb996e;}.cls-10{opacity:0.6;}.cls-11{opacity:0.2;}.cls-12,.cls-13{fill:#e1b6a4;}.cls-13,.cls-16,.cls-19,.cls-20{mix-blend-mode:multiply;}.cls-13,.cls-19,.cls-20{opacity:0.5;}.cls-14{fill:#35474f;}.cls-15,.cls-16{fill:#b5d8eb;}.cls-17{fill:#4b6071;}.cls-18,.cls-20{fill:#3c5462;}.cls-21{fill:#3c5660;}.cls-22{fill:#d07e5d;}.cls-23{fill:#c8c8c8;}.cls-24{fill:#6584aa;}.cls-25{fill:#9b4731;}</style></defs><g class="cls-1"><g id="Layer_1" data-name="Layer 1"><path class="cls-2" d="M629.77,488.69l.72,24.86s-25,9.08-25.35,13.69l48.26.34.47-38.79Z"/><path class="cls-3" d="M624.63,515.36c0,.23,1,.63,1.76,1.64s1,2,1.25,2,.39-1.34-.62-2.57S624.64,515.13,624.63,515.36Z"/><path class="cls-3" d="M621.71,521.4c.22.05.55-1.13,0-2.42s-1.7-1.82-1.8-1.62.58.89,1,2S621.48,521.37,621.71,521.4Z"/><path class="cls-2" d="M714.23,488.7l5,24.84s25,9.08,25.34,13.69l-48.26.34L690.5,488.8Z"/><path class="cls-3" d="M725.13,515.35c.06.22-1,.63-1.75,1.63s-1,2.06-1.25,2-.4-1.34.61-2.56S725.13,515.12,725.13,515.35Z"/><path class="cls-3" d="M728.05,521.38c-.21.06-.55-1.12.05-2.41s1.69-1.82,1.79-1.62-.57.89-1,2S728.28,521.36,728.05,521.38Z"/><polygon class="cls-4" points="689.84 251.69 726.32 513.44 690.92 512.76 651.16 289.98 660.39 513.8 621.62 511.41 608.01 250.1 689.84 251.69"/><g class="cls-5"><polygon points="609.03 270.66 608.88 266.87 692.32 269.46 693.17 276.72 609.03 270.66"/></g><path class="cls-3" d="M635.85,512.45c-.17,0-2.74-52.08-5.74-116.33s-5.3-116.37-5.12-116.38,2.74,52.07,5.74,116.35S636,512.44,635.85,512.45Z"/><path class="cls-3" d="M709.37,510.35s0-.19-.11-.58-.16-1-.28-1.74c-.23-1.55-.56-3.79-1-6.67-.87-5.82-2.11-14.2-3.64-24.54-3.09-20.72-7.49-49.33-12.7-80.87s-10.25-60.05-14-80.66c-1.88-10.29-3.4-18.62-4.46-24.41-.52-2.86-.92-5.09-1.2-6.64-.13-.74-.22-1.31-.3-1.73s-.08-.59-.08-.59.06.2.15.58.2,1,.36,1.72c.3,1.54.74,3.77,1.31,6.62,1.14,5.74,2.73,14.07,4.65,24.37,3.85,20.59,9,49.09,14.18,80.64s9.54,60.16,12.52,80.9c1.49,10.37,2.66,18.77,3.44,24.58.38,2.88.67,5.13.88,6.69l.21,1.74A5.21,5.21,0,0,1,709.37,510.35Z"/><path class="cls-6" d="M606.33,185s-18.27-4.36-18.87-5.13l15-38.71a29.13,29.13,0,0,1,10.42-13.5,28.59,28.59,0,0,1,7.11-3.58,49.6,49.6,0,0,1,17.75-2.75L663.14,120a50.1,50.1,0,0,1,20,5.54A40.37,40.37,0,0,1,702,146.21l11.37,28.43-28.7,6-1.09,30.53,13.12,58.53-91.58-3,4.09-80.18h0Z"/><g class="cls-5"><path class="cls-7" d="M590.58,174.78c0,.09,4.72,1.64,10.59,3.46s10.66,3.23,10.69,3.14-4.72-1.63-10.59-3.45S590.61,174.7,590.58,174.78Z"/></g><path class="cls-3" d="M673.49,147.57a3.75,3.75,0,0,0,.49-.67c.29-.44.74-1.06,1.31-1.81s1.3-1.61,2.15-2.52a30.73,30.73,0,0,1,6.29-5.08,32.6,32.6,0,0,1,2.92-1.57c.85-.4,1.55-.71,2.05-.9a3.77,3.77,0,0,0,.75-.33,4.33,4.33,0,0,0-.8.22,19,19,0,0,0-2.1.8,27.46,27.46,0,0,0-3,1.53,29.76,29.76,0,0,0-3.37,2.33,31.47,31.47,0,0,0-3,2.8A25.92,25.92,0,0,0,675.1,145a21,21,0,0,0-1.23,1.89A4.28,4.28,0,0,0,673.49,147.57Z"/><path class="cls-3" d="M677.24,156.81c-.09,0,.79,9.33,2,20.82s2.21,20.8,2.3,20.79-.79-9.33-2-20.82S677.33,156.8,677.24,156.81Z"/><path class="cls-3" d="M614.85,139.53a17.42,17.42,0,0,0,.4-1.89,35.16,35.16,0,0,1,1.26-4.47,36.26,36.26,0,0,1,1.87-4.26c.55-1.06.93-1.69.89-1.72s-.13.13-.33.41-.45.68-.76,1.2a26.27,26.27,0,0,0-3.15,8.8,13.87,13.87,0,0,0-.18,1.41C614.83,139.34,614.82,139.53,614.85,139.53Z"/><path class="cls-3" d="M613.26,172.13a6,6,0,0,0,.15-.92c.08-.59.18-1.45.28-2.51.21-2.13.42-5.07.54-8.33s.1-6.21,0-8.34c0-1.07-.06-1.93-.1-2.53a5.34,5.34,0,0,0-.08-.92,4,4,0,0,0,0,.93c0,.65,0,1.5,0,2.52,0,2.13,0,5.08-.14,8.33s-.29,6.19-.44,8.32c-.07,1-.13,1.87-.17,2.52A5.45,5.45,0,0,0,613.26,172.13Z"/><g class="cls-5"><path class="cls-7" d="M679.46,177.45a1.42,1.42,0,0,0,.33-.06l.93-.22,3.42-.87c2.88-.74,6.86-1.75,11.28-2.82s8.41-2,11.32-2.65l3.43-.79.93-.22.32-.1-.33,0-1,.17c-.81.15-2,.39-3.45.69-2.92.6-6.93,1.49-11.35,2.56s-8.39,2.11-11.26,2.91c-1.44.39-2.6.72-3.39,1l-.92.29C679.56,177.39,679.45,177.44,679.46,177.45Z"/></g><path class="cls-8" d="M604.91,227.55c-3.72,0-7-2.68-8.8-6s-2.19-7.09-2.36-10.81a87.68,87.68,0,0,1,3.57-29.16l16.3,2.85-4.44,43.89Z"/><path class="cls-8" d="M704.4,195.58V176.5l-24.23,4.68L682,202.64a4.2,4.2,0,0,0-.27.78c-1.62,7-13,42.19-8.25,45,1.64,1,7.67-4.5,14-11A60.22,60.22,0,0,0,704.4,195.58Z"/><path class="cls-8" d="M625.05,69.15A22,22,0,0,1,647,48.87h1.14c12.29.69,18.56,11.52,17.53,23.78l-2.12,49.18a2.23,2.23,0,0,1-1.27,1.92l-27.59,12.94.86-25.81s-11.82-1.81-12-13.62C623.42,91.55,624.21,79.79,625.05,69.15Z"/><path class="cls-9" d="M635.4,110.86a28.66,28.66,0,0,0,15.47-4.56s-3.63,8.51-15.42,7.47Z"/><path class="cls-3" d="M627.91,78.4a1.69,1.69,0,0,0,1.63,1.7,1.63,1.63,0,0,0,1.74-1.53,1.69,1.69,0,0,0-1.63-1.7A1.62,1.62,0,0,0,627.91,78.4Z"/><path class="cls-3" d="M627.6,74.93c.21.22,1.48-.73,3.3-.73s3.15.91,3.34.68-.11-.49-.7-.91a4.57,4.57,0,0,0-2.67-.82,4.53,4.53,0,0,0-2.63.85C627.68,74.43,627.5,74.83,627.6,74.93Z"/><path class="cls-3" d="M644.94,78.84a1.67,1.67,0,0,0,1.63,1.69A1.61,1.61,0,0,0,648.31,79a1.69,1.69,0,0,0-1.63-1.7A1.62,1.62,0,0,0,644.94,78.84Z"/><path class="cls-3" d="M645.44,75.23c.21.22,1.49-.73,3.3-.73s3.15.91,3.35.69-.12-.5-.7-.92a4.61,4.61,0,0,0-2.68-.82,4.53,4.53,0,0,0-2.63.85C645.53,74.73,645.34,75.13,645.44,75.23Z"/><path class="cls-3" d="M638.88,88.71a11.47,11.47,0,0,0-3-.53c-.46-.05-.9-.14-1-.45a2.33,2.33,0,0,1,.31-1.38c.43-1.12.88-2.3,1.36-3.53,1.89-5,3.26-9.16,3.06-9.24s-1.9,3.94-3.8,9c-.45,1.24-.89,2.42-1.3,3.55a2.65,2.65,0,0,0-.24,1.82,1.17,1.17,0,0,0,.77.68,2.92,2.92,0,0,0,.78.11A12.43,12.43,0,0,0,638.88,88.71Z"/><path class="cls-4" d="M635.62,96.33a18.07,18.07,0,0,1,3.67-1.25,17.49,17.49,0,0,1,3.84-.51,17.44,17.44,0,0,1-3.67,1.24A18.12,18.12,0,0,1,635.62,96.33Z"/><path class="cls-3" d="M645,68.12c.18.49,2,.25,4.12.51s3.85.83,4.14.38c.12-.21-.18-.67-.87-1.15a6.86,6.86,0,0,0-3.07-1.07,7,7,0,0,0-3.23.39C645.27,67.5,644.88,67.88,645,68.12Z"/><path class="cls-3" d="M628.25,69.67c.33.42,1.57,0,3.08,0s2.78.27,3.07-.16c.13-.21-.08-.62-.63-1a4.27,4.27,0,0,0-2.5-.67,4.22,4.22,0,0,0-2.45.83C628.29,69.05,628.11,69.47,628.25,69.67Z"/><path class="cls-8" d="M663.85,81.4c.21-.09,8.12-2.42,7.87,5.66s-8.3,6.17-8.3,5.94S663.85,81.4,663.85,81.4Z"/><path class="cls-9" d="M665.27,90s.13.1.37.22a1.4,1.4,0,0,0,1.05,0c.86-.29,1.62-1.62,1.7-3.07a4.6,4.6,0,0,0-.33-2,1.62,1.62,0,0,0-1-1.11.73.73,0,0,0-.84.36c-.11.22-.07.39-.11.4s-.17-.14-.09-.47a.83.83,0,0,1,.33-.5,1.07,1.07,0,0,1,.78-.18A2,2,0,0,1,668.53,85a4.78,4.78,0,0,1,.43,2.27c-.11,1.62-1,3.12-2.16,3.43a1.51,1.51,0,0,1-1.28-.26C665.27,90.21,665.24,90,665.27,90Z"/><path class="cls-3" d="M658.56,57.39l-33.68.75a15.43,15.43,0,0,1,5-5.73,26.34,26.34,0,0,1,15.25-5.48c5.49-.1,16.67,6.59,20.65,10.38,3.19,3,3.17,5.65,3.17,5.65.5,4.37-1.94,9.33-2.91,13.62-.51,2.21-1.47,8.9-1.47,8.9h0c-1.86,0-2.55-1.49-2.27-3.32l.35-7.2a10.86,10.86,0,0,1-3.32-12.69C659.76,61.62,660.78,58.62,658.56,57.39Z"/><path class="cls-9" d="M651.49,82.94a.22.22,0,0,0,.24-.18.21.21,0,0,0-.16-.25.2.2,0,0,0-.23.17A.21.21,0,0,0,651.49,82.94Z"/><path class="cls-9" d="M648,82.16a.23.23,0,0,0,.24-.21.24.24,0,0,0-.14-.29.24.24,0,0,0-.25.21A.24.24,0,0,0,648,82.16Z"/><path class="cls-9" d="M645.68,82.1c.11,0,.22-.12.24-.3s0-.33-.16-.35-.21.12-.23.3S645.57,82.09,645.68,82.1Z"/><path class="cls-9" d="M649.79,85.12c.11,0,.2-.06.2-.13s-.09-.13-.2-.13-.2.06-.2.13S649.68,85.12,649.79,85.12Z"/><path class="cls-9" d="M646.61,84.38a.2.2,0,0,0,.21-.2.2.2,0,1,0-.39,0A.2.2,0,0,0,646.61,84.38Z"/><path class="cls-9" d="M630.05,82.44a.21.21,0,0,0,.24-.18.21.21,0,0,0-.15-.26.21.21,0,0,0-.24.18A.21.21,0,0,0,630.05,82.44Z"/><path class="cls-9" d="M627.69,82.23a.22.22,0,0,0,.22-.23.23.23,0,0,0-.18-.27.22.22,0,0,0-.22.23A.23.23,0,0,0,627.69,82.23Z"/><path class="cls-9" d="M632.14,82.5a.19.19,0,0,0,.23-.14.19.19,0,0,0-.16-.21.2.2,0,0,0-.24.14A.2.2,0,0,0,632.14,82.5Z"/><path class="cls-9" d="M630.39,84.86a.23.23,0,1,0-.09-.29A.21.21,0,0,0,630.39,84.86Z"/><path class="cls-9" d="M628.37,84.47a.19.19,0,0,0,.15-.22.19.19,0,0,0-.24-.11.19.19,0,0,0-.15.22A.2.2,0,0,0,628.37,84.47Z"/><path class="cls-3" d="M666,57.77A10,10,0,0,0,656,45.39a32.51,32.51,0,0,1-4.7.34c-2.92-.32-5.17-2.66-7.87-3.79a10.27,10.27,0,0,0-12.11,3.63c-1,1.53-1.69,3.42-3.26,4.39-1.36.83-3.07.76-4.6,1.22a7.5,7.5,0,0,0-5,7.42A8.83,8.83,0,0,0,623.82,66a10.76,10.76,0,0,0,9.3-.66c2.54-1.41,4.82-3.83,7.73-3.74s5.64,2.93,8.59,2.34c1.55-.31,2.74-1.5,3.88-2.6s2.44-2.22,4-2.31,2.4,2.07,1.84,3.54L666,57.77"/><path class="cls-2" d="M625.54,53.86s0,0,.05.12a2.4,2.4,0,0,0,.2.33,5.46,5.46,0,0,0,1,1.09,6,6,0,0,0,2,1.16,5.59,5.59,0,0,0,3,.18A6,6,0,0,0,635,54.91a40.37,40.37,0,0,0,2.33-3.55A4.61,4.61,0,0,1,639,49.89a4.67,4.67,0,0,1,2.23-.49,5,5,0,0,1,2.29.61,4.29,4.29,0,0,1,1.69,1.74c.41.74.7,1.55,1.19,2.27a2.77,2.77,0,0,0,2.16,1.31,4.24,4.24,0,0,0,2.35-.67,9.28,9.28,0,0,0,1.78-1.48A7.5,7.5,0,0,1,656,50.8a4.25,4.25,0,0,1,3.39.79,5.81,5.81,0,0,1,1.85,2.3,9.61,9.61,0,0,1,.7,2.17c.12.61.18,1.1.22,1.43a4,4,0,0,0,.07.5s0,0,0-.13,0-.21,0-.38a12.73,12.73,0,0,0-.17-1.45,8.82,8.82,0,0,0-.65-2.21,6,6,0,0,0-1.89-2.41,4.46,4.46,0,0,0-3.58-.88A7.74,7.74,0,0,0,652.47,53a8.24,8.24,0,0,1-1.73,1.43,4,4,0,0,1-2.17.63,2.47,2.47,0,0,1-1.91-1.18c-.46-.67-.75-1.48-1.17-2.25a4.59,4.59,0,0,0-1.82-1.86,5.33,5.33,0,0,0-2.44-.65,5,5,0,0,0-2.39.53,5.07,5.07,0,0,0-1.73,1.58,39.58,39.58,0,0,1-2.28,3.54,5.81,5.81,0,0,1-3.07,1.79,5.57,5.57,0,0,1-3-.13,6.11,6.11,0,0,1-2-1.08A7.11,7.11,0,0,1,625.54,53.86Z"/><path class="cls-2" d="M619.43,54a2.06,2.06,0,0,0-.13.65,5,5,0,0,0,.17,1.81,6.24,6.24,0,0,0,1.26,2.37,7.31,7.31,0,0,0,2.66,1.94,11,11,0,0,0,5.88.67,15.5,15.5,0,0,0,1.76-.36,2.38,2.38,0,0,0,.63-.2c0-.06-.93.17-2.42.33a11.49,11.49,0,0,1-5.72-.74A7.34,7.34,0,0,1,621,58.62a6.22,6.22,0,0,1-1.27-2.25A7.57,7.57,0,0,1,619.43,54Z"/><path class="cls-8" d="M602.62,222.44c-.08,0-1-7.32-1-7.7a63.73,63.73,0,0,1,.47-9.57c.6-5.07-7.35-5-7.94,0-.7,6-1.25,13.18.72,19,1.73,5.08,6.84,7.64,11.71,5.13C611.17,227,607.16,220.1,602.62,222.44Z"/><path class="cls-3" d="M696.65,269.7c0,.17-20.58-.35-46-1.17s-46-1.62-45.94-1.79,20.58.35,46,1.16S696.66,269.52,696.65,269.7Z"/><polygon class="cls-8" points="419.96 495.76 424.62 517.64 439.94 519.02 446.4 511.76 440.49 485.63 419.96 495.76"/><path class="cls-6" d="M449.45,509.33l.06,1.71s29.33,10.81,29.8,16.31l-57.59,1.36.33-19.18C430.7,513.29,439.67,513.53,449.45,509.33Z"/><g class="cls-10"><path class="cls-7" d="M428,515.52a2.36,2.36,0,0,0-1.56,2.72,2.27,2.27,0,0,0,2.69,1.57,2.49,2.49,0,0,0,1.64-2.89,2.35,2.35,0,0,0-3-1.33"/></g><path class="cls-3" d="M421.72,528.71l.08-4.61,55.16.38s3.11,1.53,2.82,4.52Z"/><path class="cls-3" d="M449.71,511.2c0,.28-1.41.44-2.77,1.38s-2.07,2.13-2.33,2,.12-1.74,1.79-2.85S449.77,510.94,449.71,511.2Z"/><path class="cls-3" d="M455.81,513.55c.07.27-1.14.78-2.06,2s-1.18,2.48-1.46,2.47-.49-1.59.69-3.07S455.8,513.29,455.81,513.55Z"/><path class="cls-3" d="M459.41,520.7c-.25.07-.68-1.33,0-2.88s2-2.21,2.11-2-.67,1.07-1.21,2.36S459.69,520.67,459.41,520.7Z"/><polygon class="cls-8" points="351.1 494.74 349.35 518.05 334.02 519.43 327.57 512.17 333.48 486.04 351.1 494.74"/><path class="cls-6" d="M324.52,509.74l-.06,1.71s-29.33,10.81-29.8,16.3l57.59,1.36-.33-19.18C343.27,513.7,334.29,513.93,324.52,509.74Z"/><g class="cls-10"><path class="cls-7" d="M345.94,515.92a2.36,2.36,0,0,1,1.57,2.72,2.27,2.27,0,0,1-2.69,1.58,2.48,2.48,0,0,1-1.64-2.89,2.35,2.35,0,0,1,3-1.33"/></g><path class="cls-3" d="M352.25,529.11l-.08-4.61-55.16.38s-3.11,1.54-2.82,4.53Z"/><path class="cls-3" d="M324.26,511.6c0,.29,1.4.45,2.77,1.38s2.07,2.14,2.33,2-.12-1.74-1.79-2.84S324.2,511.34,324.26,511.6Z"/><path class="cls-3" d="M318.16,514c-.07.27,1.13.78,2.06,2s1.17,2.48,1.45,2.47.5-1.59-.68-3.08S318.17,513.69,318.16,514Z"/><path class="cls-3" d="M314.56,521.11c.25.06.67-1.33,0-2.89s-2-2.2-2.11-2,.67,1.07,1.21,2.36S314.28,521.07,314.56,521.11Z"/><path class="cls-3" d="M368,97a2.13,2.13,0,0,1,.72-.94,8.1,8.1,0,0,0,2.73-5.82,6.31,6.31,0,0,0-3.07-5.5c2.83-1.88,3.1-6.4.89-9s-6.19-3.22-9.37-2a4.84,4.84,0,0,0-2.1-5.38,9.68,9.68,0,0,0-6-1.25c-2.79.18-5.91,1.3-6.87,3.92-.56-1.62-2.5-2.32-4.21-2.32a9.37,9.37,0,0,0-9,8.66,8.47,8.47,0,0,0-5.13-.71,4,4,0,0,0-3.21,3.66c-1.1-1.34-3.09-1.5-4.8-1.24a6.32,6.32,0,0,0-3.4,1.45,3.08,3.08,0,0,0-.82,3.41,4.88,4.88,0,0,0-2,9.52,6.19,6.19,0,0,0,2.15,10.35,1.71,1.71,0,0,0-.48,2.64,3.34,3.34,0,0,0,2.9.88l1.41,10.79a22.42,22.42,0,0,0,1.64,6.79,7.49,7.49,0,0,0,5.16,4.36L366.89,110a11,11,0,0,0,1.42-11.71A2.1,2.1,0,0,1,368,97Z"/><path class="cls-8" d="M365.46,99.64c-1.6-8.64-12-16.19-20.59-14.22L319.55,94l.66,4.67,6.74,56.7c1.08,9,7.11,16,16.16,15.16h0a16.76,16.76,0,0,0,15-19.38l-.78-4.84s10.89-3.19,11.44-18C369,121,367.24,109.24,365.46,99.64Z"/><path class="cls-3" d="M361.46,113a1.86,1.86,0,0,1-2.19,1.42,1.79,1.79,0,0,1-1.49-2.08,1.88,1.88,0,0,1,2.19-1.43A1.78,1.78,0,0,1,361.46,113Z"/><path class="cls-3" d="M363.23,108.33c-.29.18-1.43-1.17-3.39-1.62s-3.63.18-3.79-.11c-.08-.13.25-.51,1-.82a5.16,5.16,0,0,1,3.1-.2,4.9,4.9,0,0,1,2.63,1.59C363.26,107.77,363.36,108.25,363.23,108.33Z"/><path class="cls-3" d="M346.21,112.63a1.88,1.88,0,0,1-.92,2.45,1.79,1.79,0,0,1-2.44-.8,1.87,1.87,0,0,1,.91-2.44A1.8,1.8,0,0,1,346.21,112.63Z"/><path class="cls-3" d="M343.22,108.61c-.12.32-1.84-.09-3.69.71s-2.81,2.31-3.11,2.17c-.14-.06-.1-.56.31-1.24a5.13,5.13,0,0,1,2.37-2,5.05,5.05,0,0,1,3.06-.28C342.91,108.15,343.28,108.47,343.22,108.61Z"/><path class="cls-3" d="M353.07,122.83a13.57,13.57,0,0,1,3.18-1c.51-.12,1-.28,1-.64a2.59,2.59,0,0,0-.52-1.47l-2-3.71c-2.77-5.29-4.84-9.66-4.63-9.77s2.64,4.09,5.41,9.38l1.92,3.74a2.91,2.91,0,0,1,.51,2,1.28,1.28,0,0,1-.75.85,3.63,3.63,0,0,1-.85.23A13.5,13.5,0,0,1,353.07,122.83Z"/><path class="cls-9" d="M357.33,146.35a37.14,37.14,0,0,1-20.06-2.82s6.39,9.51,20.74,6.39Z"/><path class="cls-9" d="M352.81,127.76a3.61,3.61,0,0,0-3.4-1,3.3,3.3,0,0,0-2.12,1.5,2.1,2.1,0,0,0,.13,2.4,2.43,2.43,0,0,0,2.7.35,7.7,7.7,0,0,0,2.38-1.84,2.45,2.45,0,0,0,.5-.66.7.7,0,0,0-.1-.75"/><path class="cls-2" d="M345.28,129.23a22.63,22.63,0,0,1,9.46-.22,22.63,22.63,0,0,1-9.46.22Z"/><path class="cls-2" d="M364.27,118.33c1.71-.43,3.81-1.08,4.37-1.81.82-1.07,1.32-4.73,1.69-8.16.05-.44.08-.74.1-.82l-.7-.19c0,.09,0,.24-.12.93-.2,1.84-.74,6.74-1.55,7.8-1,1.25-10.18,3-11.13,2.51-.6-.38-2.46-4.46-3.59-7.24l-.1-.25-3.72.37,0,.26c-.46,2-2,7.57-3.46,8.76-1.86,1.48-9.88,1.93-10.6,1.17s-2.69-5.42-3.94-8.46l-.11-.27-11.23,1.94.12.71,10.66-1.84c.62,1.51,3.14,7.53,4,8.42,1.14,1.21,9.69.4,11.58-1.1s3.33-7.56,3.64-8.92l2.66-.26c.65,1.56,2.81,6.72,3.77,7.32s5.51-.37,6-.48S363.61,118.5,364.27,118.33Z"/><path class="cls-2" d="M349.48,112.76l.55-1.34c-5.28-2.19-14.15-2.23-19.25,1.52l.86,1.17C336.18,110.77,344.53,110.71,349.48,112.76Z"/><path class="cls-2" d="M370.08,108.34l.36-1.41c-6.26-1.6-13.8.17-17.91,4.2l1,1C357.26,108.53,364.37,106.88,370.08,108.34Z"/><path class="cls-3" d="M343.85,102.06c-.13.57-2.16.55-4.48,1.12s-4.13,1.44-4.5,1c-.17-.22.1-.77.8-1.39a7.6,7.6,0,0,1,3.24-1.59,7.5,7.5,0,0,1,3.6,0C343.42,101.42,343.9,101.79,343.85,102.06Z"/><path class="cls-3" d="M362.2,100.4c-.3.5-1.73.19-3.39.37s-3,.68-3.41.24c-.17-.21,0-.69.56-1.2a4.77,4.77,0,0,1,2.66-1.08,4.71,4.71,0,0,1,2.82.59C362.08,99.71,362.33,100.16,362.2,100.4Z"/><path class="cls-3" d="M325.47,112.13a31.32,31.32,0,0,1-.64,8.85c-.27,1.23-.77,2.62-2,3a2.69,2.69,0,0,1-3-1.2,7.13,7.13,0,0,1-.94-3.28,92.23,92.23,0,0,1-.21-12.22"/><path class="cls-8" d="M322.73,115.93c-.19-.07-7.63-1.67-6.85,5.75s8.06,5.1,8.05,4.89S322.73,115.93,322.73,115.93Z"/><path class="cls-9" d="M321.37,124s-.12.1-.32.23a1.4,1.4,0,0,1-1,.12,3.24,3.24,0,0,1-1.78-2.72,4.29,4.29,0,0,1,.17-1.88,1.5,1.5,0,0,1,.87-1.1.67.67,0,0,1,.8.28c.12.19.09.35.13.35s.14-.14.05-.44a.79.79,0,0,0-.34-.43.94.94,0,0,0-.73-.11,1.79,1.79,0,0,0-1.23,1.29,4.43,4.43,0,0,0-.23,2.11c.2,1.49,1.11,2.81,2.22,3a1.43,1.43,0,0,0,1.16-.32C321.38,124.18,321.4,124,321.37,124Z"/><path class="cls-3" d="M357.45,83.65a7.09,7.09,0,0,1-8.81,9.81,2.73,2.73,0,0,1,.36,3.63A5.2,5.2,0,0,1,345.58,99,9.85,9.85,0,0,1,337.65,97a7.19,7.19,0,0,1-9.46,6.77,6.58,6.58,0,1,1-10.09,7.59,7.36,7.36,0,0,1-4.25-10.91,4.45,4.45,0,0,1-3.2-3,9,9,0,0,1-.08-4.57,14.06,14.06,0,0,1,5.93-9.28c3.2-2,7.66-2.14,10.62.2a2.07,2.07,0,0,0,1.11.58c.58,0,1-.49,1.38-1,1.53-2.08,3.13-4.31,5.52-5.29a7,7,0,0,1,8.22,2.6c1.37-3.19,4.84-5.52,8.26-5s6.1,4.39,4.92,7.65"/><path class="cls-7" d="M337.11,95.54l.24,0,.69,0a10.59,10.59,0,0,0,2.62-.33,7.27,7.27,0,0,0,1.77-.71,5.4,5.4,0,0,0,1.71-1.46,5.32,5.32,0,0,0,1-2.35,4,4,0,0,0-.56-2.79l-.21.24a9.92,9.92,0,0,0,6.13,1.07,9.64,9.64,0,0,0,3.28-1.1,6,6,0,0,0,1.45-1.09,3.44,3.44,0,0,0,.88-1.65,5,5,0,0,0-.08-2.17,13.8,13.8,0,0,0-.66-2,6.69,6.69,0,0,0-1-1.79,2.35,2.35,0,0,0-1.76-1l0,.36a5.89,5.89,0,0,0,3.79-.62,6.36,6.36,0,0,0,2.55-2.4,5.39,5.39,0,0,0,.74-3,6.25,6.25,0,0,0-3.45-5.16,3.81,3.81,0,0,0-1.29-.39,10.87,10.87,0,0,1,1.24.5,6.22,6.22,0,0,1,2.55,2.59,6,6,0,0,1,.68,2.48,5,5,0,0,1-.73,2.85A6,6,0,0,1,356.2,78a5.54,5.54,0,0,1-3.56.57l0,.35a2,2,0,0,1,1.49.84,6.56,6.56,0,0,1,.93,1.69,7.06,7.06,0,0,1,.72,3.92,3.9,3.9,0,0,1-2.15,2.5,9.39,9.39,0,0,1-3.15,1.06,9.54,9.54,0,0,1-5.91-1l-.59-.31.37.55a3.6,3.6,0,0,1,.54,2.55,5.06,5.06,0,0,1-.93,2.24,5.11,5.11,0,0,1-1.61,1.42,7,7,0,0,1-1.7.73,11.6,11.6,0,0,1-2.57.41A6.71,6.71,0,0,0,337.11,95.54Z"/><path class="cls-7" d="M359.59,89.52s.17.1.52.17a3.83,3.83,0,0,0,1.51,0,3.73,3.73,0,0,0,2-1.07,1.82,1.82,0,0,0,.53-1.3,1.39,1.39,0,0,0-.83-1.28l-.1.36.13,0a5.86,5.86,0,0,0,4.78-1.4,4.85,4.85,0,0,0,1-1.17,1.46,1.46,0,0,0,.23-.52A10.34,10.34,0,0,1,368,84.8,6,6,0,0,1,363.41,86l-.12,0-1.83-.27,1.73.63a1.05,1.05,0,0,1,.59.95,1.46,1.46,0,0,1-.41,1.05,3.71,3.71,0,0,1-1.81,1A6.75,6.75,0,0,1,359.59,89.52Z"/><path class="cls-9" d="M345.67,125.9c.05,0,.12-.15.27-.35a2.27,2.27,0,0,1,.77-.6c.71-.32,1.42-.41,1.39-.54a2.14,2.14,0,0,0-1.56.2,1.76,1.76,0,0,0-.83.81C345.59,125.7,345.62,125.89,345.67,125.9Z"/><path class="cls-9" d="M344.4,127.15c.1,0,.19-.58.4-1.25s.45-1.19.36-1.25-.5.41-.72,1.14S344.29,127.15,344.4,127.15Z"/><path class="cls-3" d="M314.07,260.3s-6,10.56-10.72,27.6-10,25.61-8.11,57c1,16,14.88,59.56,18.08,74.88,2.63,12.6,10.87,71.84,15,87.5h23.92L354.71,332s38,102.33,42.89,114.16,21.74,58.69,21.74,58.69l29.74-7.56s-18.17-83.88-22.69-104.76-16.81-79.81-22-97.56-10.17-36.45-10.17-36.45Z"/><path class="cls-2" d="M317,291.35s0,.32-.24.87a13.87,13.87,0,0,1-1.08,2.21,19.29,19.29,0,0,1-13,9,12.56,12.56,0,0,1-2.45.23,2.5,2.5,0,0,1-.9-.07c0-.12,1.28-.16,3.26-.61a21.12,21.12,0,0,0,12.71-8.81C316.39,292.48,316.87,291.3,317,291.35Z"/><path class="cls-2" d="M406.79,304.09a2.43,2.43,0,0,1-.87.24,13.36,13.36,0,0,1-2.46.26,16.2,16.2,0,0,1-3.67-.35,18,18,0,0,1-4.25-1.55,20.47,20.47,0,0,1-6.24-5.23,11,11,0,0,1-1.85-2.82c.09-.06.83,1,2.2,2.51a23.22,23.22,0,0,0,6.2,5,17.73,17.73,0,0,0,7.61,2C405.51,304.18,406.78,304,406.79,304.09Z"/><path class="cls-2" d="M355.09,294.19a5.55,5.55,0,0,1,.26,1.41c.13.92.27,2.25.41,3.89.29,3.29.52,7.86.47,12.9s-.35,9.6-.7,12.89c-.17,1.64-.33,3-.48,3.88a6,6,0,0,1-.28,1.41,5.91,5.91,0,0,1,0-1.44c.07-1.06.16-2.36.27-3.89.22-3.29.46-7.83.5-12.86s-.11-9.57-.28-12.86c-.07-1.53-.14-2.83-.2-3.89A6.68,6.68,0,0,1,355.09,294.19Z"/><path class="cls-2" d="M403.37,291.61s-12-81.56-13.35-92.35L384.93,158,364.44,157l-.63-7.88-40.71,2.58V159l-21.66,9.86,3,37.71s2.55,2.86,6.7,23.06-9.72,59.53-9.72,59.53Z"/><path class="cls-3" d="M328.3,160.92c-.19,0-.33-2.1-.33-4.68s.14-4.68.33-4.68.33,2.09.33,4.68S328.48,160.92,328.3,160.92Z"/><path class="cls-3" d="M337.53,161.44c-.19,0-.33-2.36-.33-5.27s.14-5.26.33-5.26.33,2.35.33,5.26S337.71,161.44,337.53,161.44Z"/><path class="cls-3" d="M347,160.27c-.19,0-.33-2.21-.33-4.94s.14-4.94.33-4.94.33,2.21.33,4.94S347.2,160.27,347,160.27Z"/><path class="cls-3" d="M355.73,158.06c-.19,0-.33-1.92-.33-4.29s.14-4.29.33-4.29.33,1.92.33,4.29S355.91,158.06,355.73,158.06Z"/><path class="cls-3" d="M417.31,232.14a5.17,5.17,0,0,1-.32-2.22,15.28,15.28,0,0,1,3.69-10,5.41,5.41,0,0,1,1.69-1.48c.16.14-2.41,2.48-3.82,6.39S417.52,232.14,417.31,232.14Z"/><g class="cls-11"><path d="M312.89,218.62c-.53-3-1.89-5.85-2.57-8.85L307.39,214c1.11,4.69,2.07,8.47,3.18,13.16C312.94,225.15,313.43,221.65,312.89,218.62Z"/></g><path class="cls-2" d="M419.93,232.58a46.47,46.47,0,0,0-2.43-26.12s-10.5-26.62-16-36.34C394.19,157.35,385,158,385,158L373.8,174.57l11.83,25.34s7.7,14.37,15.2,26.39c-2.95,13.33-17.5,19.64-15.18,33.11.31,1.83,7.63,22.1,9.55,14.56l19.9-30.79C417.54,241.23,419,237.06,419.93,232.58Z"/><path class="cls-3" d="M387.84,181.93c-.2,0-.8-2.87-2-6.3s-2.56-6.06-2.39-6.16,1.79,2.45,3,5.94S388,181.9,387.84,181.93Z"/><path class="cls-2" d="M292.58,236.9l15.82-24.38h0l1.42-2.18h0L312,207,303,168.12s-8.29,4.72-12.66,10.8-9.69,17.27-9.69,17.27-15.48,35.41-18,40.69-6.66,15.07,0,20.55,51.19,5.67,51.19,5.67l3-22.38Z"/><path class="cls-3" d="M312.08,203.05c-.11,0,.23-1.66.38-4.33a34.44,34.44,0,0,0-5.08-19.91c-1.41-2.28-2.5-3.55-2.4-3.62s.33.26.83.82a21.55,21.55,0,0,1,2,2.55,31.17,31.17,0,0,1,4.31,9.65,31.53,31.53,0,0,1,.85,10.54,22.81,22.81,0,0,1-.51,3.17A3.57,3.57,0,0,1,312.08,203.05Z"/><path class="cls-12" d="M299.68,204.3a14.15,14.15,0,0,1,8.63-10.39c14.81-6.23,31.28.78,45.93,7.52,45.13,20.78,16.29,44.35,6.17,42.19-11.31-3.2-29.16-6.52-40.1-10.58-6.76-3.48-8.6-9.5-11.75-15.57C301,214.77,298.75,209.62,299.68,204.3Z"/><path class="cls-2" d="M299.68,204.3a14.15,14.15,0,0,1,8.63-10.39c14.81-6.23,31.28.78,45.93,7.52,45.13,20.78,16.29,44.35,6.17,42.19-11.31-3.2-29.16-6.52-40.1-10.58-6.76-3.48-8.6-9.5-11.75-15.57C301,214.77,298.75,209.62,299.68,204.3Z"/><path class="cls-13" d="M344.82,210.85c-14.27-6.57-30.29-13.39-44.8-8a11.14,11.14,0,0,0-.34,1.41c-.93,5.32,1.35,10.47,8.88,13.17,3.15,6.07,5,12.09,11.75,15.57,10.94,4.06,28.79,7.38,40.1,10.58,2,.43,4.82-.17,7.61-1.58C371.89,233.7,368.78,221.88,344.82,210.85Z"/><path class="cls-14" d="M469.85,355.47l-5.21,12.43a2.39,2.39,0,0,1-3.13,1.29L260,284.81a2.39,2.39,0,0,1-1.29-3.13l5.21-12.43a2.39,2.39,0,0,1,3.13-1.28l201.5,84.37A2.39,2.39,0,0,1,469.85,355.47Z"/><path class="cls-15" d="M833,281.3H470.7L307.66,211a19.38,19.38,0,1,0-15.35,35.59L460.9,319.3a19.17,19.17,0,0,0,8.31,1.55v10.34H833a25,25,0,0,0,24.95-24.95h0A25,25,0,0,0,833,281.3Z"/><path class="cls-16" d="M833,331.19h.33c21.81-.28,23.42-32.82,1.72-35-.85-.08-1.7-.13-2.57-.13H470.17l-163-70.32a19.24,19.24,0,0,0-14-.51c-9.75,3.39-10.41,17.16-1,21.33l.15.06L460.9,319.3a19.17,19.17,0,0,0,8.31,1.55v10.34Z"/><rect class="cls-14" x="598.48" y="280.24" width="5.44" height="256" transform="translate(34.8 863.53) rotate(-72.97)"/><rect class="cls-14" x="598.48" y="280.24" width="5.44" height="256" transform="translate(386.91 1102.63) rotate(-107.03)"/><rect class="cls-17" x="269.44" y="357.16" width="604.82" height="22.26"/><rect class="cls-14" x="312.83" y="437.07" width="543.36" height="15.41"/><rect class="cls-14" x="405.43" y="379.42" width="10.27" height="57.65"/><rect class="cls-14" x="779.72" y="379.42" width="10.27" height="57.65"/><circle class="cls-18" cx="343.48" cy="506.57" r="21"/><path d="M354.7,506.57a11.23,11.23,0,1,1-11.22-11.22A11.22,11.22,0,0,1,354.7,506.57Z"/><path class="cls-6" d="M317,474.21s-.81,10.46,10.37,16.14,11.18,11.17,11.18,11.17-1.08,8.48,5.05,8.66,6.49-7.76,5.95-14.25-5.41-13.16-6.4-14.78-.37-6.94-.37-6.94Z"/><rect class="cls-18" x="312.83" y="469.25" width="32.09" height="7.39"/><path class="cls-18" d="M861.56,506.57a21,21,0,1,1-21-21A21,21,0,0,1,861.56,506.57Z"/><path d="M852.18,506.57A11.23,11.23,0,1,1,841,495.35,11.22,11.22,0,0,1,852.18,506.57Z"/><path class="cls-6" d="M814.06,474.21s-.81,10.46,10.36,16.14,11.18,11.17,11.18,11.17-1.08,8.48,5,8.66,5.66-8.36,5.12-14.85-4.58-12.56-5.57-14.18-.36-6.94-.36-6.94Z"/><rect class="cls-18" x="809.91" y="469.25" width="32.09" height="7.39"/><rect class="cls-14" x="822.99" y="452.48" width="4.98" height="16.77"/><path class="cls-2" d="M479.63,326.91,285.51,243.62,282.34,252a21.34,21.34,0,0,0,12.38,27.51l184.91,77.69H829.88a21.33,21.33,0,0,0,21.33-21.34v-8.91Z"/><path class="cls-19" d="M477.87,343.61H849.74a21.45,21.45,0,0,0,1.47-7.79v-8.91H479.63L285.51,243.62,282.34,252a21.24,21.24,0,0,0-1.34,8.87Z"/><rect class="cls-14" x="867.8" y="264.12" width="18.27" height="120.15" rx="2.75"/><path class="cls-17" d="M465.49,314.06h21.14a4.54,4.54,0,0,1,4.54,4.54v60.81a0,0,0,0,1,0,0H460.94a0,0,0,0,1,0,0V318.61A4.54,4.54,0,0,1,465.49,314.06Z"/><circle class="cls-14" cx="476.06" cy="331.19" r="10.95"/><rect class="cls-20" x="460.94" y="346.74" width="30.23" height="10.42"/><rect class="cls-3" y="526.86" width="1154.24" height="5.13"/><path class="cls-3" d="M380.9,183.16a15.53,15.53,0,0,1,14,3.39c1.81,1.61,3.6,3.81,6,3.68s4.21-2.6,6.6-2.65c2.83-.05,4.56,3.11,7.13,4.28a5.6,5.6,0,0,0,6.91-2.21,22,22,0,0,1-2.82,11.45l-4.93.05a4,4,0,0,1,3.75,3.19,9.09,9.09,0,0,1-.6,5.23,27.7,27.7,0,0,1-17.84,16.92"/><path class="cls-3" d="M370.37,232.24c-1.11-1.6-1.86-3.45-3.13-4.93-2.73-3.18-7.61-4.38-9.34-8.2-1.23-2.71-.43-5.89.6-8.69s2.29-5.68,1.91-8.64c-.27-2.17-1.42-4.15-1.7-6.32-.4-3.09,1-6.14,2.72-8.73a18.64,18.64,0,0,1,6.88-6.53,10.24,10.24,0,0,1,9.24-.22c1.38.73,2.55,1.86,4,2.37,1.62.56,3.4.31,5.09.61a8.2,8.2,0,0,1,6.59,7.59l9.25,34.61c-1.41,4.71-9.84,12.32-14.71,13.09S373.16,236.29,370.37,232.24Z"/><path class="cls-8" d="M390,188.83c-5.66-3.17-14.67-3.89-17.6,1.91l-6.67,19.7a3.79,3.79,0,0,0,1.39,4.94l42,24.6,0,.13s14,3.62,17.75-9.83c.74-2.67-1-5.26-3.23-7.32l.09-.1-.85-.57a32.09,32.09,0,0,0-5.55-3.71h0c-3.27-2.17-4.63-3-4.6-3s3.35-7.7-4.79-15C403.87,196.92,396.33,192.36,390,188.83Z"/><path class="cls-3" d="M396.11,196.17a1.33,1.33,0,0,1,.37,1.82,1.27,1.27,0,0,1-1.76.45,1.33,1.33,0,0,1-.38-1.82A1.27,1.27,0,0,1,396.11,196.17Z"/><path class="cls-3" d="M394.39,192.75c.05.23-1.14.64-1.95,1.82s-.82,2.45-1.05,2.48-.27-.3-.28-.87a3.6,3.6,0,0,1,.66-2.1,3.45,3.45,0,0,1,1.73-1.33C394,192.58,394.37,192.63,394.39,192.75Z"/><path class="cls-3" d="M388.05,207.15a1.33,1.33,0,0,1,.38,1.82,1.27,1.27,0,0,1-1.77.45,1.34,1.34,0,0,1-.38-1.82A1.27,1.27,0,0,1,388.05,207.15Z"/><path class="cls-3" d="M386.61,204.48c0,.24-1.14.65-1.95,1.83s-.82,2.45-1.05,2.48-.27-.3-.29-.87a3.67,3.67,0,0,1,.67-2.11,3.44,3.44,0,0,1,1.73-1.32C386.24,204.32,386.59,204.37,386.61,204.48Z"/><path class="cls-3" d="M398.3,206.24a9.53,9.53,0,0,1,1-2.15c.18-.32.31-.65.14-.84a1.9,1.9,0,0,0-1-.42l-2.9-.69c-4.12-1-7.42-2-7.38-2.14s3.41.53,7.53,1.54l2.9.74a2.15,2.15,0,0,1,1.28.66.92.92,0,0,1,.1.8,2.24,2.24,0,0,1-.28.56A8.86,8.86,0,0,1,398.3,206.24Z"/><path class="cls-9" d="M401,208.36a3.51,3.51,0,0,0-2.92,1.51,2.31,2.31,0,0,0-.23,2.13,2.11,2.11,0,0,0,3.94-.15,5.31,5.31,0,0,0,.12-2.48,1.76,1.76,0,0,0-.18-.67.74.74,0,0,0-.63-.37"/><path class="cls-3" d="M402.78,209.86c0,.23-1.56-.12-2.93.93s-1.58,2.71-1.79,2.67-.21-.43-.08-1.11a3.86,3.86,0,0,1,1.41-2.25,3.39,3.39,0,0,1,2.44-.69C402.47,209.5,402.81,209.76,402.78,209.86Z"/><path class="cls-3" d="M379.68,208.05c-.33-.26.3-1.56.64-3.22s.33-3.09.73-3.19c.19,0,.46.3.65.93a5.69,5.69,0,0,1-1.05,4.89C380.22,208,379.83,208.16,379.68,208.05Z"/><path class="cls-3" d="M387.35,193.65c-.07-.4.86-.89,1.69-1.74s1.34-1.74,1.75-1.68c.19,0,.32.38.24.91a3.53,3.53,0,0,1-2.77,2.76C387.72,194,387.39,193.84,387.35,193.65Z"/><path class="cls-3" d="M364.35,214.84c-.62-1.72-.16-3.62.35-5.37a99.38,99.38,0,0,1,9.2-21.69c1.87.2,3.06,2.24,3.1,4.11s-.74,3.65-1.28,5.45-.83,3.84.11,5.46S379,205.33,380,207c1.86,2.88,0,7.09,1.84,10,1.42,2.17,4.35,2.62,6.61,3.9a9.27,9.27,0,0,1,2.88,13.63L368.3,218.94C366.7,217.86,365,216.66,364.35,214.84Z"/><path class="cls-3" d="M371.66,243.85c-.73-1.82,0-4.1-1.09-5.7-1.66-2.33-5.54-2.53-6.66-5.16-1-2.4,1.36-5.35.25-7.71-.88-1.84-2.8-1.95-3.85-3.2s-.79-3.88.34-5.05l22.24,1c5.6,2.79,8.92,3.83,11,7.06a29.14,29.14,0,0,0,3.57,5.17c1.49,1.49,7.22,5.49,12.08,2.35-4.11,6.37,18.31,26,11.3,28.94-2.48,1-9.05-3.57-12.21,5.34-3,8.4-23.54-1.68-25.65-10.87C380.74,246.42,373.53,248.51,371.66,243.85Z"/><path class="cls-2" d="M383,243.72a3.46,3.46,0,0,0,.61-.55,6.84,6.84,0,0,0,1.3-2,7.36,7.36,0,0,0,.58-3.69,7.38,7.38,0,0,0-4.66-5.95,11.59,11.59,0,0,0-3.09-.59,11.46,11.46,0,0,1-3.2-.61,3.75,3.75,0,0,1-2.3-2.27c-.32-1.1.28-2.26.62-3.49a3.4,3.4,0,0,0,0-2,3.33,3.33,0,0,0-1.26-1.62,22.29,22.29,0,0,0-3.65-1.7,4.39,4.39,0,0,1-1.55-1.16,2.72,2.72,0,0,1-.56-1.8,7.54,7.54,0,0,1,1.51-3.66,8.24,8.24,0,0,0,1.45-3.79,7.33,7.33,0,0,0-.69-3.88,11.93,11.93,0,0,0-2.29-3,17.68,17.68,0,0,1-2.25-2.65,7.68,7.68,0,0,1-1.06-3,8.5,8.5,0,0,1,4.9-8.73,10.57,10.57,0,0,1,3.53-1,13.33,13.33,0,0,1,3.14.14l-.2-.07a4.42,4.42,0,0,0-.6-.12,9.79,9.79,0,0,0-2.35-.12,10.18,10.18,0,0,0-3.62.93,8.83,8.83,0,0,0-3.77,3.18,9,9,0,0,0-1.39,5.81,7.82,7.82,0,0,0,1.09,3.2,17.36,17.36,0,0,0,2.29,2.73,11.29,11.29,0,0,1,2.2,2.88,6.94,6.94,0,0,1,.64,3.64,7.85,7.85,0,0,1-1.39,3.61,7.93,7.93,0,0,0-1.58,3.88,3.19,3.19,0,0,0,.66,2.08,4.66,4.66,0,0,0,1.69,1.28,22.16,22.16,0,0,1,3.6,1.66,3,3,0,0,1,1.11,1.4,3.05,3.05,0,0,1,0,1.77c-.15.59-.39,1.17-.55,1.79a3.54,3.54,0,0,0-.05,1.91,4.1,4.1,0,0,0,2.55,2.51,11.29,11.29,0,0,0,3.31.62,12.28,12.28,0,0,1,3,.54,7.09,7.09,0,0,1,2.36,1.47,7,7,0,0,1,2.18,4.2,7.22,7.22,0,0,1-.5,3.59A8.17,8.17,0,0,1,383,243.72Z"/><path class="cls-2" d="M378.18,215.43a.56.56,0,0,0,0,.12,7.91,7.91,0,0,0,1.87,2.81,16.93,16.93,0,0,0,2.91,2.06,11.58,11.58,0,0,1,2.86,2.22A6.92,6.92,0,0,1,387.4,226a7.84,7.84,0,0,1-.42,3.84,7.84,7.84,0,0,0-.53,4.15,3.08,3.08,0,0,0,1.16,1.84,4.65,4.65,0,0,0,2,.81,21.82,21.82,0,0,1,3.9.69,2.63,2.63,0,0,1,1.85,2.78c0,.62-.07,1.24-.07,1.88a3.6,3.6,0,0,0,.44,1.86,4.12,4.12,0,0,0,3.1,1.78,11.2,11.2,0,0,0,3.36-.25,11.9,11.9,0,0,1,3-.24,7.26,7.26,0,0,1,2.66.82,6.94,6.94,0,0,1,3.18,3.51,7.25,7.25,0,0,1,.43,3.59,8.15,8.15,0,0,1-1,2.95,3.34,3.34,0,0,0,.45-.68,6.88,6.88,0,0,0,.75-2.24,7.21,7.21,0,0,0-.38-3.71A7.12,7.12,0,0,0,408,245.7a7.4,7.4,0,0,0-2.77-.89,12.41,12.41,0,0,0-3.14.22,11,11,0,0,1-3.24.23,3.77,3.77,0,0,1-2.81-1.61c-.59-1-.31-2.25-.29-3.53a3.49,3.49,0,0,0-.49-1.94,3.32,3.32,0,0,0-1.63-1.24,21.26,21.26,0,0,0-4-.72,4.35,4.35,0,0,1-1.79-.73,2.69,2.69,0,0,1-1-1.59,7.65,7.65,0,0,1,.52-3.93,8.17,8.17,0,0,0,.44-4,7.4,7.4,0,0,0-1.65-3.57,12.17,12.17,0,0,0-3-2.3,17.27,17.27,0,0,1-2.86-2,7.45,7.45,0,0,1-1.62-2.3C378.54,215.67,378.36,215.55,378.18,215.43Z"/><path class="cls-2" d="M395.67,255.92a11.42,11.42,0,0,1-3.25.22,3.78,3.78,0,0,1-2.81-1.6c-.59-1-.31-2.26-.29-3.54a3.41,3.41,0,0,0-.49-1.94,1.67,1.67,0,0,0-.12-.16l-.63-.05a2.1,2.1,0,0,1,.4.44,3.13,3.13,0,0,1,.42,1.71c0,.62-.08,1.24-.08,1.88a3.57,3.57,0,0,0,.44,1.86,4.14,4.14,0,0,0,3.11,1.78,11.6,11.6,0,0,0,3.36-.24,11.43,11.43,0,0,1,3-.25,7.21,7.21,0,0,1,2.65.82,6.94,6.94,0,0,1,3.18,3.51A7.15,7.15,0,0,1,405,264a7.92,7.92,0,0,1-1,2.95,3.34,3.34,0,0,0,.45-.68,6.88,6.88,0,0,0,.75-2.24,7.31,7.31,0,0,0-.37-3.71,7.36,7.36,0,0,0-6-4.57A11.48,11.48,0,0,0,395.67,255.92Z"/><path class="cls-6" d="M406.59,236.15a14.21,14.21,0,0,0-.77,7.87,24.21,24.21,0,0,0,5.17,9.71c2.95,3.4,17.78,11.41,22,13.89s20.6,10.73,23.54,11.76,6.32,4.19,8.14,6.91c3.27,4.87,7.61,2.85,7.61,2.85l26.26-45.22-1.78-.81c-3.11-1.42-5.45-4.27-8.83-4.77A32.59,32.59,0,0,1,474.07,233c-7.16-5-11-10.27-16.12-11.47-7.88-1.82-27.07-3.8-38.47.76,0,0-5.31,5.78-6.72,7C409.56,231.91,407.86,233.33,406.59,236.15Z"/><path class="cls-6" d="M477.25,237.59,464.93,251.1l-34-18.74s-14.39-6.69-19.69-.62L422,260.23c10.84,5.17,29.84,17.52,40.15,17.23s19.05-1.34,25.4-13.31c2.95-5.56,7.74-14.09,12-21.65A78.79,78.79,0,0,1,477.25,237.59Z"/><path class="cls-3" d="M465.11,251.1c.13,0,.78,1.59,2,3.35s2.5,3,2.41,3.09a8.75,8.75,0,0,1-2.78-2.83A8.64,8.64,0,0,1,465.11,251.1Z"/><g class="cls-5"><path d="M429.37,231.79c14.08,3.13,33,15.46,44,12.1l-8.47,7.21a53.84,53.84,0,0,0-6.36-3.86c-9.77-4.78-19.32-10.3-29.2-15.45"/></g><path class="cls-3" d="M425.43,230.4c.52.15,1.28.39,2.27.76a37.87,37.87,0,0,1,3.54,1.53c1.38.66,2.9,1.55,4.63,2.5l29,16.07.12.07.1-.11c4.52-4.95,10.73-8.52,16-14.33l-.37-.19c-5.24,5.75-11.38,9.27-15.84,14.17L436,235c-1.74-.94-3.27-1.82-4.66-2.47a38.7,38.7,0,0,0-3.58-1.48,23.73,23.73,0,0,0-3.08-.91l.2.07Z"/><path class="cls-3" d="M499.62,242q-2.49,4.4-4.89,8.67-2.69,4.78-5.23,9.43c-1.71,3.08-3.18,6.22-5.3,8.8a21.68,21.68,0,0,1-3.48,3.49,20.27,20.27,0,0,1-4.1,2.46A28.59,28.59,0,0,1,467.7,277c-1.49.13-2.95.23-4.39.27l-1.08,0-1.05,0-1.05-.05-1-.16a37.54,37.54,0,0,1-7.63-2.18A122.44,122.44,0,0,1,439,269.09c-3.59-1.86-6.64-3.53-9.15-4.86s-4.48-2.36-5.82-3l-1.54-.73-.53-.24.51.28,1.52.77c1.33.7,3.28,1.73,5.77,3.1s5.54,3.05,9.12,4.94a122.19,122.19,0,0,0,12.45,5.83,37.23,37.23,0,0,0,7.69,2.22l1,.17,1.07,0c.35,0,.71,0,1.07,0l1.08,0c1.45-.05,2.92-.14,4.41-.26a29,29,0,0,0,9-2.15,20.7,20.7,0,0,0,4.2-2.5,22.36,22.36,0,0,0,3.54-3.54c2.17-2.63,3.66-5.8,5.36-8.86s3.44-6.23,5.23-9.42q2.44-4.34,5-8.8Z"/><path class="cls-21" d="M465.09,217.63s114.17,4.85,122.37,6.47,24.51,2.75,33.23,7.36,30.23,18.45,45.61,12.3,29.47-16.4,39.85-6.15,26.47,59.62,26.47,59.62,21.83,3.43-8.41,6-45.79,10.77-84.13,0-27.41-16.91-76.69-8.2-96.59,10.77-103.94-1S445.93,220.18,465.09,217.63Z"/><path class="cls-3" d="M507.52,118.75l-41.68,3.36a2.6,2.6,0,0,1-2.63-1.68L442.53,64.76a2.59,2.59,0,0,1,2.21-3.48l41.68-3.36a2.59,2.59,0,0,1,2.63,1.68l20.68,55.67A2.58,2.58,0,0,1,507.52,118.75Z"/><path class="cls-22" d="M450.93,88.12s9.29-.52,10.76,1.38-7.83,3.77-7.83,3.77,5.49-.17,6.88,1.13-5.42,3.4-5.42,3.4,3.67,0,3.81,2-1.25,2.74-3.29,3.23A5.57,5.57,0,0,1,451,102c-.8-.8-.12-2.86-.12-2.86s-3.49-1.73-3.62-3.06a2.88,2.88,0,0,1,.83-2.23A3.09,3.09,0,0,1,445.82,92a2.72,2.72,0,0,1,.18-2.57l-1.08-4.17c-.45-1.74,2.71-3.08,4.57-4.17s4.35,2.15,7.42,2.83c0,0,1.57,1-.11,2.13s-4.25.61-5,.68S450.93,88.12,450.93,88.12Z"/><path class="cls-7" d="M581.8,158.09c.07,7.6-4,11.39-9.89,12.87-.47.12-.94.22-1.42.31-15.75,2.9-42.36-8.28-42.36-8.28l40.07-75.4s11.93,38.46,13.46,66.17c.07,1.26.11,2.5.13,3.7C581.8,157.67,581.8,157.88,581.8,158.09Z"/><path class="cls-23" d="M581.8,158.09c.07,7.6-4,11.39-9.89,12.87.33-6.34,5.64-10.88,9.88-13.5C581.8,157.67,581.8,157.88,581.8,158.09Z"/><path class="cls-3" d="M502.64,33.35a7.18,7.18,0,0,1-1.28-5.46.44.44,0,0,1,.43-.36H515a.44.44,0,0,1,.44.44c0,.08-.08,7.58-7.06,7.58C505.78,35.55,503.85,34.81,502.64,33.35Zm-.46-4.93a6.15,6.15,0,0,0,1.15,4.36c1,1.25,2.73,1.88,5,1.88,5.23,0,6-4.74,6.15-6.24Z"/><polygon class="cls-22" points="483.19 484.8 480.62 507.53 466.61 508.64 464.26 485.45 483.19 484.8"/><polygon class="cls-22" points="551.63 487.4 549.06 510.13 536.3 511.19 533.95 488 551.63 487.4"/><path class="cls-3" d="M482.43,230.55S460.37,330,454.74,373.18s6.93,119.91,6.93,119.91l26,2.18c4.86-49.8,6.24-97.77,6.24-119.6,13.31-22.43,34.18-105.55,34.18-105.55Z"/><polygon class="cls-6" points="459.25 485.73 460.51 495.27 488.83 496.72 489.6 488.23 459.25 485.73"/><path class="cls-6" d="M490.56,375.86a111.4,111.4,0,0,1-24.63-2.45c-.72-.15-.42-1.26.3-1.1a110.54,110.54,0,0,0,24.33,2.4.58.58,0,0,1,0,1.15Z"/><path class="cls-3" d="M565.54,263.35,562.08,379s5.77,14.12,5.37,34.05-13,80-13,80l-22.81,2.18s-17-170.42-16.54-210.54S565.54,263.35,565.54,263.35Z"/><polygon class="cls-6" points="558.27 484.95 557.02 494.49 529.94 495.79 529.18 487.3 558.27 484.95"/><path class="cls-6" d="M560,380.89a43,43,0,0,0-21.52.88.58.58,0,0,1-.3-1.11,44.5,44.5,0,0,1,22.13-.88c.72.15.42,1.26-.31,1.11Z"/><path class="cls-6" d="M521.65,298a93,93,0,0,1-3.87,14.79c-.24.7-1.35.4-1.11-.3a92.47,92.47,0,0,0,3.87-14.79c.13-.73,1.24-.42,1.11.3Z"/><path class="cls-3" d="M483.63,504.58c1.74,4.64,1.85,23.61,1.85,23.61l-43,0c-2.22-6.86,2.43-10.93,6.8-11.55,1.87-.27,8.45-2.82,10.06-4.5,0-.22,2.3-10.76,3.72-11.26,0,0,1-1.1,1.8,0s1.56,4.65,1.56,4.65C472.23,498.32,478,499.29,483.63,504.58Z"/><path class="cls-24" d="M484.09,510.05a13.4,13.4,0,0,0-12.49,1.63c-.6.43-1.18-.57-.58-1A14.42,14.42,0,0,1,484.4,509c.69.25.39,1.36-.31,1.1Z"/><path class="cls-24" d="M442.45,525.43h0l42.6,0a.58.58,0,1,0,0-1.15h0l-42.59,0a.58.58,0,0,0,0,1.15Z"/><path class="cls-3" d="M552.56,504.58c1.74,4.64,1.85,23.61,1.85,23.61l-43,0c-2.22-6.86,2.43-10.93,6.8-11.55,1.87-.27,8.45-2.82,10.06-4.5,0-.22,2.3-10.76,3.72-11.26,0,0,1-1.1,1.8,0s1.55,4.65,1.55,4.65C541.16,498.32,546.89,499.29,552.56,504.58Z"/><path class="cls-24" d="M553,510.05a13.39,13.39,0,0,0-12.49,1.63c-.6.43-1.18-.57-.58-1A14.42,14.42,0,0,1,553.33,509c.69.25.39,1.36-.31,1.1Z"/><path class="cls-24" d="M511.38,525.43h0l42.59,0a.58.58,0,1,0,0-1.15h0l-42.59,0a.56.56,0,0,0-.57.57A.57.57,0,0,0,511.38,525.43Z"/><path class="cls-7" d="M486.59,112c2.62,14.06,2.68,48.34,1.16,58.07-.63,4.06,10.34,8.92,20.81,11.28,18.86,4.25,45.57-4.48,45.54-9.07-.05-7.71.34-26,1.31-32.31,4.08-26.12,14.8-40.68,13-51.47-.83-5-7.9-11.46-14.19-16.28-5.27-4-10-7-10-7l-18.42-5.6s-30.5,6.43-38.34,13.58C478.93,81.06,483.06,93.13,486.59,112Z"/><path class="cls-7" d="M489.94,137s6.53,31.31-9.95,37.15c-6.93,2.46-14,2.73-20.13-1.47-.32-.21-.62-.48-1-.68-10.82-6.41,25.19-95.78,25.19-95.78C497.31,86.85,498.48,107.77,489.94,137Z"/><path class="cls-23" d="M480.83,173.77c-6.8,2.82-13.85,3.45-20.18-.42-.33-.2-1-.24-1-.63-.22-2.83,5.55-3.86,10.85-3.45A15.88,15.88,0,0,1,480.83,173.77Z"/><path class="cls-23" d="M507.57,163.17a17.4,17.4,0,0,1,3.06,5.27c.26.7-.85,1-1.11.31a15.52,15.52,0,0,0-2.77-4.77c-.47-.56.34-1.38.82-.81Z"/><circle class="cls-23" cx="503.92" cy="166.62" r="1.04"/><path class="cls-23" d="M502.52,169.39a9.58,9.58,0,0,0,10.16-4.32c.4-.62,1.39,0,1,.58a10.77,10.77,0,0,1-11.45,4.85c-.73-.15-.42-1.26.3-1.11Z"/><path class="cls-22" d="M540.73,68.05a34.52,34.52,0,0,1-25.21-.63l1.65-7.36,1.8-8,1.26-5.62,17.66-9.16Z"/><path class="cls-23" d="M542.23,59.68l4.07,6.92s4.07,4.6-11.81,5.55a41.68,41.68,0,0,1-26.74-7.82s2.91-6.48,7.31-8.06S542.23,59.68,542.23,59.68Z"/><path class="cls-22" d="M543.5,33.55c-1.86,5.59-3.54,7.38-7.93,12.71a21.14,21.14,0,0,1-13.67,7.11c-11.9.48-17.23-4.54-15.13-20.57,1.31-9.95-1.23-15.63,1.46-19.39h0l.54-.5A22.51,22.51,0,0,1,524.58,7.2C553.41,8.06,546.17,25.53,543.5,33.55Z"/><path class="cls-22" d="M507.59,26.78s-.65,7-3.06,9.4,3.22,3.23,3.22,3.23Z"/><path class="cls-3" d="M519.08,33.86c-2.19,6.81-4.84,21.88-10.53,27.53C526,66.51,539.89,67.86,550,65.13l.71-8.72,2.48,7.67a24.33,24.33,0,0,0,7.34-4.41c-7-26.16,3-49.08-17.86-57.13-22.65-8.75-36.07,7.91-36.07,7.91C501,18,505.49,27.4,511.5,27S521,27.76,519.08,33.86Z"/><path class="cls-22" d="M507.67,35.42A7.15,7.15,0,0,1,509,29.29c1.71-2.28,4.82-5.74,7.56-5.18,4,.82,4.26,4.46,3.62,8.1s-3.36,8.29-8.36,7.19A5.18,5.18,0,0,1,507.67,35.42Z"/><path class="cls-25" d="M517.83,38c-1.37,1.54-3.18,2.61-5.28,2.15-.72-.16-.42-1.26.3-1.11,1.69.37,3.09-.64,4.16-1.85.5-.55,1.31.26.82.81Z"/><path class="cls-7" d="M511.12,45a3.87,3.87,0,0,1-2.83-4.69A3.87,3.87,0,0,1,513,37.42a3.89,3.89,0,0,1,2.84,4.69h0a3.89,3.89,0,0,1-3.77,3A3.75,3.75,0,0,1,511.12,45Zm4-3a3.11,3.11,0,1,0-3.76,2.28,3.11,3.11,0,0,0,3.76-2.28Z"/><path class="cls-3" d="M513.74,35.33a9.1,9.1,0,0,0,2.61-3.7c.42-1.32.46-3.68-1.17-4.29-.54-.2-.32-1.09.23-.88a3.71,3.71,0,0,1,2.1,3.86c-.1,2.29-1.54,4.13-3.13,5.66-.42.41-1.07-.24-.64-.65Z"/><path class="cls-7" d="M535.37,352.56l-.93-6.21-.2-1.29-3.19-21.13L527,344.87l-.24,1.26-1.19,6.09c-40.1-1.61-84.94-5.57-90.08-9.1,0,0,12.93-57.21,28.21-90.21,18.75-40.47,25-121,25-121l78.83-33.56s-11.06,71.77,8.06,143c10.53,39.24,11.24,99.23,14.68,107.84C591.66,352.85,566.13,353.51,535.37,352.56Z"/><path class="cls-23" d="M502.67,251a89.89,89.89,0,0,0,63-10,.57.57,0,0,1,.58,1,91.13,91.13,0,0,1-63.9,10.12c-.72-.15-.42-1.26.31-1.11Z"/><path class="cls-23" d="M471.77,340.07c18.36,2.34,36.78,4.15,55.21,4.8l-.24,1.26c-29.83-1.12-59.5-5.45-89.06-9.53-.73-.1-.42-1.2.31-1.1C449.24,337.05,460.5,338.63,471.77,340.07Z"/><path class="cls-23" d="M588.35,343A323.56,323.56,0,0,1,555,346.14q-10.31.42-20.58.21l-.2-1.29a330.4,330.4,0,0,0,53.81-3.15C588.77,341.81,589.08,342.91,588.35,343Z"/><path class="cls-23" d="M565.41,117.11c-.51,8.1-.94,16.21-1,24.33,0,9.75.44,19.5,1,29.23,0,.74-1.11.74-1.15,0-.53-9.73-1-19.48-1-29.23,0-8.12.45-16.23,1-24.33,0-.73,1.2-.73,1.15,0Z"/><path class="cls-23" d="M503.48,123.73a610.63,610.63,0,0,1-7.42,85.06,631.87,631.87,0,0,1-19.27,84q-7.11,23.53-16,46.48c-.27.69-1.38.39-1.11-.3a651.73,651.73,0,0,0,25.66-82.26A618.33,618.33,0,0,0,499.6,172q2.32-24.08,2.73-48.3a.58.58,0,0,1,1.15,0Z"/><path class="cls-23" d="M479.18,243.31a60.76,60.76,0,0,1-7.28,27.39c-1.86,3.39-4.21,6.87-7.7,8.76a10.06,10.06,0,0,1-10.4-.07c-.61-.4,0-1.4.58-1,3.63,2.41,8.17,1.27,11.33-1.38,2.91-2.45,4.82-6,6.46-9.36A59.59,59.59,0,0,0,478,243.31a.58.58,0,0,1,1.15,0Z"/><path class="cls-23" d="M478.86,243.5A44.21,44.21,0,0,0,467,247.14c-.66.32-1.24-.67-.58-1a44.68,44.68,0,0,1,12.11-3.75c.72-.12,1,1,.3,1.1Z"/><path class="cls-23" d="M484.25,171.94c2.84-9.46,21.27-53.47,21.79-63.34,0-.73,1.18-.78,1.14,0-.52,10-18.94,54.08-21.81,63.64-.21.71-1.33.45-1.12-.26Z"/><path class="cls-23" d="M502.64,123.05l4.34-1.78c.68-.29,1,.83.3,1.1l-4.34,1.79c-.68.28-1-.83-.3-1.11Z"/><path class="cls-23" d="M492.26,71.93A20.7,20.7,0,0,1,510.37,94c-.05.73-1.2.74-1.14,0a19.54,19.54,0,0,0-17-20.94c-.72-.09-.73-1.24,0-1.15Z"/><path class="cls-3" d="M511.51,27.51a.46.46,0,0,0,.37-.35.45.45,0,0,0-.35-.53c-4.14-.85-9.54,1.23-9.77,1.32a.45.45,0,0,0-.25.58.45.45,0,0,0,.58.25c.05,0,5.38-2.07,9.27-1.28Z"/></g></g></svg>