<svg id="Layer_1" data-name="Layer 1" xmlns="http://www.w3.org/2000/svg" viewBox="0 0 579.76 487.97"><defs><style>.cls-1{fill:#c2c6c8;}.cls-2{fill:#767e84;}.cls-3{fill:#989da2;}.cls-4{fill:#8c5249;}.cls-5{fill:#49535b;}.cls-6{fill:#5b342f;}.cls-7{fill:#fd7460;}.cls-8{fill:#263238;}.cls-9{fill:#8c9398;}.cls-10{fill:#fec901;}.cls-11{fill:#232f39;}.cls-12{fill:#b5b9bc;}.cls-13{fill:#253238;}.cls-14{fill:#d4d7d9;}.cls-15{fill:#fff;}.cls-16{fill:#9ea4a8;}.cls-17{fill:#feb7ad;}.cls-18{fill:#fecec7;}.cls-19{fill:#1e2b35;}.cls-20{fill:#303c45;}.cls-21{fill:#feb9af;}.cls-22{fill:#777e81;}.cls-23{fill:#9ca1a3;}</style></defs><polygon class="cls-1" points="227.66 474.68 492.93 203.85 482.79 193.71 217.52 464.54 227.66 474.68"/><path class="cls-2" d="M246.59,477.48H129.53c-13.31,0-25.13-5.31-31.61-14.2-6.2-8.5-6.15-18.62.12-27.09L133.89,389l25.07-.51-42,56.4a7.83,7.83,0,0,0,0,9.78c2.52,3.46,7.23,5.53,12.59,5.53h96.6c11.3,0,20.46,7.73,20.46,17.28Z"/><rect class="cls-3" x="136.15" y="439.67" width="81.28" height="20.52" rx="4.17"/><path class="cls-1" d="M155.19,354.39,59.34,234.74a109.18,109.18,0,0,0-8-10,34.68,34.68,0,0,0-30.7-10.91h0C6.45,216.56-2.23,227.82.5,242l93,124.21A26.38,26.38,0,0,0,110,385.89a28,28,0,0,0,2.73.87,26.12,26.12,0,0,0,11.56.38l10-1.92A26.41,26.41,0,0,0,155.19,354.39Z"/><path class="cls-4" d="M290.3,333.86l-7.42,9.79s-48.51-.51-63.68-7.37c-4.93-2.23-49.92,1.51-62.62-3.41a16.43,16.43,0,0,1-6.64-4.36A23.38,23.38,0,0,1,145.62,305a243.73,243.73,0,0,1,38-.57c13.29,1,33.32,4.54,41.54,9.44C238.06,321.59,290.3,333.86,290.3,333.86Z"/><path class="cls-5" d="M301.33,316.93a2.65,2.65,0,0,0-1.94,1.24c-1.14,1.76-2.86,5.41-6.82,7.95-2.22,1.44-8.93,7.52-8.93,7.52l0,0c-.05.16-.1,1,1.3,5.28.72,2.2-3.46,4.14-3.46,4.14a4.06,4.06,0,0,0,.85,1.38,3.73,3.73,0,0,0,2.33,1.22c1.54.22,3.94,2,5.52,3.31,1,.79,1.62,1.41,1.62,1.41s.84.51,2.49-3l1.44-4.28c.28-1.5.27-2.68.59-4.2.5-2.32,1.65-3.08,1.91-3.22l.05,0,6.11-18.17C304,316.85,302.46,316.84,301.33,316.93Z"/><path class="cls-4" d="M92.86,218.46a125.63,125.63,0,0,1,6.83,12,56.68,56.68,0,0,1,3.33,8.15l-19.6,11.6s.22-11.24-3.62-17.88c-.22-.39-.47-.77-.72-1.13a9.41,9.41,0,0,0-2.79-2.63l1.79-2.74,7.36-3.68Z"/><path class="cls-6" d="M92.86,218.46a125.63,125.63,0,0,1,6.83,12c-7.44,3.82-16.57,2.53-19.89,1.87-.22-.39-.47-.77-.72-1.13L82,226.74l3.45-4.57Z"/><path class="cls-4" d="M101.05,223.19S84,240.4,73.41,229.6,53.55,213.75,64,202.3s16.63-9.42,21-6.67S105.22,218.44,101.05,223.19Z"/><path class="cls-7" d="M184,305.82c.07,1.12,0,10.43-6,14.52-3.89,2.67-13.32,9.18-22.41,12.52a16.45,16.45,0,0,1-6.41-4.7,23.35,23.35,0,0,1-3.11-23.7A244.33,244.33,0,0,1,184,305.82Z"/><path class="cls-8" d="M120.47,299.93s21.52,5.73,37.14-.65a197.21,197.21,0,0,0,29.28,5.41s-5.61,25.61-9.22,29.94c-1.18,1.41-20.69,1.44-33.56,1.65a25.87,25.87,0,0,1-20.09-9,86.12,86.12,0,0,1-6.44-8.52C109.58,306.66,120.47,299.93,120.47,299.93Z"/><path class="cls-9" d="M149.07,283.08l-6.18-8.79-5.82-7.48a108.93,108.93,0,0,0-32.4-27.91l-2.17-1.22s-14.53,2.22-20,3.77c0,0-2.57,15.14.09,22.89,1.61,4.51,11.9,27.84,32.47,51.8a33.83,33.83,0,0,0,32.74-7.62c2.31-2.09,9.83-5.62,11.41-10.4C159.71,296.52,150.24,284.31,149.07,283.08Z"/><path class="cls-10" d="M56.09,242.15l-19.18-23a8,8,0,0,1,1.34-11.48l.53-.39a8,8,0,0,1,11,1.41l18.66,23.39a8,8,0,0,1-1.14,11.1h0A8,8,0,0,1,56.09,242.15Z"/><path class="cls-11" d="M76.77,185c4.28.34,9.36,5.17,9.86,10.39S85.2,215,82.87,213.45c-5-3.4-5.67,4.52-.8,6.7,3.34,1.5,1,8.44-2.07,11.8-2.47,2.72-4.16.9-5.88.21a4.78,4.78,0,0,0-1.34-.33c-6.57-.67-14.17-6.09-18.26-13.87C41.63,193.4,76.77,185,76.77,185Z"/><path class="cls-2" d="M95.1,254.52s-9,14.07-.57,33.27c0,0,11,17.51,20.5,28.35,0,0,17.11,8.44,36.73-9.73l-20.49-8.72Z"/><path class="cls-4" d="M182.24,303.46c-.66-.77-3.13-3.61-11.14-3.69h0c-8.75-.76-34.31-3.25-36.55-6.5-1.52-2.19-22.5-44.33-24.34-44.61-6-.89-16.51,10-15,15.33,0,0,21.6,44,26.38,44.86,7.72,1.37,35.29.37,45.56-1.84,1.24.67,6.06,3.26,7.21,3.77,1.33.59,6.49.57,8.56-.91S183.69,305.16,182.24,303.46Z"/><path class="cls-9" d="M122,268c-3.59,6.69-10.57,12.18-19.82,14-1.82-2.17-7-18-7-18-1.55-5.33-2.09-23.59,14.44-17C120,251.14,120.71,264.4,122,268Z"/><path class="cls-12" d="M321.49,427.24l-91.35-39.69,20.3-46.73,91.35,39.7A22.4,22.4,0,0,1,353.41,410L351,415.63A22.4,22.4,0,0,1,321.49,427.24Z"/><path class="cls-3" d="M264.26,380.18V346.83l-13.82-6-20.3,46.73,18.65,8.1h0A15.47,15.47,0,0,0,264.26,380.18Z"/><path class="cls-12" d="M239,335.51H130.74L43.63,231.56c-6.86-9-11.05-13-16.41-16.21A10.72,10.72,0,0,0,19.65,214h0l-.88.19c-17.37,4-24.47,24.93-13.51,39L93.49,366.25a26.11,26.11,0,0,0,6.06,12.36c.1.18.19.36.29.53l0,.05c.3.52.61,1,.95,1.49l.06.09a16.84,16.84,0,0,0,1.06,1.34l.09.1c.12.14.24.28.37.41h0c.26.29.47.5.76.77l.15.15.37.33.18.15c.2.18.42.36.63.53l.22.17.35.26.27.19.34.24c.18.12.36.24.55.35l.31.19.37.21.3.17.59.3.28.13.47.21.28.12.56.23.19.07.7.23.25.08a4.61,4.61,0,0,0,.53.15l.25.07c.25.07.5.12.76.18l.21,0,.64.12.2,0,.8.1h.15c.23,0,.46,0,.69.06H115l.84,0H239a18.44,18.44,0,0,0,18.37-18.37h0V353.87A18.42,18.42,0,0,0,239,335.51Z"/><path class="cls-2" d="M256.81,364.35H94c-1.11,0-6.39.11-6.39-2h0a2,2,0,0,1,2-2H256.81a2,2,0,0,1,2,2h0A2,2,0,0,1,256.81,364.35Z"/><path class="cls-13" d="M89.84,204.1A6.51,6.51,0,0,1,91.25,203c.19.06.79.18.88.23a8,8,0,0,0-2,1.19,10.66,10.66,0,0,0-1.78,1.89A6.35,6.35,0,0,1,89.84,204.1Z"/><path class="cls-13" d="M91.88,205.53a.91.91,0,0,0-.33.37,4.31,4.31,0,0,0-.55,2.47l.48-1.57c0,.06,0,.12.07.18a1.07,1.07,0,0,0,1.79-1.18A1,1,0,0,0,91.88,205.53Z"/><rect class="cls-1" x="249.08" y="102.68" width="281.06" height="14.35" transform="translate(191.79 -243.32) rotate(45)"/><rect class="cls-1" x="229.29" y="38.04" width="73.86" height="14.35" transform="translate(46 201.49) rotate(-45)"/><ellipse class="cls-2" cx="226.89" cy="84.55" rx="25.67" ry="41.1" transform="translate(6.67 185.2) rotate(-45)"/><ellipse class="cls-12" cx="206.05" cy="105.38" rx="45.53" ry="72.9" transform="translate(-14.17 176.57) rotate(-45)"/><path class="cls-9" d="M261.51,107.37c5.3,17.11,3.58,33.06-6.29,42.94C237.44,168.08,200,159.42,171.48,131a105.7,105.7,0,0,1-23.26-34.18c4.24,13.7,13,28.15,25.64,40.81,28.47,28.46,66,37.13,83.74,19.35C268.74,145.79,269.5,126.92,261.51,107.37Z"/><ellipse class="cls-14" cx="200.89" cy="110.55" rx="35.5" ry="56.85" transform="translate(-19.33 174.43) rotate(-45)"/><path class="cls-15" d="M204.12,105.4c6,6,7.78,13.83,4,17.56s-11.59,1.91-17.56-4.06-7.79-13.83-4.06-17.56S198.14,99.43,204.12,105.4Z"/><path class="cls-15" d="M220.81,87.26c6,6,7.79,13.83,4.06,17.56s-11.59,1.91-17.56-4.06-7.79-13.83-4.06-17.56S214.84,81.29,220.81,87.26Z"/><path class="cls-15" d="M177.93,79.21c6,6,7.79,13.84,4.06,17.57s-11.59,1.91-17.56-4.06-7.79-13.84-4.06-17.57S172,73.24,177.93,79.21Z"/><path class="cls-15" d="M229.34,130.62c6,6,7.79,13.84,4.06,17.57s-11.59,1.91-17.56-4.06-7.79-13.84-4.06-17.56S223.37,124.65,229.34,130.62Z"/><path class="cls-15" d="M187.54,122c4.59,4.58,6,10.62,3.12,13.49s-8.91,1.47-13.5-3.12-6-10.63-3.12-13.49S183,117.39,187.54,122Z"/><circle class="cls-2" cx="293.94" cy="17.5" r="17.5"/><path class="cls-1" d="M301.19,17.5a7.25,7.25,0,1,1-7.25-7.25A7.26,7.26,0,0,1,301.19,17.5Z"/><circle class="cls-2" cx="482.04" cy="202.29" r="17.5"/><path class="cls-1" d="M489.29,202.29A7.25,7.25,0,1,1,482,195,7.25,7.25,0,0,1,489.29,202.29Z"/><path class="cls-15" d="M316.72,82l3.67-2.83,21-1.27s0,9,4.61,12.17a30.36,30.36,0,0,1-21.26,8.72S318.31,95.31,316.72,82Z"/><path class="cls-14" d="M346,90.1S331.66,97,328,93.39s-6.86-12.83-6.86-12.83,2.79,14.81,6.41,17.07S340.82,95.38,346,90.1Z"/><rect class="cls-10" x="548.58" y="243.05" width="2.76" height="15.62"/><path class="cls-12" d="M558.21,388.23c-.44,0-.88,0-1.33-.05l.07-1c4.21.29,7.46-.8,9.93-3.33,8.26-8.49,6-32,3.8-54.76-2-20.87-4.09-42.46,2-52.76,9-15.23,8-30.61-3-45.7-.21-.3-.39-.54-.53-.75a2.24,2.24,0,0,0-1.69-1c-2.56-.24-6,3.11-6,3.14l-.71-.73c.15-.15,3.81-3.7,6.84-3.42a3.21,3.21,0,0,1,2.43,1.46c.13.2.31.44.52.73a47.34,47.34,0,0,1,8.08,16.48c2.53,10.13.82,20.34-5.07,30.34S569.7,308.26,571.7,329c2.21,23,4.5,46.73-4.09,55.56A12.56,12.56,0,0,1,558.21,388.23Z"/><path class="cls-2" d="M444.3,305.9H558.53a4.91,4.91,0,0,1,4.91,4.91V458.42a4.91,4.91,0,0,1-4.91,4.91H444.3a4.9,4.9,0,0,1-4.9-4.9V310.8A4.91,4.91,0,0,1,444.3,305.9Z"/><path class="cls-12" d="M421.78,469.61a8.83,8.83,0,1,1,8.82,8.82A8.82,8.82,0,0,1,421.78,469.61Z"/><path class="cls-16" d="M424.48,469.61a6.13,6.13,0,1,1,6.12,6.13A6.12,6.12,0,0,1,424.48,469.61Z"/><path class="cls-12" d="M533.8,469.61a8.83,8.83,0,1,1,8.83,8.82A8.83,8.83,0,0,1,533.8,469.61Z"/><path class="cls-16" d="M536.5,469.61a6.13,6.13,0,1,1,6.13,6.13A6.12,6.12,0,0,1,536.5,469.61Z"/><path class="cls-12" d="M468.44,293.8H458.38a.74.74,0,0,0,0-1.48h-7.26a.74.74,0,0,0,0,1.48h.05a4.72,4.72,0,0,0-4.71,4.71v25.12a4.72,4.72,0,0,0,4.71,4.71h17.27a4.72,4.72,0,0,0,4.71-4.71V298.51A4.72,4.72,0,0,0,468.44,293.8Z"/><path class="cls-12" d="M491.34,288.14h-6.26a.68.68,0,0,0,.67-.68v-.4a.67.67,0,0,0-.67-.67h-4.82a.68.68,0,0,0-.68.67v.4a.69.69,0,0,0,.68.68h.86a4.32,4.32,0,0,0-4.31,4.31V324.8a4.32,4.32,0,0,0,4.31,4.31h10.22a4.32,4.32,0,0,0,4.31-4.31V292.45A4.32,4.32,0,0,0,491.34,288.14Z"/><polygon class="cls-12" points="508.79 306.36 501.33 306.36 499.99 294.88 509.61 294.88 508.79 306.36"/><rect class="cls-1" x="499.85" y="294.38" width="9.98" height="0.49" rx="0.17"/><polygon class="cls-12" points="508.79 307.93 501.33 307.93 499.99 296.45 509.61 296.45 508.79 307.93"/><rect class="cls-1" x="499.85" y="295.96" width="9.98" height="0.49" rx="0.17"/><polygon class="cls-12" points="508.79 309.63 501.33 309.63 499.99 298.15 509.61 298.15 508.79 309.63"/><rect class="cls-1" x="499.85" y="297.66" width="9.98" height="0.49" rx="0.17"/><polygon class="cls-12" points="508.79 311.86 501.33 311.86 499.99 300.38 509.61 300.38 508.79 311.86"/><rect class="cls-1" x="499.85" y="299.88" width="9.98" height="0.49" rx="0.17"/><polygon class="cls-12" points="508.79 313.49 501.33 313.49 499.99 302.01 509.61 302.01 508.79 313.49"/><rect class="cls-1" x="499.85" y="301.52" width="9.98" height="0.49" rx="0.17"/><path class="cls-10" d="M422.4,251.3h-.53a1,1,0,0,0-1-1h-.94a1,1,0,0,0-1,1h-.53a2.23,2.23,0,0,0-2.23,2.23v19.81a2.23,2.23,0,0,0,2.23,2.23h4.06a2.23,2.23,0,0,0,2.23-2.23V253.53A2.23,2.23,0,0,0,422.4,251.3Z"/><path class="cls-10" d="M432.8,251.3h-.53a1,1,0,0,0-1-1h-.93a1,1,0,0,0-1,1h-.54a2.24,2.24,0,0,0-2.23,2.23v19.81a2.24,2.24,0,0,0,2.23,2.23h4.06a2.23,2.23,0,0,0,2.23-2.23V253.53A2.23,2.23,0,0,0,432.8,251.3Z"/><path class="cls-10" d="M444.17,251.3h-.53a1,1,0,0,0-1-1h-.94a1,1,0,0,0-1,1h-.53a2.23,2.23,0,0,0-2.23,2.23v19.81a2.23,2.23,0,0,0,2.23,2.23h4.06a2.23,2.23,0,0,0,2.23-2.23V253.53A2.23,2.23,0,0,0,444.17,251.3Z"/><path class="cls-10" d="M467.35,237.91h-6.27a.69.69,0,0,0,.68-.68v-.4a.68.68,0,0,0-.68-.67h-4.82a.67.67,0,0,0-.67.67v.4a.68.68,0,0,0,.67.68h.87a4.32,4.32,0,0,0-4.31,4.31v32.35a4.32,4.32,0,0,0,4.31,4.31h10.22a4.32,4.32,0,0,0,4.31-4.31V242.22A4.32,4.32,0,0,0,467.35,237.91Z"/><polygon class="cls-10" points="508.79 256.13 501.33 256.13 499.99 244.65 509.61 244.65 508.79 256.13"/><rect class="cls-10" x="499.85" y="244.15" width="9.98" height="0.49" rx="0.17"/><polygon class="cls-10" points="508.79 257.7 501.33 257.7 499.99 246.22 509.61 246.22 508.79 257.7"/><rect class="cls-10" x="499.85" y="245.72" width="9.98" height="0.5" rx="0.17"/><polygon class="cls-10" points="508.79 259.4 501.33 259.4 499.99 247.92 509.61 247.92 508.79 259.4"/><rect class="cls-10" x="499.85" y="247.43" width="9.98" height="0.49" rx="0.17"/><polygon class="cls-10" points="508.79 261.63 501.33 261.63 499.99 250.14 509.61 250.14 508.79 261.63"/><rect class="cls-10" x="499.85" y="249.65" width="9.98" height="0.49" rx="0.17"/><polygon class="cls-10" points="508.79 263.26 501.33 263.26 499.99 251.78 509.61 251.78 508.79 263.26"/><rect class="cls-10" x="499.85" y="251.29" width="9.98" height="0.49" rx="0.17"/><polygon class="cls-10" points="495.17 256.13 487.71 256.13 486.37 244.65 495.99 244.65 495.17 256.13"/><rect class="cls-10" x="486.23" y="244.15" width="9.98" height="0.49" rx="0.17"/><polygon class="cls-10" points="495.17 257.7 487.71 257.7 486.37 246.22 495.99 246.22 495.17 257.7"/><rect class="cls-10" x="486.23" y="245.72" width="9.98" height="0.5" rx="0.17"/><polygon class="cls-10" points="495.17 259.4 487.71 259.4 486.37 247.92 495.99 247.92 495.17 259.4"/><rect class="cls-10" x="486.23" y="247.43" width="9.98" height="0.49" rx="0.17"/><polygon class="cls-10" points="495.17 261.63 487.71 261.63 486.37 250.14 495.99 250.14 495.17 261.63"/><rect class="cls-10" x="486.23" y="249.65" width="9.98" height="0.49" rx="0.17"/><polygon class="cls-10" points="486.37 251.78 487.71 263.26 495.17 263.26 495.99 251.78 486.37 251.78"/><rect class="cls-10" x="486.23" y="251.29" width="9.98" height="0.49" rx="0.17"/><polygon class="cls-10" points="522.83 256.13 515.37 256.13 514.03 244.65 523.64 244.65 522.83 256.13"/><rect class="cls-10" x="513.89" y="244.15" width="9.98" height="0.49" rx="0.17"/><polygon class="cls-10" points="522.83 257.7 515.37 257.7 514.03 246.22 523.64 246.22 522.83 257.7"/><rect class="cls-10" x="513.89" y="245.72" width="9.98" height="0.5" rx="0.17"/><polygon class="cls-10" points="522.83 259.4 515.37 259.4 514.03 247.92 523.64 247.92 522.83 259.4"/><rect class="cls-10" x="513.89" y="247.43" width="9.98" height="0.49" rx="0.17"/><polygon class="cls-10" points="522.83 261.63 515.37 261.63 514.03 250.14 523.64 250.14 522.83 261.63"/><rect class="cls-10" x="513.89" y="249.65" width="9.98" height="0.49" rx="0.17"/><polygon class="cls-10" points="522.83 263.26 515.37 263.26 514.03 251.78 523.64 251.78 522.83 263.26"/><rect class="cls-10" x="513.89" y="251.29" width="9.98" height="0.49" rx="0.17"/><polygon class="cls-12" points="520.95 306.36 513.49 306.36 512.15 294.88 521.77 294.88 520.95 306.36"/><rect class="cls-1" x="512.01" y="294.38" width="9.98" height="0.49" rx="0.17"/><polygon class="cls-12" points="520.95 307.93 513.49 307.93 512.15 296.45 521.77 296.45 520.95 307.93"/><rect class="cls-1" x="512.01" y="295.96" width="9.98" height="0.49" rx="0.17"/><polygon class="cls-12" points="520.95 309.63 513.49 309.63 512.15 298.15 521.77 298.15 520.95 309.63"/><rect class="cls-1" x="512.01" y="297.66" width="9.98" height="0.49" rx="0.17"/><polygon class="cls-12" points="520.95 311.86 513.49 311.86 512.15 300.38 521.77 300.38 520.95 311.86"/><rect class="cls-1" x="512.01" y="299.88" width="9.98" height="0.49" rx="0.17"/><polygon class="cls-12" points="520.95 313.49 513.49 313.49 512.15 302.01 521.77 302.01 520.95 313.49"/><rect class="cls-1" x="512.01" y="301.52" width="9.98" height="0.49" rx="0.17"/><path class="cls-2" d="M553.23,277.31h0a2.88,2.88,0,0,0-2.88,2.88v24.68a2.88,2.88,0,0,0,2.88,2.88h0a2.88,2.88,0,0,0,2.87-2.88V280.19A2.88,2.88,0,0,0,553.23,277.31Z"/><path class="cls-2" d="M534.58,277.31a2.89,2.89,0,0,0-2.88,2.88v24.68a2.88,2.88,0,0,0,5.76,0V280.19A2.89,2.89,0,0,0,534.58,277.31Z"/><path class="cls-2" d="M439.26,277.31a2.89,2.89,0,0,0-2.88,2.88v24.68a2.88,2.88,0,0,0,5.76,0V280.19A2.89,2.89,0,0,0,439.26,277.31Z"/><path class="cls-2" d="M420.62,277.31h0a2.88,2.88,0,0,0-2.88,2.88v24.68a2.88,2.88,0,0,0,2.88,2.88h0a2.89,2.89,0,0,0,2.88-2.88V280.19A2.89,2.89,0,0,0,420.62,277.31Z"/><rect class="cls-2" x="439.39" y="258.66" width="124.04" height="23.74" rx="1.9"/><rect class="cls-12" x="405.58" y="258.66" width="124.04" height="23.74" rx="1.9"/><path class="cls-12" d="M410.48,305.9H524.71a4.91,4.91,0,0,1,4.91,4.91V458.42a4.91,4.91,0,0,1-4.91,4.91H410.48a4.9,4.9,0,0,1-4.9-4.9V310.8A4.91,4.91,0,0,1,410.48,305.9Z"/><path class="cls-17" d="M535.48,249.28l.57.76-1.83,1.38.62.81,1.83-1.38.52.69,25-18.85a1.42,1.42,0,0,0,.28-2h0a1.41,1.41,0,0,0-2-.28Z"/><path class="cls-10" d="M550.66,243.1h-1.38l-1.88-3.29a.6.6,0,0,1,.52-.9h0a.59.59,0,0,1,.52.31Z"/><path class="cls-18" d="M271.18,183.23c-.71,1.35-5.48,52.11-1.74,58.79s21.43-12.73,21.87-45.49C291.68,168.93,271.18,183.23,271.18,183.23Z"/><rect class="cls-19" x="242.26" y="222.59" width="73.15" height="51.58" transform="translate(471.62 568.19) rotate(-162.78)"/><path class="cls-20" d="M269.53,475.89l7.2,2.68s31.26-43.36,35.1-81.5a58.11,58.11,0,0,0-1-19.51s.3-1.74.84-4.83c.24-1.44.55-3.17.9-5.15,1-5.83,2.41-13.8,4-22.87,3.68-20.87,8.44-47.56,12.14-67.18l-1.94-.63-21-6.76-4.33-13.78-15.63-4.11s-3.49,6.83-6.61,39.08c-.57,4.23-1.1,8.9-1.49,13.95a276,276,0,0,0,1.48,56.5q1.08,8.42,2.75,17.34c.82,4.36.95,10.3.6,17.12C281,427.43,269.53,475.89,269.53,475.89Z"/><path class="cls-19" d="M277.72,305.28l33.93,67.45c.24-1.44.55-3.17.9-5.15,1-5.83,2.41-13.8,4-22.87,3.68-20.87,8.44-47.56,12.14-67.18l-1.94-.63-21-6.76-4.33-13.78-15.63-4.11s-3.49,6.83-6.61,39.08C278.64,295.56,278.11,300.23,277.72,305.28Z"/><path class="cls-20" d="M292.64,260.9l.79-6.73c13.16,3.49,48.32-9.77,48.32-9.77s12.74,11.21,11.07,38.07c-.82,13.11-2.31,68.82-3.87,85.3-.56,6-1.06,10.23-1.26,11.93h0a2.38,2.38,0,0,0,.38,1.46,76.38,76.38,0,0,1,5.75,12.1c15.3,40.76-2.35,91-2.35,91l-4.58-1.85s-10.05-55.86-18.21-80.54a48.71,48.71,0,0,0-3.93-9.44c-3.55-5.73-6.84-15.09-9.83-26.22-5.65-21.05-10.2-48.42-13.23-69.55C301.27,296.65,292.64,260.9,292.64,260.9Z"/><path class="cls-19" d="M324.84,488h36.24s.87-5.52-1-9.71c-1.81-4-4.66-5.85-4-10.72-2.3,2.37-6.05,5-11.29,4.32-.65,1-4.15,6.61-6.29,8.16C336.13,481.72,325.56,481.11,324.84,488Z"/><path class="cls-19" d="M247,488h36.25s1.36-5.78-1-9.71c-2.11-3.49-1.3-5.47.26-8.35a14,14,0,0,1-6.11,1.15,12.79,12.79,0,0,1-5.39-1.89c-1.56,1.77-8.24,9.35-10.32,10.85C258.3,481.72,247.73,481.11,247,488Z"/><path class="cls-11" d="M332.17,74.82c.28-1,3.72-11.38,20-7.85,0,0-8.17-1.06-10.43,2.08,0,0,6.5-2.94,10.55-.44S357,79.47,356.35,82s-5.13,10.1-8.09,10.09a8.88,8.88,0,0,1-3.39-.85,38.42,38.42,0,0,1,1.19,4.41c3.09,14.85-6.81,26.09-11.9,23.28-3.27-1.8-5.77,3.92-5.77,3.92l-27-36.09S320.39,64.11,332.17,74.82Z"/><path class="cls-18" d="M309.33,170.71c22.36,7,25.93-28.08,24.5-28.26-2.41-2.15-5.61-10.45-5.51-22.95l-1.09.2-18.31,3.55s.39,5.77.39,11.19c0,4.24-.27,8.27-1.14,9.2l-2.28.33v0C305.61,144.36,303.36,168.85,309.33,170.71Z"/><path class="cls-21" d="M308.92,123.26s.39,5.76.38,11.18c10.24-.25,15.69-9.57,17.93-14.73Z"/><path class="cls-18" d="M305.48,128.38s24.22.5,24.3-14.59S333,88.6,317.57,87.65s-18.5,4.79-19.75,9.82S299.18,127.86,305.48,128.38Z"/><path class="cls-11" d="M298.58,89.08c3.76-4.52,6.59-3.52,8.17-2.15C320,79.71,328.5,90.5,328.5,90.5a28.87,28.87,0,0,0,9.36,17.07s-4.42,2.71-14.59.05c-3.11-.81-5.87-3-8.22-5.72a56.29,56.29,0,0,0,9.68,11.91c-12.14-5.66-17-22.59-17.43-24.38-1.49,1.32-4.41,4.19-5.31,7-1.23,3.84-1.8,11.74-4.11,11.46C297.88,107.91,292.94,95.86,298.58,89.08Z"/><path class="cls-22" d="M331.31,138.32s3.81,1.24,4,3.92c0,0-10.2,19.06-21.48,20.14Z"/><path class="cls-23" d="M278.14,229l-8.75,49.91c5.16,3.17,10.15,5.88,14.95,8.21a60.72,60.72,0,0,1,3.93-8.59c-.7,2.57,1.07,8.25,2.18,11.37,44.63,19.24,71.58,4.46,71.58,4.46C355.34,245,360.3,163.84,359.1,158c-2.29-11-23.78-15.8-23.78-15.8-7.85,13.77-21.48,20.15-21.48,20.15-5.13-5.07-6.46-18.63-6.46-18.63l-9,2.21a33.83,33.83,0,0,0-15.44,8.4c-.39.38-.77.76-1.14,1.16-4.42,4.73-15.94,35.28-15.94,35.28s2.41,8.39,6.86,12.62a52.68,52.68,0,0,0,8.74,6.35Z"/><path class="cls-22" d="M313.84,162.38s-5.59-18.5-4.94-20.9c0,0-4.38.54-4.76,3.08C304.14,144.56,309.09,160,313.84,162.38Z"/><path class="cls-22" d="M272.76,203.43a62.86,62.86,0,0,0,8.74,6.35s6.71-25.09,4.71-26.84S280.54,197.69,272.76,203.43Z"/><path class="cls-18" d="M370.28,174.83s31.27,42.57,28.24,57c-2.42,11.51-34,38-34,38l-8.17-5.27s19.75-28.63,18-37c-1.35-6.52-20.94-31.26-20.94-31.26Z"/><path class="cls-23" d="M349.41,147.54s17.34,9.31,32.26,38.87c0,0-8.8,11.72-26.34,17.41s-16.94-28.19-16.94-28.19Z"/><polygon class="cls-22" points="312.96 180.82 291.46 180.87 291.32 198.53 300.75 203.84 312.48 199.32 312.96 180.82"/><path class="cls-18" d="M358.41,265.1s-8.82-3.35-13.76-2c-2.78.75-7.95,10.59-4.73,12.08s6.86-3.78,10.82-2.79,8.87,6.75,13.73-2.51Z"/><path class="cls-18" d="M357.93,264a41.92,41.92,0,0,1-4.92-2.6c-1.53-1.07-2.46.84,0,2.6s3.34,1,3.34,1Z"/><path class="cls-18" d="M238.73,262.91s10-4.75,12,.58-1.48,9.8-4.83,8.75S236.61,267.62,238.73,262.91Z"/></svg>