<svg id="Layer_1" data-name="Layer 1" xmlns="http://www.w3.org/2000/svg" viewBox="0 0 1023.56 443.11"><defs><style>.cls-1{fill:#b78876;}.cls-2{fill:#aa6550;}.cls-3{fill:#263238;}.cls-4{fill:#ebebeb;}.cls-5{fill:#fec901;}.cls-6{fill:#fff;}.cls-7{fill:#e0e0e0;}.cls-8{fill:#ffbe9d;}.cls-9{fill:#eb996e;}.cls-10{fill:#455a64;}.cls-11{opacity:0.3;}.cls-12{fill:#385a64;}.cls-13{fill:#2e3552;}</style></defs><path class="cls-1" d="M480.9,65.85c-.47-.18-18.7-5-17.6,13.47s19.39,13.52,19.39,13S480.9,65.85,480.9,65.85Z"/><path class="cls-2" d="M476.64,85.67c-.09-.06-.31.24-.84.52a3.18,3.18,0,0,1-2.39.19c-2-.59-3.82-3.59-4.11-6.9a10.55,10.55,0,0,1,.63-4.66,3.72,3.72,0,0,1,2.26-2.61,1.65,1.65,0,0,1,1.95.77c.28.5.18.88.28.9s.38-.33.19-1.08a2,2,0,0,0-.8-1.11,2.41,2.41,0,0,0-1.8-.37,4.51,4.51,0,0,0-3.18,3.06,10.82,10.82,0,0,0-.81,5.21c.34,3.7,2.45,7.07,5.16,7.68a3.44,3.44,0,0,0,2.91-.67C476.63,86.11,476.7,85.7,476.64,85.67Z"/><path class="cls-3" d="M526.93,0c9.36,0,18.9,0,30.63,6.12,7.39,3.86,12,10,15.86,17.38A40.08,40.08,0,0,1,577.77,43c-.34,6.38-.36,10.84-2.91,16.69"/><path class="cls-1" d="M523.18,1.45a49.69,49.69,0,0,1,53.11,47c1.21,23.09,2.27,48.07,2,60.65-.55,27-27.59,31-27.59,31s.6,8,1.27,17.94a35.56,35.56,0,0,1-34.13,37.92h0A35.55,35.55,0,0,1,481,161.67l-4-108.8A49.72,49.72,0,0,1,523.18,1.45Z"/><path class="cls-2" d="M550.72,140s-16.59.86-34.63-10.67c0,0,8.17,19.64,35.12,17.42Z"/><path class="cls-3" d="M566,63.43a3.85,3.85,0,0,1-3.74,3.86,3.69,3.69,0,0,1-4-3.51A3.86,3.86,0,0,1,562,59.92,3.68,3.68,0,0,1,566,63.43Z"/><path class="cls-3" d="M569.69,58c-.48.5-3.38-1.68-7.53-1.71s-7.21,2-7.65,1.52c-.22-.23.27-1.13,1.61-2.08a10.5,10.5,0,0,1,6.13-1.84,10.08,10.08,0,0,1,6,2C569.51,56.83,569.93,57.75,569.69,58Z"/><path class="cls-3" d="M525.27,63.43a3.85,3.85,0,0,1-3.75,3.86,3.69,3.69,0,0,1-3.95-3.51,3.87,3.87,0,0,1,3.75-3.86A3.69,3.69,0,0,1,525.27,63.43Z"/><path class="cls-3" d="M528.91,58.42c-.48.5-3.39-1.69-7.54-1.71s-7.2,2-7.65,1.52c-.22-.23.27-1.13,1.61-2.09a10.6,10.6,0,0,1,6.13-1.83,10.15,10.15,0,0,1,6,2C528.72,57.28,529.14,58.2,528.91,58.42Z"/><path class="cls-3" d="M543.72,89.31c0-.24,2.56-.66,6.75-1.17,1.06-.1,2.06-.3,2.25-1s-.18-1.91-.69-3.15c-1-2.57-2-5.26-3.07-8.09-4.25-11.52-7.33-21-6.86-21.15s4.29,9,8.55,20.55q1.54,4.26,2.94,8.14c.39,1.21,1.07,2.58.51,4.16a2.66,2.66,0,0,1-1.75,1.54,7.39,7.39,0,0,1-1.8.23C546.34,89.54,543.73,89.54,543.72,89.31Z"/><path class="cls-3" d="M531.49,92.08c.67,0,.64,4.47,4.47,7.7s8.63,2.77,8.66,3.39c.06.29-1.08.87-3.1.91a11.24,11.24,0,0,1-7.23-2.58,9.78,9.78,0,0,1-3.47-6.45C530.67,93.16,531.18,92.05,531.49,92.08Z"/><path class="cls-3" d="M530.11,42.17c-.42,1.12-4.56.56-9.43,1.11s-8.82,1.84-9.46.82c-.28-.48.41-1.54,2-2.62A16.46,16.46,0,0,1,527.62,40C529.4,40.74,530.29,41.64,530.11,42.17Z"/><path class="cls-3" d="M569.11,43.2c-.74.94-3.58-.06-7-.14s-6.35.59-7-.4c-.29-.49.17-1.43,1.45-2.31a9.71,9.71,0,0,1,5.72-1.5,9.81,9.81,0,0,1,5.59,1.94C569.05,41.77,569.44,42.75,569.11,43.2Z"/><path class="cls-3" d="M477.28,61.3s1.17,6.24,1.49,9.06c.11,1,0,12.47,2.76,13,2.39.49,7.14-1.69,9.25-6.42s6.14-16.08,5.71-21.24c-.6-7-.93-14.2.48-21.12s4.72-13.68,10.28-18,13.59-5.88,19.91-2.71c3.9,2,6.81,5.42,10.45,7.83a16.18,16.18,0,0,0,11.13,2.9c3.88-.58,7.55-3.28,8.6-7.06,1.16-4.12-1-8.63-4.26-11.36s-7.56-4-11.75-4.81c-11.65-2.32-24-1.86-35.05,2.44S485.4,16.38,480.67,27.27c-5.47,12.59-4.83,20.31-3.39,34"/><path class="cls-3" d="M539,63.6a31.74,31.74,0,0,0-.7-4.44,18.29,18.29,0,0,0-6.69-9.95,18,18,0,0,0-17.09-2.54A18.11,18.11,0,0,0,506.14,53a17.94,17.94,0,0,0,0,21.29A16.69,16.69,0,0,0,510,78.08a17,17,0,0,0,4.56,2.46,18.16,18.16,0,0,0,9.47.81A17.89,17.89,0,0,0,531.6,78a18.24,18.24,0,0,0,6.69-9.94,31.73,31.73,0,0,0,.7-4.45,1,1,0,0,1,0,.3c0,.24,0,.53,0,.88a8.85,8.85,0,0,1-.11,1.42,12.1,12.1,0,0,1-.34,1.91A18.47,18.47,0,0,1,524.09,81.9a18.67,18.67,0,0,1-9.8-.77,17.32,17.32,0,0,1-4.73-2.53,17.5,17.5,0,0,1-4-4,18.54,18.54,0,0,1,0-22.08,18.68,18.68,0,0,1,8.68-6.48,18.54,18.54,0,0,1,9.79-.77,18.47,18.47,0,0,1,14.47,13.78,12.41,12.41,0,0,1,.34,1.92,8.77,8.77,0,0,1,.11,1.42c0,.35,0,.64,0,.88A.94.94,0,0,1,539,63.6Z"/><path class="cls-3" d="M586.51,63.6a31.74,31.74,0,0,0-.7-4.44,18.35,18.35,0,0,0-6.69-9.95,18,18,0,0,0-7.62-3.35,18.21,18.21,0,0,0-9.48.81,16.92,16.92,0,0,0-4.55,2.46A16.69,16.69,0,0,0,553.66,53a17.94,17.94,0,0,0,0,21.29,16.69,16.69,0,0,0,3.81,3.83A16.92,16.92,0,0,0,562,80.54a18.21,18.21,0,0,0,9.48.81A17.89,17.89,0,0,0,579.12,78a18.3,18.3,0,0,0,6.69-9.94,31.73,31.73,0,0,0,.7-4.45,1,1,0,0,1,0,.3c0,.24,0,.53,0,.88a8.85,8.85,0,0,1-.11,1.42,14.94,14.94,0,0,1-.34,1.91A18.46,18.46,0,0,1,571.6,81.9a18.64,18.64,0,0,1-9.79-.77,17.32,17.32,0,0,1-4.73-2.53,17.5,17.5,0,0,1-4-4,18.56,18.56,0,0,1,0-22.08,18.77,18.77,0,0,1,8.69-6.48,18.52,18.52,0,0,1,9.79-.77,18.47,18.47,0,0,1,14.47,13.78,15.38,15.38,0,0,1,.34,1.92,8.77,8.77,0,0,1,.11,1.42c0,.35,0,.64,0,.88A.94.94,0,0,1,586.51,63.6Z"/><path class="cls-3" d="M550.26,61.65a9.89,9.89,0,0,1-1.7-.59,11.37,11.37,0,0,0-4.16-.53,11.24,11.24,0,0,0-4,1.08c-1,.47-1.53.89-1.6.8s.4-.61,1.37-1.22a9.22,9.22,0,0,1,4.24-1.34,9.39,9.39,0,0,1,4.38.76C549.78,61.09,550.3,61.58,550.26,61.65Z"/><path class="cls-3" d="M557.62,16.1c.26-1.4-.2-2.18.59-2.76s2.6,1.07,3.22,1.75c.2.22.84-.63,1.08-.8A4.79,4.79,0,0,0,563,12.5c-.12-1-1.65-1.24-2.38-1.9a7.21,7.21,0,0,0-2.54-1.45,2.43,2.43,0,0,0-2.44.15,2.33,2.33,0,0,0-.54,1.82,5.1,5.1,0,0,0,.37,1.9,2.7,2.7,0,0,0,1.3,1.4"/><path class="cls-4" d="M476.28,47s13.23,4.86,20.12,7.77L496,48l-19.25-7.61S476.27,45.37,476.28,47Z"/><path class="cls-4" d="M477.51,36.44c.08-.18,4.27,1.43,9.37,3.59s9.18,4,9.11,4.22-4.27-1.44-9.37-3.59S477.44,36.61,477.51,36.44Z"/><path class="cls-5" d="M481.5,179l-1-32s6.37,29.32,39.7,28.93c31.86-.36,31.27-25.83,31.27-25.83L552.59,163v52.16l-20.78,85.08-26.53,3.37L476,187.32Z"/><path class="cls-3" d="M548.49,168.78a3.2,3.2,0,0,1-.38.68,17.45,17.45,0,0,1-1.27,1.86,27,27,0,0,1-5.93,5.74,34.08,34.08,0,0,1-11.08,5.21,39.27,39.27,0,0,1-15,1A48.76,48.76,0,0,1,500.51,179,62.77,62.77,0,0,1,490,172.66a70.38,70.38,0,0,1-6.36-5.27c-.72-.65-1.24-1.2-1.61-1.56s-.54-.56-.52-.58a4.33,4.33,0,0,1,.62.48l1.69,1.47c1.47,1.26,3.64,3.05,6.46,5.07a65.28,65.28,0,0,0,10.47,6.14A49.36,49.36,0,0,0,515,182.63a39.4,39.4,0,0,0,14.7-1,34.46,34.46,0,0,0,11-5,29.74,29.74,0,0,0,6-5.51C547.85,169.65,548.43,168.74,548.49,168.78Z"/><path class="cls-6" d="M525.36,442.24,524.88,291,481.94,180.69l-1.44-33.21-26.17,19.78s-38.09,131.11-38.68,126.56,0,148.42,0,148.42Z"/><path class="cls-6" d="M524.33,441.82c-.19,0-.34-34.07-.34-76.09s.15-76.09.34-76.09.34,34.06.34,76.09S524.51,441.82,524.33,441.82Z"/><polygon class="cls-7" points="454.71 188.86 460.02 192.88 456.29 217.34 518.97 282.99 462.04 208.24 466.89 188.86 454.71 188.86"/><path class="cls-6" d="M527.71,364.79l-96.19-28.21-3.19-73.06,26.39-96.26s-62.89,31.38-67.17,51.34S373,287.1,371.86,322.18c-1,31.37-1.13,52.34,6,62.35,20.51,28.67,155.69,33.79,209.69,0"/><path class="cls-3" d="M520.18,284.58a1.79,1.79,0,0,1-.31-.35l-.87-1.08L515.74,279,503.82,263.5l-39.11-51.19q-1.47-2-2.94-3.86l-.1-.13,0-.16c1.68-6.7,3.31-13.19,4.87-19.38l.31.41-12.17,0h-.32v-.31c0-7.91,0-15.17.06-21.6v-.12l.1-.08,18.9-14.37,5.19-3.89,1.37-1a3.38,3.38,0,0,1,.48-.32,3.91,3.91,0,0,1-.44.38l-1.32,1.06-5.1,4-18.77,14.55.11-.21c0,6.43,0,13.69,0,21.6l-.31-.31,12.17,0h.42l-.1.41c-1.54,6.19-3.17,12.69-4.84,19.38l-.06-.29,2.95,3.87,38.94,51.31L516,278.8l3.16,4.27.81,1.12A2.24,2.24,0,0,1,520.18,284.58Z"/><path class="cls-6" d="M563.06,161.57c-7.67-13.41-11.65-12-11.65-12l.4,4.79v10l-3.64,43.11-23.3,93.69.48,141.05h88.09l11-172.19-1-74.17Z"/><path class="cls-6" d="M623.42,195.88s22.8,16.83,24.77,43.91c1.61,22,5.29,82.22,6,95.33,1,20.42-14.87,68.23-56.26,54.69-24.83-8.12-116.54-39.3-116.54-39.3l6.1-38.95,108.86,6.49,2.16-90.8Z"/><path class="cls-1" d="M486.21,316.05s-30.81-3.33-37.95-1.61c-6.86,1.65-16.62,10-16.62,10l.14,12.18,49.57,13.85Z"/><path class="cls-3" d="M524.88,287.1a2.14,2.14,0,0,1,.13-.42c.12-.3.27-.7.47-1.2.43-1.09,1-2.64,1.84-4.61,1.64-4,4-9.78,6.89-16.88s6.44-15.6,10.31-25c1-2.34,2-4.79,3.16-7.17s2.53-4.78,3.94-7.17a158.59,158.59,0,0,1,9.79-14.12c1.77-2.29,3.56-4.52,5.42-6.66l-.06.34-3.84-9.76-.13-.32.33-.11,16.06-5.46L579,189l-18.2-30.4c-2.21-3.69-4.09-6.63-6.09-7.84a7.83,7.83,0,0,0-2.43-1,6.13,6.13,0,0,1-.89-.22,6.91,6.91,0,0,1,.91.12,7.61,7.61,0,0,1,2.52.92,11,11,0,0,1,3.08,3,55.11,55.11,0,0,1,3.21,4.82l18.42,30.28.2.33-.36.12-16,5.5.21-.43q1.88,4.77,3.85,9.76l.07.19-.13.15c-1.84,2.12-3.63,4.36-5.4,6.64A160.74,160.74,0,0,0,552.19,225c-1.41,2.37-2.77,4.72-3.93,7.1s-2.17,4.78-3.16,7.13c-3.93,9.38-7.46,17.84-10.44,25s-5.4,12.8-7.1,16.81c-.83,1.94-1.49,3.47-2,4.55l-.52,1.18A1.91,1.91,0,0,1,524.88,287.1Z"/><path class="cls-3" d="M635.93,382.23a3.5,3.5,0,0,1-.39.41l-1.17,1.13a33.29,33.29,0,0,1-5,3.8,33.77,33.77,0,0,1-9.16,3.84,36.93,36.93,0,0,1-13.12.83,41.68,41.68,0,0,1-7.51-1.59c-2.55-.81-5.11-1.81-7.82-2.76-5.38-2-11.15-4-17.22-6.12C562.4,377.52,549,373,534.89,368.33c-28.23-9.27-54-17.08-72.63-22.65l-22.11-6.55-6-1.78-1.56-.48a2.58,2.58,0,0,1-.52-.19,3.89,3.89,0,0,1,.54.12l1.58.42,6,1.66c5.25,1.46,12.83,3.61,22.18,6.33,18.69,5.46,44.46,13.2,72.7,22.48,14.12,4.63,27.51,9.2,39.65,13.49,6.07,2.15,11.83,4.2,17.21,6.18,2.69,1,5.28,2,7.78,2.79a41.27,41.27,0,0,0,7.41,1.61,36.77,36.77,0,0,0,13-.72,33.94,33.94,0,0,0,9.11-3.7,36.43,36.43,0,0,0,5-3.67l1.22-1.08A2.47,2.47,0,0,1,635.93,382.23Z"/><path class="cls-3" d="M431.78,336.88c0,.14-1.73-.23-4.5-.13a21.24,21.24,0,0,0-4.75.79,22.11,22.11,0,0,0-5.36,2.44,25,25,0,0,0-7.46,7.66c-1.46,2.35-2.09,4-2.21,3.92a4.31,4.31,0,0,1,.37-1.16,21,21,0,0,1,1.43-3,23.38,23.38,0,0,1,7.5-8,21.14,21.14,0,0,1,5.56-2.47,19,19,0,0,1,4.91-.67,16,16,0,0,1,3.32.3A3.93,3.93,0,0,1,431.78,336.88Z"/><path class="cls-3" d="M401.47,327.33s0-.13.13-.34a3.07,3.07,0,0,1,.6-.86,6.25,6.25,0,0,1,3.42-1.7,17.25,17.25,0,0,1,5.65,0,32.69,32.69,0,0,1,6.7,1.62,29.44,29.44,0,0,1,10.63,6.51,22.88,22.88,0,0,1,2.46,2.88,6,6,0,0,1,.72,1.2c-.11.08-1.19-1.59-3.51-3.73a31.43,31.43,0,0,0-10.53-6.21,33.53,33.53,0,0,0-6.56-1.65,17.76,17.76,0,0,0-5.48-.16,6.28,6.28,0,0,0-3.31,1.41C401.75,326.91,401.53,327.36,401.47,327.33Z"/><path class="cls-3" d="M437.39,243.42a10.7,10.7,0,0,1-.44-2c-.2-.62-.48-1.37-.78-2.24s-.83-1.8-1.42-2.79a39.29,39.29,0,0,0-4.91-6.53,51.91,51.91,0,0,0-7.51-6.6,45.3,45.3,0,0,0-16.42-7.55,33.85,33.85,0,0,0-5.47-.69,12.31,12.31,0,0,1-2-.17,11.4,11.4,0,0,1,2-.1,29.12,29.12,0,0,1,5.56.49,43.38,43.38,0,0,1,16.73,7.46,51.55,51.55,0,0,1,7.58,6.74,37.67,37.67,0,0,1,4.86,6.71c.58,1,1,2,1.36,2.89s.52,1.67.67,2.32A12.32,12.32,0,0,1,437.39,243.42Z"/><path class="cls-3" d="M620,355.14a2.84,2.84,0,0,1,0-.47l0-1.37c0-1.2-.08-3-.26-5.24a72.75,72.75,0,0,0-3.86-18.83,27.17,27.17,0,0,0-2.64-5.75,11.28,11.28,0,0,0-5.1-4.32c-4.38-1.89-9.65-1.64-15-1.94L558,315.74c-29-1.26-54.77-2.35-71-3.21l.22-.18c-1,5.95-1.76,10.67-2.29,13.95-.28,1.58-.49,2.82-.64,3.69-.07.4-.13.71-.18.95a1.29,1.29,0,0,1-.08.32,1.64,1.64,0,0,1,0-.33c0-.24.07-.56.13-.95.12-.88.3-2.12.52-3.71.5-3.29,1.21-8,2.11-14l0-.19h.19l71,2.95,35.08,1.53c2.69.13,5.32.2,7.88.41a22.78,22.78,0,0,1,7.32,1.64,11.86,11.86,0,0,1,5.31,4.55,27.29,27.29,0,0,1,2.65,5.88A71.14,71.14,0,0,1,620,348c.13,2.29.14,4.06.13,5.26,0,.58,0,1,0,1.37A1.57,1.57,0,0,1,620,355.14Z"/><path class="cls-3" d="M599.24,269.91c.19,0,.34,10.55.34,23.55s-.15,23.55-.34,23.55-.34-10.54-.34-23.55S599.06,269.91,599.24,269.91Z"/><path class="cls-3" d="M388.31,216.25s-.08.29-.27.86-.51,1.41-.79,2.55c-.63,2.27-1.44,5.65-2.34,10.05-1.82,8.81-4.06,21.69-6.57,37.82-1.25,8.06-2.58,16.94-3.89,26.53-.66,4.79-1.08,9.79-1.42,15s-.62,10.51-.82,16c-.4,11-.63,22.6-.31,34.69.09,3,.2,6.07.45,9.14.08,1.54.33,3.06.52,4.59A35.37,35.37,0,0,0,374,378a25.75,25.75,0,0,0,4.33,8.28,18.55,18.55,0,0,0,7.43,5.72l0,0h0a113.55,113.55,0,0,0,19.38,7.4c6.75,2,13.73,3.65,20.82,5.11a287.42,287.42,0,0,0,46.78,5.7,216.64,216.64,0,0,0,22.33-.59c7.28-.5,14.37-1.26,21.23-2.28a222.71,222.71,0,0,0,38.11-8.86,194.25,194.25,0,0,0,30.81-13.22l0,.43L543,370.7l-11.39-4.06-2.94-1.07c-.66-.24-1-.39-1-.39s.35.1,1,.33l3,1,11.42,3.95,42.34,14.77.5.17-.47.25A193.85,193.85,0,0,1,554.63,399a223.43,223.43,0,0,1-38.2,8.95c-6.87,1-14,1.8-21.27,2.31a217.89,217.89,0,0,1-22.4.6,286.48,286.48,0,0,1-46.9-5.69c-7.1-1.47-14.1-3.1-20.88-5.14a112.66,112.66,0,0,1-19.49-7.46l.05,0a19.25,19.25,0,0,1-7.74-5.95,26.26,26.26,0,0,1-4.44-8.49,38.58,38.58,0,0,1-1.13-4.6c-.19-1.56-.45-3.11-.52-4.65-.25-3.09-.36-6.15-.45-9.18-.3-12.11-.05-23.72.37-34.72.2-5.5.49-10.84.84-16s.79-10.18,1.47-15c1.33-9.59,2.69-18.47,4-26.53,2.57-16.12,4.88-29,6.77-37.8.94-4.4,1.78-7.77,2.46-10,.29-1.14.65-2,.84-2.54S388.31,216.25,388.31,216.25Z"/><path class="cls-7" d="M431.64,327.85c16.08-17.81,15.37-49.48,6.14-72-.85,24.34-3.72,45.93-5.92,69.58"/><path class="cls-3" d="M437.82,260.46a3.56,3.56,0,0,1,0,.78c0,.58-.08,1.32-.14,2.22-.16,2-.38,4.79-.64,8.17-.58,7-1.36,16.45-2.22,26.93s-1.57,20-2.11,26.94c-.26,3.38-.47,6.15-.62,8.17l-.19,2.22a3.79,3.79,0,0,1-.11.77,2.61,2.61,0,0,1,0-.78c0-.58,0-1.32.07-2.23.06-1.93.2-4.73.4-8.18.39-6.91,1-16.44,1.91-27s1.73-20,2.42-26.91c.35-3.38.64-6.14.85-8.15.11-.9.2-1.63.28-2.21A3,3,0,0,1,437.82,260.46Z"/><path class="cls-3" d="M477.47,228.28c.19,0,.34,6.19.34,13.81s-.15,13.81-.34,13.81-.34-6.18-.34-13.81S477.28,228.28,477.47,228.28Z"/><path class="cls-7" d="M467,274.16a14.19,14.19,0,0,0,3,7.33c1.51,2,4.59,3.88,7.06,3.74,0,0,6.17.53,9.5-4.76,3-4.8,3.75-14.77,1.34-20.66-1.66-4.05-5.39-7.82-9.77-7.92-5.75-.14-9.36,4-10.58,8.22"/><path class="cls-3" d="M467.5,260.11a8.52,8.52,0,0,1,1.06-2.82,11.63,11.63,0,0,1,2.16-2.83,10,10,0,0,1,4.07-2.39,9.94,9.94,0,0,1,2.73-.43,8.19,8.19,0,0,1,3,.39,11.78,11.78,0,0,1,5.34,3.83,15.53,15.53,0,0,1,3.14,6.53,27.94,27.94,0,0,1,.58,7.74c-.27,4.1-1.07,8.17-3.33,11.28a10.09,10.09,0,0,1-4.34,3.27,11.88,11.88,0,0,1-4.91.83h0a7.45,7.45,0,0,1-3.52-.87,11.45,11.45,0,0,1-2.65-1.85,13.14,13.14,0,0,1-2.88-4.3,12.48,12.48,0,0,1-.92-3.17,7.15,7.15,0,0,1-.08-.86.86.86,0,0,1,0-.3,17.79,17.79,0,0,0,1.28,4.2,13.07,13.07,0,0,0,2.89,4.1,11.42,11.42,0,0,0,2.57,1.72A6.82,6.82,0,0,0,477,285h0a10.44,10.44,0,0,0,8.69-3.93c2.11-2.92,2.92-6.92,3.17-10.92.28-5.17-.59-10.38-3.53-13.85a11.29,11.29,0,0,0-5-3.69,8,8,0,0,0-2.8-.4,10,10,0,0,0-2.61.37,9.86,9.86,0,0,0-3.94,2.21,11.79,11.79,0,0,0-2.19,2.68A22.15,22.15,0,0,0,467.5,260.11Z"/><path class="cls-7" d="M463.93,274.42a14.13,14.13,0,0,0,3,7.32c1.51,2,4.59,3.89,7.06,3.75,0,0,6.17.53,9.5-4.76,3-4.8,3.75-14.77,1.34-20.66-1.66-4.05-5.39-7.82-9.77-7.93-5.75-.13-9.36,4-10.58,8.23"/><path class="cls-3" d="M464.44,260.37a8.83,8.83,0,0,1,1.06-2.82,11.63,11.63,0,0,1,2.16-2.83,10.11,10.11,0,0,1,4.07-2.39,10.33,10.33,0,0,1,2.73-.44,8.43,8.43,0,0,1,3,.4,11.7,11.7,0,0,1,5.34,3.82,15.63,15.63,0,0,1,3.14,6.54,27.91,27.91,0,0,1,.58,7.74c-.26,4.1-1.07,8.17-3.33,11.28a10.09,10.09,0,0,1-4.34,3.27,11.88,11.88,0,0,1-4.91.83h0a7.45,7.45,0,0,1-3.52-.87,11.45,11.45,0,0,1-2.65-1.85,13.14,13.14,0,0,1-2.88-4.3,12.48,12.48,0,0,1-.92-3.17,7.51,7.51,0,0,1-.08-.86.86.86,0,0,1,0-.3,17.79,17.79,0,0,0,1.28,4.2,13.24,13.24,0,0,0,2.89,4.1,11.42,11.42,0,0,0,2.57,1.72,6.93,6.93,0,0,0,3.26.77h0a10.44,10.44,0,0,0,8.69-3.93c2.11-2.92,2.92-6.92,3.17-10.92.28-5.17-.59-10.38-3.53-13.85a11.24,11.24,0,0,0-5-3.69,7.88,7.88,0,0,0-2.81-.4,10,10,0,0,0-2.61.37,9.74,9.74,0,0,0-3.94,2.21,11.79,11.79,0,0,0-2.19,2.68A22.15,22.15,0,0,0,464.44,260.37Z"/><path class="cls-7" d="M469.48,258.9c-2.86-.57-5.81,1.39-7,4a11.58,11.58,0,0,0,0,8.53,10.59,10.59,0,0,0,2.17,3.84,5.72,5.72,0,0,0,3.9,1.89c2.18.07,4.13-1.41,5.4-3.18a12.19,12.19,0,0,0,1.84-10c-.6-2.26-2.26-4.59-4.61-4.65"/><path class="cls-3" d="M471.18,259.34a1.23,1.23,0,0,1,.52,0,3.51,3.51,0,0,1,1.42.48,6.92,6.92,0,0,1,3,4.5,12.37,12.37,0,0,1-.81,8,10.41,10.41,0,0,1-2.93,3.84,5.67,5.67,0,0,1-5,1.21,7.11,7.11,0,0,1-4-3.29,15,15,0,0,1-1.68-4.52,10.08,10.08,0,0,1,1.31-7.89,7,7,0,0,1,4.56-2.9,4.92,4.92,0,0,1,1.49,0c.33.08.5.12.5.15a8.66,8.66,0,0,0-2,.12,7,7,0,0,0-4.21,2.91,9.68,9.68,0,0,0-1.08,7.49,14.3,14.3,0,0,0,1.63,4.3,6.41,6.41,0,0,0,3.64,3,5,5,0,0,0,4.45-1.08,9.88,9.88,0,0,0,2.78-3.58,12.11,12.11,0,0,0,.9-7.63A6.91,6.91,0,0,0,473,260,5.4,5.4,0,0,0,471.18,259.34Z"/><path class="cls-3" d="M476.07,280.38c-.1,0-.25-.41-.7-.94a4.82,4.82,0,0,0-2.23-1.43,11.89,11.89,0,0,0-2.74-.42c-.73-.06-1.19-.12-1.19-.21s.44-.21,1.19-.28a7.82,7.82,0,0,1,3,.26,4.39,4.39,0,0,1,2.42,1.8C476.18,279.85,476.15,280.37,476.07,280.38Z"/><path class="cls-3" d="M477.1,257.12c.06.05-.21.46-.81.94a6.5,6.5,0,0,1-2.76,1.21,6.37,6.37,0,0,1-3-.17c-.74-.23-1.13-.53-1.09-.6s1.81.51,4,.1S477,257,477.1,257.12Z"/><path class="cls-3" d="M566.89,163.51s.16,0,.43.16.67.31,1.16.6a24.13,24.13,0,0,1,3.92,2.8,28.21,28.21,0,0,1,8.41,13.31,85.53,85.53,0,0,1,3.2,15.49c.23,2,.35,3.65.43,4.78a8.79,8.79,0,0,1,0,1.76,8.79,8.79,0,0,1-.3-1.74c-.17-1.25-.38-2.84-.64-4.74a100.15,100.15,0,0,0-3.37-15.36,28.89,28.89,0,0,0-8.09-13.14A43.9,43.9,0,0,0,566.89,163.51Z"/><path class="cls-3" d="M550.61,307.36c3.79-.15,6.82-3.92,10.6-3.72a5.27,5.27,0,1,1-.89,10.49c-4-.46-6.3-5.12-10.2-6"/><path class="cls-3" d="M582.73,310.58a23.35,23.35,0,0,1-3.55-.29l.21-1.29c4.68.75,8.61,0,11.69-2.28,3.86-2.84,6.36-7.93,7.41-15.12l0-.27c.42-2.85,1-58.74,1-69.35,0-16.58-14.55-18.84-15.17-18.93s-13.81-2.31-20.83,15.79c-7.35,19-19.09,55.49-19.87,59.77-.1.53-.24,1.18-.41,1.93-1.22,5.48-3.76,16.89,3.85,23.46,8.48,7.33,15.17,4.49,15.45,4.37l.53,1.19c-.31.14-7.69,3.33-16.84-4.57-8.2-7.08-5.54-19-4.27-24.73.17-.74.31-1.37.4-1.88.79-4.32,12.57-41,19.94-60,7.42-19.16,22.11-16.64,22.26-16.61s16.27,2.49,16.26,20.22c0,8.74-.58,66.52-1,69.54l0,.27c-1.1,7.55-3.77,12.92-7.93,16A15,15,0,0,1,582.73,310.58Z"/><path class="cls-3" d="M600.2,232.67a24.17,24.17,0,0,0-2.72-6.51,22.13,22.13,0,0,0-13.56-9.56,24.57,24.57,0,0,0-16.54,2.15,29.24,29.24,0,0,0-5.75,4.12s.08-.15.3-.4a12.48,12.48,0,0,1,1-1,20,20,0,0,1,4.25-3.1,24.41,24.41,0,0,1,16.93-2.4,22.26,22.26,0,0,1,8.62,4.14,21.8,21.8,0,0,1,5.19,5.83,17.11,17.11,0,0,1,2,4.87,9.94,9.94,0,0,1,.27,1.4A1.58,1.58,0,0,1,600.2,232.67Z"/><path class="cls-3" d="M633.48,337.14a46.55,46.55,0,0,0-1.79-5.57,24.39,24.39,0,0,0-8.87-10.64,19.28,19.28,0,0,0-7.19-2.6,63.29,63.29,0,0,0-6.33-.65l-4.3-.3a6.51,6.51,0,0,1-1.58-.22,7.94,7.94,0,0,1,1.59-.05l4.31.09a52.54,52.54,0,0,1,6.41.52,19,19,0,0,1,7.46,2.64,23.69,23.69,0,0,1,8.94,11,20.53,20.53,0,0,1,1.19,4.18A6,6,0,0,1,633.48,337.14Z"/><path class="cls-1" d="M567.56,315.33s12.85-19.47,16.13-22S615,278.1,618.31,280.14s1.26,6.45,1.26,6.45,11.88-4.16,13.14-2.52a5.85,5.85,0,0,1,0,6.69s6.57-1,6.57,1-.76,4.55-3.79,6.83-22.74,15.4-24.33,19l-6.38-.39Z"/><path class="cls-2" d="M604.54,309.76a5.15,5.15,0,0,1,.59-1.22,23,23,0,0,1,2.11-3.05,35.27,35.27,0,0,1,9.32-7.84,70.2,70.2,0,0,1,11-5.18c1.46-.56,2.65-1,3.47-1.25a5.46,5.46,0,0,1,1.31-.37,5.2,5.2,0,0,1-1.21.61l-3.39,1.45a90,90,0,0,0-10.85,5.32,38.93,38.93,0,0,0-9.3,7.57C605.57,308.12,604.65,309.83,604.54,309.76Z"/><path class="cls-2" d="M588.24,309.45a6.67,6.67,0,0,1,.62-1.43c.45-.9,1.1-2.2,2-3.76a35.62,35.62,0,0,1,3.54-5.25,16.67,16.67,0,0,1,2.7-2.67c1.08-.73,2.22-1.41,3.4-2.11A92.33,92.33,0,0,1,613,288a35.5,35.5,0,0,1,4-1.35,7.79,7.79,0,0,1,1.54-.28c0,.12-2.13.62-5.39,2.07a120.19,120.19,0,0,0-12.39,6.4c-1.16.7-2.31,1.38-3.37,2.08a16.78,16.78,0,0,0-2.59,2.53,38.92,38.92,0,0,0-3.6,5.08l-2.16,3.64A7.06,7.06,0,0,1,588.24,309.45Z"/><path class="cls-3" d="M756.38,51.84c.17-5.7-5.1-10.09-10.4-12.18s-11.19-2.87-15.91-6c-4.19-2.82-7-7.21-10.54-10.8A35,35,0,0,0,660.58,38.9c-2,8.1-.65,17.69,5.74,23.08,7.42,6.25,18.41,4.86,27.92,2.92S714.5,61,722.43,66.61c4.79,3.37,7.53,8.84,10.46,13.91S739.48,90.76,745,92.66s13-1.38,13.26-7.23"/><path class="cls-3" d="M756,55c-.63,4.77,2.83,9,6.26,12.41s7.32,6.94,7.93,11.72c.71,5.57-3.36,11.07-2.18,16.56.75,3.49,3.46,6.18,5.11,9.34a19.84,19.84,0,0,1,1,14.63c-1.42,4.81-3.67,15.54-7,19.27-9.24,10.33-24,19.24-37.45,22.34s-27.53,3.12-41.36,2.27c-11.32-.69-24.34-.17-33.77-15.75-4.89-8.06-7.31-18.79-9.91-27.85-2.23-7.81-4.17-16.17-1.84-24,1.35-4.53,4.08-8.56,5.42-13.1,1.66-5.67,1.06-11.74,1.73-17.61a40.39,40.39,0,0,1,57.47-31.89"/><path class="cls-8" d="M655.35,74.52c1.06-16.24,11.87-36.15,28.06-34.4L733.93,53a9.52,9.52,0,0,1,8.5,9.68l-5.68,121.89.35.07S725.59,219,692.18,208.53c-6.63-2.08-9.65-9.33-11-16.78l-.35,0c0-.88,0-1.71,0-2.55a80,80,0,0,1-.2-16.74h0c-.09-9.84-.08-13.88-.09-13.79s-20.75-3.49-25-30.58C653.45,114.66,654.18,92.57,655.35,74.52Z"/><path class="cls-3" d="M663.49,90.85a3.48,3.48,0,0,0,3.34,3.51,3.32,3.32,0,0,0,3.59-3.12,3.48,3.48,0,0,0-3.34-3.52A3.32,3.32,0,0,0,663.49,90.85Z"/><path class="cls-3" d="M660.12,86c.43.46,3.06-1.48,6.8-1.47s6.47,1.9,6.88,1.44c.2-.2-.24-1-1.43-1.89a9.47,9.47,0,0,0-5.5-1.71,9.22,9.22,0,0,0-5.42,1.73C660.3,85,659.91,85.82,660.12,86Z"/><path class="cls-3" d="M700.23,90.85a3.48,3.48,0,0,0,3.34,3.51,3.32,3.32,0,0,0,3.59-3.12,3.48,3.48,0,0,0-3.34-3.52A3.32,3.32,0,0,0,700.23,90.85Z"/><path class="cls-3" d="M696.86,86.8c.43.46,3.07-1.48,6.8-1.47s6.47,1.9,6.88,1.44c.2-.2-.23-1-1.43-1.89a9.48,9.48,0,0,0-5.51-1.71,9.14,9.14,0,0,0-5.41,1.73C697,85.78,696.65,86.6,696.86,86.8Z"/><path class="cls-3" d="M683.23,114.49c0-.21-2.3-.62-6.07-1.11-.95-.1-1.85-.29-2-.94a4.77,4.77,0,0,1,.64-2.83l2.84-7.26c3.94-10.34,6.8-18.84,6.38-19s-4,8.1-7.9,18.44c-.94,2.55-1.85,5-2.72,7.31-.36,1.08-1,2.31-.5,3.74a2.44,2.44,0,0,0,1.57,1.4,6.42,6.42,0,0,0,1.62.23C680.87,114.68,683.22,114.7,683.23,114.49Z"/><path class="cls-9" d="M680.55,158.71a68.85,68.85,0,0,0,36.29-9.59s-9.16,18.73-36.26,16.13Z"/><path class="cls-9" d="M684.79,123.5a6.77,6.77,0,0,1,6-2.49,6.19,6.19,0,0,1,4.25,2.29,3.9,3.9,0,0,1,.28,4.46c-1,1.41-3.12,1.74-4.9,1.23a14.18,14.18,0,0,1-4.77-2.87,4.14,4.14,0,0,1-1.07-1.1,1.27,1.27,0,0,1,0-1.4"/><path class="cls-3" d="M694.22,117.1c-.6,0-.62,4-4.1,6.89s-7.8,2.42-7.83,3c-.06.25,1,.79,2.79.84a10,10,0,0,0,6.53-2.26,8.76,8.76,0,0,0,3.18-5.78C695,118.08,694.5,117.08,694.22,117.1Z"/><path class="cls-3" d="M695.19,80.25c.37,1,4.1.55,8.48,1.09s7.93,1.74,8.51.83c.27-.44-.35-1.39-1.78-2.38a14.8,14.8,0,0,0-12.94-1.46C695.84,79,695,79.77,695.19,80.25Z"/><path class="cls-3" d="M661.52,75.21c.65.85,3.23,0,6.33-.06s5.71.58,6.32-.3c.26-.43-.15-1.29-1.29-2.09a9.19,9.19,0,0,0-10.2.29C661.59,73.92,661.23,74.79,661.52,75.21Z"/><path class="cls-3" d="M752.84,142.11a24.05,24.05,0,0,1-28.61-26.6c.85-6.65,4.43-13.41,2.13-19.71-3.05-8.32-14.72-10.88-17.82-19.19-1.8-4.83-.18-10.48-2.22-15.21-1.92-4.45-6.6-7-11.16-8.66S685.72,50,681.9,47s-6.21-8.59-3.75-12.76a256.63,256.63,0,0,1,59.19,14.38c4.42,1.65,9.06,3.64,11.67,7.57,2.77,4.15,2.63,9.52,2.4,14.51q-1.7,36.48-3.4,73"/><path class="cls-10" d="M751.15,151.42s.16-.08.43-.28l1.21-.92c1-.82,2.58-2,4.48-3.71a47.06,47.06,0,0,0,6.37-6.7,25.07,25.07,0,0,0,5.07-11.15c.8-4.45.21-10-3.5-14.25-1.82-2.06-4.17-3.6-6.31-5.38a14.79,14.79,0,0,1-4.92-6.72c-2-5.52-1.11-11.91-1.88-18.44a36.74,36.74,0,0,0-7.68-18.67,25.47,25.47,0,0,0-8-6.56c-3.08-1.62-6.41-2.29-9.48-3.2a22.07,22.07,0,0,1-8.32-4.1,32.74,32.74,0,0,1-6-6.65c-3.4-4.84-5.91-10-9.15-14.28a31.37,31.37,0,0,0-5.34-5.66,20.38,20.38,0,0,0-6.33-3.45c-4.37-1.49-9-1-12,1.2a11.1,11.1,0,0,0-4.27,8.11,8.07,8.07,0,0,0,1.63,5.57,4.93,4.93,0,0,0,1.11,1.06c.27.21.41.31.43.29s-.11-.15-.36-.38a6.18,6.18,0,0,1-1-1.11,8.1,8.1,0,0,1-1.36-5.4,10.69,10.69,0,0,1,4.2-7.6c2.86-2,7.22-2.42,11.37-.94a19.59,19.59,0,0,1,6,3.36A29.62,29.62,0,0,1,702.6,31c3.14,4.22,5.61,9.36,9.06,14.32a33.69,33.69,0,0,0,6.22,6.91,23.19,23.19,0,0,0,8.7,4.33c3.14.93,6.37,1.6,9.27,3.13A24.33,24.33,0,0,1,743.5,66,35.74,35.74,0,0,1,750.94,84c.79,6.32-.13,12.81,2,18.68a15.79,15.79,0,0,0,5.29,7.14c2.21,1.82,4.51,3.32,6.24,5.24,3.47,3.86,4.12,9.15,3.39,13.45a24.51,24.51,0,0,1-4.76,10.89,50.06,50.06,0,0,1-6.15,6.76c-1.84,1.71-3.33,3-4.33,3.87A12.8,12.8,0,0,0,751.15,151.42Z"/><path class="cls-3" d="M756.09,154.78c5.57-5.38,15.08-.7,19.75,5.47s8,14.14,15.08,17.24,16.32.44,22.27,5.38c8.21,6.82,3.6,22.63,12.47,28.55,3.53,2.36,8.17,2.27,11.94,4.21,8.87,4.58,8.77,17.1,7.4,27-1.93,13.88-4,28.26-11.7,40s-22.56,20-35.82,15.47c-12.75-4.35-19.29-18.1-24.47-30.53L751.5,216c-4.15-9.95-8.34-20.05-9.69-30.74s.47-22.24,7.26-30.6"/><path class="cls-5" d="M759.66,142.92c4.05-.48,7.13,4.47,6.07,8.41s-4.84,6.55-8.69,7.9a13,13,0,0,1-6.71.77,6.62,6.62,0,0,1-5.09-4.08,3.86,3.86,0,0,1,1.86-5.09c2.67-1.66,4.23-3,6.33-4.13,3.21-1.77,3-2,6.23-3.78"/><polygon class="cls-5" points="666.57 186.5 682.29 174.6 741.49 170.81 743.88 178.75 724.62 298.93 739.81 442.31 657.21 442.31 666.57 186.5"/><g class="cls-11"><path d="M730,391.44c-1.89-2-5-4.79-7.75-4.85-19.78-.44-40-2.41-59.75-2.85l-1.59,58.59c4.74-8.34,9.21-17,10.46-26.52.54-4.16,1.24-9.12,5-10.9,2.15-1,4.66-.61,7-.15,7.15,1.41,14.24,3.25,21.51,3.71s14.87-.61,21-4.58a12.85,12.85,0,0,0,5-5.42A6.64,6.64,0,0,0,730,391.44Z"/></g><path class="cls-5" d="M679.38,188.93l-1.83-17.19a5.46,5.46,0,0,1,4.93-6l54.5-4.92a2.57,2.57,0,0,1,2.81,2.48l.61,20.45-15.78,26.78-16.23,5.16H688.56l-11.41-12.18Z"/><path class="cls-3" d="M732.35,177.19c0,.05-.78-.08-2.18-.22a37.4,37.4,0,0,0-5.94-.1,57.55,57.55,0,0,0-8.72,1.25c-3.26.68-6.8,1.64-10.54,2.55a69.49,69.49,0,0,1-10.74,1.92,27.68,27.68,0,0,1-8.89-.61,18.76,18.76,0,0,1-5.55-2.3,14.65,14.65,0,0,1-1.33-1c-.28-.24-.43-.38-.41-.4s.65.44,1.87,1.13a20.37,20.37,0,0,0,5.53,2.07,28.56,28.56,0,0,0,8.73.44,73.39,73.39,0,0,0,10.63-2c3.73-.9,7.29-1.85,10.57-2.5a54.71,54.71,0,0,1,8.83-1.13,33.75,33.75,0,0,1,6,.32c.7.12,1.24.22,1.6.32A1.83,1.83,0,0,1,732.35,177.19Z"/><g class="cls-11"><path d="M680.68,179.89c-1.46,4-1.5,9,1.46,12.06,2.41,2.5,6.29,3.13,9.7,2.45s6.49-2.48,9.48-4.26c7.5-4.46,15.12-9.09,23.65-11a3.08,3.08,0,0,0,1.53-.64,1,1,0,0,0,0-1.47,1.44,1.44,0,0,0-.71-.21c-7.54-.75-15,1.38-22.41,3s-15.29,2.83-22.41.26"/></g><path class="cls-3" d="M691.09,165.19a5,5,0,0,0-1.86,1.78c-.86,1.38-.82,3.73-.75,6.26.14,5.09,1,9.16.78,9.2a9.57,9.57,0,0,1-.73-2.63,40.83,40.83,0,0,1-.73-6.55,28.88,28.88,0,0,1,.08-3.64,6.29,6.29,0,0,1,.94-2.89,3.68,3.68,0,0,1,1.54-1.37C690.81,165.15,691.08,165.15,691.09,165.19Z"/><path class="cls-3" d="M705.49,180.13c-.21,0,.28-3.77-.39-8.32s-2.13-8-1.93-8.1a7.44,7.44,0,0,1,1.11,2.21,26.56,26.56,0,0,1,1.5,5.79,27.11,27.11,0,0,1,.17,6A6.93,6.93,0,0,1,705.49,180.13Z"/><path class="cls-3" d="M723,162.27a5.06,5.06,0,0,1,1,2,13.94,13.94,0,0,1,.71,5.45,13.77,13.77,0,0,1-1.43,5.31,5.26,5.26,0,0,1-1.29,1.87c-.2-.1,1.8-3,2-7.22S722.83,162.34,723,162.27Z"/><path class="cls-6" d="M646.62,194.23S628,206.68,623.16,229.16c-3.84,17.66-14.35,111-14.35,111L590.4,376l12,28.59h0a43.91,43.91,0,0,0,28.88-8.25l8.08-5.87,14.84-22Z"/><polygon class="cls-6" points="678.13 177.75 646.62 194.23 639.19 218.66 632.56 289.48 645.03 372.5 623.16 442.05 660.88 442.33 661.78 401.56 665.55 269.57 669.25 185.5 678.13 177.75"/><path class="cls-3" d="M662.87,287.77a7.22,7.22,0,0,1-.59-1l-1.56-2.89c-.66-1.27-1.29-2.9-2.11-4.76-.38-.94-.7-2-1.09-3.06s-.8-2.23-1.11-3.46c-3-9.78-4.93-23.91-4.52-39.49,0-1.2.09-2.4.17-3.59v-.2l.2-.08,5.51-2.32-.08.57-5.5-4.42-.12-.1v-.13c-.26-5.87,1.16-11.15,2.5-15.75s2.91-8.58,4.24-11.85,2.49-5.81,3.32-7.55c.41-.86.74-1.53,1-2a3.08,3.08,0,0,1,.38-.66,3.74,3.74,0,0,1-.28.71l-.87,2c-.77,1.76-1.87,4.34-3.15,7.61s-2.73,7.26-4.07,11.85-2.67,9.86-2.4,15.55l-.12-.23,5.52,4.41.44.35-.52.22-5.51,2.32.21-.28c-.08,1.16-.13,2.36-.17,3.55-.41,15.51,1.47,29.58,4.3,39.33.3,1.24.7,2.38,1.06,3.47s.67,2.12,1,3.06c.78,1.85,1.37,3.49,2,4.78l1.44,2.93A7.33,7.33,0,0,1,662.87,287.77Z"/><path class="cls-3" d="M638.15,337.36a6.37,6.37,0,0,1-.3-1c-.19-.74-.44-1.72-.75-3s-.7-2.87-1.06-4.72-.85-4-1.22-6.31-.85-4.91-1.2-7.69-.71-5.74-1-8.87c-.56-6.26-.94-13.18-1-20.44s.44-14.18,1-20.45c.35-3.12.64-6.1,1.08-8.87s.81-5.34,1.23-7.68.86-4.45,1.24-6.3.75-3.43,1.08-4.72.57-2.23.76-3a5,5,0,0,1,.31-1,6.72,6.72,0,0,1-.18,1.05q-.24,1.13-.63,3c-.29,1.29-.63,2.88-1,4.74s-.79,3.95-1.14,6.3-.81,4.91-1.15,7.68-.68,5.73-1,8.85c-.55,6.25-.94,13.15-1,20.39s.37,14.13.9,20.39c.31,3.12.58,6.09,1,8.85s.73,5.34,1.11,7.68.79,4.45,1.12,6.31.67,3.45,1,4.75.47,2.25.62,3A7.27,7.27,0,0,1,638.15,337.36Z"/><path class="cls-3" d="M646.67,401.11a13.78,13.78,0,0,1-1.53,3.17,51.52,51.52,0,0,1-10.73,13.1,13.76,13.76,0,0,1-2.81,2.12,27,27,0,0,1,2.48-2.48,75.62,75.62,0,0,0,5.71-6.18,77.36,77.36,0,0,0,4.94-6.81A23.89,23.89,0,0,1,646.67,401.11Z"/><path class="cls-6" d="M791.43,192.21a43.38,43.38,0,0,1,26.64,30.84c10.3,45.43,27.94,105.86,28.21,125.36.35,24.83-10.5,41.82-24.68,45-11.2,2.48-112.8-3.08-112.8-3.08l-4.75-37.86,82.27-12.11-11.27-62.95,11.15-87.18Z"/><path class="cls-6" d="M786.2,190.19l-22.74-9.3-24-14-.15,4.11h0a24.09,24.09,0,0,1,2.86,16.67l-20,104.11,4.53,76.06L736,442.33h72.15l-33.13-77.95,11.7-105Z"/><path class="cls-3" d="M807.28,394a1.78,1.78,0,0,1-.49.07l-1.46.14c-1.28.14-3.17.13-5.62.19-4.9,0-12-.1-20.84-.39-17.69-.59-42.3-1.78-70.09-3.39h-.28l0-.28c-.56-4.51-1.16-9.27-1.77-14.1-1-8.17-2-16.13-3-23.76l0-.32.32,0L766.82,343l18.45-2.62,5-.67,1.28-.16a2.43,2.43,0,0,1,.44,0,2.39,2.39,0,0,1-.43.09l-1.28.22-4.94.78-18.41,2.82-62.79,9.36.28-.37c1,7.63,2,15.59,3,23.76.6,4.83,1.2,9.58,1.76,14.09l-.31-.29c27.78,1.63,52.39,2.9,70.06,3.61,8.84.35,15.94.54,20.83.6,2.44,0,4.34,0,5.61-.07l1.46-.08A4.72,4.72,0,0,1,807.28,394Z"/><path class="cls-3" d="M774.39,271a2.54,2.54,0,0,1,.18.7c.11.54.24,1.2.4,2l1.36,7.43c1.11,6.38,2.61,15,4.28,24.57s3,18.23,4.1,24.61c.48,3.08.88,5.61,1.17,7.47.11.82.2,1.49.28,2a2.31,2.31,0,0,1,.05.72,3.38,3.38,0,0,1-.19-.69c-.1-.54-.24-1.2-.4-2-.35-1.85-.82-4.36-1.39-7.43-1.13-6.28-2.65-15-4.29-24.57s-3.08-18.3-4.09-24.61c-.47-3.08-.86-5.61-1.14-7.47-.11-.82-.2-1.5-.28-2A3,3,0,0,1,774.39,271Z"/><path class="cls-3" d="M749.94,174.17a1.1,1.1,0,0,1,.09.26c.05.2.12.45.21.76.16.67.46,1.66.73,3a94.09,94.09,0,0,1,1.73,11.2,127.2,127.2,0,0,1,.44,17.1c-.23,6.49-.92,13.68-1.9,21.29l0,.25-.24,0-7.43,1.38.25-.46c.42,1.14.86,2.37,1.2,3.64,2.42,8.83,1.36,17.77-.85,25.24a79.45,79.45,0,0,1-8.73,18.82c-3.11,5-5.91,8.91-7.84,11.59l-2.26,3.06-.6.78a1.42,1.42,0,0,1-.23.26,2,2,0,0,1,.17-.3l.55-.82,2.15-3.14c1.86-2.72,4.61-6.63,7.65-11.68a80.85,80.85,0,0,0,8.54-18.75c2.15-7.4,3.17-16.21.8-24.88-.34-1.24-.77-2.45-1.18-3.57l-.14-.38.39-.08,7.44-1.37-.27.29c1-7.6,1.71-14.77,2-21.24a134.18,134.18,0,0,0-.28-17,101.94,101.94,0,0,0-1.54-11.19c-.23-1.31-.48-2.3-.61-3l-.15-.78A.89.89,0,0,1,749.94,174.17Z"/><path class="cls-12" d="M749.93,281V264.35s.22-4.1-3.23-3.23-2.81,7.33-2.81,7.33-.64,25.24.87,25,2.09-2.16,2.09-2.16v-9.7Z"/><path class="cls-3" d="M764.29,282c0,.18-4,.34-8.9.34s-8.9-.16-8.9-.34,4-.35,8.9-.35S764.29,281.81,764.29,282Z"/><path class="cls-3" d="M797.15,202.07a12.43,12.43,0,0,1-1.86.69,44.42,44.42,0,0,0-4.93,2.13A38.25,38.25,0,0,0,777,216.27a27.63,27.63,0,0,0-2.63,4.27,28.79,28.79,0,0,0-1.58,4.4,45.06,45.06,0,0,0-1.32,7.85c-.19,2.27-.23,4.11-.25,5.38a18.36,18.36,0,0,1,0,2,8.42,8.42,0,0,1-.22-2,49.61,49.61,0,0,1,0-5.43,41.28,41.28,0,0,1,1.2-8,26.5,26.5,0,0,1,1.58-4.52,27.9,27.9,0,0,1,2.68-4.39,36.87,36.87,0,0,1,13.68-11.41,35.58,35.58,0,0,1,5.07-2A9.64,9.64,0,0,1,797.15,202.07Z"/><polygon class="cls-3" points="504.3 340.15 623.16 384.17 723.35 399.49 604.23 341.41 504.3 340.15"/><path class="cls-8" d="M555.17,387.62a50.92,50.92,0,0,0-6.33-18,13.14,13.14,0,0,1-1.62-3.38,3.87,3.87,0,0,1,.67-3.55c1.52-1.66,4.31-.92,6.19.33,3.88,2.6,6.48,6.79,8,11.21A64.53,64.53,0,0,1,564.7,388"/><path class="cls-8" d="M601.49,376.3h-5.91a11.54,11.54,0,0,0-5.18-3c-1.36-.39-2.7.34-3.91,1.53,2.64-4.36,5.49-9.15,6-10.46,1.06-2.55-1.28-4.47-5.11-4.47s-20.63,23.83-20.63,23.83,10.44-19.17,11.45-22.09c2.53-7.32-5.47-7.87-8.37-4.34-3.61,4.38-18.19,26.43-18.19,26.43s-2.76,4.46-.85,8.72,7.45,2.55,7.45,2.55a7.13,7.13,0,0,0,3.9,5.92c4.27,2.37,9.88-.38,9.88-.38l21.74,4.88,7.87-.78a24.15,24.15,0,0,0,21.49-20.49h0Z"/><path class="cls-9" d="M586.84,374.52c.24.14-2.65,4.7-6.4,10.15-1.88,2.73-3.62,5.18-4.91,6.93a17.55,17.55,0,0,1-2.2,2.75,18.16,18.16,0,0,1,1.81-3c1.18-1.82,2.86-4.31,4.74-7s3.6-5.19,4.86-7l1.51-2.09A4.4,4.4,0,0,1,586.84,374.52Z"/><path class="cls-9" d="M585.54,398.77a19.87,19.87,0,0,1,1.93-3.56c1.28-2.14,3.11-5.06,5.13-8.29,1-1.62,2-3.16,2.75-4.59a5.28,5.28,0,0,0,.48-4,10,10,0,0,0-1.86-3.46s.36.18.85.7a7.06,7.06,0,0,1,1.47,2.63,5.65,5.65,0,0,1-.39,4.46c-.78,1.48-1.72,3-2.73,4.64-2,3.24-3.91,6.12-5.3,8.2A29.23,29.23,0,0,1,585.54,398.77Z"/><path class="cls-9" d="M597,400.94a12.53,12.53,0,0,1,1.16-3.4l1.55-3.54a28.21,28.21,0,0,0,1.6-4.39,5.16,5.16,0,0,0-.69-4.25,4,4,0,0,0-1.55-1.1,4.54,4.54,0,0,0-1.62-.46,6.61,6.61,0,0,0-2.35.82c-.55.28-.87.41-.89.37s.25-.25.76-.6a9.44,9.44,0,0,1,1-.58,3.49,3.49,0,0,1,1.49-.49,4.72,4.72,0,0,1,1.86.42,4.57,4.57,0,0,1,1.81,1.23,5.61,5.61,0,0,1,.86,4.79,24.84,24.84,0,0,1-1.69,4.5c-.61,1.32-1.2,2.5-1.69,3.48C597.58,399.71,597.06,401,597,400.94Z"/><path class="cls-9" d="M601,380.36a2.29,2.29,0,0,1,.92.28,10.6,10.6,0,0,1,2.27,1.33,12.4,12.4,0,0,1,3.52,15.77,10.73,10.73,0,0,1-1.49,2.17c-.42.46-.69.68-.72.65s.87-1.07,1.78-3a12.57,12.57,0,0,0-3.39-15.17C602.22,381,600.92,380.47,601,380.36Z"/><path class="cls-9" d="M562.69,367.86c.16.11-2.05,3.63-4.92,7.88s-5.33,7.6-5.48,7.5,2-3.64,4.92-7.88S562.54,367.76,562.69,367.86Z"/><path class="cls-8" d="M703.69,353.85l-13.59-3.08-13.05-12.29a9.22,9.22,0,0,0-5.82-2.5l-23.74-1.37a9.24,9.24,0,0,0-6.51,2.17l-17,14.35,74,36.1,10.17.9Z"/><path class="cls-9" d="M663.44,347.51c0,.11-1.76-.21-4.58-.57s-6.84-.69-10.75,1.12a28,28,0,0,0-5.13,3.2c-1.5,1.13-2.85,2.17-4,3a21.64,21.64,0,0,1-2.93,1.71,4,4,0,0,1-1.18.43c0-.11,1.57-.82,3.84-2.53,1.14-.84,2.44-1.92,3.93-3.08a26,26,0,0,1,5.23-3.32,15.23,15.23,0,0,1,6.06-1.36,27.67,27.67,0,0,1,5,.38c1.41.23,2.54.49,3.32.68A4.56,4.56,0,0,1,663.44,347.51Z"/><path class="cls-9" d="M668.31,360.73c0,.11-1-.32-2.57-.48a13.6,13.6,0,0,0-6.1.85A31.58,31.58,0,0,0,654,364a11,11,0,0,1-2.31,1.29,9.4,9.4,0,0,1,2-1.69,24,24,0,0,1,5.62-3.11,12.53,12.53,0,0,1,6.41-.69A5,5,0,0,1,668.31,360.73Z"/><path class="cls-9" d="M698.87,362.93c-.17.1-2.08-2.74-4.6-6.11s-4.69-6-4.54-6.16,2.55,2.34,5.08,5.75S699,362.83,698.87,362.93Z"/><path class="cls-5" d="M661.47,336l30.11-28a2.88,2.88,0,0,0-.21-4.39h0a2.88,2.88,0,0,0-3.67.14l-35.3,31.66"/><g class="cls-11"><path d="M661.47,336l30.11-28a2.88,2.88,0,0,0-.21-4.39h0a2.88,2.88,0,0,0-3.67.14l-35.3,31.66"/></g><polygon class="cls-3" points="237.1 440.54 199.45 440.54 199.45 438.96 237.1 440.54"/><path class="cls-6" d="M377.39,204.2s14,5.48,20.46,26c4.5,14.25,25.58,120.29,25.58,120.29l-29.38,19.37-11.94-99.2Z"/><path class="cls-6" d="M398,440.54h-199c.2-10.57.3-22.15.21-34.09-.06-8.61-.16-17.54-.27-26.63,0-.51,0-1,0-1.53v0c0-.71,0-1.45,0-2.16v0c-1.05-80.38-3.75-171.89-3.75-171.89a.65.65,0,0,1,.17-.39,1.88,1.88,0,0,1,.19-.2l.11-.12.1-.09a.35.35,0,0,1,.1-.1c4.77-4.32,34-19.71,50.08-28h0l3.45-1.79h0l5.29-2.72.32-.16,1.45-.74.89-1.58,8.31-14.76.38.11,45.41,12.49h0l13.6,3.75,2.5.68.5.41,2.05,1.66,11.37,9.24.49.4h0l4,8.18h0l3.2,1.42h0l28.16,12.32L379.82,232v0l.6,6.92.45,5.26,1.52,17.28.81,9.26v0l.1,1.32h0l.83,9.41.12,1.33,1.16,13.26.1,1.18,0,.13.49,5.74,0,.48v0l.16,1.76.56,6.4,1.43,16.36v0l2.16,24.79,1.22,13.83v0Z"/><path class="cls-6" d="M350.15,440.54h-1.36c-1.32-22.66-2.51-44-3.51-63.35-.42-7.84-.81-15.35-1.18-22.46,0-.11,0-.2,0-.29,0-.48,0-1-.08-1.46-.07-1.34-.13-2.66-.2-4,0-.47-.05-.95-.06-1.42-.12-2.33-.24-4.63-.34-6.88s-.21-4.37-.31-6.47c-.82-17.38-1.44-31.43-1.78-41.15,0-.45,0-.88,0-1.3,0-.18,0-.35,0-.52,0-.44,0-.89,0-1.3-.12-3.34-.23-6-.29-8.08,0-1.22-.05-2.18-.07-2.9a4.05,4.05,0,0,1,0-1,4.18,4.18,0,0,1,.12,1c0,.71.1,1.68.19,2.91q.17,3,.45,7.91c0,.41,0,.84.06,1.29a4.53,4.53,0,0,1,0,.52c0,.47.06,1,.09,1.45.52,9.79,1.28,23.82,2.21,41.13.1,1.81.21,3.66.31,5.54q.19,3.33.39,6.81c0,.47.06.94.1,1.41q.11,2.19.24,4.44c0,.47.06,1,.1,1.45,0,.09,0,.18,0,.29q.63,10.88,1.32,22.91C347.63,396.41,348.86,417.82,350.15,440.54Z"/><polygon class="cls-5" points="327.57 170.56 332.74 206.28 341.99 278 301.68 208.82 266.68 162.97 324.34 203.37 325.08 169.88 327.57 170.56"/><path class="cls-6" d="M256.19,172a17.8,17.8,0,0,0,1.11,2.81l3.45,7.74c3.11,6.78,7.42,16.14,12.5,27.21l.16.34h.39l8.42,0-.4-1.13-6.19,5.07-.57.46.53.51,11.73,11.49L325,263.14l11.53,11,3.18,2.93a6.78,6.78,0,0,0,1.18,1,6.68,6.68,0,0,0-1-1.15l-3-3.12-11.23-11.27-37.42-36.85L276.5,214.15l0,1,6.16-5.1,1.37-1.13h-1.77l-8.42,0,.55.35c-5.27-11-9.73-20.28-13-27l-3.76-7.59A19.2,19.2,0,0,0,256.19,172Z"/><path class="cls-6" d="M342,278a28.33,28.33,0,0,0,.81-4.44c.43-3.09,1-7.2,1.71-12.17,1.39-10.28,3.21-24.5,5.14-40.21.62-5.07,1.21-10,1.78-14.64l.07-.58-.56-.13-10.11-2.4,0,1.18L351,202.79l.67-.12-.28-.61-6.68-14.5c-.76-1.58-1.39-2.89-1.91-3.95a5.46,5.46,0,0,0-.76-1.34,5.9,5.9,0,0,0,.48,1.46c.44,1.1,1,2.44,1.65,4.07l6.26,14.69.39-.74-10.18,1.67-2.9.48,2.86.7,10.08,2.49-.49-.71L348.32,221c-1.93,15.71-3.61,29.94-4.75,40.26-.53,5-1,9.11-1.29,12.22A30,30,0,0,0,342,278Z"/><path class="cls-3" d="M398.38,440.54h-.88c0-.43-.1-.87-.13-1.32-1.78-18.76-4.09-43.8-6.56-71.7-.36-4-.71-8.09-1.08-12.21-.1-1.25-.22-2.5-.32-3.75-.67-7.64-1.31-15.1-1.92-22.32-.51-5.92-1-11.67-1.47-17.21-.17-2-.32-4-.49-6-.06-.58-.11-1.17-.15-1.76q-.27-3.27-.52-6.4c0-.21,0-.42-.05-.63,0-.43-.08-.86-.11-1.29-.32-4-.64-7.88-.92-11.58a.36.36,0,0,1,0-.15c-.05-.53-.09-1.05-.13-1.58s-.06-.87-.1-1.3c-.25-3.27-.5-6.41-.72-9.37,0-.23,0-.45-.05-.67l-.06-.67c-.24-3.28-.48-6.37-.69-9.25-.44-6.27-.8-11.52-1-15.56,0-.59-.07-1.15-.11-1.69-.11-2.21-.17-4-.21-5.25,0-.65,0-1.19,0-1.65v-.15a2.93,2.93,0,0,1,0-.62c.24,2.71,1,11.48,2.18,25,.25,2.88.53,6,.83,9.29,0,.45.06.89.1,1.35q.39,4.48.83,9.45c0,.44.07.89.11,1.34.37,4.18.75,8.6,1.15,13.23,0,.22,0,.45.07.69s0,.42.05.64c.17,1.87.33,3.78.51,5.72,0,.59.09,1.18.14,1.78.21,2.39.42,4.82.64,7.31.12,1.38.24,2.78.37,4.19q.47,5.43,1,11.15,1.09,12.42,2.27,26c.05.54.09,1.07.14,1.61q.5,5.67,1,11.2c.26,3,.51,5.89.76,8.78l.09,1c.13,1.53.26,3.05.39,4.55,1.95,22.49,3.69,42.62,5,58.41C398.31,439.61,398.35,440.08,398.38,440.54Z"/><path class="cls-6" d="M433.2,352.79a31.1,31.1,0,0,1,1,10.55c-.51,5.41-.77,18.71-15.18,23.25s-21.41.22-25.86-5.89L391,354.23,406.44,344Z"/><g class="cls-11"><path d="M312.72,369.82s-36.87,36.43-65.51,41.68-38.87-5-46.49-30.59Z"/></g><path class="cls-6" d="M195.86,203.29S172.43,225,179.1,276.43c6.2,47.77,17.2,114.31,31.87,122s46.32,3.86,69.48-9.26,90.32-48.64,90.32-48.64L343,291.16l-89.55,34.73S241.85,246.66,234.9,233Z"/><path class="cls-3" d="M234.62,231.92s.25.5.7,1.52c.21.5.5,1.13.8,1.89s.54,1.69.87,2.71c1.32,4.1,2.89,10.26,4.6,18.27,3.45,16,7.62,39.37,12,68.43l-.65-.38,89.5-34.87.5-.19.27.47,27.82,49.38.33.59-.6.32L313.37,371l-28.16,15.16c-4.62,2.47-9.23,5.07-14,7.13a118.55,118.55,0,0,1-14.64,5.07,95.73,95.73,0,0,1-29.87,3.46,43.85,43.85,0,0,1-14.36-3l-1.68-.75a14.4,14.4,0,0,1-1.61-1,16.64,16.64,0,0,1-2.61-2.63,35.88,35.88,0,0,1-3.79-6.09c-4.2-8.49-6.68-17.35-9-25.92s-4-17-5.64-25.2c-3.17-16.36-5.52-31.7-7.49-45.72s-3.69-26.78-3.17-38.08A94.92,94.92,0,0,1,182.44,225a62.77,62.77,0,0,1,8.49-16.12,35.34,35.34,0,0,1,3.07-3.62,10.07,10.07,0,0,1,1.2-1.09s-.39.39-1.1,1.18a40.47,40.47,0,0,0-2.95,3.69,64.16,64.16,0,0,0-8.21,16.14,95,95,0,0,0-4.83,28.22c-.45,11.22,1.33,23.92,3.36,37.92s4.43,29.31,7.64,45.63c1.63,8.15,3.44,16.56,5.7,25.12s4.8,17.35,8.94,25.66a33.9,33.9,0,0,0,3.66,5.87A15.14,15.14,0,0,0,209.8,396c.48.29.9.64,1.42.89l1.6.71a42.79,42.79,0,0,0,14,2.89,94.53,94.53,0,0,0,29.45-3.45,117.22,117.22,0,0,0,14.45-5c4.73-2,9.23-4.58,13.88-7.07l28.17-15.17,57.46-30.93-.27.91c-9.65-17.2-19-33.79-27.75-49.43l.76.28-89.6,34.61-.56.21-.09-.59c-4.29-29.06-8.31-52.44-11.6-68.46-1.63-8-3.11-14.19-4.34-18.3-.3-1-.57-1.93-.81-2.72l-.73-1.91C234.79,232.47,234.62,231.92,234.62,231.92Z"/><rect class="cls-6" x="266.68" y="276.39" width="44.44" height="14.8" transform="translate(577.8 567.58) rotate(180)"/><path class="cls-3" d="M275.88,282.89c0-.35,6.21-.64,13.86-.64s13.86.29,13.86.64-6.2.65-13.86.65S275.88,283.25,275.88,282.89Z"/><g class="cls-11"><polygon points="339.73 277.04 274.33 223.98 275.88 219.34 270.18 219.34 260.75 182.58 274.35 209.28 282.22 208.9 276.5 214.15 339.73 277.04"/></g><path class="cls-10" d="M258.93,216.55l2.39-1c-.06-.13-5.38-12.91-10.63-26.45-2.08-5.37-2.83-9.85-2.22-13.31a6.18,6.18,0,0,1,6.26-5l1.73-.91.9-1.58c-4.58-1-10.71,2.84-11.44,7.08-.68,3.93.11,8.87,2.36,14.68C253.54,203.62,258.88,216.42,258.93,216.55Z"/><path class="cls-10" d="M255.09,246.42l3.28-1.28c-2.69-6.94-6.38-19.23-4.79-22.69,1-2.1,3.73-3.93,7.07-4.67A11.82,11.82,0,0,1,271,219.89c3.77,3.18,9.45,14.43,11.32,18.49l3.21-1.47c-.29-.63-7.12-15.37-12.25-19.71a15.29,15.29,0,0,0-13.36-2.86c-4.44,1-8.08,3.53-9.51,6.64C247.71,226.79,253.83,243.19,255.09,246.42Z"/><path class="cls-3" d="M290.59,300.05c4.07,0,8.06-2.17,11.89-6.49l-1.32-1.17c-4.22,4.75-8.55,6.64-12.88,5.63-17.58-4.14-31-53-31.09-53.48l-1.71.46c.56,2.05,13.8,50.36,32.4,54.73A11.46,11.46,0,0,0,290.59,300.05Z"/><path class="cls-3" d="M299.1,295.58h0a2.11,2.11,0,0,0,2.74.19l3.82-2.84a2.52,2.52,0,0,0,.71-3.51h0a2.53,2.53,0,0,0-3.89-.39l-3.43,3.58A2.11,2.11,0,0,0,299.1,295.58Z"/><path class="cls-3" d="M283.12,301.65c5.44,0,9.46-1.8,12-5.35,10.81-15.17-9.57-57.26-10.44-59l-1.59.77c.21.43,20.8,42.93,10.59,57.24-2.66,3.73-7.33,5.21-13.89,4.4l-.22,1.74A27.85,27.85,0,0,0,283.12,301.65Z"/><path class="cls-3" d="M283.44,300.7h0a2.1,2.1,0,0,1-1.93,1.95l-4.74.39a2.52,2.52,0,0,1-2.86-2.16h0a2.53,2.53,0,0,1,2.67-2.86l4.93.42A2.1,2.1,0,0,1,283.44,300.7Z"/><circle class="cls-3" cx="368.08" cy="236.5" r="12.57"/><circle class="cls-3" cx="368.08" cy="236.5" r="12.57"/><path class="cls-7" d="M358.79,236.5a9.29,9.29,0,1,0,9.29-9.29A9.28,9.28,0,0,0,358.79,236.5Z"/><path class="cls-10" d="M341.42,181.76c1.17,1.71,14.31,29.43,21.49,43.4l2.1-1.08c-1.06-2.05-20.15-41.46-21.64-43.65L329.47,169l-.49,2.64Z"/><path class="cls-3" d="M336.14,236.18c9.1,9.08,32.13,32.71,32.13,32.71l6.17-3.71L342,230.53a4.07,4.07,0,0,0-5.21-.61h0A4.07,4.07,0,0,0,336.14,236.18Z"/><path class="cls-8" d="M342.7,290.07l7.73-21.79a12.27,12.27,0,0,1,11.16-8.38,11.51,11.51,0,0,1,1.18.06c4.63.52,28.3,2.06,28.3,2.06l9.17,10.27a4.75,4.75,0,0,1,.1,6.2h0L403,297l-5.21,3.52.52,12.95s-4.63,3.08-6.69,2.05l-2.06-1-3.09-3.09-8.75,12.35-12.1,7Z"/><path class="cls-9" d="M400.37,279.48c-.2.1-1-1.67-3.32-3.61a15.39,15.39,0,0,0-4.42-2.66c-1.78-.6-4.06-.61-6.4-.87-9.37-.88-16.93-1.89-16.9-2.26s7.66,0,17,.92c2.32.27,4.59.29,6.68,1a14.57,14.57,0,0,1,4.65,3.13C400,277.43,400.51,279.45,400.37,279.48Z"/><path class="cls-9" d="M399.86,296.52c-.25,0-.35-2-1.91-4.74a18.47,18.47,0,0,0-9.15-7.67,34.51,34.51,0,0,0-12.11-2c-3.19-.05-5.19,0-5.21-.17s1.95-.59,5.2-.78a30,30,0,0,1,12.62,1.73,17.81,17.81,0,0,1,9.49,8.48C400.24,294.38,400,296.55,399.86,296.52Z"/><path class="cls-9" d="M397.53,312.41c-.2.1-1-1.87-1.24-5.1a16.87,16.87,0,0,0-1.16-5.31,6.56,6.56,0,0,0-4.86-3.69c-4.64-1.24-9.12-1.31-12.32-1.78s-5.16-1-5.12-1.19,2,.1,5.2.25,7.7.12,12.59,1.42a9.78,9.78,0,0,1,3.47,1.59,7.05,7.05,0,0,1,2.17,2.9,15.92,15.92,0,0,1,1,5.74C397.24,310.46,397.68,312.35,397.53,312.41Z"/><polygon class="cls-10" points="410.43 271.5 308.35 376.92 312.28 380.91 385.41 372.67 483.82 278.93 483.71 274.41 410.43 271.5"/><g class="cls-11"><path d="M429.56,320.68a23.29,23.29,0,0,0-17.92-6A32.93,32.93,0,0,0,394,322.14c-4.07,3.27-7.61,7.51-8.79,12.59-2.08,8.87,5.22,21.26,13.25,25.55h0c10.19-8.18,20.1-20.73,30.29-28.91,1.52-1.22,3.14-2.6,3.53-4.51C432.72,324.56,431.24,322.31,429.56,320.68Z"/></g><path class="cls-3" d="M483.42,278.72a5.62,5.62,0,0,1-1.35.08h-3.89l-14.64-.17-50.88-1,.47-.19L387.55,304l-53,54.58L318.35,375l-4.45,4.42a14.22,14.22,0,0,1-1.62,1.48,13.13,13.13,0,0,1,1.42-1.67l4.27-4.6c3.84-4,9.24-9.73,15.87-16.73l52.75-54.85,25.63-26.47.2-.2h.27l50.87,1.46,14.63.53,3.89.2A7.08,7.08,0,0,1,483.42,278.72Z"/><path class="cls-8" d="M419.53,309.65s9.9.19,13.12,1.8,12.1,11.07,12.1,11.07,0,6.43-2.58,6.69a24.1,24.1,0,0,1,.52,4.37c.25,3.6.77,5.66-4.12,8.75,0,0,.51,5.92-1.29,7.46a35.5,35.5,0,0,1-3.86,2.83s-.28,6.52-9,6.44l-8.18,3.6S398,361,400,358.82,406.25,346,406.25,346s-12.45-9.07-12.2-11.9,1.29-3.09,1.29-3.09-.52-5.41,3.86-5.92c0,0,3.34-6.69,6.69-6.95s26,8,26,8l-8.49-7.21s-8.49-1.28-8.24-4.11S419.53,309.65,419.53,309.65Z"/><path class="cls-9" d="M418,343.55c-.2.33-5.15-2.53-11.48-5.58s-11.64-5.16-11.51-5.53,5.69,1.21,12.09,4.32S418.22,343.26,418,343.55Z"/><path class="cls-9" d="M429.81,335.67c-.13.35-6.74-1.8-14.77-4.79s-14.43-5.7-14.3-6.05,6.74,1.8,14.77,4.79S429.94,335.32,429.81,335.67Z"/><path class="cls-3" d="M268.72,107.78c-3-11.28-6-22.65-7.08-34.29s-.07-23.67,4.56-34.41c.7-1.62,6.53-12.48,8.28-12.21,1.25.18-2.52,10.4-1.94,11.52,5.54,10.75,6.54,23.38,4.95,35.36a158.53,158.53,0,0,1-8.77,34Z"/><path class="cls-8" d="M269.86,63.19c.56-29.31,18.08-53.42,47.36-52l2.7.29a52.39,52.39,0,0,1,46.9,53.39c-.62,25.4-1.64,53.46-3.23,67-3.29,27.94-31.73,29.34-31.73,29.34s-6.46,43.09-6.46,43.09l-59.73-41.48Z"/><path class="cls-9" d="M331.86,161.32s-17.74-.82-35.28-14.6c0,0,5.59,23.92,33.76,24.34Z"/><path class="cls-3" d="M356.16,88.22a4,4,0,0,1-4.28,3.62,3.84,3.84,0,0,1-3.74-4,4,4,0,0,1,4.28-3.63A3.84,3.84,0,0,1,356.16,88.22Z"/><path class="cls-3" d="M359.62,75.8c-.55.47-3.34-2.09-7.64-2.53s-7.68,1.37-8.09.8c-.2-.26.4-1.15,1.88-2a11.08,11.08,0,0,1,6.54-1.29,10.59,10.59,0,0,1,6,2.67C359.54,74.6,359.89,75.59,359.62,75.8Z"/><path class="cls-3" d="M319.39,86.5a4,4,0,0,1-4.28,3.62,3.83,3.83,0,0,1-3.73-4,4,4,0,0,1,4.27-3.63A3.84,3.84,0,0,1,319.39,86.5Z"/><path class="cls-3" d="M317.33,73.1c-.55.47-3.34-2.09-7.64-2.53s-7.68,1.38-8.09.8c-.2-.26.4-1.14,1.88-2A11.08,11.08,0,0,1,310,68.08a10.66,10.66,0,0,1,6,2.67C317.25,71.9,317.6,72.89,317.33,73.1Z"/><path class="cls-3" d="M329.27,107.76c0-.25,2.73-.43,7.11-.53,1.11,0,2.18-.1,2.44-.83s0-2-.39-3.33l-2.36-8.7c-3.26-12.38-5.49-22.51-5-22.64s3.54,9.81,6.79,22.18l2.23,8.74c.28,1.29.85,2.78.11,4.37a2.74,2.74,0,0,1-2,1.41,7.26,7.26,0,0,1-1.89.06C332,108.27,329.26,108,329.27,107.76Z"/><path class="cls-3" d="M316.3,109.4c.71,0,.23,4.7,3.87,8.43s8.67,3.74,8.63,4.4c0,.3-1.2.79-3.3.63a11.73,11.73,0,0,1-7.24-3.41,10.2,10.2,0,0,1-2.94-7C315.35,110.44,316,109.34,316.3,109.4Z"/><path class="cls-3" d="M318.93,55.63c-.54,1.13-4.78.12-9.88.2s-9.34,1-9.9-.1c-.24-.53.58-1.56,2.35-2.52a17.23,17.23,0,0,1,15.07-.07C318.34,54.08,319.17,55.1,318.93,55.63Z"/><path class="cls-3" d="M359.35,61.32c-.86.9-3.71-.43-7.27-.85s-6.64,0-7.23-1.13c-.25-.53.33-1.46,1.74-2.24a10.58,10.58,0,0,1,11.69,1.6C359.43,59.83,359.73,60.88,359.35,61.32Z"/><path class="cls-8" d="M270,84.14c-.45-.25-18.62-7.71-20,11.48s18.14,16.64,18.22,16.09S270,84.14,270,84.14Z"/><path class="cls-9" d="M262.83,104c-.08-.06-.35.21-.94.43a3.34,3.34,0,0,1-2.5-.13c-2-.89-3.44-4.24-3.28-7.7a11.22,11.22,0,0,1,1.28-4.72,3.88,3.88,0,0,1,2.71-2.38,1.69,1.69,0,0,1,1.9,1.06c.22.55.07.93.17,1s.43-.29.34-1.1a2.1,2.1,0,0,0-.67-1.25,2.55,2.55,0,0,0-1.81-.63c-1.49,0-2.92,1.26-3.71,2.72a11.46,11.46,0,0,0-1.55,5.27c-.16,3.87,1.55,7.63,4.27,8.64a3.59,3.59,0,0,0,3.09-.28C262.76,104.47,262.89,104.05,262.83,104Z"/><path class="cls-3" d="M356.45,32.21C359.67,30.7,351,20,343.58,16.08c-11.21-6-28.62-10.34-39.46-8-13,2.8-24.1,8.49-31.28,19.74s-10.48,24.68-11,38c-.15,4.07,0,8.33,1.95,11.91,2.41,4.41,7.38,7.42,6.78,13.26a8,8,0,0,0,1.62,6c3.27,4,7.79.73,10-2.66,4.7-7.25,5.75-16.2,6.67-24.79.66-6.11,1.31-12.35,0-18.34-.73-3.26-2-6.38-2.59-9.68s-.22-7,2-9.5a12.09,12.09,0,0,1,1.66-1.47A20.06,20.06,0,0,1,310,28c10.57,4.52,28.66,11.43,33.72,8.07,7.28-4.84,9.16-8.17,9.16-8.17Z"/><rect class="cls-13" y="440.54" width="1023.56" height="2.57" rx="0.98"/></svg>