<svg id="Layer_1" data-name="Layer 1" xmlns="http://www.w3.org/2000/svg" xmlns:xlink="http://www.w3.org/1999/xlink" viewBox="0 0 361.49 198.32"><defs><style>.cls-1{fill:none;}.cls-2{fill:#263238;}.cls-3{fill:#ffbe9d;}.cls-4{fill:#eb996e;}.cls-5{fill:#e0e0e0;}.cls-6{fill:#ff725e;}.cls-7{fill:#455a64;}.cls-8{fill:#fff;}.cls-9{clip-path:url(#clip-path);}.cls-10{fill:#a05544;}.cls-11{fill:#f2f2f2;}.cls-12{fill:#fdfbec;}.cls-13{fill:#d07e5d;}.cls-14{fill:#9b4731;}.cls-15{fill:#e97f5b;}</style><clipPath id="clip-path"><path class="cls-1" d="M212.09,145.35c0,60.62-81.71,52.17-142.33,52.17C11.93,179.34-18.62,112.67-.44,54.84,10.32,20.62,37.13-6.19,69.76-22,130.38-22,212.09,84.73,212.09,145.35Z"/></clipPath></defs><path class="cls-2" d="M269.76,70.32c-.34,2.84-1.46,7.14-2.6,9a13.92,13.92,0,0,0-1.77,6c-.43,3.78,2.48,7.66,1.08,11.2-.8,2-2.93,3.73-2.46,5.84a3.56,3.56,0,0,0,2.4,2.38,10,10,0,0,0,3.49.35l11.86-.14c2.12,0,4.54-.18,5.88-1.83A7.15,7.15,0,0,0,288.85,99q1.11-12.71,1.31-25.47Z"/><path class="cls-3" d="M235.57,99.25a4.76,4.76,0,0,0-2.78,1,3.89,3.89,0,0,0-1.11,2.53A8.69,8.69,0,0,0,233,109l4.89,8.87-.3,3.1,13.17.68-.07-7.54s.7-2.51,1-3.49a22,22,0,0,0,.37-3.89s-1.19-7-.77-10.21-1.1-12-1.75-14.57-3-1.07-3.24,1,.76,6.79,0,10.76c0,0-.35,1.31-1.05.4a3.21,3.21,0,0,0-4.35.46,3.47,3.47,0,0,0-.72,1.32c-.14.48-.4,1.1-.74,1a3.31,3.31,0,0,0-2.11,0C236.31,97.37,235.57,99.25,235.57,99.25Z"/><path class="cls-3" d="M240.31,97.6q-.18,4.5-.35,9a5.42,5.42,0,0,0,.34,2.67,2.06,2.06,0,0,0,2.29,1.19,2,2,0,0,0,1.2-1.24,5.6,5.6,0,0,0,.23-1.73,112.21,112.21,0,0,1,1-11.44"/><path class="cls-4" d="M245,96.05a1.5,1.5,0,0,1,0,.3c0,.23-.05.51-.09.86-.07.78-.18,1.85-.3,3.14s-.24,2.92-.33,4.68c0,.88-.09,1.81-.12,2.77a4.7,4.7,0,0,1-.24,1.49,2.16,2.16,0,0,1-1,1.2,1.76,1.76,0,0,1-1.58,0,2.53,2.53,0,0,1-1.1-1.07,5.31,5.31,0,0,1-.39-2.78c.08-1.76.16-3.34.22-4.69s.13-2.37.17-3.16c0-.35,0-.63.06-.86a1.5,1.5,0,0,1,0-.3.76.76,0,0,1,0,.3v.86c0,.79-.05,1.86-.08,3.17s-.1,2.93-.15,4.69a5.17,5.17,0,0,0,.36,2.64,2.27,2.27,0,0,0,1,.94,1.48,1.48,0,0,0,1.33,0,1.86,1.86,0,0,0,.89-1,4.71,4.71,0,0,0,.22-1.4c0-1,.08-1.89.14-2.77.1-1.77.24-3.35.39-4.68s.28-2.41.39-3.15c.06-.37.1-.65.14-.85A.93.93,0,0,1,245,96.05Z"/><path class="cls-3" d="M250.23,105.67c-1-.35-2.67-1.45-3.65-1.94a2.47,2.47,0,0,0-2.34-.21,2,2,0,0,0-.8,1.82,4.58,4.58,0,0,0,.92,2.46,4.4,4.4,0,0,0,.66.77,3.62,3.62,0,0,0,.86.53.6.6,0,0,1,.25.19,2.42,2.42,0,0,1,.18.75,4.09,4.09,0,0,0,1,1.75,3.34,3.34,0,0,0,.33.32"/><path class="cls-4" d="M247.6,112.11s0,0-.14-.1a2.37,2.37,0,0,1-.37-.34,4.09,4.09,0,0,1-.88-1.61,2.21,2.21,0,0,0-.11-.58.35.35,0,0,0-.14-.2,1.47,1.47,0,0,0-.28-.14,3.22,3.22,0,0,1-1.16-.91,4.73,4.73,0,0,1-1.22-3.1,2.13,2.13,0,0,1,.72-1.62,1.84,1.84,0,0,1,1.62-.27,5.44,5.44,0,0,1,1.36.57c.39.22.75.44,1.08.64.65.4,1.19.71,1.56.91a4.75,4.75,0,0,1,.59.31,1.85,1.85,0,0,1-.64-.21c-.39-.17-.94-.46-1.61-.84l-1.1-.6a5.39,5.39,0,0,0-1.29-.53,1.62,1.62,0,0,0-1.4.24,1.88,1.88,0,0,0-.61,1.41,4.61,4.61,0,0,0,1.14,2.92,2.89,2.89,0,0,0,1.07.86c.09.06.2.09.31.17a.64.64,0,0,1,.21.32c.06.23.06.43.1.6a4.13,4.13,0,0,0,.77,1.59A5.17,5.17,0,0,1,247.6,112.11Z"/><path class="cls-4" d="M249.88,97.65a8,8,0,0,1-4.83,3.56,26,26,0,0,0,2.59-1.54A28.55,28.55,0,0,0,249.88,97.65Z"/><path class="cls-4" d="M241.43,110.46l.09.16a2.84,2.84,0,0,1,.17.49,1.5,1.5,0,0,1,0,.84,1.1,1.1,0,0,1-.86.71,3.13,3.13,0,0,1-2.63-1,7.93,7.93,0,0,1-1.7-3,20.22,20.22,0,0,1-.95-3.34,10.73,10.73,0,0,1-.16-2.83,8,8,0,0,1,.38-1.87,2.18,2.18,0,0,1,.29-.64,10.86,10.86,0,0,0-.47,2.53,11.19,11.19,0,0,0,.22,2.77,22.15,22.15,0,0,0,1,3.28,7.72,7.72,0,0,0,1.62,2.94,3,3,0,0,0,2.4,1,1,1,0,0,0,.75-.57,1.44,1.44,0,0,0,0-.77C241.51,110.7,241.41,110.47,241.43,110.46Z"/><path class="cls-4" d="M239.63,99.64c.08,0,.07,1,.2,2.3a19.69,19.69,0,0,1,.23,2.3,6.16,6.16,0,0,1-.52-2.27A6.51,6.51,0,0,1,239.63,99.64Z"/><path class="cls-4" d="M237.83,111a1.48,1.48,0,0,1-.6.29,2.55,2.55,0,0,1-1.59-.13,3,3,0,0,1-1.29-1c-.25-.33-.32-.58-.29-.59a5.46,5.46,0,0,1,.44.46,3.83,3.83,0,0,0,1.24.82,3.15,3.15,0,0,0,1.46.2A2.61,2.61,0,0,1,237.83,111Z"/><path class="cls-5" d="M279.69,94.05s-10.53,3.64-13.14,9.69c-.45,1.05-10.9,27.74-10.9,27.74l-17.26,25s4.49,14.81,19.6,14.17c0,0,4.95,0,10.73-9,5.11-7.94,8.24-22.36,8.24-22.36Z"/><polygon class="cls-5" points="238.39 156.52 232.5 120.59 253.73 116.98 261.98 157.02 238.39 156.52"/><path class="cls-2" d="M259.8,149a1.19,1.19,0,0,1-.1-.32c-.06-.24-.13-.55-.23-.92-.19-.81-.44-2-.74-3.41-.59-2.89-1.32-6.9-2.07-11.33s-1.44-8.45-2-11.34L254,118.2c-.07-.38-.13-.69-.17-.93a.92.92,0,0,1,0-.33,1.7,1.7,0,0,1,.1.32,5.35,5.35,0,0,0,.22.92c.19.8.45,2,.74,3.41.6,2.89,1.32,6.9,2.07,11.33s1.45,8.44,2,11.34l.65,3.42c.07.38.13.69.17.94A1.62,1.62,0,0,1,259.8,149Z"/><path d="M256.5,132.52a36.1,36.1,0,0,1,6,17.23,2.8,2.8,0,0,1-.19,1.54,1,1,0,0,1-1.33.46,1.42,1.42,0,0,1-.49-1l-3.81-18"/><path class="cls-2" d="M275.34,37.18s-5.12,19.14-5.56,32.69l-.15,4.51s11.3,9.38,20.77,10l7.94-19.52Z"/><path class="cls-2" d="M325.51,48.92c-2.16-9.33-3-20.2-10.75-26.28-5.76-4.52-12.33-5.78-19.64-5.47-3.6.15-7.67,1.81-10.8,3.59-4.31,2.43-6.13,7.37-8.2,11.85-4.16,9-3.63,21.16-.82,24.54L312.85,77c7.5-3.91,12.2-5.46,13.4-15.45A37,37,0,0,0,325.51,48.92Z"/><path class="cls-3" d="M313.94,30.06l-23.63-7c-7.61-1.11-13.06,8.11-13.85,15.76-.87,8.5-1.6,18.91-.84,25.31C277.15,77,286.88,79,286.88,79s0,.2-.05,4l-.25,6.16a10.71,10.71,0,0,0,2.08,7c3.49,4.51,9.84,5.12,17.33,2.35,4.34-1.61,7.36-4.84,7.69-9.24l4.11-54.49A4.49,4.49,0,0,0,313.94,30.06Z"/><path class="cls-2" d="M280.61,49.77a1.65,1.65,0,0,0,1.52,1.72,1.58,1.58,0,0,0,1.75-1.39v0a1.63,1.63,0,0,0-1.52-1.71,1.58,1.58,0,0,0-1.75,1.37Z"/><path class="cls-2" d="M278.44,46.55c.19.22,1.47-.65,3.24-.58s3,1,3.22.8-.09-.48-.64-.92a4.5,4.5,0,0,0-2.57-.9,4.33,4.33,0,0,0-2.59.72C278.54,46.07,278.34,46.45,278.44,46.55Z"/><path class="cls-2" d="M297.4,49.77a1.63,1.63,0,0,0,1.51,1.72,1.58,1.58,0,0,0,1.75-1.37v0a1.63,1.63,0,0,0-1.51-1.71,1.58,1.58,0,0,0-1.75,1.37Z"/><path class="cls-2" d="M295.8,46.76c.19.22,1.47-.65,3.24-.58s3,1,3.22.8-.09-.48-.64-.92a4.5,4.5,0,0,0-2.57-.9,4.33,4.33,0,0,0-2.59.72C295.9,46.28,295.7,46.66,295.8,46.76Z"/><path class="cls-2" d="M288.93,58.2a11.63,11.63,0,0,0-2.85-.63c-.45-.07-.87-.17-.94-.48a2.32,2.32,0,0,1,.36-1.33l1.5-3.37c2.05-4.82,3.55-8.78,3.35-8.86s-2,3.75-4.05,8.57l-1.41,3.4a2.58,2.58,0,0,0-.31,1.76,1.11,1.11,0,0,0,.72.68,2.83,2.83,0,0,0,.76.14A11.5,11.5,0,0,0,288.93,58.2Z"/><path class="cls-4" d="M286.88,79c-.65-.06,10.19,0,17.31-3.89,0,0-4.59,8.78-17.34,7.08Z"/><path class="cls-4" d="M294.44,62.15a2.88,2.88,0,0,0-2.31-1.38c-1.14-.08-1.76-.64-3.43,1.53a2.31,2.31,0,0,0-.21,1.65c.11.29,0,.15.23.35a6.43,6.43,0,0,0,2.57,1.7,2.78,2.78,0,0,0,3-1A2.85,2.85,0,0,0,294.44,62.15Z"/><path class="cls-2" d="M293.86,60.44c-.28,0-.37,1.89-2.07,3.17s-3.73,1-3.76,1.25.44.39,1.3.46a4.81,4.81,0,0,0,3.13-.94,4.15,4.15,0,0,0,1.62-2.66C294.19,60.92,294,60.44,293.86,60.44Z"/><path class="cls-2" d="M295.13,40.3c.13.49,1.91.44,3.94.89s3.65,1.17,4,.77c.14-.2-.1-.67-.73-1.2a7,7,0,0,0-6-1.27C295.5,39.72,295.08,40.06,295.13,40.3Z"/><path class="cls-2" d="M278.59,41.8c.4.35,1.68-.26,3.3-.51s3-.17,3.28-.63c.11-.22-.17-.59-.82-.88a5,5,0,0,0-2.78-.26,4.87,4.87,0,0,0-2.52,1.18C278.53,41.19,278.41,41.63,278.59,41.8Z"/><path class="cls-2" d="M290.64,21.7a1.4,1.4,0,0,1-.06.28h.05C290.63,21.9,290.64,21.8,290.64,21.7Z"/><path class="cls-2" d="M290.08,25a28.65,28.65,0,0,0,2.27,10.24,10.21,10.21,0,0,0,2.34,3.63,4.66,4.66,0,0,0,4,1.29,17.28,17.28,0,0,1-3.48-9.94c1.51,3.64,3.06,7.35,5.62,10.34a13.59,13.59,0,0,0,8.32,4.8c.76,5.71,2.83,11.58,1.32,17.1-.94,3.45-3.24,6.5-3.66,10s1,6.71.6,10.07l23.76-6.63h0c-.26-24.19-3.79-35.39-9.14-45l-.13-.23a25.5,25.5,0,0,0-12.43-10.32,36.07,36.07,0,0,0-19-.89l-.1.51v.18L290,20c-2.4-1.26-4-2.68-7.75.62a23,23,0,0,0-5.18,7.22,29.69,29.69,0,0,0-2.88,7.79c-.56,3.51.31,15.32.69,19.07.52-3.29,1-13.13,2.27-15.69,1.17-2.32,1.86-5.2,3.14-7.47C280.33,31.56,284.62,24.33,290.08,25Z"/><path class="cls-2" d="M317.89,115.12a4.18,4.18,0,0,1,0-1,17.44,17.44,0,0,1,.49-2.69,18.65,18.65,0,0,1,14.34-13.64,3.38,3.38,0,0,1,1-.12c0,.08-1.4.29-3.51,1.15a19.61,19.61,0,0,0-11.53,12.7C318.05,113.7,318,115.13,317.89,115.12Z"/><path class="cls-6" d="M312,84.44S297.71,95.24,290.75,94c-5.58-1-4.62-9.46-4.62-9.46l-2.71,5.86-5.84,23.39,2.47,11,13.28-8.2Z"/><path class="cls-5" d="M338.25,197.86c-2.21-16.55-11.14-36.57-11.14-36.57l5.79-14.86,1.64-50.71-16.15-9-3.64-5.21L296.35,101,280,116.89c.42-.39,3.33-19.53,3.33-19.53l2.92-13.12L283.3,89s-18.56,26.74-20.07,42.17,4.25,31.37,4.25,31.37-2.54,24.85-2.88,35.33Z"/><path class="cls-5" d="M280.62,92.89s-6.89,2.93-9.13,6.45-3.75,18.79-3.75,18.79l10.93-18.41Z"/><path class="cls-2" d="M280.62,92.89a5.23,5.23,0,0,1,0,.56l-.12,1.62c-.12,1.45-.29,3.5-.51,6.08v.07h-.06l-1.86,1.06.08-.13c.31,4.26.71,9.68,1.16,15.82l-.27-.18,14.7-5.31,4.7-1.69-.14.23c-.23-1.61-.46-3.19-.68-4.74l-.05-.34.32.11,5.6,2-.23.08L314.11,92.7l3.14-4.4c.36-.48.64-.87.85-1.16a4.08,4.08,0,0,1,.31-.39,3.7,3.7,0,0,1-.25.43l-.8,1.19c-.72,1.07-1.75,2.57-3,4.46l-10.73,15.53-.09.12-.14,0-5.61-2,.28-.23c.23,1.55.46,3.13.7,4.74v.17l-.16.06-4.7,1.69-14.71,5.29-.25.09V118c-.41-6.15-.77-11.57-1.05-15.83v-.09H278l1.87-1-.06.1c.26-2.57.48-4.63.62-6.07.08-.68.14-1.22.19-1.61A1.94,1.94,0,0,1,280.62,92.89Z"/><path class="cls-2" d="M267.4,184.13a2.54,2.54,0,0,1,0-.39v-1.13c0-1,0-2.48-.07-4.31,0-3.75-.09-9.05-.15-15.43h0c-1-3.4-1.84-7.17-2.68-11.21-.42-2-.81-4.1-1.19-6.24a42.35,42.35,0,0,1-.77-6.64,44.88,44.88,0,0,1,3-17.46h0a80.71,80.71,0,0,1,4.6-10.38c1.56-3,3-5.63,4.28-7.77s2.28-3.81,3-4.94l.83-1.29a2.61,2.61,0,0,1,.31-.43,4.09,4.09,0,0,1-.25.46c-.2.33-.46.77-.78,1.33-.69,1.15-1.68,2.84-2.9,5s-2.66,4.77-4.19,7.8a82.69,82.69,0,0,0-4.52,10.35h0A44.56,44.56,0,0,0,263,138.74a42.64,42.64,0,0,0,.75,6.57c.37,2.14.77,4.22,1.18,6.24.82,4,1.67,7.81,2.62,11.19v20.92A2,2,0,0,1,267.4,184.13Z"/><path d="M332.23,150.41c-9-6.44-14.4-17.67-14.55-28.74Z"/><path class="cls-5" d="M328.18,92.83s7.7,1.5,10.73,8.09,20.77,53.36,21.77,56.75c1.42,4.83-.91,11.78-3.64,15.52-3.87,5.28-18.79,24.67-18.79,24.67H310.34L335.72,158l-17.94-37S319.11,95.54,328.18,92.83Z"/><path class="cls-2" d="M347.21,163a30.33,30.33,0,0,0-10.74-5.11,5.5,5.5,0,0,1,1.76.23,19.57,19.57,0,0,1,4,1.4,18.74,18.74,0,0,1,3.64,2.26A5.55,5.55,0,0,1,347.21,163Z"/><path class="cls-2" d="M346.18,155.09a24.27,24.27,0,0,0-9.71,2.57,13.56,13.56,0,0,1,9.68-2.57Z"/><path class="cls-2" d="M317.89,115.12a4.18,4.18,0,0,1,0-1,17.44,17.44,0,0,1,.49-2.69,18.65,18.65,0,0,1,14.34-13.64,3.38,3.38,0,0,1,1-.12c0,.08-1.4.29-3.51,1.15a19.61,19.61,0,0,0-11.53,12.7C318.05,113.7,318,115.13,317.89,115.12Z"/><polygon points="303.41 108.26 298.81 108.11 299.77 112.76 279.09 118.01 298.49 111.02 297.81 106.28 303.41 108.26"/><path class="cls-7" d="M314.42,105.44,313.3,105c0-.06,2.52-6.07,5-12.44a12.23,12.23,0,0,0,1-6.26,2.91,2.91,0,0,0-2.95-2.36l-.76-1.1a4.37,4.37,0,0,1,4.91,3.26,13.41,13.41,0,0,1-1.12,6.9C317,99.36,314.44,105.38,314.42,105.44Z"/><path class="cls-7" d="M316.22,119.48l-1.54-.6c1.27-3.26,3-9,2.25-10.67a4.75,4.75,0,0,0-3.32-2.2,5.53,5.53,0,0,0-4.85,1c-1.77,1.49-4.44,6.78-5.32,8.69l-1.51-.69c.14-.3,3.35-7.23,5.76-9.27A7.16,7.16,0,0,1,314,104.4a6.33,6.33,0,0,1,4.47,3.12C319.69,110.25,316.81,118,316.22,119.48Z"/><path class="cls-2" d="M299.53,144.7c-1.91,0-3.79-1-5.59-3.06l.62-.55c2,2.24,4,3.13,6.05,2.65,8.27-1.94,14.57-24.91,14.63-25.14l.8.21c-.26,1-6.49,23.68-15.24,25.74A5.44,5.44,0,0,1,299.53,144.7Z"/><path class="cls-2" d="M295.53,142.6h0a1,1,0,0,1-1.29.08l-1.79-1.33a1.16,1.16,0,0,1-.36-1.61l0,0h0a1.19,1.19,0,0,1,1.65-.33l.18.15,1.61,1.68A1,1,0,0,1,295.53,142.6Z"/><path class="cls-2" d="M303,145.45c-2.55,0-4.45-.84-5.64-2.52-5.08-7.13,4.5-26.92,4.91-27.76l.75.37c-.1.2-9.78,20.18-5,26.91,1.25,1.75,3.44,2.45,6.53,2.07l.1.82A13.06,13.06,0,0,1,303,145.45Z"/><path class="cls-2" d="M302.89,145h0a1,1,0,0,0,.91.92l2.23.19a1.19,1.19,0,0,0,1.34-1h0a1.18,1.18,0,0,0-1-1.33,1,1,0,0,0-.24,0l-2.32.19A1,1,0,0,0,302.89,145Z"/><path class="cls-2" d="M269.52,125.58a6.5,6.5,0,1,1-6.51-6.49h0A6.5,6.5,0,0,1,269.52,125.58Z"/><path class="cls-2" d="M269.52,125.58a6.5,6.5,0,1,1-6.51-6.49h0A6.5,6.5,0,0,1,269.52,125.58Z"/><path class="cls-5" d="M267.82,125.58a4.8,4.8,0,1,1-4.8-4.8h0A4.8,4.8,0,0,1,267.82,125.58Z"/><path class="cls-7" d="M265.69,119.72l-1.08-.55c.54-1.06,13.38-26,14.15-27.14.13-.2.3-.48.48-.79a20.81,20.81,0,0,1,1.28-1.93c1.29-1.59,2.84-3.07,4.69-3.41l-1.08,1.74c-1,.39-1.51,1-2.66,2.44a17.93,17.93,0,0,0-1.19,1.79c-.2.33-.37.63-.52.84C279.16,93.6,269.4,112.51,265.69,119.72Z"/><path class="cls-2" d="M276,197.67a4.58,4.58,0,0,1-.08-.83c0-.6-.07-1.4-.13-2.4-.08-2.13-.21-5.13-.36-8.81-.26-7.45-.66-17.72-1-29.09-.13-5.68-.07-11.11.29-16a86.37,86.37,0,0,1,1.83-13,65.78,65.78,0,0,1,2.53-8.46c.38-1,.71-1.71.93-2.21a5.28,5.28,0,0,1,.36-.76,4.67,4.67,0,0,1-.26.8l-.84,2.24a74.82,74.82,0,0,0-2.36,8.47,90.63,90.63,0,0,0-1.71,12.93c-.34,4.9-.38,10.31-.25,16,.31,11.34.59,21.6.8,29.09.08,3.68.15,6.68.2,8.82v2.39A7.52,7.52,0,0,1,276,197.67Z"/><path class="cls-2" d="M310.34,197.86a5.52,5.52,0,0,1,.42-.75L312,195l4.81-7.69,16-25.28,2.65-4.16v.25c-4.64-9.44-8.75-17.81-11.74-23.87l-3.44-7.13-.91-1.93a3.44,3.44,0,0,1-.28-.69,5.07,5.07,0,0,1,.37.64l1,1.9,3.58,7c3,6,7.2,14.39,11.9,23.8l.06.13-.08.13c-.84,1.33-1.74,2.73-2.64,4.16-6.29,9.82-12,18.71-16.14,25.2l-5,7.6-1.36,2.06A5,5,0,0,1,310.34,197.86Z"/><path class="cls-2" d="M320.18,180.94a3.54,3.54,0,0,1-.4.3l-1.18.77c-.53.31-1.21.64-2,1.05a16.22,16.22,0,0,1-2.75,1.1,32.65,32.65,0,0,1-17,1.2,23.08,23.08,0,0,1-7.56-2.88l.37-.18-1.22,11.52c-.17,1.36-.3,2.47-.4,3.31a6.88,6.88,0,0,1-.2,1.19,6,6,0,0,1,0-1.2c.06-.85.15-2,.25-3.33.27-2.92.63-6.91,1.05-11.54v-.39l.34.2a22.7,22.7,0,0,0,7.41,2.78,33.48,33.48,0,0,0,16.74-1A38.28,38.28,0,0,0,320.18,180.94Z"/><path class="cls-2" d="M253.81,116.94a1.64,1.64,0,0,1-.38.1l-1.13.23-4.31.79-15.46,2.74.18-.25C233.94,128,235.4,137,237,146.67L238.64,157h0a24.54,24.54,0,0,0,9.28,11.25,15.76,15.76,0,0,0,5.89,2.17l1.44.18a10.75,10.75,0,0,0,1.39,0H258a8.72,8.72,0,0,0,1.22-.31,14.06,14.06,0,0,0,6.28-4.46c1.15-1.43,1.61-2.34,1.66-2.31a13.48,13.48,0,0,1-1.52,2.42,13.84,13.84,0,0,1-6.32,4.66,8,8,0,0,1-1.28.34h-1.37a11.21,11.21,0,0,1-1.42,0l-1.48-.17a16,16,0,0,1-6.06-2.18,24.84,24.84,0,0,1-9.52-11.45v0c-.53-3.3-1.1-6.76-1.67-10.31l-4.19-26.13v-.21h.21L248,117.82l4.32-.68,1.14-.17A2.07,2.07,0,0,1,253.81,116.94Z"/><path class="cls-2" d="M338.25,197.86a2.39,2.39,0,0,1,.13-.21l.42-.59,1.66-2.27,6.25-8.41c2.69-3.58,5.9-7.88,9.53-12.72l1.39-1.85c.46-.62.87-1.28,1.28-1.95a16.84,16.84,0,0,0,1.73-4.5,16.4,16.4,0,0,0-1.05-10.06h0c-1.82-4.89-3.76-10.11-5.75-15.49-3.24-8.63-6.39-16.82-9.37-24.23-1.47-3.7-2.94-7.2-4.35-10.45-.75-1.61-1.42-3.19-2.2-4.63a8.69,8.69,0,0,0-2.8-3.65,76.29,76.29,0,0,0-6.82-4.41c-2.06-1.22-3.86-2.24-5.33-3.07l-3.39-1.89-.89-.49a2.9,2.9,0,0,1-.29-.19,1.3,1.3,0,0,1,.32.14l.91.45c.79.4,1.95,1,3.44,1.81s3.3,1.79,5.38,3a78.56,78.56,0,0,1,6.89,4.38,9.17,9.17,0,0,1,2.94,3.75c.79,1.46,1.47,3,2.23,4.64,1.43,3.25,2.92,6.75,4.41,10.45,3,7.41,6.16,15.6,9.4,24.22,2,5.38,4,10.6,5.74,15.51h0a16.86,16.86,0,0,1,1.07,10.39,17.19,17.19,0,0,1-1.8,4.63c-.43.68-.86,1.36-1.32,2l-1.4,1.83L347,186.57l-6.37,8.33-1.73,2.21c-.19.24-.34.42-.45.57S338.26,197.87,338.25,197.86Z"/><path class="cls-2" d="M330.26,67.35,307.15,81.48c.85,3.94-1.65,7-.91,9.34.43,1.33,1.26,2.57,1.32,4,.09,1.92-1.27,3.56-2.54,5,3.77,1.74,8.13,0,12.2-.76,5.46-1.07,11.53-.63,16-3.89Q331.38,81.28,330.26,67.35Z"/><path class="cls-6" d="M231.59,198.12l-10.21-42-7.15-65.19-15.38-3c-13.08-1-29-.2-30.8.36L155,92.58c-6,.94-16.8,9.8-17.76,17.79-.44,3.64-2.83,42-3,46.14s-.59,9.87,7,16.16c0,0,8.16,5.28,14.56,4.52l-5.3,21.13Z"/><path d="M226.54,173.1c-4.67,3.7-10.55,6.16-16.5,5.75-2.73-.19-5.41-1-8.15-1-4.31-.12-8.46,1.5-12.61,2.66-12.56,3.5-22.6,6.26-34.72,1.47l1.28-4.74c6.67-.85,7.46-1.2,7.46-1.2,30.18-15.94,29.85-7.11,48.63-6.63,4.94.12,10.08.48,14.39,2.92"/><path class="cls-2" d="M144.72,166a3,3,0,0,1,.14-.79,6.63,6.63,0,0,1,.25-.9c.12-.35.23-.75.42-1.18a19.15,19.15,0,0,1,1.45-2.9,21.19,21.19,0,0,1,2.41-3.17,22,22,0,0,1,3-2.62,19.22,19.22,0,0,1,2.8-1.65c.41-.21.81-.35,1.15-.49a9.37,9.37,0,0,1,.89-.31,4.15,4.15,0,0,1,.77-.2c0,.07-1.06.41-2.69,1.25a21.06,21.06,0,0,0-2.71,1.68,22.6,22.6,0,0,0-2.93,2.6,23.15,23.15,0,0,0-2.39,3.09,19.16,19.16,0,0,0-1.5,2.83C145.05,165,144.79,166.06,144.72,166Z"/><path class="cls-2" d="M141.28,156.81a4.31,4.31,0,0,1,.49-.49,15.14,15.14,0,0,1,1.49-1.15,20.21,20.21,0,0,1,5.62-2.69,20.78,20.78,0,0,1,6.17-.87,14.73,14.73,0,0,1,1.88.14,2.29,2.29,0,0,1,.68.14,24.71,24.71,0,0,1-2.56,0,22.85,22.85,0,0,0-11.64,3.51C142.08,156.23,141.32,156.86,141.28,156.81Z"/><path class="cls-2" d="M136.61,123.27V124c0,.52-.08,1.25-.13,2.17-.13,1.91-.31,4.63-.54,8s-.53,7.38-.85,11.82c-.16,2.22-.33,4.56-.51,7-.09,1.2-.18,2.43-.26,3.68a22.61,22.61,0,0,0,.14,3.77A13.77,13.77,0,0,0,136.9,167h0a21,21,0,0,0,8.52,8,21.54,21.54,0,0,0,9.15,2.2,28.06,28.06,0,0,0,6.27-.52c.72-.15,1.28-.29,1.65-.38l.43-.11h.14l-.13.06-.42.14c-.37.12-.92.28-1.65.44a26.19,26.19,0,0,1-6.3.65,21.65,21.65,0,0,1-9.28-2.15,21.25,21.25,0,0,1-8.7-8.11h0a13.89,13.89,0,0,1-2.54-6.73,22.39,22.39,0,0,1-.15-3.84c.1-1.25.19-2.48.28-3.7q.27-3.63.53-7c.35-4.44.67-8.44.93-11.81s.5-6,.66-8c.09-.92.15-1.64.2-2.17,0-.23,0-.41.06-.56S136.6,123.27,136.61,123.27Z"/><path class="cls-8" d="M157.23,124.81a3.16,3.16,0,0,1,.52-.17c.34-.09.85-.21,1.52-.34a33.91,33.91,0,0,1,5.69-.51c2.41,0,5.28,0,8.46.06l10.36.17,18.82.4,5.7.16,1.55.06a3.29,3.29,0,0,1,.54,0,4.86,4.86,0,0,1-.54,0H202.6l-18.83-.29-10.35-.2c-3.19,0-6.06-.16-8.46-.14a41.34,41.34,0,0,0-5.67.39c-.66.1-1.18.2-1.52.27A5.07,5.07,0,0,1,157.23,124.81Z"/><path class="cls-8" d="M160.22,131.4c0-.1,10.94-.1,24.43,0s24.42.27,24.42.38-10.93.11-24.43,0S160.22,131.51,160.22,131.4Z"/><path class="cls-8" d="M137.28,119.81a3,3,0,0,1,.76-.27,19.36,19.36,0,0,1,2.12-.54,31.62,31.62,0,0,1,7.2-.61,30.9,30.9,0,0,1,7.16,1c.89.24,1.61.47,2.09.65a3.76,3.76,0,0,1,.74.32c0,.06-1.11-.3-2.9-.71a36.32,36.32,0,0,0-14.24-.41C138.4,119.58,137.3,119.87,137.28,119.81Z"/><path class="cls-8" d="M136.38,125.27a4,4,0,0,1,.76-.26c.49-.14,1.22-.31,2.13-.48a31.61,31.61,0,0,1,14.34.67c.89.25,1.6.49,2.08.68a3.2,3.2,0,0,1,.73.33c0,.06-1.1-.31-2.88-.75a36.24,36.24,0,0,0-14.22-.67C137.5,125.06,136.39,125.34,136.38,125.27Z"/><path d="M191.21,98.87c4.66,7.87,6.09,17.18,7.43,26.22,1.59,10.7.44,22.1,1,32.89-2.82-.5-4.82-3.19-5.52-6s-.39-5.69-.3-8.56C194.3,128.52,188.59,113.58,191.21,98.87Z"/><path class="cls-6" d="M210.39,90.85c7.79,1.46,18,1.49,20.89,16.36,2.8,14.18-.83,39.67-5.77,48s-11,12.34-20.32,7.59S197,143.46,197,143.46l18.26-13.67-2.68-3.42Z"/><path class="cls-2" d="M212.06,123.12a55.06,55.06,0,0,1,.35-6.55,59.21,59.21,0,0,1,.74-6.51,55.06,55.06,0,0,1-.35,6.55A59.21,59.21,0,0,1,212.06,123.12Z"/><path class="cls-8" d="M212.09,120.78a2.79,2.79,0,0,1,.81-.12c.52,0,1.28-.1,2.21-.13a60.29,60.29,0,0,1,14.55,1.3c.91.19,1.65.37,2.15.52a3.11,3.11,0,0,1,.78.26,3.69,3.69,0,0,1-.81-.12l-2.17-.4c-1.84-.33-4.39-.72-7.22-1s-5.41-.32-7.27-.32h-2.21A3.22,3.22,0,0,1,212.09,120.78Z"/><path class="cls-8" d="M213.42,126.59a2.2,2.2,0,0,1,.72-.06h2c1.66,0,3.94.15,6.46.38s4.78.56,6.41.84c.82.14,1.47.26,1.93.36a2.36,2.36,0,0,1,.69.19A23.75,23.75,0,0,1,229,128c-1.64-.21-3.9-.49-6.41-.73s-4.78-.39-6.43-.49A24.53,24.53,0,0,1,213.42,126.59Z"/><path class="cls-2" d="M203,33.08a16.37,16.37,0,0,0-8.11-9.68A20.6,20.6,0,0,0,181,22.12a43.77,43.77,0,0,0-13,5.8A21.38,21.38,0,0,0,161.92,33C159,36.9,156.19,43.24,156,48.1c-.12,3.93,1.66,13.72,3.42,17.23a8.93,8.93,0,0,0,3.87,3.3,33.18,33.18,0,0,0,7.38,9.2c.83-2.66,1.67-5.32,2.5-8Z"/><path class="cls-2" d="M200.61,28.3l-7.77-1.16c4.51,10,6.32,33,9,43.54,2.73-4.22,9-17,8.5-22S209.78,27.19,200.61,28.3Z"/><path class="cls-3" d="M164.41,46.12A13.22,13.22,0,0,1,174,33.67l17.69-5.06c7.68-1,13.09,8.28,13.82,16,.8,8.57,1.4,17.62.58,24.06-1.65,13-11.47,14.89-11.47,14.89s.17,6.13.27,9.89l-3.68,5.43-22.52-8.47-4.32-44.12C164.36,46.06,164.4,46.41,164.41,46.12Z"/><path class="cls-2" d="M200.57,54.06A1.66,1.66,0,0,1,199,55.78a1.58,1.58,0,0,1-1.75-1.39v0a1.67,1.67,0,0,1,1.54-1.72A1.58,1.58,0,0,1,200.56,54,.13.13,0,0,1,200.57,54.06Z"/><path class="cls-2" d="M203.71,49.7c-.19.22-1.47-.66-3.25-.6s-3.06,1-3.25.77.09-.49.65-.92a4.51,4.51,0,0,1,5.2-.13C203.62,49.22,203.81,49.6,203.71,49.7Z"/><path class="cls-2" d="M184.34,54.45a1.66,1.66,0,0,1-1.54,1.71,1.58,1.58,0,0,1-1.75-1.39v-.05A1.63,1.63,0,0,1,182.59,53a1.57,1.57,0,0,1,1.74,1.4Z"/><path class="cls-2" d="M186.83,50.18c-.2.23-1.48-.66-3.26-.6s-3,1-3.25.78.09-.49.65-.92a4.51,4.51,0,0,1,2.6-.89,4.37,4.37,0,0,1,2.6.75C186.73,49.7,186.92,50.09,186.83,50.18Z"/><path class="cls-2" d="M192.79,64a11.75,11.75,0,0,1,2.87-.61c.45-.06.88-.16.94-.47a2.26,2.26,0,0,0-.34-1.34l-1.45-3.42c-2-4.86-3.49-8.87-3.29-9s2,3.8,4,8.67l1.4,3.44a2.66,2.66,0,0,1,.29,1.77,1.19,1.19,0,0,1-.73.69,3.35,3.35,0,0,1-.77.13A11.41,11.41,0,0,1,192.79,64Z"/><path class="cls-4" d="M177.4,79.45s4.44,8.73,17.3,7.13l-.08-3A32.4,32.4,0,0,1,177.4,79.45Z"/><path class="cls-2" d="M186.09,43.78c-.16.48-2,.31-4,.63s-3.75.93-4,.51c-.13-.21.15-.67.81-1.16a7.14,7.14,0,0,1,6.14-.87C185.76,43.18,186.15,43.54,186.09,43.78Z"/><path class="cls-2" d="M203,44.28c-.3.41-1.54,0-3,.06s-2.71.35-3-.06c-.14-.2,0-.61.58-1a4.34,4.34,0,0,1,4.85,0C202.93,43.67,203.11,44.08,203,44.28Z"/><path class="cls-2" d="M201.67,32.93a5.66,5.66,0,0,0-5.1-3.06,11.07,11.07,0,0,0-5.89,1.9c-7.55,4.65-11.19,15.48-18.64,20.28-1.83,1.19-4.29.22-5.83,1.76s-2.51,4-1.57,5.93a18.43,18.43,0,0,1-2.76-4.37,6.1,6.1,0,0,1,.07-5c.62-1.16,1.76-2.06,2-3.34s-.23-2.29-.21-3.44a7.36,7.36,0,0,1,1.08-3.32,33.42,33.42,0,0,1,12-13.31A21.76,21.76,0,0,1,188,23.68a16.68,16.68,0,0,1,10.88,4c1.74,1.54,3.57,3.12,2.75,5.29"/><path class="cls-3" d="M166.44,55.4c-.15-.36-6.94-2.6-6.82,4.55.11,6.94,7.07,5.38,7.08,5.18S166.44,55.4,166.44,55.4Z"/><path class="cls-4" d="M164.51,62.54a1.84,1.84,0,0,1-.32.18,1.2,1.2,0,0,1-.91,0,3,3,0,0,1-1.43-2.66,4,4,0,0,1,.3-1.74,1.42,1.42,0,0,1,.89-.94.6.6,0,0,1,.72.31c.1.2.06.34.1.35s.14-.12.08-.41a.77.77,0,0,0-.28-.43A.93.93,0,0,0,163,57a1.67,1.67,0,0,0-1.24,1.1,4,4,0,0,0-.39,1.94,3.24,3.24,0,0,0,1.83,3,1.27,1.27,0,0,0,1.1-.21C164.5,62.71,164.53,62.55,164.51,62.54Z"/><path class="cls-7" d="M163.58,51.92l.41-.25c.26-.18.66-.41,1.14-.77a23.83,23.83,0,0,0,3.65-3.52,67.72,67.72,0,0,0,4.41-6.08,55.34,55.34,0,0,1,5.53-7.3,21.63,21.63,0,0,1,3.61-3,18,18,0,0,1,3.94-1.92A19.66,19.66,0,0,1,193.6,28a18.81,18.81,0,0,1,5,.82c.57.16,1,.34,1.3.44a1.9,1.9,0,0,0,.46.15l-.44-.21a12.55,12.55,0,0,0-1.28-.5,18.11,18.11,0,0,0-5-.93,20,20,0,0,0-7.44,1.06,18,18,0,0,0-4,1.94,22.47,22.47,0,0,0-3.67,3.07A53.23,53.23,0,0,0,173,41.13a72.6,72.6,0,0,1-4.34,6.11,26.54,26.54,0,0,1-3.55,3.56c-.47.37-.86.62-1.11.82A2,2,0,0,0,163.58,51.92Z"/><path class="cls-8" d="M163.76,63.79a1.36,1.36,0,1,0,.32.09"/><path class="cls-2" d="M164.08,63.88a1.84,1.84,0,0,1,.65.92,1.17,1.17,0,0,1-.24,1.09,1.21,1.21,0,0,1-1.7.19,1.23,1.23,0,0,1-.45-.81,1.17,1.17,0,0,1,.38-1,1.84,1.84,0,0,1,1-.43.65.65,0,0,0-.33-.07,1.41,1.41,0,0,0-.86.33,1.38,1.38,0,0,0-.52,1.27,1.49,1.49,0,0,0,2.67.76,1.45,1.45,0,0,0-.32-2.08C164.21,63.88,164.09,63.87,164.08,63.88Z"/><path class="cls-2" d="M165.38,53.83c-.06,1.9-.09,3.9.84,5.56s3.16,2.74,4.78,1.75c1.33-.8,1.68-2.54,1.86-4.07.54-4.44.71-8.92,1.28-13.35Z"/><path class="cls-7" d="M199.87,29.68a12.05,12.05,0,0,0-1.73-.1,11.63,11.63,0,0,0-4.57,1,15.38,15.38,0,0,0-2.84,1.56,32.7,32.7,0,0,0-2.9,2.35,35.53,35.53,0,0,0-5.63,6.43c-.85,1.27-1.6,2.56-2.41,3.76a16.85,16.85,0,0,1-2.69,3.21A31.17,31.17,0,0,1,171.35,52c-1.75,1-3.22,1.69-4.23,2.18-.48.22-.87.39-1.17.54a3.61,3.61,0,0,1-.42.16,1.83,1.83,0,0,1,.38-.23l1.14-.61c1-.52,2.44-1.26,4.16-2.28a31.68,31.68,0,0,0,5.64-4.11,17.66,17.66,0,0,0,2.63-3.16c.79-1.19,1.54-2.49,2.39-3.76a34.25,34.25,0,0,1,5.72-6.48,29.64,29.64,0,0,1,3-2.36,15.33,15.33,0,0,1,2.91-1.55,11.55,11.55,0,0,1,4.68-.87,9.44,9.44,0,0,1,1.29.15A2.76,2.76,0,0,1,199.87,29.68Z"/><path class="cls-7" d="M165.06,49.55a2.85,2.85,0,0,1-.6.43l-1.73,1.08-.58.36a2,2,0,0,1-.75.27.71.71,0,0,1-.47-.1.59.59,0,0,1-.28-.45,1.57,1.57,0,0,1,.31-.88l1.94-3.33.29.25a7.21,7.21,0,0,1-4.68,1.54,2.23,2.23,0,0,1-.63-.09.86.86,0,0,1-.55-.45.78.78,0,0,1,.09-.71,3.31,3.31,0,0,1,.39-.45,14.71,14.71,0,0,0,2.27-3,25.86,25.86,0,0,0,1.42-3.24,3.75,3.75,0,0,1-.2.94A14.05,14.05,0,0,1,158,47.31c-.25.26-.5.55-.39.76s.49.31.85.31a7.15,7.15,0,0,0,4.51-1.5l.81-.63-.53.88-2,3.3a1.2,1.2,0,0,0-.27.68c0,.2.18.31.41.29a3.9,3.9,0,0,0,1.23-.55l1.78-1A3.64,3.64,0,0,1,165.06,49.55Z"/><path class="cls-4" d="M186.12,67.46a2.33,2.33,0,0,1,2.34-1.83,2.43,2.43,0,0,1,1.91,1.28,3,3,0,0,1,.17,2.31v.17a2.64,2.64,0,0,1-3,.72A2.47,2.47,0,0,1,186.12,67.46Z"/><path class="cls-2" d="M192.1,67.83c0,.28-1.65.58-3.7.65s-3.72-.09-3.73-.38,1.65-.58,3.7-.66S192.09,67.54,192.1,67.83Z"/><path class="cls-4" d="M200.69,68.12a1.47,1.47,0,0,1,1.09.73,10.52,10.52,0,0,1,1.2,2.9,16.36,16.36,0,0,1,.89,4.32c-.1,0-.55-1.89-1.26-4.2A13.34,13.34,0,0,0,201.56,69C201.16,68.34,200.66,68.18,200.69,68.12Z"/><path class="cls-3" d="M215.42,130.77s-13-25.4-14.84-35.74l-9.9,1.67,6.15,47Z"/><path class="cls-3" d="M200.53,95.29l.49-2.8,4.5-11.87a3.48,3.48,0,0,0,.13-2.09l-1.79-7.24a4.35,4.35,0,0,0-3.33-3.22c-2.5-.53-6-1.08-6.73-.25C192.58,69.15,193,70,193,70s-3.22.78-3.22,2.45c0,0-2.56,1.33-2.34,2.33s1.12,4.22,2.12,4a1.8,1.8,0,0,0,1.28-.78l.6,2.11-.6,3.45s-2.17,7.33-1.73,9.33a33.93,33.93,0,0,0,1.73,4.9"/><path class="cls-4" d="M190.86,97.83l-.12-.23-.32-.71c-.27-.62-.66-1.55-1.06-2.77A5.91,5.91,0,0,1,189,92a19.33,19.33,0,0,1,.31-2.51c.33-1.78.82-3.77,1.44-5.94h0c.19-1.09.39-2.24.59-3.44v.07l-.61-2.11H191a1.87,1.87,0,0,1-1,.75,1.64,1.64,0,0,1-.65.13,1.12,1.12,0,0,1-.58-.37,6.79,6.79,0,0,1-1.08-2.21c-.13-.39-.24-.79-.35-1.2l-.07-.3a.86.86,0,0,1,0-.39,1.4,1.4,0,0,1,.32-.63,7.39,7.39,0,0,1,2.1-1.58l-.1.17a2.3,2.3,0,0,1,1.29-1.79A8.2,8.2,0,0,1,193,69.8l-.13.28a1.77,1.77,0,0,1,.07-1.32,3.73,3.73,0,0,1,.71-1.09,2.21,2.21,0,0,1,1.46-.5,11.69,11.69,0,0,1,1.45,0c1,.08,1.87.23,2.78.39l1.36.28a4.5,4.5,0,0,1,3.1,2.58,8.06,8.06,0,0,1,.38,1.27l.3,1.23c.2.82.4,1.62.59,2.41s.38,1.56.57,2.31c.08.38.19.74.26,1.14a3.76,3.76,0,0,1,0,1.16,4.92,4.92,0,0,1-.33,1.07l-.39,1c-.25.66-.49,1.29-.73,1.9l-1.31,3.42c-.82,2.09-1.49,3.82-2,5.13h0c-.16.88-.3,1.57-.39,2.07l-.12.54c0,.12,0,.18,0,.18a.61.61,0,0,1,0-.19c0-.14,0-.32.08-.54l.33-2.08h0c.49-1.31,1.13-3.06,1.91-5.16l1.28-3.43.71-1.9c.13-.33.25-.66.38-1a5,5,0,0,0,.31-1,3.2,3.2,0,0,0,0-1.07c-.05-.35-.17-.73-.26-1.1-.18-.75-.38-1.52-.57-2.31s-.4-1.58-.6-2.4c-.1-.41-.21-.82-.31-1.24a6.4,6.4,0,0,0-.37-1.2,4.13,4.13,0,0,0-1.65-1.88,7.24,7.24,0,0,0-2.54-.75,25.45,25.45,0,0,0-2.74-.39,10.75,10.75,0,0,0-1.39,0A1.8,1.8,0,0,0,194,68a3.52,3.52,0,0,0-.65,1,1.5,1.5,0,0,0-.08,1l.09.21-.21.06a7.54,7.54,0,0,0-2,.8,1.93,1.93,0,0,0-1.1,1.43v.11l-.1.05a7.07,7.07,0,0,0-2,1.48,1,1,0,0,0-.25.47,1.37,1.37,0,0,0,.08.53c.1.4.21.79.34,1.18a6.45,6.45,0,0,0,1,2.08.65.65,0,0,0,.37.26,1.3,1.3,0,0,0,.48-.11,1.67,1.67,0,0,0,.8-.58l.21-.33L191,78c.2.73.41,1.45.59,2.11v.07c-.22,1.2-.42,2.36-.62,3.45h0c-.63,2.16-1.14,4.14-1.49,5.9a20.82,20.82,0,0,0-.34,2.48,5.93,5.93,0,0,0,.35,2,28.23,28.23,0,0,0,1,2.79l.28.72A1.06,1.06,0,0,1,190.86,97.83Z"/><path class="cls-4" d="M189.66,72.49a3.14,3.14,0,0,1,1.27-.39,3,3,0,0,1,1.49.08,2.5,2.5,0,0,1,1.36,1.22,24,24,0,0,1,1.8,4.13,29.34,29.34,0,0,1-2.13-3.94,2.28,2.28,0,0,0-1.15-1.08,3.38,3.38,0,0,0-1.34-.15A8.07,8.07,0,0,1,189.66,72.49Z"/><path class="cls-4" d="M190.09,75.58a4.8,4.8,0,0,1,.57,1.47,5,5,0,0,1,.41,1.52c-.09.05-.5-.56-.77-1.41A2.68,2.68,0,0,1,190.09,75.58Z"/><path class="cls-4" d="M188.87,75.88c.1,0,.32.28.71.49s.78.26.79.36-.46.27-1,0S188.76,75.91,188.87,75.88Z"/><path class="cls-4" d="M199.91,77.63a26.91,26.91,0,0,0-1.69-5.77,2.61,2.61,0,0,0-1.41-1.62,4.24,4.24,0,0,0-1.84-.08,3.62,3.62,0,0,1-1.79,0,7.74,7.74,0,0,0,1.75-.28,4,4,0,0,1,2,0,2.28,2.28,0,0,1,1,.7,5.26,5.26,0,0,1,.64,1.1,15.81,15.81,0,0,1,1.24,4.14A5.79,5.79,0,0,1,199.91,77.63Z"/><path class="cls-4" d="M200.07,83.65a6.94,6.94,0,0,0,1.36-1.41,8.61,8.61,0,0,0,.69-1.83,1.23,1.23,0,0,1,.1.61,2.86,2.86,0,0,1-.47,1.42,3,3,0,0,1-1.08,1C200.33,83.66,200.09,83.69,200.07,83.65Z"/><path class="cls-4" d="M194.79,83.45c0-.11.74-.25,1.34-.91s.7-1.4.81-1.39.1.2.05.52a2.19,2.19,0,0,1-.58,1.13,2.24,2.24,0,0,1-1.09.66C195,83.53,194.8,83.49,194.79,83.45Z"/><path class="cls-2" d="M217.11,163.89a.36.36,0,0,0-.16.07l-.49.15a15.51,15.51,0,0,1-1.91.43,14.29,14.29,0,0,1-7.22-.59,16.74,16.74,0,0,1-8.28-7,12.56,12.56,0,0,1-1.37-2.92,30.43,30.43,0,0,1-.72-3.28,50.78,50.78,0,0,1-.53-7.08v-.1l.09-.06,4.64-3.17,15.09-10.29.11-.08.1.1a43.46,43.46,0,0,1,5.92,6.65,21.26,21.26,0,0,1,1.83,3.26,17.6,17.6,0,0,1,1,3,21.86,21.86,0,0,1,.59,4.41v1.18a2.81,2.81,0,0,1,0,.41,2.81,2.81,0,0,1,0-.41V147.4a23,23,0,0,0-.68-4.37,17.82,17.82,0,0,0-1.06-3,20.78,20.78,0,0,0-1.85-3.2,43.83,43.83,0,0,0-5.91-6.57h.21l-15.07,10.32-4.64,3.17.08-.16a51.28,51.28,0,0,0,.51,7A26.18,26.18,0,0,0,198,154a12,12,0,0,0,1.32,2.84,16.56,16.56,0,0,0,8.08,6.92,14.46,14.46,0,0,0,7.11.69c.84-.12,1.48-.27,1.92-.37l.49-.12Z"/><path class="cls-3" d="M225.51,155.24s5.07-.33,6.59.68,1.4,3.73,1.4,3.73v1.19a5,5,0,0,1-.15,3.16c-.71,1.71-3.57.87-3.57.87s2.1.48,1.93,2.34a2.31,2.31,0,0,1-1.93,2.1,3,3,0,0,1,.18,1.8,2.54,2.54,0,0,1-2.26,1.58l-3,.38s-11.69,2-14.23,1.49-7.5-2.2-7.5-2.2l-1.31-13.89Z"/><path class="cls-3" d="M201.61,158.47s-22.43,1.84-32.25-2.29l-6.6,19.51s38.18-2,40.16-3.33S201.61,158.47,201.61,158.47Z"/><path class="cls-4" d="M225.07,167.8a7.2,7.2,0,0,1,2.48.35,4.19,4.19,0,0,1,2.23,1.16c-.06.09-1-.46-2.33-.79A9.91,9.91,0,0,1,225.07,167.8Z"/><path class="cls-4" d="M225,163.77c0-.06.28-.11.74-.15a8,8,0,0,1,1.83,0,4,4,0,0,1,1.74.65c.39.29.54.55.51.58a3.88,3.88,0,0,1-.66-.35,5.08,5.08,0,0,0-1.65-.5c-.67-.1-1.3-.1-1.76-.13S225,163.82,225,163.77Z"/><path class="cls-4" d="M224.17,159.16s0-.15.22-.34a1.81,1.81,0,0,1,1-.4,5.45,5.45,0,0,1,1.61.12c.59.11,1.23.23,1.9.38a15.65,15.65,0,0,1,3.4,1.08,2.93,2.93,0,0,1,1.2.85,10.85,10.85,0,0,0-1.31-.6,22.9,22.9,0,0,0-3.34-1l-1.89-.4a6,6,0,0,0-1.52-.2A2,2,0,0,0,224.17,159.16Z"/><path class="cls-2" d="M169.13,156.17a3.62,3.62,0,0,1-.86-.22l-2.34-.77-8.18-2.85-.16-.05v-.17c0-2.47,0-5.19-.05-8.05V129.88c0-1.74.05-3.19.07-4.3a9.14,9.14,0,0,1,.1-1.57,10.27,10.27,0,0,1,.1,1.57c0,1.11.06,2.56.1,4.3.06,3.63.11,8.64.12,14.18v8.05l-.16-.23,8.11,3,2.3.9A5.43,5.43,0,0,1,169.13,156.17Z"/><path class="cls-2" d="M159.24,115.14a22.94,22.94,0,0,1-.79-2.56,35.42,35.42,0,0,0-2.43-5.92,35,35,0,0,0-3.49-5.37,23.8,23.8,0,0,1-1.65-2.1,10.36,10.36,0,0,1,1.94,1.86,27.85,27.85,0,0,1,6,11.43A10,10,0,0,1,159.24,115.14Z"/><g class="cls-9"><path class="cls-2" d="M58.4,30a10.71,10.71,0,0,0-13.9,1.73C37.8,38.56,40.37,48.53,42,54.6S49.9,70.73,55.56,71,58.4,30,58.4,30Z"/><path class="cls-6" d="M123.91,197.89H48.48v.43l-1.72-.43H11.85a136.2,136.2,0,0,0,.21-14c-.06-1.33-.14-2.63-.26-3.91-1.15-13.1-4-23-6.14-31.65C3.33,138.71,2,130.5,5.05,120.91a29.74,29.74,0,0,1,3.05-6.75,21,21,0,0,1,5.15-5.64,22.78,22.78,0,0,1,3.49-2.16c.45-.23.91-.44,1.38-.64,6.53-2.86,14.52-3.57,22.81-6.21a50.26,50.26,0,0,0,10-4.34c.51-.29,1-.6,1.54-.93,19.41-12.36,29.94,0,29.94,0s3.08.67,7.41,1.8c1.74.46,3.69,1,5.72,1.56l1.26.37c6.92,2,14.51,4.68,18.24,7.36,5.14,3.72,6.49,21.14,6.86,39.63v1.38c0,1.59.05,3.18.06,4.78,0,2.4,0,4.79,0,7.15v1.56c0,6,0,11.68.08,16.69v1.65c0,2.91.13,5.54.27,7.81q.09,1.47.21,2.73C122.84,191.43,123.31,194.54,123.91,197.89Z"/><path class="cls-10" d="M12.88,192.55A163.2,163.2,0,0,0,12.21,171c-.71-6.79-1.86-13.53-2.93-20.27-.15-.95-1.59-.55-1.45.4,1.07,6.73,2.22,13.45,2.91,20.23a162.92,162.92,0,0,1,.64,21.19.75.75,0,1,0,1.5,0Z"/><path class="cls-11" d="M105.8,136.08a42.65,42.65,0,0,0,16.08,10.24v-1.38a39,39,0,0,1-4.25-1.85,39.72,39.72,0,0,1-19.92-22.71,41.17,41.17,0,0,1-.93-22.44l-1.26-.36a42.52,42.52,0,0,0-1.15,8.47A41,41,0,0,0,105.8,136.08Z"/><path class="cls-11" d="M61.43,101.73a26.33,26.33,0,0,1-12.18,9.14,31.48,31.48,0,0,1-9.63,2.07c-8.17.49-16.08-2.22-22.88-6.6.45-.23.91-.44,1.38-.64a43,43,0,0,0,6.49,3.3,33.05,33.05,0,0,0,24.69.47l.2-.09A24.67,24.67,0,0,0,60.3,101C60.79,100.4,61.92,101.05,61.43,101.73Z"/><path class="cls-11" d="M22.45,192.67a37.08,37.08,0,0,0,24-2,23.22,23.22,0,0,0,8.43-6c3-3.45,5.1-7.47,7.51-11.3a43.84,43.84,0,0,1,19.17-16.89A42.64,42.64,0,0,1,122,159.81v-1.56h0a44.54,44.54,0,0,0-17-6.31c-16.9-2.5-33.86,5.57-43.12,19.81-2.6,4-4.78,8.33-7.9,12a22.59,22.59,0,0,1-9,6.17,35.87,35.87,0,0,1-22.16,1.52.65.65,0,0,0-.73.55A.66.66,0,0,0,22.45,192.67Z"/><path class="cls-11" d="M18.34,140.59a67.84,67.84,0,0,1,22.09-12,66.57,66.57,0,0,1,12.15-2.67c3.59-.44,7.38-.64,10.86.52a9.9,9.9,0,0,1,6.71,6.88c1,3.84-.18,7.79-2.24,11.06a42.11,42.11,0,0,1-8.3,9.17,71.92,71.92,0,0,1-9.72,7c-8,4.81-16.62,8.34-25.22,11.81-.78.32-1.11-.94-.35-1.25,14.09-5.69,28.9-11.74,39.3-23.28,2.65-3,5.18-6.46,5.54-10.54a8.83,8.83,0,0,0-4.58-9c-3-1.55-6.61-1.6-9.9-1.32a62.12,62.12,0,0,0-11.62,2.16,65.74,65.74,0,0,0-23.8,12.36c-.64.53-1.56-.39-.92-.92Z"/><path class="cls-11" d="M122.1,178.15a27.28,27.28,0,0,0-18.21-5.75c-7.89.42-16.52,5-18.91,13a15.86,15.86,0,0,0,1.65,12.49h-1.5A17.82,17.82,0,0,1,83.2,187.6c1-8.61,9.11-14.59,17.18-16.09a28.5,28.5,0,0,1,21.69,5Z"/><path class="cls-12" d="M40.92,99.48c5.19,6.59,18.83,14.75,30.59,13.54,16.41-1.7,20.93-10.47,18.25-17-4.32-1.13-7.4-1.81-7.4-1.81s-10.53-12.35-29.94,0A47.71,47.71,0,0,1,40.92,99.48Z"/><path class="cls-13" d="M52.77,99.69s17.58,14.56,31.56,0L80.06,87.9l-2.82-7.78-2-5.45-22.7-2.34A77.39,77.39,0,0,1,52.77,99.69Z"/><path class="cls-2" d="M58.4,80.28c10.86,11.22,19.89,12,22.73,10.56L77.24,80.09Z"/><path class="cls-13" d="M49.66,66.35a21.4,21.4,0,0,0,.54,2.5,16.08,16.08,0,0,0,2.3,4.84,53.23,53.23,0,0,0,5.9,6.65c4.11,4.14,10.07,5.1,15.6,4.35,14.69-2,14.63-12.18,11.33-27.13-2-9.28-.12-14.86-3-18.18h0L81.78,39a21.3,21.3,0,0,0-15.39-4.08q-1.5.18-3,.45l-.64.12-.26.06a3,3,0,0,0-.72.15l-.5.12c-.39.09-.76.19-1.12.29C48.66,39.29,46.72,46.85,47.29,54,47.67,58.8,49.21,63.42,49.66,66.35Z"/><path class="cls-2" d="M55.41,35.66s5.72-3,7.77-1,.09,8,4.5,8.76c4.12.72,4.51-3.72,7.89-2.55,2.34.81,1.17,4.33,3.54,6.4,2.6,2.27,4.43-2.47,7,6.88,1.23,4.48,6.46-2.67,3.14-10.63S71.78,22.36,55.41,35.66Z"/><path class="cls-2" d="M71.5,57.76a1.32,1.32,0,0,1-1,1.5,1.33,1.33,0,0,1-1.15-1.41c0-.8.43-1.48,1-1.5S71.47,57,71.5,57.76Z"/><path class="cls-2" d="M81.12,56.63a1.32,1.32,0,0,1-1,1.5A1.33,1.33,0,0,1,79,56.72a1.32,1.32,0,0,1,1-1.5C80.57,55.2,81.09,55.83,81.12,56.63Z"/><path class="cls-14" d="M64.88,62.87c.13.8,1.48,1.26,3,1s2.69-1.09,2.57-1.89-1.48-1.26-3-1S64.76,62.07,64.88,62.87Z"/><path class="cls-14" d="M86.11,61.33a4.24,4.24,0,0,1-2.11.9c-1.54.24-2.89-.22-3-1s1-1.65,2.57-1.89a4.33,4.33,0,0,1,2.2.18Z"/><path class="cls-2" d="M71.26,53.4c-.85-.62-2.25-.94-3,.06A1.4,1.4,0,1,1,65.85,52,4.85,4.85,0,0,1,72.62,51l.06,0a1.44,1.44,0,0,1,.5,1.92,1.41,1.41,0,0,1-1.92.49Z"/><path class="cls-2" d="M82.35,52.46a2.64,2.64,0,0,0-3.12,0c-1.47,1-3.11-1.24-1.63-2.27a5.4,5.4,0,0,1,5.92-.32c1.55.89.4,3.44-1.17,2.55Z"/><path class="cls-2" d="M55.56,69.65a8.1,8.1,0,0,1-5.36-.8,16.08,16.08,0,0,0,2.3,4.84A8.41,8.41,0,0,0,55.56,69.65Z"/><path class="cls-2" d="M61.48,61.71c-2.72,2.17-4.85-7.68-10.92-8.36a5,5,0,0,0-3.27.61c.38,4.83,1.92,9.46,2.37,12.39a20.4,20.4,0,0,0,.53,2.44c-3.19-5.72-6.81-12.48-7.8-15.42a10.85,10.85,0,0,1-.43-1.7c.11-.17.23-.34.35-.5a11.16,11.16,0,0,1,1.81-1.89,14.28,14.28,0,0,1,3.63-2.14,30.31,30.31,0,0,1,12.57-2C59.86,49.54,63.71,59.93,61.48,61.71Z"/><path class="cls-2" d="M64.87,38.32s-3.83,2.1-4.41,5.42a20.3,20.3,0,0,0,.09,6.6s-11,1.57-13.35.41S45,42.1,45,42.1,59.67,32.4,63.93,34,64.87,38.32,64.87,38.32Z"/><path class="cls-8" d="M81.37,65.65s-3.48.16-10.33.52c0,0,1.57,7.19,6.48,6.39C81.68,71.89,81.37,65.65,81.37,65.65Z"/><path class="cls-14" d="M78.67,75.29a3.07,3.07,0,0,1-3.25,0c-.51-.35.06-1.14.58-.78a2.16,2.16,0,0,0,2.27-.13.49.49,0,0,1,.4.89Z"/><path class="cls-13" d="M59.64,65.31a8.26,8.26,0,0,0-2.1-6.86c-2.18-2.41-6.07-6-9.12-5.12C44,54.68,44,58.84,45.13,62.93S49.8,72,55.38,70.26A6,6,0,0,0,59.64,65.31Z"/><path class="cls-2" d="M54.07,65.42A10.66,10.66,0,0,0,53,60.24c-.81-1.4-2.82-3.3-4.63-2.38-.61.31-1.2-.58-.59-.89,1.75-.9,3.68-.09,5,1.23,1.9,1.9,2.35,4.6,2.41,7.18a.54.54,0,0,1-1.07,0Z"/><path class="cls-11" d="M24.24,172.35c.05,4.61-.13,9.23-.46,13.8q-.2,2.7-.45,5.4l-.12,1.32c-.17,1.68-.35,3.35-.54,5H21.34a188.75,188.75,0,0,0,1.35-32.41,98.65,98.65,0,0,0-1.42-11.61c-.06-.39-.14-.79-.22-1.18-.12-.63-.25-1.26-.4-1.89s-.34-1.5-.53-2.25a74.37,74.37,0,0,0-3.26-10c-.32-.79,1-1.13,1.28-.35s.53,1.32.78,2l.45,1.28a79.22,79.22,0,0,1,3,11.34c.09.44.18.87.25,1.31v.27c.07.37.14.73.2,1.1a111.6,111.6,0,0,1,1.33,15.7A5.88,5.88,0,0,1,24.24,172.35Z"/><path d="M39.15,104.65c-6.79,1.7-12,1.12-17.41,3.43-.47.19-.93.39-1.38.62a22.86,22.86,0,0,0-3.49,2.09c-1.73,1.79-3.46,3.61-5.15,5.46C.55,128.43-9.1,141.59-10.89,152.12a40.05,40.05,0,0,0-.53,7.17V160c.31,12.34,5.44,26.2,13,37.32H50.37l1.72.42v-.42a29.84,29.84,0,0,0-.91-7.47c-.11-.43-.23-.85-.37-1.24a12.56,12.56,0,0,0-2.25-4.43c-2.91-3.24-9.47-8.65-14-14.07l-.83-1c-2.81-3.56-4.61-7.06-3.8-9.92,2.12-7.49,17.7-44.51,17.7-44.51C48.45,111.87,43.19,107.7,39.15,104.65Z"/><path d="M50.37,197.34h-6a6,6,0,0,1,3.11-.67Z"/><path d="M29.66,159.35a18,18,0,0,0-11.55-8.88c-.48-.12-.69.6-.21.72A17.15,17.15,0,0,1,29,159.73c.23.42.89.05.67-.38Z"/><path d="M22.36,149.05A16.68,16.68,0,0,1,25.7,155c.14.46.89.27.74-.19a17.86,17.86,0,0,0-3.53-6.29C22.59,148.15,22.05,148.68,22.36,149.05Z"/><path d="M-1.46,133a20.92,20.92,0,0,1-10.07,26.33c-.43.22,0,.87.39.64A21.65,21.65,0,0,0-.71,132.81C-.89,132.36-1.64,132.55-1.46,133Z"/><path class="cls-6" d="M36.78,100.66c-6.78,1.75-13.23,2.66-18.66,5-.47.2-.93.41-1.38.64a22.78,22.78,0,0,0-3.49,2.16c-1.73,1.85-3.46,3.73-5.15,5.64-11.17,12.58-20.82,26.17-22.61,37.05a42.64,42.64,0,0,0-.53,7.4v.76c.31,12.74,5.44,27.06,13,38.54H46.75l1.72.43v-.43a31.9,31.9,0,0,0-.91-7.72c-.11-.44-.23-.87-.37-1.28A13,13,0,0,0,45,184.32c-2.91-3.35-9.47-8.93-14-14.53l-.83-1c-2.81-3.67-4.61-7.29-3.8-10.24C28.41,150.76,45,129,45,129a1,1,0,0,1,.11-.36c.11-.24.24-.78.43-1.43h0A157.22,157.22,0,0,0,49.3,110.9c.09-.48.17-1,.25-1.46l.09-.61A78.76,78.76,0,0,1,36.78,100.66Z"/><path class="cls-15" d="M46.75,197.89h-6a5.9,5.9,0,0,1,3.11-.69Z"/><path class="cls-11" d="M26,158.65a18.05,18.05,0,0,0-11.55-9.17.38.38,0,1,0-.2.74A17.28,17.28,0,0,1,25.37,159c.23.44.89.05.67-.39Z"/><path class="cls-11" d="M18.75,148a17.69,17.69,0,0,1,3.33,6.15c.15.47.89.27.74-.2a18.63,18.63,0,0,0-3.53-6.5C19,147.07,18.43,147.62,18.75,148Z"/><path class="cls-11" d="M51.75,107.72a26.17,26.17,0,0,1-4,2.08l-.2.09a33.05,33.05,0,0,1-24.69-.47,42.72,42.72,0,0,1-6.49-3.33c-.47.2-.93.41-1.38.64,6.8,4.38,14.71,7.09,22.88,6.6a31.48,31.48,0,0,0,9.63-2.07,28.4,28.4,0,0,0,5.5-2.85C52.6,108.18,52.17,108,51.75,107.72Z"/><path class="cls-2" d="M45.8,42.46s8.09-20.23,23.86-20.31c13.07-.06,15,7.72,19.87,12s10.42-1.4,10.34,3.57A6.78,6.78,0,0,1,95.2,44s7.28-.15,5.43,5.14-7.84,3.32-7.84,3.32,2.41,5.88-.89,8.32c-8.07,6-12.38-18.41-20.91-16.18C62,47,45.8,42.46,45.8,42.46Z"/><path class="cls-2" d="M76.26,61a1.59,1.59,0,1,0,1.06-3h0a2.79,2.79,0,0,0-1,0c-.6-.07-.8-.76-.9-1.41.2-.09.42-.17.63-.24a1.64,1.64,0,0,0,.46,1c.24.15.9,0,1.3.15a2.23,2.23,0,0,1,1.32,1.61,2.28,2.28,0,0,1-1.82,2.66,2.36,2.36,0,0,1-1.18-.09A.35.35,0,0,1,76.26,61Z"/></g></svg>