<svg id="Layer_1" data-name="Layer 1" xmlns="http://www.w3.org/2000/svg" xmlns:xlink="http://www.w3.org/1999/xlink" viewBox="0 0 431.4 408.15"><defs><style>.cls-1{fill:none;}.cls-2{fill:#f5f5f5;}.cls-3{clip-path:url(#clip-path);}.cls-4{fill:#c2c6c8;}.cls-5{fill:#767e84;}.cls-6{fill:#989da2;}.cls-7{fill:#8c5249;}.cls-8{fill:#49535b;}.cls-9{fill:#5b342f;}.cls-10{fill:#fd7460;}.cls-11{fill:#263238;}.cls-12{fill:#8c9398;}.cls-13{fill:#fd7f6d;}.cls-14{fill:#232f39;}.cls-15{fill:#b5b9bc;}.cls-16{fill:#253238;}.cls-17{fill:#d4d7d9;}.cls-18,.cls-21{fill:#fff;}.cls-19{fill:#9ea4a8;}.cls-20{fill:#feb7ad;}.cls-21{opacity:0.2;}.cls-22{fill:#fecec7;}.cls-23{fill:#1e2b35;}.cls-24{fill:#303c45;}.cls-25{fill:#feb9af;}.cls-26{fill:#777e81;}.cls-27{fill:#9ca1a3;}</style><clipPath id="clip-path"><circle class="cls-1" cx="227.31" cy="211.93" r="196.23"/></clipPath></defs><circle class="cls-2" cx="227.31" cy="211.93" r="196.23"/><g class="cls-3"><polygon class="cls-4" points="186.78 329.79 371.07 141.63 364.03 134.58 179.73 322.74 186.78 329.79"/><path class="cls-5" d="M199.93,331.73H118.6c-9.25,0-17.46-3.69-22-9.87A15.24,15.24,0,0,1,96.72,303l24.91-32.78,17.42-.36-29.16,39.19a5.44,5.44,0,0,0,0,6.79c1.76,2.41,5,3.84,8.75,3.84h67.11c7.86,0,14.22,5.38,14.22,12Z"/><rect class="cls-6" x="123.2" y="305.46" width="56.47" height="14.26" rx="2.9"/><path class="cls-4" d="M136.43,246.22,69.84,163.08a78.61,78.61,0,0,0-5.54-6.94A24.1,24.1,0,0,0,43,148.56h0c-9.88,1.9-15.91,9.72-14,19.6l64.6,86.3a18.32,18.32,0,0,0,11.49,13.63,17.52,17.52,0,0,0,1.9.61,18.06,18.06,0,0,0,8,.27l6.93-1.34A18.34,18.34,0,0,0,136.43,246.22Z"/><path class="cls-7" d="M230.3,232l-5.16,6.8s-33.7-.35-44.24-5.12c-3.43-1.55-34.68,1.05-43.5-2.36a11.45,11.45,0,0,1-4.62-3,16.23,16.23,0,0,1-3-16.33,169.54,169.54,0,0,1,26.39-.4c9.23.71,23.15,3.15,28.86,6.57C194,223.43,230.3,232,230.3,232Z"/><path class="cls-8" d="M238,220.19a1.85,1.85,0,0,0-1.35.86,15.45,15.45,0,0,1-4.73,5.53c-1.55,1-6.21,5.22-6.21,5.22v0c0,.12-.07.71.9,3.67.5,1.53-2.41,2.88-2.41,2.88a2.94,2.94,0,0,0,.59,1,2.68,2.68,0,0,0,1.63.85c1.07.15,2.73,1.38,3.83,2.29.67.56,1.13,1,1.13,1s.58.35,1.72-2.11l1-3c.2-1,.19-1.86.42-2.92a3.17,3.17,0,0,1,1.32-2.24h0l4.25-12.63C239.78,220.13,238.75,220.12,238,220.19Z"/><path class="cls-7" d="M93.12,151.77a86.16,86.16,0,0,1,4.75,8.36,38.12,38.12,0,0,1,2.31,5.66l-13.61,8.06s.15-7.81-2.52-12.42a8.85,8.85,0,0,0-.5-.79,6.45,6.45,0,0,0-1.94-1.82l1.25-1.91L88,154.35Z"/><path class="cls-9" d="M93.12,151.77a86.16,86.16,0,0,1,4.75,8.36c-5.17,2.65-11.52,1.75-13.82,1.3a8.85,8.85,0,0,0-.5-.79l2-3.11,2.4-3.18Z"/><path class="cls-7" d="M98.81,155.06s-11.87,12-19.2,4.46-13.8-11-6.53-19,11.56-6.55,14.61-4.64S101.71,151.76,98.81,155.06Z"/><path class="cls-10" d="M156.45,212.47c0,.77,0,7.25-4.19,10.09-2.7,1.85-9.25,6.38-15.57,8.7a11.51,11.51,0,0,1-4.45-3.27,16.2,16.2,0,0,1-2.16-16.46A170.4,170.4,0,0,1,156.45,212.47Z"/><path class="cls-11" d="M112.31,208.38s15,4,25.8-.46a135.45,135.45,0,0,0,20.34,3.76s-3.9,17.79-6.41,20.81c-.81,1-14.37,1-23.31,1.14a18,18,0,0,1-14-6.26,60.72,60.72,0,0,1-4.47-5.92C104.74,213.05,112.31,208.38,112.31,208.38Z"/><path class="cls-12" d="M132.18,196.67l-4.29-6.11-4-5.19A75.63,75.63,0,0,0,101.33,166l-1.51-.85s-10.09,1.54-13.92,2.62c0,0-1.78,10.52.07,15.9,1.12,3.13,8.26,19.34,22.56,36a23.48,23.48,0,0,0,22.74-5.3c1.61-1.45,6.83-3.9,7.93-7.22C139.57,206,133,197.52,132.18,196.67Z"/><path class="cls-13" d="M67.58,168.23l-13.33-16a5.53,5.53,0,0,1,.94-8l.36-.27a5.54,5.54,0,0,1,7.64,1l13,16.25a5.53,5.53,0,0,1-.79,7.71h0A5.53,5.53,0,0,1,67.58,168.23Z"/><path class="cls-14" d="M81.94,128.49c3,.24,6.51,3.59,6.86,7.22s-1,13.68-2.62,12.59c-3.5-2.37-3.93,3.13-.55,4.65,2.32,1,.69,5.86-1.44,8.2-1.72,1.88-2.89.62-4.09.14a3.76,3.76,0,0,0-.92-.23c-4.57-.46-9.85-4.23-12.69-9.63C57.53,134.36,81.94,128.49,81.94,128.49Z"/><path class="cls-5" d="M94.68,176.83s-6.23,9.77-.4,23.11c0,0,7.68,12.17,14.25,19.7,0,0,11.89,5.86,25.52-6.76l-14.24-6.06Z"/><path class="cls-7" d="M155.22,210.83c-.46-.54-2.18-2.51-7.74-2.57h0c-6.08-.53-23.84-2.25-25.39-4.51-1.06-1.52-15.63-30.8-16.91-31-4.2-.62-11.47,7-10.4,10.65,0,0,15,30.56,18.33,31.17,5.36.95,24.52.25,31.65-1.28.87.46,4.21,2.26,5,2.62s4.5.39,5.94-.64S156.23,212,155.22,210.83Z"/><path class="cls-12" d="M113.4,186.17a19.73,19.73,0,0,1-13.77,9.73c-1.27-1.51-4.85-12.49-4.85-12.49-1.07-3.7-1.44-16.39,10-11.8C112,174.48,112.48,183.69,113.4,186.17Z"/><path class="cls-15" d="M252,296.83,188.5,269.25l14.11-32.46,63.46,27.58a15.55,15.55,0,0,1,8.07,20.47l-1.7,3.92A15.57,15.57,0,0,1,252,296.83Z"/><path class="cls-6" d="M212.2,264.13V241l-9.59-4.17L188.5,269.25l12.95,5.63h0A10.75,10.75,0,0,0,212.2,264.13Z"/><path class="cls-15" d="M194.63,233.09H119.44L58.92,160.88c-4.76-6.24-7.68-9-11.4-11.27a7.49,7.49,0,0,0-5.26-.91h0l-.61.13c-12.07,2.75-17,17.32-9.39,27.08l61.3,78.55A18.06,18.06,0,0,0,97.77,263l.2.37,0,0c.2.35.42.7.65,1l0,.06c.23.32.47.63.73.93l.07.07.25.29h0l.53.53.1.1.26.23.12.11.45.37.15.12.24.18.19.13.23.16.38.25.22.13.25.14.22.12.41.21.19.09.33.15.2.09.38.15.14.05.48.16.17.06.37.1.17.05c.18,0,.35.09.53.12l.15,0,.45.08.13,0,.56.08h.1l.48,0h86.3a12.73,12.73,0,0,0,4.38-.77,13,13,0,0,0,4.64-3,12.76,12.76,0,0,0,3.74-9h0V245.86A12.8,12.8,0,0,0,194.63,233.09Z"/><path class="cls-5" d="M207,253.13H93.9c-.77,0-4.44.08-4.44-1.41h0a1.41,1.41,0,0,1,1.41-1.4H207a1.4,1.4,0,0,1,1.4,1.4h0A1.41,1.41,0,0,1,207,253.13Z"/><path class="cls-16" d="M91,141.8a4.87,4.87,0,0,1,1-.75c.12,0,.54.13.61.16a5.47,5.47,0,0,0-1.37.82A7.08,7.08,0,0,0,90,143.35,4.42,4.42,0,0,1,91,141.8Z"/><path class="cls-16" d="M92.44,142.79a.82.82,0,0,0-.23.26,3,3,0,0,0-.38,1.72l.34-1.09a.31.31,0,0,0,0,.12.74.74,0,0,0,1.23-.82A.72.72,0,0,0,92.44,142.79Z"/><rect class="cls-4" x="201.66" y="71.34" width="195.27" height="9.97" transform="translate(141.63 -189.27) rotate(45)"/><rect class="cls-4" x="187.91" y="26.43" width="51.32" height="9.97" transform="translate(40.34 160.22) rotate(-45)"/><ellipse class="cls-5" cx="186.24" cy="58.74" rx="17.83" ry="28.56" transform="translate(13.01 148.9) rotate(-45)"/><ellipse class="cls-15" cx="171.76" cy="73.22" rx="31.63" ry="50.65" transform="translate(-1.46 142.9) rotate(-45)"/><path class="cls-12" d="M210.29,74.6c3.68,11.88,2.49,23-4.37,29.82-12.35,12.36-38.39,6.34-58.17-13.44a73.52,73.52,0,0,1-16.17-23.75c2.95,9.52,9,19.56,17.82,28.35,19.78,19.78,45.82,25.8,58.18,13.45C215.32,101.29,215.84,88.18,210.29,74.6Z"/><ellipse class="cls-17" cx="168.18" cy="76.8" rx="24.67" ry="39.5" transform="translate(-5.05 141.41) rotate(-45)"/><path class="cls-18" d="M170.42,73.23c4.15,4.14,5.41,9.61,2.82,12.2s-8.05,1.33-12.2-2.82-5.41-9.61-2.82-12.2S166.27,69.08,170.42,73.23Z"/><path class="cls-18" d="M182,60.62c4.15,4.15,5.41,9.62,2.82,12.21s-8.05,1.32-12.2-2.82-5.41-9.61-2.82-12.21S177.87,56.48,182,60.62Z"/><path class="cls-18" d="M152.23,55c4.14,4.15,5.41,9.61,2.82,12.2s-8.06,1.33-12.21-2.82-5.41-9.61-2.82-12.2S148.08,50.89,152.23,55Z"/><path class="cls-18" d="M187.94,90.75c4.15,4.15,5.42,9.61,2.82,12.2s-8,1.33-12.2-2.82-5.41-9.61-2.82-12.2S183.8,86.6,187.94,90.75Z"/><path class="cls-18" d="M158.9,84.74c3.19,3.19,4.16,7.39,2.17,9.38s-6.19,1-9.38-2.17-4.15-7.38-2.16-9.37S155.72,81.56,158.9,84.74Z"/><circle class="cls-5" cx="232.82" cy="12.16" r="12.16"/><path class="cls-4" d="M237.86,12.16a5,5,0,1,1-5-5A5,5,0,0,1,237.86,12.16Z"/><circle class="cls-5" cx="363.51" cy="140.54" r="12.16"/><path class="cls-4" d="M368.54,140.54a5,5,0,1,1-5-5A5,5,0,0,1,368.54,140.54Z"/><path class="cls-18" d="M248.65,57l2.55-2,14.58-.89s0,6.24,3.2,8.46a21.12,21.12,0,0,1-14.77,6.06S249.76,66.22,248.65,57Z"/><path class="cls-17" d="M269,62.6s-10,4.8-12.47,2.28S251.75,56,251.75,56s1.93,10.29,4.45,11.86S265.39,66.27,269,62.6Z"/><rect class="cls-13" x="409.73" y="168.86" width="1.92" height="10.85"/><path class="cls-15" d="M416.43,269.72l-.93,0,.05-.71a8.23,8.23,0,0,0,6.9-2.32c5.74-5.89,4.17-22.23,2.64-38-1.39-14.51-2.84-29.51,1.38-36.66,6.25-10.59,5.55-21.27-2.05-31.76l-.37-.51a1.57,1.57,0,0,0-1.18-.72c-1.77-.17-4.16,2.16-4.18,2.18l-.5-.5c.11-.11,2.65-2.58,4.75-2.38a2.21,2.21,0,0,1,1.69,1l.36.51a33,33,0,0,1,5.62,11.45c1.76,7,.57,14.13-3.53,21.08s-2.67,21.84-1.28,36.23c1.54,16,3.13,32.47-2.84,38.6A8.74,8.74,0,0,1,416.43,269.72Z"/><rect class="cls-5" x="333.88" y="212.52" width="86.18" height="109.37" rx="3.41"/><path class="cls-15" d="M321.64,326.26a6.13,6.13,0,1,1,6.13,6.13A6.14,6.14,0,0,1,321.64,326.26Z"/><path class="cls-19" d="M323.52,326.26a4.26,4.26,0,1,1,4.25,4.26A4.25,4.25,0,0,1,323.52,326.26Z"/><path class="cls-15" d="M399.47,326.26a6.13,6.13,0,1,1,6.13,6.13A6.13,6.13,0,0,1,399.47,326.26Z"/><path class="cls-19" d="M401.34,326.26a4.26,4.26,0,1,1,4.26,4.26A4.26,4.26,0,0,1,401.34,326.26Z"/><path class="cls-15" d="M354.06,204.12h-7a.52.52,0,0,0,0-1h-5a.52.52,0,1,0,0,1h0a3.28,3.28,0,0,0-3.27,3.27v17.45a3.28,3.28,0,0,0,3.27,3.27h12a3.28,3.28,0,0,0,3.27-3.27V207.39A3.28,3.28,0,0,0,354.06,204.12Z"/><path class="cls-15" d="M370,200.18h-4.35a.47.47,0,0,0,.46-.46v-.28a.47.47,0,0,0-.46-.47h-3.35a.47.47,0,0,0-.47.47v.28a.47.47,0,0,0,.47.46h.6a3,3,0,0,0-3,3v22.48a3,3,0,0,0,3,3H370a3,3,0,0,0,3-3V203.18A3,3,0,0,0,370,200.18Z"/><polygon class="cls-15" points="382.09 212.84 376.91 212.84 375.98 204.87 382.66 204.87 382.09 212.84"/><rect class="cls-4" x="375.88" y="204.52" width="6.94" height="0.34" rx="0.17"/><polygon class="cls-15" points="382.09 213.94 376.91 213.94 375.98 205.96 382.66 205.96 382.09 213.94"/><rect class="cls-4" x="375.88" y="205.62" width="6.94" height="0.34" rx="0.17"/><polygon class="cls-15" points="382.09 215.12 376.91 215.12 375.98 207.14 382.66 207.14 382.09 215.12"/><rect class="cls-4" x="375.88" y="206.8" width="6.94" height="0.34" rx="0.17"/><polygon class="cls-15" points="382.09 216.66 376.91 216.66 375.98 208.69 382.66 208.69 382.09 216.66"/><rect class="cls-4" x="375.88" y="208.34" width="6.94" height="0.34" rx="0.17"/><polygon class="cls-15" points="382.09 217.8 376.91 217.8 375.98 209.82 382.66 209.82 382.09 217.8"/><rect class="cls-4" x="375.88" y="209.48" width="6.94" height="0.34" rx="0.17"/><path class="cls-13" d="M322.07,174.59h-.37a.71.71,0,0,0-.71-.71h-.65a.72.72,0,0,0-.72.71h-.37a1.56,1.56,0,0,0-1.55,1.55v13.77a1.56,1.56,0,0,0,1.55,1.55h2.82a1.55,1.55,0,0,0,1.55-1.55V176.14A1.55,1.55,0,0,0,322.07,174.59Z"/><path class="cls-13" d="M329.3,174.59h-.37a.71.71,0,0,0-.72-.71h-.64a.71.71,0,0,0-.72.71h-.37a1.56,1.56,0,0,0-1.55,1.55v13.77a1.56,1.56,0,0,0,1.55,1.55h2.82a1.56,1.56,0,0,0,1.55-1.55V176.14A1.56,1.56,0,0,0,329.3,174.59Z"/><path class="cls-13" d="M337.2,174.59h-.37a.72.72,0,0,0-.72-.71h-.65a.71.71,0,0,0-.71.71h-.37a1.55,1.55,0,0,0-1.55,1.55v13.77a1.55,1.55,0,0,0,1.55,1.55h2.82a1.56,1.56,0,0,0,1.55-1.55V176.14A1.56,1.56,0,0,0,337.2,174.59Z"/><path class="cls-20" d="M353.3,165.29H349a.48.48,0,0,0,.47-.47v-.28a.48.48,0,0,0-.47-.47H345.6a.47.47,0,0,0-.47.47v.28a.47.47,0,0,0,.47.47h.6a3,3,0,0,0-3,3v22.48a3,3,0,0,0,3,3h7.1a3,3,0,0,0,3-3V168.28A3,3,0,0,0,353.3,165.29Z"/><polygon class="cls-15" points="382.09 177.95 376.91 177.95 375.98 169.97 382.66 169.97 382.09 177.95"/><rect class="cls-4" x="375.88" y="169.63" width="6.94" height="0.34" rx="0.17"/><polygon class="cls-15" points="382.09 179.04 376.91 179.04 375.98 171.06 382.66 171.06 382.09 179.04"/><rect class="cls-4" x="375.88" y="170.72" width="6.94" height="0.34" rx="0.17"/><polygon class="cls-15" points="382.09 180.22 376.91 180.22 375.98 172.24 382.66 172.24 382.09 180.22"/><rect class="cls-4" x="375.88" y="171.9" width="6.94" height="0.34" rx="0.17"/><polygon class="cls-15" points="382.09 181.76 376.91 181.76 375.98 173.79 382.66 173.79 382.09 181.76"/><rect class="cls-4" x="375.88" y="173.44" width="6.94" height="0.34" rx="0.17"/><polygon class="cls-15" points="382.09 182.9 376.91 182.9 375.98 174.93 382.66 174.93 382.09 182.9"/><rect class="cls-4" x="375.88" y="174.58" width="6.94" height="0.34" rx="0.17"/><polygon class="cls-15" points="372.63 177.95 367.45 177.95 366.52 169.97 373.2 169.97 372.63 177.95"/><rect class="cls-4" x="366.42" y="169.63" width="6.93" height="0.34" rx="0.17"/><polygon class="cls-15" points="372.63 179.04 367.45 179.04 366.52 171.06 373.2 171.06 372.63 179.04"/><rect class="cls-4" x="366.42" y="170.72" width="6.93" height="0.34" rx="0.17"/><polygon class="cls-15" points="372.63 180.22 367.45 180.22 366.52 172.24 373.2 172.24 372.63 180.22"/><rect class="cls-4" x="366.42" y="171.9" width="6.93" height="0.34" rx="0.17"/><polygon class="cls-15" points="372.63 181.76 367.45 181.76 366.52 173.79 373.2 173.79 372.63 181.76"/><rect class="cls-4" x="366.42" y="173.44" width="6.93" height="0.34" rx="0.17"/><polygon class="cls-15" points="366.52 174.93 367.45 182.9 372.63 182.9 373.2 174.93 366.52 174.93"/><rect class="cls-4" x="366.42" y="174.58" width="6.93" height="0.34" rx="0.17"/><polygon class="cls-15" points="391.85 177.95 386.66 177.95 385.73 169.97 392.41 169.97 391.85 177.95"/><rect class="cls-4" x="385.63" y="169.63" width="6.93" height="0.34" rx="0.17"/><polygon class="cls-15" points="391.85 179.04 386.66 179.04 385.73 171.06 392.41 171.06 391.85 179.04"/><rect class="cls-4" x="385.63" y="170.72" width="6.93" height="0.34" rx="0.17"/><polygon class="cls-15" points="391.85 180.22 386.66 180.22 385.73 172.24 392.41 172.24 391.85 180.22"/><rect class="cls-4" x="385.63" y="171.9" width="6.93" height="0.34" rx="0.17"/><polygon class="cls-15" points="391.85 181.76 386.66 181.76 385.73 173.79 392.41 173.79 391.85 181.76"/><rect class="cls-4" x="385.63" y="173.44" width="6.93" height="0.34" rx="0.17"/><polygon class="cls-15" points="391.85 182.9 386.66 182.9 385.73 174.93 392.41 174.93 391.85 182.9"/><rect class="cls-4" x="385.63" y="174.58" width="6.93" height="0.34" rx="0.17"/><polygon class="cls-15" points="390.54 212.84 385.36 212.84 384.43 204.87 391.11 204.87 390.54 212.84"/><rect class="cls-4" x="384.33" y="204.52" width="6.94" height="0.34" rx="0.17"/><polygon class="cls-15" points="390.54 213.94 385.36 213.94 384.43 205.96 391.11 205.96 390.54 213.94"/><rect class="cls-4" x="384.33" y="205.62" width="6.94" height="0.34" rx="0.17"/><polygon class="cls-15" points="390.54 215.12 385.36 215.12 384.43 207.14 391.11 207.14 390.54 215.12"/><rect class="cls-4" x="384.33" y="206.8" width="6.94" height="0.34" rx="0.17"/><polygon class="cls-15" points="390.54 216.66 385.36 216.66 384.43 208.69 391.11 208.69 390.54 216.66"/><rect class="cls-4" x="384.33" y="208.34" width="6.94" height="0.34" rx="0.17"/><polygon class="cls-15" points="390.54 217.8 385.36 217.8 384.43 209.82 391.11 209.82 390.54 217.8"/><rect class="cls-4" x="384.33" y="209.48" width="6.94" height="0.34" rx="0.17"/><path class="cls-5" d="M413,192.66h0a2,2,0,0,0-2,2v17.15a2,2,0,0,0,2,2h0a2,2,0,0,0,2-2V194.66A2,2,0,0,0,413,192.66Z"/><path class="cls-5" d="M400,192.66a2,2,0,0,0-2,2v17.15a2,2,0,0,0,4,0V194.66A2,2,0,0,0,400,192.66Z"/><path class="cls-5" d="M333.79,192.66a2,2,0,0,0-2,2v17.15a2,2,0,0,0,4,0V194.66A2,2,0,0,0,333.79,192.66Z"/><path class="cls-5" d="M320.83,192.66h0a2,2,0,0,0-2,2v17.15a2,2,0,0,0,2,2h0a2,2,0,0,0,2-2V194.66A2,2,0,0,0,320.83,192.66Z"/><rect class="cls-5" x="333.88" y="179.71" width="86.18" height="16.49" rx="1.32"/><rect class="cls-15" x="310.39" y="179.71" width="86.18" height="16.49" rx="1.32"/><rect class="cls-15" x="310.39" y="212.52" width="86.18" height="109.37" rx="3.41"/><path class="cls-20" d="M400.64,173.19l.39.53-1.27.95.43.57,1.27-1,.36.48,17.37-13.1a1,1,0,0,0,.2-1.38h0a1,1,0,0,0-1.38-.19Z"/><path class="cls-13" d="M411.18,168.9h-1l-1.3-2.29a.41.41,0,0,1,.36-.62h0a.41.41,0,0,1,.36.21Z"/><path class="cls-21" d="M-1.84,118.8c-21.48-20.83-40.33-11.8-43-8.24L-233.37,312s-25.69,25.26,7.84,82.31l262.37.79-21-239.64S19.63,139.64-1.84,118.8Z"/><path class="cls-22" d="M217,127.3c-.49.94-3.81,36.21-1.2,40.85s14.88-8.85,15.19-31.61C231.26,117.37,217,127.3,217,127.3Z"/><rect class="cls-23" x="196.92" y="154.65" width="50.82" height="35.84" transform="translate(383.59 403.22) rotate(-162.78)"/><path class="cls-24" d="M215.86,330.63l5,1.86s21.72-30.12,24.4-56.63a40.28,40.28,0,0,0-.72-13.55s.21-1.21.59-3.35c.17-1,.38-2.21.62-3.59.71-4,1.68-9.58,2.79-15.88,2.55-14.5,5.87-33.05,8.44-46.68l-1.35-.43-14.58-4.7-3-9.57-10.86-2.86s-2.42,4.74-4.59,27.15c-.4,2.94-.76,6.18-1,9.7a192.22,192.22,0,0,0,1,39.25c.5,3.89,1.12,7.91,1.9,12a53.16,53.16,0,0,1,.42,11.89C223.82,297,215.86,330.63,215.86,330.63Z"/><path class="cls-23" d="M221.55,212.1,245.13,259c.17-1,.38-2.21.62-3.59.71-4,1.68-9.58,2.79-15.88,2.55-14.5,5.87-33.05,8.44-46.68l-1.35-.43-14.58-4.7-3-9.57-10.86-2.86s-2.42,4.74-4.59,27.15C222.19,205.34,221.83,208.58,221.55,212.1Z"/><path class="cls-24" d="M231.92,181.26l.55-4.68C241.61,179,266,169.8,266,169.8s8.85,7.79,7.69,26.45c-.57,9.1-1.6,47.81-2.69,59.26-.39,4.15-.73,7.1-.87,8.28v0a1.59,1.59,0,0,0,.26,1,53.28,53.28,0,0,1,4,8.4c10.63,28.32-1.64,63.2-1.64,63.2l-3.18-1.28s-7-38.82-12.65-56a34,34,0,0,0-2.73-6.56c-2.47-4-4.75-10.48-6.83-18.22-3.93-14.62-7.09-33.64-9.19-48.32C237.92,206.1,231.92,181.26,231.92,181.26Z"/><path class="cls-23" d="M254.29,339h25.18a13.75,13.75,0,0,0-.71-6.75c-1.26-2.79-3.23-4.06-2.76-7.45a9.07,9.07,0,0,1-7.85,3c-.45.72-2.88,4.59-4.37,5.66S254.8,334.25,254.29,339Z"/><path class="cls-23" d="M200.22,339H225.4s.94-4-.71-6.75c-1.47-2.42-.9-3.8.18-5.8a9.79,9.79,0,0,1-4.24.8,8.81,8.81,0,0,1-3.75-1.32c-1.08,1.24-5.72,6.5-7.17,7.54C208.06,334.67,200.72,334.25,200.22,339Z"/><path class="cls-14" d="M259.38,52c.2-.68,2.59-7.9,13.9-5.45,0,0-5.68-.74-7.24,1.44,0,0,4.51-2,7.32-.3s3.25,7.54,2.83,9.31-3.57,7-5.63,7a6.19,6.19,0,0,1-2.35-.6,30.1,30.1,0,0,1,.83,3.07c2.15,10.32-4.74,18.12-8.27,16.17-2.27-1.25-4,2.72-4,2.72L238,60.28S251.2,44.54,259.38,52Z"/><path class="cls-22" d="M243.51,118.6c15.54,4.85,18-19.51,17-19.63-1.67-1.5-3.9-7.26-3.83-16l-.76.14-12.72,2.47s.27,4,.27,7.77c0,2.95-.18,5.75-.79,6.39l-1.58.23v0C240.93,100.3,239.37,117.31,243.51,118.6Z"/><path class="cls-25" d="M243.23,85.63s.28,4,.27,7.77c7.11-.17,10.9-6.64,12.45-10.23Z"/><path class="cls-22" d="M240.84,89.19s16.83.35,16.88-10.14,2.26-17.49-8.48-18.16-12.85,3.33-13.72,6.82S236.47,88.83,240.84,89.19Z"/><path class="cls-14" d="M236.05,61.89c2.61-3.14,4.57-2.44,5.67-1.49a11.77,11.77,0,0,1,15.12,2.48,20,20,0,0,0,6.5,11.85s-3.07,1.89-10.14,0a12,12,0,0,1-5.71-4,39.17,39.17,0,0,0,6.72,8.28c-8.43-3.93-11.77-15.7-12.11-16.94-1,.92-3.06,2.92-3.69,4.88-.84,2.66-1.24,8.16-2.84,8C235.57,75,232.13,66.6,236.05,61.89Z"/><path class="cls-26" d="M258.79,96.1s2.64.86,2.78,2.72c0,0-7.08,13.24-14.92,14Z"/><path class="cls-27" d="M221.85,159.07l-6.08,34.68c3.58,2.2,7,4.08,10.38,5.7a41.62,41.62,0,0,1,2.74-6c-.49,1.79.74,5.73,1.51,7.9,31,13.37,49.73,3.1,49.73,3.1-4.65-34.25-1.2-90.65-2-94.68-1.59-7.65-16.51-11-16.51-11a37.43,37.43,0,0,1-14.93,14c-3.56-3.52-4.49-12.94-4.49-12.94l-6.22,1.53a23.56,23.56,0,0,0-10.73,5.84c-.27.26-.53.53-.79.8-3.07,3.29-11.08,24.51-11.08,24.51s1.68,5.84,4.77,8.77a36.46,36.46,0,0,0,6.07,4.41Z"/><path class="cls-26" d="M246.65,112.82s-3.88-12.86-3.43-14.53c0,0-3,.38-3.31,2.14C239.91,100.43,243.35,111.16,246.65,112.82Z"/><path class="cls-26" d="M218.11,141.33a43,43,0,0,0,6.07,4.41s4.66-17.43,3.27-18.64S223.52,137.35,218.11,141.33Z"/><path class="cls-22" d="M285.87,121.47s21.72,29.57,19.61,39.61c-1.68,8-23.66,26.39-23.66,26.39l-5.67-3.66s13.72-19.89,12.52-25.72c-.94-4.53-14.55-21.71-14.55-21.71Z"/><path class="cls-27" d="M271.36,102.5s12.05,6.47,22.42,27a39.47,39.47,0,0,1-18.3,12.09c-12.18,4-11.77-19.58-11.77-19.58Z"/><polygon class="cls-26" points="246.04 125.62 231.1 125.66 231 137.93 237.56 141.62 245.7 138.47 246.04 125.62"/><path class="cls-22" d="M277.62,184.18s-6.13-2.33-9.56-1.42c-1.94.52-5.53,7.36-3.29,8.39s4.76-2.62,7.52-1.93,6.16,4.68,9.53-1.75Z"/><path class="cls-22" d="M277.28,183.41a30.5,30.5,0,0,1-3.42-1.81c-1.06-.74-1.71.58,0,1.81s2.33.68,2.33.68Z"/><path class="cls-22" d="M194.46,182.66s7-3.3,8.37.4-1,6.81-3.36,6.08S193,185.93,194.46,182.66Z"/></g></svg>