<svg id="Layer_1" data-name="Layer 1" xmlns="http://www.w3.org/2000/svg" xmlns:xlink="http://www.w3.org/1999/xlink" viewBox="0 0 329.36 329.36"><defs><style>.cls-1{fill:none;}.cls-2{fill:#e8505b;}.cls-3{clip-path:url(#clip-path);}.cls-4{fill:#263238;}.cls-5{fill:#ff725e;}.cls-6{fill:#ffbe9d;}.cls-7{fill:#eb996e;}.cls-8{fill:#455a64;}.cls-9{opacity:0.3;}.cls-10{fill:#fff;}</style><clipPath id="clip-path"><circle class="cls-1" cx="164.68" cy="164.68" r="164.68"/></clipPath></defs><circle class="cls-2" cx="164.68" cy="164.68" r="164.68"/><g class="cls-3"><path class="cls-4" d="M224.65,129.37c1.09-6.65-1.67-13.23-3.4-19.74-2.51-9.49-2.85-19.4-3.34-29.21s-1.14-19.75-4.23-29.07-8.93-18.1-17.57-22.79-20.27-4.42-27.54,2.18l6,24.77a466.71,466.71,0,0,0,10.72,106.11,138,138,0,0,0,32.16-1.34c2.17-.35,4.68-1,5.53-3.05,1-2.47-1.08-5-2.07-7.5-1.31-3.28-.65-7,.48-10.34S224.09,132.85,224.65,129.37Z"/><path class="cls-5" d="M183.56,36a26.88,26.88,0,0,0-11.68-5.87,9.11,9.11,0,0,0-5.3.07,4,4,0,0,0-2.65,4.19l11.53,13.94c2.19,1.76,5.5,1.21,7.92-.23a7.34,7.34,0,0,0,3.85-5C187.61,40.35,185.66,37.82,183.56,36Z"/><path class="cls-6" d="M136.13,182.17Z"/><path class="cls-6" d="M108.87,84.44c.24-21.47,17.14-39.95,39-41C171,42.32,190.15,60.2,190.48,82.7l-1,90.7a7.89,7.89,0,0,1-1.73,4.82c-5.85,7.38-15.88,12.77-24.54,13.36-8.4.57-16.67-2.19-23.46-6.61a7.73,7.73,0,0,1-3.44-6.89l1.05-20.24a.12.12,0,0,0-.13-.14,27.41,27.41,0,0,1-5.65-.56c-5.26-1.68-18.52-7.88-21.69-28.2C108.88,122.2,108.67,103.26,108.87,84.44Z"/><path class="cls-4" d="M136.5,116.06c0-.2-2.21-.58-5.82-1-.91-.09-1.77-.27-1.92-.89a4.45,4.45,0,0,1,.62-2.66l2.75-6.84c3.81-9.74,6.58-17.75,6.18-17.9s-3.82,7.63-7.63,17.38q-1.38,3.6-2.63,6.88c-.36,1-1,2.18-.5,3.53a2.24,2.24,0,0,0,1.5,1.31,5.78,5.78,0,0,0,1.55.21C134.23,116.24,136.48,116.26,136.5,116.06Z"/><path class="cls-4" d="M115.29,88.64c.36.56,3.09-1.51,6.67-1.23s6,2.63,6.42,2.13c.21-.22-.12-1.2-1.16-2.29a7.86,7.86,0,0,0-10.45-.71C115.57,87.48,115.11,88.4,115.29,88.64Z"/><path class="cls-4" d="M149.08,89c.47.5,3.09-1.93,6.95-2.16s6.8,1.76,7.19,1.21c.2-.25-.29-1.17-1.58-2.1a9,9,0,0,0-11.29.76C149.22,87.85,148.85,88.82,149.08,89Z"/><path class="cls-4" d="M128.34,97.49,117.86,94c-1.18-.39-1.69,1.47-.52,1.86l7.12,2.36L116.25,100c-1.21.26-.7,2.12.51,1.85l11.58-2.52C129.32,99.14,129.19,97.78,128.34,97.49Z"/><path class="cls-4" d="M158.18,93.11,144.92,97c-.83.25-1,1.7,0,1.85l12.5,2a1,1,0,0,0,1.18-.67,1,1,0,0,0-.67-1.19l-8.4-1.31L158.69,95A1,1,0,0,0,158.18,93.11Z"/><path class="cls-7" d="M137.41,157.7s13.82,1.12,31.18-9.08c0,0-5.56,18-31.53,15.55Z"/><path class="cls-7" d="M138,124.54a6.54,6.54,0,0,1,5.8-2.35,5.87,5.87,0,0,1,4.06,2.15,3.63,3.63,0,0,1,.26,4.19c-1,1.34-3,1.64-4.71,1.16a13.45,13.45,0,0,1-4.56-2.68,4.19,4.19,0,0,1-1-1,1.19,1.19,0,0,1,0-1.32"/><path class="cls-4" d="M144.68,75.55c.33,1,3.92.57,8.11,1.15s7.56,1.76,8.14.91c.26-.41-.31-1.32-1.66-2.27a13.69,13.69,0,0,0-6-2.19,13.88,13.88,0,0,0-6.38.62C145.33,74.35,144.54,75.09,144.68,75.55Z"/><path class="cls-4" d="M114.77,80.59c.76.78,3.68-.14,7.2-.28s6.53.35,7.2-.51c.29-.41-.2-1.2-1.52-1.92a11.64,11.64,0,0,0-5.9-1.14A11.43,11.43,0,0,0,116,78.52C114.82,79.37,114.43,80.21,114.77,80.59Z"/><path class="cls-4" d="M145,38.7c2.09-3,5.66-4.25,9.58-4.56,16-1.29,33,9.48,40.9,23.42s7,33.85-.51,48l-6,.62c-12.3-1.61-30.67-37.5-46.66-57.74C140.29,45.94,143.17,41.34,145,38.7Z"/><path class="cls-4" d="M114,47c7.15-7.07,18.55-15.49,31.92-9.29,1.75,4-2.68,8.69-6.28,11.37-5.29,3.92-9.85,6.5-13.33,9.33-7,5.71-16,15.36-17.4,26.66-.09.71-.64.77-1.35.61-.91-.21-2.72-5-3.38-11.22C102.74,61.11,106.82,54,114,47Z"/><path class="cls-6" d="M185.52,98.71c.38-.17,15.4-4.93,15.25,10.51s-15.62,12.1-15.64,11.66S185.52,98.71,185.52,98.71Z"/><path class="cls-7" d="M189.9,115.08c.07,0,.27.19.72.4a2.69,2.69,0,0,0,2,.06c1.64-.58,3-3.16,3.14-5.94a8.93,8.93,0,0,0-.72-3.86,3.1,3.1,0,0,0-2-2.08,1.36,1.36,0,0,0-1.59.72c-.22.43-.12.74-.2.77s-.33-.27-.2-.9a1.69,1.69,0,0,1,.62-1,2,2,0,0,1,1.49-.38,3.76,3.76,0,0,1,2.78,2.42,9.13,9.13,0,0,1,.89,4.31c-.13,3.11-1.75,6-4,6.63a2.9,2.9,0,0,1-2.45-.43C189.92,115.45,189.85,115.1,189.9,115.08Z"/><path class="cls-8" d="M110.64,49.87a17.36,17.36,0,0,0,4.45.82,63.13,63.13,0,0,0,10.94.2,63.2,63.2,0,0,0,10.82-1.7,17.54,17.54,0,0,0,4.3-1.42,28.61,28.61,0,0,0-4.45.76A91.6,91.6,0,0,1,126,49.93a94.78,94.78,0,0,1-10.82.09C112.38,49.88,110.66,49.72,110.64,49.87Z"/><path class="cls-8" d="M104.88,60.65a9.08,9.08,0,0,0,3.31,1,25.93,25.93,0,0,0,8.33,0,25.58,25.58,0,0,0,7.9-2.67,8.86,8.86,0,0,0,2.83-2c-.15-.27-4.57,2.7-10.88,3.7S104.92,60.34,104.88,60.65Z"/><path class="cls-8" d="M197.15,62.92c0-.2-3.36.23-8.73-.2a65.39,65.39,0,0,1-9.33-1.44,85.82,85.82,0,0,1-11-3.47,92.49,92.49,0,0,1-10.44-5,85.23,85.23,0,0,1-7.94-5.13c-4.36-3.18-6.76-5.53-6.88-5.4a10.4,10.4,0,0,0,1.6,1.73,27.39,27.39,0,0,0,2,1.88c.81.71,1.74,1.52,2.83,2.33a73.22,73.22,0,0,0,7.91,5.35,85.23,85.23,0,0,0,10.52,5.14,79.75,79.75,0,0,0,11.19,3.44,59.83,59.83,0,0,0,9.48,1.26,35.28,35.28,0,0,0,3.67,0,21.56,21.56,0,0,0,2.77-.16A10.7,10.7,0,0,0,197.15,62.92Z"/><path class="cls-8" d="M143.55,47.72a13.09,13.09,0,0,0,1.12,2.21c.38.7.87,1.55,1.5,2.48s1.3,2.05,2.19,3.17a64.75,64.75,0,0,0,6.55,7.57,68.78,68.78,0,0,0,9.51,7.75,67,67,0,0,0,10.85,5.75,59.87,59.87,0,0,0,9.56,3c1.38.37,2.66.51,3.78.71a25.28,25.28,0,0,0,2.88.36,11.56,11.56,0,0,0,2.47.1c0-.19-3.5-.45-9-1.83a65.53,65.53,0,0,1-9.38-3.16A70.81,70.81,0,0,1,165,70.1a72.72,72.72,0,0,1-9.43-7.58,72.3,72.3,0,0,1-6.63-7.35C145.43,50.71,143.72,47.63,143.55,47.72Z"/><path class="cls-8" d="M154.56,34.14a5.72,5.72,0,0,0-3.1,0,13.35,13.35,0,0,0-6.54,3.66,11,11,0,0,0-1.37,1.7,8.9,8.9,0,0,0-.86,1.85,21.32,21.32,0,0,0-1,3.19c-.41,1.92,0,3.14.07,3.11s0-1.19.59-2.94a29.53,29.53,0,0,1,1.19-3,9.29,9.29,0,0,1,.83-1.67,11.23,11.23,0,0,1,1.28-1.54,14.61,14.61,0,0,1,6-3.68C153.39,34.32,154.56,34.3,154.56,34.14Z"/><path class="cls-4" d="M179.37,93.07c0-.22-3.71-.06-9.19-2.1a39.38,39.38,0,0,1-17.65-13.8,61.8,61.8,0,0,1-9.24-20.7c-.73-2.84-1.21-5.17-1.53-6.78a14.24,14.24,0,0,0-.57-2.49,12.38,12.38,0,0,0,.21,2.55,68.67,68.67,0,0,0,1.24,6.88,58.29,58.29,0,0,0,9.12,21.1c5.33,7.4,12.56,12,18.19,13.87a28,28,0,0,0,6.86,1.47,17.39,17.39,0,0,0,1.9.06C179.14,93.13,179.37,93.11,179.37,93.07Z"/><path class="cls-4" d="M102.51,107.85a2.49,2.49,0,0,0,1.83-.18,3.43,3.43,0,0,0,1.43-1.61,3.48,3.48,0,0,0,0-2.79,9.91,9.91,0,0,0-2-2.94,21.55,21.55,0,0,1-2.78-3.28A5.84,5.84,0,0,1,100,94.8a5.17,5.17,0,0,1,.26-2.52,11.71,11.71,0,0,1,2.94-4.22,17,17,0,0,0,3.11-3.8A7.37,7.37,0,0,0,107,79.9c-.38-2.9-1.56-5.41-1.81-7.71a8.45,8.45,0,0,1,.73-5.33,4.4,4.4,0,0,1,.93-1.16c.27-.21.41-.31.43-.29A8.21,8.21,0,0,0,106.17,67a8.43,8.43,0,0,0-.48,5.12c.29,2.21,1.52,4.66,2,7.7a8.1,8.1,0,0,1-.67,4.77,17.09,17.09,0,0,1-3.23,4,11.17,11.17,0,0,0-2.79,4,4.67,4.67,0,0,0,.51,4.2,21.65,21.65,0,0,0,2.65,3.22,9.91,9.91,0,0,1,2.07,3.16,3.91,3.91,0,0,1-.06,3.14,3.65,3.65,0,0,1-1.67,1.68,2.12,2.12,0,0,1-1.49.17C102.64,108,102.5,107.86,102.51,107.85Z"/><path class="cls-8" d="M198,99.51a3,3,0,0,1,.16-.8c.12-.52.35-1.27.57-2.25a69.91,69.91,0,0,0,1.54-8.4,58.84,58.84,0,0,0,.21-12.61,49.66,49.66,0,0,0-3.69-14.93,37.92,37.92,0,0,0-3.92-6.93A41.88,41.88,0,0,0,188,48a51.64,51.64,0,0,0-10.15-7.47,70.91,70.91,0,0,0-7.65-3.77c-.92-.42-1.66-.68-2.15-.9a3.7,3.7,0,0,1-.73-.35,3.38,3.38,0,0,1,.78.22c.51.17,1.26.39,2.2.77a62.31,62.31,0,0,1,7.8,3.59,50.65,50.65,0,0,1,10.35,7.44,40.72,40.72,0,0,1,5,5.66,38.11,38.11,0,0,1,4,7.06,48.83,48.83,0,0,1,3.69,15.15,56.09,56.09,0,0,1-.36,12.74,60.45,60.45,0,0,1-1.77,8.4c-.26,1-.54,1.72-.7,2.22A4,4,0,0,1,198,99.51Z"/><path class="cls-4" d="M186.14,148.39s-.17-.15-.45-.49a10.58,10.58,0,0,1-1.06-1.57,15.21,15.21,0,0,1-1.91-6.69,15.41,15.41,0,0,1,.54-4.83,30.15,30.15,0,0,1,2.23-5.06c.81-1.67,1.46-3.74.43-5.49s-3-2.88-4.27-4.86a3.64,3.64,0,0,1-.32-3.48,15.16,15.16,0,0,1,1.9-2.68,5.64,5.64,0,0,0,.61-5.46,15.54,15.54,0,0,0-2.75-4.6,26.71,26.71,0,0,1-2.79-3.93,7.21,7.21,0,0,1-.4-6.83A3.92,3.92,0,0,1,179.18,91a1.54,1.54,0,0,1,.59-.29,5,5,0,0,0-1.62,1.85,7,7,0,0,0,.59,6.45,28.72,28.72,0,0,0,2.81,3.82,15.69,15.69,0,0,1,2.91,4.74,7.94,7.94,0,0,1,.47,3,5.68,5.68,0,0,1-1.14,3A15.93,15.93,0,0,0,182,116.2a2.91,2.91,0,0,0,.27,2.82c1.14,1.77,3.18,2.93,4.28,4.91a4.84,4.84,0,0,1,.54,3.21,10.45,10.45,0,0,1-1,2.9,30.48,30.48,0,0,0-2.26,4.94,15.16,15.16,0,0,0-.59,4.64,15.5,15.5,0,0,0,1.65,6.58C185.62,147.64,186.2,148.35,186.14,148.39Z"/><path class="cls-4" d="M235,142.47c.09.2-.19.69-1.15,1.05a5.27,5.27,0,0,1-4.3-.62,7.57,7.57,0,0,1-3.31-3.94,9.77,9.77,0,0,1-.47-2,16.78,16.78,0,0,1,1.56-8.53c1.12-2.73,2.48-5.4,2.6-7.84s-.93-5.12-2.78-8.06-4.41-6.1-6.37-10.21a50.49,50.49,0,0,1-4.09-12.82C215,80.62,214.9,72.34,214,65.17a55.78,55.78,0,0,0-5.06-18,30.27,30.27,0,0,0-7.56-9.83c-1.17-.92-2.11-1.68-2.79-2.16s-1-.91-.9-1.14.57-.29,1.45-.18A13.22,13.22,0,0,1,202.83,35a26.12,26.12,0,0,1,10.45,9.66,52.22,52.22,0,0,1,7.19,19.57c1.33,7.63,1.64,15.88,3.18,24a48.19,48.19,0,0,0,3.4,11.16c1.45,3.32,3.75,6.36,5.72,9.88a27.33,27.33,0,0,1,2.47,5.68,15.4,15.4,0,0,1,.53,6.33,17.6,17.6,0,0,1-1.76,5.39c-.74,1.52-1.51,2.8-2.16,4a14.38,14.38,0,0,0-2.14,6.11,6.29,6.29,0,0,0,.06,1.24,4,4,0,0,0,.28,1,5.29,5.29,0,0,0,1.11,1.68C233,142.54,234.77,142,235,142.47Z"/><path class="cls-4" d="M149.69,124.49c0,.31-3.17.38-6.9,1.26s-6.51,2.37-6.66,2.12,2.51-2.19,6.43-3.09S149.71,124.25,149.69,124.49Z"/><polygon class="cls-6" points="115.95 174.04 146.27 171.51 189.52 173.4 218.41 178.68 172.49 205.42 138.34 201.03 115.95 174.04"/><path class="cls-5" d="M115.52,174s-24,5.55-32.15,13.67S66.83,224.86,65.13,233.4s-7.27,80.72-3.85,91,16.66,18.8,32.46,22.21,42.28,6,42.28,6l13.24-41.85-44.53-12Z"/><path class="cls-5" d="M167.94,302.16l37.12,1.5s10.47-11.63,13.09-26.75A102.9,102.9,0,0,0,219.6,251l10.46-69.19s14.83-.58,20.94,17.44.6,71,0,84.89c-.49,11.29-6.49,37.82-15.19,53.37-3.71,6.64-10.17,9.91-14.18,10.13-13.37.74-51.74-5.36-51.74-5.36l-1.95-39"/><path class="cls-5" d="M115.52,174S140.22,186,175,184.33s35.7-7.38,35.7-7.38L232,182,226.66,288.8l-10.41,45.62L225,366.07,71.6,365.61l19.86-57.15Z"/><path class="cls-4" d="M174,299.81a10.37,10.37,0,0,1,1.82-.37c1.2-.19,3-.44,5.24-.69,4.53-.54,11.08-.8,18.92-2l-.34.38c.51-10.27.52-23.07,1-36.91.33-8.72.94-17,2-24.53a144,144,0,0,1,4-19.71,104.61,104.61,0,0,1,4.47-12.79c.63-1.47,1.17-2.59,1.55-3.34a5.84,5.84,0,0,1,.61-1.13,6.7,6.7,0,0,1-.43,1.21c-.32.78-.8,1.92-1.37,3.41a122.18,122.18,0,0,0-4.15,12.83,154.62,154.62,0,0,0-3.75,19.64c-1,7.47-1.55,15.75-1.88,24.45-.49,13.81-.58,26.62-1.21,36.92l0,.33-.33,0c-7.91,1.08-14.47,1.22-19,1.62-2.27.18-4,.36-5.25.47A9.15,9.15,0,0,1,174,299.81Z"/><path class="cls-4" d="M95.27,264.05a8.46,8.46,0,0,1-.35-2.07c-.17-1.34-.35-3.28-.52-5.68-.34-4.81-.57-11.47-.39-18.83s.76-14,1.35-18.78c.29-2.39.57-4.32.8-5.65a8.47,8.47,0,0,1,.46-2,8.43,8.43,0,0,1-.07,2.1c-.12,1.41-.28,3.33-.49,5.67-.4,4.79-.86,11.41-1,18.74s-.06,14,.1,18.76c.08,2.35.15,4.28.2,5.69A8.47,8.47,0,0,1,95.27,264.05Z"/><path class="cls-4" d="M209.25,308.14c-.3.1-1.29-3.31-4.15-6.43s-6.1-4.51-6-4.79c.05-.11.93.06,2.23.7a15,15,0,0,1,4.48,3.42,15.23,15.23,0,0,1,2.95,4.81A4.5,4.5,0,0,1,209.25,308.14Z"/><g class="cls-9"><path d="M63.6,308.52c8.19,5.94,16.89,12.08,27,13.16,7.1.77,14.24-1.09,21.38-.88,9.48.27,18.51,4.16,26.7,8.94s15.81,10.53,24.15,15.06A74.45,74.45,0,0,0,192,354c10.24.82,20.83-1.07,29.73-6.22-12.49,1.49-29.1,1-42.16-3.21-14.53-4.71-17-8.51-25.38-13.19-10.83-6.06-20.37-14.47-31.88-19.08a54.14,54.14,0,0,0-30.75-2.76c-5.14,1.05-10.64,2.83-15.44.72-2.14-.93-3.92-2.58-6.1-3.43s-5.13-.61-6.21,1.46"/></g><path class="cls-4" d="M179,278.45a5.12,5.12,0,0,1-1.63.29,16.88,16.88,0,0,1-1.94.12c-.76,0-1.63.05-2.58,0a28.51,28.51,0,0,1-3.11-.3c-1.12-.12-2.3-.38-3.54-.64a43.49,43.49,0,0,1-7.77-2.71,42.65,42.65,0,0,1-7-4.26c-1-.79-2-1.52-2.76-2.3s-1.56-1.51-2.21-2.21a25.57,25.57,0,0,1-1.67-2,16.12,16.12,0,0,1-1.14-1.57c-.59-.89-.88-1.4-.82-1.44s1.49,1.83,4.14,4.49c.67.66,1.4,1.37,2.26,2.07s1.77,1.44,2.75,2.19a47.16,47.16,0,0,0,6.92,4.1,47.78,47.78,0,0,0,7.56,2.71c1.21.28,2.35.57,3.44.72s2.11.32,3,.41C176.68,278.47,179,278.27,179,278.45Z"/><path class="cls-4" d="M244.44,316.37a17,17,0,0,1-.91,3.51c-.7,2.23-1.76,5.44-3.26,9.34a62.45,62.45,0,0,1-2.72,6.3A25.72,25.72,0,0,1,216.34,349a108.62,108.62,0,0,1-18-.72c-5.49-.66-10.39-1.54-14.48-2.44s-7.34-1.83-9.56-2.54c-1.12-.34-2-.65-2.55-.87a3.29,3.29,0,0,1-.86-.37,29.78,29.78,0,0,1,3.52.87c2.25.59,5.52,1.4,9.6,2.21s9,1.62,14.44,2.22a112.89,112.89,0,0,0,17.83.64,25,25,0,0,0,15.82-6.82,25.61,25.61,0,0,0,4.71-6.05,67,67,0,0,0,2.79-6.16c1.58-3.86,2.74-7,3.55-9.21.39-1.06.7-1.9.93-2.51A4.19,4.19,0,0,1,244.44,316.37Z"/><path class="cls-6" d="M75.54,248S97.22,264.81,98,266.76s8,13.4,14.13,18.27S174,301.3,174,301.3l-3.2,39.92s-45.8-27.69-59.44-27S87,317.67,81.14,315.72s-20.52-11.2-20.52-11.2-2.53-5.12.22-7.56c0,0-1.67-5.35-1.28-7.79,0,0-2.22-5.59-.06-7.79,0,0-.53-8.29,4.1-8.29s13.4,1.47,17.54,1.22a6.61,6.61,0,0,0,5.6-3.17s0-2.19-3.41-4.62S67,254.09,75.54,248Z"/><path class="cls-7" d="M71.64,289.37c-.1.24-3.29-.91-6.77-3.18s-5.83-4.72-5.65-4.91,2.79,1.86,6.2,4.07S71.76,289.11,71.64,289.37Z"/><path class="cls-7" d="M72.59,298.05c-.06.24-3.9-.8-7.81-3.63s-6.16-6.1-6-6.24,2.73,2.72,6.53,5.42S72.7,297.77,72.59,298.05Z"/><path class="cls-7" d="M73.59,304.85c0,.25-3.72-.33-7.54-2.74s-6-5.46-5.76-5.59,2.61,2.46,6.29,4.74S73.67,304.56,73.59,304.85Z"/><path class="cls-10" d="M93.8,232.22c0,.32-6.21-1.07-13.81-.13s-13.27,3.66-13.39,3.35a12.62,12.62,0,0,1,3.64-1.9,38,38,0,0,1,19.57-2.32C92.33,231.6,93.82,232.1,93.8,232.22Z"/><path class="cls-10" d="M199.54,239.63a3.88,3.88,0,0,1-1,.34l-3,.78c-1.28.33-2.86.72-4.71,1.1s-3.93.88-6.27,1.29-4.9.91-7.66,1.3-5.72.81-8.84,1.2c-6.24.69-13.13,1.23-20.37,1.45s-14.17,0-20.44-.31c-3.13-.22-6.11-.4-8.89-.7s-5.36-.57-7.71-.88-4.48-.65-6.34-.94-3.46-.58-4.77-.84l-3-.61a4.45,4.45,0,0,1-1-.28,3.76,3.76,0,0,1,1.07.08l3,.43c1.31.2,2.91.44,4.78.67s4,.55,6.34.78,4.93.55,7.71.76,5.74.41,8.86.61c6.25.29,13.14.42,20.36.23s14.08-.73,20.3-1.37c3.11-.36,6.07-.68,8.82-1.1s5.32-.79,7.65-1.18,4.44-.8,6.29-1.14,3.44-.66,4.74-.93l3-.6A4.89,4.89,0,0,1,199.54,239.63Z"/><path class="cls-10" d="M250,236.63c-.11.16-2.27-1.56-6.34-3.14a41.11,41.11,0,0,0-16.71-2.4,91.31,91.31,0,0,0-16.85,2.84c-4.26,1-6.91,1.72-7,1.58a7,7,0,0,1,1.79-.72c1.16-.39,2.86-.94,5-1.55a76.91,76.91,0,0,1,17-3.15,38.32,38.32,0,0,1,17,2.75,25.92,25.92,0,0,1,4.6,2.54A6.19,6.19,0,0,1,250,236.63Z"/><g class="cls-9"><path d="M143.56,262.34l.3.87A25.49,25.49,0,0,0,158.7,282.6c7.85,3.26,17.65,1.65,23.66-4.37A37.94,37.94,0,0,1,143.56,262.34Z"/></g><g class="cls-9"><path d="M220.24,308.75c-1.29-3.47-4.62-5.71-7.88-7.45a71.11,71.11,0,0,0-13.3-5.42l.11,1.31A45.16,45.16,0,0,1,211.85,311c1.24,2.1,2.83,4.62,5.26,4.52a3.85,3.85,0,0,0,3.25-2.51A6.07,6.07,0,0,0,220.24,308.75Z"/></g></g></svg>