<svg id="Layer_1" data-name="Layer 1" xmlns="http://www.w3.org/2000/svg" xmlns:xlink="http://www.w3.org/1999/xlink" viewBox="0 0 343 359.78"><defs><style>.cls-1,.cls-14{fill:none;}.cls-2{fill:#455a64;}.cls-3{clip-path:url(#clip-path);}.cls-4{fill:#e0a181;}.cls-5{fill:#f7b48e;}.cls-6{fill:#31a78c;}.cls-7{fill:#31be9d;}.cls-8{fill:#e6e7e8;}.cls-9{fill:#d1d3d4;}.cls-10{fill:#f1f2f2;}.cls-11,.cls-12,.cls-13{fill:#ff725e;}.cls-12{opacity:0.5;}.cls-13{opacity:0.4;}.cls-14{stroke:red;stroke-linecap:round;stroke-miterlimit:10;stroke-width:13px;}</style><clipPath id="clip-path"><circle class="cls-1" cx="171.5" cy="188.28" r="171.5"/></clipPath></defs><circle class="cls-2" cx="171.5" cy="188.28" r="169.81"/><g class="cls-3"><path class="cls-4" d="M210.31,83.71c2.72-1.34,4-4.07,3.11-6.62-1.09-3-4.74-4.76-8.31-4-16.79,2.61-33.07,1.42-49.68-1.7-3.82-.64-7.26,1.27-7.6,4.51s2.82,6.63,6.94,7.28a172.21,172.21,0,0,0,53.76,1.15A7.65,7.65,0,0,0,210.31,83.71Z"/><path class="cls-4" d="M215,97.91c2.8-1.26,4.19-3.8,3.32-6.16-1.05-2.84-4.79-4.4-8.49-3.68a183.16,183.16,0,0,1-47.19-.38c-3.87-.49-7.17,1.38-7.3,4.41s3.18,6.08,7.33,6.57c16.94,2.15,33.57,2.63,50.5-.17A8,8,0,0,0,215,97.91Z"/><path class="cls-4" d="M234.73,106.71c2.72-1.39,4-3.85,3.11-6-1.11-2.53-4.88-3.66-8.52-2.68A213.81,213.81,0,0,1,190.14,102c-3.8.05-6.74,2.18-6.52,4.94s3.73,5.08,7.76,5a169.49,169.49,0,0,0,41.56-4.5A9.51,9.51,0,0,0,234.73,106.71Z"/><path class="cls-4" d="M200.57,69.71a5.61,5.61,0,0,0,4-6.65,6.19,6.19,0,0,0-7-4.61,154.75,154.75,0,0,1-37.19-.06c-3.44-.55-6.69,1.4-7.17,4.59s2.24,6.47,6,7.06a129.27,129.27,0,0,0,40.52-.13A8.08,8.08,0,0,0,200.57,69.71Z"/><path class="cls-5" d="M187.78,41.71l.46.45.25.24.16.15.29.23c.39.31.88.69,1.4,1l1.45.93c.52.29,1.09.62,1.68.92,1.19.6,2.51,1.21,3.91,1.75,5.63,2.26,12.73,4,19.41,6,1.66.5,3.31,1,4.87,1.53s3.07,1.06,4.49,1.61,2.71,1.11,3.86,1.68c.59.27,1.14.56,1.64.84s1,.56,1.42.82a21.42,21.42,0,0,1,2.13,1.5,10.92,10.92,0,0,1,1.26,1.18,4.79,4.79,0,0,1,.62.73l.2.24.08.11a9.66,9.66,0,1,0,15-12.15,10,10,0,0,0-.94-1l-.71-.66a25,25,0,0,0-2.05-1.72,30.57,30.57,0,0,0-3.26-2.2,39.84,39.84,0,0,0-4.19-2.14c-.76-.32-1.56-.67-2.36-.95s-1.65-.61-2.49-.88c-1.7-.56-3.46-1-5.25-1.48s-3.63-.83-5.46-1.17-3.67-.65-5.48-.94l-10.39-1.55c-1.62-.25-3.13-.51-4.55-.77s-2.71-.53-3.83-.82-2.1-.57-2.92-.84l-1.06-.4-.79-.35a1.12,1.12,0,0,0-.33-.12l-.07,0-.15-.11-.29-.21-.51-.38h0a5.82,5.82,0,0,0-7.49,8.88Z"/><path class="cls-4" d="M309.59,98.91,305.1,55.37,245,61.56c-4.52,13.38-1.58,28.16,4.49,43.54Z"/><path class="cls-4" d="M264.2,94.47c3.66-15.49-.39-29.17-10.73-41.38-24-.61-44.4,1.24-60.12,6.2-6.54,9.14,10.26,34.32,23.84,51l29.89-.82A19.64,19.64,0,0,0,264.2,94.47Z"/><path class="cls-4" d="M300.15,99.89l-4.49-43.55-29.57,3c-4.52,13.37-1.59,28.16,4.48,43.54Z"/><path class="cls-4" d="M188.65,42.55l.29.23c.39.31.88.69,1.4,1l1.45.93c.52.29,1.09.62,1.68.92,1.19.6,2.51,1.21,3.91,1.75,5.63,2.26,14.75,4.77,21.43,6.77.14,0,11.7-1.2,18.23-.3a82.56,82.56,0,0,0-13-4.54c-5.66-1.19-11.32-1.78-17-2.45-6.37-.75-13-1.91-18.71-4.71l.21.2Z"/><path class="cls-5" d="M230,43c-.85,0-1.64,1.05-.67,1.53,5.86,2.87,12.12,4.2,17.72,7.73a24.84,24.84,0,0,1,11,15.66c.1.5,1,.22,1.08-.2C261.14,52.1,243.46,43,230,43Z"/><path class="cls-6" d="M325.05,97.78l-44.51,6.94c-8.91-14.51-10.18-32.89-8.29-53.24l39-6.08Z"/><path class="cls-7" d="M327.08,105.49l-10.59,1.65a19.39,19.39,0,0,1-21.68-14c-3-10.87-4.34-22.75-4.63-35.29a19.41,19.41,0,0,1,16.15-19.59l2.94-.5Z"/><path class="cls-8" d="M264.47,176.88v55.35s1.14,46.68-85.27,46.68V365H269s10.81,12,0,16.37H93.36s-14.78-8.18,0-13.47h14.21V180.73Z"/><polygon class="cls-9" points="107.57 199.02 107.57 180.73 264.47 176.88 264.47 199.02 107.57 199.02"/><path class="cls-10" d="M90.25,169.38a5.05,5.05,0,0,0,5.65,4.37h0a5.06,5.06,0,0,0,4.37-5.67L78.93,4.39A5,5,0,0,0,73.27.05h0A5,5,0,0,0,68.92,5.7Z"/><path class="cls-10" d="M84.83,175.44c0,5.85,5.59,10.59,12.51,10.59H266.75c6.91,0,12.51-4.74,12.51-10.59h0c0-5.85-5.6-10.59-12.51-10.59H97.34c-6.92,0-12.51,4.74-12.51,10.59Z"/><path class="cls-11" d="M237.81,126a5.63,5.63,0,0,1-5.61,5.61H205.75a5.63,5.63,0,0,1-5.6-5.61,5.63,5.63,0,0,1,5.6-5.6H232.2A5.63,5.63,0,0,1,237.81,126Z"/><path class="cls-11" d="M224.16,126a5.62,5.62,0,0,1-5.6,5.61H205.75a5.63,5.63,0,0,1-5.6-5.61,5.63,5.63,0,0,1,5.6-5.6h12.81A5.62,5.62,0,0,1,224.16,126Z"/><rect class="cls-12" x="206.63" y="121.61" width="26.82" height="1.77" rx="0.79"/><path class="cls-11" d="M195.08,88.47A4.31,4.31,0,0,1,197,94.23l-9.07,18.12a4.29,4.29,0,0,1-7.67-3.85l9.07-18.11A4.31,4.31,0,0,1,195.08,88.47Z"/><path class="cls-11" d="M190.4,97.82a4.3,4.3,0,0,1,1.91,5.75l-4.39,8.78a4.29,4.29,0,0,1-7.67-3.85l4.39-8.77A4.3,4.3,0,0,1,190.4,97.82Z"/><rect class="cls-13" x="176.33" y="98.77" width="20.54" height="1.35" rx="0.61" transform="translate(14.14 221.79) rotate(-63.41)"/><path class="cls-11" d="M176.47,98.49A4.58,4.58,0,0,1,181,103v21.48a4.57,4.57,0,0,1-4.55,4.55,4.58,4.58,0,0,1-4.55-4.55V103A4.57,4.57,0,0,1,176.47,98.49Z"/><path class="cls-11" d="M176.47,109.57a4.56,4.56,0,0,1,4.55,4.55v10.4a4.57,4.57,0,0,1-4.55,4.55,4.58,4.58,0,0,1-4.55-4.55v-10.4A4.56,4.56,0,0,1,176.47,109.57Z"/><rect class="cls-12" x="172.94" y="102.03" width="1.43" height="21.78" rx="0.64"/></g><line class="cls-14" x1="24.27" y1="41.05" x2="318.73" y2="335.5"/><line class="cls-14" x1="318.73" y1="41.05" x2="24.27" y2="335.5"/></svg>