<svg id="Layer_1" data-name="Layer 1" xmlns="http://www.w3.org/2000/svg" viewBox="0 0 345.84 330.37"><defs><style>.cls-1{fill:#d8ebf4;}.cls-2{fill:#cadaf6;}.cls-3{fill:#cc4252;}.cls-4{fill:#e8505b;}.cls-5{fill:#ba3545;}.cls-10,.cls-6{fill:#fff;}.cls-7{fill:#e2ebfa;}.cls-8{fill:#b1c9f2;}.cls-9{fill:#333;}.cls-10{opacity:0.61;}</style></defs><rect class="cls-1" x="11.57" y="5.37" width="325" height="325" rx="162.5"/><rect class="cls-2" x="127.45" y="35.49" width="93.25" height="36.95" rx="2.22"/><path class="cls-3" d="M198.61,97.69V281.53a18.72,18.72,0,0,1-18.71,18.72h42.26a9.73,9.73,0,0,0,9.73-9.73v-22.2l-11.19-61,11.19-66.38V97.69H198.61Z"/><path class="cls-4" d="M203.6,97.69V290.52a9.73,9.73,0,0,1-9.72,9.73H126a9.73,9.73,0,0,1-9.72-9.73v-22.2l5.57-37.73-5.57-89.65V97.69Z"/><rect class="cls-5" x="116.26" y="102.23" width="115.63" height="10.4"/><path class="cls-6" d="M143.2,127.89a6.75,6.75,0,1,0-13.5,0v13h13.5Z"/><rect class="cls-7" x="116.26" y="140.94" width="87.35" height="127.38"/><rect class="cls-2" x="203.6" y="140.94" width="28.28" height="127.38"/><path class="cls-8" d="M111.54,54H236.61a2.22,2.22,0,0,1,2.22,2.22V90.91a0,0,0,0,1,0,0H109.31a0,0,0,0,1,0,0V56.19A2.22,2.22,0,0,1,111.54,54Z"/><rect class="cls-7" x="97.33" y="85.36" width="153.48" height="16.87" rx="1.75"/><path class="cls-9" d="M138,183.73v11.94H135V183.73H131.2V181h10.59v2.73Z"/><path class="cls-9" d="M147,195.67V190.6l-4.52-9.6h3.22l2.77,6.28,2.77-6.28h3.22l-4.53,9.6v5.07Z"/><path class="cls-9" d="M159.13,181v11.9h6.16v2.77H156.2V181Z"/><path class="cls-9" d="M177.11,181v2.77h-6.67v3h5.4v2.77h-5.4v3.34h6.67v2.77h-9.6V181Z"/><path class="cls-9" d="M191,181v14.67h-3.16l-5.4-10v10h-2.75V181h3.16l5.4,10V181Z"/><path class="cls-9" d="M201.68,180.92a2.76,2.76,0,0,1,2.89,2.89v9.05a2.76,2.76,0,0,1-2.89,2.89h-4.91a2.76,2.76,0,0,1-2.89-2.89v-9.05a2.76,2.76,0,0,1,2.89-2.89Zm0,3.46a.62.62,0,0,0-.69-.69H197.5a.62.62,0,0,0-.69.69v7.91a.62.62,0,0,0,.69.69H201a.62.62,0,0,0,.69-.69Z"/><path class="cls-9" d="M210.38,181v11.9h6.15v2.77h-9.08V181Z"/><path class="cls-9" d="M169.92,212.78v2.64h-3L165.82,219h-2.75l1.14-3.53h-3.13L159.93,219h-2.75l1.14-3.53h-1.79v-2.64h2.65l.84-2.57h-2.08v-2.65h2.95l1.06-3.28h2.75l-1.06,3.28h3.14l1.06-3.28h2.75l-1.06,3.28h1.79v2.65h-2.66l-.84,2.57Zm-8,0h3.14l.83-2.57h-3.13Z"/><path class="cls-9" d="M176,215.49a.73.73,0,0,0,.81.81h2.74a.73.73,0,0,0,.81-.81v-1.92c0-.61-.41-.82-1-.82h-2.79v-2.6h2.79c.57,0,.82-.17.82-.82v-1.59a.73.73,0,0,0-.82-.81h-2.4a.73.73,0,0,0-.82.81v.94h-2.93v-1.55a2.92,2.92,0,0,1,2.93-2.93h4a2.92,2.92,0,0,1,2.93,2.93v2.12a2.4,2.4,0,0,1-1.28,2.2,2.36,2.36,0,0,1,1.44,2.2v2.45a2.92,2.92,0,0,1-2.93,2.93H176A2.92,2.92,0,0,1,173,216.1v-1.55H176Z"/><path class="cls-9" d="M190.17,204.2a1.37,1.37,0,0,1,1.51,1.3v5a1.31,1.31,0,0,1-1.3,1.31h-3.67a1.32,1.32,0,0,1-1.31-1.31v-5a1.32,1.32,0,0,1,1.31-1.3Zm.76,1.3c0-.24-.15-.57-.76-.57h-3.46a.54.54,0,0,0-.55.57v5a.53.53,0,0,0,.55.57h3.67a.54.54,0,0,0,.55-.57Zm-.82,2.1a.82.82,0,0,1-.69.88l.75,1.75h-.83l-.74-1.75h-.81v1.75H187v-4.44h2.23a.79.79,0,0,1,.87.87Zm-1,.14c.15,0,.21-.06.21-.2v-.8c0-.14,0-.22-.21-.22h-1.32v1.22Z"/><path class="cls-10" d="M136.45,246a6.76,6.76,0,0,0,6.75-6.74V140.94H129.7v98.28A6.76,6.76,0,0,0,136.45,246Z"/></svg>