<svg id="Layer_1" data-name="Layer 1" xmlns="http://www.w3.org/2000/svg" viewBox="0 0 458.01 361.53"><defs><style>.cls-1{fill:#263238;}.cls-2{fill:#fff;}.cls-3{fill:#455a64;}.cls-4{fill:#fafafa;}.cls-5{fill:#ad6d68;}.cls-6{fill:#ff725e;}.cls-7{fill:#824e4b;}.cls-8{fill:#eb996e;}.cls-9{fill:#ebebeb;}.cls-10{opacity:0.3;}.cls-11{fill:#333;}</style></defs><path class="cls-1" d="M346,347a4.6,4.6,0,0,1,2.22,2,3.64,3.64,0,0,1,.17,3.05,3.41,3.41,0,0,1-6.05-.27,3.63,3.63,0,0,1,.44-3,4.7,4.7,0,0,1,2.4-1.81s-.32-.13-.9,0a3.74,3.74,0,0,0-2,1.43,4.22,4.22,0,0,0-.7,3.64,4.17,4.17,0,0,0,7.58.35,4.19,4.19,0,0,0-.37-3.69,3.74,3.74,0,0,0-1.87-1.61C346.33,346.87,346,346.93,346,347Z"/><path class="cls-1" d="M259.11,356.7h-.81c-1-1.24-1.74-2.29-2.3-3.12a9.33,9.33,0,0,1-1.18-1.88,9.35,9.35,0,0,1,1.48,1.65C257,354.2,257.94,355.34,259.11,356.7Z"/><path class="cls-1" d="M303.56,28.51a8.21,8.21,0,0,1-1.66-12.9c1.38-1.38,3.23-2.24,4.52-3.71a26.73,26.73,0,0,0,2.5-4.15A16.56,16.56,0,0,1,321.81.06a21.36,21.36,0,0,1,14.52,4.62C338,6,339.52,7.45,341.5,8s4,.13,6,.14a13.89,13.89,0,0,1,11.72,6.9,13.87,13.87,0,0,1-.12,13.6,12.08,12.08,0,0,1,7.41,13.13,12.09,12.09,0,0,1-11.67,9.54c-3.37,0-6.53-1.53-9.61-2.9a178.16,178.16,0,0,0-39-12.21"/><path class="cls-2" d="M351.29,50.5c0-.06-.19-.22-.38-.65a3.12,3.12,0,0,1-.2-1.92c.27-1.68,1.92-3.58,3.29-6a10.06,10.06,0,0,0,1.25-3.8,5.76,5.76,0,0,0-.56-3.25,3.5,3.5,0,0,0-1.56-1.61c-.51-.21-.82-.15-.82-.1s.26.13.65.4a3.61,3.61,0,0,1,1.16,1.57c.73,1.55.43,4.06-.89,6.37s-3,4.35-3.14,6.35a3.17,3.17,0,0,0,.53,2.18C351,50.47,351.28,50.55,351.29,50.5Z"/><path class="cls-2" d="M330.64,41.2c.05-.05-.13-.28-.47-.65a3.23,3.23,0,0,1-1-1.65,4.5,4.5,0,0,1,1.39-2.49c.78-.85,1.81-1.64,2.85-2.6a6.28,6.28,0,0,0,2.22-3.46,5.63,5.63,0,0,0-.86-3.24A7,7,0,0,0,333,24.76a16.87,16.87,0,0,0,1.28,2.63,5.56,5.56,0,0,1,.61,2.86,5.89,5.89,0,0,1-2,2.92c-2,1.78-4.24,3.52-4.26,5.79a3.09,3.09,0,0,0,1.36,1.84C330.36,41.1,330.6,41.24,330.64,41.2Z"/><path class="cls-2" d="M310.66,38a3.58,3.58,0,0,1-1-4.3A17.38,17.38,0,0,1,311.24,31a8.39,8.39,0,0,0,1.27-3.14,4.24,4.24,0,0,0-.65-2.76c-.82-1.44-2-1.68-2-1.53a5.39,5.39,0,0,1,1.43,1.82,3.84,3.84,0,0,1,.4,2.34,8,8,0,0,1-1.23,2.81,15.41,15.41,0,0,0-1.54,2.95,4.45,4.45,0,0,0-.08,2.83A2.85,2.85,0,0,0,310,37.83C310.38,38.07,310.64,38.08,310.66,38Z"/><path class="cls-1" d="M156.64,18.23c0,.12-1.84.22-4.68,1a31.9,31.9,0,0,0-4.83,1.86,45.27,45.27,0,0,0-5.47,3.23,63.26,63.26,0,0,0-8.77,7.52c-2.09,2.11-3.3,3.5-3.37,3.43a5.85,5.85,0,0,1,.75-1c.52-.66,1.3-1.57,2.31-2.67a54.18,54.18,0,0,1,8.74-7.72,40.76,40.76,0,0,1,5.57-3.23,28.37,28.37,0,0,1,5-1.77,16.72,16.72,0,0,1,2-.41,8.61,8.61,0,0,1,1.51-.19A5.37,5.37,0,0,1,156.64,18.23Z"/><path class="cls-1" d="M331.12,318.5V319l-.64,37.69H263.07c.23-1.89.46-3.61.66-5.12,0-.25.07-.49.11-.73.18-1.35.35-2.51.5-3.46,0-.18.05-.36.08-.52.24-1.62.38-2.51.38-2.51l1.72-3.08L279,319l2.7-4.85.63-6.91-3-1.73,13.15,3.31,23,5.8,9.32,2.34Z"/><path class="cls-1" d="M397.18,356.7H324.85l-3-37.69-.1-1.28,3.06-.82,10.46-2.76,39-10.33,4.26-1.12,1.31-.35,0,.22L382,314.42l.18.43h0c.05.14.12.29.19.48s.17.41.26.66c1.25,3.12,4.18,10.6,7.43,19.56C392.44,342.18,395,349.61,397.18,356.7Z"/><path class="cls-3" d="M328.69,356.7h-1c-.1-6.18-.19-11.75-.26-16.44-.1-4.18-.19-7.61-.25-10.17,0-1.11,0-2-.05-2.77a3.88,3.88,0,0,1,.05-1,3.3,3.3,0,0,1,.16,1q.09,1.11.24,2.76c.19,2.4.39,5.87.57,10.17C328.37,344.88,328.54,350.47,328.69,356.7Z"/><path class="cls-3" d="M393.61,350a5.06,5.06,0,0,1-1.53.59,12.88,12.88,0,0,1-1.87.48,19.21,19.21,0,0,1-2.53.43,32.19,32.19,0,0,1-6.68.12,34.54,34.54,0,0,1-15.41-5.16,32.34,32.34,0,0,1-5.26-4.11,19.52,19.52,0,0,1-1.76-1.86,12.06,12.06,0,0,1-1.21-1.51c-.62-.86-.93-1.36-.87-1.4s1.54,1.77,4.33,4.24a37.27,37.27,0,0,0,5.26,3.84,36.64,36.64,0,0,0,15,5,37.12,37.12,0,0,0,6.52.1C391.32,350.51,393.56,349.83,393.61,350Z"/><path class="cls-3" d="M287.41,330.44a11.78,11.78,0,0,1-1.85,3.74,30.68,30.68,0,0,1-15.72,12.22,11.76,11.76,0,0,1-4.08.87c-.12-.32,6.23-1.66,12.33-6.48S287.13,330.25,287.41,330.44Z"/><polygon class="cls-4" points="357.56 150.47 311.13 146.84 293.21 159.76 304.42 266.62 289.58 319 372.66 319 383.36 222.7 357.56 150.47"/><path class="cls-3" d="M444.8,293.59c-1.94,9.26-22.31,25.69-34.24,34.06,0,0-.05,17.12-3.38,29,0,0,0,0,0,0H335.69c-.27-7.76-.37-21.58-.38-37.69v-4.86c0-28.23.3-62,.49-82.59a110.23,110.23,0,0,1,6.31-35.7c4.42-12.47,8.36-36.53,9.25-41.77l.29-4.09.43-6,.54-4.65c3.88,0,6.92,6.66,9,10l1.2,2s0,0,0,0l.67,1.08S397,168.1,404.15,176.22,447.34,281.39,444.8,293.59Z"/><path class="cls-1" d="M363.62,166.9c0,.14,2.26.75,5.88,1.95a108.89,108.89,0,0,1,26.71,13c3.18,2.11,5.08,3.53,5.16,3.42s-.39-.45-1.21-1.15-2-1.66-3.59-2.79a88.25,88.25,0,0,0-26.88-13.07c-1.85-.53-3.36-.9-4.41-1.11A6.15,6.15,0,0,0,363.62,166.9Z"/><path class="cls-1" d="M263.49,180.77a29.62,29.62,0,0,0,3.77-2.5c2.3-1.58,5.53-3.67,9.26-5.72s7.23-3.64,9.79-4.73a28.12,28.12,0,0,0,4.14-1.85,19.22,19.22,0,0,0-4.37,1.26,73,73,0,0,0-19.19,10.53A18.27,18.27,0,0,0,263.49,180.77Z"/><path class="cls-1" d="M359.56,317.64a7.41,7.41,0,0,0,.05,1.84,12.11,12.11,0,0,0,.29,2.14,19.37,19.37,0,0,0,.66,2.79,21.67,21.67,0,0,0,1.17,3.27,30.33,30.33,0,0,0,1.76,3.59,33.77,33.77,0,0,0,12.95,12.67,30.48,30.48,0,0,0,3.62,1.69,24.51,24.51,0,0,0,3.3,1.1,21.69,21.69,0,0,0,2.81.6,12.46,12.46,0,0,0,2.14.24,7.63,7.63,0,0,0,1.84,0c0-.2-2.62-.25-6.61-1.45a24.92,24.92,0,0,1-3.2-1.18,33.09,33.09,0,0,1-3.5-1.72,34.94,34.94,0,0,1-12.64-12.38,32,32,0,0,1-1.8-3.46,24.83,24.83,0,0,1-1.24-3.17C359.86,320.25,359.75,317.62,359.56,317.64Z"/><path class="cls-1" d="M399.32,202.07c.24.05,1.5-4.86,2.8-11s2.18-11.11,1.94-11.16-1.49,4.86-2.8,11S399.08,202,399.32,202.07Z"/><path class="cls-1" d="M255.51,177.51c-.2.19,3.31,3.7,6.24,9s4.13,10.09,4.4,10a9.3,9.3,0,0,0-.59-3.2,34.53,34.53,0,0,0-3-7.26,35.31,35.31,0,0,0-4.59-6.38A9.25,9.25,0,0,0,255.51,177.51Z"/><path class="cls-1" d="M268.55,210.14c-.24,0-1.36,7.79-2.5,17.46s-1.86,17.54-1.61,17.57,1.36-7.79,2.49-17.46S268.79,210.17,268.55,210.14Z"/><path class="cls-5" d="M380.22,314.29s18.48,7.95,12.46,17.71c-4.14,6.71-12.7,12.73-12.7,12.73-8.64-5-14.72-10.16-18.94-19.74Z"/><path class="cls-1" d="M410.56,327.65c0-.07-1.19.84-3.6,2a30.18,30.18,0,0,1-11,2.7l.27.23a20.91,20.91,0,0,0-4.79-10.27,32.73,32.73,0,0,0-11-8.37l0,0a8.7,8.7,0,0,1-2.69-2.74,5.94,5.94,0,0,1-1.1-3.7,8,8,0,0,1,2-3.59,21,21,0,0,1,3.27-3l.05,0,0,0a48.61,48.61,0,0,0,4.85-6.66,60.6,60.6,0,0,1,4.51-7.13c.74-1,1.51-1.89,2.29-2.84s1.48-1.95,2.16-2.93c1.37-2,2.66-3.95,3.9-5.91l.06-.09v-.11a110.71,110.71,0,0,0,.38-12.51c-.24-4-.46-7.82-.68-11.45-.44-7.23-.83-13.68-1.16-19.09s-.64-9.6-.84-12.65q-.16-2.13-.27-3.39a5.77,5.77,0,0,0-.14-1.18,6.26,6.26,0,0,0,0,1.18c0,.85.06,2,.11,3.41.14,3.05.34,7.34.58,12.66s.6,11.87,1,19.11q.3,5.44.61,11.45a111.68,111.68,0,0,1-.42,12.39l.06-.2c-1.24,1.95-2.53,3.92-3.88,5.87-.68,1-1.38,2-2.12,2.88s-1.57,1.88-2.32,2.86a63,63,0,0,0-4.56,7.22,47.18,47.18,0,0,1-4.75,6.54l.08-.07a21.57,21.57,0,0,0-3.41,3.12,8.74,8.74,0,0,0-2.19,4,4.57,4.57,0,0,0,.27,2.31,11.13,11.13,0,0,0,1,2,9.34,9.34,0,0,0,3,3h0l0,0a32.16,32.16,0,0,1,10.81,8.07,20.65,20.65,0,0,1,4.78,9.92l0,.25.23,0a29.2,29.2,0,0,0,11.16-3,21.58,21.58,0,0,0,2.65-1.59A5.11,5.11,0,0,0,410.56,327.65Z"/><path class="cls-3" d="M257.23,350a5.22,5.22,0,0,0,1.54.59,12.55,12.55,0,0,0,1.87.48,19.21,19.21,0,0,0,2.53.43,32.09,32.09,0,0,0,6.67.12,34.53,34.53,0,0,0,15.42-5.16,32.34,32.34,0,0,0,5.26-4.11,20.88,20.88,0,0,0,1.76-1.86,12.06,12.06,0,0,0,1.21-1.51,5.52,5.52,0,0,0,.87-1.4c-.16-.12-1.54,1.77-4.33,4.24a37.27,37.27,0,0,1-5.26,3.84,41.1,41.1,0,0,1-7.24,3.33,40.41,40.41,0,0,1-7.78,1.69,37,37,0,0,1-6.51.1C259.53,350.51,257.28,349.83,257.23,350Z"/><path class="cls-3" d="M318.26,146.81a1.91,1.91,0,0,1,0,.58c-.64,4.37-18.42,1.92-9.54,48.47,2.28,12,6.19,23.53,6.3,35.7.2,20.66.47,54.69.49,83V319c0,16.11-.11,29.93-.37,37.69H243.68c-3.35-11.89-3.4-29.05-3.4-29.05-11.93-8.37-32.3-24.8-34.23-34.06-2.54-12.2,33.53-109.23,40.64-117.37S293.83,155,293.83,155l4.06-1.81c1-5.79,5-11.07,10.71-12.5,9.77-2.45,14-2.21,16.54-2.21Z"/><path class="cls-1" d="M291.29,317.64a7.41,7.41,0,0,1-.05,1.84,12.11,12.11,0,0,1-.29,2.14,22.46,22.46,0,0,1-.66,2.79,24.11,24.11,0,0,1-1.17,3.27,30.46,30.46,0,0,1-1.77,3.59,33.77,33.77,0,0,1-13,12.67,29.08,29.08,0,0,1-3.62,1.69,23.61,23.61,0,0,1-3.3,1.1,21.23,21.23,0,0,1-2.8.6,12.56,12.56,0,0,1-2.14.24,7.63,7.63,0,0,1-1.84,0c0-.2,2.61-.25,6.61-1.45A24.28,24.28,0,0,0,270.5,345a31.3,31.3,0,0,0,3.5-1.72,38.31,38.31,0,0,0,7.12-5.38,37.69,37.69,0,0,0,5.53-7,33.86,33.86,0,0,0,1.8-3.46,24.83,24.83,0,0,0,1.24-3.17C291,320.25,291.09,317.62,291.29,317.64Z"/><path class="cls-5" d="M270.63,314.29s-18.49,7.95-12.46,17.71c4.14,6.71,12.7,12.73,12.7,12.73,8.64-5,14.72-10.16,18.93-19.74Z"/><path class="cls-1" d="M240.29,327.65c0-.07,1.19.84,3.6,2a30.13,30.13,0,0,0,11.05,2.7l-.28.23a21,21,0,0,1,4.79-10.27,32.77,32.77,0,0,1,11-8.37l0,0a8.7,8.7,0,0,0,2.69-2.74,5.94,5.94,0,0,0,1.1-3.7,8,8,0,0,0-2-3.59,21.41,21.41,0,0,0-3.26-3l-.05,0,0,0a47.79,47.79,0,0,1-4.85-6.66,61.93,61.93,0,0,0-4.51-7.13c-.74-1-1.51-1.89-2.29-2.84s-1.48-1.95-2.17-2.93c-1.36-2-2.65-3.95-3.89-5.91l-.06-.09v-.11a110.71,110.71,0,0,1-.38-12.51c.24-4,.46-7.82.67-11.45.45-7.23.84-13.68,1.17-19.09s.64-9.6.84-12.65c.11-1.42.2-2.55.26-3.39a6.12,6.12,0,0,1,.15-1.18,7.6,7.6,0,0,1,0,1.18l-.12,3.41c-.13,3.05-.33,7.34-.57,12.66s-.61,11.87-1,19.11l-.6,11.45a109.3,109.3,0,0,0,.42,12.39l-.07-.2c1.24,1.95,2.53,3.92,3.89,5.87.68,1,1.37,2,2.12,2.88s1.56,1.88,2.31,2.86a61.75,61.75,0,0,1,4.57,7.22,48,48,0,0,0,4.74,6.54l-.08-.07a20.73,20.73,0,0,1,3.41,3.12,8.67,8.67,0,0,1,2.2,4,4.57,4.57,0,0,1-.28,2.31,9.9,9.9,0,0,1-1,2,9.31,9.31,0,0,1-3,3h0l0,0A32.26,32.26,0,0,0,260,322.73a20.63,20.63,0,0,0-4.77,9.92l0,.25-.24,0a29.31,29.31,0,0,1-11.16-3,21.3,21.3,0,0,1-2.64-1.59A4.57,4.57,0,0,1,240.29,327.65Z"/><path class="cls-1" d="M399.37,276.13a26.88,26.88,0,0,0,3.11-.14A19.38,19.38,0,0,1,416,281.1c1.4,1.28,2.11,2.25,2.23,2.16a7.2,7.2,0,0,0-1.79-2.61,17.2,17.2,0,0,0-14-5.29A7,7,0,0,0,399.37,276.13Z"/><path class="cls-1" d="M343.1,322.36a4.71,4.71,0,0,1,2.23,2,3.7,3.7,0,0,1,.16,3.06,3.41,3.41,0,0,1-6.05-.28,3.67,3.67,0,0,1,.44-3,4.7,4.7,0,0,1,2.4-1.81s-.32-.13-.9,0a3.74,3.74,0,0,0-2,1.43,4.22,4.22,0,0,0-.7,3.64,4.17,4.17,0,0,0,7.58.35,4.19,4.19,0,0,0-.37-3.69,3.75,3.75,0,0,0-1.87-1.61C343.44,322.26,343.1,322.32,343.1,322.36Z"/><path class="cls-1" d="M311.77,284.74a7,7,0,0,0-.48-1.3c-.39-.92-.9-2.13-1.55-3.64s-1.36-3.57-2.22-5.85-1.69-4.93-2.61-7.86c-3.68-11.71-7.33-28.35-9.59-46.95s-2.38-35.68-.95-47.87c.39-3,.62-5.81,1.17-8.19s.74-4.48,1.29-6.11.79-2.85,1.06-3.81a7.45,7.45,0,0,0,.3-1.35,6.9,6.9,0,0,0-.49,1.29c-.32,1-.73,2.2-1.24,3.77A55,55,0,0,0,295,163c-.6,2.38-.89,5.16-1.32,8.21-1.62,12.24-1.46,29.38.66,48.06,2.27,18.67,6,35.34,9.9,47.05,1,2.93,1.81,5.59,2.76,7.85s1.6,4.26,2.39,5.8,1.29,2.67,1.72,3.58A7.5,7.5,0,0,0,311.77,284.74Z"/><path class="cls-4" d="M313.46,220.58a1.76,1.76,0,0,0-1.94-1.38,1.74,1.74,0,0,0-1.47,1.2,2,2,0,0,0,.68,1.95,1.81,1.81,0,0,0,2,.12A1.66,1.66,0,0,0,313.46,220.58Z"/><path class="cls-1" d="M336.47,283.27a7.78,7.78,0,0,0,.62-1.24l1.61-3.63c1.35-3.17,3.26-7.77,5.43-13.54a370.16,370.16,0,0,0,14.15-46,263.58,263.58,0,0,0,4.78-26.09c.42-4.06.94-7.91,1.08-11.54.11-1.8.21-3.55.31-5.24s0-3.3,0-4.84c.09-3.09-.1-5.88-.26-8.32-.08-1.22-.15-2.36-.22-3.41s-.26-2-.38-2.85c-.24-1.63-.43-2.93-.58-3.93a8.29,8.29,0,0,0-.26-1.36,6.62,6.62,0,0,0,.07,1.39c.1,1,.23,2.31.39,3.94.09.87.19,1.82.29,2.85s.09,2.18.13,3.4c.11,2.44.25,5.21.12,8.28,0,1.54-.06,3.15-.09,4.82s-.24,3.42-.36,5.22c-.18,3.61-.73,7.43-1.18,11.47-1.14,8-2.63,16.86-4.83,26a414.71,414.71,0,0,1-13.84,46c-2.09,5.78-3.89,10.43-5.14,13.64L336.91,282A7.41,7.41,0,0,0,336.47,283.27Z"/><path class="cls-6" d="M357.52,112.29A41.82,41.82,0,0,0,368.2,85.78c.3-9.73-1.32-21.86-7.38-29.46,4.16-4.57,2.39-9.62-.65-15s-8.4-9.07-14-11.78a66.65,66.65,0,0,0-26.62-6.64c-7.51-.27-17.5,1.06-18.49,6.47-1,5.65,2.65,8.15,2.65,8.15A37.09,37.09,0,0,0,289.83,46c-9.33,9-12.94,18.14-11.63,28.26s3.53,18,9.64,24.39"/><path class="cls-3" d="M293.91,110.48a9.22,9.22,0,0,0-3.8-2.29l.28,0a5.3,5.3,0,0,0-.8-.1,3.7,3.7,0,0,0-2.88.47h0a6.87,6.87,0,0,0-3.62,3.42,8.13,8.13,0,0,0,1.3,8.32,6.21,6.21,0,0,0,11.29-2.6A7.67,7.67,0,0,0,293.91,110.48Z"/><path class="cls-5" d="M351.36,154.09l6-86.75a7.56,7.56,0,0,0-6.86-7.59l-40.27-9.66C297.35,48.88,289,64.82,288.34,77.73c-.73,14.35-1,31.89.77,42.57,3.68,21.46,20,24,20,24s-.15,12.95-.15,12.95l14.86,40.36h0Z"/><path class="cls-1" d="M295.91,95.63a2.76,2.76,0,0,0,2.69,2.75,2.65,2.65,0,0,0,2.82-2.53,2.78,2.78,0,0,0-2.7-2.75A2.64,2.64,0,0,0,295.91,95.63Z"/><path class="cls-1" d="M293,88.55c.44.22,1.87-2,4.66-3s5.34-.37,5.52-.82c.09-.21-.46-.7-1.59-1a7.62,7.62,0,0,0-4.57.24,7.33,7.33,0,0,0-3.56,2.79C292.88,87.74,292.81,88.46,293,88.55Z"/><path class="cls-1" d="M323.71,95.63a2.77,2.77,0,0,0,2.69,2.75,2.65,2.65,0,0,0,2.82-2.53,2.77,2.77,0,0,0-2.69-2.75A2.64,2.64,0,0,0,323.71,95.63Z"/><path class="cls-1" d="M319.93,85.39c.21.44,2.68-.38,5.5.54s4.43,3,4.85,2.76c.2-.1.07-.83-.62-1.78a7.57,7.57,0,0,0-3.74-2.63,7.34,7.34,0,0,0-4.52,0C320.32,84.66,319.82,85.18,319.93,85.39Z"/><path class="cls-1" d="M310.93,109.15c0-.17-1.83-.46-4.83-.81-.76-.07-1.48-.21-1.61-.73a3.8,3.8,0,0,1,.48-2.25l2.17-5.8c3-8.25,5.18-15,4.85-15.16s-3.05,6.48-6.06,14.74c-.72,2-1.42,4-2.08,5.83a4.43,4.43,0,0,0-.35,3,1.89,1.89,0,0,0,1.26,1.09,4.83,4.83,0,0,0,1.29.16C309.06,109.33,310.92,109.32,310.93,109.15Z"/><path class="cls-7" d="M309,144.3a54.74,54.74,0,0,0,28.72-8s-7.19,15.36-28.74,13.6Z"/><path class="cls-7" d="M311.46,116.2a7.31,7.31,0,0,1,6-3.26,4.74,4.74,0,0,1,3.93,2.08,4.36,4.36,0,0,1-4.8,6.59,10.92,10.92,0,0,1-4.41-2.65,3.47,3.47,0,0,1-.95-1.1,1.51,1.51,0,0,1,.1-1.51"/><path class="cls-1" d="M313.15,114.43c.18.36,3.17-.87,6.18.07s1.65,5.51,2,5.32a3.6,3.6,0,0,0,.61-1.12,4.64,4.64,0,0,0-.28-4.2,3.21,3.21,0,0,0-1.84-1.44,6.88,6.88,0,0,0-4.78.31C313.91,113.91,313,114.28,313.15,114.43Z"/><path class="cls-1" d="M329.29,80.63c0-.86-2.94-1.46-6.09-3s-5.51-3.35-6.18-2.82c-.31.26-.09,1.14.72,2.25a11.46,11.46,0,0,0,4.17,3.3,11.16,11.16,0,0,0,5.18,1.13C328.47,81.43,329.29,81,329.29,80.63Z"/><path class="cls-1" d="M305.7,74.81c-.73-.45-2.39.94-4.67,1.85s-4.41,1.21-4.6,2c-.08.39.47.9,1.55,1.17a7.28,7.28,0,0,0,7.47-3.13C306,75.78,306,75,305.7,74.81Z"/><path class="cls-6" d="M307.42,56.26s20.18-.68,35.89,21.82c10.35,14.82,12.83,33.63,12.83,33.63l7.11-36-6.16-16.25L343,51.82l-26.49-1L306.62,56"/><path class="cls-6" d="M347,57.38c-32.29-7.13-57.78,4-62,29.3l-6.86-16.46,16.35-20.46,18.21-5.11,37,4.9Z"/><path class="cls-3" d="M361,109.29a10.15,10.15,0,0,0-4.1-2.47l.31,0a8.43,8.43,0,0,0-.86-.11,4,4,0,0,0-3.1.51h0a7.36,7.36,0,0,0-3.89,3.68,8.73,8.73,0,0,0,1.39,8.95c1.76,2.13,4.7,3.45,7.36,2.69a7.38,7.38,0,0,0,4.79-5.48A8.3,8.3,0,0,0,361,109.29Z"/><path class="cls-2" d="M353.18,98a3.23,3.23,0,0,0,1.43-.55,8.36,8.36,0,0,0,3.72-9.13c-.28-1.15-.74-2.27-.94-3.43a3.5,3.5,0,0,1,.79-3.21,12.47,12.47,0,0,1,3.09-2,9.29,9.29,0,0,0,2.9-2.34,10.25,10.25,0,0,0,2.21-5.78,9,9,0,0,0-.7-4.11,3.19,3.19,0,0,0-.81-1.29,11.72,11.72,0,0,1,.89,5.35,9.9,9.9,0,0,1-2.22,5.32,8.44,8.44,0,0,1-2.68,2.09A12.57,12.57,0,0,0,357.54,81a4.34,4.34,0,0,0-1,4c.25,1.29.72,2.4,1,3.47a7.76,7.76,0,0,1-.6,5.63,8.68,8.68,0,0,1-2.53,3A13.57,13.57,0,0,0,353.18,98Z"/><path class="cls-2" d="M358,54.09a13.33,13.33,0,0,1,1.06,5,10.11,10.11,0,0,1-1.54,5.21c-1.05,1.79-3,3-5,4.57A8.89,8.89,0,0,0,350,71.7a6.14,6.14,0,0,0-.61,3.49c.22,2.22.93,4,.83,5.59A5.05,5.05,0,0,1,349,84.15c-.61.62-1.16.69-1.12.78s.13,0,.38,0a2.45,2.45,0,0,0,1-.5,5,5,0,0,0,1.62-3.58c.18-1.73-.49-3.63-.64-5.69a5.47,5.47,0,0,1,.56-3A8.5,8.5,0,0,1,353,69.55c1.89-1.48,4-2.82,5.17-4.82a10.33,10.33,0,0,0,1.47-5.64,9.14,9.14,0,0,0-.89-3.81A2.92,2.92,0,0,0,358,54.09Z"/><path class="cls-2" d="M335.64,69.8s.25.33.88.19a1.71,1.71,0,0,0,.91-.61,2.13,2.13,0,0,0,.46-1.39c0-1.09-.59-2.21-.66-3.34s.87-2.13,2.12-2.78a9.28,9.28,0,0,0,3.44-2.61A7.52,7.52,0,0,0,344.17,56c.3-2-.31-3.22-.38-3.17a18.77,18.77,0,0,1-.23,3,7.61,7.61,0,0,1-1.41,2.9,9.1,9.1,0,0,1-3.23,2.33,6.13,6.13,0,0,0-1.81,1.44,3.07,3.07,0,0,0-.69,2.16c.18,1.45.83,2.41.85,3.31a1.61,1.61,0,0,1-.87,1.66C336,69.87,335.66,69.73,335.64,69.8Z"/><path class="cls-2" d="M329.18,52.43s-.22-.06-.46.17a1.54,1.54,0,0,0-.36,1.26,8.5,8.5,0,0,0,.55,1.66,3.37,3.37,0,0,1,0,1.82,7.41,7.41,0,0,1-1.73,3.06c-.62.73-1,1.21-.92,1.3s.61-.22,1.36-.86a6.43,6.43,0,0,0,2.15-3.31,3.84,3.84,0,0,0-.15-2.29c-.28-.66-.6-1.1-.7-1.5A1.64,1.64,0,0,1,329.18,52.43Z"/><path class="cls-2" d="M296.8,41.29c-.05,0,.07.35.37.86s.81,1.21,1.28,2.11a4.42,4.42,0,0,1,.33,3.34,17.57,17.57,0,0,0-.94,4.51,8,8,0,0,0,1.41,4.5,7.54,7.54,0,0,0,2.9,2.51c2,1,3.42.75,3.4.67a17.19,17.19,0,0,1-3.1-1.21,7.52,7.52,0,0,1-3.73-6.47,19.74,19.74,0,0,1,.85-4.34A5,5,0,0,0,299,44a18.32,18.32,0,0,0-1.55-2C297.07,41.51,296.86,41.26,296.8,41.29Z"/><path class="cls-2" d="M281.78,56.62c-.13.14,1,.62,1.39,2.2.21.82.63,1.8.94,2.82a19.76,19.76,0,0,0,1.25,3.52,7,7,0,0,0,5.73,3.55,3.82,3.82,0,0,0,2.74-.63,23.72,23.72,0,0,1-2.69,0,6.77,6.77,0,0,1-5-3.36,22.84,22.84,0,0,1-1.26-3.35c-.39-1.11-.83-2-1.12-2.78a3.41,3.41,0,0,0-1.28-1.68C282.07,56.65,281.81,56.57,281.78,56.62Z"/><path class="cls-2" d="M279.28,78.2c-.11,0,0,.55.45,1.21a4.59,4.59,0,0,0,5.72,1.4c.72-.37,1-.78,1-.87s-1.77.87-3.87.36S279.48,78.06,279.28,78.2Z"/><path class="cls-2" d="M315.85,37.73c-.08.13.92.63,1.84,2a6.58,6.58,0,0,1,.66,6.08c-.49,1.13-1.25,2.36-1.15,3.69a5.12,5.12,0,0,0,1.25,3c1.17,1.39,2.17,1.87,2.22,1.8s-.77-.79-1.73-2.17A4.9,4.9,0,0,1,318,49.5c-.05-1,.59-2.06,1.15-3.33a6.57,6.57,0,0,0,.37-3.9,7,7,0,0,0-1.34-2.88C317,38,315.87,37.64,315.85,37.73Z"/><path class="cls-2" d="M336.39,52.84c.24-.1-.45-2-.51-4.44s.49-4.37.25-4.46-1.22,1.85-1.13,4.49S336.2,53,336.39,52.84Z"/><path class="cls-1" d="M303.74,37.51a13.21,13.21,0,0,0,2.46.06c1.58,0,3.86,0,6.67.13a72.9,72.9,0,0,1,21.4,4.48,109.31,109.31,0,0,1,19.53,10l5.62,3.61a13.48,13.48,0,0,0,2.11,1.26,13.39,13.39,0,0,0-1.91-1.54c-1.27-.95-3.13-2.28-5.48-3.86a98.66,98.66,0,0,0-19.56-10.33,68.07,68.07,0,0,0-21.68-4.29,64.06,64.06,0,0,0-6.71.16A13.07,13.07,0,0,0,303.74,37.51Z"/><path class="cls-1" d="M354.85,56.39s-.07,0-.21-.06l-.61-.25-1-.4-1.36-.5a40.38,40.38,0,0,0-8.95-2,55.39,55.39,0,0,0-13.59.32c-2.54.35-5.19.88-7.91,1.49s-5.53,1.35-8.34,2.28c-11.35,3.52-20,10.87-23.85,17.58a31.27,31.27,0,0,0-3.38,8.5c-.26,1.05-.41,1.88-.51,2.44-.05.26-.1.47-.13.64a.66.66,0,0,1-.06.22.53.53,0,0,1,0-.22c0-.18.05-.39.08-.65a24.48,24.48,0,0,1,.42-2.48,30.12,30.12,0,0,1,3.26-8.63c3.81-6.84,12.55-14.33,24-17.88,2.83-.93,5.65-1.66,8.39-2.28s5.4-1.13,8-1.47a53.79,53.79,0,0,1,13.69-.21,37.29,37.29,0,0,1,9,2.14l1.34.54,1,.45.58.29Z"/><path class="cls-1" d="M312.79,57.24a2.86,2.86,0,0,1,.7,0,17.69,17.69,0,0,1,2,.22,28.58,28.58,0,0,1,7,2.21,50.72,50.72,0,0,1,18.58,15.45,77.75,77.75,0,0,1,7,11.41,95.81,95.81,0,0,1,4.55,9.95,49.58,49.58,0,0,1,2.18,7c.19.85.31,1.52.37,2a4.59,4.59,0,0,1,.08.7,3.34,3.34,0,0,1-.18-.68c-.09-.45-.24-1.1-.46-1.94a56.06,56.06,0,0,0-2.33-7,100.33,100.33,0,0,0-4.62-9.86,81,81,0,0,0-7-11.33A51.77,51.77,0,0,0,322.38,60a29.84,29.84,0,0,0-6.93-2.33c-.85-.16-1.51-.27-2-.32A5.8,5.8,0,0,1,312.79,57.24Z"/><path class="cls-6" d="M197.3,66.44c-1.52-10.15-4-21.25-10.73-29a63.76,63.76,0,0,0-15.91-13.75c-6.77-4.09-12.74-5.43-20-6.21l-4.76,4.23c15.24,3.69,28.49,14.27,36.28,27.89s10.24,30,7.71,45.49c-1.66,10.14-5.34,19.82-8.15,29.7S177,145.08,179,155.17c8.38-3.26,6,2.25,9.54-6s5.38-26.45,7.43-35.21C199.3,99.51,199.39,80.35,197.3,66.44Z"/><path class="cls-1" d="M189.09,43.84c-12.85-20-42.83-26.13-42.83-26.13C102.35,14.57,94.51,48.31,90.08,79c-2.76,19.11,7.38,78.8,7.38,78.8l10.76,3.89,70.64,0c0-1.29,5-12.1,6.23-15.63C191.59,114.13,196.65,55.58,189.09,43.84Z"/><polygon class="cls-1" points="191.05 149.15 191.05 149.15 191.05 149.15 191.05 149.15"/><path class="cls-5" d="M152.5,29.16l-2.74-2.62-29.68,12a8.29,8.29,0,0,0-7.83,8l.26,96.71c0,6.56,1.28,12.24,5.24,17.47l4.17,5.5c9.5,12.55,29.05,11.52,36.58-2.31a10.45,10.45,0,0,0,1.05-2.5,19.76,19.76,0,0,0,.44-2.16c.88-7.78.93-14.53.93-14.53.53-8.54.71-12,.71-12s18.18-2.09,23.09-25.42c2.45-11.61,2-27.58,1.3-43.29C185.07,42.27,170,29.13,152.5,29.16Z"/><path class="cls-1" d="M147.14,78.52a3,3,0,0,1-3.07,2.9,2.9,2.9,0,0,1-3-2.88,3,3,0,0,1,3.06-2.9A2.9,2.9,0,0,1,147.14,78.52Z"/><path class="cls-1" d="M177,79.53a3,3,0,0,1-3.07,2.9,2.89,2.89,0,0,1-3-2.87,3,3,0,0,1,3.06-2.9A2.89,2.89,0,0,1,177,79.53Z"/><path class="cls-1" d="M182.92,70.23c-.4.38-2.6-1.43-5.85-1.58s-5.7,1.35-6,.93c-.16-.18.26-.87,1.33-1.57a8.23,8.23,0,0,1,4.86-1.24,8,8,0,0,1,4.63,1.75C182.81,69.34,183.11,70.07,182.92,70.23Z"/><path class="cls-1" d="M150,70.57c-.43.33-2.44-1.69-5.65-2.18s-5.81.76-6.1.31c-.14-.2.34-.84,1.48-1.43a8.26,8.26,0,0,1,5-.73,8,8,0,0,1,4.42,2.22C150,69.67,150.18,70.42,150,70.57Z"/><path class="cls-1" d="M161.31,94.2c0-.18,2-.43,5.32-.68.84,0,1.63-.17,1.8-.73A4.32,4.32,0,0,0,168,90.3c-.68-2-1.39-4.19-2.14-6.43-3-9.16-5.05-16.67-4.68-16.79s3.07,7.21,6,16.37c.71,2.26,1.39,4.41,2,6.47a4.8,4.8,0,0,1,.27,3.27,2.12,2.12,0,0,1-1.43,1.15,5.59,5.59,0,0,1-1.41.12C163.36,94.48,161.32,94.39,161.31,94.2Z"/><path class="cls-7" d="M161.63,132.73a59.88,59.88,0,0,1-31.08-10s7.1,16.68,30.76,15.66Z"/><path class="cls-7" d="M159.55,102a5.89,5.89,0,0,0-5.14-2.44,5.36,5.36,0,0,0-3.79,1.8,3.39,3.39,0,0,0-.45,3.85,3.94,3.94,0,0,0,4.21,1.29,12.17,12.17,0,0,0,4.27-2.27,3.52,3.52,0,0,0,1-.91,1.09,1.09,0,0,0,.06-1.21"/><path class="cls-1" d="M140.49,59c0-.94,3.14-1.75,6.51-3.59s5.85-3.95,6.62-3.4c.35.27.16,1.24-.68,2.5a13,13,0,0,1-10,5.32C141.43,59.85,140.52,59.47,140.49,59Z"/><path class="cls-1" d="M169.28,52.79c.84-.42,2.52,1.25,4.93,2.45s4.7,1.71,4.83,2.63c.05.44-.6,1-1.8,1.15a7.95,7.95,0,0,1-7.86-4.1C168.85,53.83,168.9,53,169.28,52.79Z"/><path class="cls-1" d="M112.84,87.79s16.63,5.18,26-35.86c3.22-14,16.23-25.39,16.23-25.39L149.83,25S117,34.19,116.49,34.6s-8.27,17-8.27,17Z"/><path class="cls-8" d="M110.77,97.49c-.07-.06-.29.17-.77.36a2.77,2.77,0,0,1-2.09-.07c-1.66-.72-2.94-3.49-2.85-6.38a9.27,9.27,0,0,1,1-4,3.22,3.22,0,0,1,2.22-2,1.42,1.42,0,0,1,1.61.86c.19.46.07.77.15.8s.36-.25.27-.91a1.8,1.8,0,0,0-.58-1,2.11,2.11,0,0,0-1.52-.49A3.92,3.92,0,0,0,105.16,87a9.61,9.61,0,0,0-1.22,4.41c-.08,3.24,1.4,6.36,3.68,7.16a3,3,0,0,0,2.58-.28C110.72,97.87,110.83,97.52,110.77,97.49Z"/><path class="cls-1" d="M124.12,80c0-.06.89-.06,2.4-.49a14.51,14.51,0,0,0,5.71-3.31,19.33,19.33,0,0,0,3-3.49A26.12,26.12,0,0,0,137.63,68a101.47,101.47,0,0,0,3.46-11.66,120.51,120.51,0,0,1,3.69-11.64A67.53,67.53,0,0,1,149,35.61,48.13,48.13,0,0,1,152.63,30c.47-.64.88-1.1,1.14-1.42a4,4,0,0,1,.43-.48,3.51,3.51,0,0,1-.36.53c-.24.34-.63.82-1.08,1.47a54.32,54.32,0,0,0-3.54,5.68,69.81,69.81,0,0,0-4.08,9.05c-1.31,3.5-2.52,7.44-3.64,11.62A97.08,97.08,0,0,1,138,68.12a26.79,26.79,0,0,1-2.5,4.74,19.81,19.81,0,0,1-3.06,3.51,14.3,14.3,0,0,1-5.87,3.25A8.8,8.8,0,0,1,124.12,80Z"/><path class="cls-3" d="M99.3,146.82a40.1,40.1,0,0,0,.36-5.61A86.85,86.85,0,0,0,98.1,126c-.57-3.18-1.19-6.66-1.87-10.4a100.08,100.08,0,0,1-1.43-12,48.67,48.67,0,0,1,1-13.27A33.29,33.29,0,0,1,98,83.64a31.58,31.58,0,0,1,3.8-6.16,74.16,74.16,0,0,1,10.1-10.17c3.51-3,6.87-6,9.87-9.09A124.41,124.41,0,0,0,136.2,40.68,121.4,121.4,0,0,0,144,27.51c.82-1.61,1.42-2.88,1.81-3.75l.45-1a2.33,2.33,0,0,0,.14-.34,1.31,1.31,0,0,0-.18.32l-.49,1c-.41.86-1,2.11-1.89,3.71A128.05,128.05,0,0,1,136,40.5,126.87,126.87,0,0,1,121.5,57.93c-3,3-6.35,6-9.87,9.05a74.48,74.48,0,0,0-10.16,10.23,32.59,32.59,0,0,0-3.85,6.24,34.63,34.63,0,0,0-2.28,6.75,49.19,49.19,0,0,0-1,13.39,99.74,99.74,0,0,0,1.48,12c.69,3.74,1.34,7.22,1.93,10.4a90.85,90.85,0,0,1,1.69,15.17c0,1.81,0,3.21-.11,4.16,0,.45,0,.81-.07,1.08S99.3,146.81,99.3,146.82Z"/><path class="cls-3" d="M94.14,148.32a39.84,39.84,0,0,0,.36-5.6,86.85,86.85,0,0,0-1.56-15.23c-.57-3.18-1.19-6.66-1.87-10.4a100,100,0,0,1-1.43-12,48.72,48.72,0,0,1,1-13.27,33.41,33.41,0,0,1,2.25-6.65A31.65,31.65,0,0,1,96.66,79a74.64,74.64,0,0,1,10.1-10.16c3.51-3,6.87-6,9.87-9.1A123.85,123.85,0,0,0,131,42.18,121.45,121.45,0,0,0,138.86,29c.82-1.62,1.42-2.88,1.81-3.75l.45-1a1.6,1.6,0,0,0,.14-.34,2.07,2.07,0,0,0-.18.33l-.49,1c-.41.86-1,2.11-1.89,3.71A128.05,128.05,0,0,1,130.79,42a128.07,128.07,0,0,1-14.45,17.43c-3,3-6.35,6-9.87,9A74.39,74.39,0,0,0,96.31,78.71,33,33,0,0,0,92.46,85a34.41,34.41,0,0,0-2.28,6.75,49.12,49.12,0,0,0-1,13.38,99.91,99.91,0,0,0,1.48,12.06c.69,3.73,1.34,7.22,1.93,10.39a91.06,91.06,0,0,1,1.69,15.18c0,1.8,0,3.21-.11,4.15L94.15,148C94.14,148.2,94.14,148.32,94.14,148.32Z"/><path class="cls-1" d="M212.13,356.7H70.88a53.53,53.53,0,0,1,.3-7.27,95.19,95.19,0,0,1,3.36-16.84c.63-2.16,1.35-4.44,2.2-6.85.39-1.11.81-2.24,1.25-3.4C85,304.07,93.2,294,93.2,294l110.57-7.28L211,347.58h0Z"/><path class="cls-9" d="M202.51,245.24c.46-7,.66-15,.7-22.93a134.37,134.37,0,0,0-19-69.66h0l-24.05-3.77s-.06,16.83-12.64,19.61C126,173.25,112,147.37,112,147.37c-2,0-32.65,6.43-42.35,15.67-10,9.48-26.47,34.65-31.12,41.86h0S6.31,252,1.59,264.88A23.41,23.41,0,0,0,3.17,285.2c1,2.91,30.81,45.7,53.89,62.79l1.81-3.41,12-20.56-31-51,36-37.93,7.08-6.66,2,9,8.74,42.1s-17.4,34.79-19.84,52.87c0,0,85.55,29.49,138.35,14.93C212.18,347.28,200.88,269.86,202.51,245.24Z"/><path class="cls-5" d="M112.53,314.79s-14.48-3.91-15.94-3.09-12.27,6.52-12.27,6.52a55.05,55.05,0,0,1-5.1,5.53s-3.71,3.52-6.27,3.64a11.23,11.23,0,0,1-4.07-.44l-10,17.63s5.94,5.65,9.08,5.6,20.59-7.39,20.59-7.39l4.22-.92s15.83,2.29,17.12-2.47L110,338l-15.55-3-5.92.34L99,332.63s14.82.73,16.22.48,3.18-2.2,2.72-3.43l-3.06-.72s3.6-1.95,3.71-4.1l-13.71-3.71S113.76,317.86,112.53,314.79Z"/><path class="cls-7" d="M116.55,328.91a5.75,5.75,0,0,1-1.26-.31c-.8-.24-2-.56-3.39-.93C109,326.92,105,326,100.59,325a15.08,15.08,0,0,0-1.6-.32,5.2,5.2,0,0,0-1.53.11c-1,.27-2,.62-2.91.92-1.85.64-3.5,1.27-4.86,1.86s-2.43,1.13-3.15,1.53a6.84,6.84,0,0,1-1.13.62,3.82,3.82,0,0,1,1-.83,23.43,23.43,0,0,1,3.09-1.74c1.35-.64,3-1.33,4.85-2,1-.33,1.89-.67,3-1A5.47,5.47,0,0,1,99,324a14.46,14.46,0,0,1,1.69.32c4.44,1,8.43,2,11.29,2.87,1.43.43,2.57.82,3.35,1.13A4.49,4.49,0,0,1,116.55,328.91Z"/><path class="cls-7" d="M105.26,321.82c-.05.1-1.09-.5-2.91-1.06a16.45,16.45,0,0,0-14.18,2.09c-1.58,1.06-2.41,1.94-2.48,1.86a7.76,7.76,0,0,1,2.22-2.23,15.35,15.35,0,0,1,14.58-2.15A8,8,0,0,1,105.26,321.82Z"/><path class="cls-1" d="M203.53,274.08a5.63,5.63,0,0,1-.08-1l-.12-2.81c-.1-2.43-.2-5.95-.27-10.3s-.14-9.54-.15-15.29.05-12.09,0-18.72c0-13.29-2.52-25.13-4.5-33.58-1-4.23-1.86-7.65-2.45-10-.27-1.14-.49-2.05-.66-2.72a7,7,0,0,1-.19-1,6.36,6.36,0,0,1,.31.93c.19.66.44,1.56.77,2.69.65,2.35,1.58,5.74,2.63,10,2.09,8.43,4.65,20.32,4.68,33.67.11,6.65,0,13,0,18.73s0,10.93,0,15.28.07,7.82.09,10.31c0,1.17,0,2.11,0,2.8A5.31,5.31,0,0,1,203.53,274.08Z"/><path class="cls-6" d="M156.64,18.23C121.29,21.4,119.9,64.6,115.2,98.68c-6.71,48.69,28.92,59.15,28.92,59.15l-44.26-8.3s-24.21-9.8-24-36.67,4.4-59.77,32.58-84.78C132.73,6.5,154.41,16.75,156.64,18.23Z"/><path class="cls-6" d="M191.05,147.37c-2.67-2.41-1.63-3.33-9.27-4-8.63-.79-18.27,4.73-26.85,5.88s-17.77,0-25-4.81c-8.45-5.63-13.06-15.35-17.28-24.59L91.92,136.88a16.78,16.78,0,0,0-6.23,13.51,5.88,5.88,0,0,0,.49,2.56c1.21,1.82,10.12-2.48,11.92-1.23,9.5,6.65,13.55,17.21,22.26,24.87,10.19,9,19.61,16.08,26.78,15.83s20.4-7.84,25.15-16.64c4.39-8.14,8.23-14.06,11.67-20.27,1.82-3.27,8.15,1.33,8.91-2.56A6.05,6.05,0,0,0,191.05,147.37Z"/><path class="cls-1" d="M75.82,198.14a4.11,4.11,0,0,1,.26.81c.16.59.36,1.37.62,2.34.52,2.11,1.25,5.06,2.15,8.67,1.77,7.32,4.15,17.46,6.67,28.68s4.69,21.41,6.14,28.81c.72,3.7,1.25,6.7,1.59,8.78.14,1,.26,1.8.34,2.41a4.8,4.8,0,0,1,.08.84,4.2,4.2,0,0,1-.2-.82c-.11-.6-.26-1.4-.45-2.39-.43-2.12-1-5.1-1.77-8.74-1.55-7.37-3.79-17.54-6.31-28.76s-4.83-21.31-6.5-28.72c-.82-3.62-1.49-6.58-2-8.7-.22-1-.39-1.78-.52-2.37A4.83,4.83,0,0,1,75.82,198.14Z"/><path class="cls-1" d="M191.05,151.84s-.07.06-.23.16l-.71.41c-.64.32-1.53.93-2.79,1.46a51.14,51.14,0,0,1-11,3.68,88.17,88.17,0,0,1-17.09,1.94c-6.48.2-13.6-.14-21-.62-3.73-.24-7.37-.6-10.86-1.15s-6.82-1.26-10-2.06a88.15,88.15,0,0,1-16.15-5.91,71.65,71.65,0,0,1-10-5.86c-1.14-.76-2-1.45-2.54-1.88-.25-.21-.47-.37-.64-.51s-.21-.18-.2-.19l.24.14.68.46c.6.4,1.43,1.06,2.59,1.79a78.76,78.76,0,0,0,10.06,5.67,90.83,90.83,0,0,0,16.11,5.76c3.13.78,6.44,1.47,9.91,2s7.09.89,10.81,1.13c7.44.48,14.54.83,21,.66a89.84,89.84,0,0,0,17-1.8,53.85,53.85,0,0,0,11-3.48c1.27-.5,2.18-1.07,2.83-1.36l.74-.36Z"/><path class="cls-1" d="M123.23,156.47s-.08,0-.23-.14l-.62-.45L120,154.1c-1-.78-2.24-1.81-3.66-3-.71-.59-1.43-1.26-2.21-1.94s-1.59-1.43-2.41-2.25a63.5,63.5,0,0,1-10.31-12.53,38.81,38.81,0,0,1-5.76-18.9c-.27-7.11,1.16-13.78,2.69-19.67s3.27-11.14,4.64-15.54,2.46-7.92,3.24-10.44l.86-2.84.23-.73a.85.85,0,0,1,.11-.25,2.46,2.46,0,0,1,0,.26l-.18.75q-.27,1.06-.75,2.88c-.68,2.49-1.72,6.08-3.06,10.49s-3,9.66-4.51,15.55S96,108.49,96.24,115.5a38.71,38.71,0,0,0,5.64,18.64A64.75,64.75,0,0,0,112,146.65c.81.82,1.6,1.58,2.38,2.27s1.47,1.37,2.17,2c1.4,1.17,2.57,2.22,3.58,3l2.31,1.87.59.5C123.17,156.4,123.24,156.46,123.23,156.47Z"/><path class="cls-10" d="M111.46,55.15a28.51,28.51,0,0,0,.67-3.26,1.78,1.78,0,0,0-3.44-.83q-3.5,9.28-7,18.57c-4.61,12.24-9.28,24.77-9.53,37.85s3.93,27.62,15,34.6l-3.22-5.72c-8.33-11.43-8.57-27-5.38-40.79S107.93,68.85,111.46,55.15Z"/><path class="cls-1" d="M191.69,155c-.06,0,.28-.51.52-1.51a7,7,0,0,0-.37-4.21,8.41,8.41,0,0,0-4.37-4.4,15,15,0,0,0-7.68-1.15,59.49,59.49,0,0,0-7.83,1.35c-2.4.54-4.53,1.13-6.3,1.67s-3.2,1-4.19,1.35a10.33,10.33,0,0,1-1.54.48,7.17,7.17,0,0,1,1.46-.69c1-.4,2.37-1,4.14-1.54s3.9-1.23,6.3-1.8a54.27,54.27,0,0,1,7.92-1.41,15.09,15.09,0,0,1,7.95,1.25,8.71,8.71,0,0,1,4.53,4.73,6.92,6.92,0,0,1,.2,4.43,4.93,4.93,0,0,1-.49,1.12C191.79,154.87,191.71,155,191.69,155Z"/><path class="cls-10" d="M179.93,157.06a81.37,81.37,0,0,1-43.36,6.34c-14.67-1.9-26.89-6.15-38.41-15.42,0,0,18.37,10.61,46.88,10.83C168.75,159,179.93,157.06,179.93,157.06Z"/><path class="cls-1" d="M158.67,102.74a23.89,23.89,0,0,1-11-2.27c-.75-.35-1.4.76-.65,1.12A25.52,25.52,0,0,0,158.67,104C159.49,104,159.5,102.72,158.67,102.74Z"/><rect class="cls-11" x="22.56" y="356.7" width="435.45" height="4.83"/></svg>