<svg id="Layer_1" data-name="Layer 1" xmlns="http://www.w3.org/2000/svg" xmlns:xlink="http://www.w3.org/1999/xlink" viewBox="0 0 363.25 354.59"><defs><style>.cls-1{fill:none;}.cls-2{fill:#455a64;}.cls-3{clip-path:url(#clip-path);}.cls-4{fill:#f7b48e;}.cls-5{fill:#e0a181;}.cls-6{fill:#754;}.cls-7{fill:#8e6752;}.cls-8{fill:#ccc9cc;}.cls-9{fill:#acacae;}.cls-10{fill:#fecf51;}.cls-11{fill:#fff;}.cls-12{fill:#ff725e;}.cls-13{fill:#f95c68;}.cls-14{fill:#f4e4e4;opacity:0.49;isolation:isolate;}.cls-15{fill:#bcafb2;}.cls-16{fill:#d1c3c5;}.cls-17{fill:#e8505b;}.cls-18{fill:#96755b;}.cls-19{fill:#ffc79b;}.cls-20{fill:#cee2eb;}.cls-21{fill:#8c3f34;}.cls-22{fill:#bf5647;}</style><clipPath id="clip-path"><circle class="cls-1" cx="181.96" cy="177.29" r="177.29"/></clipPath></defs><circle class="cls-2" cx="181.96" cy="179.76" r="175.54"/><g class="cls-3"><path class="cls-4" d="M90.48,227.45A5.08,5.08,0,0,1,92,217.53l11.22-.12.66-.83L88.26,206.2a5.08,5.08,0,0,1-1.42-7c1.56-2.34,8.34,7.89,10.67,9.45l16.57,2.57a5.08,5.08,0,0,1,1.4,7.06,3.43,3.43,0,0,1-.24.33l-5.6,7a5,5,0,0,1-3.92,1.92l-13.64.15A5.18,5.18,0,0,1,90.48,227.45Z"/><path class="cls-4" d="M83.19,232.69a5.08,5.08,0,0,1,1.38-9.92l12.76-.44L81,211.44A5.08,5.08,0,0,1,86.59,203l20.21,13.42a5.07,5.07,0,0,1,1.68,6.6l-3.55,6.7a5.07,5.07,0,0,1-4.33,2.71l-15.69.49A5,5,0,0,1,83.19,232.69Z"/><path class="cls-5" d="M9.21,200.45l11.12-31.67L70.4,185.61C72,196.54,67,207,59.28,217.28Z"/><path class="cls-5" d="M47.28,213.25c-4.76-20.2,3.07-26.4,16.84-34.3,18.15,10.3,32.27,18.67,41.27,33.08,1.51,5.68-11.14,15.64-17.88,21.48a4.71,4.71,0,0,1-5.33.63Z"/><path class="cls-5" d="M17.07,203.09,28.2,171.42l24.6,8.28c1.6,10.93-3.38,21.4-11.12,31.68Z"/><path class="cls-5" d="M113.35,208.83l16.67-.22c.67.5.83,2.41.08,4L120.33,217c-2.17.62-4,1.69-7.12,1.82l-19.32-.11-.57-.15a5.08,5.08,0,0,1-3.44-5.81c.54-2.75,4.9-8,7.65-7.5Z"/><path class="cls-5" d="M116.39,202.49a16.65,16.65,0,0,1-6.67.16c-4.31-.75-8.24-2.85-12.21-4.68a33.49,33.49,0,0,0-8.6-2.93c-3.22-.53-6.55-.16-9.81-.54-2.79-.33-4.93-1.19-7.86-.67l-.67.06a8.59,8.59,0,0,1-9.34-7.63c-.82-7.37,5.1-8.48,10.88-10.13,5.48-1.56,11.93-2.25,16.74.81s10.41,9.78,15,12.79a53.72,53.72,0,0,0,12.62,6c3,1,7.18,1.75,4.26,4.52A9.51,9.51,0,0,1,116.39,202.49Z"/><path class="cls-5" d="M117.12,202.29a17,17,0,0,1-7.4.36c-4.31-.75-8.24-2.85-12.21-4.68a34,34,0,0,0-5.94-2.32s-8.14-9.71-3.5-8.12,7.07,3.28,11.19,5.95A79.76,79.76,0,0,0,111.54,200c3,1.27,6.11,2.59,8.79.66A9.55,9.55,0,0,1,117.12,202.29Z"/><path class="cls-4" d="M119.1,196.69c-2.44-1.14-14.57-6.48-17.24-8.52-4.25-3.25-6.37-8.34-10.91-11.32-4.3-2.83-12.54-3.16-17.2-1.39-14.21,5.37-21.28,4.43-21.28,4.43s4.26,3.65,14.06,1.34c6.33-1.49,15.55-4.65,21.48-1,5,3,8.06,8.21,13.13,11.26,4.55,2.74,12.29,5.8,17.65,5.89C119.16,197.34,119.53,196.89,119.1,196.69Z"/><path class="cls-6" d="M246.87,191.84a4,4,0,0,0,2.32-4.94c-.81-2.28-3.53-3.56-6.2-3-12.52,2-24.67,1.06-37.05-1.26-2.85-.48-5.42.94-5.67,3.36s2.1,4.94,5.18,5.43a128.38,128.38,0,0,0,40.09.85A5.61,5.61,0,0,0,246.87,191.84Z"/><path class="cls-6" d="M250.33,202.43c2.09-.94,3.13-2.84,2.48-4.6-.79-2.12-3.58-3.28-6.33-2.74a137.79,137.79,0,0,1-35.2-.28c-2.89-.38-5.35,1-5.45,3.28s2.38,4.53,5.47,4.9c12.64,1.61,25,2,37.67-.12A7,7,0,0,0,250.33,202.43Z"/><path class="cls-6" d="M265.08,209c2-1,3-2.87,2.33-4.45-.83-1.89-3.65-2.73-6.36-2a158.37,158.37,0,0,1-29.23,2.9c-2.83,0-5,1.63-4.85,3.69s2.78,3.79,5.78,3.73a126.28,126.28,0,0,0,31-3.36A6.3,6.3,0,0,0,265.08,209Z"/><path class="cls-6" d="M239.6,181.39a4.18,4.18,0,0,0,3-5,4.6,4.6,0,0,0-5.25-3.44,114.93,114.93,0,0,1-27.74,0c-2.56-.41-5,1-5.35,3.42s1.68,4.83,4.47,5.26a96.32,96.32,0,0,0,30.22-.09C239.17,181.5,239.39,181.45,239.6,181.39Z"/><path class="cls-7" d="M230.06,160.51l.35.33.19.18.12.11.21.18,1,.78,1.09.69c.38.22.81.46,1.25.69.88.44,1.87.9,2.92,1.31,4.2,1.68,9.49,3,14.47,4.5,1.25.37,2.47.75,3.64,1.14s2.29.79,3.35,1.2,2,.83,2.88,1.25c.44.21.84.42,1.22.63l1.06.61a15.1,15.1,0,0,1,1.59,1.12,9.79,9.79,0,0,1,.94.88,3.87,3.87,0,0,1,.46.54l.14.18.07.08a7.2,7.2,0,1,0,11.86-8.17,6.58,6.58,0,0,0-.67-.83,5.58,5.58,0,0,0-.7-.76l-.53-.49a15.81,15.81,0,0,0-1.53-1.29,22.47,22.47,0,0,0-2.43-1.64,29.65,29.65,0,0,0-3.13-1.59c-.56-.24-1.16-.5-1.76-.71s-1.22-.46-1.85-.65c-1.27-.42-2.58-.78-3.92-1.11s-2.7-.62-4.07-.87-2.73-.49-4.09-.7l-7.75-1.16c-1.21-.19-2.33-.38-3.39-.57s-2-.4-2.85-.62-1.57-.42-2.18-.62l-.8-.3-.59-.26-.24-.1h0l-.12-.08-.21-.15-.38-.29h0a4.35,4.35,0,0,0-5.59,6.63Z"/><path class="cls-6" d="M320.92,203.17l-3.34-32.47-44.84,4.61c-3.37,10-1.18,21,3.34,32.48Z"/><path class="cls-6" d="M287.07,199.86c2.73-11.55-.29-21.76-8-30.86-17.92-.46-33.11.92-44.84,4.62-4.88,6.82,7.66,25.6,17.78,38l22.3-.62A14.62,14.62,0,0,0,287.07,199.86Z"/><path class="cls-6" d="M313.88,203.9l-3.35-32.48-22,2.27c-3.38,10-1.19,21,3.34,32.48Z"/><path class="cls-6" d="M230.72,161.13l.21.18,1,.78,1.09.69c.38.22.81.46,1.25.69.88.44,1.87.9,2.92,1.31,4.2,1.68,11,3.55,16,5,.11,0,8.73-.89,13.6-.22a61.24,61.24,0,0,0-9.7-3.39c-4.22-.88-8.44-1.32-12.71-1.82-4.75-.56-9.69-1.43-14-3.52l.16.15Z"/><path class="cls-7" d="M261.58,161.47c-.63,0-1.22.79-.49,1.15,4.37,2.14,9,3.13,13.22,5.76a18.51,18.51,0,0,1,8.17,11.68c.07.38.76.17.8-.14C284.8,168.26,271.6,161.49,261.58,161.47Z"/><rect class="cls-8" x="107.67" y="162.69" width="87.82" height="39.78" rx="5.69" transform="translate(-83.89 211.95) rotate(-57.41)"/><path class="cls-9" d="M131.29,214.29a1.13,1.13,0,0,1-.34-1.54l39.37-61.59a1.12,1.12,0,0,1,1.88,1.2L132.8,214A1.12,1.12,0,0,1,131.29,214.29Z"/><path class="cls-9" d="M139.41,220.28a4.47,4.47,0,1,1,6.17-1.36A4.49,4.49,0,0,1,139.41,220.28Z"/><path class="cls-9" d="M147.16,199.84a4.48,4.48,0,0,1,6.18-1.36h0a4.47,4.47,0,0,1,1.36,6.17h0a4.46,4.46,0,0,1-6.17,1.36h0A4.5,4.5,0,0,1,147.16,199.84Zm9.13-14.28a4.46,4.46,0,0,1,6.16-1.36h0a4.47,4.47,0,0,1,1.36,6.17h0a4.46,4.46,0,0,1-6.17,1.36h0a4.47,4.47,0,0,1-1.36-6.17Zm9.11-14.26a4.48,4.48,0,0,1,6.18-1.36h0a4.47,4.47,0,0,1,1.36,6.17h0a4.48,4.48,0,0,1-6.18,1.36h0A4.48,4.48,0,0,1,165.4,171.3Z"/><path class="cls-9" d="M175.88,163.21a4.48,4.48,0,0,1,4.81-7.55,4.47,4.47,0,0,1,1.37,6.18,4.48,4.48,0,0,1-6.17,1.38Z"/><path class="cls-9" d="M122.58,209.52a4.47,4.47,0,1,1,6.18-1.34,4.48,4.48,0,0,1-6.18,1.34Z"/><path class="cls-9" d="M130.34,189.08a4.48,4.48,0,0,1,6.18-1.36h0a4.48,4.48,0,0,1,1.36,6.18h0a4.46,4.46,0,0,1-6.17,1.35h0A4.48,4.48,0,0,1,130.34,189.08Zm9.13-14.27a4.47,4.47,0,0,1,6.17-1.36h0a4.48,4.48,0,0,1,1.36,6.18h0a4.47,4.47,0,0,1-6.18,1.38h0a4.47,4.47,0,0,1-1.33-6.18Zm9.12-14.27a4.46,4.46,0,0,1,6.16-1.36h0a4.47,4.47,0,0,1,1.36,6.17h0a4.48,4.48,0,0,1-6.18,1.36h0a4.48,4.48,0,0,1-1.35-6.18Z"/><path class="cls-9" d="M159.06,152.45a4.47,4.47,0,1,1,4.57-7.69l.24.16a4.46,4.46,0,0,1,1.37,6.17h0A4.47,4.47,0,0,1,159.06,152.45Z"/><path class="cls-10" d="M140.37,218.77a2.68,2.68,0,0,1,2.89-4.52h0a2.66,2.66,0,0,1,1.17,1.68,2.61,2.61,0,0,1-.35,2,2.71,2.71,0,0,1-3.71.84Z"/><path class="cls-10" d="M148.67,200.79a2.7,2.7,0,0,1,3.71-.81h0a2.7,2.7,0,0,1,.82,3.71h0a2.68,2.68,0,0,1-3.71.81h0A2.7,2.7,0,0,1,148.67,200.79Zm9.13-14.26a2.7,2.7,0,0,1,3.71-.82h0a2.68,2.68,0,0,1,.82,3.7h0a2.68,2.68,0,0,1-3.71.81h0a2.68,2.68,0,0,1-.83-3.68Zm9.12-14.27a2.7,2.7,0,0,1,3.71-.82h0a2.67,2.67,0,0,1,.81,3.7h0a2.67,2.67,0,0,1-3.7.82h0a2.7,2.7,0,0,1-.83-3.71Z"/><path class="cls-10" d="M176.85,161.7a2.77,2.77,0,0,1-1.18-1.69,2.69,2.69,0,0,1,2-3.19,2.75,2.75,0,0,1,2,.36,2.67,2.67,0,1,1-2.89,4.49Z"/><path class="cls-11" d="M143.3,216.66a1.1,1.1,0,0,1-.34-1.52h0a1.1,1.1,0,0,1,.71-.5,1.17,1.17,0,0,1,1.33.85,1.15,1.15,0,0,1-.15.85,1.11,1.11,0,0,1-1.55.33Z"/><path class="cls-11" d="M152.08,200.86a1.13,1.13,0,0,1,1.55-.34h0a1.12,1.12,0,0,1,.34,1.54h0a1.13,1.13,0,0,1-1.55.34h0A1.13,1.13,0,0,1,152.08,200.86Zm9.12-14.27a1.13,1.13,0,0,1,1.55-.34h0a1.12,1.12,0,0,1,.34,1.54h0a1.13,1.13,0,0,1-1.55.34h0A1.13,1.13,0,0,1,161.2,186.59Zm9.12-14.27a1.13,1.13,0,0,1,1.55-.34h0a1.13,1.13,0,0,1,.34,1.55h0a1.14,1.14,0,0,1-1.55.33h0a1.13,1.13,0,0,1-.34-1.54Z"/><path class="cls-11" d="M179.8,159.59a1.16,1.16,0,0,1-.49-.69,1.23,1.23,0,0,1,.15-.84,1.11,1.11,0,0,1,.7-.5,1.16,1.16,0,0,1,1.33.86,1.08,1.08,0,0,1-.14.84,1.16,1.16,0,0,1-.71.49A1.13,1.13,0,0,1,179.8,159.59Z"/><path class="cls-11" d="M126.48,205.91a1.12,1.12,0,0,1,1.19-1.9,1.09,1.09,0,0,1,.5.72,1.07,1.07,0,0,1-.15.85,1.12,1.12,0,0,1-1.54.33Z"/><path class="cls-11" d="M135.26,190.1a1.13,1.13,0,0,1,1.55-.34h0a1.12,1.12,0,0,1,.33,1.55h0a1.12,1.12,0,0,1-1.54.34h0A1.14,1.14,0,0,1,135.26,190.1Zm9.12-14.26a1.13,1.13,0,0,1,1.55-.34h0a1.11,1.11,0,0,1,.33,1.54h0a1.12,1.12,0,0,1-1.54.34h0a1.13,1.13,0,0,1-.34-1.54Zm9.12-14.27a1.13,1.13,0,0,1,1.55-.34h0a1.11,1.11,0,0,1,.33,1.54h0a1.12,1.12,0,0,1-1.54.34h0A1.13,1.13,0,0,1,153.5,161.57Z"/><path class="cls-11" d="M163,148.84a1.14,1.14,0,0,1-.49-.7,1.12,1.12,0,0,1,.85-1.33,1.15,1.15,0,0,1,1.33.85,1,1,0,0,1-.15.84,1.15,1.15,0,0,1-.7.5A1.13,1.13,0,0,1,163,148.84Z"/><rect class="cls-8" x="75.85" y="177.53" width="64.48" height="40.04" rx="6.93" transform="translate(-81.38 75.85) rotate(-28.6)"/><path class="cls-9" d="M83.55,211a.88.88,0,0,1,.34-1.18l47.61-26a.86.86,0,0,1,1.17.34h0a.86.86,0,0,1-.34,1.18l-47.61,26a.85.85,0,0,1-1.16-.34Z"/><path class="cls-9" d="M115.05,178.24a3.46,3.46,0,0,1,4-5l9.08,2.67a3.37,3.37,0,0,1,2.06,1.67,3.46,3.46,0,0,1-4,5l-9.08-2.67A3.46,3.46,0,0,1,115.05,178.24Z"/><path class="cls-9" d="M105.23,183.59a3.47,3.47,0,0,1,4-5l9.08,2.68a3.45,3.45,0,0,1,2.35,4.28h0a3.41,3.41,0,0,1-1.66,2.06,3.46,3.46,0,0,1-2.64.28l-9.08-2.67A3.5,3.5,0,0,1,105.23,183.59Z"/><path class="cls-9" d="M95.42,188.94a3.35,3.35,0,0,1-.28-2.63A3.45,3.45,0,0,1,99.42,184h0l9.08,2.67a3.46,3.46,0,1,1-2,6.64l-9.08-2.68A3.41,3.41,0,0,1,95.42,188.94Z"/><path class="cls-9" d="M85.6,194.29a3.46,3.46,0,0,1,4-5L98.68,192a3.46,3.46,0,1,1-2,6.64L87.66,196A3.4,3.4,0,0,1,85.6,194.29Z"/><path class="cls-9" d="M75.8,199.65a3.47,3.47,0,0,1,4-5l9.08,2.68a3.46,3.46,0,1,1-2,6.63l-9.08-2.65A3.49,3.49,0,0,1,75.8,199.65Z"/><path class="cls-12" d="M88.5,198.62,84,197.28,79.42,196a2.13,2.13,0,0,0-1.2,4.09l4.58,1.28,4.54,1.34a2.13,2.13,0,1,0,1.2-4.09h0Z"/><path class="cls-10" d="M113.41,181.22l-1.2,4.09,4.54,1.34a2.13,2.13,0,0,0,2.65-1.44h0a2.13,2.13,0,0,0-1.45-2.65Z"/><path class="cls-13" d="M106.22,181.33h0a2.15,2.15,0,0,0,1.45,2.65l4.54,1.33,1.2-4.09-4.54-1.33a2.12,2.12,0,0,0-2.64,1.43Z"/><path class="cls-10" d="M84,197.28l-1.16,4.09,4.54,1.34A2.15,2.15,0,0,0,90,201.27h0a2.13,2.13,0,0,0-1.45-2.65Z"/><path class="cls-13" d="M76.8,197.39h0A2.13,2.13,0,0,0,78.22,200l4.58,1.37,1.2-4.09L79.42,196A2.12,2.12,0,0,0,76.8,197.39Z"/><path class="cls-9" d="M124.9,196.31a3.47,3.47,0,0,1,4-5L138,194a3.46,3.46,0,1,1-2,6.63L127,198A3.49,3.49,0,0,1,124.9,196.31Z"/><path class="cls-12" d="M125.89,194.05a2.15,2.15,0,0,0,1.45,2.65l4.54,1.33,4.54,1.34a2.13,2.13,0,1,0,1.2-4.09l-4.54-1.34-4.54-1.33A2.12,2.12,0,0,0,125.9,194Z"/><path class="cls-9" d="M115.09,201.66a3.46,3.46,0,0,1,4-5l9.08,2.67a3.45,3.45,0,0,1,.68,6.35,3.35,3.35,0,0,1-2.63.28l-9.08-2.67A3.44,3.44,0,0,1,115.09,201.66Z"/><path class="cls-12" d="M129.25,203.28a2.12,2.12,0,0,0-1.43-2.65h0l-4.54-1.33-4.54-1.3a2.12,2.12,0,0,0-2.64,1.43h0a2.14,2.14,0,0,0,1.44,2.65h0l4.54,1.34,4.54,1.33a2.13,2.13,0,0,0,2.65-1.43h0Z"/><path class="cls-9" d="M105.27,207a3.46,3.46,0,0,1,4-5l9.08,2.67a3.46,3.46,0,1,1-1.95,6.64l-9.08-2.67A3.52,3.52,0,0,1,105.27,207Z"/><path class="cls-12" d="M118,206l-4.54-1.33-4.54-1.34a2.13,2.13,0,0,0-1.2,4.09l4.54,1.34,4.54,1.34A2.14,2.14,0,0,0,118,206Z"/><path class="cls-9" d="M95.46,212.37a3.45,3.45,0,0,1,4-5l9.08,2.67a3.47,3.47,0,1,1-1.94,6.67L97.52,214A3.45,3.45,0,0,1,95.46,212.37Z"/><path class="cls-12" d="M108.17,211.34,103.63,210l-4.54-1.34a2.14,2.14,0,0,0-1.2,4.1l4.54,1.33,4.54,1.34a2.13,2.13,0,1,0,1.2-4.09Z"/><path class="cls-9" d="M85.64,217.72a3.46,3.46,0,0,1,4-5l9.08,2.67a3.46,3.46,0,1,1-2,6.63l-9.08-2.67A3.45,3.45,0,0,1,85.64,217.72Z"/><path class="cls-12" d="M98.36,216.69l-4.56-1.34L89.28,214a2.13,2.13,0,1,0-1.21,4.09h0l4.54,1.34,4.54,1.33a2.13,2.13,0,0,0,1.21-4.09Z"/><path class="cls-10" d="M133.08,193.94l-1.2,4.09,4.54,1.34a2.13,2.13,0,0,0,2.65-1.44h0a2.13,2.13,0,0,0-1.45-2.65Z"/><path class="cls-13" d="M125.89,194.05h0a2.15,2.15,0,0,0,1.45,2.65l4.54,1.33,1.2-4.09-4.54-1.33A2.12,2.12,0,0,0,125.9,194Z"/><path class="cls-10" d="M123.27,199.3l-1.21,4.09,4.54,1.33a2.13,2.13,0,0,0,2.65-1.43h0a2.12,2.12,0,0,0-1.43-2.65h0Z"/><path class="cls-13" d="M116.08,199.4h0a2.14,2.14,0,0,0,1.44,2.65h0l4.54,1.34,1.21-4.09-4.54-1.3A2.14,2.14,0,0,0,116.08,199.4Z"/><path class="cls-10" d="M113.45,204.65l-1.2,4.09,4.54,1.34a2.12,2.12,0,0,0,2.64-1.45h0A2.12,2.12,0,0,0,118,206h0Z"/><path class="cls-13" d="M106.26,204.76h0a2.14,2.14,0,0,0,1.45,2.64l4.54,1.34,1.2-4.09-4.54-1.34A2.14,2.14,0,0,0,106.26,204.76Z"/><path class="cls-10" d="M103.63,210l-1.2,4.09,4.54,1.34a2.13,2.13,0,0,0,2.65-1.45h0a2.13,2.13,0,0,0-1.45-2.64Z"/><path class="cls-13" d="M96.45,210.11h0a2.14,2.14,0,0,0,1.44,2.65h0l4.54,1.33,1.2-4.09-4.54-1.34A2.13,2.13,0,0,0,96.45,210.11Z"/><path class="cls-10" d="M93.8,215.35l-1.21,4.1,4.54,1.33a2.13,2.13,0,0,0,2.65-1.43h0a2.12,2.12,0,0,0-1.43-2.65h0Z"/><path class="cls-13" d="M86.63,215.46h0a2.14,2.14,0,0,0,1.44,2.65h0l4.54,1.34,1.21-4.1L89.28,214a2.13,2.13,0,0,0-2.64,1.44Z"/><path class="cls-11" d="M98.4,219.93a1,1,0,0,1,.39-.4.94.94,0,0,1,1.28.37.92.92,0,0,1,.08.71.31.31,0,0,1-.06.16,1,1,0,0,1-.39.41.93.93,0,0,1-1.26-.35l0,0a.93.93,0,0,1-.08-.71Z"/><path class="cls-11" d="M108.12,214.62a1.1,1.1,0,0,1,.39-.41,1,1,0,0,1,1.28.38,1,1,0,0,1,0,.88.89.89,0,0,1-.39.4.91.91,0,0,1-.72.07.93.93,0,0,1-.63-1.15.85.85,0,0,1,.06-.17Zm9.68-5.32a1,1,0,0,1,.39-.4,1,1,0,0,1,1.28.37h0a.9.9,0,0,1,0,.87.91.91,0,0,1-.39.41,1,1,0,0,1-1.27-.38A1,1,0,0,1,117.8,209.3Zm9.71-5.31a1,1,0,1,1,1.3,1.25.9.9,0,0,1-.72.08.93.93,0,0,1-.56-.45,1,1,0,0,1,0-.87Z"/><path class="cls-11" d="M137.25,198.68a1.1,1.1,0,0,1,.4-.4.93.93,0,0,1,.71-.08,1,1,0,0,1,.56.46.93.93,0,0,1,.08.71.52.52,0,0,1-.06.16.89.89,0,0,1-.39.4,1,1,0,0,1-.72.08,1.08,1.08,0,0,1-.56-.45,1.05,1.05,0,0,1-.08-.72Z"/><path class="cls-11" d="M88.49,201.83a1,1,0,0,1,.39-.41,1,1,0,0,1,.72-.08,1,1,0,0,1,.64,1.17.46.46,0,0,1-.07.16,1,1,0,0,1-.39.41,1,1,0,0,1-.72.07,1.08,1.08,0,0,1-.56-.45,1,1,0,0,1-.08-.71C88.44,201.93,88.47,201.88,88.49,201.83Z"/><path class="cls-11" d="M98.2,196.51a.94.94,0,0,1,1.27-.4,1,1,0,0,1,.4.4.9.9,0,0,1,0,.87,1,1,0,0,1-.39.41.95.95,0,0,1-1.28-1.28Zm9.71-5.31a1,1,0,0,1,1.11-.48.9.9,0,0,1,.56.45.93.93,0,0,1-.36,1.28,1,1,0,0,1-.73.08.93.93,0,0,1-.56-.45A1,1,0,0,1,107.91,191.2Zm9.72-5.31a.95.95,0,0,1,1.67,0,1,1,0,0,1-1.67.91,1,1,0,0,1,0-.91Z"/><path class="cls-11" d="M127.34,180.58a.94.94,0,0,1,.39-.4,1,1,0,0,1,.72-.08.9.9,0,0,1,.55.46,1,1,0,0,1,.09.71l-.06.15a1,1,0,0,1-.4.41.92.92,0,0,1-.71.08,1.05,1.05,0,0,1-.56-.46,1,1,0,0,1-.08-.71A.44.44,0,0,1,127.34,180.58Z"/><rect class="cls-8" x="110.01" y="198.43" width="73.27" height="33.19" rx="6.63" transform="translate(-1.68 1.16) rotate(-0.45)"/><path class="cls-9" d="M116.15,216.48l61-.49a1.19,1.19,0,1,0,0-2.38l-61,.48a1.2,1.2,0,0,0,0,2.39Z"/><path class="cls-9" d="M118.36,213.31a6.44,6.44,0,1,0-6.49-6.38h0a6.45,6.45,0,0,0,6.49,6.38Z"/><path class="cls-9" d="M137.2,213.16h0a6.45,6.45,0,0,1-6.5-6.38h0a6.45,6.45,0,0,1,6.39-6.49h0a6.44,6.44,0,0,1,.11,12.87ZM156,213h0a6.44,6.44,0,0,1-6.49-6.37h0a6.43,6.43,0,0,1,6.37-6.49h0a6.44,6.44,0,1,1,.6,12.87c-.16,0-.33,0-.5,0Z"/><path class="cls-9" d="M174.86,212.86A6.44,6.44,0,1,0,170.3,211,6.44,6.44,0,0,0,174.86,212.86Z"/><path class="cls-9" d="M118.49,230a6.44,6.44,0,1,0-6.49-6.39A6.44,6.44,0,0,0,118.49,230Z"/><path class="cls-9" d="M137.33,229.82h0a6.44,6.44,0,0,1-6.49-6.37v0h0a6.45,6.45,0,0,1,6.39-6.49h0a6.44,6.44,0,1,1,.1,12.88Zm18.83-.15h0a6.45,6.45,0,0,1-6.49-6.38h0a6.44,6.44,0,0,1,6.38-6.5h0a6.44,6.44,0,1,1,.1,12.88Z"/><path class="cls-9" d="M175,229.52a6.39,6.39,0,1,0-4.62-1.84,6.44,6.44,0,0,0,4.62,1.84Z"/><path class="cls-12" d="M118.35,211.41a4.51,4.51,0,1,0-3.22-1.3A4.58,4.58,0,0,0,118.35,211.41Z"/><path class="cls-12" d="M137.18,211.25h0a4.54,4.54,0,0,1-4.57-4.49h0a4.55,4.55,0,0,1,4.5-4.57h0a4.53,4.53,0,1,1,.07,9.06Z"/><path class="cls-12" d="M118.48,228.06a4.54,4.54,0,1,0-3.21-1.3A4.54,4.54,0,0,0,118.48,228.06Z"/><path class="cls-11" d="M115.69,205.85a1.2,1.2,0,0,0,1.19-1.2,1.22,1.22,0,0,0-.36-.84,1.25,1.25,0,0,0-1.69,0,1.22,1.22,0,0,0-.34.85,1.19,1.19,0,0,0,1.2,1.18h0Z"/><path class="cls-11" d="M134.52,205.7h0a1.18,1.18,0,0,1-1.19-1.17h0a1.18,1.18,0,0,1,1.16-1.2h0a1.19,1.19,0,0,1,0,2.38Zm18.84-.15h0a1.19,1.19,0,0,1-1.2-1.18h0a1.2,1.2,0,0,1,1.18-1.2h0a1.19,1.19,0,0,1,0,2.38Z"/><path class="cls-11" d="M172.2,205.4a1.19,1.19,0,1,0-.86-2,1.28,1.28,0,0,0-.35.85,1.21,1.21,0,0,0,1.21,1.18Z"/><path class="cls-11" d="M115.8,222.5a1.15,1.15,0,0,0,.84-.35,1.17,1.17,0,0,0,0-1.68,1.23,1.23,0,0,0-1.69,0,1.24,1.24,0,0,0-.34.84,1.16,1.16,0,0,0,.36.84A1.13,1.13,0,0,0,115.8,222.5Z"/><path class="cls-11" d="M134.66,222.35h0a1.2,1.2,0,0,1-1.21-1.17h0a1.21,1.21,0,0,1,1.19-1.21h0a1.18,1.18,0,0,1,1.2,1.18h0a1.18,1.18,0,0,1-1.17,1.19Zm18.83-.14h0a1.21,1.21,0,0,1-1.2-1.18h0a1.21,1.21,0,0,1,1.18-1.21h0a1.2,1.2,0,1,1,.22,2.39h-.2Z"/><path class="cls-11" d="M172.33,222.06a1.24,1.24,0,0,0,.84-.36,1.2,1.2,0,0,0,0-1.68,1.2,1.2,0,0,0-1.69.09,1.23,1.23,0,0,0-.31.77,1.2,1.2,0,0,0,1.17,1.18Z"/><polygon class="cls-14" points="195.61 79.62 181.83 81.77 171.82 79.62 76.19 79.62 71.17 230.28 174.92 234.58 204.21 227.42 195.61 79.62"/><path class="cls-14" d="M139.28,226.63,116.9,216.2a43.59,43.59,0,0,1-11.57-7.86L98.63,202a22.39,22.39,0,0,0-25.4-3.75l-1,.5-1,31.52L175,234.58Z"/><polygon class="cls-15" points="195.61 79.62 181.83 81.77 171.82 79.62 174.92 234.58 204.21 227.42 195.61 79.62"/><polygon class="cls-16" points="181.83 81.77 171.82 79.62 174.92 234.58 186.84 214.13 181.83 81.77"/><circle class="cls-11" cx="124.34" cy="162.5" r="34.08"/><rect class="cls-17" x="118.83" y="139.77" width="11.01" height="45.46"/><rect class="cls-17" x="118.84" y="139.76" width="11.01" height="45.46" transform="translate(-78.55 188.93) rotate(-60)"/><rect class="cls-17" x="101.61" y="156.99" width="45.46" height="11.01" transform="translate(-64.59 83.94) rotate(-30)"/><path class="cls-7" d="M226.22,234.48a4.92,4.92,0,0,0-3.51-9.09l-35.5,6.07a4.91,4.91,0,0,0,2.28,9.56L225,235A5.39,5.39,0,0,0,226.22,234.48Z"/><path class="cls-7" d="M230.63,246.12a4.56,4.56,0,0,0-3-8.52l-30.71,4.74a4.56,4.56,0,0,0,1.86,8.93l30.71-4.74A5,5,0,0,0,230.63,246.12Z"/><path class="cls-7" d="M241.73,255.55a4.19,4.19,0,0,0-2.32-8l-24,2.28a4.19,4.19,0,1,0,.89,8.33l.35-.05,24-2.28A3.9,3.9,0,0,0,241.73,255.55Z"/><path class="cls-18" d="M316,246.49l-3.79-36.83-50.84,5.24c-3.82,11.31-1.34,23.82,3.79,36.83Z"/><path class="cls-18" d="M277.57,242.73c3.09-13.1-.33-24.67-9.08-35-20.32-.52-37.55,1-50.84,5.24-5.54,7.73,8.68,29,20.16,43.11l25.28-.7A16.59,16.59,0,0,0,277.57,242.73Z"/><path class="cls-6" d="M308,247.31l-3.79-36.82-25,2.57c-3.82,11.32-1.34,23.82,3.8,36.83Z"/><path class="cls-18" d="M221.06,222.07a4.91,4.91,0,0,0-2.83-9.39l-29.36,6.75a4.91,4.91,0,0,0,2.19,9.58h0l29.36-6.75A4.32,4.32,0,0,0,221.06,222.07Z"/><path class="cls-18" d="M212.93,198.11l.39.38.22.21.13.12.25.2c.33.26.74.58,1.18.89l1.23.78c.44.25.92.52,1.42.78,1,.5,2.12,1,3.31,1.48,4.76,1.91,10.76,3.42,16.41,5.11,1.41.42,2.8.85,4.12,1.29s2.6.9,3.8,1.36,2.29.94,3.26,1.42c.5.24,1,.48,1.39.71l1.2.7a16.2,16.2,0,0,1,1.8,1.27,10.13,10.13,0,0,1,1.07,1,4.38,4.38,0,0,1,.52.62l.17.21.07.09a8.17,8.17,0,0,0,13-9.87c-.11-.14-.22-.28-.34-.41a8,8,0,0,0-.8-.85l-.6-.56a17.34,17.34,0,0,0-1.73-1.46,25.9,25.9,0,0,0-2.75-1.85,31.17,31.17,0,0,0-3.55-1.81c-.64-.27-1.32-.57-2-.81s-1.39-.51-2.1-.74c-1.44-.48-2.92-.87-4.44-1.25s-3.07-.71-4.61-1-3.11-.55-4.65-.8L231.55,194c-1.37-.21-2.65-.43-3.85-.65s-2.28-.45-3.23-.69-1.78-.49-2.47-.72l-.9-.33-.67-.3a.85.85,0,0,0-.28-.1h-.06l-.13-.09-.24-.17-.43-.33h0a4.92,4.92,0,0,0-6.34,7.51Z"/><path class="cls-7" d="M213.67,198.82l.25.2c.33.26.74.58,1.18.89l1.23.78c.44.25.92.52,1.42.78,1,.5,2.12,1,3.31,1.48,4.76,1.91,12.47,4,18.12,5.73.12,0,9.89-1,15.42-.26a70.93,70.93,0,0,0-11-3.84c-4.78-1-9.57-1.5-14.42-2.07-5.38-.63-11-1.61-15.82-4l.18.17Z"/><path class="cls-4" d="M90.48,249.65A5.08,5.08,0,0,1,92,239.73l11.22-.12.66-.83L88.26,228.41a5.1,5.1,0,0,1-1.42-7c1.56-2.33,8.34,7.9,10.67,9.45l16.57,2.57a5.08,5.08,0,0,1,1.4,7.06,3.43,3.43,0,0,1-.24.33l-5.6,7.06a5.08,5.08,0,0,1-3.92,1.92l-13.64.14A5.19,5.19,0,0,1,90.48,249.65Z"/><path class="cls-4" d="M83.19,254.89A5.08,5.08,0,0,1,84.57,245l12.76-.43L81,233.65a5.08,5.08,0,0,1,5.63-8.46l20.21,13.43a5.08,5.08,0,0,1,1.68,6.61l-3.55,6.7a5.08,5.08,0,0,1-4.33,2.7l-15.69.5A5,5,0,0,1,83.19,254.89Z"/><path class="cls-19" d="M9.21,222.65,20.33,191,70.4,207.82C72,218.74,67,229.21,59.28,239.49Z"/><path class="cls-19" d="M47.28,235.45c-4.76-20.19,3.07-26.4,16.84-34.29,18.15,10.29,32.27,18.66,41.27,33.07,1.51,5.69-11.14,15.65-17.88,21.49a4.75,4.75,0,0,1-5.33.62Z"/><path class="cls-5" d="M2,219.34l11.12-31.67L37.8,196c1.6,10.93-3.38,21.39-11.12,31.67Z"/><path class="cls-19" d="M113.35,231l16.67-.22c.67.49.83,2.4.08,4l-9.77,4.32c-2.17.62-4,1.68-7.12,1.81l-19.32-.11c-.19,0-.38-.08-.57-.14a5.08,5.08,0,0,1-3.44-5.81c.54-2.76,4.9-8,7.65-7.51Z"/><path class="cls-19" d="M116.39,224.7a16.83,16.83,0,0,1-6.67.16c-4.31-.76-8.24-2.86-12.21-4.69a33.47,33.47,0,0,0-8.6-2.92c-3.22-.53-6.55-.16-9.81-.54-2.79-.33-4.93-1.19-7.86-.68l-.67.07a8.59,8.59,0,0,1-9.34-7.63c-.82-7.37,5.1-8.49,10.88-10.13,5.48-1.56,11.93-2.25,16.74.8s10.41,9.78,15,12.79a53.33,53.33,0,0,0,12.62,6c3,1,7.18,1.76,4.26,4.53A9.51,9.51,0,0,1,116.39,224.7Z"/><path class="cls-4" d="M117.12,224.5a17.12,17.12,0,0,1-7.4.36c-4.31-.76-8.24-2.86-12.21-4.69a34,34,0,0,0-5.94-2.32s-8.14-9.71-3.5-8.12,7.07,3.29,11.19,6a78.69,78.69,0,0,0,12.28,6.48c3,1.28,6.11,2.6,8.79.66A9.37,9.37,0,0,1,117.12,224.5Z"/><path class="cls-2" d="M354.1,211.5l-4.45-48.16-60.49,5.59c-4.57,14.58-1.65,30.86,4.45,48.16Z"/><path class="cls-20" d="M401.28,154.07l-15.92,65.51L309,226.06c-6.56-22.15-9.93-43.29-5.74-62Z"/><path class="cls-2" d="M348.24,251.62l-4.44-48.16-60.48,5.59c-4.58,14.58-1.66,30.86,4.45,48.16Z"/><path class="cls-11" d="M395.42,194.19,379.5,259.7l-76.36,6.48c-6.55-22.15-9.92-43.29-5.73-62Z"/><path class="cls-21" d="M.93,152.11l34.46,9.81c1.53,12.77-3.41,25.78-11.14,39.14L-6.2,192.4Z"/><path class="cls-22" d="M2,146.18l9.52,2.71a14.63,14.63,0,0,1,10.45,16.45,110.11,110.11,0,0,1-8,25.68A14.65,14.65,0,0,1-3.3,199.35l-3.9-1.06Z"/><path class="cls-22" d="M-5.06,179.83l32.73,9.31c1.53,12.77-3.41,25.78-11.14,39.14l-28.73-8.16Z"/><path class="cls-12" d="M-4,173.9l7.81,2.21a14.65,14.65,0,0,1,10.45,16.45,109.49,109.49,0,0,1-8,25.68A14.64,14.64,0,0,1-11,226.57L-13.2,226Z"/></g></svg>