<svg id="Layer_1" data-name="Layer 1" xmlns="http://www.w3.org/2000/svg" viewBox="0 0 540.79 457.21"><defs><style>.cls-1{fill:#fafafa;}.cls-2{fill:#455a64;}.cls-3{fill:#263238;}.cls-4{fill:#ad6d68;}.cls-5{fill:#824e4b;}.cls-6{fill:#ff725e;}.cls-7{fill:#fff;}.cls-8{fill:#333;}</style></defs><polygon class="cls-1" points="193.53 457.21 192.85 451.22 182.44 357.4 212.7 272.68 213.78 269.65 223.84 241.47 233.33 240.72 277.19 237.3 294.07 235.98 298.34 235.65 301.63 238.02 301.78 238.13 321.4 252.28 322.27 252.91 327.11 256.39 325.7 269.82 325.2 274.54 319.06 333.07 314.88 372.89 314.86 373.22 314.81 373.6 313.61 385.16 312.94 391.49 311.46 405.61 310.94 410.62 309.86 420.9 309.72 422.24 309.67 422.65 309.35 425.78 309.31 426.07 309.15 427.67 309.12 427.88 309.17 428.08 312.04 438.16 315.73 451.22 317.43 457.21 193.53 457.21"/><path class="cls-2" d="M259.38,457.21H85.15c.38-1.86.83-3.86,1.32-6,11.35-47.73,53.1-157.55,62.6-168.41,11.41-13.05,65.31-38.28,65.31-38.28l1.05-1.73s0-.05,0-.05l1.93-3.12c3.25-5.3,8.14-16,14.35-16l.9,7.44.68,9.63.46,6.56c1.44,8.4,7.75,47,14.84,67a176.56,176.56,0,0,1,10.13,57.3c.19,20.67.44,49.67.6,79.6C259.37,453.22,259.37,455.21,259.38,457.21Z"/><path class="cls-2" d="M457,457.21H295c-.24-1.83-.48-3.83-.68-6-.63-6.64-1-14.67-1.19-23.46Q293,424.42,293,421c0-1.76,0-3.54,0-5.34,0-.4,0-.78,0-1.18,0-3.38,0-6.82,0-10.28q0-3.22.06-6.49c.06-4.24.15-8.5.25-12.72v0c.28-13,.74-25.56,1.19-36q.25-6,.89-12a186.52,186.52,0,0,1,8-37.85c5-15.59,1.59-39.32.69-45.28a24.1,24.1,0,0,0-2.28-6.83v0a41.33,41.33,0,0,0-3.8-6.15,57.89,57.89,0,0,0-3.86-4.75c-1.88-2.07-3.25-3.33-3.25-3.33l1.19-1.56,4.37-5.74,4.81,2.12a32.45,32.45,0,0,1,5.88,2.39h0c5.94,3.1,11.74,8.23,13.27,14.07L371.14,263s21.54,6.79,31.65,35.44c11.5,32.67,48.68,137.15,48.68,137.15a66.36,66.36,0,0,1,4.71,15.65C456.51,453.1,456.78,455.12,457,457.21Z"/><path class="cls-3" d="M214.11,267.85c0,.22-3.62,1.2-9.43,3.12a176,176,0,0,0-42.87,20.85c-5.1,3.39-8.15,5.67-8.29,5.49s.64-.73,1.95-1.84,3.27-2.67,5.77-4.48a141.46,141.46,0,0,1,43.14-21c3-.84,5.38-1.44,7.08-1.77A9.59,9.59,0,0,1,214.11,267.85Z"/><path class="cls-3" d="M374.81,290.11c-.13.17-2.37-1.48-6.06-4s-8.88-5.89-14.85-9.18-11.6-5.84-15.72-7.59-6.71-2.76-6.65-3,2.77.5,7,2a117.27,117.27,0,0,1,30.79,16.9C372.91,288,374.93,290,374.81,290.11Z"/><path class="cls-3" d="M156.82,324.29c-.39.08-2.4-7.8-4.5-17.61s-3.49-17.83-3.11-17.91,2.4,7.8,4.5,17.61S157.2,324.21,156.82,324.29Z"/><path class="cls-3" d="M387.61,284.87c.32.31-5.32,5.94-10,14.43s-6.62,16.2-7,16.08c-.17,0,.07-2,.94-5.14a55.56,55.56,0,0,1,12.24-21.88C385.91,286,387.48,284.74,387.61,284.87Z"/><path class="cls-3" d="M430.53,436.23a23.13,23.13,0,0,1-2.87-3c-.88-1-2-2.2-3.29-3.53s-2.75-2.94-4.49-4.54a151.73,151.73,0,0,0-12.53-10.91A147.88,147.88,0,0,0,372.26,394a150.85,150.85,0,0,0-15.69-5.42c-2.26-.72-4.36-1.17-6.18-1.64s-3.4-.83-4.7-1.09a24.09,24.09,0,0,1-4-1,22.44,22.44,0,0,1,4.11.46c1.32.18,2.93.44,4.78.85s4,.79,6.26,1.44a135.54,135.54,0,0,1,15.92,5.19,138.28,138.28,0,0,1,35.41,20.49,135.71,135.71,0,0,1,12.43,11.22c1.71,1.66,3.1,3.32,4.37,4.72s2.31,2.66,3.12,3.71A23.68,23.68,0,0,1,430.53,436.23Z"/><path class="cls-3" d="M366.68,337.25c.39-.05,2.19,12.5,4,28s3,28.14,2.59,28.18-2.18-12.49-4-28S366.29,337.29,366.68,337.25Z"/><path class="cls-3" d="M340.94,451.22c.36,2,.71,4,1.19,6H340.7c-.47-2.06-.79-4.06-1.13-6-.16-1-.32-1.9-.51-2.82-1.09-5.82-3.19-10.85-6.32-14a28.32,28.32,0,0,0-8.55-6.08l-.64-.28-.82-.34a9.62,9.62,0,0,1-2.11-1,16.71,16.71,0,0,1,3.47,1l.32.11a26.57,26.57,0,0,1,9.07,5.91c3.37,3.24,5.7,8.54,6.86,14.46.09.39.18.8.25,1.21C340.72,450,340.83,450.58,340.94,451.22Z"/><path class="cls-3" d="M156.12,441.69a175.51,175.51,0,0,1-.61-20.08q.56-9.62,1.08-18.38c.71-11.6,1.34-22,1.88-30.63s1-15.41,1.34-20.3c.17-2.29.32-4.1.42-5.45a9.4,9.4,0,0,1,.24-1.89,12.55,12.55,0,0,1,0,1.9c-.05,1.36-.11,3.18-.19,5.46-.22,4.9-.54,11.79-.93,20.33s-1,19-1.56,30.65c-.31,5.83-.63,12-1,18.38a174.44,174.44,0,0,0,.66,19.71c2,3.07,4,6.19,6.15,9.28.12.19.24.36.38.55,1,1.39,2,2.78,3,4.08l1.59,1.91h-1.85c-.28-.33-.56-.68-.85-1-1.24-1.54-2.36-3.13-3.46-4.72l-.18-.26c-1.93-2.81-3.77-5.62-5.55-8.4-.06-.09-.11-.19-.17-.27s-.24-.36-.35-.55l-.1-.15Z"/><path class="cls-3" d="M156.74,443.14c-.05.24-1.94-.17-5-.23a31.25,31.25,0,0,0-21.65,8.2c-2.24,2.07-3.38,3.62-3.58,3.48s.73-1.86,2.87-4.19a27.69,27.69,0,0,1,22.42-8.49C155,442.23,156.79,443,156.74,443.14Z"/><path d="M156.85,442.82h-.66c-.91,0-1.85.08-2.77.15h0a45.55,45.55,0,0,0-22.28,8.24,42.53,42.53,0,0,0-4.67,3.82c-.76.72-1.5,1.47-2.3,2.17H113.86c-.67-1.8-.2-4.07.66-6q.17-.39.36-.75a27.4,27.4,0,0,1,40.71-9.38c-.38-.22-.76-.44-1.13-.67l2.12,2.13Z"/><path d="M342.8,457.21H331.87a54.61,54.61,0,0,0-1.16-6c-1.17-4.61-3.16-8.77-7.17-11.11-3.43-2-7.45-2.06-11.5-1.95-1.86.07-3.75.15-5.58.12-.26,0-.52,0-.78,0l-.93-.15c-4.84-1-10-5.64-11.16-10.37a8.68,8.68,0,0,1-.24-1.56c2.81-.16,5.44-.28,7.9-.34h0c2.68-.09,5.16-.1,7.46,0h.63l.57,0c.46,0,.93,0,1.38.06h0a45,45,0,0,1,11.19,1.79h0c.36.11.7.22,1,.34,6.14,2.2,10.32,6.21,13.74,13a57.17,57.17,0,0,1,3.3,8.32c.2.62.39,1.24.57,1.87C341.75,453.19,342.28,455.2,342.8,457.21Z"/><path class="cls-3" d="M297.32,457a12.2,12.2,0,0,1,.77-2.09l2.48-5.84c1.19-2.49,2.19-5.73,3.58-9.38s2.7-7.92,4.19-12.62c5.9-18.8,11.75-45.49,15.38-75.35,3.39-29.88,3.82-57.25,1.52-76.82-.61-4.88-1-9.33-1.87-13.14s-1.18-7.2-2.07-9.81c-.7-2.53-1.27-4.57-1.69-6.11a11.1,11.1,0,0,1-.49-2.18,12.07,12.07,0,0,1,.79,2.07l2,6.06c1,2.6,1.45,6,2.35,9.8s1.42,8.28,2.12,13.18c2.59,19.65,2.34,47.15-1.06,77.14-3.65,30-9.69,56.71-15.89,75.5-1.56,4.69-2.91,9-4.43,12.59s-2.57,6.85-3.84,9.31-2.06,4.29-2.76,5.74A11.56,11.56,0,0,1,297.32,457Z"/><path class="cls-4" d="M335.71,393.42a44.93,44.93,0,0,1-3.14-16.32c0-3.35-.1-6.82-1.23-10s-4.7-6.11-8-5.32l-1.17,24.67Z"/><path class="cls-3" d="M324.57,336.68l-4,85.08a3.65,3.65,0,0,1-3.29,3.48l-43.13,4.49a3.68,3.68,0,0,1-4.06-3.72l1.47-82.24a3.66,3.66,0,0,1,3.09-3.56l45.7-7.33A3.67,3.67,0,0,1,324.57,336.68Z"/><path class="cls-1" d="M294.61,354a2.84,2.84,0,0,1,5.48-.28,3.22,3.22,0,0,1-1.1,3.12,2.92,2.92,0,0,1-3.27.2A2.68,2.68,0,0,1,294.61,354Z"/><path class="cls-4" d="M305.78,370.41c1,.09,24.75,7.94,24.75,7.94l13.37,10.27s5.24,6.34,3.62,17.77S341,422.53,328.9,427.66H304.45l-13.63-8a7.59,7.59,0,0,1-3.67-7.69l.08-.54-1.73-2.06a4.2,4.2,0,0,1-.52-4.62h0a4.2,4.2,0,0,1,5.65-1.81l15.17,7.79,9.54-.25.92-3.29-14.83-4.94-19.58-10.73a5.19,5.19,0,0,1-1.94-7.24h0a5.19,5.19,0,0,1,6.33-2.14l17.7,7L322,393.9l-3.73-6.29L296.1,376S293.42,369.25,305.78,370.41Z"/><path class="cls-5" d="M343.9,388.62c-.23.3-6.33-4-13.8-9.7l.21.11-.9-.3c-9.36-3.05-16.84-5.83-16.71-6.2s7.8,1.8,17.15,4.85l.9.3.12,0,.09.07C338.41,383.53,344.14,388.32,343.9,388.62Z"/><path class="cls-5" d="M321.81,419.18c.05.17-1.83,1-5,2s-8.1,1.92-13.11,0a49.27,49.27,0,0,1-6.5-3.16l-5.09-2.84c-2.87-1.66-4.61-2.77-4.52-2.94s2,.62,5,2.05l5.23,2.57a63.17,63.17,0,0,0,6.38,3c4.6,1.79,9.2,1,12.38.38S321.75,419,321.81,419.18Z"/><path class="cls-3" d="M257.69,454.6a11,11,0,0,1-1-2l-2.58-5.82c-2.17-5.08-5.23-12.48-8.72-21.74a594,594,0,0,1-22.71-73.84A421.77,421.77,0,0,1,215,309.33c-.69-6.52-1.52-12.69-1.75-18.51-.17-2.9-.33-5.71-.49-8.41s0-5.3-.05-7.78c-.14-4.95.17-9.43.43-13.35.12-2,.23-3.78.34-5.47s.43-3.2.61-4.57c.38-2.62.69-4.71.93-6.31a11,11,0,0,1,.43-2.18,12.43,12.43,0,0,1-.12,2.23c-.16,1.6-.37,3.7-.63,6.33-.14,1.38-.3,2.91-.47,4.56s-.13,3.51-.21,5.46c-.17,3.91-.4,8.36-.19,13.29q.08,3.7.15,7.74c.19,2.69.38,5.48.59,8.37.28,5.79,1.15,11.93,1.88,18.41,1.84,12.91,4.22,27.06,7.76,41.71a661.42,661.42,0,0,0,22.21,73.81c3.35,9.29,6.24,16.74,8.24,21.9,1,2.46,1.72,4.43,2.3,5.93A12.2,12.2,0,0,1,257.69,454.6Z"/><path class="cls-3" d="M310.5,45.76a13.18,13.18,0,0,0,2.66-20.7c-2.22-2.22-5.18-3.6-7.25-6-1.72-2-2.69-4.43-4-6.67C297.64,5.26,289.53.74,281.22.09S264.5,2.41,257.9,7.52c-2.62,2-5.11,4.44-8.29,5.35s-6.38.21-9.59.23a22.25,22.25,0,0,0-18.81,11.07A22.28,22.28,0,0,0,221.39,46,19.41,19.41,0,0,0,209.5,67.06a19.42,19.42,0,0,0,18.73,15.32c5.42-.08,10.49-2.47,15.44-4.67a285.73,285.73,0,0,1,62.64-19.58Z"/><path class="cls-6" d="M223.9,180.21a67.16,67.16,0,0,1-17.14-42.56c-.49-15.6,2.12-35.06,11.85-47.27-6.69-7.34-3.85-15.43,1-24.08s13.49-14.56,22.42-18.91a106.91,106.91,0,0,1,42.72-10.65c12.05-.43,28.1,1.69,29.68,10.38,1.65,9.06-4.25,13.08-4.25,13.08a59.54,59.54,0,0,1,22.33,13.54c15,14.51,20.75,29.12,18.66,45.36s-5.67,28.88-15.47,39.13Z"/><path class="cls-2" d="M326,177.3a15,15,0,0,1,6.11-3.67l-.46,0a8.12,8.12,0,0,1,1.29-.16,5.89,5.89,0,0,1,4.62.76h0a11.05,11.05,0,0,1,5.8,5.48A13,13,0,0,1,341.22,193c-2.63,3.17-7,5.15-11,4-3.65-1-6.24-4.49-7.14-8.17A12.36,12.36,0,0,1,326,177.3Z"/><path class="cls-4" d="M233.79,247.3l-9.63-139.24a12.15,12.15,0,0,1,11-12.18l64.63-15.5c20.66-1.93,34.07,23.64,35.12,44.36,1.18,23,1.7,51.19-1.24,68.32-5.9,34.45-32.11,38.47-32.11,38.47s.23,20.79.23,20.79L278,317.08h0Z"/><path class="cls-3" d="M322.78,153.46a4.43,4.43,0,0,1-4.32,4.42,4.24,4.24,0,0,1-4.52-4,4.43,4.43,0,0,1,4.32-4.42A4.24,4.24,0,0,1,322.78,153.46Z"/><path class="cls-3" d="M328.64,139.31c-.55.57-3.88-1.95-8.64-2s-8.29,2.29-8.8,1.7c-.25-.26.33-1.3,1.86-2.39a12.25,12.25,0,0,1,7.05-2.08,11.67,11.67,0,0,1,6.87,2.32C328.43,138,328.92,139.06,328.64,139.31Z"/><path class="cls-3" d="M278.16,153.46a4.42,4.42,0,0,1-4.32,4.42,4.24,4.24,0,0,1-4.52-4,4.44,4.44,0,0,1,4.32-4.42A4.24,4.24,0,0,1,278.16,153.46Z"/><path class="cls-3" d="M281.81,139.63c-.56.57-3.89-1.95-8.65-2s-8.28,2.29-8.79,1.7c-.25-.26.31-1.29,1.86-2.39a12.16,12.16,0,0,1,7-2.07,11.66,11.66,0,0,1,6.88,2.31C281.59,138.33,282.08,139.38,281.81,139.63Z"/><path class="cls-3" d="M298.67,175.17c0-.27,2.94-.75,7.75-1.3,1.22-.11,2.37-.34,2.59-1.17s-.2-2.19-.77-3.61l-3.49-9.31c-4.83-13.25-8.32-24.14-7.78-24.33s4.89,10.4,9.72,23.65q1.76,4.89,3.34,9.36c.44,1.38,1.21,3,.57,4.78a3.06,3.06,0,0,1-2,1.75,7.8,7.8,0,0,1-2.07.26C301.68,175.46,298.68,175.44,298.67,175.17Z"/><path class="cls-5" d="M301.76,231.58a87.74,87.74,0,0,1-46.07-12.89s11.52,24.64,46.11,21.83Z"/><path class="cls-5" d="M297.82,186.49a11.71,11.71,0,0,0-9.58-5.24,7.64,7.64,0,0,0-6.31,3.34,7,7,0,0,0,7.71,10.57c2.7-.62,4.94-2.43,7.07-4.25a5.44,5.44,0,0,0,1.53-1.77,2.44,2.44,0,0,0-.16-2.42Z"/><path class="cls-3" d="M284.61,178.29c.77,0,.72,5.14,5.1,8.86s9.89,3.23,9.92,3.95c.07.32-1.24,1-3.56,1a12.86,12.86,0,0,1-8.29-3,11.22,11.22,0,0,1-3.95-7.42C283.66,179.54,284.25,178.26,284.61,178.29Z"/><path class="cls-3" d="M283.88,126.74c-.49,1.29-5.24.62-10.83,1.22s-10.14,2.08-10.87.91c-.32-.56.48-1.77,2.32-3A19,19,0,0,1,281,124.24C283.07,125.1,284.09,126.13,283.88,126.74Z"/><path class="cls-3" d="M327.06,125.5c-.85,1.08-4.12-.09-8.07-.19s-7.29.64-8.05-.5c-.33-.55.21-1.63,1.68-2.64a11.7,11.7,0,0,1,13,.56C327,123.86,327.43,125,327.06,125.5Z"/><path class="cls-6" d="M304.3,90.29s-32.38-1.09-57.59,35c-16.61,23.79-20.59,54-20.59,54l-11.41-57.81,9.88-26.07L247.2,83.16l42.52-1.59,15.87,8.25Z"/><path class="cls-6" d="M240.78,92.09c51.82-11.44,92.74,6.42,99.54,47l11-26.42L325.09,79.85l-29.22-8.2-59.33,7.87Z"/><path class="cls-2" d="M218.31,175.38a16.16,16.16,0,0,1,6.57-3.95l-.49-.05a9.13,9.13,0,0,1,1.38-.17,6.31,6.31,0,0,1,5,.82h0a11.87,11.87,0,0,1,6.24,5.9,14,14,0,0,1-2.24,14.37c-2.83,3.42-7.55,5.54-11.82,4.32-3.92-1.12-6.71-4.83-7.67-8.8C214.15,183.48,215.14,178.53,218.31,175.38Z"/><path class="cls-7" d="M230.86,157.19a5.12,5.12,0,0,1-2.28-.88,13.38,13.38,0,0,1-6-14.66c.46-1.83,1.18-3.63,1.52-5.49a5.63,5.63,0,0,0-1.28-5.15c-1.31-1.41-3.21-2.25-5-3.24a14.63,14.63,0,0,1-4.64-3.74,16.29,16.29,0,0,1-3.55-9.29,14.39,14.39,0,0,1,1.12-6.59,5.48,5.48,0,0,1,1.29-2.07c.31.09-1.93,3.12-1.42,8.58a15.93,15.93,0,0,0,3.55,8.54,13.88,13.88,0,0,0,4.31,3.36c1.71,1,3.72,1.78,5.34,3.49a7,7,0,0,1,1.6,6.35c-.4,2.07-1.16,3.86-1.62,5.58a12.44,12.44,0,0,0,.95,9,13.89,13.89,0,0,0,4.07,4.83A20.81,20.81,0,0,1,230.86,157.19Z"/><path class="cls-7" d="M223.19,86.8c.29.1-1.77,2.9-1.7,8a16.26,16.26,0,0,0,2.47,8.36c1.69,2.87,4.89,4.84,8.08,7.33a14.46,14.46,0,0,1,4,4.54,10,10,0,0,1,1,5.61c-.35,3.56-1.49,6.48-1.33,9a8,8,0,0,0,2,5.4c1,1,1.84,1.11,1.79,1.25s-.21,0-.61,0a4.07,4.07,0,0,1-1.55-.8,8.1,8.1,0,0,1-2.59-5.74c-.3-2.78.79-5.84,1-9.14a8.77,8.77,0,0,0-.91-4.88,13.59,13.59,0,0,0-3.66-4.07c-3-2.37-6.48-4.54-8.29-7.74a16.54,16.54,0,0,1-2.36-9,15,15,0,0,1,1.42-6.12A5,5,0,0,1,223.19,86.8Z"/><path class="cls-7" d="M259,112c.06,0-.4.53-1.41.3a2.84,2.84,0,0,1-1.47-1,3.56,3.56,0,0,1-.74-2.23c-.06-1.75,1-3.55,1.06-5.36s-1.39-3.42-3.4-4.48a14.51,14.51,0,0,1-5.51-4.17,12.08,12.08,0,0,1-2.22-5.25c-.49-3.26.5-5.17.61-5.1s-.33,2,.36,4.91a12.15,12.15,0,0,0,2.27,4.64,14.38,14.38,0,0,0,5.18,3.74,9.56,9.56,0,0,1,2.9,2.32,4.84,4.84,0,0,1,1.11,3.47c-.28,2.31-1.33,3.86-1.36,5.3a2.57,2.57,0,0,0,1.39,2.66C258.5,112.13,259,111.91,259,112Z"/><path class="cls-7" d="M269.39,84.13c0-.07.35-.08.73.28a2.52,2.52,0,0,1,.58,2,13.41,13.41,0,0,1-.89,2.66,5.61,5.61,0,0,0-.08,2.92,12.06,12.06,0,0,0,2.79,4.93c1,1.17,1.61,1.93,1.47,2.08s-1-.35-2.18-1.38a10.15,10.15,0,0,1-3.45-5.32,6.22,6.22,0,0,1,.23-3.67c.45-1.05,1-1.76,1.13-2.4A2.81,2.81,0,0,0,269.39,84.13Z"/><path class="cls-7" d="M321.34,66.26c.08,0-.1.56-.58,1.39s-1.31,1.94-2.07,3.38a7.14,7.14,0,0,0-.52,5.36c.46,2.07,1.56,4.45,1.51,7.25a13,13,0,0,1-2.26,7.21,12.31,12.31,0,0,1-4.66,4c-3.2,1.55-5.49,1.2-5.45,1.07s2.15-.29,5-1.95a12.09,12.09,0,0,0,6-10.38c.06-2.44-.91-4.68-1.37-7a8,8,0,0,1,.92-6.12,26.49,26.49,0,0,1,2.49-3.21C320.92,66.62,321.26,66.21,321.34,66.26Z"/><path class="cls-7" d="M345.46,90.86c.2.24-1.56,1-2.24,3.54-.33,1.31-1,2.88-1.51,4.53a31.58,31.58,0,0,1-2,5.64,11.14,11.14,0,0,1-9.19,5.7c-2.9.12-4.48-.9-4.4-1s1.7.38,4.3,0a10.84,10.84,0,0,0,8-5.38,37.91,37.91,0,0,0,2-5.38c.63-1.78,1.34-3.15,1.81-4.46a5.46,5.46,0,0,1,2-2.7C345,90.92,345.41,90.79,345.46,90.86Z"/><path class="cls-7" d="M349.47,125.5c.16.07,0,.88-.72,2a7.4,7.4,0,0,1-9.19,2.24c-1.16-.6-1.65-1.26-1.54-1.4.19-.34,2.84,1.4,6.21.57S349.15,125.28,349.47,125.5Z"/><path class="cls-7" d="M290.77,60.54c.13.22-1.46,1-2.94,3.26a10.56,10.56,0,0,0-1.07,9.75c.78,1.81,2,3.79,1.84,5.92a8.22,8.22,0,0,1-2,4.76c-1.88,2.21-3.5,3-3.58,2.88s1.24-1.27,2.78-3.48a7.88,7.88,0,0,0,1.5-4.2c.08-1.66-.95-3.3-1.85-5.33a10.48,10.48,0,0,1-.58-6.26A11.25,11.25,0,0,1,287,63.21C288.88,60.91,290.74,60.41,290.77,60.54Z"/><path class="cls-7" d="M257.81,84.8c-.39-.16.73-3.21.82-7.12s-.79-7-.4-7.16,1.95,3,1.81,7.2S258.12,85,257.81,84.8Z"/><path class="cls-7" d="M233.89,81.05c-.06-.1.31-.36.62-1a5.11,5.11,0,0,0,.32-3.09c-.44-2.69-3.08-5.75-5.28-9.65a16.19,16.19,0,0,1-2-6.09,9.16,9.16,0,0,1,.91-5.22,5.6,5.6,0,0,1,2.5-2.58c.81-.34,1.31-.24,1.31-.17s-.42.22-1,.65a5.84,5.84,0,0,0-1.87,2.52c-1.16,2.49-.68,6.51,1.44,10.22s4.74,7,5,10.19a5,5,0,0,1-.84,3.5C234.45,81,233.92,81.12,233.89,81.05Z"/><path class="cls-7" d="M267,66.12c-.06-.08.22-.45.76-1.05a5.09,5.09,0,0,0,1.56-2.65c0-1.12-1-2.66-2.23-4s-2.91-2.64-4.57-4.18S259.28,51,259,48.71a9,9,0,0,1,1.38-5.2c1.53-2.57,2.8-3.86,2.94-3.77s-.82,1.66-2.05,4.22a8.71,8.71,0,0,0-1,4.59c.23,1.61,1.7,3.21,3.24,4.68,3.16,2.86,6.81,5.65,6.83,9.29a4.94,4.94,0,0,1-2.18,3C267.49,66,267.1,66.19,267,66.12Z"/><path class="cls-7" d="M299.11,61c-.12-.18,1.43-.82,1.92-3.07a6.43,6.43,0,0,0-.4-3.83,27.89,27.89,0,0,0-2.45-4.44,13.43,13.43,0,0,1-2.05-5,6.78,6.78,0,0,1,1.06-4.43c1.3-2.3,3.19-2.7,3.17-2.45a8.59,8.59,0,0,0-2.3,2.92,6.29,6.29,0,0,0-.65,3.76,13.83,13.83,0,0,0,2,4.51,24,24,0,0,1,2.47,4.73,7,7,0,0,1,.13,4.54,4.54,4.54,0,0,1-1.81,2.47C299.55,61.1,299.14,61.12,299.11,61Z"/><path class="cls-3" d="M310.21,60.2a22.69,22.69,0,0,1-3.95.09c-2.53-.08-6.19,0-10.7.2a117.49,117.49,0,0,0-34.35,7.2C248.32,72.56,237.53,79,229.87,83.8l-9,5.8a22.07,22.07,0,0,1-3.38,2,20.72,20.72,0,0,1,3.07-2.48c2-1.53,5-3.66,8.79-6.19a157.45,157.45,0,0,1,31.39-16.59,109,109,0,0,1,34.8-6.87,103.79,103.79,0,0,1,10.76.24A20.54,20.54,0,0,1,310.21,60.2Z"/><path class="cls-3" d="M228.18,90.5a1.17,1.17,0,0,0,.35-.11l1-.39,1.56-.65,2.18-.79a63.69,63.69,0,0,1,14.37-3.17,88.92,88.92,0,0,1,21.81.52c4.07.55,8.32,1.41,12.7,2.39S291,90.47,295.5,92c18.21,5.65,32.11,17.45,38.27,28.21a49.84,49.84,0,0,1,5.42,13.64c.42,1.69.67,3,.83,3.92.08.41.15.75.2,1a1.39,1.39,0,0,0,.1.35,1.24,1.24,0,0,0,0-.36c0-.28-.07-.63-.12-1-.11-.92-.31-2.26-.69-4a47.82,47.82,0,0,0-5.23-13.86c-6.11-11-20.14-23-38.51-28.69-4.54-1.5-9.07-2.66-13.46-3.66s-8.66-1.82-12.77-2.36a86.51,86.51,0,0,0-22-.34,59.63,59.63,0,0,0-14.41,3.44l-2.17.86-1.54.73-.94.46A1.73,1.73,0,0,0,228.18,90.5Z"/><path class="cls-3" d="M295.68,91.86a5.6,5.6,0,0,0-1.12,0,30.87,30.87,0,0,0-3.2.35,45.8,45.8,0,0,0-11.3,3.54c-9.12,4.12-20.59,12.56-29.82,24.8A125.52,125.52,0,0,0,239,138.88a151.73,151.73,0,0,0-7.29,16,78.6,78.6,0,0,0-3.51,11.3c-.3,1.37-.5,2.43-.6,3.16a6.24,6.24,0,0,0-.12,1.12,5.15,5.15,0,0,0,.28-1.09c.15-.72.4-1.77.74-3.12a93.17,93.17,0,0,1,3.74-11.17,165.33,165.33,0,0,1,7.42-15.82,128.89,128.89,0,0,1,11.25-18.17c9.15-12.13,20.45-20.56,29.42-24.77a49,49,0,0,1,11.11-3.75c1.37-.25,2.44-.43,3.16-.5A6.74,6.74,0,0,0,295.68,91.86Z"/><path class="cls-3" d="M271.13,439.13c-.09.18,1.67.37,2.76,2.51a4.57,4.57,0,0,1,.2,3.8,4.23,4.23,0,0,1-7.51-.35,4.54,4.54,0,0,1,.55-3.76c1.28-2,3.06-2.06,3-2.25s-.4-.15-1.12,0a4.59,4.59,0,0,0-2.5,1.78,5.17,5.17,0,0,0-.87,4.52,5.17,5.17,0,0,0,9.4.43,5.19,5.19,0,0,0-.45-4.58,4.71,4.71,0,0,0-2.33-2C271.55,439,271.13,439.08,271.13,439.13Z"/><rect class="cls-8" y="451.22" width="540.79" height="6"/></svg>