<svg id="Layer_1" data-name="Layer 1" xmlns="http://www.w3.org/2000/svg" viewBox="0 0 783.27 437.31"><defs><style>.cls-1{fill:#2e3552;}.cls-2{fill:#a5695f;}.cls-3{fill:#263238;}.cls-4{fill:#83534b;}.cls-5{fill:#455a64;}.cls-6{fill:#cadaf6;}.cls-7{fill:#cc4252;}.cls-8{fill:#e8505b;}.cls-9{fill:#ba3545;}.cls-10{fill:#fff;}.cls-11{fill:#e2ebfa;}.cls-12{fill:#b1c9f2;}</style></defs><rect class="cls-1" y="377.73" width="783.27" height="1.96" rx="0.98"/><path class="cls-2" d="M565.75,298s12.91-16.88,19-17.55,44,.67,49.39,0,35.38-13.35,35.38-13.35,5.34,1.8,4.67,6.57-34,22.8-38,23.47-36,3-36,3L592,314.67Z"/><path class="cls-3" d="M455.17,85.29A20.22,20.22,0,0,0,458.4,50.2L435,42.33Q429.89,87.69,424.19,133c6.3-.33,12.82-1.37,18-5s8.6-10.35,6.67-16.35a16,16,0,0,0,6.32-26.37Z"/><path class="cls-2" d="M340.29,67.55l.88-10.76L407,51.1c20.11-.08,39.6,22.07,38.82,42.16-.87,22.34-2.81,49.57-7.13,65.85C430,191.87,404,193.5,404,193.5l-2.33,33c-1.74,19.24-18.35,21.82-37.59,20.1h0a35,35,0,0,1-31.82-36.83Z"/><path class="cls-3" d="M435.36,117a4.3,4.3,0,0,1-4.56,3.89,4.11,4.11,0,0,1-4-4.3,4.3,4.3,0,0,1,4.55-3.89A4.11,4.11,0,0,1,435.36,117Z"/><path class="cls-3" d="M437.3,106.69c-.58.5-3.57-2.22-8.17-2.68s-8.2,1.5-8.64.88c-.22-.27.43-1.22,2-2.14a11.81,11.81,0,0,1,7-1.4,11.3,11.3,0,0,1,6.43,2.83C437.21,105.41,437.59,106.47,437.3,106.69Z"/><path class="cls-3" d="M392.44,114.25a4.3,4.3,0,0,1-4.56,3.89,4.11,4.11,0,0,1-4-4.3,4.28,4.28,0,0,1,4.56-3.89A4.11,4.11,0,0,1,392.44,114.25Z"/><path class="cls-3" d="M397.55,102.94c-.59.5-3.58-2.23-8.18-2.68s-8.19,1.49-8.63.88c-.22-.27.41-1.22,2-2.14a11.76,11.76,0,0,1,7-1.4,11.3,11.3,0,0,1,6.43,2.83C397.45,101.66,397.83,102.71,397.55,102.94Z"/><path class="cls-3" d="M405.25,138.71c0-.26,2.91-.47,7.6-.59,1.19,0,2.32-.12,2.6-.9s0-2.13-.43-3.55c-.81-3-1.66-6-2.56-9.29-3.52-13.21-5.94-24-5.4-24.16s3.82,10.46,7.34,23.67c.83,3.25,1.64,6.35,2.4,9.32.31,1.38.92,3,.14,4.67a3,3,0,0,1-2.1,1.52,7.86,7.86,0,0,1-2,.07C408.13,139.25,405.24,139,405.25,138.71Z"/><path class="cls-4" d="M404,193.58s-23.67-1-44.5-16.63c0,0,8.87,24.46,43.64,24.93Z"/><path class="cls-3" d="M384.22,88.82c.31-1.3,5-1.22,10.27-2.46s9.51-3.2,10.35-2.16c.38.5-.25,1.76-1.87,3.16a18.4,18.4,0,0,1-15.71,3.52C385.19,90.3,384.09,89.43,384.22,88.82Z"/><path class="cls-3" d="M419.65,85.71c1.11-.72,3.75,1.37,7.34,2.69s6.9,1.69,7.23,3c.13.61-.7,1.43-2.36,1.89a11.35,11.35,0,0,1-11.75-4.56C419.2,87.24,419.14,86.07,419.65,85.71Z"/><path class="cls-3" d="M460.51,64.65c7.16-3.85,11.25-12.47,10.23-20.53s-6.83-15.2-14.33-18.34a24.44,24.44,0,0,0-4.73-1.39,21.47,21.47,0,0,0-10-4c-.07-4.34-3.57-8.06-7.62-9.61s-8.56-1.34-12.86-.81a21.82,21.82,0,0,0-35.13-2,17.87,17.87,0,0,0-27.43,8.26,17.76,17.76,0,0,0-13.3,4.67A17.34,17.34,0,0,0,342,25.12a17.08,17.08,0,0,0-3.83,6.26,20.62,20.62,0,0,0-18.76,13.31,20.62,20.62,0,0,0,6,22.2,18.38,18.38,0,0,0,1,29.44,23.52,23.52,0,0,0-.07,18.51c1.08,2.51,2.88,5,5.3,6a4.24,4.24,0,0,0,.39,1.3c1.66,3.32,6.71,2.47,9.83.46,7.61-4.87,12.28-13.26,15.18-21.82s4.3-17.56,7.11-26.14c.06-.2.13-.4.2-.61a24.49,24.49,0,0,1,5.79-9.48,64.35,64.35,0,0,0,7.46,5.94,26.66,26.66,0,0,0,31.46-3,39.11,39.11,0,0,0,23.81,11.55c8.95.93,18,.16,25.45-4.88a12.54,12.54,0,0,0,4.47-5.2C463.45,67.48,462.08,65.31,460.51,64.65Z"/><path class="cls-2" d="M341.16,112.12c-.42-.28-17.18-8.67-19.89,9.49s16.09,17.14,16.2,16.62S341.16,112.12,341.16,112.12Z"/><path class="cls-4" d="M333,130.52c-.07-.07-.35.18-.92.34a3.2,3.2,0,0,1-2.38-.3c-1.81-1-3-4.28-2.57-7.57a10.59,10.59,0,0,1,1.56-4.4,3.71,3.71,0,0,1,2.74-2.07,1.62,1.62,0,0,1,1.74,1.15c.17.54,0,.89.09.93s.44-.24.4-1a2,2,0,0,0-.54-1.24,2.45,2.45,0,0,0-1.68-.73c-1.42-.11-2.87,1-3.73,2.33a10.84,10.84,0,0,0-1.85,4.9c-.43,3.68.93,7.38,3.44,8.53a3.4,3.4,0,0,0,3-.05C332.85,131,333,130.57,333,130.52Z"/><path class="cls-5" d="M470.13,41a1.69,1.69,0,0,1,.11.45,11.14,11.14,0,0,1,.16,1.35,13.54,13.54,0,0,1-.7,5.14A13.78,13.78,0,0,1,465,54.58a14.45,14.45,0,0,1-10.2,2.9l.36-.24a31.56,31.56,0,0,1-9.42,15A24.36,24.36,0,0,1,437,77.3a20.15,20.15,0,0,1-10.66.32,35.69,35.69,0,0,1-9.82-3.74,27.63,27.63,0,0,1-7.82-6.07l.55.07c-5.19,3.81-10.9,6.21-16.28,6.7a26.22,26.22,0,0,1-13.58-2.78,27.13,27.13,0,0,1-7.35-5.36,22.9,22.9,0,0,1-1.6-1.83,3.43,3.43,0,0,1-.49-.68s.76.86,2.28,2.32a28.31,28.31,0,0,0,7.38,5.11,25.91,25.91,0,0,0,13.3,2.54c5.2-.51,10.8-2.9,15.86-6.65l.3-.22.25.29a27.08,27.08,0,0,0,7.59,5.83,35.46,35.46,0,0,0,9.6,3.65,19.42,19.42,0,0,0,10.25-.28,23.61,23.61,0,0,0,8.45-4.92,31.06,31.06,0,0,0,9.29-14.54l.08-.27.28,0a13.93,13.93,0,0,0,9.8-2.67,13.46,13.46,0,0,0,4.65-6.32,14.26,14.26,0,0,0,.86-5C470.19,41.64,470.08,41,470.13,41Z"/><path class="cls-5" d="M340.83,30.68a38.1,38.1,0,0,0-2.39,6,26.17,26.17,0,0,0,.87,16.58l.11.28-.25.17a17,17,0,0,0-5.78,6.79A16.24,16.24,0,0,0,332,70.22a16.92,16.92,0,0,0,6.54,10.66l.31.22-.22.33a21.08,21.08,0,0,0-3.56,11.09,22.77,22.77,0,0,0,1.51,9.17A25.87,25.87,0,0,0,341,108.8s-.17-.11-.44-.38a16,16,0,0,1-1.15-1.2,20.6,20.6,0,0,1-3.22-5.35,22.66,22.66,0,0,1-1.73-9.37A21.6,21.6,0,0,1,338,81l.1.54a17.58,17.58,0,0,1-6.89-11.16,16.89,16.89,0,0,1,1.44-10.16,17.42,17.42,0,0,1,6.1-7.06l-.14.45a26,26,0,0,1-.61-17,24.33,24.33,0,0,1,1.88-4.48c.27-.49.52-.85.67-1.09S340.81,30.67,340.83,30.68Z"/><path class="cls-3" d="M327.88,136.33a14.4,14.4,0,0,0-.79,3.22,4.92,4.92,0,0,0,.91,3.25,4.06,4.06,0,0,0,3.6,1.55,3.36,3.36,0,0,0,2.66-2.7,6.31,6.31,0,0,0-.19-3.46,32.28,32.28,0,0,1-1.15-3.18,8.79,8.79,0,0,1,1.71,3,6.63,6.63,0,0,1,.38,3.82,4.71,4.71,0,0,1-1,2.12,3.68,3.68,0,0,1-2.27,1.23,4.71,4.71,0,0,1-4.33-1.91,5.36,5.36,0,0,1-.88-3.76C326.81,137.29,327.84,136.27,327.88,136.33Z"/><path class="cls-3" d="M389.57,147a7.14,7.14,0,0,1,4.82.54c1.59.78,2.63,2.82,3.08,4.9a8.45,8.45,0,0,1,.13,1.66,9.49,9.49,0,0,1,.64,2.11h0l.37-.11.08-.38a9.25,9.25,0,0,0,0-3.52,10.15,10.15,0,0,0-1.31-3.35,6,6,0,0,0-2.5-2.38,7.86,7.86,0,0,0-5.6-.37c-3,1-4.47,2.27-4.42,2.37S386.71,147.61,389.57,147Z"/><path class="cls-5" d="M154.6,377.17s66.12-118.54,77.12-137.7c12.94-22.54,24.21-30.73,34.36-35.64a79.91,79.91,0,0,1,34.19-7.66l32.79-.24s12.46,18.64,29.36,22.29c23.28,5,40.73-12.25,40.73-12.25l47.1,19.31-9.46,87a128.1,128.1,0,0,1-23.24,60.8l-3.11,4L240.81,377,261,314.39l-37.21,62.78Z"/><path class="cls-5" d="M450.25,225.28s13.68,8,24,41.36,32.56,92.62,32.56,92.62L562.56,296l33.09,21s-53.39,92.68-61.87,103.65c-12.65,16.35-44.6,25.71-63.36,4-13.63-15.81-46.23-92.27-46.23-92.27Z"/><path class="cls-3" d="M430.17,273.59a4.39,4.39,0,0,1,.52,1c.29.67.76,1.65,1.24,3a89.15,89.15,0,0,1,3.55,11.28A99.74,99.74,0,0,1,424,364.2a90.58,90.58,0,0,1-6.73,9.72c-.85,1.1-1.59,1.9-2.07,2.46s-.76.82-.79.79a35.32,35.32,0,0,1,2.48-3.54,113.11,113.11,0,0,0,6.37-9.86A103.28,103.28,0,0,0,434.64,289a113,113,0,0,0-3.15-11.32A36.05,36.05,0,0,1,430.17,273.59Z"/><path class="cls-3" d="M271.74,263a3.83,3.83,0,0,1-.08,1.21c-.12.93-.28,2.06-.47,3.44-.42,3-1.14,7.29-2.11,12.59-1.95,10.61-5.09,25.18-9.46,41.05s-9.13,30-12.89,40.11c-1.87,5-3.46,9.12-4.63,11.9l-1.35,3.19a5.12,5.12,0,0,1-.55,1.09,4.45,4.45,0,0,1,.32-1.18l1.14-3.27,4.27-12c3.54-10.16,8.16-24.3,12.53-40.14s7.62-30.34,9.78-40.89c1-5.15,1.87-9.38,2.49-12.51.28-1.36.51-2.48.69-3.4A4.68,4.68,0,0,1,271.74,263Z"/><path class="cls-2" d="M188.71,377.07s6.31-8.58,9.42-10.21,7.39-1.58,9.27.11l1.89,1.69s9.79-4.41,14.51-1c0,0,9.32-4.41,13.78.64,0,0,7.19-4.67,10.23-.59s2.72,11,1.26,14.51-4.23,15.64-6.37,15.86c0,0-5.73.61-6.5-2.49s-1.09-4.59-1.09-4.59-2.19,11-4.83,11.5-7.66.25-7.84-4.56c0,0-2.44,3.63-4.83,2.58s-5.35-2.81-5.08-5.78.3-6,.3-6-1.31,4.33-3.48,3.39-4.34-.74-5.55-4.41-4.23-10.68-4.23-10.68Z"/><path class="cls-4" d="M212.65,388.53c-.14-.07.43-1.19.93-3.1a17,17,0,0,0-2.7-14.56c-1.15-1.61-2.08-2.44-2-2.56s1.17.58,2.51,2.14a15.6,15.6,0,0,1,2.82,15.18C213.53,387.57,212.74,388.59,212.65,388.53Z"/><path class="cls-4" d="M224.41,367.7a15.48,15.48,0,0,1,1.25,4.32,42.32,42.32,0,0,1,.66,10.83,43.26,43.26,0,0,1-2.1,10.65,15.07,15.07,0,0,1-1.82,4.11c-.31-.1,2.45-6.45,3-14.82S224.1,367.76,224.41,367.7Z"/><path class="cls-4" d="M237.81,368.42c.23,0,.89,5.19.14,11.59s-2.54,11.34-2.76,11.26,1.11-5.06,1.81-11.37S237.52,368.43,237.81,368.42Z"/><path class="cls-2" d="M274.49,370.9a3.68,3.68,0,0,0-2.47-2,8,8,0,0,0-7.11,1.91,27.18,27.18,0,0,0-5.19,6.39l13.89,0C273.47,375.05,275.26,372.88,274.49,370.9Z"/><rect class="cls-6" x="593.35" y="160.28" width="42.68" height="16.91" rx="2.22"/><path class="cls-7" d="M625.92,188.75v84.13a8.57,8.57,0,0,1-8.57,8.57H636.7a4.45,4.45,0,0,0,4.45-4.45V266.84L636,238.92l5.12-30.38V188.75H625.92Z"/><path class="cls-8" d="M628.2,188.75V277a4.45,4.45,0,0,1-4.45,4.45H592.68a4.45,4.45,0,0,1-4.45-4.45V266.84l2.55-17.27-2.55-41V188.75Z"/><rect class="cls-9" x="588.23" y="190.82" width="52.92" height="4.76"/><path class="cls-10" d="M600.56,202.57a3.09,3.09,0,1,0-6.18,0v6h6.18Z"/><rect class="cls-11" x="588.23" y="208.54" width="39.98" height="58.3"/><rect class="cls-6" x="628.2" y="208.54" width="12.94" height="58.3"/><path class="cls-10" d="M597.47,256.61a3.1,3.1,0,0,0,3.09-3.09v-45h-6.18v45A3.1,3.1,0,0,0,597.47,256.61Z"/><path class="cls-12" d="M587.27,168.73H642.1a2.22,2.22,0,0,1,2.22,2.22v14.68a0,0,0,0,1,0,0H585a0,0,0,0,1,0,0V171A2.22,2.22,0,0,1,587.27,168.73Z"/><rect class="cls-11" x="579.57" y="183.1" width="70.24" height="7.72" rx="1.75"/></svg>