<svg id="Layer_1" data-name="Layer 1" xmlns="http://www.w3.org/2000/svg" xmlns:xlink="http://www.w3.org/1999/xlink" viewBox="0 0 484.68 484.68"><defs><style>.cls-1{fill:none;}.cls-2{fill:#e8505b;}.cls-3{clip-path:url(#clip-path);}.cls-4{fill:#ff725e;}.cls-5{fill:#263238;}.cls-6{opacity:0.45;isolation:isolate;}.cls-7{fill:#ef9d78;}.cls-8{fill:#d37a57;}</style><clipPath id="clip-path"><circle class="cls-1" cx="243.34" cy="243.34" r="242.34"/></clipPath></defs><circle class="cls-2" cx="244.58" cy="240.1" r="240.1"/><g class="cls-3"><path class="cls-4" d="M386.38,316.1l-64.76-45.67a12.11,12.11,0,0,1-9,4.89C285,277.7,259.34,261,233.17,254.89c-10.72-2.5-68.93,3-99.77,6.24a79,79,0,0,0-47.5,21.93c-5.64,5.58-10.29,12-11.72,18.74C69.72,322.83,60.54,460,60.54,460l12,40.54,241.7.37,56.69-.8s21.78-50.87,21.78-64.89S386.38,316.1,386.38,316.1Z"/><path class="cls-5" d="M103.41,365.38a1.21,1.21,0,0,1,.24.35l.66,1.13-.18.06c-.88-4.11-3.25-16.72-5.95-31.63-1.63-9.18-3.1-17.49-4.18-23.62-.49-3-.9-5.39-1.19-7.17l-.3-1.95a2.69,2.69,0,0,1-.06-.69,2.17,2.17,0,0,1,.19.66c.11.51.24,1.15.41,1.94.35,1.77.82,4.19,1.39,7.13,1.13,6.12,2.67,14.42,4.37,23.59,2.69,14.91,4.89,27.55,5.51,31.71l.09.62-.27-.56-.58-1.18Q103.38,365.38,103.41,365.38Z"/><path class="cls-5" d="M100.46,362.86c-.16.08-3.24-6.12-6.88-13.85s-6.47-14-6.31-14.12,3.24,6.13,6.88,13.85S100.62,362.79,100.46,362.86Z"/><path class="cls-6" d="M99.21,497.41c7.67,3.86,25.45-3,31.92-11.43s8.33-19.51,9.74-30.08q3.16-23.91,4.52-48a72.87,72.87,0,0,0,46,13.88c10.38-.47,22.21-4.59,25.42-14.48s-3.66-19.83-10.76-27.25a166.46,166.46,0,0,0-22-19.34c-5.18-3.79-10.85-7.39-17.24-8.09-6.89-.75-13.86,2.07-19.1,6.61s-8.9,10.66-11.58,17c-8.18,19.51-7.74,41.36-9.41,62.45s-3.91,42.94-22.6,56.67"/><path class="cls-5" d="M99.7,497.49a3.65,3.65,0,0,1,.53-.25l1.54-.67A28.27,28.27,0,0,0,107,493c4.17-3.55,9.32-9.6,14.14-17.63v.11c1.12-8.39,2.43-18.17,3.82-28.58,2.24-16.49,4.23-31.43,5.83-42.22,1-5.32,1.79-9.65,2.36-12.7.28-1.46.51-2.61.67-3.45.08-.36.14-.65.19-.89a1.71,1.71,0,0,1,.09-.3,1.61,1.61,0,0,1,0,.31,9,9,0,0,1-.13.91c-.14.84-.32,2-.56,3.46-.52,3.06-1.25,7.4-2.16,12.73L125.56,447c-1.42,10.4-2.75,20.18-3.89,28.56v.06h0c-4.9,8.07-10.13,14.09-14.41,17.6a26.55,26.55,0,0,1-5.37,3.51c-.69.27-1.23.46-1.59.59A2.06,2.06,0,0,1,99.7,497.49Z"/><path class="cls-6" d="M349.63,298.78l.46-3.88c-4.66.45-10.39,1-14.12,3.84-4.34,3.31-6.05,8.95-7.51,14.21-3.33,12,6.11,73.59,5.63,86,4.13-1.75,7-28.19,7.77-32.62,1.81-10.79-1.85-17.52-.74-20.52s1.08-6.28,1.17-9.48c.4-14.3,1.82-24.36,7.34-37.56"/><path class="cls-5" d="M288.8,101c-5.92-7.34-4-19.07,2.8-25.64s17.09-8.45,26.4-6.88a43.41,43.41,0,0,1,31.46,23.74c3.18,6.67,4.91,14.54,10.73,19.08,5.12,4,12.16,4.33,18,7.19,7.81,3.82,12.85,12,14.63,20.51s.72,17.37-1.08,25.88c-1.66,7.81-3.86,16.25-.51,23.49,3.27,7.07,10.91,10.92,15.94,16.86,9.47,11.18,7.32,30.2-4.39,39-3.74,2.8-8.46,4.94-10.25,9.25-1.63,3.94-.24,8.41-.32,12.67-.22,11-12.32,20-22.9,17.09-5.34-1.48-10.26-5.42-15.75-4.67s-9.1,5.79-13.53,9.05c-8.72,6.42-22.07,5.44-29.75-2.19-3.22-3.2-5.8-7.55-10.18-8.71s-9,1.35-13.45.74c-5.87-.8-9.73-6.63-11.46-12.29s-2.19-11.8-5.12-17c-3.84-6.73-11.14-10.55-17.27-15.29a60,60,0,0,1-10.73-84.17,59.33,59.33,0,0,1,5.59-6.27"/><path class="cls-7" d="M206.72,247.82a56.4,56.4,0,0,0-12,50c4.35,17.27,31.8,34,64.65,20.61,16.72-6.8,22.61-31.47,21.44-36.34-.86-3.59-3.29-6.57-5.84-9.23a74.8,74.8,0,0,0-64.79-21.61"/><path class="cls-7" d="M256.25,123.5h0a29.67,29.67,0,0,1,33.95-15.63L332,118.51c20.87,6.72,37.2,39,24.9,67.3-9.71,22.33-19.66,50.39-29.64,65.81-20.07,31-47.51,23.91-47.51,23.91l-14.81,33L204.4,251.75Z"/><path class="cls-5" d="M299.49,219.18c.1-.27,3.18.51,8.07,2,1.23.4,2.45.65,3-.06s.72-2.21.76-3.83c.16-3.33.32-6.82.49-10.49.82-14.87,2-26.9,2.57-26.86s.42,12.13-.4,27l-.66,10.47c-.15,1.54-.06,3.39-1.44,4.88a3.22,3.22,0,0,1-2.69.87,9.19,9.19,0,0,1-2.12-.61C302.3,220.71,299.39,219.45,299.49,219.18Z"/><path class="cls-8" d="M279.65,275.61s-24.18-9.06-40.48-32.27c0,0,.91,28.34,36.77,40.57Z"/><path class="cls-5" d="M285.76,174.6a1.58,1.58,0,0,0-2.16,0,1.55,1.55,0,0,0,0,2.17l13.12,10.89-16.38,1.84a1.59,1.59,0,0,0-1.53,1.53,1.55,1.55,0,0,0,1.53,1.53l20.1-2.26a1.55,1.55,0,0,0,1.4-.94,1.52,1.52,0,0,0-.32-1.67Z"/><path class="cls-5" d="M339.87,197.75l-16-2.41a1.53,1.53,0,0,0-1.86,1.13,1.52,1.52,0,0,0,.37,1.42l9.77,12.5a1.52,1.52,0,0,0,2.15,0h0a1.58,1.58,0,0,0,0-2.16q-3.66-4.66-7.3-9.35l12,1.82a1.59,1.59,0,0,0,1.88-1.07A1.54,1.54,0,0,0,339.87,197.75Z"/><path class="cls-5" d="M283.25,157.33c.77-1.24,5.55.44,11.47,1s10.93-.06,11.45,1.3c.22.65-.86,1.74-3,2.63a20,20,0,0,1-17.46-1.72C283.75,159.2,282.91,157.92,283.25,157.33Z"/><path class="cls-5" d="M336.6,170.8c1.55,0,3.45,3.79,6.75,7.44s6.72,6.14,6.5,7.65c-.14.7-1.43,1-3.46.4a15.76,15.76,0,0,1-6.92-4.72,15.59,15.59,0,0,1-3.75-7.44C335.4,172.06,335.88,170.84,336.6,170.8Z"/><path class="cls-8" d="M288.88,232s2.84-1.48,1.53-6.94-8.26-10.39-12.65-5.91c0,0-4.43.35-2.69,5.46s11.85,12.33,13.73,8.22"/><path class="cls-5" d="M287.23,236.13c-.81-.13.42-5.46-3.25-10.29s-9.47-5.58-9.34-6.33c0-.35,1.5-.74,3.91-.25a13.62,13.62,0,0,1,7.87,5,11.81,11.81,0,0,1,2.38,8.56C288.49,235.07,287.59,236.25,287.23,236.13Z"/><path class="cls-5" d="M220.55,106.11a26.12,26.12,0,0,0-10,21.39c.18,4.57,1.3,10-2.08,13.07S199.61,142,195,142.06a17.34,17.34,0,0,0-16.57,14.85c-.33,2.89,0,6-1.43,8.52s-4.61,3.79-7.2,5.36a21.59,21.59,0,0,0,.72,37.35c3,1.66,6.5,2.7,8.69,5.33,2.5,3,2.6,7.3,3.83,11a18.13,18.13,0,0,0,34.36.25"/><path class="cls-5" d="M288.22,94.4a25.86,25.86,0,0,0,20.69,33.95c5.81.85,12.73.11,16.48,4.63,3.94,4.74,1.6,12.31,4.72,17.64,4.45,7.61,12,13.68,19.24,18.76,5.56,3.93-.8,14.87,1.63,21.23s12.4,20.88,19.2,21.14c1.49-5.69,10-30.69,10.11-36.57s-1.18-12-4.82-16.61c-2-2.53-4.62-4.55-6.35-7.28-3.73-5.88-2.48-13.49-3.69-20.35a28.32,28.32,0,0,0-15.84-20.47c-6.79-3.1-14.76-3.45-21-7.5-4.64-3-8-7.79-12.76-10.5-9.36-5.29-21.09-1.26-30.77,3.43"/><path class="cls-5" d="M243.15,165.54c-1-.65-7.39,4.21-1.05,8.09,11.1,6.78,20.63-16.15,20.22-23.77,5.66-2.39,11.38-4.82,16.36-8.6s12.42-16.16,13.75-22.42c4.25,1.72,24.77,1.87,23,.64-4.05-2.8-12.25-8.81-13.33-13.52-2.37-10.21-9.62-19.1-19.21-21.77a23.9,23.9,0,0,0-26.43,11c-11.41-3.77-24.94-.38-34,8.53a39.8,39.8,0,0,0-10.86,35.42c.67,3.26,1.77,6.66.72,9.88-1.29,4-5.3,6.16-8.5,8.75-8.7,7.06-12.45,19.53-11.38,30.79s3,15.74,8.57,19.81c10.9,8-11.76,28.31,8.54,35.18"/><path class="cls-7" d="M245.51,169c3.49-6.84-1.2-15.44-8.87-15.42-4.22,0-8.75,2.3-12.52,9.52-10,19.26,11.37,25.37,11.69,24.84C236,187.63,241.42,177,245.51,169Z"/><path class="cls-8" d="M233.73,177.59c0-.1-.46.06-1.16,0a3.81,3.81,0,0,1-2.54-1.26c-1.64-1.81-1.67-5.93.05-9.45a12.58,12.58,0,0,1,3.44-4.32c1.33-1.1,2.75-1.61,3.87-1.26a1.93,1.93,0,0,1,1.5,2c0,.67-.34,1-.26,1.08s.58-.11.84-1a2.45,2.45,0,0,0-.13-1.6,2.84,2.84,0,0,0-1.6-1.46c-1.54-.67-3.59,0-5.06,1.16a12.8,12.8,0,0,0-4,4.76c-1.9,3.95-1.81,8.62.55,10.87a4.08,4.08,0,0,0,3.34,1.1C233.45,178,233.78,177.66,233.73,177.59Z"/><path class="cls-5" d="M226.32,436.55c-1.7-3.16-6.08-5.1-6.08-5.1l-3.65-9a9.74,9.74,0,0,0,0-7.05c-1.46-3.89-12.15-26.5-11.91-27.23l-2.77-.16s9.86,23.93,10.83,25.14,2.4,8.34,0,9.31-7.59-1.66-9.78-3.85S193.8,400,192.58,396.56s1-8.15,1-8.15l1.94-4.62h-2.67a86.83,86.83,0,0,0-2.68,9.49c-1,4.62,10,24.8,11.67,27s7.54,3.89,10.7,6.08,2.67,9,2.67,9a16.84,16.84,0,0,0-2.91,8c-.25,4.38,9.48,25.05,16,29.42s14.35,1.22,15.08,1.46,2.43-3.4,2.43-3.4S228,439.72,226.32,436.55Zm9,36.14a13.73,13.73,0,0,1-9-5.22c-.8-1.05-9.31-15.86-10.41-18.62-1.91-4.82-.59-7.48.11-10.3,1-4.1,7.34-1.7,7.34-1.7S241.91,469,241.49,470s-2.71,3-6.21,2.69Z"/><path class="cls-5" d="M245.77,470.84s54.23-20.64,56.76-23,11.69-15.77,11.69-15.77,4.48.77,3.89,1.94S309,448.64,299.8,452.54s-56.46,21.7-56.46,21.7Z"/><path class="cls-4" d="M74.18,300.8,51.84,429.6s-8.23,25.06-7.05,30.54,5.33,29.14,17.86,36.58,37.35,2.58,42.44-2.51,15.13-14.42,16.3-18.73,9.41-69.8,9.41-69.8l3.27-18.37s-12.14,3.92-19.58-1.18-17.23-27-17.23-27L86.3,376Z"/><path class="cls-5" d="M97.26,359.12a4,4,0,0,1-.43.72c-.33.52-.77,1.18-1.32,2-1.15,1.75-2.81,4.28-4.81,7.44-4,6.31-9.38,15.14-15.24,24.93s-11.15,18.68-15.09,25c-2,3.19-3.58,5.75-4.72,7.5l-1.33,2a4.76,4.76,0,0,1-.5.68,3.83,3.83,0,0,1,.39-.75l1.23-2.07c1.12-1.86,2.66-4.44,4.55-7.6l14.92-25.15C80.77,384.1,86.2,375.3,90.32,369c2.05-3.13,3.77-5.62,5-7.33.59-.8,1.07-1.44,1.43-1.94A3.75,3.75,0,0,1,97.26,359.12Z"/><path class="cls-5" d="M131.26,403.11a2.58,2.58,0,0,1-.46.53c-.33.33-.77.85-1.44,1.43a24.64,24.64,0,0,1-6.17,4.17,19.46,19.46,0,0,1-4.94,1.56,18.8,18.8,0,0,1-5.94.14,24.5,24.5,0,0,1-6.34-1.71,33.69,33.69,0,0,1-6.16-3.42A33.24,33.24,0,0,1,94.63,401a35,35,0,0,1-3.73-5.39,34.45,34.45,0,0,1-3.71-10.41,32.54,32.54,0,0,1-.5-7.44,16.31,16.31,0,0,1,.19-2,4.1,4.1,0,0,1,.12-.7,23.32,23.32,0,0,1-.06,2.72,36.22,36.22,0,0,0,.69,7.34,33.78,33.78,0,0,0,7.48,15.48,33,33,0,0,0,5.08,4.67,34.91,34.91,0,0,0,6,3.36,24.89,24.89,0,0,0,6.17,1.7,18.37,18.37,0,0,0,5.78-.08A19.44,19.44,0,0,0,123,408.8a26.31,26.31,0,0,0,6.2-3.95C130.52,403.74,131.22,403.07,131.26,403.11Z"/><path class="cls-7" d="M97.26,359.12,114,348.37s44.55-18.1,49.08-19.14,9.74-3.14,12.18,0,27.84,21.58,27.84,21.58,15,28.19,15,32,4.18,8.73,0,10.11l-4.18,1.37s-1.39,6.83-6.61,7.59-7,0-7,0-.35,6.83-4.53,6.41-11.13-6.41-11.13-6.41-3.14,3.55-5.57,3.55-10.1-5.22-10.1-5.22l-14.8-12.88-13-4.52-7.05,4.48s-15.06,1.28-17.32,0S97.26,359.12,97.26,359.12Z"/><path class="cls-8" d="M182.8,403.11a14.67,14.67,0,0,1-.76-2c-.22-.64-.5-1.42-.88-2.31s-.75-1.93-1.29-3-1.06-2.31-1.75-3.56-1.45-2.57-2.27-3.95a64.53,64.53,0,0,0-13.69-15.6c-1.26-1-2.44-2-3.62-2.77s-2.27-1.56-3.3-2.2-2-1.18-2.81-1.67-1.58-.87-2.19-1.17a13.21,13.21,0,0,1-1.85-1,14.38,14.38,0,0,1,2,.8,23.07,23.07,0,0,1,2.24,1.08c.86.46,1.86.94,2.89,1.59s2.2,1.32,3.36,2.16,2.41,1.75,3.69,2.74A61.57,61.57,0,0,1,176.35,388c.81,1.4,1.61,2.72,2.24,4s1.21,2.5,1.7,3.62.86,2.16,1.2,3.07.6,1.71.78,2.36A11.33,11.33,0,0,1,182.8,403.11Z"/><path class="cls-8" d="M200.26,402.68a2.51,2.51,0,0,1-.38-.54c-.22-.36-.57-.89-.95-1.61a45.49,45.49,0,0,1-2.72-6.34c-1-2.74-1.91-6.08-3-9.74A52,52,0,0,0,188.5,373a30,30,0,0,0-8.38-9c-3.08-2.25-6.05-4.06-8.31-5.91a21.4,21.4,0,0,1-4.73-5,11.45,11.45,0,0,1-.88-1.66,2.28,2.28,0,0,1-.24-.61c.07,0,.41.81,1.33,2.13a22.34,22.34,0,0,0,4.8,4.81c2.27,1.79,5.24,3.55,8.38,5.79a29.85,29.85,0,0,1,8.57,9.12,50.28,50.28,0,0,1,4.72,11.61c1.08,3.69,2,7,2.88,9.77a54.34,54.34,0,0,0,2.51,6.37C199.87,401.86,200.3,402.65,200.26,402.68Z"/><path class="cls-8" d="M212.81,394.61a3.31,3.31,0,0,1-.19-.61c-.11-.47-.25-1.05-.41-1.76s-.38-1.7-.7-2.77-.6-2.3-1.07-3.62-.9-2.79-1.53-4.31-1.31-3.15-2.06-4.83a81.07,81.07,0,0,0-5.95-10.45,83.6,83.6,0,0,0-7.52-9.37c-1.3-1.32-2.51-2.6-3.74-3.69s-2.37-2.12-3.45-3-2.1-1.65-3-2.33-1.66-1.23-2.32-1.66l-1.48-1c-.33-.24-.51-.37-.49-.39a2.29,2.29,0,0,1,.56.29L181,346c.68.41,1.49.92,2.39,1.58s2,1.36,3.05,2.27,2.31,1.84,3.53,3,2.48,2.35,3.8,3.67a79.32,79.32,0,0,1,7.63,9.42,80.2,80.2,0,0,1,6,10.56c.74,1.71,1.47,3.32,2,4.89s1.06,3,1.46,4.36.71,2.59,1,3.68a28,28,0,0,1,.59,2.8l.3,1.79A2.88,2.88,0,0,1,212.81,394.61Z"/><path class="cls-8" d="M147.24,347.1c0,.1-.86.23-2.15.79a10.36,10.36,0,0,0-6.25,8.26c-.18,1.38-.07,2.27-.18,2.28a4.63,4.63,0,0,1-.27-2.33,9.73,9.73,0,0,1,6.54-8.63A4.59,4.59,0,0,1,147.24,347.1Z"/><path class="cls-8" d="M159.66,335.3c.1.17-2.06,1.54-4.19,3.81s-3.4,4.48-3.57,4.39.88-2.5,3.1-4.83S159.59,335.16,159.66,335.3Z"/><path class="cls-7" d="M334.3,190c-2.12.87-2.55,3.4-2.51,5.69,0,2.86.76,3.33,3.1,8.13,3.82,7.85,8.4,22.72,8.4,22.72s-3.75,37.57-1.28,46.39a14.91,14.91,0,0,0,9.75,10l-3.43,29h41s-1.46-28.09-2.34-36.65c-.93-9-.31-63.82-.31-63.82l-4-29.24-9.49-16.41a7.4,7.4,0,0,0-2.8,9c2.14,6,3.55,17.56,3.55,17.56l-23.73-35.72s-4.66,1.12-4.94,9.75c0,0-6.9,4.49-2.46,11.78,5,8.14,10.11,32.59,8.3,32.59l-14.72-21.62Z"/><path class="cls-8" d="M348.33,311.94s.05-.65.19-1.92l.62-5.62c.57-4.95,1.4-12.2,2.46-21.5l.12.17a15.21,15.21,0,0,1-5.22-2.89,14.22,14.22,0,0,1-3.92-5.17,19.83,19.83,0,0,1-1.44-6.84q-.21-3.62-.17-7.47c.11-10.26.91-21.73,2.06-34.19v.1c-1.92-6.05-4-12.42-6.71-18.88-.67-1.62-1.39-3.22-2.19-4.81a39,39,0,0,1-2.35-4.93,11.34,11.34,0,0,1,.12-5.61,4.09,4.09,0,0,1,1.71-2.36,7.9,7.9,0,0,1,1.32-.61l1.3-.54.22-.09.13.19L352,211.51l-.55.11a24.36,24.36,0,0,0-.08-5.66,52.8,52.8,0,0,0-1-5.73A90,90,0,0,0,347,188.87c-1.35-3.79-3.05-7.45-4.71-11.23a10.21,10.21,0,0,1-.66-6.24,9.24,9.24,0,0,1,3.5-5.28l-.14.23a23.25,23.25,0,0,1,1.31-5.52,10.84,10.84,0,0,1,1.44-2.6,5.07,5.07,0,0,1,2.45-1.9l.2-.07.13.2.28.42,23.44,35.3-.57.21a125.51,125.51,0,0,0-2.5-14,32.07,32.07,0,0,0-1-3.34,9.84,9.84,0,0,1-.6-3.52,7.71,7.71,0,0,1,3.47-6l.26-.17.16.27,9.48,16.42h0v.06q2.1,15.34,4,29.24h0c-.17,15.15-.26,29-.24,41.28,0,6.13,0,11.87.18,17.16.08,2.65.23,5.17.47,7.59s.36,4.73.51,6.92c.56,8.77.91,15.65,1.15,20.34.11,2.33.19,4.12.25,5.35s.06,1.83.06,1.83-.06-.62-.14-1.83-.19-3-.33-5.34c-.29-4.69-.69-11.57-1.3-20.32-.16-2.19-.33-4.5-.54-6.92s-.42-5-.5-7.61c-.16-5.3-.22-11-.25-17.17-.06-12.27,0-26.13.14-41.28h0q-1.92-13.89-4-29.24v.1l-9.5-16.4.41.1a7.12,7.12,0,0,0-3.17,5.5,9,9,0,0,0,.56,3.29c.39,1.11.71,2.25,1,3.39a129.15,129.15,0,0,1,2.52,14.07l.18,1.33-.75-1.12c-7.58-11.41-15.42-23.22-23.46-35.3l-.27-.41.33.13a4.66,4.66,0,0,0-2.08,1.67,10.46,10.46,0,0,0-1.35,2.45,22.29,22.29,0,0,0-1.26,5.35v.14l-.12.09a8.6,8.6,0,0,0-3.24,4.9,9.41,9.41,0,0,0,.63,5.85c1.63,3.73,3.36,7.46,4.7,11.25A86.77,86.77,0,0,1,351,200.1a51.68,51.68,0,0,1,1,5.8,24.8,24.8,0,0,1,.06,5.84l-.1.78-.45-.66-15.4-22.56.35.11c-.84.37-1.8.69-2.53,1.1a3.6,3.6,0,0,0-1.47,2.05,9.12,9.12,0,0,0-.39,2.64,9.75,9.75,0,0,0,.27,2.64,41.06,41.06,0,0,0,2.3,4.83c.81,1.6,1.53,3.23,2.2,4.84,2.67,6.5,4.78,12.88,6.69,19h0v.06c-1.18,12.44-2,23.91-2.15,34.15q0,3.84.15,7.43a19.61,19.61,0,0,0,1.38,6.72,14.73,14.73,0,0,0,8.88,7.91h.13v.13c-1.13,9.29-2,16.53-2.61,21.48-.31,2.45-.54,4.32-.71,5.61S348.33,311.94,348.33,311.94Z"/><path class="cls-8" d="M366.45,213.91a13.47,13.47,0,0,1-.45-2c-.22-1.31-.62-3.19-1.15-5.51a92.54,92.54,0,0,0-6.06-17.51,116.06,116.06,0,0,0-9.23-16.09c-1.32-2-2.43-3.56-3.19-4.65a15.19,15.19,0,0,1-1.14-1.73,12.58,12.58,0,0,1,1.34,1.58c.83,1.05,2,2.59,3.36,4.54a102,102,0,0,1,9.44,16.08,83.35,83.35,0,0,1,5.92,17.68c.47,2.34.81,4.25,1,5.57A13.91,13.91,0,0,1,366.45,213.91Z"/><path class="cls-8" d="M379.17,204.79c-.16.06-1.5-2.78-3-6.36s-2.57-6.54-2.41-6.61,1.5,2.78,3,6.36S379.34,204.72,379.17,204.79Z"/><path class="cls-4" d="M345.06,299.93h0C337.87,363.41,328.5,431,317.74,501.19h83.42c15.69-34.73,6.1-65,1.91-108.23L389.32,294.9Z"/><path class="cls-5" d="M317.74,501.19a2.94,2.94,0,0,1,0-.42,10.75,10.75,0,0,1,.15-1.2l.63-4.62L321,478c2.11-14.37,5-34.15,8.22-56s5.81-41.71,7.57-56.09c.89-7.19,1.56-13,2-17,.23-2,.41-3.54.54-4.64.07-.5.12-.9.16-1.2a2.7,2.7,0,0,1,.07-.41,1.48,1.48,0,0,1,0,.42,6.51,6.51,0,0,1-.09,1.21c-.1,1.1-.24,2.66-.43,4.64-.38,4-1,9.87-1.82,17.06-1.64,14.4-4.23,34.25-7.37,56.13s-6.2,41.66-8.42,56c-1.12,7.12-2,12.9-2.66,16.94-.32,2-.58,3.52-.76,4.61-.08.5-.15.89-.21,1.19A1.91,1.91,0,0,1,317.74,501.19Z"/></g></svg>