<svg id="Layer_1" data-name="Layer 1" xmlns="http://www.w3.org/2000/svg" xmlns:xlink="http://www.w3.org/1999/xlink" viewBox="0 0 261 319.88"><defs><style>.cls-1{fill:none;}.cls-2{clip-path:url(#clip-path);}.cls-3{fill:#f2f2f2;}.cls-4{fill:#263238;}.cls-5{fill:#7e7768;}.cls-6{fill:#ff725e;}.cls-7{opacity:0.34;}.cls-8{fill:#fdfbec;}.cls-9{fill:#d07e5d;}.cls-10{fill:#9b4731;}.cls-11{fill:#e97f5b;}</style><clipPath id="clip-path"><rect class="cls-1" x="-65" y="-16" width="364.22" height="335.88"/></clipPath></defs><g class="cls-2"><path class="cls-3" d="M160.58,109.6a25.15,25.15,0,0,0,11.57,31.22c.5.27,0,1-.45.76a26,26,0,0,1-12-32.22c.2-.52,1.06-.29.85.24Z"/><path class="cls-4" d="M198.87,397c-5-39.9-11.44-125.14-11.44-125.14l-86.24.73s15.5,80.84,26.12,124.41Z"/><path class="cls-5" d="M155.7,279.64a55.44,55.44,0,0,0,22.9,31.13,54.66,54.66,0,0,0,10,5.15c.9.35,1.29-1.1.4-1.45a53.87,53.87,0,0,1-27.89-25.1,52.59,52.59,0,0,1-4-10.13.75.75,0,1,0-1.45.4Z"/><polygon class="cls-4" points="106.53 396.95 122.89 274.27 57.86 255.56 39.97 396.95 106.53 396.95"/><path class="cls-5" d="M74.57,271.91c-4.12,12.27-9.14,26.33-22,31.83-.89.37-.13,1.66.75,1.29C66.56,299.39,71.8,284.92,76,272.3c.3-.91-1.14-1.3-1.45-.39Z"/><path class="cls-5" d="M95.81,395.59h-.1a.61.61,0,0,1-.51-.71h0q1.64-9.72,3.25-19.32c3.5-20.72,7.11-42.14,10.65-64.12v-.06a24.19,24.19,0,0,0,1-5.67v-.11c.13-.74.32-1.55.5-2.34s.35-1.55.47-2.25c.25-2.24.63-4.44,1-6.57s.72-4.16,1-6.29a.62.62,0,0,1,1.24.14c-.25,2.17-.62,4.3-1,6.36s-.74,4.31-1,6.51h0c-.13.74-.32,1.56-.5,2.34s-.35,1.52-.47,2.22a25.13,25.13,0,0,1-1,5.9c-3.54,22-7.15,43.39-10.65,64.1L96.39,395A.63.63,0,0,1,95.81,395.59Z"/><path class="cls-5" d="M113.15,315.14a11.86,11.86,0,0,1-4-.7.63.63,0,0,1-.34-.82.62.62,0,0,1,.81-.34h0a10,10,0,0,0,10.24-2c3.78-3.51,7.07-24.26,8.28-34.74a.62.62,0,0,1,1.24.14c-.14,1.26-3.61,30.82-8.67,35.52A10.77,10.77,0,0,1,113.15,315.14Z"/><path class="cls-4" d="M154.71,29S145.4,5.71,127.25,5.63c-15-.07-17.29,8.88-22.87,13.84s-12-1.61-11.91,4.11a7.82,7.82,0,0,0,5.38,7.28s-8.38-.18-6.26,5.91,9,3.82,9,3.82-2.77,6.77,1,9.58C110.87,57,115.84,29,125.65,31.55,136.12,34.31,154.71,29,154.71,29Z"/><path class="cls-4" d="M140.21,14.54a12.31,12.31,0,0,1,16,2c7.72,7.87,4.76,19.35,2.93,26.33S150,61.42,143.48,61.68,140.21,14.54,140.21,14.54Z"/><path class="cls-6" d="M193.55,191.66c-1.34,31.39,10.16,73.37,3,103.91C196,298,189.68,300,180,301.38c-1.06.14-2.15.28-3.28.41-13.21,1.52-31.47,1.93-49.91.77l-1.55-.1c-27.19-1.84-54.5-7.1-66.35-17.22-.38-.32-.75-.66-1.1-1A15,15,0,0,1,52.88,275a54.92,54.92,0,0,1,.77-12.87c.1-.65.19-1.31.3-2,.7-4.35,1.65-9.17,2.73-14.22.12-.58.25-1.17.38-1.77,3.53-16.39,8.13-34.8,9.31-47,.1-1,.17-2,.24-3.15.16-2.61.26-5.64.32-9v-1.91c.08-5.77.07-12.34.09-19.21v-1.79h0c0-2.72,0-5.48.06-8.24,0-1.83,0-3.66.07-5.49v-1.59c.43-21.28,2-41.34,7.9-45.62,4.29-3.09,13-6.14,21-8.48l1.44-.42c2.34-.67,4.58-1.27,6.59-1.79,5-1.3,8.53-2.08,8.53-2.08s12.12-14.22,34.46,0a56,56,0,0,0,13.23,6.07c9.54,3,18.73,3.85,26.26,7.15.54.23,1.07.48,1.59.74,5.85,3,10.56,7.71,13.45,16.75,3.53,11,2,20.48-.7,31.56-2.42,10-5.75,21.35-7.07,36.43C193.72,188.64,193.62,190.14,193.55,191.66Z"/><g class="cls-7"><path class="cls-4" d="M194.22,201.66a187.82,187.82,0,0,1,.73-24.42c.8-7.8,2.13-15.54,3.35-23.29.15-.94-1.29-1.35-1.44-.39-1.23,7.76-2.56,15.51-3.37,23.33a186.24,186.24,0,0,0-.77,24.77.75.75,0,0,0,1.5,0Z"/></g><path class="cls-3" d="M85.64,136.66a49,49,0,0,1-18.5,11.79v-1.59A44.08,44.08,0,0,0,72,144.73a45.74,45.74,0,0,0,23-26.14,47.37,47.37,0,0,0,1.08-25.83l1.44-.42a48.58,48.58,0,0,1,1.33,9.75A47.08,47.08,0,0,1,85.64,136.66Z"/><path class="cls-3" d="M188.17,102.43c-7.84,5-16.94,8.15-26.35,7.59-9.74-.58-19.31-4.85-25.1-12.9-.56-.79.74-1.54,1.3-.76a28.51,28.51,0,0,0,12.67,9.7,38,38,0,0,0,28.41-.54,50.69,50.69,0,0,0,7.48-3.83C187.12,101.92,187.65,102.17,188.17,102.43Z"/><path class="cls-3" d="M181.59,201.81A42.75,42.75,0,0,1,154,199.53a26.66,26.66,0,0,1-9.7-7c-3.4-4-5.87-8.6-8.64-13a50.62,50.62,0,0,0-22.08-19.44A49.07,49.07,0,0,0,67,164v-1.79h0A51,51,0,0,1,86.62,155c19.45-2.88,39,6.41,49.62,22.8,3,4.61,5.51,9.59,9.11,13.79a26.06,26.06,0,0,0,10.31,7.11,41.38,41.38,0,0,0,25.52,1.74.75.75,0,0,1,.41,1.42Z"/><path class="cls-3" d="M183.67,219.13A90.45,90.45,0,0,0,158.06,211c-7.22-1.07-16.39.05-19.63,7.69-3,7.12.36,15.58,4.56,21.46,4.68,6.56,11.13,11.74,17.69,16.31,8.12,5.64,16.87,10.28,25.58,14.91.86.45,1.61-.84.76-1.29-13.82-7.33-28.57-14.82-39.3-26.49-4.89-5.31-9.16-12.27-8.88-19.75a11.29,11.29,0,0,1,5.26-9.46,18.22,18.22,0,0,1,11.13-2.21,67.71,67.71,0,0,1,14.28,3,93.63,93.63,0,0,1,13.4,5.22c.87.42,1.63-.88.76-1.29Z"/><path class="cls-3" d="M186.31,141.86A76.89,76.89,0,0,0,146.9,125c-4.12-.51-8.49-.74-12.5.6a11.42,11.42,0,0,0-7.72,7.91c-1.13,4.42.21,9,2.58,12.74a48.9,48.9,0,0,0,9.55,10.55,81.61,81.61,0,0,0,11.19,8c9.17,5.54,19.13,9.6,29,13.6.89.36,1.28-1.08.39-1.44-16.21-6.55-33.26-13.51-45.23-26.8-3.06-3.39-6-7.43-6.38-12.12-.38-4.27,1.38-8.32,5.27-10.32,3.45-1.78,7.62-1.84,11.4-1.52a71.53,71.53,0,0,1,13.38,2.48,75.93,75.93,0,0,1,27.39,14.23c.74.61,1.8-.44,1.05-1Z"/><path class="cls-3" d="M94.47,224.06a154.29,154.29,0,0,1-30.75,18.78c-2.19,1-4.58,2.11-7.08,3.12.12-.58.25-1.17.38-1.77,3.72-1.5,7.36-3.25,10.91-5a152,152,0,0,0,27.89-18.08c8-6.55,17.19-16.3,13.8-27.65-2.76-9.2-12.69-14.47-21.77-15a31.35,31.35,0,0,0-21,6.63v-1.91a32.87,32.87,0,0,1,25-5.74c9.29,1.73,18.59,8.61,19.78,18.52C113.11,208.09,103.11,217.29,94.47,224.06Z"/><path class="cls-3" d="M180,301.38c-1.06.14-2.15.28-3.28.41a74.19,74.19,0,0,1-11.4-5.48,73.36,73.36,0,0,1-14-10.66A138.84,138.84,0,0,1,138.89,271c-7.39-9.55-15.44-19.75-27.07-24.23-6.36-2.45-13.06-2.44-19.68-1.09a103.81,103.81,0,0,0-18.48,5.82,116.29,116.29,0,0,0-20,10.67c.1-.65.19-1.31.3-2a119.69,119.69,0,0,1,22.53-11.39,86.57,86.57,0,0,1,19.16-5.22A33.92,33.92,0,0,1,113.86,246c11.46,5,19.32,15.2,26.77,24.82a123.88,123.88,0,0,0,12.64,14.62,71.54,71.54,0,0,0,14.89,10.79A74,74,0,0,0,180,301.38Z"/><path class="cls-3" d="M126.78,302.56l-1.55-.1c-.19-.71-.41-1.41-.64-2.11-5.27-15.65-20-27.23-36.6-27.9a37.12,37.12,0,0,0-29.11,12.79c-.38-.32-.75-.66-1.1-1a38.9,38.9,0,0,1,9.89-8.17,37.65,37.65,0,0,1,23.16-4.89A42.21,42.21,0,0,1,126.78,302.56Z"/><path class="cls-8" d="M160.32,94.54c-6,7.58-21.66,17-35.2,15.58-18.89-2-24.09-12.05-21-19.57,5-1.3,8.53-2.08,8.53-2.08s12.12-14.22,34.46,0A55.87,55.87,0,0,0,160.32,94.54Z"/><path class="cls-9" d="M146.69,94.77s-20.23,16.76-36.33,0l4.92-13.57,3.24-9,2.27-6.27L147,63.28A89.32,89.32,0,0,0,146.69,94.77Z"/><path class="cls-4" d="M140.21,72.43c-12.5,12.92-22.9,13.78-26.17,12.15l4.48-12.37Z"/><path class="cls-9" d="M150.26,56.4a25.87,25.87,0,0,1-.61,2.88A18.25,18.25,0,0,1,147,64.84a59.51,59.51,0,0,1-6.79,7.66c-4.73,4.77-11.59,5.88-18,5-16.91-2.29-16.84-14-13-31.23,2.36-10.69.14-17.1,3.42-20.93h0l.63-.49A24.57,24.57,0,0,1,131,20.17c1.21.14,2.36.31,3.47.52l.74.14.3.06.82.18.58.14q.66.15,1.29.33C151.42,25.25,153.65,34,153,42.13,152.56,47.7,150.79,53,150.26,56.4Z"/><path class="cls-4" d="M143.65,21.07s-6.59-3.48-8.94-1.15-.1,9.2-5.18,10.08c-4.75.83-5.2-4.28-9.08-2.93-2.7.93-1.35,5-4.08,7.36-3,2.62-5.1-2.84-8.06,7.92-1.42,5.16-7.43-3.07-3.62-12.23S124.81,5.76,143.65,21.07Z"/><path class="cls-10" d="M132.74,52.39c-.14.92-1.69,1.45-3.47,1.17s-3.1-1.25-3-2.17,1.7-1.45,3.47-1.17S132.89,51.47,132.74,52.39Z"/><path class="cls-10" d="M108.31,50.62a4.8,4.8,0,0,0,2.43,1c1.77.28,3.33-.25,3.47-1.17s-1.18-1.9-3-2.18a5,5,0,0,0-2.53.21Z"/><path class="cls-4" d="M128.56,38.05c-1.1.52-2.74.57-3.36-.72a1.66,1.66,0,0,0-2.06-1,1.63,1.63,0,0,0-1,2.06,5.6,5.6,0,0,0,7.44,2.68l0,0a1.66,1.66,0,0,0,1-2.06,1.63,1.63,0,0,0-2.06-1Z"/><path class="cls-4" d="M117.44,36.86a3,3,0,0,1-3.22,1.58c-2.06-.3-2.56,2.88-.51,3.18A6.25,6.25,0,0,0,120,38.87c1.14-1.71-1.37-3.73-2.52-2Z"/><path class="cls-4" d="M143.48,60.2a9.43,9.43,0,0,0,6.17-.92A18.25,18.25,0,0,1,147,64.84,9.44,9.44,0,0,1,143.48,60.2Z"/><path class="cls-4" d="M136.66,51.05c3.14,2.5,5.58-8.84,12.58-9.62a5.74,5.74,0,0,1,3.76.7c-.44,5.57-2.21,10.9-2.74,14.27a22.29,22.29,0,0,1-.6,2.81c3.67-6.58,7.84-14.37,9-17.75a12.42,12.42,0,0,0,.49-2c-.13-.2-.26-.39-.4-.57a12.75,12.75,0,0,0-2.09-2.19,16.54,16.54,0,0,0-4.17-2.46A35,35,0,0,0,138,31.93C138.53,37.05,134.1,49,136.66,51.05Z"/><path class="cls-4" d="M132.76,24.14s4.41,2.41,5.08,6.24a23.23,23.23,0,0,1-.11,7.58s12.66,1.82,15.37.48,2.54-10,2.54-10-16.89-11.17-21.8-9.34S132.76,24.14,132.76,24.14Z"/><path class="cls-10" d="M116.88,66.68a3.49,3.49,0,0,0,3.73,0c.6-.41-.06-1.31-.66-.9a2.48,2.48,0,0,1-2.61-.15c-.65-.33-1.1.69-.46,1Z"/><path class="cls-4" d="M120.31,61.19a2.9,2.9,0,0,0-3.08,0c-.49.34.06,1.08.55.75a2,2,0,0,1,2.16.12c.53.27.9-.57.37-.84Z"/><path class="cls-9" d="M138.78,55.2a9.45,9.45,0,0,1,2.42-7.89c2.5-2.78,7-7,10.49-5.9,5.16,1.55,5.05,6.34,3.79,11s-5.38,10.47-11.79,8.44A6.85,6.85,0,0,1,138.78,55.2Z"/><path class="cls-4" d="M145.19,55.33a12.45,12.45,0,0,1,1.29-6c.94-1.61,3.24-3.8,5.33-2.73.7.35,1.38-.68.67-1-2-1-4.22-.09-5.74,1.43-2.19,2.18-2.71,5.29-2.78,8.26a.62.62,0,0,0,.69.54.64.64,0,0,0,.54-.54Z"/><path class="cls-4" d="M119.65,50.43a1.87,1.87,0,0,1-2.43-1.07,1.79,1.79,0,0,1-.13-.76,1.92,1.92,0,0,1,1.34-1.6c.48-.13.75.06,1.19,0,.69-.08.91-.88,1-1.63a6.61,6.61,0,0,0-.74-.28c-.1.49-.24,1-.52,1.11s-1,0-1.5.18a2.57,2.57,0,0,0-1.52,1.85,2.63,2.63,0,0,0,2,3.11,2.65,2.65,0,0,0,1.45-.11C120.31,51,120.12,50.28,119.65,50.43Z"/><path class="cls-3" d="M186.56,139.05c-7.1,17.48-7.83,36.65-6.5,55.24,1.41,19.71,5.15,39.19,5.94,59a129.34,129.34,0,0,1-2.62,33.88c-.22.95,1.25,1.36,1.46.41,4.45-19.59,2.82-39.78.47-59.53-2.28-19.08-5.22-38.23-4-57.5a99.07,99.07,0,0,1,6.71-31c.37-.91-1.1-1.31-1.46-.41Z"/><path class="cls-6" d="M75.13,101.83S9.43,155,4.13,187.3,28.33,268.39,55,265.83,78.13,232,72.4,225.34,48.54,204.58,51,195.7s21.43-33.9,21.43-33.9S85.74,119.91,75.13,101.83Z"/><path class="cls-11" d="M58,246.39s10.15-7,13.12-6.25,22.76,5.27,24.85,8.1-14,1.2-14,1.2,14.52,5.27,13,7.59-17.1-1.51-17.1-1.51,9.48,4.84,10.33,6.88c1.38,3.35-14.62-1.81-14.62-1.81s6.39,7.16,5.56,8.89-11.5,2.16-11.5.08c0-2.4,3.63-1.68,4-2.11s-6.91-2.35-10-3.61C49.21,258.76,58,246.39,58,246.39Z"/><path class="cls-3" d="M50.68,195.87a20.68,20.68,0,0,0-13.26-10.53.44.44,0,0,0-.23.85,19.83,19.83,0,0,1,12.73,10.13c.26.5,1,.06.76-.45Z"/><path class="cls-3" d="M42.31,183.65a20.35,20.35,0,0,1,3.83,7.07.44.44,0,0,0,.85-.24A21.33,21.33,0,0,0,42.93,183C42.57,182.59,41.93,183.22,42.31,183.65Z"/><path class="cls-3" d="M15,164.65A25.16,25.16,0,0,1,3.44,195.87c-.5.27-.06,1,.45.76a26,26,0,0,0,12-32.22c-.21-.52-1.06-.29-.86.24Z"/><path class="cls-6" d="M187.84,102.39s65.7,53.19,71,85.47S234.64,269,208,266.4s-23.12-33.89-17.39-40.49,23.86-20.77,21.43-29.65-21.43-33.9-21.43-33.9S177.23,120.47,187.84,102.39Z"/><path class="cls-11" d="M204.92,247s-10.14-7-13.11-6.25S169.05,246,167,248.8s14,1.2,14,1.2-14.52,5.27-13.05,7.59S185,256.08,185,256.08s-9.48,4.84-10.33,6.88c-1.38,3.35,14.62-1.81,14.62-1.81s-6.39,7.16-5.56,8.89,11.5,2.16,11.5.08c0-2.4-3.63-1.68-4-2.11s6.91-2.34,10-3.61C213.76,259.32,204.92,247,204.92,247Z"/><path class="cls-3" d="M212.29,196.43a20.68,20.68,0,0,1,13.26-10.53.44.44,0,0,1,.23.85h0a19.83,19.83,0,0,0-12.73,10.13c-.26.5-1,.06-.76-.45Z"/><path class="cls-3" d="M220.66,184.21a20.35,20.35,0,0,0-3.83,7.07A.44.44,0,0,1,216,191a21.33,21.33,0,0,1,4.06-7.45C220.4,183.15,221,183.78,220.66,184.21Z"/><path class="cls-4" d="M114.66,45.79a.51.51,0,0,1-.22-1h0l3-1.44L114.6,43a.5.5,0,0,1-.43-.57.49.49,0,0,1,.56-.43l4.57.59a.51.51,0,0,1,.58.43.51.51,0,0,1-.43.57h0l-4.57,2.17A.83.83,0,0,1,114.66,45.79Z"/><path class="cls-4" d="M125.83,45.79h-.21l-4.57-2.17a.51.51,0,0,1-.43-.57.51.51,0,0,1,.58-.43l4.57-.59a.5.5,0,1,1,.12,1L123,43.4l3,1.44a.49.49,0,0,1,.24.66h0A.5.5,0,0,1,125.83,45.79Z"/></g></svg>