<svg id="Layer_1" data-name="Layer 1" xmlns="http://www.w3.org/2000/svg" viewBox="0 0 1203.77 541.61"><defs><style>.cls-1{fill:#8b8654;}.cls-2{fill:#ff725e;}.cls-3{fill:#263238;}.cls-4{fill:#a26760;}.cls-5{fill:#7b4b45;}.cls-6{fill:#455a64;}.cls-7{fill:#fff;}.cls-8{fill:#e0e0e0;}.cls-9{opacity:0.3;}.cls-10{fill:#d3cdb4;}.cls-11{fill:#241e22;}.cls-12{fill:#4d4c35;}.cls-13{fill:#827867;}.cls-14{fill:#333;}</style></defs><path class="cls-1" d="M610.2,518.4c-.32,1-.65,1.89-1,2.82h-2.58c.45-1.14.87-2.29,1.26-3.46a1.15,1.15,0,0,1,1-.82,1.27,1.27,0,0,1,1.2.53A1,1,0,0,1,610.2,518.4Z"/><path class="cls-1" d="M609.88,521.22h-2.57c-.16-2.79-.25-5.53-.29-8.2,0-.39,0-.78,0-1.16,0-1.68,2.57-1.39,2.59.26,0,.15,0,.3,0,.45C609.63,515.36,609.72,518.27,609.88,521.22Z"/><path class="cls-2" d="M531.31,196.84s26.92,14.61,31.5,32.9S583.47,319,583.47,319l69.15,55.18-58.73,13.6s-70.26-58-71.53-67.57S531.31,196.84,531.31,196.84Z"/><path class="cls-3" d="M528.76,275.2a34.78,34.78,0,0,1-.14-6.05c.07-3.74.31-8.9.66-14.59.36-5.54.68-10.55.94-14.56.25-3.72.4-6,.54-6a34.78,34.78,0,0,1,.14,6.05c-.07,3.74-.31,8.9-.66,14.59s-.68,10.55-.94,14.55A43.16,43.16,0,0,1,528.76,275.2Z"/><path class="cls-3" d="M504.94,30.26A42.64,42.64,0,0,0,483.77,5c-11-5.64-24.22-6.12-36.31-3.34s-23.27,8.61-33.83,15.13c-5.92,3.66-11.82,7.66-16,13.23-7.62,10.17-15,26.72-15.37,39.42-.32,10.27,4.34,35.82,8.94,45,1.63,3.27,5.47,6.17,10.08,8.6a87.22,87.22,0,0,0,19.27,24l6.54-20.85Z"/><path class="cls-3" d="M377.79,157c-5-18.51-2.8-41.3-2-57.14s-2.72-22.67,9.21-49.2c8.93-19.86,23.7-31.91,37.78-39.21l56.83,6.19c-.4-1-.81-2-1.23-2.9l20.31,3c7.46-.9,12.63,2.65,16.24,8.38a22.84,22.84,0,0,1,3.14,4.56c2.68,5.23,3.58,11.17,4.43,17a134.15,134.15,0,0,1,1.23,17.36c.16,2.3.31,4.31.46,5.88a26.87,26.87,0,0,1-.63,7.54c-.83,24.41-4,51.32-1,71.59.32,2.12.61,4.39-.33,6.32s-3.16,3.25-5.23,4.23c-25.2,12-43-2.39-67.93-15-4.85-2.44-9.81-5.4-15.23-5.2-5.74.22-10.5,15.25-15.76,17.56Z"/><path class="cls-4" d="M404.14,64.31c.65-15.4,10.24-28.28,25.05-32.52l46.19-13.2c20.05-2.74,34.18,21.61,36.07,41.75,2.11,22.38,3.68,46,1.54,62.83-4.31,33.81-30,38.88-30,38.88s.45,16,.71,25.83L461.32,295.67l-46-115.74L404,64.72C404,64.15,404.11,65.08,404.14,64.31Z"/><path class="cls-3" d="M502.58,87.93a4.32,4.32,0,0,1-4,4.48A4.13,4.13,0,0,1,494,88.66a4.31,4.31,0,0,1,4-4.48A4.14,4.14,0,0,1,502.58,87.93Z"/><path class="cls-3" d="M506.78,73.67c-.52.58-3.86-1.74-8.51-1.59s-8,2.59-8.49,2c-.26-.24.26-1.27,1.71-2.4a11.89,11.89,0,0,1,6.78-2.32,11.45,11.45,0,0,1,6.79,2C506.52,72.41,507,73.41,506.78,73.67Z"/><path class="cls-3" d="M460.76,87.93a4.32,4.32,0,0,1-4,4.48,4.13,4.13,0,0,1-4.57-3.75,4.32,4.32,0,0,1,4-4.48A4.13,4.13,0,0,1,460.76,87.93Z"/><path class="cls-3" d="M462.68,74.93c-.52.58-3.86-1.74-8.5-1.59s-8,2.58-8.5,2c-.25-.24.26-1.27,1.71-2.4a11.89,11.89,0,0,1,6.78-2.32,11.45,11.45,0,0,1,6.79,2C462.42,73.66,462.94,74.67,462.68,74.93Z"/><path class="cls-3" d="M478.24,111c0-.26,2.84-.85,7.5-1.59,1.18-.16,2.29-.43,2.47-1.25s-.28-2.12-.9-3.49l-3.78-8.92c-5.27-12.7-9.12-23.16-8.6-23.37s5.19,9.92,10.46,22.63l3.64,9c.49,1.34,1.3,2.84.75,4.64a3,3,0,0,1-1.89,1.79,7.74,7.74,0,0,1-2,.34C481.18,111.13,478.26,111.24,478.24,111Z"/><path class="cls-5" d="M438.06,151.35s11.61,22.8,45.19,18.62l-.22-7.92A84.79,84.79,0,0,1,438.06,151.35Z"/><path class="cls-3" d="M460.75,58.19c-.42,1.28-5.08.82-10.5,1.65s-9.79,2.44-10.55,1.33c-.34-.53.39-1.74,2.13-3a18.52,18.52,0,0,1,16-2.27C459.89,56.62,460.92,57.59,460.75,58.19Z"/><path class="cls-3" d="M504.86,59.51c-.79,1.08-4,.08-7.87.15s-7.08.93-7.86-.15c-.35-.53.14-1.6,1.53-2.64a11.36,11.36,0,0,1,12.67,0C504.72,57.91,505.2,59,504.86,59.51Z"/><path class="cls-3" d="M501.44,29.88c-2.21-5-7.85-7.89-13.31-8s-10.74,2.1-15.39,5C453,39,443.53,67.26,424.07,79.81c-4.78,3.08-11.2.57-15.23,4.59s-6.54,10.33-4.1,15.48c-2.76-3.57-5.56-7.21-7.2-11.42s-2-9.16.18-13.13c1.63-3,4.59-5.37,5.33-8.72.65-3-.6-6-.56-9s1.41-5.95,2.84-8.67C412.69,35,423,22.3,436.53,14.2a56.88,56.88,0,0,1,29.31-8.48c10.29,0,20.68,3.54,28.41,10.35,4.55,4,9.32,8.14,7.19,13.81Z"/><path class="cls-4" d="M409.45,88.55c-.39-1-18.12-6.78-17.82,11.88.29,18.13,18.48,14,18.5,13.52S409.45,88.55,409.45,88.55Z"/><path class="cls-5" d="M404.41,107.19c-.09-.06-.32.22-.85.48a3.13,3.13,0,0,1-2.36.09c-1.92-.66-3.59-3.67-3.75-6.94a10.54,10.54,0,0,1,.8-4.54,3.65,3.65,0,0,1,2.33-2.47,1.61,1.61,0,0,1,1.88.83c.25.5.15.87.24.9s.39-.31.23-1.06a2.08,2.08,0,0,0-.74-1.12,2.33,2.33,0,0,0-1.75-.43c-1.4.12-2.63,1.43-3.25,2.87a10.75,10.75,0,0,0-1,5.08c.19,3.65,2.12,7,4.76,7.74a3.37,3.37,0,0,0,2.88-.54C404.38,107.62,404.47,107.22,404.41,107.19Z"/><path class="cls-6" d="M402,79.45a8.53,8.53,0,0,0,1.08-.65c.68-.46,1.73-1.07,3-2a62.81,62.81,0,0,0,9.53-9.19,176.1,176.1,0,0,0,11.52-15.88c4.11-6.12,8.61-12.89,14.42-19a56.46,56.46,0,0,1,9.44-7.9,46.36,46.36,0,0,1,10.29-5,51.54,51.54,0,0,1,19.13-2.91A49.21,49.21,0,0,1,493.29,19c1.5.41,2.62.87,3.39,1.14a6.78,6.78,0,0,0,1.2.39,7,7,0,0,0-1.13-.54,31,31,0,0,0-3.36-1.3,46.5,46.5,0,0,0-13-2.43A51.25,51.25,0,0,0,461,19a46.89,46.89,0,0,0-10.48,5.06,57,57,0,0,0-9.59,8c-5.89,6.24-10.39,13.07-14.46,19.2a188.39,188.39,0,0,1-11.34,15.94,67.42,67.42,0,0,1-9.28,9.3c-1.21,1-2.23,1.63-2.88,2.13A5.89,5.89,0,0,0,402,79.45Z"/><path class="cls-7" d="M402.44,110.45a3.55,3.55,0,1,0,.85.24Z"/><path class="cls-3" d="M403.29,110.69a4.91,4.91,0,0,1,1.7,2.39,3.1,3.1,0,0,1-.63,2.87,3.17,3.17,0,0,1-5.62-1.62,3.09,3.09,0,0,1,1-2.76,4.73,4.73,0,0,1,2.71-1.12s-.29-.18-.86-.18a3.79,3.79,0,0,0-3.6,4.17,3.9,3.9,0,0,0,7,2,3.65,3.65,0,0,0,.6-3.53,3.69,3.69,0,0,0-1.44-1.91C403.63,110.69,403.31,110.65,403.29,110.69Z"/><path class="cls-3" d="M406.67,84.44c-.14,5-.22,10.19,2.19,14.53s8.27,7.16,12.5,4.58c3.46-2.11,4.38-6.64,4.86-10.65,1.39-11.6,1.84-23.29,3.33-34.87Z"/><path class="cls-6" d="M496.73,21.38c0,.11-1.61-.25-4.52-.26a30.84,30.84,0,0,0-11.93,2.53,40.06,40.06,0,0,0-7.4,4.08,80.12,80.12,0,0,0-7.58,6.14,92.43,92.43,0,0,0-14.71,16.8c-2.21,3.29-4.16,6.68-6.28,9.82a46,46,0,0,1-7,8.37,81.18,81.18,0,0,1-15,10.69c-4.57,2.58-8.4,4.41-11,5.67l-3.06,1.41a5.19,5.19,0,0,1-1.1.43,4.88,4.88,0,0,1,1-.62l3-1.58c2.58-1.37,6.35-3.29,10.85-5.94a83.19,83.19,0,0,0,14.74-10.74,45.9,45.9,0,0,0,6.84-8.25c2.09-3.11,4-6.49,6.26-9.83a90.82,90.82,0,0,1,14.93-16.92A78.55,78.55,0,0,1,472.4,27,39.57,39.57,0,0,1,480,23a29.91,29.91,0,0,1,12.21-2.26,20.89,20.89,0,0,1,3.36.37A5.73,5.73,0,0,1,496.73,21.38Z"/><path class="cls-5" d="M459.75,122.69a20.26,20.26,0,0,1,1.3-5.06,2,2,0,0,1,3-1.5c3.81,1.24,8.69,3.49,12.5,4.72a9.39,9.39,0,0,1-1.88,7.55c-1.23,1.58-4.45,2.23-6.45,2.21-2.9,0-5.27-.78-7.14-3A6.86,6.86,0,0,1,459.75,122.69Z"/><path class="cls-3" d="M473.09,128.86c-.11-.25-2,1.43-5.59,1.11a7.79,7.79,0,0,1-5.23-2.64,8.21,8.21,0,0,1-1.64-6.86,6.51,6.51,0,0,1,1.64-3.22c.75-.77,1.73-.58,2.87-.13l6,2.44c3.42,1.36,5.59,2.11,5.68,1.93s-1.93-1.25-5.27-2.86l-5.91-2.75a6.15,6.15,0,0,0-2-.53,3.17,3.17,0,0,0-2.27.85,7.65,7.65,0,0,0-2.1,4,9.35,9.35,0,0,0,2,8,8.63,8.63,0,0,0,6.17,2.79,8.3,8.3,0,0,0,4.41-1.05C472.76,129.4,473.14,128.92,473.09,128.86Z"/><path class="cls-2" d="M388.55,193.53l26.77-13.6,10.29,9.52A37.2,37.2,0,0,0,483.53,180h0l47.78,16.87-7.87,185.25-154.66-14.9-5.44-141.27Z"/><path class="cls-8" d="M564,480.4c1.88,12.93,3.85,27,5.66,40.82H351.69c.58-8.45,1.16-15.15,1.75-19.53,2.64-19.65,7.57-40.63,11.81-56.62,4.2-15.79,7.72-26.72,7.72-26.72l2.46-50.52.07-1.57,0-.27.08-1.62,0-.57L379.16,291l0-.7v-.05l.3-6.19v0c.21-1.13,3.53-19.33,6.13-33.1,2.56-13.52,7.55-53.16,8.34-59.48a.13.13,0,0,1,0-.06c0-.16,0-.3.05-.41a.06.06,0,0,1,0,0c0-.09,0-.16,0-.22a1.11,1.11,0,0,1,0-.13l0,0,.12-.06h0l.08-.05,10.07-5h0l0,0h0l0,0v.09l-4.61,73.28V259h.21l46.2-1.19,23.05-.6,33.37-.86h.3l0-.27v0l-7.65-71.79v-.15l0-.23.21.08.16.05,6.87,2.49.15.24c9.41,14.58,20.22,60.16,23.26,73.56.54,2.38.84,3.74.84,3.74l1.36,7.63.54,3v0l.09.51h0l11.76,65.92,15.32,85.8s3.17,19.75,7,45.88Q563.42,476.52,564,480.4Z"/><path class="cls-3" d="M394,191a.06.06,0,0,1,0,0c-.08.74-.29,2.66-.67,5.73l-2.27,17.94c-1.05,7.91-2.33,17.73-4.12,29.36s-4.53,25-7.27,40.12q-.44,9-.9,18.89c-.88,18.26-1.85,38.68-2.93,61.12h0c0,.16,0,.33,0,.49,0,.48-.05,1-.07,1.45,0,.07,0,.14,0,.21,0,.53-.05,1.06-.08,1.59q-1.12,23.81-2.41,50.51v.08q-4,13-7.7,26.79-1.09,4.11-2.15,8.29c-3,12.16-5.85,24.77-8,37.86a254.32,254.32,0,0,0-3.31,29.83h-.77a259.18,259.18,0,0,1,3.35-30c2.2-13.11,5-25.73,8.09-37.9.72-2.84,1.44-5.65,2.18-8.44q3.65-13.73,7.7-26.61,1.32-26.68,2.5-50.51c0-.52.05-1,.08-1.56,0-.11,0-.21,0-.31l.09-1.8,0-.64c1.36-27.45,2.57-51.87,3.62-73,0-.71.06-1.42.1-2.12v0c.07-1.44.14-2.87.21-4.28v0h0l.6-3.27c2.55-13.82,5-26.1,6.77-36.85,1.83-11.62,3.14-21.44,4.22-29.34,1.77-13.25,2.77-20.67,3.1-23.13a.13.13,0,0,1,0-.06C394,191.24,394,191.1,394,191Z"/><path class="cls-3" d="M394.07,190.73s0,0,0,0v0c0,.06,0,.13,0,.22C394.06,190.86,394.07,190.79,394.07,190.73Z"/><path class="cls-3" d="M564.22,479q3.06,20.83,5.87,42.21h-.93q-2.61-20.13-5.49-39.78c-.46-3.14-.91-6.27-1.38-9.39q-2.43-16.5-4.92-32.63c-1.77-12-4-23.78-6.06-35.44s-4.12-23.15-6.15-34.5q-2.6-14.6-5.14-28.84-3.37-19-6.64-37.3-2.7-15.18-5.32-29.88l-.3-1.66c-.46-2.58-.92-5.16-1.37-7.72l-.57-2.49c-.38-1.69-.77-3.38-1.15-5.07q-1.75-7.53-3.62-14.89c-2.5-9.8-5.12-19.38-8-28.65-.76-2.31-1.52-4.6-2.27-6.89s-1.61-4.52-2.47-6.73a79.87,79.87,0,0,0-6-12.58l-6.6-2.39c2.74,25.85,5.3,50.1,7.61,71.92l0,.33H503l-33.74.84-22.89.58-46.51,1.16h-.23l0-.23c2.27-35.07,3.89-60.07,4.75-73.44l-4.89,2.4-.46.23-2.32,1.14c-1.31.64-2.15,1-2.48,1.19l.08-.05,2.34-1.2,7.78-3.91.13-.06v.14c-.82,13.31-2.34,38.29-4.49,73.35l46.09-1.23,23.21-.62,33.27-.89c-2.33-21.88-4.94-46.16-7.71-72.05,0,0,0-.06,0-.09l-.06-.55.52.19,7.24,2.61.11,0,.06.1c.13.2.25.41.37.61a81.44,81.44,0,0,1,5.76,12.19c.87,2.22,1.66,4.49,2.48,6.76s1.52,4.59,2.28,6.9c2.94,9.29,5.57,18.88,8.08,28.69q1.89,7.35,3.64,14.89c.2.89.4,1.79.61,2.68.37,1.63.75,3.27,1.12,4.91.35,2,.71,3.94,1.06,5.92.11.6.21,1.2.32,1.8,0,.13.05.27.07.4.12.65.24,1.31.35,2q2.58,14.36,5.22,29.17L541,341.6q2.44,13.69,5,27.73,3,17,6.17,34.5c2.06,11.66,4.31,23.45,6.07,35.45q2.63,17.1,5.23,34.59Z"/><g class="cls-9"><path d="M562.29,472.05c-1.81-2.08-4.49-3.14-7.07-4.12l-165.66-63-15.35,35.55c33.76,2.42,68.73,9.35,98.35,25.72,10.11,5.58,19.39,12.66,29.88,17.49,12.35,5.7,26.07,8.12,39.68,8.16,6,0,12.32-.55,17.09-4.13S566.19,476.56,562.29,472.05Z"/></g><polygon class="cls-4" points="412.71 390.19 504.69 426.56 493.96 457.12 384.53 428.93 412.71 390.19"/><path class="cls-4" d="M496.06,424.06c.24.49,9.52-2.93,30.5,4.15s27.8,4,27.08,9.51-6.59,6.59-12,6.1-12.93-4.88-13.17,4.39.49,9,3.66,12.93,23.18,18.3,23.18,18.3-6.1,6.83-11.71,6.1a52.87,52.87,0,0,1-12.2-3.66s-17.81,2.44-19.28,1.46-26.83-28.72-26.83-28.72Z"/><path class="cls-2" d="M376.52,366.85l3-82.76,10.83-91.46-22.86,11.64a72.06,72.06,0,0,0-37.74,48.61,240.6,240.6,0,0,0-4.61,27.39c-2.85,31-14.8,116.58-10,129.92s55.72,37.62,55.72,37.62l43.44-59.73Z"/><path class="cls-3" d="M341.52,377s.3-.45,1-1.14a26.57,26.57,0,0,1,3.06-2.67,38.5,38.5,0,0,1,25.21-7.79,26.92,26.92,0,0,1,4,.48,4.5,4.5,0,0,1,1.44.4c0,.17-2.11-.18-5.49-.2A42.87,42.87,0,0,0,346,373.69C343.17,375.62,341.64,377.08,341.52,377Z"/><path class="cls-3" d="M353.38,348.08a15.55,15.55,0,0,1,3.93,1.65,65.1,65.1,0,0,1,8.75,5.42,63.37,63.37,0,0,1,7.78,6.73,15.39,15.39,0,0,1,2.75,3.25c-.21.21-4.67-4.51-11.1-9.21S353.25,348.34,353.38,348.08Z"/><path class="cls-3" d="M374.79,258.24a24.63,24.63,0,0,1,1,4.76c.48,2.95,1.08,7,1.69,11.57s1.09,8.64,1.4,11.61a24.87,24.87,0,0,1,.31,4.85,24.55,24.55,0,0,1-1-4.76c-.48-3-1.08-7-1.68-11.57s-1.1-8.63-1.41-11.61S374.65,258.26,374.79,258.24Z"/><path class="cls-3" d="M715.06,242.07c36.47-1.6,82.13-21.39,82.13-21.39s-22.64-24.89-31.63-102.57c-3.06-26.42-5.32-43.48-19-63.12-8.3-11.92-38.23-40.24-85.3-15.21,0,0-20.9-4.11-35,21.71-12.15,22.2,6.69,63.42,3.92,83.91C626.84,170.07,616.59,185,616.59,185s-23,25.57-11.15,54.27,28.81,19.54,46.47,11.71S715.06,242.07,715.06,242.07Z"/><path class="cls-7" d="M736.79,194.21s75.4,27.58,98.93,41.67-36.39,179.5-43.22,208.51-149.39,23.58-148,5.15c7.48-102.71-44.36-147.19-36.36-181.3,5.54-23.66,75.26-61.53,75.26-61.53Z"/><path class="cls-10" d="M702.93,275.24a377.18,377.18,0,0,0,75.86-4.15l-3.88-22.55,1.94,11.28-1.93-11.28c-.94.16-94.15,15.68-137.88-13.6L624.3,254C645.68,268.27,675.32,273.76,702.93,275.24Z"/><path class="cls-10" d="M698.93,332.51a376.81,376.81,0,0,0,75.86-4.14l-3.88-22.56,1.94,11.28-1.94-11.28c-.93.16-94.14,15.68-137.88-13.6l-12.73,19C641.67,325.54,671.32,331,698.93,332.51Z"/><path class="cls-10" d="M694.93,389.79a377.13,377.13,0,0,0,75.85-4.15l-3.88-22.56,1.94,11.28-1.93-11.28c-.94.17-94.15,15.69-137.88-13.59l-12.74,19C637.67,382.82,667.32,388.31,694.93,389.79Z"/><path class="cls-10" d="M690.92,447.06a376.81,376.81,0,0,0,75.86-4.14l-3.88-22.56,1.94,11.28-1.94-11.28c-.93.16-94.14,15.68-137.87-13.6l-12.74,19C633.67,440.09,663.31,445.58,690.92,447.06Z"/><path class="cls-7" d="M626.83,292.73s.85,15.12-15.47,42.46c-19.7,33,28.55,64.8,38.15,72.42S626.83,292.73,626.83,292.73Z"/><path class="cls-7" d="M810.93,510.32s-6.08,5.25-17.64,10.9H663.47q-4.46-1.74-9-3.75l-1.2-.53a274.57,274.57,0,0,1-25.19-12.85L631.38,493l3.14-10.46.78-2.59,5.75-19.14,3.4-11.3,3.58-.66,14.59-2.71h0L669,445l54.87-10.16,19.89-3.68,2.32-.43,18-3.34,7.77-1.44,2.61-.48,24.91-4.61.63-.12s-4.18,23.69,3.67,61.9q1.14,5.61,2.66,11.62a.77.77,0,0,0,0,.19q.3,1.21.63,2.46Q808.75,503.4,810.93,510.32Z"/><path class="cls-11" d="M805,327.57a191.9,191.9,0,0,0-27.79,136.37c.29,1.66-2.3,1.94-2.58.3a194.59,194.59,0,0,1,28.35-138.31c.91-1.4,2.92.25,2,1.64Z"/><path class="cls-4" d="M738.75,203.17s-29.32,30.91-64.33,10.54l.64-19.49.7-21.27.49-14.9,40.46-31.75Z"/><path class="cls-11" d="M710.52,151.49c-13.51,38.58-29.79,53.9-35.83,53.94L675.76,173Z"/><path class="cls-4" d="M730.08,114.25c-3,14.87-6.7,20-16.23,35-8.5,13.4-24.37,21.15-32.7,22.53-30.27,5-45.48-6.15-45.2-47.79.17-25.86-8.13-39.58-2.44-50h0c.4-.49.8-1,1.21-1.44a58,58,0,0,1,38.6-19.61C747.31,45.93,734.37,92.91,730.08,114.25Z"/><path class="cls-3" d="M735.69,108.68s-16.21,5.94-25.27.84-3.53-18.57-10.88-17c-25.68,5.55-2.87-22.15-13.24-19.15s-22.58,11.73-32.69,12c0,0,8-7.21,6.93-13.63,0,0-20,20.48-31.86,20.26,0,0,0-25.5,22.24-37.22s67-11.54,80.49-.49S735.69,108.68,735.69,108.68Z"/><path class="cls-4" d="M701.74,127.62a18.48,18.48,0,0,1,1.35-16.09c3.66-6.36,10.52-16.2,17.68-15.64,10.52.84,12.31,10,11.84,19.56s-6,22.26-19.1,21A13.38,13.38,0,0,1,701.74,127.62Z"/><path class="cls-11" d="M715.89,125.49c-.82-3.81-1.4-7.83-.27-11.66,1-3.41,4.32-8.52,8.68-7.48,1.46.35,2.26-1.86.78-2.22-4.2-1-7.89,1.73-10,5.22-3.09,5-2.65,11.06-1.46,16.61a1.18,1.18,0,0,0,2.31-.47Z"/><path class="cls-12" d="M815.64,521.22H602.48c16.45-30.66,38.19-60.61,38.19-60.61l.38.23c.6.36,1.91,1.13,3.87,2.2a219.7,219.7,0,0,0,80.67,24.1,203.54,203.54,0,0,0,21.12.93l1.72,0h.86c2.56-.06,5.15-.16,7.76-.32h0l.29,0h0a191.26,191.26,0,0,0,45.15-8.32s.43,1.15,1.18,3.25c.9,2.57,2.29,6.58,3.94,11.67a1.07,1.07,0,0,1,.07.19c.26.79.52,1.61.79,2.46C810.65,503.7,813.17,512,815.64,521.22Z"/><path class="cls-1" d="M633.38,478.72c50.6,33.9,115.93,43.54,174.17,25.7,1.59-.48,2.55,1.93,1,2.42a210.47,210.47,0,0,1-140.63-6.77,203.73,203.73,0,0,1-36.14-19.34c-1.38-.93.26-2.94,1.65-2Z"/><path class="cls-1" d="M654.53,470.36A45.3,45.3,0,0,0,647.3,487c-.35,1.63-2.92,1.24-2.57-.4a49.05,49.05,0,0,1,7.78-17.92c1-1.37,3,.28,2,1.65Z"/><path class="cls-1" d="M778.59,486.77a76.18,76.18,0,0,1,2.91,23.79c-.06,1.67-2.63,1.25-2.57-.4a72.11,72.11,0,0,0-2.77-22.44c-.45-1.6,2-2.56,2.43-1Z"/><path class="cls-1" d="M730.78,489.66a57.94,57.94,0,0,1-.15,22c-.33,1.63-2.9,1.24-2.57-.4A56.31,56.31,0,0,0,728.2,490c-.3-1.65,2.28-1.94,2.58-.3Z"/><path class="cls-1" d="M703.81,495.51a6.43,6.43,0,1,1-5.36-7.34A6.42,6.42,0,0,1,703.81,495.51Z"/><path class="cls-11" d="M618.18,319.12a76.76,76.76,0,0,0,4.33-40.57c-.27-1.66,2.32-1.95,2.58-.3a79.44,79.44,0,0,1-4.54,41.94c-.61,1.56-3,.49-2.37-1.07Z"/><path class="cls-11" d="M835.75,511.63c.75,3,1.59,6.16,2.49,9.59h-114q.16-3.42.3-6.71c0-.88.08-1.76.11-2.63.4-9.14.74-17.47,1-24.74q.1-3.36.18-6.4c0-.59,0-1.17,0-1.74a.17.17,0,0,0,0-.1c0-.87,0-1.73.06-2.56.08-4.15.09-8.06,0-11.74h0c-.06-6.48-.31-12.27-.71-17.49-.33-4.48-.78-8.55-1.32-12.28s-1.2-7.32-1.93-10.53c-3.18-14-7.88-22.95-12.62-34.08-.21-.48-.42-1-.62-1.45h0a164.23,164.23,0,0,1-7.42-21.59q-.85-3.18-1.66-6.72a100.17,100.17,0,0,1-1.94-28,178.77,178.77,0,0,1,2.9-22.73c2.09-11.13,5.06-22.61,8.41-34.23l1-3.28c1.9-6.45,3.9-12.95,5.92-19.44,1.13-3.66,2.28-7.31,3.41-11,3.15-10.18,6.23-20.31,8.89-30.26,1.31-4.87,2.52-9.7,3.59-14.46,0,0,2,.23,5.47.75,4.09.6,10.24,1.61,17.58,3.12a286.25,286.25,0,0,1,35.79,9.68h0l.1,0c16.95,5.89,33.85,14.07,45,25.2.76.76,1.47,1.53,2.12,2.32.34.4.66.81,1,1.22l0,.05a27.35,27.35,0,0,1,3.52,6.22s0,0,0,0c4.79,12,.21,25.72-5.18,40.51h0c-4,11.09-8.54,22.77-9.87,34.7-.34,3.07-.7,6.68-1,10.75-3,35.1-5.33,104.65,5.48,161.87.05.29.11.56.16.84h0c.11.58.22,1.16.34,1.73Q833.83,504.09,835.75,511.63Z"/><path class="cls-13" d="M749.28,485.8c0,.74,0,1.49,0,2.24v.24c0,8.3-.13,16.61-.32,24.93,0,.86,0,1.73-.06,2.6,0,1.8-.08,3.61-.13,5.41H746l0-1.24c0-1.39.07-2.78.1-4.17l.06-2.61c.22-8.38.44-16.75.51-25.13,0-.16,0-.32,0-.49,0-.81,0-1.62,0-2.43v-.08c0-4.81,0-9.62-.12-14.43q-.09-3.69-.23-7.41c-.23-5.85-.57-11.71-1.06-17.57q-.6-7.28-1.55-14.51c-.36-2.76-.76-5.52-1.22-8.27-.39-2.36-.81-4.7-1.27-7-1.44-7.29-3.28-14.47-5.23-21.63l-.36-1.31c-.11-.42-.23-.84-.35-1.26-.19-.7-.38-1.4-.58-2.1-2.07-7.53-4.19-15.05-6-22.65-.5-2.11-1-4.22-1.42-6.34a179.36,179.36,0,0,1-3.54-27.67,168.84,168.84,0,0,1,.39-22.93,151.56,151.56,0,0,1,3.58-22.49c1-4,2.11-8,3.44-11.94A117.34,117.34,0,0,1,742.12,252c.71-1.18,1.45-2.35,2.22-3.5s2.95-.08,2.09,1.21c-.46.69-.91,1.39-1.36,2.09a115.3,115.3,0,0,0-11.23,23.59c-1.4,4-2.59,8.08-3.6,12.21a149.88,149.88,0,0,0-3.63,22.24,166.06,166.06,0,0,0-.43,22.95,169.93,169.93,0,0,0,2.28,20.63c.77,4.47,1.72,8.91,2.77,13.31,1.81,7.58,3.92,15.09,6,22.61.25.91.5,1.82.74,2.73.12.42.24.84.35,1.26s.24.88.35,1.31c1.14,4.2,2.23,8.4,3.22,12.63,1.19,5.07,2.18,10.2,3,15.35.44,2.68.83,5.37,1.19,8.06.64,4.89,1.15,9.8,1.57,14.71.44,5.22.77,10.44,1,15.65,0,.63.06,1.26.08,1.89.34,7.59.49,15.19.52,22.8Z"/><path class="cls-3" d="M790.81,211s-24.23,14.57-30.5,39.16-21.4,47.81-43.73,32.59,15.4-69.24,11.55-91.54-14.63-48.79-6.35-54.67S786.46,193.55,790.81,211Z"/><path class="cls-11" d="M674.48,211.91s-9,12-17.67,32.48q-1.12,2.66-2.24,5.51c-1.93,4.91-3.8,10.25-5.51,16a197.74,197.74,0,0,0-6.79,31.57c-.54,4.16-1,8.45-1.23,12.83q-.35,5.65-.35,11.3a314.8,314.8,0,0,0,2.13,35.16l.18,1.65q.38,3.28.76,6.56c.68,5.71,1.42,11.39,2.12,17,1,8.42,2,16.75,2.72,24.95q.46,5.42.71,10.74.15,3.33.2,6.63a157.46,157.46,0,0,1-.56,16.89c-.23,2.59-.53,5.17-.92,7.72-.26,1.72-.55,3.43-.89,5.12-.61,3.05-1.34,6.06-2.22,9a93.23,93.23,0,0,1-4.63,12.43c-.93,2-1.86,4-2.81,5.92-.38.79-.77,1.56-1.16,2.33-1.62,3.23-3.27,6.32-4.94,9.31a320.59,320.59,0,0,1-17.92,28.19H560.88c15-28.75,27.21-54,31.55-67.56a70.7,70.7,0,0,0,3.27-27,91.51,91.51,0,0,0-2-13.23c-2.22-10.16-5.79-19.88-8.8-29.72-.88-2.87-1.71-5.75-2.45-8.66a84.35,84.35,0,0,1-2.92-24.71l0-.58c.08-1.76.2-3.44.35-5,2.77-29.95,15.3-29.92,8.47-59.28-.95-4.06-.18-8.31,1.88-12.64,3.66-7.71,11.39-15.66,20.75-23.17,22.83-18.29,55.35-34,62.16-37.14l.06,0C674.05,212.1,674.48,211.91,674.48,211.91Z"/><path class="cls-13" d="M655.57,227.18a106.71,106.71,0,0,0-9.25,13,113.39,113.39,0,0,0-8.27,16.58q-.82,2-1.56,4.05a165.58,165.58,0,0,0-8.4,36.76c-.1.82-.2,1.64-.29,2.47-.56,5-1,10-1.27,15-.34,5.83-.55,11.7-.67,17.57-.16,7.34-.2,14.69-.24,22,0,1.25,0,2.5,0,3.74h0q0,7.32-.17,14.53c0,.14,0,.27,0,.4s0,.38,0,.57q-.14,6.66-.44,13.19-.15,2.93-.34,5.82c-.38,5.67-.92,11.36-1.67,17-.57,4.25-1.25,8.49-2.1,12.71-.15.78-.31,1.57-.48,2.35q-.54,2.54-1.16,5-.84,3.44-1.84,6.84l-.19.64a161.13,161.13,0,0,1-5.51,15.45,203.28,203.28,0,0,1-11.08,22.69c-9,15.94-19.54,31-30.64,45.64H567A460.49,460.49,0,0,0,594.61,481a208,208,0,0,0,16.47-33.15c.81-2.11,1.57-4.23,2.29-6.38q.66-2,1.26-4,1.33-4.36,2.38-8.8c.38-1.54.73-3.08,1-4.63.18-.8.34-1.6.5-2.4.47-2.37.89-4.76,1.26-7.15,1-6.44,1.74-12.93,2.23-19.43.26-3.5.46-7,.62-10.5s.25-6.74.32-10.11c0-.64,0-1.28,0-1.92a5.61,5.61,0,0,0,0-.58c.09-4.31.13-8.61.15-12.92v-.87c.06-10.44,0-20.88.39-31.31q.21-6.6.65-13.19c.17-2.65.39-5.3.64-7.95l.12-1.17c0-.14,0-.28,0-.42s0-.15,0-.22v0c.25-2.39.53-4.78.86-7.17a174.12,174.12,0,0,1,8.66-36.87c.27-.77.56-1.55.86-2.31a118.79,118.79,0,0,1,8.83-18.41,103.48,103.48,0,0,1,9.61-13.68C654.87,224.28,656.56,226,655.57,227.18Z"/><path class="cls-11" d="M838.12,238.22c-36.58-3.28-60,4.66-66.33,57.08-4.45,36.67,39.14,105,39.14,105a2.57,2.57,0,0,1-1.25,1.77c.66,1.53,1.28,3.09,1.81,4.7a51.25,51.25,0,0,1,5.69,19c.65,2.28,1.39,4.53,2.19,6.76,6.53,13.84-10,74.68-3.73,88.64,3.25,5.61,21-6.08,22.6,0,15.23-3.25,37.16-39.14,46.91-48.41C943.86,417,838.12,238.22,838.12,238.22Z"/><path class="cls-13" d="M804.05,315.47c4.72,30.88,9.94,61.4,14.69,92.25,5.58,36.19,10.21,72.92,14.21,110,.38,3.52-2.23,5-2.62,1.5-4-37.08-8.62-73.8-14.2-110-4.76-30.84-10-61.37-14.69-92.25-.53-3.45,2.09-4.93,2.61-1.49Z"/><path class="cls-13" d="M794.92,340.61A40.58,40.58,0,0,0,808.44,353a1.2,1.2,0,0,1-1.21,2.08,43.16,43.16,0,0,1-14.4-13.27c-.88-1.28,1.21-2.49,2.09-1.22Z"/><path class="cls-11" d="M668.22,134c0-.21-2.37-.13-6.14.15-1,.09-1.87.09-2.15-.5a4.74,4.74,0,0,1,.09-2.85l1.38-7.54c1.86-10.72,3-19.46,2.58-19.52s-2.3,8.57-4.17,19.29q-.64,3.95-1.25,7.56c-.15,1.11-.52,2.42.23,3.69a2.31,2.31,0,0,0,1.79,1,6.33,6.33,0,0,0,1.63-.1C666,134.61,668.25,134.16,668.22,134Z"/><path class="cls-11" d="M688.4,100.57c-.31-1-4-.73-8.39-1.48s-7.79-2.1-8.42-1.24c-.29.41.27,1.38,1.64,2.42A15,15,0,0,0,686,102.34C687.68,101.79,688.53,101.05,688.4,100.57Z"/><path class="cls-11" d="M649.54,102.68c-1.08-.35-3.32,1.9-6.5,3.74s-6.18,2.83-6.38,3.94c-.07.52.76,1,2.33,1a12.73,12.73,0,0,0,10.38-6.19C650.08,103.82,650,102.86,649.54,102.68Z"/><path class="cls-11" d="M685.06,142.06c-.08.14-.86-.2-2.17-.39a9,9,0,0,0-8.88,3.71c-.78,1.06-1.09,1.86-1.24,1.81s-.06-.93.62-2.21a8.37,8.37,0,0,1,9.66-4C684.43,141.36,685.12,142,685.06,142.06Z"/><path class="cls-11" d="M691,114.92c.12,0,0,.62-.48,1.4a7.45,7.45,0,0,1-6,3.33c-.91,0-1.45-.2-1.44-.33,0-.31,2.17-.26,4.36-1.51S690.71,114.77,691,114.92Z"/><path class="cls-11" d="M651,125.31c.1.09-.16.59-.84,1.15a6.59,6.59,0,0,1-6.51.94c-.81-.35-1.2-.75-1.13-.86.14-.27,2,.6,4.36.22S650.83,125.1,651,125.31Z"/><ellipse class="cls-11" cx="645.5" cy="117.28" rx="2.96" ry="5.71" transform="translate(-10.52 125.4) rotate(-11.01)"/><ellipse class="cls-11" cx="682" cy="111.4" rx="2.96" ry="5.71" transform="translate(-8.72 132.26) rotate(-11.01)"/><rect class="cls-14" x="13.1" y="520.03" width="1190.66" height="2.38"/></svg>