<svg xmlns="http://www.w3.org/2000/svg" viewBox="0 0 678.16 339.59"><defs><style>.cls-1{isolation:isolate;}.cls-2{fill:#fff;}.cls-3{fill:#ffbe9d;}.cls-4{fill:#eb996e;}.cls-15,.cls-5{fill:#455a64;}.cls-6{fill:#ff725e;}.cls-7,.cls-9{fill:#e1b6a4;}.cls-8{fill:#3c5660;}.cls-12,.cls-15,.cls-16,.cls-9{mix-blend-mode:multiply;}.cls-15,.cls-16,.cls-9{opacity:0.5;}.cls-10{fill:#35474f;}.cls-11,.cls-12{fill:#b5d8eb;}.cls-13{fill:#4b6071;}.cls-14,.cls-16{fill:#3c5462;}.cls-17{fill:#13375b;}</style></defs><g class="cls-1"><g id="Layer_1" data-name="Layer 1"><path class="cls-2" d="M575.59,249.12a248.43,248.43,0,0,1-15.79,87.46c-.37,1-.76,2-1.15,3H94.3c-.39-1-.77-2-1.15-3a248.66,248.66,0,0,1-15.79-87.46C77.36,111.54,188.9,0,326.48,0S575.59,111.54,575.59,249.12Z"/><path class="cls-3" d="M198.41,146.39l10.26,8.13s16.94,1.42,17.9-3c.81-3.68-12.12-8.53-12.12-8.53s-7.33-1.93-10.22-4.26S198.41,146.39,198.41,146.39Z"/><path class="cls-4" d="M204.23,138.78c-2.89-2.33-5.82,7.61-5.82,7.61l.85.67c3.77,2.06,10.48-1.24,10-5.72A20.1,20.1,0,0,1,204.23,138.78Z"/><path class="cls-3" d="M182.17,131.79c-.31.14,9.71,13.81,16,14.16s13.37-4.36,13-9.06c-.4-5.21-13.05-18.1-21.16-16.89S182.17,131.79,182.17,131.79Z"/><path class="cls-5" d="M182,115.29A18.5,18.5,0,0,0,178.81,126c-1.49,1.82-2.89,5-1.48,11.17,1.74,7.62,9,10.9,14.95,10.26a16.63,16.63,0,0,1,10.11,2.07s-4.09-4.71-5.43-5.82a9.69,9.69,0,0,0-2.68-1.69c-2.5-1-1.06-4.61-1.74-6.76-.53-1.65-3-4.24-3.89-6.94l-.32-2.42s.61-4.19,3.47-5.93S185.8,109.72,182,115.29Z"/><path class="cls-3" d="M194.46,137.58c1.44,1.45,1.94,3.31,1.1,4.14s-2.69.34-4.14-1.12-1.94-3.3-1.1-4.14S193,136.13,194.46,137.58Z"/><path class="cls-6" d="M282.17,148.78s-47.07-6.43-53.51-5.72-22.9,6.49-21.23,14.92,38.23,40.67,77.87,36Z"/><polygon class="cls-3" points="243.85 166.53 261.81 175.44 257.67 191.72 229.99 178.85 243.85 166.53"/><path class="cls-7" d="M163.91,147.06A8.32,8.32,0,0,1,169,141c8.7-3.66,18.38.46,27,4.42,26.51,12.21,9.57,26.06,3.63,24.78C193,168.28,182.46,166.33,176,164c-4-2-5.06-5.58-6.91-9.15C164.7,153.21,163.37,150.19,163.91,147.06Z"/><path class="cls-8" d="M281.34,145s79,11.65,83.82,12.6,38.54,4,43.66,6.68,17.77,10.84,26.8,7.22,17.32-9.63,23.41-3.61,21.28,27.4,21.28,27.4-49.21,8.43-67,9.93-26.9,6.33-49.43,0-16.1-9.93-45.06-4.81-56.75,6.32-61.07-.6S270.08,146.47,281.34,145Z"/><path class="cls-6" d="M244.26,165.89s-19.94-13-27.23-14.17-13.35,6.11-12.58,12.79,31.13,15,31.13,15Z"/><path class="cls-5" d="M163.91,147.06A8.32,8.32,0,0,1,169,141c8.7-3.66,18.38.46,27,4.42,26.51,12.21,9.57,26.06,3.63,24.78C193,168.28,182.46,166.33,176,164c-4-2-5.06-5.58-6.91-9.15C164.7,153.21,163.37,150.19,163.91,147.06Z"/><path class="cls-9" d="M190.43,150.91c-8.38-3.86-17.79-7.87-26.32-4.68a8.34,8.34,0,0,0-.2.83c-.54,3.13.79,6.15,5.22,7.74,1.85,3.57,2.93,7.1,6.91,9.15,6.42,2.38,16.91,4.33,23.56,6.21a7.28,7.28,0,0,0,4.47-.92C206.34,164.34,204.51,157.39,190.43,150.91Z"/><rect class="cls-10" x="196.51" y="148.63" width="10.73" height="131.16" rx="1.41" transform="translate(-73.68 317.68) rotate(-67.28)"/><path class="cls-11" d="M477.24,192.3H264.39L168.6,151a11.39,11.39,0,1,0-9,20.91l99.06,42.73a11.31,11.31,0,0,0,4.88.91v6.07H477.24A14.65,14.65,0,0,0,491.89,207h0A14.66,14.66,0,0,0,477.24,192.3Z"/><path class="cls-12" d="M477.24,221.61h.19c12.82-.16,13.76-19.28,1-20.59-.5-.05-1-.07-1.51-.07H264.08l-95.79-41.32a11.34,11.34,0,0,0-8.23-.3,6.76,6.76,0,0,0-.57,12.53l.09,0,99.06,42.73a11.31,11.31,0,0,0,4.88.91v6.07Z"/><rect class="cls-10" x="339.47" y="191.68" width="3.2" height="150.41" transform="translate(-14 514.84) rotate(-72.97)"/><rect class="cls-10" x="339.47" y="191.68" width="3.2" height="150.41" transform="translate(185.75 671.15) rotate(-107.03)"/><path class="cls-10" d="M471.86,152.07h-186a5.61,5.61,0,0,0-5.61,5.62v47.2a5.62,5.62,0,0,0,5.61,5.62h16.18v11.1h4.36v-11.1H447.63v11.1H452v-11.1h19.87a5.62,5.62,0,0,0,5.61-5.62v-47.2A5.61,5.61,0,0,0,471.86,152.07Zm-152,54.08H291.6a5.62,5.62,0,0,1-5.61-5.62V182.81h33.87Zm0-27.3H286v-16.8a5.61,5.61,0,0,1,5.61-5.62h28.26Zm110.56,27.3H323.82V182.81h106.6Zm0-27.3H323.82V156.43h106.6Zm41.35,21.68a5.62,5.62,0,0,1-5.61,5.62H434.38V182.81h37.39Zm0-21.68H434.38V156.43h31.78a5.61,5.61,0,0,1,5.61,5.62Z"/><rect class="cls-13" x="146.14" y="236.87" width="355.35" height="13.08"/><rect class="cls-10" x="171.64" y="283.82" width="319.24" height="9.05"/><rect class="cls-10" x="226.04" y="249.95" width="6.04" height="33.87"/><rect class="cls-10" x="445.95" y="249.95" width="6.04" height="33.87"/><circle class="cls-14" cx="189.64" cy="324.66" r="12.34"/><path d="M196.24,324.66a6.6,6.6,0,1,1-6.6-6.6A6.59,6.59,0,0,1,196.24,324.66Z"/><path class="cls-6" d="M174.07,305.64s-.47,6.15,6.09,9.48,6.57,6.57,6.57,6.57-.63,5,3,5.09,3.81-4.56,3.49-8.37-3.18-7.73-3.76-8.69-.21-4.08-.21-4.08Z"/><rect class="cls-14" x="171.64" y="302.73" width="18.85" height="4.34"/><rect class="cls-10" x="179.32" y="292.88" width="2.92" height="9.85"/><path class="cls-14" d="M494,324.66a12.34,12.34,0,1,1-12.34-12.34A12.35,12.35,0,0,1,494,324.66Z"/><path d="M488.52,324.66a6.59,6.59,0,1,1-6.59-6.6A6.59,6.59,0,0,1,488.52,324.66Z"/><path class="cls-6" d="M466.13,305.64s-.48,6.15,6.09,9.48,6.56,6.57,6.56,6.57-.63,5,3,5.09,3.33-4.91,3-8.73-2.69-7.37-3.27-8.33-.22-4.08-.22-4.08Z"/><rect class="cls-14" x="463.69" y="302.73" width="18.85" height="4.34"/><rect class="cls-10" x="471.37" y="292.88" width="2.92" height="9.85"/><path class="cls-5" d="M269.64,219.1,155.58,170.16l-1.85,4.9A12.53,12.53,0,0,0,161,191.23l108.64,45.64H475.42A12.53,12.53,0,0,0,488,224.34V219.1Z"/><path class="cls-15" d="M268.6,228.91H487.09a12.42,12.42,0,0,0,.86-4.57V219.1H269.64L155.58,170.16l-1.85,4.9a12.3,12.3,0,0,0-.79,5.21Z"/><rect class="cls-10" x="497.7" y="182.21" width="10.73" height="70.59" rx="5.37"/><rect class="cls-10" x="141.97" y="208.7" width="10.73" height="41.25" rx="5.37"/><path class="cls-13" d="M267.54,211.55h0a8.88,8.88,0,0,1,8.88,8.88V250a0,0,0,0,1,0,0H258.66a0,0,0,0,1,0,0V220.43a8.88,8.88,0,0,1,8.88-8.88Z"/><circle class="cls-10" cx="267.54" cy="221.61" r="6.44"/><rect class="cls-16" x="258.66" y="230.75" width="17.76" height="6.12"/><rect class="cls-17" y="336.58" width="678.16" height="3.02"/></g></g></svg>