<svg id="Layer_1" data-name="Layer 1" xmlns="http://www.w3.org/2000/svg" viewBox="0 0 1243.58 475.51"><defs><style>.cls-1{fill:#b78876;}.cls-2{fill:#aa6550;}.cls-3{fill:#e0e0e0;}.cls-4{fill:#e8505b;}.cls-5{opacity:0.3;}.cls-6{fill:#263238;}.cls-7{fill:#fafafa;}.cls-8{fill:#455a64;}.cls-9{fill:#b28f83;}.cls-10{fill:#826a63;}.cls-11{fill:#ff725e;}.cls-12{fill:#fff;}.cls-13{fill:#2e3552;}</style></defs><path class="cls-1" d="M476.39,158.25c-2.68-8.1,2.15-37.14-4.21-37.2-8.1-.07-5.77,32.83-5.79,35.77s-4.27,2.91-4.11.26c.22-3.81,1.49-41.35-6.62-40.69-4.5.36-3.94,8.56-3.94,8.56s2.52,37.54-1.32,37.73-5.21-21.72-5.53-29.43c-.3-7.39-3.41-10.32-6.81-7.84-3.62,2.64-2.72,24.71-2.53,32.12s1.06,27.72-7.51,17.84-18.79-14.32-22.35-13.63-3.74,5.93-.07,7.64c3,1.37,7.23,5.18,10.33,8.18,2.55,2.47,4.37,5.51,6.3,8.48a40.76,40.76,0,0,1,5.16,12.45,25.33,25.33,0,0,0,12.78,16.37h0l-.4,13.76,39.57-3.44.76-26c.4-19.9,3.89-33.28,6-45.11,3.35-18.87.92-19.46-1.34-19.35C479.74,134.93,479,166.15,476.39,158.25Z"/><path class="cls-2" d="M476.39,183.79a42.58,42.58,0,0,0-5.44,1.35,20.94,20.94,0,0,0-10.27,8.22,20,20,0,0,0-1.82,3.65l-.23.6-.49-.41a33,33,0,0,0-9.17-5.38c-2.5-1-4.09-1.3-4.06-1.43a13.2,13.2,0,0,1,4.26.88,29.49,29.49,0,0,1,9.55,5.23l-.71.2a19.51,19.51,0,0,1,1.89-3.84,20.6,20.6,0,0,1,5.27-5.54,20.18,20.18,0,0,1,5.57-2.8,17.65,17.65,0,0,1,4.11-.8A4.61,4.61,0,0,1,476.39,183.79Z"/><path class="cls-2" d="M470.88,211.61c.1.21-4.08,2-9.6,2.68s-10,0-10-.24,4.46,0,9.86-.69S470.8,211.34,470.88,211.61Z"/><path class="cls-3" d="M364.68,212.79s20.63,10.53,31.48,25.71,43.6,62.21,43.6,62.21l-4.63-71.39,50.6-6.55s14.73,71.9,18.17,96.76c3.22,23.27,1.87,46.16-20.85,58.65-26.81,14.74-57.26-5.16-67.38-12.72-12.58-9.38-35.8-24.68-35.8-24.68Z"/><polygon class="cls-4" points="347.93 473.55 347.93 473.6 265.7 473.6 265.7 473.55 268.07 440.43 268.07 440.42 268.1 440.03 268.2 438.7 268.43 435.49 271 399.46 271.36 394.5 271.79 388.46 271.83 387.89 271.85 387.66 272.04 384.91 275.67 334.18 274.1 324.37 274.02 323.9 256.88 216.95 253.54 196.14 259.63 186.3 261 184.1 261.73 182.92 324.83 187.76 326.45 189.57 339.27 203.89 344.87 378.22 345.01 382.53 345.15 386.9 345.15 386.91 345.17 387.52 345.47 396.9 345.53 398.95 345.57 400.09 345.91 410.8 345.94 411.51 346.58 431.61 346.98 443.98 347.33 454.88 347.93 473.55"/><g class="cls-5"><path d="M269.52,440.44c2.17-2.32,5.73-5.51,8.9-5.57,22.71-.51,45.92-2.78,68.64-3.28l.87,42-11.06-5.17c-.63-4.77-1.43-10.48-5.79-12.52-2.46-1.15-5.35-.7-8-.17-8.2,1.62-16.35,3.74-24.7,4.26s-17.08-.7-24.1-5.26a14.78,14.78,0,0,1-5.76-6.23C267.37,445.87,267.56,442.53,269.52,440.44Z"/></g><path class="cls-3" d="M347.93,473.6v-.05l-.08-18.68v-2.81l-.23-8.13-.93-32.57,0-.71-.32-11.38,0-1.14,0-1.23-.3-10.42V386h0l-.1-3.61-.09-2.93-2.25-79-4.25-96.57-12.82-14.32-1.62-1.81,1.58,1,38.37,24.83.48.31L373.79,242l1.9,20.26.19,2.09,4,43.12,1,11.12.65,6.92.37,4-1.2,11.92-.78,7.75-1.21,12.05-.24,2.35-.12,1.22-2.62,26.06-.63,6.27-.8,8-1.07,10.6L373,419v0l.56,2,4.58,16.05,3.38,11.86,1.64,5.74,5.39,18.89v.05Z"/><path class="cls-6" d="M346.59,321.36a6.46,6.46,0,0,0,.68-1.13l1.8-3.32c.74-1.45,1.47-3.33,2.41-5.46.45-1.08.81-2.27,1.26-3.51s.91-2.57,1.28-4c3.4-11.23,5.66-27.46,5.18-45.35,0-1.39-.1-2.76-.19-4.12l0-.24-.22-.09-6.33-2.66.09.65,6.32-5.08L359,247v-.15c.3-6.75-1.34-12.81-2.88-18.09s-3.34-9.86-4.86-13.61-2.87-6.68-3.82-8.67c-.47-1-.85-1.76-1.11-2.27a4.43,4.43,0,0,0-.44-.76,4.49,4.49,0,0,0,.32.82l1,2.31c.87,2,2.14,5,3.6,8.75s3.15,8.33,4.69,13.61,3.06,11.31,2.75,17.85l.14-.26-6.34,5.06-.51.41.6.25,6.33,2.67-.24-.33c.09,1.34.14,2.71.19,4.08.47,17.82-1.68,34-4.93,45.18-.35,1.42-.81,2.73-1.22,4s-.77,2.43-1.2,3.51c-.89,2.14-1.58,4-2.28,5.49l-1.66,3.38A10.08,10.08,0,0,0,346.59,321.36Z"/><path class="cls-6" d="M375,378.32a8.32,8.32,0,0,0,.34-1.18c.22-.85.5-2,.86-3.41s.8-3.3,1.22-5.43,1-4.54,1.4-7.24,1-5.64,1.38-8.83.82-6.6,1.2-10.19c.65-7.2,1.09-15.14,1.1-23.49s-.51-16.28-1.18-23.48c-.4-3.59-.75-7-1.24-10.19s-.93-6.13-1.42-8.82-1-5.11-1.43-7.24-.86-3.94-1.24-5.42-.65-2.56-.86-3.41a7,7,0,0,0-.36-1.18A9.4,9.4,0,0,0,375,260c.18.85.42,2,.73,3.43s.72,3.32,1.11,5.45.91,4.54,1.31,7.24.93,5.64,1.32,8.82.78,6.58,1.16,10.17c.63,7.18,1.08,15.1,1.12,23.42s-.43,16.23-1,23.41c-.37,3.59-.67,7-1.13,10.17s-.85,6.14-1.28,8.83-.9,5.11-1.29,7.24-.76,4-1.09,5.45-.53,2.59-.71,3.45A6.59,6.59,0,0,0,375,378.32Z"/><path class="cls-6" d="M365.2,451.54a15.7,15.7,0,0,0,1.76,3.64,59.53,59.53,0,0,0,12.32,15.05,16.16,16.16,0,0,0,3.22,2.44,27.88,27.88,0,0,0-2.84-2.85,81.57,81.57,0,0,1-12.23-14.92A30.16,30.16,0,0,0,365.2,451.54Z"/><g class="cls-5"><path d="M345,378.29c-4.27-2.23-9.51-1.07-14,.67s-9,4.05-13.8,4c-6.54-.06-15.83-2.45-19.25-8a74.48,74.48,0,0,1-8.29-20.49c-5.22-24-6.4-45-11.61-69-2.84-13.06-6.44-28.17-11.29-40.63-4.69-12.06-9-24.55-12.73-37,.65,28.15,1.31,56.4,5.66,84.22,2.79,17.89,7.11,35.53,9.46,53.48,2,15.38,2.58,30.9,3.13,46.4l14.64,17.88,40.31.82,21.05-27.15Z"/></g><path class="cls-3" d="M198.92,211.6A49.79,49.79,0,0,0,168.33,247c-11.84,52.19-32.1,121.6-32.41,144-.41,28.52,12.06,48,28.34,51.64,12.88,2.85,129.58-3.54,129.58-3.54l5.51-48.69-94.56-8.7,12.94-72.3-12.8-100.15Z"/><path class="cls-3" d="M278.42,325.91l-3.69,62v.24l0,.55-.34,5.73-1.12,18.85L269.89,440v.09l0,.28h0l-1.09,8.71-3.05,24.49v.05H190.43l0-.05,13-30.54,0-.1.28-.64,14-32.91-2.88-25.9-.07-.62,0-.2L211,348.76l-.12-1-.19-1.73L204.3,288.7l.47-59.8v-.78l.15-18.35v-.5l26.12-10.67,18-9.75.28-.15,11.54-6.24.27.86-.21.38c-.45.79-.9,1.66-1.35,2.6-2.33,5-4.39,11.72-4.39,17a15.7,15.7,0,0,0,.26,3l3,15.47v0Z"/><path class="cls-6" d="M218.49,302.11a3,3,0,0,0-.2.8c-.12.62-.27,1.39-.46,2.32-.39,2.13-.92,5-1.56,8.54-1.28,7.32-3,17.25-4.92,28.22s-3.49,20.93-4.71,28.27c-.55,3.53-1,6.44-1.34,8.57-.13.95-.24,1.72-.32,2.34a3.94,3.94,0,0,0-.07.83,2.8,2.8,0,0,0,.22-.8c.13-.61.28-1.38.47-2.31.4-2.13.93-5,1.59-8.54,1.3-7.22,3.05-17.19,4.93-28.23s3.54-21,4.69-28.26c.55-3.54,1-6.44,1.32-8.58.13-.95.23-1.72.31-2.34A3.06,3.06,0,0,0,218.49,302.11Z"/><path class="cls-6" d="M246.58,190.88a1.08,1.08,0,0,0-.1.29q-.1.35-.24.87c-.19.78-.53,1.91-.84,3.4a107.28,107.28,0,0,0-2,12.87,145.68,145.68,0,0,0-.5,19.64c.26,7.46,1.05,15.72,2.17,24.46l0,.28.27.05,8.55,1.58-.3-.52c-.48,1.31-1,2.72-1.38,4.18-2.78,10.14-1.56,20.4,1,29a91.44,91.44,0,0,0,10,21.62c3.57,5.78,6.79,10.23,9,13.31l2.59,3.51.69.9c.16.2.25.3.26.29a2.21,2.21,0,0,0-.19-.33l-.63-.95-2.47-3.6c-2.14-3.13-5.29-7.62-8.78-13.42a92.65,92.65,0,0,1-9.82-21.53c-2.47-8.51-3.64-18.63-.91-28.58.38-1.44.87-2.82,1.35-4.11l.16-.44-.45-.08L245.53,252l.32.33c-1.15-8.73-2-17-2.26-24.39a150.94,150.94,0,0,1,.32-19.56,119.51,119.51,0,0,1,1.76-12.86c.26-1.5.56-2.64.7-3.43l.18-.88C246.58,191,246.6,190.88,246.58,190.88Z"/><path class="cls-4" d="M246.59,313.54V294.46s-.25-4.71,3.71-3.72,3.22,8.43,3.22,8.43.75,29-1,28.74-2.4-2.48-2.4-2.48V314.28Z"/><path class="cls-6" d="M230.1,314.73c0,.21,4.57.39,10.22.39s10.22-.18,10.22-.39-4.58-.39-10.22-.39S230.1,314.51,230.1,314.73Z"/><path class="cls-6" d="M192.35,222.92a15.67,15.67,0,0,0,2.14.79,48.65,48.65,0,0,1,5.66,2.45,44,44,0,0,1,15.34,13.07,31.46,31.46,0,0,1,3,4.91,30.73,30.73,0,0,1,1.82,5.05,51.42,51.42,0,0,1,1.52,9c.22,2.6.26,4.72.28,6.18a21.38,21.38,0,0,0,0,2.28,8.81,8.81,0,0,0,.25-2.27,56.57,56.57,0,0,0,0-6.23A46.88,46.88,0,0,0,221,249a30.1,30.1,0,0,0-1.81-5.2,32,32,0,0,0-3.08-5,42.39,42.39,0,0,0-15.72-13.1,38.49,38.49,0,0,0-5.82-2.25A11.08,11.08,0,0,0,192.35,222.92Z"/><path class="cls-6" d="M293.84,439.11a4.8,4.8,0,0,1,0-.91c.06-.66.14-1.54.24-2.66.25-2.38.59-5.76,1-10,.94-8.64,2.27-20.8,3.83-35.17l.34.41-35.12-3-59.35-5.23A31,31,0,0,0,187.51,386a34.35,34.35,0,0,0-4.14,2.59l-1,.77a1.75,1.75,0,0,1-.37.25,23.69,23.69,0,0,1,5.37-3.89A30.78,30.78,0,0,1,204.9,382l59.37,5,35.11,3.05.38,0,0,.38c-1.69,14.35-3.12,26.5-4.13,35.13-.52,4.23-.94,7.6-1.23,10l-.36,2.64A5.51,5.51,0,0,1,293.84,439.11Z"/><path class="cls-6" d="M268.44,440.41a11.14,11.14,0,0,1-.28-2.06c-.13-1.32-.26-3.25-.35-5.63a149.86,149.86,0,0,1,3.29-37.07c.51-2.34,1-4.21,1.33-5.49a10.62,10.62,0,0,1,.64-2,9.2,9.2,0,0,1-.33,2.05c-.28,1.46-.65,3.32-1.08,5.53-.88,4.67-1.91,11.17-2.55,18.39s-.77,13.8-.73,18.55c0,2.26.07,4.15.1,5.64A9.53,9.53,0,0,1,268.44,440.41Z"/><path class="cls-6" d="M281.83,425.14A2.06,2.06,0,0,1,283,425a5.21,5.21,0,0,1,3,1.08,5,5,0,0,1,2.06,4.3,5.49,5.49,0,0,1-3.34,4.78,5.4,5.4,0,0,1-5.67-1.34,4.74,4.74,0,0,1-1.13-4.63,5,5,0,0,1,1.8-2.68c.63-.44,1.06-.52,1.07-.48s-.34.24-.87.73a5,5,0,0,0-1.44,2.57,4.14,4.14,0,0,0,1.11,4,4.71,4.71,0,0,0,4.84,1.11,4.82,4.82,0,0,0,2.89-4.06,4.46,4.46,0,0,0-1.68-3.81,5.46,5.46,0,0,0-2.7-1.22A7.7,7.7,0,0,1,281.83,425.14Z"/><path class="cls-6" d="M261.25,182a5.36,5.36,0,0,1-.49.31l-1.5.85-5.85,3.27-22.25,12.31h0l-37.5,15.71a40.21,40.21,0,0,0-18.87,15.59,53.78,53.78,0,0,0-6,12.06,63.09,63.09,0,0,0-3.24,13.7v.05c-6.93,29.66-14.8,63.7-22.42,99.86q-2.46,11.67-4.63,23.08c-.38,1.9-.7,3.8-1,5.69s-.71,3.77-.94,5.65a61.49,61.49,0,0,0-.57,11.24,56.34,56.34,0,0,0,5,21.2,40.8,40.8,0,0,0,5.58,9,31.89,31.89,0,0,0,7.82,6.68A33.35,33.35,0,0,0,173.39,443l19-.39c12.24-.3,23.65-.66,34.06-1l49.32-1.8,13.41-.51,3.49-.11c.78,0,1.19,0,1.19,0s-.41.05-1.19.1l-3.48.2-13.41.66c-11.64.54-28.48,1.28-49.31,2.06-10.41.38-21.82.77-34.06,1.11l-19,.42a34,34,0,0,1-19.46-4.75,32.64,32.64,0,0,1-8-6.83,41.81,41.81,0,0,1-5.7-9.13,57.18,57.18,0,0,1-5.05-21.5,63,63,0,0,1,.57-11.38c.24-1.91.61-3.79.94-5.68s.66-3.8,1-5.7c1.44-7.61,3-15.32,4.63-23.1,7.63-36.18,15.53-70.21,22.52-99.86v.05a63.54,63.54,0,0,1,3.3-13.87,54.61,54.61,0,0,1,6.06-12.19,40.88,40.88,0,0,1,19.2-15.78L231,198.4h0l22.35-12.14,5.91-3.17,1.52-.8Z"/><rect class="cls-6" x="356.53" y="307.44" width="35.67" height="11.12"/><polygon class="cls-6" points="524.15 327.91 405.45 454.52 289.68 455.23 286.94 449.97 401.05 326.33 524.15 327.91"/><path class="cls-3" d="M412,326.33s7.71-.05,10,2.69c2.68,3.22,7.79,10.45-3.39,28.89-4.47,7.37-26.36,32.83-35.37,58.79C374.78,441,378.62,449,378.62,449l83.53-2.61,1.63-3s36.32-98.39,26.69-117C486.05,317.74,411.37,323.18,412,326.33Z"/><path class="cls-7" d="M476,443.85l-89.86.74c-1.07-22.76,6.83-39.28,18.58-58.8,4.5-7.48,10.64-13.88,15.13-21.37a57.79,57.79,0,0,0,8-26c.22-3.64,0-7.6-2.25-10.48s-10.25-3-13.7-1.63a26.17,26.17,0,0,1,13.22-4.88c7.27-.6,66.66-.2,77.72-.12,1.29,0,6.73.69,7.88,1.28,8.05,4.18,9.7,15.15,8.57,23-1.08,7.49-5.72,14.54-11.54,22.43a73.38,73.38,0,0,0-4.64,7.06c-6.13,10.63-23.06,40.43-26.11,50.71C474.56,434.36,476,443.85,476,443.85Z"/><path class="cls-6" d="M476,443.65l-21.64.18-41.33.34-17.34.15-5.81.05a13.6,13.6,0,0,1-3.25,0c-.08,0-.43.07-.49,0s.13-1.67.12-1.86c0-.78,0-1.57,0-2.35,0-1.53.05-3.06.15-4.58a77.77,77.77,0,0,1,3-17.27c3.32-11.34,9.06-21.79,15.11-31.86,3.33-5.54,7.44-10.48,11.25-15.68a64.88,64.88,0,0,0,8.83-15.91,55.94,55.94,0,0,0,3.53-17.67c.1-3.88-.46-9.18-4.53-10.92a15.56,15.56,0,0,0-5.85-1c-1.34,0-4.41-.16-5.55.75-.32.25-.15.34.08.28a2.19,2.19,0,0,0,.53-.37c.61-.41,1.25-.79,1.9-1.14a26.49,26.49,0,0,1,6.93-2.6c4.84-1.09,10.09-.77,15-.81,15.4-.14,30.81-.05,46.21,0l17.78.1a42.37,42.37,0,0,1,8.33.8c4.71,1,7.78,5.71,9.17,10a29.57,29.57,0,0,1,.79,14.47c-1.19,6.1-4.54,11.57-8,16.62-3.16,4.56-6.39,9-9.15,13.77q-2.88,5-5.7,10.06c-4.51,8.06-8.95,16.18-13.07,24.45-3.54,7.12-7,14.14-7.5,22.2a46.67,46.67,0,0,0,.33,10c0,.24.41.14.37-.11a43.19,43.19,0,0,1,3.35-23.9c3.53-8,7.71-15.8,11.91-23.5q5.72-10.53,11.73-20.91c5.83-10.07,15.19-18.85,16.48-31,.81-7.56-.94-18.66-8.9-22.11-2.5-1.08-5.88-1.24-8.59-1.27l-6.49,0q-22.69-.15-45.39-.16c-6.52,0-13,0-19.56.13-5.93.11-11.59.69-16.86,3.76a16.48,16.48,0,0,0-2.07,1.37c-.15.12,0,.39.19.33a17,17,0,0,1,10.69-.15c4.73,1.55,5.23,7.18,5.05,11.46a57.58,57.58,0,0,1-9.52,28.83c-2.78,4.22-6,8.14-9,12.2A125.28,125.28,0,0,0,401.48,391a134,134,0,0,0-11.31,23.83A81.12,81.12,0,0,0,386,444.59a.19.19,0,0,0,.19.2l30.37-.25,48.39-.41L476,444A.2.2,0,0,0,476,443.65Z"/><path class="cls-6" d="M470.72,425.08c0,.23-15.84.41-35.39.41s-35.4-.18-35.4-.41,15.85-.4,35.4-.4S470.72,424.86,470.72,425.08Z"/><path class="cls-6" d="M472.71,413.25c0,.22-15.85.4-35.4.4s-35.39-.18-35.39-.4,15.84-.41,35.39-.41S472.71,413,472.71,413.25Z"/><path class="cls-6" d="M482.22,400.54c0,.23-15.85.41-35.39.41s-35.4-.18-35.4-.41,15.85-.41,35.4-.41S482.22,400.32,482.22,400.54Z"/><path class="cls-6" d="M488.08,388.93c0,.23-15.85.41-35.39.41s-35.4-.18-35.4-.41,15.84-.4,35.4-.4S488.08,388.71,488.08,388.93Z"/><path class="cls-6" d="M492,378.32c0,.22-15.85.41-35.4.41s-35.39-.19-35.39-.41,15.84-.41,35.39-.41S492,378.09,492,378.32Z"/><path class="cls-6" d="M501.53,364.37c0,.23-15.85.41-35.39.41s-35.4-.18-35.4-.41,15.85-.4,35.4-.4S501.53,364.15,501.53,364.37Z"/><path class="cls-6" d="M510.65,351c0,.22-15.85.4-35.4.4s-35.39-.18-35.39-.4,15.84-.41,35.39-.41S510.65,350.8,510.65,351Z"/><path class="cls-6" d="M510,338.33c0,.22-15.85.41-35.4.41s-35.39-.19-35.39-.41,15.84-.41,35.39-.41S510,338.11,510,338.33Z"/><path class="cls-8" d="M401.05,326.33a2.89,2.89,0,0,1,.49.35l1.39,1.1,5.38,4.38.15.12-.13.14c-9.67,10.56-30.61,33.15-54.9,59.2-16.78,18.37-32.93,34.11-44.61,45.46-5.85,5.68-10.62,10.23-13.93,13.36L291.06,454l-1,.92a2.12,2.12,0,0,1-.36.29,1.68,1.68,0,0,1,.31-.35l.95-1,3.73-3.7,13.75-13.54c11.59-11.46,27.64-27.23,44.41-45.61,24.3-26.05,45.37-48.5,55.24-58.88v.25l-5.27-4.5-1.33-1.18A3,3,0,0,1,401.05,326.33Z"/><path class="cls-1" d="M299.24,396h16.94s11.45-10,14.06-10.76c5.45-1.62,19.52-3.34,19.52-3.34l-9.61,10.42h0c-2.22,2.4-6.32,4.57-3.89,4.57h17.62s18-8.65,20.71-7.07c2.25,1.33,3,3.73.73,7.07s-18.1,11.24-19.92,11.85l-5.17,1.52,4.87,1.52,23-8c1.49-.27,3.55-.51,4.22.35a3.07,3.07,0,0,1-.12,4.45c-2.84,2.95-10.4,8.17-10.4,8.17s3.67,5.39.63,8.12-11.85,10.94-11.85,10.94-.91,4.56-3.64,6.69-32.81,2.12-34.94,2.12-14.28-7-14.28-7l-13.2-1Z"/><path class="cls-2" d="M351.64,425.41a9.22,9.22,0,0,0,3.29.44,9.93,9.93,0,0,0,3.59-.63,19.87,19.87,0,0,0,3.92-2.08c2.6-1.69,4.93-3.26,6.6-4.42a16.2,16.2,0,0,0,2.63-2,15.06,15.06,0,0,0-2.9,1.59c-1.74,1.05-4.11,2.56-6.71,4.25a22.27,22.27,0,0,1-3.77,2.07,10.66,10.66,0,0,1-3.38.74C352.91,425.45,351.65,425.29,351.64,425.41Z"/><path class="cls-2" d="M350.26,436.67a3.74,3.74,0,0,0,2.28,1.28,8.49,8.49,0,0,0,6.2-1,26.08,26.08,0,0,0,5-3.75,7.65,7.65,0,0,0,1.71-2c-.16-.19-2.92,2.7-7.08,5.08a8.76,8.76,0,0,1-5.77,1.17A14.63,14.63,0,0,1,350.26,436.67Z"/><path class="cls-2" d="M341.74,411.77c0,.19,2.17.17,4.76-.37s4.58-1.37,4.52-1.55-2.11.34-4.66.86S341.72,411.57,341.74,411.77Z"/><path class="cls-6" d="M226.76,73.77a34.23,34.23,0,0,0-47-12.86c-6.73,3.91-12.33,11-11.88,18.73.43,7.33,5.89,13.24,11,18.48-8.2,3.41-12.3,13.81-9.62,22.27s11.14,14.43,20,15.25,17.74-3,24.12-9.21S223.77,112,226,103.36Z"/><path class="cls-6" d="M198.73,92.68a14.3,14.3,0,0,1-4.5,1.14,21.11,21.11,0,0,1-12.29-2.56,21.49,21.49,0,0,1-6.74-5.63,20.75,20.75,0,0,1-4.09-9.2,25,25,0,0,1,6.43-21.51,28,28,0,0,1,21.08-8.13c7.15.3,13.36,3.19,17.13,7.07a17.12,17.12,0,0,1,5.06,11.43,12.86,12.86,0,0,1-.34,3.43,8.48,8.48,0,0,1-.24.87c-.06.19-.1.28-.12.28a19.4,19.4,0,0,0,.39-4.57,17.1,17.1,0,0,0-5.15-11c-3.71-3.72-9.8-6.48-16.76-6.73a27.41,27.41,0,0,0-20.46,7.94,24.35,24.35,0,0,0-6.29,20.81,20.28,20.28,0,0,0,3.89,8.92A21.84,21.84,0,0,0,194.2,93.5,32.89,32.89,0,0,0,198.73,92.68Z"/><path class="cls-8" d="M208.8,99.48s-.35.3-1.06.7a19.79,19.79,0,0,1-3.17,1.41,26.85,26.85,0,0,1-5,1.25,30.88,30.88,0,0,1-6.31.23,30,30,0,0,1-6.21-1.18,25.93,25.93,0,0,1-4.75-2A19.79,19.79,0,0,1,179.39,98c-.64-.5-1-.8-.94-.85s1.53,1,4.12,2.21a29.26,29.26,0,0,0,4.7,1.78,30.2,30.2,0,0,0,12.2.93,29.71,29.71,0,0,0,4.92-1.06C207.14,100.2,208.73,99.35,208.8,99.48Z"/><path class="cls-8" d="M167.83,80.94a6,6,0,0,1,.62-1.87,10.76,10.76,0,0,1,3.31-4.28,15.61,15.61,0,0,1,7.6-2.55,38.16,38.16,0,0,1,9.78.46,51.63,51.63,0,0,1,16.71,5.77,46.84,46.84,0,0,1,4.54,2.88,8.41,8.41,0,0,1,1.52,1.25,9.62,9.62,0,0,1-1.7-1c-1.07-.66-2.63-1.6-4.63-2.63A56,56,0,0,0,189,73.5a39.68,39.68,0,0,0-9.58-.51,15.52,15.52,0,0,0-7.33,2.27,11.09,11.09,0,0,0-3.36,3.95A18.86,18.86,0,0,1,167.83,80.94Z"/><path class="cls-8" d="M215.49,112.25s-.05.2-.23.53a15.69,15.69,0,0,1-.84,1.41,25.06,25.06,0,0,1-3.93,4.58,26.37,26.37,0,0,1-18.3,7,25.93,25.93,0,0,1-10.73-2.36,19.88,19.88,0,0,1-7.06-5.53,13.11,13.11,0,0,1-2.62-5.46,7.85,7.85,0,0,1-.19-1.63c0-.38,0-.57,0-.58s.1.79.48,2.14a13.93,13.93,0,0,0,2.75,5.17,19.78,19.78,0,0,0,6.94,5.21A26,26,0,0,0,192.2,125a26.92,26.92,0,0,0,10.47-2,27.44,27.44,0,0,0,7.43-4.63A37.92,37.92,0,0,0,215.49,112.25Z"/><path class="cls-8" d="M218.46,120.37a12.86,12.86,0,0,1-1.7,2.08c-1.16,1.28-2.89,3.09-5.17,5.19-1.13,1-2.42,2.16-3.85,3.29a26.93,26.93,0,0,1-4.9,3.2,26.5,26.5,0,0,1-13.07,2.55c-4.75-.28-9.32-1.7-12.58-4.35a22.81,22.81,0,0,1-6.61-8.65,19.93,19.93,0,0,1-1.72-7.14,10.86,10.86,0,0,1,0-2,2.79,2.79,0,0,1,.1-.69,2.26,2.26,0,0,1,.06.7,15.93,15.93,0,0,0,.1,2,21.54,21.54,0,0,0,1.94,6.92,22.77,22.77,0,0,0,6.54,8.3c3.15,2.5,7.54,3.85,12.16,4.13a26.33,26.33,0,0,0,12.7-2.41,26.83,26.83,0,0,0,4.82-3.07c1.43-1.09,2.73-2.16,3.88-3.18,2.31-2,4.09-3.77,5.32-5A25,25,0,0,1,218.46,120.37Z"/><path class="cls-4" d="M231.59,72.84l2.28,1.79c-.92-3.88-5.25-6.33-9.22-5.91s-7.4,3.18-9.51,6.57-3.08,7.34-3.81,11.26c-1.23,6.55-1.84,13.54.77,19.67s9.34,10.94,15.8,9.33,10-8.6,11-15.16A36.72,36.72,0,0,0,231.59,72.84Z"/><path class="cls-6" d="M222.65,102.51c.11.17-2.58,1.54-6.18,1.34a13,13,0,0,1-4.41-1c-1.15-.46-1.48-1.31-1.35-1.33a5.61,5.61,0,0,0,1.55.79,19.32,19.32,0,0,0,4.25.7C219.9,103.23,222.57,102.28,222.65,102.51Z"/><path class="cls-6" d="M225.82,90.94c0,.23-3.36.3-7.49.17s-7.47-.41-7.46-.64,3.36-.3,7.49-.17S225.82,90.72,225.82,90.94Z"/><path class="cls-6" d="M223.32,78.56c0,.27-2.31-.06-5-.31a12,12,0,0,0-3.43.19c-.86.19-1.38.41-1.44.3s.38-.49,1.28-.85a8.62,8.62,0,0,1,3.65-.45C221.19,77.7,223.34,78.39,223.32,78.56Z"/><path class="cls-6" d="M239.18,47.26c-.19-6.54,5.86-11.59,11.95-14s12.85-3.29,18.28-7c4.8-3.23,8-8.27,12.1-12.4A40.26,40.26,0,0,1,349.23,32.4c2.34,9.31.74,20.32-6.6,26.51-8.52,7.18-21.15,5.58-32.07,3.35s-23.27-4.44-32.38,2c-5.5,3.87-8.65,10.16-12,16s-7.58,11.76-13.93,14-15-1.59-15.23-8.31Z"/><path class="cls-6" d="M239.62,50.85c.72,5.48-3.25,10.39-7.19,14.26s-8.41,8-9.11,13.45c-.81,6.41,3.86,12.72,2.51,19-.87,4-4,7.09-5.87,10.73-2.66,5.11-2.79,11.28-1.17,16.8S223,143,226.85,147.26c10.61,11.86,27.51,22.1,43,25.66s31.62,3.58,47.5,2.61c13-.8,28-.21,38.79-18.1,5.62-9.26,8.4-21.58,11.38-32,2.57-9,4.79-18.57,2.12-27.51-1.56-5.21-4.69-9.84-6.22-15.05-1.92-6.51-1.22-13.48-2-20.22a46.41,46.41,0,0,0-66-36.64Z"/><path class="cls-1" d="M261.73,199.73s0,.4.08.58C261.79,200.22,261.77,200.05,261.73,199.73Z"/><path class="cls-1" d="M355.23,73.32C354,54.66,341.59,31.79,323,33.8L265,48.6a11,11,0,0,0-9.77,11.12l6.38,136.92a18.49,18.49,0,0,0,1.61,6.74c4.32,9.5,18.63,33.64,49.74,23.87,7.61-2.4,11.08-10.72,12.59-19.28,0-1,.42-1.91.43-2.88a91.37,91.37,0,0,0,.23-19.23c.11-11.3.1-15.94.1-15.84s23.84-4,28.71-35.13C357.41,119.42,356.58,94.05,355.23,73.32Z"/><path class="cls-1" d="M261.81,200.31c0,.1,0,.08,0,0Z"/><path class="cls-6" d="M345.88,93.54a4,4,0,0,1-3.84,4A3.81,3.81,0,0,1,337.92,94a4,4,0,0,1,3.83-4A3.82,3.82,0,0,1,345.88,93.54Z"/><path class="cls-6" d="M349.75,86.53c-.49.52-3.52-1.71-7.81-1.69S334.5,87,334,86.49c-.23-.23.27-1.17,1.64-2.17a11,11,0,0,1,6.32-2,10.52,10.52,0,0,1,6.22,2C349.55,85.35,350,86.3,349.75,86.53Z"/><path class="cls-6" d="M303.33,93.54a4,4,0,0,1-3.84,4A3.81,3.81,0,0,1,295.37,94a4,4,0,0,1,3.84-4A3.82,3.82,0,0,1,303.33,93.54Z"/><path class="cls-6" d="M307.55,87.42c-.49.52-3.52-1.71-7.81-1.68s-7.44,2.17-7.9,1.65c-.23-.24.26-1.18,1.64-2.18a10.9,10.9,0,0,1,6.32-2,10.45,10.45,0,0,1,6.22,2C307.34,86.25,307.8,87.19,307.55,87.42Z"/><path class="cls-6" d="M323.2,119.23c0-.25,2.65-.71,7-1.28,1.09-.11,2.13-.33,2.31-1.08s-.2-2-.74-3.25q-1.54-4-3.26-8.34c-4.53-11.87-7.81-21.64-7.33-21.82s4.54,9.3,9.07,21.18c1.09,2.93,2.13,5.72,3.13,8.39.41,1.25,1.13,2.66.57,4.3a2.73,2.73,0,0,1-1.8,1.61,7,7,0,0,1-1.86.26C325.92,119.45,323.22,119.47,323.2,119.23Z"/><path class="cls-2" d="M326.28,170a79.08,79.08,0,0,1-41.68-11s10.52,21.52,41.65,18.54Z"/><path class="cls-2" d="M321.41,129.58a7.74,7.74,0,0,0-6.94-2.86,7.05,7.05,0,0,0-4.87,2.63,4.48,4.48,0,0,0-.33,5.12c1.16,1.62,3.58,2,5.63,1.41a16.23,16.23,0,0,0,5.48-3.29,4.79,4.79,0,0,0,1.23-1.27,1.47,1.47,0,0,0,0-1.6Z"/><path class="cls-6" d="M310.58,122.23c.7,0,.71,4.61,4.71,7.91s9,2.78,9,3.43c.07.29-1.1.91-3.2,1a11.61,11.61,0,0,1-7.5-2.6,10.14,10.14,0,0,1-3.66-6.64C309.74,123.35,310.26,122.2,310.58,122.23Z"/><path class="cls-6" d="M309.47,79.9c-.42,1.17-4.71.63-9.75,1.24s-9.1,2-9.77,1c-.3-.5.4-1.6,2-2.73a17.06,17.06,0,0,1,14.88-1.68C308.72,78.43,309.65,79.35,309.47,79.9Z"/><path class="cls-6" d="M348.15,74.11c-.76,1-3.72,0-7.27-.07s-6.57.67-7.26-.35c-.31-.5.16-1.47,1.48-2.4a10.51,10.51,0,0,1,11.7.34C348.06,72.63,348.48,73.63,348.15,74.11Z"/><path class="cls-6" d="M243.24,151a27.62,27.62,0,0,0,32.87-30.55c-1-7.64-5.09-15.41-2.44-22.64,3.5-9.56,16.9-12.5,20.46-22.05,2.07-5.54.21-12,2.56-17.46,2.2-5.11,7.58-8,12.81-10s10.84-3.2,15.24-6.61S331.87,31.83,329,27a294.51,294.51,0,0,0-68,16.52c-5.08,1.89-10.41,4.17-13.41,8.68-3.18,4.78-3,10.95-2.76,16.68q2,41.9,3.91,83.8Z"/><path class="cls-8" d="M245.2,161.65s-.19-.09-.51-.32l-1.38-1.06c-1.2-.94-3-2.34-5.15-4.27a54.65,54.65,0,0,1-7.32-7.69A28.82,28.82,0,0,1,225,135.5c-.92-5.11-.24-11.54,4-16.37,2.09-2.37,4.79-4.14,7.25-6.18a16.92,16.92,0,0,0,5.65-7.71c2.3-6.34,1.27-13.69,2.16-21.19s3.66-15.18,8.82-21.44a29.25,29.25,0,0,1,9.23-7.54c3.53-1.86,7.35-2.63,10.88-3.67a25.42,25.42,0,0,0,9.56-4.71,37.64,37.64,0,0,0,6.93-7.64c3.91-5.55,6.8-11.47,10.52-16.4a36,36,0,0,1,6.13-6.51,23.69,23.69,0,0,1,7.27-4c5-1.71,10.32-1.14,13.82,1.38a12.73,12.73,0,0,1,4.9,9.31,9.22,9.22,0,0,1-1.87,6.41A5.71,5.71,0,0,1,329,30.5a2.83,2.83,0,0,1-.49.33s.12-.17.4-.44a6.44,6.44,0,0,0,1.14-1.28,9.19,9.19,0,0,0,1.56-6.2,12.23,12.23,0,0,0-4.82-8.73c-3.28-2.28-8.29-2.77-13.06-1.08A22.78,22.78,0,0,0,306.83,17,35,35,0,0,0,301,23.33c-3.61,4.85-6.44,10.75-10.4,16.44a38.65,38.65,0,0,1-7.14,7.94,26.65,26.65,0,0,1-10,5c-3.6,1.07-7.32,1.83-10.64,3.59a27.87,27.87,0,0,0-8.79,7.2c-5,6-7.58,13.49-8.55,20.74s.15,14.71-2.31,21.45a18.09,18.09,0,0,1-6.07,8.21c-2.55,2.08-5.19,3.8-7.17,6-4,4.44-4.74,10.51-3.9,15.46a28.18,28.18,0,0,0,5.47,12.5,57.25,57.25,0,0,0,7.06,7.76c2.12,2,3.83,3.44,5,4.45A16.08,16.08,0,0,1,245.2,161.65Z"/><path class="cls-6" d="M371.45,113a7.29,7.29,0,0,0,1.82-3c.68-2.13.42-5.7-1.77-9.13-1.08-1.74-2.54-3.46-4-5.4a19,19,0,0,1-3.58-7,24.65,24.65,0,0,1-.35-8.64c.33-3,.93-6,1.32-9.1a35.49,35.49,0,0,0-2-17.26,38.52,38.52,0,0,0-7.43-12.19A36.46,36.46,0,0,0,348,35.09c-1.94-1.23-3.1-1.78-3.06-1.86a3.55,3.55,0,0,1,.86.36,19.51,19.51,0,0,1,2.36,1.24A33.19,33.19,0,0,1,355.83,41a38.27,38.27,0,0,1,7.71,12.31,35.64,35.64,0,0,1,2.14,17.63c-.39,3.14-1,6.15-1.33,9.08a24.07,24.07,0,0,0,.29,8.38,18.21,18.21,0,0,0,3.4,6.73c1.42,1.94,2.87,3.71,3.95,5.5,2.21,3.61,2.38,7.33,1.58,9.54a6.12,6.12,0,0,1-1.39,2.3A2.69,2.69,0,0,1,371.45,113Z"/><path class="cls-9" d="M675.13,80.93A51.36,51.36,0,0,1,726.22,33.6h2.66c28.67,1.61,43.32,26.87,40.91,55.49l-4.95,114.72c-.08,1.93-19.84,56.84-21.58,57.66L676.74,227,694,203.4l5.48-25.13s-27.57-4.23-28-31.79C671.35,133.17,673.18,105.74,675.13,80.93Z"/><path class="cls-10" d="M699.28,178.23s17.6,1,36.08-10.64c0,0-8.45,19.84-36,17.42Z"/><path class="cls-6" d="M681.81,102.49a3.94,3.94,0,0,0,3.8,4,3.76,3.76,0,0,0,4-3.56,3.93,3.93,0,0,0-3.79-4A3.77,3.77,0,0,0,681.81,102.49Z"/><path class="cls-6" d="M681.08,94.4c.49.51,3.47-1.7,7.7-1.7s7.35,2.11,7.8,1.59c.23-.23-.27-1.15-1.63-2.14a10.87,10.87,0,0,0-6.24-1.91,10.34,10.34,0,0,0-6.13,2C681.28,93.24,680.84,94.17,681.08,94.4Z"/><path class="cls-6" d="M721.54,103.51a3.94,3.94,0,0,0,3.81,4,3.77,3.77,0,0,0,4-3.55,3.94,3.94,0,0,0-3.8-4A3.77,3.77,0,0,0,721.54,103.51Z"/><path class="cls-6" d="M722.71,95.1c.49.51,3.47-1.7,7.7-1.7s7.34,2.12,7.8,1.6c.23-.23-.27-1.16-1.63-2.14A10.75,10.75,0,0,0,730.34,91a10.34,10.34,0,0,0-6.13,2C722.91,93.94,722.47,94.87,722.71,95.1Z"/><path class="cls-6" d="M707.4,126.54c0-.24-2.61-.69-6.88-1.23-1.08-.11-2.1-.32-2.28-1.06s.19-2,.71-3.21l3.18-8.24c4.42-11.73,7.61-21.38,7.14-21.55s-4.44,9.19-8.86,20.93c-1.06,2.89-2.08,5.65-3,8.29-.41,1.23-1.11,2.62-.55,4.24a2.7,2.7,0,0,0,1.78,1.58,7.25,7.25,0,0,0,1.83.25C704.73,126.76,707.39,126.78,707.4,126.54Z"/><path class="cls-6" d="M719.87,129.44c-.69,0-.68,4.56-4.61,7.83s-8.82,2.77-8.86,3.42c-.06.28,1.09.89,3.16.94A11.5,11.5,0,0,0,717,139a10,10,0,0,0,3.57-6.57C720.7,130.55,720.19,129.41,719.87,129.44Z"/><path class="cls-6" d="M721.58,78.51c.42,1.15,4.65.59,9.62,1.18s9,1.94,9.65.9c.29-.49-.41-1.57-2-2.68a16.84,16.84,0,0,0-14.68-1.59C722.32,77.05,721.4,78,721.58,78.51Z"/><path class="cls-6" d="M682.61,82.14c.75,1,3.67,0,7.17-.1s6.48.63,7.16-.38c.3-.48-.17-1.45-1.47-2.36a10.37,10.37,0,0,0-11.54.39C682.69,80.68,682.28,81.67,682.61,82.14Z"/><path class="cls-9" d="M765.66,109.5c.47-.21,18.93-5.64,18.36,13.2s-19.36,14.39-19.38,13.84S765.66,109.5,765.66,109.5Z"/><path class="cls-10" d="M769,129.58c.09-.06.33.24.87.51a3.32,3.32,0,0,0,2.46.12c2-.67,3.78-3.78,4-7.17a10.81,10.81,0,0,0-.78-4.73,3.78,3.78,0,0,0-2.39-2.59,1.67,1.67,0,0,0-2,.84c-.27.52-.16.9-.27.93s-.39-.33-.21-1.1a2.06,2.06,0,0,1,.77-1.16,2.49,2.49,0,0,1,1.83-.43c1.45.15,2.72,1.52,3.34,3a11.06,11.06,0,0,1,1,5.28c-.23,3.8-2.28,7.29-5,8a3.56,3.56,0,0,1-3-.59C769,130,768.89,129.61,769,129.58Z"/><path class="cls-6" d="M753.31,53.49l-78.56,1.73c2.44-5.42,6.81-9.76,11.54-13.35,10.21-7.74,22.76-12.58,35.58-12.8S760.76,44.45,770,53.29c7.43,7.07,7.38,13.18,7.38,13.18,1.18,10.19-4.52,21.77-6.79,31.77-1.16,5.16-3.42,20.76-3.42,20.76h0c-4.33,0-5.94-3.46-5.28-7.74l.81-16.79S748,84,755,64.86C756.11,63.34,758.5,56.34,753.31,53.49Z"/><path class="cls-10" d="M736.82,113.07a.51.51,0,0,0,.19-1,.49.49,0,0,0-.55.41A.48.48,0,0,0,736.82,113.07Z"/><path class="cls-10" d="M728.72,111.26a.54.54,0,0,0,.57-.49.52.52,0,0,0-.34-.66.53.53,0,0,0-.57.48A.54.54,0,0,0,728.72,111.26Z"/><path class="cls-10" d="M723.27,111.13c.26,0,.51-.28.56-.7s-.11-.78-.37-.81-.5.28-.56.7S723,111.1,723.27,111.13Z"/><path class="cls-10" d="M732.85,118.16c.26,0,.47-.13.47-.3s-.21-.3-.47-.3-.47.14-.47.3S732.59,118.16,732.85,118.16Z"/><path class="cls-10" d="M725.43,116.45a.5.5,0,0,0,.51-.48.51.51,0,0,0-.43-.57.51.51,0,0,0-.51.49A.5.5,0,0,0,725.43,116.45Z"/><path class="cls-10" d="M686.8,111.92a.5.5,0,0,0,.56-.42.49.49,0,0,0-.36-.61.53.53,0,0,0-.2,1Z"/><path class="cls-10" d="M681.29,111.43c.25,0,.49-.22.52-.54a.54.54,0,0,0-.41-.63c-.26,0-.49.22-.52.54A.54.54,0,0,0,681.29,111.43Z"/><path class="cls-10" d="M691.67,112.05a.41.41,0,1,0-.38-.49A.45.45,0,0,0,691.67,112.05Z"/><path class="cls-10" d="M687.59,117.57a.51.51,0,0,0,.65-.3.48.48,0,1,0-.86-.38A.51.51,0,0,0,687.59,117.57Z"/><path class="cls-10" d="M682.88,116.64a.43.43,0,0,0,.35-.5.45.45,0,0,0-.56-.26.44.44,0,0,0-.34.51A.43.43,0,0,0,682.88,116.64Z"/><path class="cls-6" d="M770.56,54.36c2-6.88,0-14.54-4.41-20.19a23.11,23.11,0,0,0-18.8-8.69c-3.67.15-7.31,1.19-11,.8-6.8-.75-12-6.2-18.35-8.84-9.82-4.13-22.31-.38-28.25,8.47-2.39,3.57-4,8-7.62,10.23C679,38.08,675,37.92,671.46,39c-7.19,2.16-12.12,9.8-11.74,17.3s5.63,14.38,12.54,17.31,15.15,2.12,21.71-1.53c5.93-3.3,11.24-8.92,18-8.72,7,.2,13.16,6.83,20,5.45,3.61-.72,6.4-3.5,9-6.06s5.69-5.18,9.37-5.4,5.59,4.84,4.27,8.28l15.84-11.26Z"/><path class="cls-8" d="M676.28,45.25a.86.86,0,0,0,.12.27,8.52,8.52,0,0,0,.46.76,12.64,12.64,0,0,0,2.25,2.56,14,14,0,0,0,4.67,2.71,13.33,13.33,0,0,0,7.13.42,14.12,14.12,0,0,0,7.52-4.27c2.15-2.36,3.42-5.51,5.42-8.28a10.93,10.93,0,0,1,3.8-3.44,11.11,11.11,0,0,1,5.21-1.15,11.83,11.83,0,0,1,5.35,1.44,10,10,0,0,1,3.94,4c1,1.73,1.63,3.62,2.77,5.3a6.5,6.5,0,0,0,5,3.06,9.74,9.74,0,0,0,5.48-1.58,20.56,20.56,0,0,0,4.18-3.45c2.42-2.45,4.81-4.89,7.79-5.55A9.9,9.9,0,0,1,755.29,40a13.66,13.66,0,0,1,4.33,5.37,22.51,22.51,0,0,1,1.62,5c.29,1.44.43,2.57.52,3.34a6.92,6.92,0,0,0,.17,1.17.86.86,0,0,0,0-.3c0-.2,0-.5,0-.88a28.39,28.39,0,0,0-.38-3.38A22,22,0,0,0,760,45.14a14,14,0,0,0-4.41-5.62,10.38,10.38,0,0,0-8.35-2c-3.22.69-5.72,3.25-8.14,5.66a20.09,20.09,0,0,1-4.05,3.33A9.1,9.1,0,0,1,730,47.94a5.75,5.75,0,0,1-4.46-2.74c-1.07-1.57-1.74-3.45-2.73-5.24a10.8,10.8,0,0,0-4.23-4.35,12.61,12.61,0,0,0-5.7-1.52,11.84,11.84,0,0,0-5.56,1.24,11.67,11.67,0,0,0-4,3.68c-2,2.88-3.28,6-5.32,8.27a13.64,13.64,0,0,1-7.16,4.17,12.89,12.89,0,0,1-6.88-.31,14,14,0,0,1-4.62-2.52A17.55,17.55,0,0,1,676.28,45.25Z"/><path class="cls-8" d="M662,45.53a4.15,4.15,0,0,0-.32,1.51,11.85,11.85,0,0,0,.4,4.21,14.59,14.59,0,0,0,2.94,5.55,17.14,17.14,0,0,0,6.21,4.52A25.47,25.47,0,0,0,685,62.87a36.23,36.23,0,0,0,4.11-.82,5,5,0,0,0,1.46-.49c0-.12-2.15.41-5.64.78a26.74,26.74,0,0,1-13.33-1.71,17.09,17.09,0,0,1-6-4.29,14.75,14.75,0,0,1-3-5.24A16.58,16.58,0,0,1,662,45.53Z"/><path class="cls-4" d="M881.06,327l-20.78,4.35-.25,0-5.61,1.17-17.66,3.7-1.6.33-15.57,3.26L814.12,341l-.83,23.3-1.19,33.25,0,.81-.5,13.87,11.57,51.62,2.18,9.7H632l.59-11.6.54-10.56,1.93-37.87v-.42l.72-14.14.05-.92.08-1.63.13-2.51.1-1.92.06-1.2,0-.32,0-.42,0-.46.62-12.05,0-.4.39-7.7,0-.44,0-.4.71-13.86-6.6-3.63s-10.81-2.58-21.72-5.37C599,343,588.13,340,587.43,339.14l35.07-90.3a67.88,67.88,0,0,1,24.29-31.5c5.09-3.51,41.3-11.92,47.23-13.94a31.1,31.1,0,0,0-4.21,14.95c0,20,24.36,31.63,47.43,20a46.42,46.42,0,0,0,22.88-27.08L764,199.44l1,.07a117.26,117.26,0,0,1,45.66,12.86,90.47,90.47,0,0,1,22.55,16.39,96.38,96.38,0,0,1,21.29,31.93Z"/><path class="cls-6" d="M788.15,263.85a9.09,9.09,0,0,0,1.14-1.55c.67-1,1.71-2.48,3.05-4.23a72.27,72.27,0,0,1,5-5.87A71.38,71.38,0,0,1,812,240.35a75,75,0,0,1,6.8-3.67c2-.94,3.63-1.65,4.78-2.09a9.59,9.59,0,0,0,1.76-.78,9.54,9.54,0,0,0-1.86.5,50.75,50.75,0,0,0-4.9,1.88,66.09,66.09,0,0,0-6.94,3.56,66.43,66.43,0,0,0-14.82,12,61.63,61.63,0,0,0-4.94,6,49,49,0,0,0-2.87,4.39A9,9,0,0,0,788.15,263.85Z"/><path class="cls-6" d="M796.88,285.41c-.21,0,1.86,21.77,4.61,48.57s5.16,48.53,5.37,48.51-1.86-21.77-4.61-48.58S797.09,285.39,796.88,285.41Z"/><path class="cls-6" d="M651.33,245.1a39.68,39.68,0,0,0,.95-4.41,77.27,77.27,0,0,1,7.31-20.36,39.45,39.45,0,0,0,2.06-4s-.31.31-.76,1-1.07,1.59-1.77,2.8a60.11,60.11,0,0,0-4.61,9.93,60.78,60.78,0,0,0-2.75,10.59c-.23,1.38-.36,2.51-.42,3.29A4.13,4.13,0,0,0,651.33,245.1Z"/><path class="cls-6" d="M647.63,321.15A12.77,12.77,0,0,0,648,319c.18-1.38.4-3.38.64-5.86.49-5,1-11.83,1.26-19.42s.24-14.49.11-19.47c-.07-2.49-.15-4.5-.23-5.89a12.61,12.61,0,0,0-.21-2.16,12.27,12.27,0,0,0-.09,2.16c0,1.53,0,3.52,0,5.9,0,5-.06,11.84-.33,19.43s-.69,14.44-1,19.41c-.17,2.37-.3,4.35-.41,5.88A11.81,11.81,0,0,0,647.63,321.15Z"/><path class="cls-9" d="M628.15,450.44c-8.68,0-16.43-6.25-20.52-13.9s-5.11-16.54-5.52-25.21a205,205,0,0,1,8.34-68l38,6.64L638.12,452.32Z"/><path class="cls-9" d="M649.19,416.45l-9.39-2.74a11.47,11.47,0,0,0-5.43-.24h0a11.42,11.42,0,0,0-5.82,3.08c-3.11,3.06-8.12,8.11-8.83,9.62-1.05,2.21-1.05,6,0,7.42s-2.3,8.63-1.89,11,1,4.81,1.89,5.82,0,4.43,2.1,7a33.57,33.57,0,0,0,4,4.2s25.77,1.2,28.29,0,6.91-5.82,6.91-5.82,2.31-4.21-1.26-4.61l14.68-5.62a3.48,3.48,0,0,0,2.12-4.4,2.43,2.43,0,0,0-1.29-1.42s6.59-2.08,8.11-2.75c3-1.35,4.19-8.43-2.1-7.53-3.33.48-7.83,1.45-7.83,1.45s2.4-3.91-.95-6.24c-2-1.41-11.23.31-11.23.31l-12.06-8.6Z"/><path class="cls-10" d="M645.92,455.13c0,.2,3.5.05,7.62-1.13s7.14-3,7-3.18-3.17,1.33-7.24,2.45S645.9,454.92,645.92,455.13Z"/><path class="cls-10" d="M651.53,446c.05.21,5.41-1,12-2.66s11.83-3.19,11.78-3.4-5.41,1-12,2.67S651.47,445.77,651.53,446Z"/><path class="cls-10" d="M648.48,436.85c0,.21,5.81-1,12.87-2.62s12.76-3.16,12.71-3.36-5.81,1-12.88,2.62S648.43,436.65,648.48,436.85Z"/><path class="cls-10" d="M638.93,425.11a16.27,16.27,0,0,0,3.31,1.06l3.64.93,2.16.54a7.84,7.84,0,0,0,2.48.23,12.91,12.91,0,0,0,2.41-.39l2.17-.49,3.65-.88a15.81,15.81,0,0,0,3.33-1,16.09,16.09,0,0,0-3.44.48l-3.7.72a44,44,0,0,1-4.47.81,16.46,16.46,0,0,1-4.41-.69l-3.69-.79A16.12,16.12,0,0,0,638.93,425.11Z"/><path class="cls-10" d="M637.28,430.05c-.08-.05-.43.26-.71.95a4.35,4.35,0,0,0,1.62,5.19c.63.41,1.1.47,1.13.38s-1.53-1-2.13-2.91S637.47,430.13,637.28,430.05Z"/><path class="cls-10" d="M637.82,440c-.19-.09-.77.95-.69,2.36s.77,2.39,1,2.28-.13-1.08-.19-2.32S638,440.08,637.82,440Z"/><path class="cls-10" d="M637.66,450.82c-.19-.07-.58.63-.39,1.55s.81,1.41,1,1.27-.08-.71-.22-1.42S637.87,450.89,637.66,450.82Z"/><path class="cls-10" d="M634.86,424.52a8.57,8.57,0,0,0,2.48-.13l2.65-.34a10.27,10.27,0,0,1,3.15-.16,7.83,7.83,0,0,1,2.8,1.26c.81.55,1.51,1.15,2.19,1.55a4.07,4.07,0,0,0,2.38.81c0-.12-.89-.38-2.08-1.26s-2.66-2.58-5.19-3.11a8.1,8.1,0,0,0-1.77,0c-.6.06-1.08.17-1.59.26l-2.63.5A7.69,7.69,0,0,0,634.86,424.52Z"/><path class="cls-10" d="M620,450.93a11,11,0,0,0-.65-1.85,14,14,0,0,1-1-5.14,15,15,0,0,1,.55-3.58c.3-1.28.89-2.55,1.22-4.09s-.11-3.23-.32-4.76a8.47,8.47,0,0,1,.84-4.69,22.85,22.85,0,0,1,2.68-4.15c1-1.27,2-2.5,3-3.61a17.29,17.29,0,0,1,6.09-4.77,9.85,9.85,0,0,1,5.12-.77c1.24.16,1.87.5,1.9.42s-.14-.11-.44-.26a6,6,0,0,0-1.41-.45,9.47,9.47,0,0,0-5.37.57,17.12,17.12,0,0,0-6.42,4.8c-1,1.12-2,2.34-3,3.61a22.79,22.79,0,0,0-2.79,4.29,9.12,9.12,0,0,0-.89,5.1c.25,1.67.69,3.13.37,4.54s-.85,2.75-1.14,4.07a15.33,15.33,0,0,0-.48,3.73,13.57,13.57,0,0,0,1.3,5.25A8.05,8.05,0,0,0,620,450.93Z"/><path class="cls-9" d="M706.62,379.17l101.65,16.15-4.51-53.05,56.52-10.93,6.88,78.55,1.19,18a35.17,35.17,0,0,1-14.76,31h0a35.16,35.16,0,0,1-31.2,4.73l-21.84-7.12L694,418.61Z"/><path class="cls-9" d="M645.12,368.23a2.88,2.88,0,0,1,2.9-3.39c5.73,0,21.2.06,26.66,1.61,6.76,1.92,31.94,12.72,31.94,12.72L696,418.59,657.3,419s-14.12-6.49-14.29-9.3a48.13,48.13,0,0,1,.35-5.26l-4.26-2.28c-6.36-4-2.28-11.77-2.28-11.77s-4.37-2.45-4.61-6.87a6.91,6.91,0,0,1,3.41-6.52s-1.75-6.23,1.51-7.91,8.76.48,8.76.48A2.36,2.36,0,0,1,645.12,368.23Z"/><path class="cls-10" d="M642.9,368.88a4,4,0,0,0,1.19.42,33.61,33.61,0,0,0,3.34.71c2.84.51,6.79.94,11.14,1.4a90.2,90.2,0,0,1,11,1.69c2.78.65,4.33,1.51,4.4,1.4a4,4,0,0,0-1.06-.69,19,19,0,0,0-3.2-1.23,67.23,67.23,0,0,0-11.1-1.92c-4.36-.47-8.3-.81-11.14-1.18S642.93,368.77,642.9,368.88Z"/><path class="cls-10" d="M635.63,376.77a9.25,9.25,0,0,0,2.71,1.39,43.64,43.64,0,0,0,7,2c2.8.59,5.36,1,7.22,1.2a12.53,12.53,0,0,0,3,.24c0-.24-4.52-1.06-10.08-2.18-2.78-.59-5.26-1.25-7-1.82A17.24,17.24,0,0,0,635.63,376.77Z"/><path class="cls-10" d="M636.73,390.46c-.07.18,3.55,1.75,8.28,2.82s8.67,1.22,8.68,1-3.84-.71-8.51-1.77S636.81,390.25,636.73,390.46Z"/><path class="cls-10" d="M639.1,402.16c-.08.18,2.7,1.46,6.35,2.33s6.7,1,6.72.82-2.95-.68-6.54-1.55S639.17,402,639.1,402.16Z"/><path class="cls-10" d="M659.25,395.17c0,.08.4.34,1.18.41a4.44,4.44,0,0,0,4.65-3.3c.19-.76.09-1.25,0-1.25s-.42,1.89-2.16,3.13S659.27,395,659.25,395.17Z"/><path class="cls-10" d="M660.06,407.38c0,.2,1.51.3,2.83-.89s1.42-2.72,1.21-2.71-.59,1.17-1.71,2.14S660,407.16,660.06,407.38Z"/><path class="cls-10" d="M664.54,382.57c-.09.2,1,.54,2-.21s1-1.87.74-1.84-.47.71-1.2,1.23S664.57,382.36,664.54,382.57Z"/><path class="cls-10" d="M706.62,379.17s-.09-.06-.3-.16l-.92-.43L701.82,377c-3.14-1.36-7.71-3.32-13.48-5.69-2.89-1.18-6.07-2.47-9.56-3.76a34.64,34.64,0,0,0-5.55-1.72,56.59,56.59,0,0,0-6.14-.76c-4.23-.33-8.7-.48-13.37-.55l-3.55,0h-1.8a3.7,3.7,0,0,0-1.92.4,3.09,3.09,0,0,0-1.65,3.51,1.11,1.11,0,0,0,.44.5,3.48,3.48,0,0,0,.44.27c.29.16.58.29.88.42a14.58,14.58,0,0,0,1.83.63.37.37,0,0,0,.19-.71,38.26,38.26,0,0,0-4.82-1.07,17.29,17.29,0,0,0-5.09-.18,4.63,4.63,0,0,0-2.5,1.08,4.57,4.57,0,0,0-1.24,2.45,12.74,12.74,0,0,0,.33,5.32l.19-.44a7.12,7.12,0,0,0-2.14,1.89,7.6,7.6,0,0,0-1.11,6.89,10.25,10.25,0,0,0,4.43,5.28l-.15-.5a12.14,12.14,0,0,0-1.22,6.73,7.72,7.72,0,0,0,3.64,5.51l0,0,4.27,2.27-.19-.35c-.11,1-.21,2-.28,3,0,.5-.06,1-.07,1.51a6.62,6.62,0,0,0,0,.77,1.91,1.91,0,0,0,.31.84,9.27,9.27,0,0,0,2.2,2.1c.79.57,1.6,1.09,2.41,1.59a103.49,103.49,0,0,0,9.59,5,.3.3,0,0,0,.13,0l28.13-.43,7.78-.16,2-.07a5.47,5.47,0,0,0,.7-.05,3.45,3.45,0,0,0-.7,0l-2,0h-7.78l-28.13.17.13,0a102.37,102.37,0,0,1-9.5-5c-.8-.49-1.59-1-2.35-1.57a8.79,8.79,0,0,1-2-1.91,1.53,1.53,0,0,1-.21-.52q0-.36,0-.72c0-.48,0-1,.07-1.47.08-1,.18-2,.29-3a.36.36,0,0,0-.19-.36l-4.25-2.28h0a7,7,0,0,1-3.3-5,11.41,11.41,0,0,1,1.16-6.28.4.4,0,0,0-.15-.5,9.5,9.5,0,0,1-4.08-4.86,6.82,6.82,0,0,1,1-6.2,6.28,6.28,0,0,1,1.88-1.67.4.4,0,0,0,.19-.44,12.18,12.18,0,0,1-.32-5,3.77,3.77,0,0,1,1-2.05,3.82,3.82,0,0,1,2.09-.89,17,17,0,0,1,4.87.17,39.94,39.94,0,0,1,4.72,1l.19-.71a13,13,0,0,1-1.72-.59,8.65,8.65,0,0,1-.81-.38c-.26-.1-.51-.38-.61-.36a2.88,2.88,0,0,1,.25-1.52,2.63,2.63,0,0,1,1.11-1.13,3,3,0,0,1,1.59-.32h1.8l3.54,0c4.66.05,9.13.18,13.33.48a60.28,60.28,0,0,1,6.08.71,37.79,37.79,0,0,1,5.47,1.66c3.48,1.27,6.67,2.53,9.57,3.67l13.56,5.5,3.63,1.47.95.37A1.2,1.2,0,0,0,706.62,379.17Z"/><path class="cls-10" d="M807.86,395.22c-.14.21,4,2.21,7.51,6.48s4.78,8.66,5,8.57a8.29,8.29,0,0,0-.76-2.88,22.63,22.63,0,0,0-9.07-10.9A8.27,8.27,0,0,0,807.86,395.22Z"/><path class="cls-6" d="M827.88,74.63c4.69-5.92,10.48-11.61,11.68-19.06,1.1-6.85-1.89-14.35,1.18-20.57,3.78-7.65,14.64-9.15,19.35-16.27,2.28-3.44,2.82-7.81,5.07-11.27C869,1.55,876.87-.35,883.9.05s13.89,2.59,20.93,2.74c9.66.2,19.44-3.42,28.83-1.11C944,4.23,950.68,13,957.74,21.37l9.15,9.71a38.28,38.28,0,0,0,6,4.4c3.76,2.17,8,3.6,11.27,6.44,7,6.1,7.05,18.47.08,24.61A18.24,18.24,0,0,1,997.38,83.8c0,4.29-1.61,8.39-2.7,12.53s-1.63,8.74.27,12.58,7,6.29,10.67,4a19.19,19.19,0,0,1-9.83,13.28,11.48,11.48,0,0,0,7.87,3C996.74,148,976,158.63,956,159.68s-39.36-5.59-58.21-12.15l-54.33-11.4c-4.77-.85-7-6.48-7.16-11.32s.82-9.93-1.12-14.36c-2.66-6.08-10-9-12.78-15.06C819.28,88.54,823.2,80.54,827.88,74.63Z"/><path class="cls-6" d="M957.19,117.56c3.31-12.32,6.57-24.72,7.71-37.41s.09-25.82-5-37.53c-.77-1.77-7.13-13.62-9-13.33-1.37.21,2.75,11.35,2.12,12.58-6,11.72-7.14,25.49-5.4,38.56s5.07,24.73,9.57,37.13Z"/><path class="cls-9" d="M955.94,68.91c-.61-32-19.72-58.26-51.66-56.77l-2.95.31a57.16,57.16,0,0,0-51.16,58.24c.68,27.71,1.79,58.31,3.52,73,3.6,30.47,34.62,32,34.62,32S890,200.39,890,200.39l73.6-5.2Z"/><path class="cls-10" d="M888.31,175.73s19.35-.9,38.49-15.94c0,0-7.2,23.21-37.94,23.68Z"/><path class="cls-6" d="M861.81,96.82a4.38,4.38,0,0,0,4.66,4,4.2,4.2,0,0,0,4.08-4.4,4.39,4.39,0,0,0-4.66-4A4.19,4.19,0,0,0,861.81,96.82Z"/><path class="cls-6" d="M858,82.67c.6.51,3.64-2.28,8.33-2.76s8.38,1.5,8.82.87c.23-.28-.43-1.25-2-2.18A12,12,0,0,0,866,77.2a11.53,11.53,0,0,0-6.56,2.91C858.11,81.36,857.73,82.44,858,82.67Z"/><path class="cls-6" d="M904.08,94.34a4.37,4.37,0,0,0,4.66,4,4.19,4.19,0,0,0,4.08-4.4,4.39,4.39,0,0,0-4.66-4A4.19,4.19,0,0,0,904.08,94.34Z"/><path class="cls-6" d="M904.16,79.73c.6.51,3.65-2.28,8.33-2.77s8.38,1.51,8.83.88c.22-.28-.44-1.25-2.05-2.18a12,12,0,0,0-7.14-1.41,11.6,11.6,0,0,0-6.56,2.91C904.25,78.42,903.87,79.5,904.16,79.73Z"/><path class="cls-6" d="M891.14,117.53c0-.27-3-.47-7.77-.57-1.21,0-2.36-.12-2.65-.91s0-2.18.42-3.64l2.58-9.49c3.55-13.5,6-24.55,5.44-24.69s-3.86,10.7-7.41,24.2c-.85,3.32-1.66,6.49-2.43,9.53-.3,1.4-.92,3-.12,4.76a3,3,0,0,0,2.15,1.54,7.73,7.73,0,0,0,2.06.07C888.19,118.09,891.15,117.8,891.14,117.53Z"/><path class="cls-6" d="M905.28,119.32c-.77,0-.24,5.12-4.22,9.2s-9.45,4.08-9.42,4.8c0,.32,1.32.86,3.61.68a12.73,12.73,0,0,0,7.89-3.72,11.06,11.06,0,0,0,3.21-7.68C906.32,120.45,905.62,119.25,905.28,119.32Z"/><path class="cls-6" d="M902.41,60.67c.6,1.23,5.22.13,10.79.21S923.38,62,924,60.78c.27-.59-.63-1.7-2.55-2.75A18.73,18.73,0,0,0,905,58C903.06,59,902.15,60.09,902.41,60.67Z"/><path class="cls-6" d="M858.32,66.88c.94,1,4-.47,7.93-.93s7.25,0,7.89-1.24c.27-.57-.36-1.58-1.9-2.44A11.58,11.58,0,0,0,859.5,64C858.24,65.25,857.9,66.4,858.32,66.88Z"/><path class="cls-9" d="M955.83,91.77c.49-.28,20.31-8.41,21.84,12.52s-19.79,18.15-19.87,17.55S955.83,91.77,955.83,91.77Z"/><path class="cls-10" d="M963.61,113.45c.09-.08.38.22,1,.46a3.65,3.65,0,0,0,2.73-.14c2.15-1,3.76-4.62,3.58-8.4a12.2,12.2,0,0,0-1.4-5.15,4.24,4.24,0,0,0-2.95-2.6,1.86,1.86,0,0,0-2.08,1.16c-.24.61-.07,1-.18,1.06s-.48-.32-.37-1.2a2.32,2.32,0,0,1,.73-1.37,2.75,2.75,0,0,1,2-.68c1.63,0,3.19,1.37,4.05,3a12.46,12.46,0,0,1,1.69,5.74c.18,4.23-1.69,8.33-4.66,9.43a3.94,3.94,0,0,1-3.37-.31C963.68,114,963.54,113.49,963.61,113.45Z"/><path class="cls-6" d="M861.49,35.13c-3.51-1.66,6-13.29,14-17.6,12.22-6.52,31.22-11.28,43-8.73,14.23,3.06,26.29,9.26,34.12,21.53s11.43,26.92,11.95,41.47c.16,4.44,0,9.08-2.12,13-2.63,4.82-8.06,8.1-7.4,14.47a8.77,8.77,0,0,1-1.76,6.53c-3.57,4.33-8.51.8-10.91-2.9-5.13-7.91-6.27-17.67-7.28-27-.72-6.66-1.43-13.47,0-20,.8-3.55,2.23-7,2.83-10.55s.24-7.61-2.15-10.36a12.56,12.56,0,0,0-1.81-1.61,21.88,21.88,0,0,0-21.94-2.73c-11.52,4.93-31.26,12.46-36.78,8.79-7.94-5.27-10-8.91-10-8.91Z"/><path class="cls-6" d="M917.29,6C905.53,2.92,892.45,4,882,10.24c-5.52,3.34-10.38,8.41-11.73,14.72s1.8,13.78,7.92,15.82l.43.23c9.12,2.44,14.85.86,23.57-2.79,7.32-3.08,13.69-8.13,21-11.18a42.74,42.74,0,0,1,24.86-2.33C939.53,16.12,929.05,9.13,917.29,6Z"/><path class="cls-8" d="M995.71,140c0-.08-.74.12-2.12.07a10.73,10.73,0,0,1-5.61-2,13.44,13.44,0,0,1-5.32-7.62c-1-3.57-.84-7.94.24-12.53s3.05-9.48,4.21-15.08a26.91,26.91,0,0,0,.46-8.87A16.88,16.88,0,0,0,984,85.15c-2.18-2.58-5.31-4.14-8.41-5.33s-6.35-2.16-9.16-3.93C960.61,72.43,957,66,954.81,59.18s-3.19-14-5.06-20.64-4.59-13.12-9.34-17.66a25.07,25.07,0,0,0-16.75-6.65,32.7,32.7,0,0,0-15.4,3.41c-8.72,4.43-13.79,10.74-17,15-1.59,2.16-2.69,3.93-3.42,5.14a10.45,10.45,0,0,0-1,1.9,12.73,12.73,0,0,0,1.27-1.73c.81-1.15,2-2.86,3.63-5,3.3-4.09,8.45-10.19,17-14.37a31.92,31.92,0,0,1,14.88-3.11,23.86,23.86,0,0,1,15.83,6.4c4.45,4.3,7.12,10.49,8.87,17s2.72,13.7,5.06,20.73,6,13.78,12.24,17.5c3,1.89,6.38,2.84,9.42,4s5.91,2.59,7.86,4.88a15.53,15.53,0,0,1,3.36,8,25.91,25.91,0,0,1-.37,8.45c-1.07,5.44-3,10.35-4,15.09s-1.16,9.26,0,13a14,14,0,0,0,5.81,7.87,10.56,10.56,0,0,0,5.93,1.81A6.14,6.14,0,0,0,995.71,140Z"/><path class="cls-8" d="M895.26,5.79c0-.15-2.53-.31-6.35,1A24.32,24.32,0,0,0,872.36,31c.21,4,1.29,6.32,1.43,6.27s-.42-2.43-.35-6.28a26.09,26.09,0,0,1,4.37-14,26.13,26.13,0,0,1,11.47-9.2C892.85,6.28,895.29,6.05,895.26,5.79Z"/><path class="cls-8" d="M853.07,26.8c-.36-.15-1.88,3.21-1.59,7.65s2.16,7.59,2.5,7.4-.76-3.39-1-7.49S853.5,26.93,853.07,26.8Z"/><path class="cls-11" d="M1037.87,473.55h-60.6l-.28.14,0-.14H834.55l-.92-8.21-14-125.48-.07-.64-10.81-96.7,0-.32,3.22-1.76,6.44-3.52,4.09-2.24,10.82-5.92,55.07-30.12,1.3-.71.22,0,68.22-13.23,5,1.58,1.05.33,63.6,20.12h0l6.58,2.08-4.67,35.79.57,15.88h0l3.24,90.05v0l.07,2.11h0l.08,2.21v0l.24,6.54v.1l0,.47,0,.56v.05l1.74,48.41.45,12.49.39,10.64,0,.85,0,.85.28,7.78Z"/><polygon class="cls-11" points="888.31 201.45 888.31 189.54 964.38 178.41 963.59 201.45 886.84 209.69 888.31 201.45"/><path class="cls-11" d="M1093.47,403.2,1035.61,411l-5.87.79,1.4-47.8,0-.59v-.6l.46-15.74,0-1.56,0-1.49.32-10.82-5.27-59.16-4.15-46.6,5.08-20.76h0a70,70,0,0,1,15.36,2.54c7.21,2,15.71,5.42,22.68,11.48l.68.59.65.62a84.28,84.28,0,0,1,2.68,8.09c2.34,9.52,5.12,20.27,8.45,32.14.8,2.92,1.64,5.91,2.49,9,0,.91.11,1.82.16,2.75s.11,1.91.16,2.88C1083.27,317.21,1084.89,375.18,1093.47,403.2Z"/><path class="cls-11" d="M856.47,310.41l-2.05,22.07v.09l-1.88,20.23-3.7,67.45-.31,5.71-2,36.81-.59,10.78H833.71c-.48-2.7-1-5.44-1.46-8.22-5.64-31.63-12.66-68.45-19-101-1.54-8-3-15.69-4.47-23-5.67-29.13-10.16-52.06-11.55-60.08-3.68-21.24,4.7-32.65,9-37h0a17.74,17.74,0,0,1,2.36-2l.16.24Z"/><path class="cls-6" d="M855.42,473.55h-.29c-.54-3.84-1.22-8.74-2-14.35-1.33-9.56-2.94-21.21-4.61-33.24-3.61-25.89-7.52-53.56-9.59-66.14-1.34-8.15-2.62-16-3.78-23.22l-.06-.38c-4.12-25.72-6.84-44.19-6.51-44.45s3.7,18.16,8.11,44.14l.06.36c1.18,7,2.44,14.5,3.74,22.35,4.48,27.11,7,48.91,8.34,61.63.52,4.76.89,8.25,1.15,10.27,1.48,11.58,2.66,21,3.6,28.37C854.37,465.08,855,469.91,855.42,473.55Z"/><g class="cls-5"><polygon points="1036.79 423.07 1036.79 443.63 977.27 473.55 976.99 473.69 976.95 473.55 970.93 449.55 943.39 455.12 940.05 442.6 939.67 441.17 981.68 435.28 982.41 435.18 982.9 435.11 983.09 443.9 983.33 455.12 983.93 454.76 985.74 453.67 1036.06 423.51 1036.79 423.07"/></g><path class="cls-11" d="M1107.7,390.21c-1,12.62-38,30.86-71.22,44.79-24.78,10.39-47.5,18.38-51.79,19.87l-.18.06-.55.19-.05-.59v-.2L979,390.92l52.19-27.5,2.69-1.42,1.82-1-2.16-8.39-1.83-7.13-11.56-45h0v0l6.66-26.49,3.42-13.6,12.88-51.22c7.21,2,15.71,5.42,22.68,11.48l.68.59a78.86,78.86,0,0,1,3.54,11.3c2.25,10,6.28,24.68,10.89,41.26C1093,317.31,1109.05,373.51,1107.7,390.21Z"/><path class="cls-6" d="M1108.23,391.38a6.8,6.8,0,0,1-.52,1.71,15.18,15.18,0,0,1-1.75,3c-5.66,7.27-13.62,12-21.45,16.72s-16.28,8.78-24.79,12.79c-7.76,3.6-15.52,7-23.21,10.24-18,7.54-35.59,14.11-52.31,20l-.93.32-.07-1c-1.76-23-3.41-44.71-4.9-64.21l0-.44.39-.21,52.51-27.5,2.66-1.39,1.25-.66c-.51-2-1-4-1.49-5.89h0c-.67-2.69-1.33-5.28-2-7.79-3.14-12.49-5.73-22.75-7.67-30.48-1.27-5.15-2.25-9.14-2.93-11.92-.31-1.31-.55-2.33-.72-3.09a9,9,0,0,1-.2-1v0a10.52,10.52,0,0,1,.33,1l.85,3.05c.74,2.77,1.81,6.74,3.19,11.85,1.86,7.11,4.3,16.38,7.23,27.57.56,2.09,1.13,4.26,1.72,6.49v0q1.3,5,2.72,10.37l.1.38-.36.19-2,1.08-2.73,1.45L979.67,391.3c1.51,19.1,3.19,40.29,5,62.77,16.56-5.88,34-12.43,51.82-19.92q11.23-4.74,22.59-10c8.49-4,16.8-8.11,24.68-12.71s15.68-9.44,21-16.26a10,10,0,0,0,2.23-5.64,47.67,47.67,0,0,0-.23-6.43c-.35-4.3-1.13-8.52-1.81-12.71q-2.45-12.53-5.36-24.39c-6.27-25.5-12.83-48.76-18.5-69.28q-2-7.38-3.9-14.29c-3.25-11.87-6-22.72-8.22-32.22a87.07,87.07,0,0,0-3.15-9.52l.68.59.65.62a84.28,84.28,0,0,1,2.68,8.09c2.34,9.52,5.12,20.27,8.45,32.14.8,2.92,1.64,5.91,2.49,9,6.09,21.75,13.36,46.81,20.24,74.56q3,11.86,5.43,24.46c.7,4.22,1.49,8.47,1.86,12.85a50.85,50.85,0,0,1,.24,6.67A5.6,5.6,0,0,1,1108.23,391.38Z"/><path class="cls-6" d="M1070,365.06c.13-.13-1.52-2-4.94-4a30.32,30.32,0,0,0-29.73-.41c-3.47,1.93-5.17,3.73-5,3.87s2.08-1.26,5.56-2.86a32.76,32.76,0,0,1,28.68.39C1067.93,363.74,1069.81,365.26,1070,365.06Z"/><path class="cls-9" d="M873.27,404.51c3.88-6.1,59.59,0,59.59,0s-21.36-3.61-28-4.44-19.39-2.21-13.29-9.42c4.26-5,40-.22,53.5,1.28-4-2-11.76-5.83-17.7-8.8-3.66-1.83-10.3-8.63-6.76-11.12,4.1-2.87,9.13.55,12.95,2.26l.8.36c1.7.15,3.44.21,5.11.46l3.34-.5c5.54-.83,17.73,7.2,21.33,9.42s15.24,12,15.24,12l3.53,39.06s-34.28,6.52-39,7.9-19.86-9.14-19.86-9.14l-4.24-5.54-4.23-1.66L878.68,412S869.39,410.6,873.27,404.51Z"/><path class="cls-6" d="M940.63,421.23c0-.2-3.23-1.28-8.64-2.63a212.56,212.56,0,0,0-21.41-4.11,216.79,216.79,0,0,0-21.7-1.93c-5.58-.19-9-.05-9,.16s3.43.49,9,1,13.17,1.21,21.55,2.38,15.93,2.56,21.38,3.63S940.57,421.46,940.63,421.23Z"/><path class="cls-6" d="M935.56,432c.11-.43-3.46-1.73-8-2.9s-8.27-1.78-8.38-1.35,3.46,1.72,8,2.89S935.45,432.38,935.56,432Z"/><polygon class="cls-12" points="388.53 473.55 388.54 473.6 190.43 473.6 190.45 473.55 388.53 473.55"/><polygon class="cls-12" points="977.27 473.55 976.99 473.69 976.95 473.55 977.27 473.55"/><rect class="cls-13" y="473.55" width="1243.58" height="1.96" rx="0.98"/></svg>