<svg id="Layer_1" data-name="Layer 1" xmlns="http://www.w3.org/2000/svg" xmlns:xlink="http://www.w3.org/1999/xlink" viewBox="0 0 354.28 324.1"><defs><style>.cls-1{fill:none;}.cls-2{fill:#e8505b;}.cls-3{clip-path:url(#clip-path);}.cls-4{fill:#455a64;}.cls-5{fill:#ffbe9d;}.cls-6{fill:#eb996e;}.cls-7{fill:#263238;}.cls-8{fill:#39b54a;}</style><clipPath id="clip-path"><circle class="cls-1" cx="162.05" cy="162.05" r="162.05"/></clipPath></defs><circle class="cls-2" cx="162.05" cy="162.05" r="162.05"/><g class="cls-3"><path class="cls-4" d="M237.86,135.17l-29.15-4.52-85.66,7.29s-30.63,70.4-28.8,72.36c.92,1,25.24,78.48,25.24,78.48l-1.7,63.78s-8.69,10.73-10.17,18.4c-4.67,24.15,155.57,29.94,159.5,15.58v-234Z"/><path class="cls-4" d="M123.05,137.94s-27,2.74-34.39,20.83S58.57,280.21,58.57,280.21s-3.38,22.46,6.06,34.52c8,10.27,32.61,8.07,47.35,1.36,24.53-11.16,44-85.59,44-85.59l10.61-25.76-39.82-13-18.09,39.14Z"/><path class="cls-4" d="M220.2,132.7c1.47.37,48.23,6.92,56.72,14.67s7.48,76.82,7.48,76.82-7.46,87.07-14.48,92.73S232.19,343.46,215,304c-5-11.51-16.07-25.6-23-40.18a543.32,543.32,0,0,1-22.28-55.65L209,189.75l30.46,51.59-5.52-74Z"/><path class="cls-5" d="M118.9,76.59A41.84,41.84,0,0,1,149.79,29l2.1-.54c23-4.46,39.6,12.56,43.42,35.65l19,91.63a4.21,4.21,0,0,1-1.46,4.12L168.1,196.58l-10.48-48S135,150.79,129.17,129.1C126.36,118.62,122.32,96.58,118.9,76.59Z"/><path class="cls-6" d="M157.44,148.63s14.1-2.71,26.38-15.63c0,0-2.71,17.38-24.92,21Z"/><path class="cls-7" d="M139.81,89.46c-.44-.37-2.68,1.66-6.11,2s-6.13-1.14-6.46-.68c-.16.2.32.92,1.49,1.61A8.89,8.89,0,0,0,134,93.43a8.45,8.45,0,0,0,4.81-2.09C139.74,90.42,140,89.63,139.81,89.46Z"/><path class="cls-7" d="M172.62,85.71c-.5-.28-2.3,2.15-5.6,3.15s-6.22.1-6.46.61c-.12.23.49.84,1.78,1.28a8.75,8.75,0,0,0,5.32,0,8.48,8.48,0,0,0,4.31-3C172.74,86.66,172.86,85.83,172.62,85.71Z"/><path class="cls-7" d="M154.34,109.62c0-.19-2.2,0-5.68.41-.87.13-1.72.16-2-.38a4.5,4.5,0,0,1-.07-2.68q.41-3.41.86-7.15c1.14-10.15,1.74-18.41,1.33-18.45s-1.67,8.15-2.81,18.3c-.26,2.5-.51,4.88-.75,7.16-.07,1.06-.35,2.3.41,3.47a2.23,2.23,0,0,0,1.73.89,6.46,6.46,0,0,0,1.5-.17C152.27,110.33,154.38,109.81,154.34,109.62Z"/><path class="cls-7" d="M170.62,73.12c-.73-.67-3.59,1.29-7.41,2.71s-7.25,1.93-7.34,2.92c0,.47.88,1,2.47,1.2a13.76,13.76,0,0,0,11.24-4.29C170.63,74.45,171,73.45,170.62,73.12Z"/><path class="cls-7" d="M138.69,81.18c-.62-.88-3.59-.48-7-.93s-6.26-1.42-7-.7c-.35.35,0,1.19,1.16,2.11a11.46,11.46,0,0,0,5.53,2.08,11.3,11.3,0,0,0,5.82-.76C138.45,82.35,139,81.61,138.69,81.18Z"/><path class="cls-5" d="M196.13,81.05c.33-.25,13.82-8.24,17.15,6.76s-12.42,15.24-12.54,14.81S196.13,81.05,196.13,81.05Z"/><path class="cls-6" d="M202.75,96.26c.06-.06.3.12.79.23a2.71,2.71,0,0,0,2-.39c1.46-.94,2.23-3.75,1.71-6.47a9,9,0,0,0-1.56-3.58,3.12,3.12,0,0,0-2.41-1.57,1.38,1.38,0,0,0-1.39,1.06c-.1.47.06.74,0,.79s-.37-.18-.39-.83a1.73,1.73,0,0,1,.38-1.07,2,2,0,0,1,1.36-.7,3.77,3.77,0,0,1,3.25,1.72,9.2,9.2,0,0,1,1.83,4c.57,3-.35,6.21-2.38,7.32a2.82,2.82,0,0,1-2.47.13C202.86,96.61,202.71,96.3,202.75,96.26Z"/><path class="cls-6" d="M155.68,80.71c0,.08-.58.29-1.56.17a5.31,5.31,0,0,1-4.65-5.41c0-1,.33-1.55.41-1.52s0,.6.1,1.5a5.55,5.55,0,0,0,4.23,4.93C155.09,80.61,155.67,80.6,155.68,80.71Z"/><path class="cls-7" d="M201.83,57.07c.07.31.17.59.23.9,2.68,12.93-.82,29.7-.82,29.7C191.7,90,189.89,71.44,189.89,71.44,177.11,69.56,177.5,51,174,49s-11.09-6.81-32.84,11.33c-8.44,7.05-21.18,9.77-28.47,9.77l-.64,0a.75.75,0,0,0-.15,0,1.7,1.7,0,0,1-.22,0,22.51,22.51,0,0,1-6.91-1.24,12.83,12.83,0,0,1-6.51-4.6,7,7,0,0,1-.32-7.64,15.38,15.38,0,0,1-5.27-7.08A8.85,8.85,0,0,1,94.07,41c2-2.24,5.66-3,8.08-1.2a7.33,7.33,0,0,1,4.18-10.07c3.76-1.11,7.67,1,11.59,1.21s7.5-1.56,10.65-3.74,6-4.84,9.16-6.91a31.1,31.1,0,0,1,23-4.25c7.82,1.65,14.05,3.61,18.45,10.28,4.76-2.76,11.36-.39,15.75,2.93,0,0,6,3.43,6.54,15.45C201.88,55.38,201.83,57.07,201.83,57.07Z"/><path class="cls-4" d="M103.08,36.12c.06-.07.81.73,2.41,1.83A22,22,0,0,0,113,41.07a33.33,33.33,0,0,0,12.1.21,85.84,85.84,0,0,0,14.4-4A94.93,94.93,0,0,1,154,33,35,35,0,0,1,166.35,33a21.68,21.68,0,0,1,7.74,3,13.73,13.73,0,0,1,1.8,1.37,3.64,3.64,0,0,1,.57.54c-.05.07-.85-.67-2.52-1.67a22.29,22.29,0,0,0-7.68-2.74,35.09,35.09,0,0,0-12.12.22,98.61,98.61,0,0,0-14.37,4.22,81.5,81.5,0,0,1-14.54,4,33.14,33.14,0,0,1-12.32-.37,20.84,20.84,0,0,1-7.58-3.39,14.64,14.64,0,0,1-1.72-1.48A3.09,3.09,0,0,1,103.08,36.12Z"/><path class="cls-4" d="M175.57,42.4c0,.07-.9-.62-2.66-1.46a20.18,20.18,0,0,0-8-1.73,33.49,33.49,0,0,0-12,2.15C148.56,42.9,144,45.23,139,47.3a52.13,52.13,0,0,1-7.46,2.54,35.65,35.65,0,0,1-7.28,1A38.28,38.28,0,0,1,112,49.36a36.3,36.3,0,0,1-7.69-3.28,21.8,21.8,0,0,1-1.92-1.21,2.7,2.7,0,0,1-.63-.48c0-.06,1,.55,2.69,1.45a39.78,39.78,0,0,0,7.69,3,38.87,38.87,0,0,0,12.13,1.34,36.56,36.56,0,0,0,7.14-1.05,52.54,52.54,0,0,0,7.36-2.52c4.93-2.05,9.51-4.38,13.94-5.9a33.49,33.49,0,0,1,12.22-2,19.53,19.53,0,0,1,8.11,2A12.91,12.91,0,0,1,175,41.9,2.87,2.87,0,0,1,175.57,42.4Z"/><path class="cls-4" d="M201.7,43.46A7.07,7.07,0,0,1,199,45.22a14.32,14.32,0,0,1-7.75,1c-3.13-.44-5.51-2-7.29-2.77s-3-.93-3-1a6.41,6.41,0,0,1,3.19.58c1.9.64,4.27,2.12,7.2,2.53a15.42,15.42,0,0,0,7.46-.8C200.62,44.07,201.63,43.35,201.7,43.46Z"/><path class="cls-4" d="M202.05,47.39a8.75,8.75,0,0,1-2.82,1.44,21,21,0,0,1-15-.28A8.41,8.41,0,0,1,181.43,47c0-.11,1.12.45,2.94,1.07a24.74,24.74,0,0,0,7.33,1.28,24.41,24.41,0,0,0,7.37-1C200.91,47.8,202,47.28,202.05,47.39Z"/><path class="cls-6" d="M144.48,76.51c.18-.07.59,1.74-.41,3.64s-2.71,2.62-2.76,2.43,1.25-1.06,2.11-2.76S144.26,76.52,144.48,76.51Z"/><path class="cls-5" d="M161.84,204.15s10.13-26.2,11.46-31,7.28-20.8,6.16-23.78c-1.05-2.8-5,.38-5,.38s7.17-16.56,4.41-19.77c-2.21-2.57-4.48,0-4.48,0s4.53-9.56,0-12c-2.36-1.27-5.82,4.53-5.82,4.53s-3.9-3.76-6.84,1.51-15.12,28.75-15.12,28.75.08-10.72-2.3-17c-1.6-4.25-8.09-6.28-7.56,6.93.35,8.54-6.82,49.32-6.82,49.32Z"/><path class="cls-6" d="M161.84,204.15l-.57-.24-1.65-.66-6.32-2.47-23.3-9,.15.27c1.82-10.46,4-23,5.86-37.07.43-3.53.91-7.15,1-10.91,0-1.92-.07-3.75.13-5.63l.22-1.39c.08-.46.23-.9.35-1.36a4.85,4.85,0,0,1,1.39-2.28,2.23,2.23,0,0,1,2.39-.29,4.58,4.58,0,0,1,2,1.85,11.44,11.44,0,0,1,1,2.7c.28,1,.48,1.93.67,2.91a71,71,0,0,1,1,12.19.36.36,0,0,0,.68.17l7.66-14.57c1.94-3.68,3.85-7.33,5.74-10.92.47-.9.95-1.8,1.41-2.69a7.61,7.61,0,0,1,1.68-2.33,3.06,3.06,0,0,1,2.47-.83,4.58,4.58,0,0,1,2.43,1.17.38.38,0,0,0,.52,0l0,0a14.84,14.84,0,0,1,3.36-4c.67-.47,1.47-.79,2.07-.38a3.52,3.52,0,0,1,1.46,1.82,9.74,9.74,0,0,1-.05,4.94,25,25,0,0,1-1.6,4.75.34.34,0,0,0,.17.45.37.37,0,0,0,.4-.08,2.65,2.65,0,0,1,2.7-.9,2.91,2.91,0,0,1,1.22.86,2.43,2.43,0,0,1,.53,1.36,18.87,18.87,0,0,1-.81,6.35,91.29,91.29,0,0,1-4.11,11.76.32.32,0,0,0,.16.41.33.33,0,0,0,.31,0,6.6,6.6,0,0,1,3-1.45,1.29,1.29,0,0,1,1.27.49,1.53,1.53,0,0,1,.29.68l.07.38v.41a30.77,30.77,0,0,1-1.24,6.49c-1.15,4.19-2.45,8.1-3.64,11.79-2.17,7.46-4.63,13.74-6.52,19l-4.5,12.08-1.18,3.18c-.12.34-.21.61-.29.82s-.08.27-.08.28a1.1,1.1,0,0,0,.13-.26c.08-.21.19-.47.33-.81l1.26-3.15c1.09-2.8,2.66-6.86,4.66-12s4.46-11.49,6.67-18.93c1.21-3.68,2.53-7.6,3.7-11.81a30.43,30.43,0,0,0,1.29-6.63,2.71,2.71,0,0,0-.08-.93,2.06,2.06,0,0,0-.38-.89,1.88,1.88,0,0,0-1.8-.74,7,7,0,0,0-3.33,1.57l.47.36a90.56,90.56,0,0,0,4.18-11.84,19.1,19.1,0,0,0,.84-6.62,3.14,3.14,0,0,0-.69-1.71,3.87,3.87,0,0,0-1.5-1.06,2.88,2.88,0,0,0-1.9,0,4.36,4.36,0,0,0-1.54,1.05l.57.37a25.84,25.84,0,0,0,1.66-4.89,10.31,10.31,0,0,0,0-5.32,4.15,4.15,0,0,0-1.77-2.19,1.9,1.9,0,0,0-1.52-.22,3.75,3.75,0,0,0-1.32.63,15.47,15.47,0,0,0-3.56,4.17l.56-.08a5.4,5.4,0,0,0-2.84-1.36,3.78,3.78,0,0,0-3,1,8.29,8.29,0,0,0-1.84,2.52l-1.41,2.69q-2.84,5.4-5.74,10.93c-2.63,5-5.22,9.91-7.67,14.58l.68.17a71.66,71.66,0,0,0-1-12.33,29.76,29.76,0,0,0-.69-3,12.13,12.13,0,0,0-1.1-2.87,5.21,5.21,0,0,0-2.3-2.13,3,3,0,0,0-3.11.39,5.52,5.52,0,0,0-1.6,2.61,14.48,14.48,0,0,0-.37,1.44l-.23,1.44c-.2,1.92-.07,3.87-.11,5.69-.13,3.7-.6,7.33-1,10.85-1.82,14.08-3.94,26.6-5.69,37.06a.23.23,0,0,0,.15.27L153.36,201l6.31,2.34,1.63.59Z"/><path class="cls-6" d="M155.54,154.31c.19.08,3.25-7,6.84-15.76s6.36-16,6.17-16-3.25,7-6.84,15.77S155.36,154.24,155.54,154.31Z"/><path class="cls-6" d="M163,160.21c.18.07,2.89-6.64,6-15s5.55-15.16,5.36-15.23-2.89,6.63-6,15S162.83,160.14,163,160.21Z"/><path class="cls-6" d="M167.59,168.6a10.27,10.27,0,0,0,1.58-2.51,55.08,55.08,0,0,0,2.92-6.5,53.52,53.52,0,0,0,2.07-6.83,9.77,9.77,0,0,0,.45-2.92c-.21-.05-1.24,4.33-3.19,9.49S167.4,168.49,167.59,168.6Z"/><path class="cls-7" d="M100.92,247.85s.18-.32.49-1,.79-1.67,1.38-2.94L108,232.6l18.52-41,.11-.24.24.09,40,13.55.34.12-.13.33-19.31,48.8c-4,10-7.92,19.83-11.56,29.35A116,116,0,0,1,130,297.29a49.8,49.8,0,0,1-8.53,11.62,47,47,0,0,1-10.9,8.36,39.05,39.05,0,0,1-12.23,4.23,54.54,54.54,0,0,1-12.08.57,41.71,41.71,0,0,1-11-1.88A22.41,22.41,0,0,1,66.57,315a23.38,23.38,0,0,1-5-7.55,48.16,48.16,0,0,1-3.23-14.07,63.16,63.16,0,0,1-.15-9.12,30.52,30.52,0,0,1,.31-3.17s0,.27,0,.81-.09,1.32-.12,2.36a67.08,67.08,0,0,0,.28,9.1A48.46,48.46,0,0,0,62,307.29a23.09,23.09,0,0,0,4.92,7.38,21.76,21.76,0,0,0,8.52,5,41,41,0,0,0,10.86,1.81,53.93,53.93,0,0,0,12-.6,38.64,38.64,0,0,0,12-4.2A46.37,46.37,0,0,0,121,308.44,49.25,49.25,0,0,0,129.39,297a116.5,116.5,0,0,0,6.13-13.63c3.62-9.52,7.59-19.31,11.54-29.36,6.83-17.2,13.37-33.7,19.35-48.78l.21.45-40-13.66.35-.15c-7.77,17.12-14.21,31.17-18.75,40.92-2.26,4.87-4.06,8.67-5.3,11.24-.63,1.28-1.11,2.26-1.46,2.91A4.7,4.7,0,0,1,100.92,247.85Z"/><path class="cls-7" d="M112.48,223.79a7.16,7.16,0,0,1,.27-1.63c.27-1.18.6-2.64,1-4.37.86-3.69,2.11-8.77,3.51-14.38l5.13-20.27c.43.06-1.62,9.24-4.42,20.45-1.41,5.61-2.73,10.67-3.73,14.32-.5,1.83-.91,3.31-1.22,4.32A7,7,0,0,1,112.48,223.79Z"/><path class="cls-5" d="M172.44,205.8s-11.91-25.43-13.57-30.09-8.69-20.25-7.79-23.3c.86-2.87,5,0,5,0s-8.29-16-5.76-19.41c2-2.73,4.47-.33,4.47-.33s-5.18-9.23-.79-12c2.27-1.43,6.12,4.12,6.12,4.12s3.63-4,6.93,1,17.06,27.64,17.06,27.64-.81-10.69,1.13-17.14c1.3-4.35,7.63-6.82,8,6.39.25,8.55,10.2,48.74,10.2,48.74Z"/><path class="cls-6" d="M172.44,205.8l.55-.28,1.6-.76,6.14-2.9,22.62-10.59-.13.27c-2.54-10.3-5.56-22.63-8.4-36.57-.67-3.49-1.4-7.07-1.79-10.82-.18-1.9-.19-3.73-.52-5.6l-.31-1.37c-.11-.46-.3-.89-.44-1.33a5,5,0,0,0-1.55-2.18,2.21,2.21,0,0,0-2.41-.13,4.58,4.58,0,0,0-1.84,2,11.6,11.6,0,0,0-.84,2.77c-.21,1-.34,2-.46,3a71.14,71.14,0,0,0-.19,12.23.37.37,0,0,1-.34.39.39.39,0,0,1-.33-.17l-8.64-14-6.48-10.5c-.54-.86-1.07-1.73-1.6-2.58a7.39,7.39,0,0,0-1.83-2.21,3,3,0,0,0-2.52-.66,4.67,4.67,0,0,0-2.35,1.33.36.36,0,0,1-.51,0s0,0-.05,0a14.7,14.7,0,0,0-3.62-3.71c-.7-.43-1.52-.7-2.09-.24a3.57,3.57,0,0,0-1.34,1.91,9.75,9.75,0,0,0,.39,4.92,24.84,24.84,0,0,0,1.93,4.63.34.34,0,0,1-.14.46.34.34,0,0,1-.4-.05,2.66,2.66,0,0,0-2.76-.71,2.9,2.9,0,0,0-1.15,1,2.42,2.42,0,0,0-.45,1.38,19,19,0,0,0,1.25,6.29,91.51,91.51,0,0,0,4.92,11.45.31.31,0,0,1-.45.39,6.73,6.73,0,0,0-3.1-1.24,1.32,1.32,0,0,0-1.23.58,1.49,1.49,0,0,0-.23.71l0,.37,0,.41a30.83,30.83,0,0,0,1.68,6.39c1.44,4.1,3,7.92,4.45,11.52,2.67,7.29,5.56,13.38,7.81,18.47l5.32,11.74,1.39,3.09c.15.33.26.59.35.8s.1.27.1.27a1.65,1.65,0,0,1-.15-.25c-.09-.2-.22-.45-.39-.78-.34-.72-.83-1.74-1.47-3.05-1.28-2.72-3.12-6.67-5.47-11.68s-5.25-11.16-8-18.42c-1.46-3.59-3.05-7.41-4.51-11.53a30.54,30.54,0,0,1-1.74-6.53,2.91,2.91,0,0,1,0-.93,2.08,2.08,0,0,1,.32-.91,1.91,1.91,0,0,1,1.75-.87,7.14,7.14,0,0,1,3.43,1.34l-.45.39a91.45,91.45,0,0,1-5-11.52,19.38,19.38,0,0,1-1.29-6.55,3.14,3.14,0,0,1,.57-1.75,3.8,3.8,0,0,1,1.43-1.16,2.79,2.79,0,0,1,1.89-.08,4.27,4.27,0,0,1,1.61.93l-.54.42a26,26,0,0,1-2-4.77,10.22,10.22,0,0,1-.4-5.31,4.21,4.21,0,0,1,1.61-2.3,1.94,1.94,0,0,1,1.51-.33,3.83,3.83,0,0,1,1.35.54,15.38,15.38,0,0,1,3.84,3.92l-.56,0A5.3,5.3,0,0,1,162.6,123a3.75,3.75,0,0,1,3.08.78,8.43,8.43,0,0,1,2,2.39l1.59,2.59,6.49,10.5,8.65,14-.67.22a71.89,71.89,0,0,1,.21-12.38c.12-1,.26-2,.47-3a11.88,11.88,0,0,1,.91-2.94,5.23,5.23,0,0,1,2.14-2.28,3,3,0,0,1,3.13.18,5.64,5.64,0,0,1,1.78,2.49c.16.47.35.93.47,1.41l.32,1.43c.33,1.9.34,3.85.51,5.67.38,3.68,1.1,7.26,1.76,10.75,2.79,13.92,5.76,26.26,8.24,36.58a.23.23,0,0,1-.13.27l-22.87,10.42-6.14,2.76-1.58.71A4.07,4.07,0,0,1,172.44,205.8Z"/><path class="cls-6" d="M175.29,155.65c-.18.09-3.73-6.74-7.91-15.25s-7.44-15.49-7.26-15.58,3.72,6.74,7.91,15.26S175.47,155.56,175.29,155.65Z"/><path class="cls-6" d="M168.24,162.05c-.19.08-3.34-6.42-7.06-14.53s-6.57-14.74-6.39-14.82,3.34,6.42,7.05,14.52S168.42,162,168.24,162.05Z"/><path class="cls-6" d="M164.25,170.73a10.57,10.57,0,0,1-1.75-2.39,55.31,55.31,0,0,1-3.36-6.29,52.76,52.76,0,0,1-2.53-6.66,10.5,10.5,0,0,1-.66-2.89c.21-.06,1.55,4.23,3.85,9.25S164.43,170.61,164.25,170.73Z"/><path class="cls-7" d="M225.47,219.23a3.46,3.46,0,0,1-.33-.5l-.9-1.5c-.79-1.36-1.94-3.31-3.41-5.81l-12.47-21.54.32.1-39.22,18.47.18-.42c4.45,12.81,9.86,26.7,16.35,40.87,6.94,15.24,14.37,29.38,21.48,42,3.57,6.32,7,12.33,10.31,17.84s7,10.34,11.38,13.64a23.57,23.57,0,0,0,6.81,3.63,25,25,0,0,0,6.8,1.21,25.47,25.47,0,0,0,10.84-2,17.27,17.27,0,0,0,5.79-3.91c1.13-1.15,1.59-1.88,1.63-1.84s-.11.18-.35.52a11.68,11.68,0,0,1-1.17,1.42,17,17,0,0,1-5.78,4.06,25.26,25.26,0,0,1-11,2.12,24.66,24.66,0,0,1-6.92-1.17,24.28,24.28,0,0,1-7-3.66c-4.46-3.33-8.19-8.24-11.58-13.73s-6.79-11.52-10.38-17.83c-7.15-12.65-14.61-26.8-21.56-42.07-6.5-14.19-11.9-28.11-16.33-40.95l-.1-.29.27-.13,39.3-18.3.21-.1.12.2c5.18,9.14,9.37,16.52,12.27,21.65l3.3,5.88.83,1.54A3.73,3.73,0,0,1,225.47,219.23Z"/><path class="cls-7" d="M118.87,72.25c0-.08.87.13,2.43.2a20.22,20.22,0,0,0,6.52-.87,30.39,30.39,0,0,0,8.71-4.38,79.53,79.53,0,0,0,9.06-7.93,81.74,81.74,0,0,1,9.12-8,30.86,30.86,0,0,1,8.87-4.51,19.3,19.3,0,0,1,6.65-.85,12.39,12.39,0,0,1,1.81.23,2.06,2.06,0,0,1,.61.16,21.8,21.8,0,0,0-8.92.95,31.35,31.35,0,0,0-8.62,4.56,86.46,86.46,0,0,0-9,8,75.14,75.14,0,0,1-9.18,8,29.65,29.65,0,0,1-9,4.32,18.8,18.8,0,0,1-6.68.66,13.2,13.2,0,0,1-1.8-.3A2.28,2.28,0,0,1,118.87,72.25Z"/><path class="cls-7" d="M289,168.24a9,9,0,0,1-.16-1.89c0-1.36-.09-3.09-.15-5.15,0-2.22-.09-4.8-.14-7.63a24,24,0,0,0-.32-4.44,5.66,5.66,0,0,0-2.29-3.82,12.36,12.36,0,0,1-2-1.58,3.39,3.39,0,0,1-.84-2.44c0-.83.18-1.58.15-2.28a2.33,2.33,0,0,0-.74-1.73c-1-.87-2.4-1.17-3.53-1.91a7,7,0,0,1-2.26-2.88,9.59,9.59,0,0,0-1.51-2.42,4.18,4.18,0,0,0-1.77-1.13,2.65,2.65,0,0,0-1.78.15,1.83,1.83,0,0,1,1.84-.42,4.26,4.26,0,0,1,2,1.11,9.62,9.62,0,0,1,1.67,2.47,6.55,6.55,0,0,0,2.14,2.61c1,.67,2.42.89,3.65,1.93a3,3,0,0,1,1,2.19c0,.81-.12,1.58-.13,2.32a2.65,2.65,0,0,0,.67,1.95,12.71,12.71,0,0,0,1.87,1.48,5.72,5.72,0,0,1,1.75,1.91,8,8,0,0,1,.81,2.35,25,25,0,0,1,.29,4.56c0,2.84,0,5.42,0,7.65,0,2.06-.06,3.79-.08,5.15A9.47,9.47,0,0,1,289,168.24Z"/><path class="cls-7" d="M294.12,174.8a3.1,3.1,0,0,1-.63-1.39,8.91,8.91,0,0,1,.05-4.15c.34-1.74,1.18-3.66,1.78-5.83s.91-4.8-.66-6.85c-.38-.52-.81-1-1.16-1.61a4.4,4.4,0,0,1-.66-1.93,18.79,18.79,0,0,1,.3-3.65,8.59,8.59,0,0,0-1.48-5.57,9.39,9.39,0,0,0-2.87-2.76c-.82-.48-1.33-.66-1.31-.72a3.83,3.83,0,0,1,1.45.48,8.72,8.72,0,0,1,3.15,2.71,8.94,8.94,0,0,1,1.72,5.92,20.8,20.8,0,0,0-.25,3.51c.07,1.18.88,2.11,1.7,3.2a6.47,6.47,0,0,1,1.25,3.8,12.19,12.19,0,0,1-.54,3.65c-.66,2.24-1.53,4.1-1.92,5.76a9.4,9.4,0,0,0-.27,4C293.93,174.29,294.18,174.77,294.12,174.8Z"/><path class="cls-7" d="M44.54,208.49a1.85,1.85,0,0,1,0-.56,13.76,13.76,0,0,1,.15-1.59,27.61,27.61,0,0,1,1.52-5.69c.88-2.33,2.1-5,3.54-8a15.28,15.28,0,0,1,3-4.25c1.31-1.24,2.92-2.26,3.48-3.95s.29-3.66,1-5.4a25.45,25.45,0,0,1,2.61-4.49l4.8-7.23c1.34-2,2.44-3.59,3.3-4.84a12,12,0,0,1,1.29-1.73,12.35,12.35,0,0,1-1.06,1.88l-3.1,5L60.44,175a25.76,25.76,0,0,0-2.5,4.38c-.69,1.58-.42,3.44-1,5.38s-2.46,3.06-3.68,4.23A15.16,15.16,0,0,0,50.32,193c-1.45,2.9-2.73,5.57-3.65,7.84A31.33,31.33,0,0,0,45,206.38C44.67,207.73,44.6,208.49,44.54,208.49Z"/><path class="cls-7" d="M13,320.19a2,2,0,0,0,1.54-.76,3,3,0,0,0,.6-1.92A5.29,5.29,0,0,0,14,315a18.94,18.94,0,0,1-1.89-3,11.43,11.43,0,0,1-1-4,11.76,11.76,0,0,1,.54-4.5,13,13,0,0,1,2.41-4.21,10.49,10.49,0,0,0,1.26-2,5.59,5.59,0,0,0,.47-2.13,22,22,0,0,0-.57-4.32,12.33,12.33,0,0,1-.14-4.09,12,12,0,0,1,1.08-3.4,11.13,11.13,0,0,1,3.21-4,8.07,8.07,0,0,1,1.17-.76c.28-.14.44-.21.45-.18s-.55.38-1.44,1.16a11.83,11.83,0,0,0-2.93,4,11.17,11.17,0,0,0-.75,7.15,21.79,21.79,0,0,1,.63,4.46,6.06,6.06,0,0,1-.53,2.41,10.37,10.37,0,0,1-1.33,2.1,12.27,12.27,0,0,0-2.31,4,11.21,11.21,0,0,0,.34,8,19.52,19.52,0,0,0,1.77,3,5.46,5.46,0,0,1,1,2.78,3.15,3.15,0,0,1-.79,2.11,1.89,1.89,0,0,1-1.26.66A.88.88,0,0,1,13,320.19Z"/><path class="cls-7" d="M340.34,279.84c-.07,0,.09-.76-.08-2.09a8.7,8.7,0,0,0-2.46-5,7.83,7.83,0,0,0-3.26-2,20.4,20.4,0,0,1-2.1-.84,4.19,4.19,0,0,1-1.84-1.71c-.84-1.63-.44-3.46-.43-5.14a5.21,5.21,0,0,0-.43-2.43,3.75,3.75,0,0,0-1.81-1.68c-3.26-1.5-7.08,0-10.27-1.49a4.8,4.8,0,0,1-1.93-1.57,5.88,5.88,0,0,1-.88-2.16,23,23,0,0,1-.22-4,8,8,0,0,0-.57-3.13,4,4,0,0,0-1.55-1.75,3.25,3.25,0,0,0-2-.42,2.19,2.19,0,0,1,2.1.17,4.2,4.2,0,0,1,1.78,1.83,8,8,0,0,1,.72,3.27,23.43,23.43,0,0,0,.3,3.92,4.29,4.29,0,0,0,2.5,3.25,11.55,11.55,0,0,0,4.82.64,12.15,12.15,0,0,1,5.48.8,4.49,4.49,0,0,1,2.14,2,6,6,0,0,1,.5,2.78c0,1.77-.38,3.49.31,4.81s2.25,1.78,3.56,2.29a8.5,8.5,0,0,1,3.42,2.2,8.71,8.71,0,0,1,2.37,5.29,6.64,6.64,0,0,1-.06,1.58C340.42,279.66,340.37,279.84,340.34,279.84Z"/><path class="cls-8" d="M138,101c0,1-2.44,1.9-5.51,1.65s-5.38-1.51-5.19-2.49S130,98.81,132.8,99,138,100,138,101Z"/><path class="cls-8" d="M182.67,94.72c.45.87-3.48,3.75-9.11,5.53s-10.5,1.73-10.64.75,4.22-2.5,9.54-4.2S182.22,93.81,182.67,94.72Z"/></g></svg>