<svg id="Layer_1" data-name="Layer 1" xmlns="http://www.w3.org/2000/svg" xmlns:xlink="http://www.w3.org/1999/xlink" viewBox="0 0 459.82 463.84"><defs><style>.cls-1{fill:none;}.cls-2{fill:#ff725e;}.cls-3{fill:#fff;}.cls-4{clip-path:url(#clip-path);}.cls-5{fill:#ffbe9d;}.cls-6{fill:#996964;}.cls-7{fill:#784d48;}.cls-8{fill:#263238;}.cls-9{opacity:0.3;}.cls-10{fill:#eb996e;}</style><clipPath id="clip-path"><circle class="cls-1" cx="236.88" cy="234.19" r="197.54"/></clipPath></defs><circle class="cls-2" cx="236.88" cy="234.19" r="222.94"/><circle class="cls-3" cx="236.88" cy="234.19" r="210.9"/><g class="cls-4"><path class="cls-5" d="M-47.1,458.21s33.87,56,58.31,66.27a48.64,48.64,0,0,0,8,2.5c35.15,7.9,70.23-14.05,81.16-48.38l84.73-266.19-61-29.1L29.79,390Z"/><path class="cls-2" d="M-107,284.32l-7.29,69.49,56.69,107.41c23.87,0,87.38-71.19,87.38-71.19s-48.6-104.83-71-140.64c-1.94-3.1-4-6.07-6.07-8.9q-1.81,1.92-3.66,3.76A215.54,215.54,0,0,1-107,284.32Z"/><path class="cls-6" d="M227.62,49.27c2.16,59.82,62.23,67.7,62.23,67.7s-.08,13.87-.42,31.43c0,0,4.15,34.08,59.9,35.7s80-47.76,80-47.76l4.5-108.5C370.39,4.55,305.65-14.87,239.1-26.62c-3.36-.3-6.71-.54-10.07-.79C227.71,3.92,227,32.07,227.62,49.27Z"/><path class="cls-7" d="M289.85,117s37.76,1.32,77.35-24.88c0,0-18,44-77.79,40Z"/><path class="cls-8" d="M289.21-16.29l-3.73-.87-3,8.73c-.82,2.68-2.28,5.75-1,9.24a5.87,5.87,0,0,0,3.94,3.34,16,16,0,0,0,4,.46c9.33.28,15.11.19,15.14-.34s-5.71-1.37-15-2.34c-2.36-.18-4.59-.6-5-2.19-.59-1.68.33-4.24,1.4-7Z"/><path class="cls-8" d="M436.74,29.13a11.55,11.55,0,0,0,6,8.21A10.29,10.29,0,0,0,453,36.87a9.73,9.73,0,0,0,1.48-1.28l-2.84-1.08a.7.7,0,0,0-.1.08,7.93,7.93,0,0,1-7.47.11,8.88,8.88,0,0,1-4.13-4.59l-3.21-1.19A1.36,1.36,0,0,0,436.74,29.13Z"/><path class="cls-8" d="M322.55,12.42c-1.37-.05-1.15,9.11-8.82,15.81s-17.44,6-17.48,7.24c-.11.58,2.22,1.72,6.34,1.72a22.72,22.72,0,0,0,14.61-5.52A19.81,19.81,0,0,0,324,18.43C324.26,14.59,323.18,12.35,322.55,12.42Z"/><path class="cls-8" d="M279,95.83c-.89,0-1.43-4-.39-8.63s3.16-8,4-7.67.19,4-.77,8.38S279.87,95.88,279,95.83Z"/><path class="cls-8" d="M290.11,97.32c-.9-.18-1.06-3.16-.89-6.71s.66-6.5,1.57-6.59,1.93,2.94,1.72,6.76S291,97.5,290.11,97.32Z"/><path class="cls-8" d="M300.28,98.05c-.91,0-1.49-3.23-1.29-7.11s1.09-7,2-6.93,1.49,3.23,1.29,7.1S301.19,98.09,300.28,98.05Z"/><path class="cls-8" d="M313.55,95.13c-.9.17-2.15-2.5-2.8-6s-.46-6.4.44-6.57,2.15,2.5,2.8,6S314.44,95,313.55,95.13Z"/><polygon class="cls-6" points="259.57 153.35 294.75 136.06 428.55 138.4 453.73 153.35 428.55 209.69 356.65 221.96 301.45 221.96 270.73 179.01 259.57 153.35"/><path class="cls-2" d="M165.41,166s-43,6.63-59.62,36.44-28.7,87.22-28.7,87.22-18.77,27.6-21,65.14c0,0,18-22,54.65-22.09,38.85-.11,86.67,43.06,86.67,43.06Z"/><path class="cls-2" d="M345.23,775.9a742.42,742.42,0,0,0,128.31-34.74,660.46,660.46,0,0,0,92.36-53.22c-5.77-58.62-13-138.85-13-138.85l-1.11-231.85L571.7,173.71S517.4,160.19,511,159.36c-3.46-.45-74-20.71-74-20.71s6.65,64.87-81.67,67.08-70.83-67.08-70.83-67.08l-39.57,10.77L165.41,166s-7.72,39.75-8.83,43.06,13.25,351.09,13.25,351.09-16.56,37.54-22.08,92.74c-4.68,46.8-10.55,92.54-12.23,105.39a725.18,725.18,0,0,0,74.39,18A752.31,752.31,0,0,0,345.23,775.9Z"/><path class="cls-6" d="M56.11,354.78c-.27,5.56-5.38,92.58,0,128.25S66,540.19,78.46,545.85s36.67,5.65,48.31,10.18,42.19,26,102.14,15.84S369.17,504,394.06,499.47a420.32,420.32,0,0,1,48.64-5.65l66.48-14.92,8.18-54.09s-140.27,2.27-161.76,4.53-53.17,11.31-116.51,7.92-46.38-4.53-46.38-4.53l4.72-57s-37.58-37.68-78.27-42.38S56.11,354.78,56.11,354.78Z"/><path class="cls-6" d="M156.34,432.7c-3.07-4.18-3.51-13.55.49-16.86a50,50,0,0,1-11.44-19c-1.39-4.24-2-9.44,1.06-12.68-2.09-3.27-4.17-6.69-4.77-10.52s.66-8.22,4-10.22c4.72-2.84,10.74.22,15,3.65a79.83,79.83,0,0,1,12.4,12.39c-3.1-3-1.58-8.77,2.14-10.94s8.54-1.38,12.34.65c7.3,3.91,13.92,11.45,18.1,18.6,10.08,17.27,24.68,33.93,37.14,49.58"/><path class="cls-7" d="M242.82,437.34c-.18.15-2.31-2.18-6-6.48s-9.12-10.52-15.5-18.49c-3.18-4-6.59-8.43-10-13.36-3.61-4.81-6.61-10.71-10.47-15.89s-9-10.24-15.2-13.14c-3-1.28-6.64-1.65-9.36-.12-2.54,1.31-4,5.3-2.55,7.65a4.88,4.88,0,0,0,.59.75l-2.43,2.22a78.69,78.69,0,0,0-10.56-10.85c-3.65-3.18-7.9-5.92-12-5.73s-6.47,4.35-6.23,8.32,2.42,7.72,4.58,11.17l.59.95-.76.78c-2.07,2.13-2.16,5.6-1.56,8.61a40.77,40.77,0,0,0,3,8.64,50.37,50.37,0,0,0,8.58,12.85l.65.71-.73.6c-1.91,1.57-2.48,4.21-2.73,6.28a19.5,19.5,0,0,0,.26,5.47c.58,3,1.58,4.31,1.41,4.42s-1.42-1.13-2.33-4.2a18.33,18.33,0,0,1-.72-5.79c.17-2.25.47-5.21,3-7.56l-.07,1.31a50.14,50.14,0,0,1-9.41-13.06,42,42,0,0,1-3.42-9.15c-.7-3.29-1-7.7,2.07-11.06l-.16,1.72c-2.22-3.47-4.88-7.43-5.22-12.56a12.48,12.48,0,0,1,1.92-7.47,9.23,9.23,0,0,1,7.1-4.14c5.78-.21,10.39,3.15,14.29,6.39a80.19,80.19,0,0,1,11,11.29L172,380.64a7.63,7.63,0,0,1-1.13-1.45,9.24,9.24,0,0,1,3.79-12.2c4-2.19,8.63-1.51,12.22,0,7.12,3.42,12.2,8.81,16.36,14.28,4.1,5.68,6.8,11.32,10.29,16.17,3.32,4.94,6.59,9.42,9.64,13.48l14.65,19.12C241.21,434.6,243,437.2,242.82,437.34Z"/><path class="cls-7" d="M215.41,431.72c-.72.55-11.6-11.61-24.31-27.17s-22.45-28.67-21.76-29.26,11.58,11.57,24.32,27.17S216.14,431.16,215.41,431.72Z"/><path class="cls-7" d="M185.12,424.53c-.63.61-10-7.67-20.86-18.71s-18.54-21.07-17.81-21.67,9.35,8.39,20.17,19.37S185.79,423.86,185.12,424.53Z"/><path class="cls-7" d="M173.19,433.21c-.66.63-4.86-2.76-9.38-7.55s-7.64-9.2-7-9.82,4.87,2.76,9.38,7.56S173.85,432.59,173.19,433.21Z"/><path class="cls-7" d="M248.45,437.68c0,.45-8.06.46-21.06.11L204.55,437c-8.55-.31-18.13-.68-27.9-1.84a145.69,145.69,0,0,0-27.59-.33,75.58,75.58,0,0,0-21.68,5.29c-5.84,2.52-10.31,5.26-12.95,7.67s-4.42,3.47-4.59,3.32,1.16-1.66,3.75-4.29,6.88-5.94,12.84-8.83a71.89,71.89,0,0,1,22.3-6.18,135.74,135.74,0,0,1,28.21.06c9.92,1.18,19.21,1.62,27.82,2.1l22.74,1.49C240.44,436.41,248.46,437.22,248.45,437.68Z"/><path class="cls-6" d="M530.43,350.32S514,409.93,509.18,478.9L315.71,491.35l-78.46,74.71s51.89,35.44,146.59,37.35,134.92-16.28,180.9-18.2S627,573.72,635.62,544s15.65-123.88,16-143.35-4.71-44.1-4.71-44.1S590.94,305.06,530.43,350.32Z"/><path class="cls-8" d="M191.46,366.43c-.44.07-1.86-5.91-3.61-15.67s-3.82-23.31-5.57-38.34-2.87-28.7-3.4-38.61-.54-16.05-.1-16.08,1.29,6,2.42,15.89c1.25,11,2.72,24,4.35,38.41s3.29,27.39,4.61,38.39C191.32,360.25,191.92,366.36,191.46,366.43Z"/><path class="cls-8" d="M179.73,234.2c-1,.22-3.87-12.47-11.43-26.37s-16.41-23.39-15.68-24.08c.5-.65,10.87,8,18.59,22.52S180.55,234.13,179.73,234.2Z"/><path class="cls-8" d="M447.7,146.19a8.55,8.55,0,0,1,0,2.71,44.49,44.49,0,0,1-1.22,7.68A68.75,68.75,0,0,1,434,182.27c-7.23,9.76-18.52,19.47-32.92,26.58s-31.56,11.83-49.73,14.56c-9.1,1.35-18.32,2-27.07.44A66,66,0,0,1,300.63,215a63.89,63.89,0,0,1-26.92-32.48,65.32,65.32,0,0,1-3.87-28.28,53.2,53.2,0,0,1,1.28-7.67A8.39,8.39,0,0,1,272,144c.29.06-.57,3.69-.86,10.32a68.33,68.33,0,0,0,4.76,27.36,62.42,62.42,0,0,0,26.32,30.71,63.62,63.62,0,0,0,22.64,8.29c8.28,1.42,17.12.81,26.07-.52,17.93-2.69,34.8-7.15,48.87-14s25.15-16,32.42-25.28a72.22,72.22,0,0,0,13-24.59C447.09,149.88,447.39,146.15,447.7,146.19Z"/><g class="cls-9"><path d="M290.32,205.27c0,25.33,45.07,34.17,76.33,27.67,11.59-2.41,27.93-9.56,37.54-16.49s19.29-15,21.75-26.62c-19.07,18.75-46.9,24.78-73.13,30a122.13,122.13,0,0,1-34.09,1.67c-11.53-.94-21.34-7.07-28.4-16.23"/></g><path class="cls-5" d="M164.22,166.23s19.64-26.26,29.24-27.58S215.41,144,215.41,144s4-8.52,12-7.92,21,7.92,21,7.92l21.9,26.31-18.19,42.12s-9.27.11-9.34-12.6,5.63-24.12,5.63-24.12L237.25,166v13l-9.85,39.71s-11.07-.51-12-6.31,0-29.1,0-29.1L203.74,166l4.71,18.16-4,34.58s-9.94-.66-12-9.75,1.08-24.83,1.08-24.83L181,162.73Z"/><path class="cls-5" d="M147.74,170.73c2.42-4.85,5.7-11.82,10.8-13.64,4.87-1.74,10.5.35,14.14,4s5.61,8.68,7,13.66c.64,2.25,1.12,4.89-.29,6.75-1.9,2.51-5.8,1.94-8.76.89-7.89-2.81-16.86-5.91-22.91-11.69"/><path class="cls-10" d="M179.73,177.37c-.61-.18-1.73-4.55-4.61-10a25.11,25.11,0,0,0-1.92-3.44,24.1,24.1,0,0,0-2.28-2.57c-1.34-1.39-2.12-2.51-1.89-2.9s1.47,0,3.39,1.11a12.44,12.44,0,0,1,3,2.29,15.19,15.19,0,0,1,2.66,4,23.5,23.5,0,0,1,2.51,7.93C180.84,176,180.17,177.49,179.73,177.37Z"/><path class="cls-10" d="M204.71,162.13c-.91.42-3.59-5.67-6.46-12.52-2.85-6.69-10.35-6.52-10-7.8.07-.42,1.67-.74,4.39-.35a11,11,0,0,1,4.65,1.88,12.94,12.94,0,0,1,3.86,4.79C204.38,155.7,205.45,161.77,204.71,162.13Z"/><path class="cls-10" d="M235.47,166.71c-.81.57-5.15-5-10.55-11.54s-10.8-10.67-10.36-11.47,7.22,2.41,12.88,9.34S236.15,166.24,235.47,166.71Z"/></g></svg>