<svg id="Layer_1" data-name="Layer 1" xmlns="http://www.w3.org/2000/svg" viewBox="0 0 1190.66 619.32"><defs><style>.cls-1{fill:#263238;}.cls-2{fill:#fff;}.cls-3{fill:#455a64;}.cls-4{fill:#ff725e;}.cls-5{opacity:0.3;}.cls-6{fill:#ffbe9d;}.cls-7{fill:#eb996e;}.cls-8{opacity:0.52;}.cls-9{fill:#e8505b;}.cls-10{fill:#241e22;}.cls-11{fill:#1c4e66;}.cls-12{fill:#b75441;}.cls-13{fill:#86231d;}.cls-14{fill:#333;}</style></defs><path class="cls-1" d="M798,618.94h-24.9c.69-2.26,1.24-4.07,1.63-5.39,0-.18.11-.36.16-.54a2.72,2.72,0,0,1,.13-.37c0-.22.12-.44.19-.65l.21-.66c0-.1.06-.21.09-.31l21.78,7.68Z"/><path class="cls-1" d="M905.51,618.92l.56,0H894c2.62-.13,5.23-.18,7.82-.13C903.08,618.82,904.31,618.86,905.51,618.92Z"/><polygon class="cls-2" points="253.08 278.71 278.32 514.31 367.77 567.9 437.92 543.56 418.74 269.11 374.52 255.4 287.95 252.36 253.08 278.71"/><path class="cls-1" d="M381.88,529.2l-6.33,36-9.44,53.73H212.33c4-11.49,13.89-38.71,20.83-53.22A118.91,118.91,0,0,1,241.8,551c3.46-5.12,7.08-9.84,10.18-13.69.19-.25.39-.48.58-.72s.26-.32.37-.47a3.23,3.23,0,0,0,.25-.29c4.17-5.06,7.16-8.28,7.16-8.28l12.1.17h.85l.87,0,27.12.37h0l11.42.16,10.16.14H323l1.72,0h0l41.05.58h1.67Z"/><path class="cls-3" d="M354,543.91c-.31.11-.21-2.4-2.82-4.22a5.4,5.4,0,0,0-5-.51,5.21,5.21,0,0,0,.17,9.73,5.4,5.4,0,0,0,5-.68c2.55-1.92,2.37-4.42,2.68-4.32.1,0,.29.53.17,1.55a6,6,0,0,1-2.07,3.75,6.57,6.57,0,0,1-6.31,1.25,6.77,6.77,0,0,1-.22-12.81,6.56,6.56,0,0,1,6.35,1,6,6,0,0,1,2.2,3.68C354.29,543.37,354.12,543.91,354,543.91Z"/><path class="cls-1" d="M443.39,618.94H342l15.23-57.38L365.82,529h1.67l57.44.69h.77l.73,0,6.92.08L435,544.57l4.11,35.86S440.82,595.57,443.39,618.94Z"/><path class="cls-3" d="M367.6,555.38c0,3.6-.07,7.75-.18,12.3-.18,7.14-.53,15.25-1.09,23.86-.47,7.06-1.05,13.77-1.66,19.87a46.43,46.43,0,0,1-1.13,7.53H362a43.72,43.72,0,0,0,1-7.68c.53-6.1,1-12.79,1.51-19.83.59-8.93,1-17.33,1.34-24.63.18-4.22.31-8.07.44-11.45.15-4.35.29-8,.4-10.94a17.66,17.66,0,0,1,.34-4,20.16,20.16,0,0,1,.34,4C367.53,547,367.6,550.74,367.6,555.38Z"/><path class="cls-3" d="M436.2,580.61c-.09.18-2.89-1-7-3.71a72.81,72.81,0,0,1-25.05-28.54c-2.13-4.43-3-7.36-2.77-7.43.51-.26,4.88,11.16,14.7,22.22S436.52,580.13,436.2,580.61Z"/><path class="cls-4" d="M337.38,417.89c-.44,15.73-1.85,32.74-3.73,48.82-.73,6.28-1.54,12.43-2.38,18.29-.16,1.05-.31,2.1-.46,3.14-.74,5-1.52,9.7-2.29,14.13l-.21,1.13c-1.72,9.71-3.47,17.88-5.06,23.58,0,.14-.08.29-.11.44-.1.3-.18.62-.26,1s-.14.51-.22.77c-.74,2.78-1.62,6.21-2.61,10.17-.33,1.33-.68,2.71-1,4.14l0,.11c-4.92,19.68-12.22,49.29-20.34,75.38H189.2l14.13-55.24L209,538.87l3.85-17L213,521l.21-.93L227.57,457l-2-14.51-.19-1.52-4.93-36.59-.15-1.13-.15-1.11L197.8,235.74l18.36-6.2h0l25.59-8.63,4.12-1.4,15.48-5.21,1.21-.42,10.17-3.42s0,0,0,0l1.13-1.24,7.32-8,.09-.09.44-.47,7.59-8.32,0,0,.83-.91,4.93-5.4s1.89,5.38,4.61,13.39l.77,2.27c0,.09.06.17.08.25,1.65,4.87,3.52,10.5,5.44,16.41l.29.89c.1.28.18.54.26.8.54,1.67,1.09,3.36,1.63,5.05,2.77,8.75,5.48,17.62,7.49,25.06.32,1.13.61,2.24.89,3.3.64,2.54,1.2,4.84,1.61,6.84.28,1.36.58,2.89.88,4.56.09.34.14.7.21,1.06a.49.49,0,0,1,0,.14q.45,2.46.95,5.3.6,3.4,1.24,7.31c1.16,7,2.42,15.05,3.71,23.7,1.12,7.46,2.28,15.35,3.42,23.39,2.78,19.57,5.5,40,7.59,57.11A241.8,241.8,0,0,1,337.38,417.89Z"/><path class="cls-4" d="M197.8,235.74s-19.66,25.71-25.24,50.42c-9.42,41.73-45.8,155.64-43.64,182.31s143.14,75.09,143.14,75.09l5.77-74.26-65.58-34.57,18-70Z"/><path class="cls-1" d="M230.24,364.75A6.5,6.5,0,0,1,230,366c-.2.88-.48,2.06-.83,3.57l-3.39,13.78c-3,12.1-7.45,29.6-13,51.56l-.29-.67,65.67,34.4.45.23,0,.52c-1.72,22.55-3.63,47.64-5.66,74.27l-.09,1.14-1.08-.38c-27.62-9.72-57.37-21.06-87.34-35-9.85-4.64-19.51-9.42-28.69-14.79s-18.26-10.93-24.81-19.34a17.38,17.38,0,0,1-2-3.48,7.71,7.71,0,0,1-.6-2,6.5,6.5,0,0,1-.28-2,57.81,57.81,0,0,1,.28-7.7c.42-5.07,1.34-10,2.15-14.87,1.9-9.7,4-19.15,6.28-28.29,9.08-36.61,18.73-69.15,26.29-96.61,3.85-13.73,7.07-26.17,9.77-37.19a122.15,122.15,0,0,1,11.38-26.75,177.9,177.9,0,0,1,9.75-15.56c1.21-1.72,2.17-3,2.82-3.86a16.25,16.25,0,0,1,1.05-1.25s-.29.48-.89,1.36l-2.67,4c-2.29,3.5-5.67,8.69-9.43,15.7a123.28,123.28,0,0,0-11,26.67c-2.6,11-5.75,23.53-9.51,37.26-7.41,27.52-16.92,60.1-25.9,96.67q-3.39,13.69-6.2,28.21c-.79,4.85-1.69,9.74-2.1,14.7a56.08,56.08,0,0,0-.27,7.44,11.64,11.64,0,0,0,2.58,6.53c6.12,7.89,15.31,13.42,24.26,18.8,9.11,5.33,18.73,10.09,28.55,14.71,29.87,13.86,59.6,25.23,87.13,35l-1.16.76c2.11-26.62,4.09-51.7,5.87-74.25l.41.74L212,435.25l-.41-.22.12-.45,13.5-51.41,3.68-13.71c.42-1.5.75-2.66,1-3.53A6.36,6.36,0,0,1,230.24,364.75Z"/><path class="cls-4" d="M470.19,618.94h-37.4c-1.49-13.26-3.1-28.21-4.48-42.63-.06-.58-.11-1.18-.18-1.77-.88-9.42-1.67-18.57-2.25-26.8-.1-1.31-.18-2.59-.25-3.83,0-.42-.07-.82-.08-1.22v0c-.3-4.76-.52-9.15-.62-13-.06-1.82-.08-3.53-.08-5.09,0-5.2,0-11.55-.11-18.71-.24-20.78-.87-48.47-2.25-75.31-1.31-25.47-3.31-50.18-6.3-67.49-2.92-17-8.7-42.72-14.53-67.33-1.54-6.52-3.1-12.95-4.59-19.11-1.31-5.38-2.58-10.56-3.78-15.42-2.55-10.34-4.79-19.22-6.36-25.47-.1-.37-.19-.73-.29-1.07-.66-2.67-1.22-4.79-1.59-6.25s-.59-2.34-.59-2.34V203.74l1.9,2.79.17.22.43.65,6.88,10,3,1,18.79,6.35.94.32.14.05,1,.32,29.48,10s2.11,24.43,3.49,45.5h0c.67,10.27,1.18,19.74,1.18,25.18,0,8.87-2,65.64-3.78,117.82a2.18,2.18,0,0,0,0,.25c-.13,3.71-.25,7.4-.37,11-.5,14.23-1,27.8-1.38,39.62-.53,15.23-.94,27.51-1.15,34.45v.41h0c-.06,2.31-.11,4-.13,4.92v.56C445,521.32,461.48,581.41,470.19,618.94Z"/><path class="cls-4" d="M447.19,235.47s15.76,6.79,17.55,43.14,4.76,118.58,4.76,118.58S455,544.4,456.17,555.73h0l-22.82-26L435,501.9l2.91-209Z"/><path class="cls-1" d="M425.62,543.92a3,3,0,0,1-.07-.87c0-.67,0-1.5,0-2.52,0-2.37.08-5.62.14-9.71.19-8.59.47-20.75.81-35.7.71-30.14,1.92-71.78,2.67-117.77.06-5.74.14-11.43.09-17s-.59-11-1-16.45c-.87-10.81-1.73-21.23-2.74-31.14s-2.14-19.3-3.63-28a118.86,118.86,0,0,0-6.72-23.53A306.09,306.09,0,0,0,400.05,229c-1.95-3.59-3.5-6.44-4.64-8.52-.48-.89-.88-1.62-1.21-2.21a3.17,3.17,0,0,1-.36-.79,3.85,3.85,0,0,1,.52.69l1.37,2.12c1.18,1.89,2.88,4.69,4.95,8.37a274,274,0,0,1,15.69,32.12,119.18,119.18,0,0,1,7,23.74c1.56,8.76,2.75,18.18,3.81,28.1s1.95,20.35,2.85,31.17c.42,5.39,1.05,10.89,1,16.57s0,11.3-.07,17.06c-.75,46-2.18,87.64-3.22,117.78-.58,14.94-1.06,27.09-1.39,35.68-.21,4.09-.37,7.33-.49,9.7-.07,1-.12,1.84-.17,2.52A3.26,3.26,0,0,1,425.62,543.92Z"/><path class="cls-1" d="M332.63,468.47a14.12,14.12,0,0,1-.4-2.7c-.19-1.78-.42-4.41-.64-7.8-.42-6.78-.83-16.62-.63-28.77.09-6.08.35-12.74.81-19.87.29-7-1-14.54-2.71-22.32-3.76-15.53-9.74-32.14-16.58-49.31s-14.13-33.26-20.79-47.86c-3.24-7.33-6.76-14.14-8.88-21.08a185.32,185.32,0,0,1-4.7-19.36c-2.31-11.94-3.57-21.7-4.39-28.44-.39-3.37-.66-6-.81-7.78a15.15,15.15,0,0,1-.13-2.73,16.3,16.3,0,0,1,.5,2.69l1.15,7.73c1,6.7,2.49,16.41,5,28.28a189.45,189.45,0,0,0,4.88,19.15c2.11,6.72,5.68,13.51,9,20.83,6.75,14.57,14,30.68,21,47.88s12.82,33.91,16.53,49.62c1.67,7.88,2.94,15.51,2.57,22.81-.52,7.1-.85,13.73-1,19.79-.36,12.11-.15,21.93.05,28.71.12,3.25.22,5.84.29,7.8A15.69,15.69,0,0,1,332.63,468.47Z"/><path class="cls-1" d="M172.56,439.38c-.14-.14,1.77-2.29,5.72-4.62a35.05,35.05,0,0,1,34.38-.47c4,2.23,6,4.32,5.85,4.47s-2.41-1.46-6.43-3.3a37.89,37.89,0,0,0-33.18.45C174.93,437.87,172.75,439.62,172.56,439.38Z"/><g class="cls-5"><polygon points="208.97 538.88 280.12 565.04 287.13 537.12 318.99 543.56 323.28 527.43 273.28 520.42 272.78 543.56 213.07 521.03 208.97 538.88"/></g><path class="cls-6" d="M400.09,485c-4.49-7-68.93,0-68.93,0s24.71-4.17,32.4-5.13S386,477.33,378.94,469c-4.93-5.82-46.27-.26-61.89,1.47,4.67-2.27,13.61-6.73,20.48-10.17,4.23-2.11,11.92-10,7.81-12.86-4.74-3.32-10.55.63-15,2.62l-.92.41c-2,.17-4,.25-5.91.53l-3.87-.58c-6.41-1-20.5,8.33-24.67,10.89s-17.62,13.94-17.62,13.94l-4.09,45.18s39.65,7.53,45.1,9.14,23-10.58,23-10.58l4.91-6.41,4.89-1.92,42.69-17S404.58,492.07,400.09,485Z"/><path class="cls-7" d="M322.18,504.36c-.06-.23,3.73-1.48,10-3a244.93,244.93,0,0,1,24.75-4.75A249.62,249.62,0,0,1,382,494.33c6.45-.21,10.44-.05,10.45.19s-4,.57-10.37,1.12-15.23,1.4-24.93,2.76-18.43,3-24.73,4.19S322.25,504.62,322.18,504.36Z"/><path class="cls-7" d="M328,516.77c-.13-.49,4-2,9.23-3.35s9.57-2.06,9.7-1.57-4,2-9.23,3.35S328.17,517.26,328,516.77Z"/><path class="cls-1" d="M450.7,280.92a12.42,12.42,0,0,1,.3,2.36c.13,1.75.3,4,.5,6.81.46,5.9.77,14.47,1,25.07.39,21.18-.59,50.46-2.71,82.7s-3.94,61.41-4.34,82.56c-.24,10.58-.32,19.14-.24,25.05,0,2.81,0,5.07,0,6.82a10.71,10.71,0,0,1-.13,2.38,12.28,12.28,0,0,1-.24-2.37c-.09-1.75-.2-4-.34-6.81-.3-5.92-.42-14.49-.35-25.09.07-21.19,1.7-50.43,3.81-82.66s3.31-61.42,3.25-82.57c0-10.58-.15-19.14-.38-25.05-.07-2.81-.12-5.07-.16-6.82A11.52,11.52,0,0,1,450.7,280.92Z"/><path class="cls-1" d="M235.39,357.38c-.13,0-.23-1.69-.31-4.74s-.23-7.46-.61-12.89a226,226,0,0,0-6.95-41.84,225.93,225.93,0,0,0-14.86-39.75c-2.38-4.89-4.42-8.8-5.9-11.47s-2.22-4.19-2.11-4.26,1.07,1.32,2.73,3.9,3.9,6.4,6.44,11.24a197.85,197.85,0,0,1,15.48,39.86,198.17,198.17,0,0,1,6.48,42.25c.21,5.47.2,9.91,0,13A24.88,24.88,0,0,1,235.39,357.38Z"/><path class="cls-1" d="M448.2,430.72c-.45-.09,1-7.74,5.58-16.09s10.09-13.81,10.42-13.48-4.42,6.2-8.8,14.36S448.74,430.87,448.2,430.72Z"/><rect class="cls-3" x="254.18" y="333.25" width="48.28" height="32.37"/><path class="cls-1" d="M302.46,365.62a17.79,17.79,0,0,1-.16-2.43c-.05-1.76-.11-3.94-.19-6.58-.09-5.88-.22-13.81-.38-23.36l.73.74-48.28.18c-.2.2,1.75-1.74.92-.92h0v8.52c0,2.81,0,5.57,0,8.28,0,5.41,0,10.61-.05,15.56l-.85-.84c14,.07,26,.25,34.54.41l10,.23a32.3,32.3,0,0,1,3.72.2,20,20,0,0,1-3.36.2l-9.83.23c-8.49.16-20.68.35-35.09.42h-.84v-.85c0-4.95,0-10.15-.06-15.56,0-2.71,0-5.47,0-8.28v-8.52h0l.92-.92,48.28.18h.75v.74c-.08,10-.25,18.21-.39,23.81-.07,2.59-.13,4.71-.18,6.43A9.17,9.17,0,0,1,302.46,365.62Z"/><path class="cls-2" d="M286.49,350.61a8.17,8.17,0,1,1-8.17-8.17A8.17,8.17,0,0,1,286.49,350.61Z"/><g class="cls-5"><path d="M410.36,225.26c-26.62,10.85-53.71,21.82-82.33,24.49s-60.18-8.47-80.45-28.85h-5.79c-2.67,20.19,12.27,41.07,25.37,56.66,14.14,16.82,29.59,33.28,49.22,43.15s44.36,12.12,63.11.66c15.1-9.22,24.33-26,28.3-43.25S411.07,242.94,410.36,225.26Z"/></g><path class="cls-3" d="M444.45,167.54c-3.89-20.27-28.33-93.37-28.33-93.37C397.49-7.6,337.07.2,337.07.2c-89.32-.52-88.79,143.59-88.79,143.59l-9.23,14.7c-12.93,21.56-35.74,40-22.89,71.06L239.82,222l174.63,7.78S448.34,187.81,444.45,167.54Z"/><path class="cls-6" d="M287.24,41.24,340,20l13.8,1.54c31.05,0,52.7,36.78,53,61.92.35,27.93-.39,59.37-4.73,80-8.73,41.44-41,45.15-41,45.15s.38,11.32.71,25.22A43.86,43.86,0,0,1,317,278.7h0A43.87,43.87,0,0,1,274,235l-.67-179.52A14.71,14.71,0,0,1,287.24,41.24Z"/><path class="cls-1" d="M389.37,114a5.38,5.38,0,0,1-5.44,5.15,5.13,5.13,0,0,1-5.28-5.11,5.37,5.37,0,0,1,5.43-5.15A5.14,5.14,0,0,1,389.37,114Z"/><path class="cls-1" d="M395.68,95c-.7.67-4.61-2.54-10.37-2.81s-10.14,2.39-10.73,1.66c-.29-.33.45-1.56,2.36-2.81a14.72,14.72,0,0,1,8.63-2.19A14.13,14.13,0,0,1,393.78,92C395.48,93.44,396,94.73,395.68,95Z"/><path class="cls-1" d="M360.47,140.16c0-.33,3.6-.77,9.45-1.22,1.48-.08,2.89-.3,3.19-1.3s-.14-2.66-.77-4.41q-1.8-5.44-3.79-11.43c-5.25-16.26-9-29.6-8.31-29.81s5.44,12.81,10.69,29.07l3.61,11.49c.47,1.7,1.33,3.65.47,5.82a3.7,3.7,0,0,1-2.53,2,10.18,10.18,0,0,1-2.52.22C364.1,140.64,360.48,140.49,360.47,140.16Z"/><path class="cls-7" d="M361,208.58s-28.19.4-55.2-17.73c0,0,13.46,29.7,55.46,27.89Z"/><path class="cls-7" d="M357.34,153.93a10.42,10.42,0,0,0-9.12-4.33,9.53,9.53,0,0,0-6.73,3.19,6,6,0,0,0-.8,6.85c1.45,2.26,4.67,2.93,7.46,2.29s5.25-2.34,7.59-4a6.38,6.38,0,0,0,1.73-1.62,1.93,1.93,0,0,0,.1-2.15Z"/><path class="cls-1" d="M392.89,77.68c-1.08,1.26-5-.3-9.75-.6-4.77-.47-8.87.43-9.73-1-.37-.69.33-2,2.16-3.12a14.12,14.12,0,0,1,15.69,1.28C392.88,75.69,393.37,77.06,392.89,77.68Z"/><path class="cls-1" d="M328.22,113.61a5.35,5.35,0,0,0,5.1,5.48,5.13,5.13,0,0,0,5.59-4.76,5.35,5.35,0,0,0-5.1-5.48A5.12,5.12,0,0,0,328.22,113.61Z"/><path class="cls-1" d="M318.75,96.52c.65.71,4.75-2.24,10.53-2.16s10,3,10.6,2.33c.31-.31-.36-1.58-2.18-2.94A14.73,14.73,0,0,0,329.22,91a14.14,14.14,0,0,0-8.39,2.59C319,95,318.42,96.2,318.75,96.52Z"/><path class="cls-1" d="M320.43,75.32c1,1.32,5,0,9.78,0,4.78-.17,8.82,1,9.76-.37.42-.66-.2-2-2-3.24a14.17,14.17,0,0,0-15.75.28C320.56,73.33,320,74.67,320.43,75.32Z"/><path class="cls-3" d="M406.85,137.69s-8.63,68.2-58,67.15-58.16-52.91-58.16-52.91l-34.93-13.58-9.5,74.31a50.77,50.77,0,0,0,13.13,41c13.46,14.52,32.45,33.68,45.08,40.8,30.1,17,72.39,11.82,91.85-16.74a120.93,120.93,0,0,0,15.55-33.87c.63-2.75,13.76-54.6,13.76-54.6Z"/><path class="cls-3" d="M262.56,64.35c-5.82,31.33.16,94.63,35.18,118.57-5.7-12.55-8.71-42.23-9.06-55.8-.37-14,1.86-25.7,7.24-43.54,2.12-7,9.21-24.89,15.87-28.94,8.3-5.06,22.58-8.59,32.58-9.14,13.43-.72,32.18,2,43.74,8.17,13.11,7,15.32,27,18.54,40.38s2.32,27.27,1.4,40.94l7.09-46.13S409.52,8.08,341.5,5C286.75,2.46,264.42,64.2,264.42,64.2Z"/><path class="cls-1" d="M406.85,255.4a4.93,4.93,0,0,0,.58-1.25c.43-1.09.89-2.3,1.43-3.69,1.24-3.2,2.84-7.9,4.66-13.76a244.9,244.9,0,0,0,9.47-47,347.26,347.26,0,0,0,1-47.92c-.27-6.13-.55-11.08-.82-14.5-.13-1.48-.24-2.77-.33-3.93a5.09,5.09,0,0,0-.21-1.37,6.23,6.23,0,0,0-.06,1.38c0,1.17.05,2.47.08,3.95.11,3.87.25,8.73.41,14.5a402,402,0,0,1-1.39,47.75,271.3,271.3,0,0,1-9,46.84c-1.71,5.87-3.17,10.61-4.26,13.85l-1.19,3.76A6.21,6.21,0,0,0,406.85,255.4Z"/><path class="cls-1" d="M288.68,260.62a6,6,0,0,0,1.28.76,36.45,36.45,0,0,0,3.89,1.79,48.82,48.82,0,0,0,15.42,3.12,59.27,59.27,0,0,0,23-3.7,76.31,76.31,0,0,0,24.23-15.1c7.6-6.78,13.53-14.57,18.53-21.73s9.34-13.82,12.62-19.59a114.74,114.74,0,0,0,6.91-14.12c.66-1.74,1.15-3.09,1.41-4a5.7,5.7,0,0,0,.37-1.45c-.11,0-.77,1.9-2.26,5.28a136.08,136.08,0,0,1-7.24,13.85c-3.37,5.68-7.69,12.26-12.81,19.35s-10.92,14.75-18.42,21.46a76.66,76.66,0,0,1-23.77,14.94,59.91,59.91,0,0,1-22.57,3.91A51.3,51.3,0,0,1,294,262.68C290.55,261.47,288.74,260.49,288.68,260.62Z"/><path class="cls-1" d="M276.83,195.17a17,17,0,0,0,1.85,2.79,56.49,56.49,0,0,0,6,6.9,72.77,72.77,0,0,0,10.45,8.67,76.59,76.59,0,0,0,30.68,12.29,73.4,73.4,0,0,0,13.54,1,57.41,57.41,0,0,0,9.09-.87,16.31,16.31,0,0,0,3.27-.74c-.05-.28-4.73.68-12.37.67a79.59,79.59,0,0,1-54-21.64C279.78,198.93,277.06,195,276.83,195.17Z"/><path class="cls-1" d="M274.08,176.13a12.21,12.21,0,0,0,1.79,2.33c1.21,1.45,3.05,3.47,5.38,5.9a185.59,185.59,0,0,0,19.66,17.56,184.55,184.55,0,0,0,21.95,14.58c2.94,1.65,5.36,2.92,7.07,3.72a12.7,12.7,0,0,0,2.7,1.14,12.83,12.83,0,0,0-2.46-1.6l-6.83-4.07a240.13,240.13,0,0,1-21.62-14.82,241.24,241.24,0,0,1-19.8-17.17l-5.67-5.59A12.57,12.57,0,0,0,274.08,176.13Z"/><path class="cls-1" d="M249.3,146.77a3.61,3.61,0,0,0-.11,1.13c0,.74,0,1.83.06,3.24.14,2.8.55,6.85,1.25,11.82,1.41,9.93,3.93,23.57,7.54,38.44s7.63,28.18,11.49,37.48a51.62,51.62,0,0,0,5.56,10.54,11.62,11.62,0,0,0,2.24,2.37,3.59,3.59,0,0,0,1,.56,16.61,16.61,0,0,1-2.81-3.23,58.51,58.51,0,0,1-5.11-10.59c-3.61-9.31-7.49-22.6-11.07-37.44s-6.27-28.41-7.9-38.27c-.82-4.94-1.36-8.95-1.67-11.73S249.4,146.77,249.3,146.77Z"/><path class="cls-1" d="M408.16,51.19a12.36,12.36,0,0,0,0,2.89c.13,2.38.28,5,.44,7.83.32,6.62.63,15.76.48,25.86s-.66,19.25-1.25,25.84c-.29,2.84-.56,5.42-.8,7.8a12.65,12.65,0,0,0-.22,2.88,11.75,11.75,0,0,0,.73-2.8c.36-1.83.81-4.48,1.22-7.78a236.25,236.25,0,0,0,1.64-25.92c.16-10.14-.3-19.32-.86-25.94-.3-3.31-.59-6-.87-7.82A11.1,11.1,0,0,0,408.16,51.19Z"/><path class="cls-1" d="M278.94,132.63a4.15,4.15,0,0,0,0-1.25c-.09-1.07-.19-2.24-.3-3.56-.31-3.56-.69-7.93-1.14-13.08-.81-11-1.65-26.37,0-43.17a152.16,152.16,0,0,1,4-23.39,54.31,54.31,0,0,1,8.11-17.4c3.17-4.51,6.09-7.92,8.07-10.3l2.29-2.74c.51-.64.77-1,.73-1a4.77,4.77,0,0,0-.93.84l-2.48,2.58a115.71,115.71,0,0,0-8.45,10.1,53.63,53.63,0,0,0-8.52,17.61,144.86,144.86,0,0,0-4.11,23.59,226.56,226.56,0,0,0,.42,43.38c.54,5.53,1.12,10,1.55,13.06.21,1.31.39,2.47.56,3.53A4.63,4.63,0,0,0,278.94,132.63Z"/><path class="cls-1" d="M263.38,108.5c-.17,0,.3,2.33,1.35,5.94a145.58,145.58,0,0,0,11.17,27.15c1.79,3.31,3.05,5.26,3.21,5.18s-.81-2.2-2.38-5.6-3.7-8.1-5.87-13.38-4-10.12-5.23-13.64S263.56,108.45,263.38,108.5Z"/><path class="cls-8" d="M328.55,219.29l-1.11.16,20.62,6.81a80.43,80.43,0,0,1-87.77-70.06A162.43,162.43,0,0,0,328.55,219.29Z"/><path class="cls-8" d="M344.88,255.89c12.73-8.71,22.41-21.1,31.61-33.48,18-24.25,31-61.31,36.84-90.95,1.51,12.19,7.09,22.42-.81,46.74-5.85,17.19-11.76,34.52-20.92,50.2s-21.92,29.8-38.36,37.53-36.86,8.24-52.21-1.48C315.71,269.18,332.14,264.59,344.88,255.89Z"/><path class="cls-1" d="M360.79,160.73c0,.21-1.53.88-4.26.84a16.27,16.27,0,0,1-15.46-12.47c-.61-2.66-.3-4.34-.08-4.34s.45,1.6,1.33,4a17.49,17.49,0,0,0,14.32,11.55C359.13,160.63,360.74,160.45,360.79,160.73Z"/><path class="cls-9" d="M754.81,289.06s-42.58,38.81-38.37,74.11S699.8,547.7,681.75,618.94l75.56-4C808.74,534.4,754.81,289.06,754.81,289.06Z"/><path class="cls-10" d="M857.23,39a61,61,0,0,1,38.28,12.43c15.45,12,32.52,36.09,30,82.3-5.87,109.44,54.11,183.16,54.11,183.16l-209.37-7.65s24.94-66.9,6.87-165.91C769.37,100.67,758.08,40.25,857.23,39Z"/><path class="cls-2" d="M812.46,186a14,14,0,1,1-14-14A14,14,0,0,1,812.46,186Z"/><path class="cls-9" d="M939.62,596.54a141.56,141.56,0,0,1-17.49,8.36c-1,.41-2,.82-3.1,1.25-4.25,1.64-9.09,3.37-14.46,5a208.3,208.3,0,0,1-37,7.78H822.52A188.56,188.56,0,0,1,754.33,597l-2.94-1.63c-2.09-1.19-4.19-2.41-6.29-3.7a228.07,228.07,0,0,1-20.82-14.44l5.7-16,3.38-9.53a.14.14,0,0,1,0-.06l.88-2.48v0l8.79-24.74a.43.43,0,0,0,0-.11l.37-1,2.07-5.82,27-.21,3.92,0,6.57,0h1.06l24.61-.2,5.17,0,19.41-.15h2.92l85.95-.67,3,0L933,516s.74,11.22,1.92,26.89c.61,8,1.33,17.06,2.13,26.44a2.09,2.09,0,0,1,0,.25c.1,1,.18,2,.26,2.91s.18,2.08.28,3.13.19,2.27.3,3.4c.44,5,.91,9.92,1.4,14.73C939.42,594.67,939.52,595.61,939.62,596.54Z"/><path class="cls-9" d="M978.52,423.38c-18.11,39.92-36.29,81.92-38.9,112-1.1,12.54-27.16,16.83-60,16.2-59.25-1.16-140.59-18.35-137.13-32a394.93,394.93,0,0,0,10.78-63.33c7-80.71-14.24-131.89-1-162.66,6.18-14.38,31.93-28.34,54.14-38.08,18.66-8.17,34.79-13.38,34.79-13.38l58.92-3.2s86,41.47,104.12,68.48C1024,336.87,1002.85,369.76,978.52,423.38Z"/><path class="cls-11" d="M744.73,312.8A162.11,162.11,0,0,1,726.12,385c-.85,1.62,1.61,3.07,2.46,1.44a165.27,165.27,0,0,0,19-73.64,1.43,1.43,0,0,0-2.85,0Z"/><path class="cls-11" d="M802.81,328.29a114.72,114.72,0,0,0,94.5-13.16c1.54-1,.11-3.46-1.44-2.46a111.9,111.9,0,0,1-92.3,12.87c-1.76-.53-2.51,2.22-.76,2.75Z"/><path class="cls-11" d="M754.36,469a195.52,195.52,0,0,0,115.82,6.31c1.84-.47,1.06-3.32-.79-2.86a192.63,192.63,0,0,1-114.24-6.3c-1.79-.67-2.56,2.19-.79,2.85Z"/><path class="cls-11" d="M963.35,404.46a304.9,304.9,0,0,0-43.33,128c-.19,1.9,2.76,1.88,3,0A301.52,301.52,0,0,1,965.9,406c1-1.62-1.56-3.11-2.55-1.49Z"/><path class="cls-9" d="M752.24,327.48s3,21.13-21.66,49.67c-29.82,34.46,14.55,72.11,24.18,83S752.24,327.48,752.24,327.48Z"/><path class="cls-1" d="M803.73,255.77S785.92,335.32,789,348.15c2.42,10.19,88.52,17.58,99.06,6.47C898.86,343.21,925.81,251,925.81,251s23.26,0,40.32,23.83c-8.27-8.48-52.94,112.47-40.32,198.89,6.15,42.08,31.1,120.07,31.1,120.07A739.76,739.76,0,0,1,729.24,561s18.68-40.55,19.68-66.18,8.78-10.66-6.55-36.53S703,416.86,726.9,382s47-61.94,45.46-110.35C781,262.74,790.73,258.11,803.73,255.77Z"/><path class="cls-3" d="M913.68,294.11A38.7,38.7,0,0,1,946.34,306c1.27,1.33,3.28-.69,2-2a41.37,41.37,0,0,0-34.68-12.74c-1.81.2-1.83,3.05,0,2.85Z"/><path class="cls-3" d="M772.08,293.11a31.33,31.33,0,0,1,22.65.36c1.71.67,2.45-2.09.76-2.75a33.74,33.74,0,0,0-24.17-.36c-1.72.61-1,3.37.76,2.75Z"/><path class="cls-3" d="M753.17,394.3a387.24,387.24,0,0,0,137,11.74c1.82-.17,1.83-3,0-2.85a384.84,384.84,0,0,1-136.26-11.64,1.43,1.43,0,0,0-.76,2.75Z"/><path class="cls-3" d="M889.54,405a342.9,342.9,0,0,1,.51,61.88c-.42,5.08-.93,10.16-1.62,15.21s-1.52,10.61-5.94,13.71c-4,2.79-9.3,2.78-14,3.06-5.27.31-10.54.53-15.82.63a403.28,403.28,0,0,1-63.75-3.72c-8.35-1.16-17.36-2.07-25-5.82-9.62-4.68-12.93-13.62-13.42-23.83-1.12-23.69,1.27-47.94,5-71.3.29-1.8-2.46-2.57-2.75-.76-3.74,23.19-5.94,47-5.19,70.48.26,8.39,1.67,17.21,8.05,23.24,5.81,5.49,13.92,7.65,21.57,9a379,379,0,0,0,69.89,5.6c10.2-.07,21.68.65,31.64-1.87,8.09-2.05,11.11-8.61,12.28-16.3,4-26.08,4-53,1.4-79.25-.18-1.81-3-1.83-2.85,0Z"/><path class="cls-3" d="M915.09,372.59A11.63,11.63,0,1,1,903.46,361,11.63,11.63,0,0,1,915.09,372.59Z"/><path class="cls-3" d="M779.32,358.33a11.63,11.63,0,1,1-11.63-11.63A11.63,11.63,0,0,1,779.32,358.33Z"/><path class="cls-12" d="M904.17,248.52s-37,34.33-76.88,7.58l2.24-23L832,208l1.71-17.57,50.26-34.48Z"/><path class="cls-10" d="M874.7,185.26c-18.9,44.59-39.31,61.47-46.46,61.06L832,208Z"/><path class="cls-9" d="M821.06,249.41s2-23.54,7.18-24.79,15.77,9.58,32.52,6.14,31.93-18.6,39.26-15,9.91,36.15,9.91,36.15-23.51,26.61-55.06,23.65S821.06,249.41,821.06,249.41Z"/><path class="cls-11" d="M821.5,262.35a89.48,89.48,0,0,0,51.43,9.95c13.51-1.49,30.61-5.65,36.22-19.64.68-1.71-2.08-2.45-2.75-.76-5.59,14-25.15,17.24-38.29,18a86.91,86.91,0,0,1-45.17-10c-1.63-.85-3.07,1.61-1.44,2.46Z"/><path class="cls-12" d="M899.62,142.56c-3.56,17.68-8,23.79-19.32,41.64-10.12,15.93-29,25.14-38.9,26.77-36,5.94-54.09-7.33-53.75-56.86.22-30.76-9.64-47.08-2.87-59.52h0c.48-.59,1-1.16,1.44-1.72a69.06,69.06,0,0,1,45.92-23.31C920.15,61.31,904.73,117.18,899.62,142.56Z"/><path class="cls-13" d="M854.86,151c.15,2.63-3.82,5-8.86,5.27s-9.24-1.61-9.39-4.24,3.82-5,8.86-5.27S854.72,148.41,854.86,151Z"/><path class="cls-13" d="M802.8,156.65c.15,2.64-3.82,5-8.85,5.27a14.5,14.5,0,0,1-6.22-.89c-.07-2.23-.09-4.53-.08-6.92v-.28a15.1,15.1,0,0,1,5.76-1.41C798.45,152.14,802.65,154,802.8,156.65Z"/><path class="cls-10" d="M895.52,73.34C866.11,55,814.07,43.85,781.17,84.21c-10.88,16.63,3.89,48.63,3.29,37.34C783,95,796.41,80.26,802.81,87.21c0,0,48.33,44.15,77.17,39.05,0,0,7.63,21.24,24.67,26.25C913.65,127,911.49,95.39,895.52,73.34Z"/><path class="cls-12" d="M865.9,158.45a22,22,0,0,1,1.62-19.14c4.35-7.56,12.52-19.26,21-18.59,12.52,1,14.64,11.95,14.08,23.27s-7.1,26.48-22.73,25C872.08,168.26,868,163.55,865.9,158.45Z"/><path class="cls-2" d="M906.42,169.1a14,14,0,1,1-14-14A14,14,0,0,1,906.42,169.1Z"/><path class="cls-10" d="M882.15,155.36c-1-4.54-1.67-9.32-.32-13.87,1.21-4.06,5.14-10.13,10.32-8.89,1.74.42,2.69-2.22.94-2.64-5-1.2-9.39,2-11.94,6.2-3.68,6-3.16,13.15-1.75,19.75a1.4,1.4,0,0,0,2.75-.55Z"/><path class="cls-1" d="M972.91,618.94h-265c.69-2.26,1.24-4.07,1.63-5.39,0-.18.11-.36.16-.54a2.72,2.72,0,0,1,.13-.37c.05-.22.12-.44.19-.65l.21-.66a1.81,1.81,0,0,0,.09-.31c.68-2.11,1.37-4.18,2.06-6.23,6.14-18.09,12.75-34.18,16.88-43.8h0c.07-.15.14-.31.19-.44l.25-.57c.48-1.13.92-2.15,1.34-3.08.14-.33.29-.65.43-1a2.92,2.92,0,0,1,.19-.44c1-2.2,1.59-3.52,1.71-3.81a.14.14,0,0,1,0-.06,188.85,188.85,0,0,0,19.43,8l3.21,1.12c2.62.91,5.45,1.85,8.49,2.8a328.6,328.6,0,0,0,65.63,13.15c10.35,1,21.34,1.57,32.86,1.53,1.12,0,2.25,0,3.38,0a320.32,320.32,0,0,0,61.14-6.74l1.74-.36h0c.51-.13,1-.24,1.51-.35,1.89-.41,3.76-.84,5.67-1.32h0a3.26,3.26,0,0,0,.6-.14c.84-.19,1.69-.4,2.54-.61l1.21,1.41c.65.79,1.55,1.86,2.65,3.23.08.11.18.23.29.36.66.84,1.41,1.78,2.19,2.8,2.71,3.48,6.09,8,9.75,13.37A251.51,251.51,0,0,1,972.91,618.94Z"/><path class="cls-3" d="M949.84,571.66c-69.44,24.25-148.31,18.47-213.32-16.31-1.9-1-3.77,1.78-1.86,2.8a264.58,264.58,0,0,0,49,20.29,273.12,273.12,0,0,0,167-3.56C950.41,573.81,950.11,572.74,949.84,571.66Z"/><path class="cls-3" d="M762.7,541.87a58.74,58.74,0,0,0-7.18,22.4c-.24,2.14-3.6,2-3.36-.19A63.42,63.42,0,0,1,759.89,540c1.06-1.89,3.87,0,2.81,1.86Z"/><path class="cls-3" d="M924.64,547.13a98.78,98.78,0,0,1,6.8,30.28c.14,2.15-3.23,2-3.37-.19a93.09,93.09,0,0,0-6.43-28.55c-.8-2,2.2-3.55,3-1.54Z"/><path class="cls-3" d="M863.42,557A75.22,75.22,0,0,1,866,585.28c-.21,2.15-3.57,2-3.36-.18a72.91,72.91,0,0,0-2.54-27.41c-.61-2.09,2.69-2.79,3.29-.72Z"/><path class="cls-3" d="M809.16,564.43a8.32,8.32,0,1,1-7.85-8.77A8.32,8.32,0,0,1,809.16,564.43Z"/><path class="cls-3" d="M926.69,617.27q.3.84.66,1.65a0,0,0,0,0,0,0h-3.59a.43.43,0,0,1,0-.13c-.35-.85-.68-1.69-1-2.53-1.32-3.42-2.54-6.82-3.67-10.13-.07-.16-.12-.34-.18-.51-.7-2,2.57-2.74,3.28-.74l0,0C923.51,608.93,925,613.09,926.69,617.27Z"/><path class="cls-3" d="M755.05,595.67c-.23.45-.47.91-.72,1.35A79,79,0,0,1,737,618.94h-5.22l.31-.24a77.16,77.16,0,0,0,19.31-23.31c.29-.51.57-1,.85-1.57C753.23,591.89,756,593.76,755.05,595.67Z"/><path class="cls-9" d="M1051.42,419.71c-11.55-54.28-31.22-89.07-44.4-107.57l0,0a124.62,124.62,0,0,0-13.33-16.2l-.11-.09-.11-.11a61.53,61.53,0,0,0-11.09,7.1c-.75.6-1.48,1.2-2.19,1.84a65.49,65.49,0,0,0-5.55,5.38,76.51,76.51,0,0,0-5.42,6.48C946.86,346,941.27,391,940,406.51c-.31,3.46-.37,5.45-.37,5.45s4.12,7.75,9.2,19.09l1.57,3.55A303,303,0,0,1,961.16,463s0,0,0,0h0c3.62,11.43,12.27,49.42,11.92,58.71.32,3.91-10.33,41.34-17.38,68.15l17.2,29.07h37.41c23.32-8.74,37.17-27.1,44.7-50.25C1069.17,525.28,1061.07,465,1051.42,419.71Z"/><path class="cls-11" d="M1041.53,495.92a398.73,398.73,0,0,0-15.77-100.5c-10.83-36.65-27.53-71.49-50.24-102.27-1.08-1.46-3.56,0-2.46,1.44,39,52.81,59.59,117.06,64.59,182.15a388.11,388.11,0,0,1,.95,47.5c-.73,15.85-4.12,33.07-18.81,41.87-10.76,6.45-23.71,7.45-36.2,7.29.16,1,.32,2,.47,3,9.76.06,19.53-.76,28.62-3.88C1044.64,561.5,1042.39,523.6,1041.53,495.92Z"/><path class="cls-11" d="M1055,568.69c-7.53,23.15-21.38,41.51-44.7,50.25H1005C1007.19,579.85,1038.41,570.76,1055,568.69Z"/><path class="cls-11" d="M933.2,399.14a391.86,391.86,0,0,1,25.5,63.31c.53,1.75,3.29,1,2.75-.76a397.23,397.23,0,0,0-25.79-64c-.83-1.64-3.29-.2-2.46,1.44Z"/><path class="cls-11" d="M1002.34,550a106.85,106.85,0,0,0-29.24-29.48c0,.4,0,.79,0,1.19.07.82.15,1.63.22,2.45a103.56,103.56,0,0,1,26.57,27.28C1000.89,553,1003.36,551.54,1002.34,550Z"/><path class="cls-11" d="M1005.6,526.9a65.15,65.15,0,0,0-32.49-7.36c0,.73,0,1.45,0,2.18l.06.67a62.07,62.07,0,0,1,31,7C1005.79,530.21,1007.23,527.75,1005.6,526.9Z"/><path class="cls-10" d="M793.18,141.39a4.32,4.32,0,0,0,4.38,4.15,4.14,4.14,0,0,0,4.27-4.12,4.34,4.34,0,0,0-4.39-4.15A4.13,4.13,0,0,0,793.18,141.39Z"/><path class="cls-10" d="M788.08,126.13c.57.54,3.72-2,8.37-2.27s8.18,1.93,8.66,1.34c.23-.27-.36-1.26-1.9-2.27a12,12,0,0,0-7-1.77,11.46,11.46,0,0,0-6.62,2.52C788.24,124.85,787.81,125.89,788.08,126.13Z"/><path class="cls-10" d="M816.49,162.53c0-.26-2.91-.61-7.62-1-1.2-.06-2.33-.24-2.57-1s.11-2.15.61-3.56c1-2.93,2-6,3.06-9.22,4.23-13.12,7.24-23.89,6.71-24s-4.4,10.33-8.63,23.45c-1,3.24-2,6.32-2.91,9.27-.38,1.37-1.07,2.94-.38,4.69a3,3,0,0,0,2,1.64,8.46,8.46,0,0,0,2,.18C813.56,162.93,816.49,162.8,816.49,162.53Z"/><path class="cls-10" d="M790.33,112.13c.87,1,4-.24,7.87-.49s7.16.36,7.85-.79c.3-.55-.26-1.58-1.74-2.51a11.41,11.41,0,0,0-12.66,1C790.34,110.52,790,111.63,790.33,112.13Z"/><path class="cls-10" d="M842.51,141.12a4.32,4.32,0,0,1-4.12,4.42,4.14,4.14,0,0,1-4.51-3.84,4.35,4.35,0,0,1,4.12-4.43A4.15,4.15,0,0,1,842.51,141.12Z"/><path class="cls-10" d="M845.19,127.33c-.53.57-3.84-1.81-8.5-1.74s-8,2.44-8.55,1.88c-.25-.25.28-1.28,1.76-2.38a11.8,11.8,0,0,1,6.83-2.2A11.41,11.41,0,0,1,843.5,125C845,126.06,845.45,127.08,845.19,127.33Z"/><path class="cls-10" d="M843.83,110.23c-.81,1.06-4,0-7.89,0s-7.11.8-7.88-.29c-.34-.53.17-1.6,1.58-2.62a11.44,11.44,0,0,1,12.7.23C843.72,108.62,844.18,109.71,843.83,110.23Z"/><path class="cls-2" d="M806.13,175.72s8.4-2.27,24.94-6.62c0,0,1.72,18.26-10.53,20.1C810.14,190.76,806.13,175.72,806.13,175.72Z"/><rect class="cls-14" y="616.94" width="1190.66" height="2.38"/></svg>