<svg id="Layer_1" data-name="Layer 1" xmlns="http://www.w3.org/2000/svg" viewBox="0 0 783.27 381.44"><defs><style>.cls-1{fill:#ff725e;}.cls-2{fill:#e8505b;}.cls-3{fill:#f6f7f7;}.cls-4{fill:#cdd0d1;}.cls-5{fill:#cadaf6;}.cls-6{fill:#cc4252;}.cls-7{fill:#ba3545;}.cls-8{fill:#fff;}.cls-9{fill:#e2ebfa;}.cls-10{fill:#b1c9f2;}.cls-11{fill:#2e3552;}</style></defs><rect class="cls-1" x="273.08" width="299.91" height="381.09"/><rect class="cls-2" x="273.08" y="372.67" width="299.91" height="8.42"/><rect class="cls-3" x="286.33" y="12.85" width="273.42" height="353.93"/><rect class="cls-1" x="305.94" y="114.27" width="234.2" height="5.75"/><rect class="cls-1" x="364.49" y="128.97" width="175.74" height="5.75"/><rect class="cls-1" x="305.91" y="143.42" width="234.32" height="5.75"/><rect class="cls-1" x="305.91" y="157.88" width="234.32" height="5.75"/><rect class="cls-1" x="305.91" y="172.33" width="234.32" height="5.75"/><rect class="cls-1" x="305.91" y="186.79" width="234.32" height="5.75"/><rect class="cls-1" x="364.49" y="201.24" width="175.74" height="5.75"/><rect class="cls-1" x="305.91" y="215.7" width="234.32" height="5.75"/><rect class="cls-1" x="305.91" y="230.15" width="234.32" height="5.75"/><rect class="cls-1" x="494.67" y="342.29" width="45.56" height="5.75"/><rect class="cls-1" x="494.67" y="331.19" width="45.56" height="5.75"/><rect class="cls-1" x="494.67" y="320.09" width="45.56" height="5.75"/><rect class="cls-1" x="306.03" y="320.17" width="45.56" height="5.75"/><path class="cls-1" d="M334.92,96.62l-9.34-13.14a28.8,28.8,0,0,1-3.27.18h-11v13H307V55.74h15.3q7.81,0,12.26,3.74T339,69.76a13.33,13.33,0,0,1-2.42,8.09,13.51,13.51,0,0,1-6.92,4.76l10,14Zm-3.44-19.33a9.28,9.28,0,0,0,3.21-7.53,9.33,9.33,0,0,0-3.21-7.62c-2.15-1.77-5.24-2.66-9.29-2.66H311.33V80h10.86C326.24,80,329.33,79.08,331.48,77.29Z"/><path class="cls-1" d="M373.7,96.62l-13.2-18-13.14,18h-5l15.53-21L343.39,55.74h5l12.32,16.7,12.27-16.7h4.67L363.13,75.48l15.59,21.14Z"/><rect class="cls-4" x="384" y="54.77" width="156.52" height="42.34"/><rect class="cls-4" x="306.85" y="255.44" width="233.38" height="42.34"/><rect class="cls-5" x="240.39" y="116.69" width="93.25" height="36.95" rx="2.22"/><path class="cls-6" d="M311.56,178.89V362.73a18.72,18.72,0,0,1-18.72,18.71h42.27a9.72,9.72,0,0,0,9.72-9.72v-22.2l-11.18-61,11.18-66.38V178.89H311.56Z"/><path class="cls-2" d="M316.55,178.89V371.72a9.72,9.72,0,0,1-9.73,9.72H238.93a9.73,9.73,0,0,1-9.73-9.72v-22.2l5.58-37.73-5.58-89.65V178.89Z"/><rect class="cls-7" x="229.2" y="183.42" width="115.63" height="10.4"/><path class="cls-8" d="M256.14,209.09a6.75,6.75,0,0,0-13.5,0v13h13.5Z"/><rect class="cls-9" x="229.2" y="222.14" width="87.35" height="127.38"/><rect class="cls-5" x="316.55" y="222.14" width="28.28" height="127.38"/><path class="cls-8" d="M249.39,327.16a6.77,6.77,0,0,0,6.75-6.75V222.14h-13.5v98.27A6.77,6.77,0,0,0,249.39,327.16Z"/><path class="cls-10" d="M224.48,135.16H349.55a2.22,2.22,0,0,1,2.22,2.22v34.72a0,0,0,0,1,0,0H222.26a0,0,0,0,1,0,0V137.39a2.22,2.22,0,0,1,2.22-2.22Z"/><rect class="cls-9" x="210.28" y="166.55" width="153.48" height="16.87" rx="1.75"/><rect class="cls-11" y="379.48" width="783.27" height="1.96" rx="0.98"/></svg>