<svg id="Layer_1" data-name="Layer 1" xmlns="http://www.w3.org/2000/svg" xmlns:xlink="http://www.w3.org/1999/xlink" viewBox="0 0 351.09 351.09"><defs><style>.cls-1{fill:none;}.cls-2{fill:#d8ebf4;}.cls-3{clip-path:url(#clip-path);}.cls-4{fill:#754;}.cls-10,.cls-11,.cls-12,.cls-4,.cls-5{fill-rule:evenodd;}.cls-5{fill:#96755b;}.cls-6{fill:#2b2b2b;}.cls-7{fill:#f4e4e4;opacity:0.49;}.cls-8{fill:#bcafb2;}.cls-9{fill:#d1c3c5;}.cls-10{fill:#c63446;}.cls-11,.cls-13{fill:#e8505b;}.cls-12{fill:#263238;}</style><clipPath id="clip-path"><circle class="cls-1" cx="175.54" cy="175.54" r="175.54"/></clipPath></defs><circle class="cls-2" cx="175.54" cy="175.54" r="175.54"/><g class="cls-3"><path class="cls-4" d="M154.22,59.21l20.64-18c1.36-2.53,35.56-3.42,25.86,4.87L190,55.3c-4.43,3.79-4.24,3.08-5.52,8.85l-4.74,21.38c-.68,3.08-14.88,13.37-18.06,13.36a6.1,6.1,0,0,1-6-5.8Z"/><path class="cls-5" d="M150.25,89.08,149.7,54.2c-.14-8.93,13.45-9.14,13.59-.22l.55,34.89a6.81,6.81,0,0,1-6.69,6.9h0A6.82,6.82,0,0,1,150.25,89.08Z"/><path class="cls-6" d="M172.06,132.84l-3.9.93h0l-3.9.93a3.76,3.76,0,0,0-2.76,4.49c0,.11.06.21.1.32a3.6,3.6,0,0,0-1.82-.46,3.72,3.72,0,0,0-3-6.8L153,133.57h0l-3.79,1.31a3.73,3.73,0,0,0,2.44,7l5.71-2a3.67,3.67,0,0,0-1.28,3.08,3.77,3.77,0,0,0-1.68-.56,3.71,3.71,0,0,0-2.24.53,3.74,3.74,0,0,0-3.82,1.57l-4.48,6.66a3.73,3.73,0,0,0,5.91,4.52,3.77,3.77,0,0,0,.22,1l1.44,3.75h0l1.43,3.74a3.75,3.75,0,0,0,3,2.36l-.92.5h0l-3.54,1.9a3.73,3.73,0,0,0,3.54,6.56l3.53-1.91h0l2.26-1.22a3.73,3.73,0,0,0,3.49,2l4-.2h0l4-.19a3.72,3.72,0,0,0,3.26-5.14,3.76,3.76,0,0,0,2.54.05,3.65,3.65,0,0,0,1.94,1.39l3.84,1.16h0l3.84,1.16a3.69,3.69,0,0,0,2.83-.29,3.71,3.71,0,0,0,.48-6.25,3.65,3.65,0,0,0,1.38-1.3,3.74,3.74,0,0,0-1.21-5.12l-3.41-2.11h0l-3.41-2.12a3.92,3.92,0,0,0-1.48-.52,3.69,3.69,0,0,0-.88-2.4l-.5-.6,1.24.77h0l3.41,2.11a3.72,3.72,0,1,0,3.92-6.33l-3.41-2.11h0l-3.41-2.11-.14-.08a3.39,3.39,0,0,0,.77-.79l1.21.75a3.72,3.72,0,1,0,3.92-6.33l-6.82-4.23a3.75,3.75,0,0,0-5.13,1.21,3.7,3.7,0,0,0-.4.94l0-.14A3.73,3.73,0,0,0,172.06,132.84Zm-.22,33.74-1.36.07a3.65,3.65,0,0,0,1-1,2.73,2.73,0,0,0,.25-.48l1.34,1.58A3.82,3.82,0,0,0,171.84,166.58ZM166,141.94l5.25-1.25a3.73,3.73,0,0,0-1.66,4.05,3.67,3.67,0,0,0-1-.92L165.65,142Zm-13.53,9.86.68-1,.76.89A3.71,3.71,0,0,0,152.46,151.8Zm11.67-2a3.69,3.69,0,0,0-1.51.81,3.64,3.64,0,0,0-.49-.76l-2.3-2.72Zm6.69-3.12a3.78,3.78,0,0,0-.56,2.88l-1,0a3.67,3.67,0,0,0,1-3.51A3.41,3.41,0,0,0,170.82,146.71Zm-13.28,8.86a3.73,3.73,0,0,0,4.16-.44l.06-.06a4,4,0,0,0,.47.73,3.78,3.78,0,0,0-1.64,0,3.71,3.71,0,0,0-2.31,1.66h0Zm9.28,2.81-2-1.25a2,2,0,0,0,.35,0l3.46-.07a3.71,3.71,0,0,0-.72,2l-1.08-.67Zm16.32,5.13-1-.32a3.73,3.73,0,0,0-2.27.05l-.18-.24-5.19-6.12-.11-.11a3.83,3.83,0,0,0,1-.52l.92,1.09a3.74,3.74,0,0,0,2.36,1.28,3.72,3.72,0,0,0,1.76,3.17Zm-6.3-17,.84-.29a3.81,3.81,0,0,0-.19,1Zm.09-7.91-1.16.4h0l-.23.08a3.72,3.72,0,0,0,1-1.63A4,4,0,0,0,176.93,138.62ZM160.07,163l2.83,1.75h0l3.41,2.11.05,0-2.53.12-.19,0c0-.11-.1-.22-.16-.33a3.71,3.71,0,0,0-3.93-1.89A3.83,3.83,0,0,0,160.07,163Z"/><polygon class="cls-7" points="219.74 70.54 209.96 72.06 202.86 70.54 135.01 70.54 131.45 177.43 205.06 180.48 225.84 175.4 219.74 70.54"/><path class="cls-7" d="M179.78,174.84l-15.88-7.4a31,31,0,0,1-8.22-5.58l-4.75-4.49a15.9,15.9,0,0,0-18-2.66l-.71.36-.75,22.36,73.61,3Z"/><polygon class="cls-8" points="219.74 70.54 209.96 72.06 202.86 70.54 205.06 180.48 225.84 175.4 219.74 70.54"/><polygon class="cls-9" points="209.96 72.06 202.86 70.54 205.06 180.48 213.52 165.97 209.96 72.06"/><path class="cls-5" d="M151.42,49.47,172.8,18.82l34.52-14C220.28-.44,273.44-18,287-21.44l-.12,53.52-35,1c-.47,0-5.13,12.8-9.23,15.56L211.05,70a1.22,1.22,0,0,1-.84.17l-30,24.51c-3.45,2.81-8.31,3.15-11.46,0h0a8.13,8.13,0,0,1,0-11.46C178.65,73.3,189.1,63.44,198.49,53l1.24-5.74c1.07-5,.93-6-3.79-6.63L190,39.9c-5.35-.7-4-.8-8,3L162.51,61.5,151.42,58C148.27,57,149.53,52.19,151.42,49.47Z"/><path class="cls-5" d="M242.67,48.65,211.05,70a1.21,1.21,0,0,1-.84.17l-30,24.51c-3.45,2.81-8.31,3.15-11.46,0h0a8.13,8.13,0,0,1,0-11.46C178.65,73.3,189.1,63.44,198.49,53l1.24-5.74Z"/><path class="cls-10" d="M247.4,196.91h24.82A17.12,17.12,0,0,1,289.32,214v21.44a17.14,17.14,0,0,1-17.1,17.09H247.4a17.14,17.14,0,0,1-17.09-17.09V214a17.12,17.12,0,0,1,17.09-17.09Zm24.82,7.1H247.4a10,10,0,0,0-10,10v21.44a10,10,0,0,0,10,10h24.82a10,10,0,0,0,10-10V214a10,10,0,0,0-10-10Z"/><path class="cls-11" d="M78.68,196.91H103.5A17.12,17.12,0,0,1,120.59,214v21.44a17.14,17.14,0,0,1-17.09,17.09H78.68a17.14,17.14,0,0,1-17.1-17.09V214a17.12,17.12,0,0,1,17.1-17.09ZM103.5,204H78.68a10,10,0,0,0-10,10v21.44a10,10,0,0,0,10,10H103.5a10,10,0,0,0,10-10V214a10,10,0,0,0-10-10Z"/><path class="cls-11" d="M100.6,178.19H250.06c10,0,19.67,8.3,18.16,18.17L241.13,374.17C239.62,384,233,392.33,223,392.33H127.7c-10,0-16.65-8.29-18.16-18.16L82.44,196.36C80.94,186.48,90.61,178.19,100.6,178.19Z"/><path class="cls-10" d="M175.33,178.19h74.73c10,0,19.67,8.3,18.16,18.17L241.13,374.17C239.62,384,233,392.33,223,392.33H175.33Z"/><path class="cls-12" d="M117.58,201.71c4.52,0,8.2.94,11.06,3.8s4.64,7.25,5.61,14.38l18.81,139.53c.64,4.79.84,9.23-.38,12.58-1.35,3.7-4.21,6-9.62,6h-4.57c-5.27,0-8.5-2.21-10.61-5.74-2-3.29-2.87-7.67-3.58-12.41L103.39,220.32a23.16,23.16,0,0,1-.25-3.27,16.49,16.49,0,0,1,3.07-10,13.27,13.27,0,0,1,8.87-5.18,16.91,16.91,0,0,1,2.5-.18Zm8.86,6c-2.17-2.16-5.14-2.87-8.86-2.87a14.78,14.78,0,0,0-2,.14,10.22,10.22,0,0,0-6.82,3.95,13.41,13.41,0,0,0-2.43,8.11,19.53,19.53,0,0,0,.21,2.82L127.4,359.4c.66,4.41,1.47,8.44,3.16,11.26,1.55,2.59,4,4.22,7.93,4.22h4.57c3.81,0,5.79-1.52,6.68-3.95,1-2.77.81-6.74.22-11.09L131.15,220.3C130.28,213.91,128.72,210,126.44,207.72Z"/><path class="cls-12" d="M170.46,201.71h9.74a10.37,10.37,0,0,1,7.35,3.06h0a10.37,10.37,0,0,1,3.06,7.35V367.9a10.37,10.37,0,0,1-3.06,7.35h0a10.37,10.37,0,0,1-7.35,3.06h-9.74a10.37,10.37,0,0,1-7.35-3.06h0A10.41,10.41,0,0,1,160,367.9V212.13a10.41,10.41,0,0,1,3.06-7.35h0a10.37,10.37,0,0,1,7.35-3.06Zm9.74,3.14h-9.74a7.29,7.29,0,0,0-5.14,2.13h0a7.26,7.26,0,0,0-2.14,5.14V367.9a7.22,7.22,0,0,0,2.14,5.14h0a7.29,7.29,0,0,0,5.14,2.13h9.74a7.26,7.26,0,0,0,5.14-2.13h0a7.21,7.21,0,0,0,2.13-5.14V212.13a7.25,7.25,0,0,0-2.13-5.14h0A7.26,7.26,0,0,0,180.2,204.85Z"/><path class="cls-12" d="M233,204.88a10.47,10.47,0,0,0-8.82,3.45c-2.18,2.43-3.87,6.27-4.64,12L200.71,359.87c-.59,4.35-.79,8.32.22,11.09.88,2.43,2.86,4,6.68,4h4.57c4,0,6.37-1.62,7.93-4.21,1.69-2.83,2.49-6.86,3.15-11.27L244.17,219.9c.08-.55.15-1.08.18-1.6a13.31,13.31,0,0,0-2.29-8.93,11.39,11.39,0,0,0-7.73-4.35c-.44-.06-.89-.11-1.35-.14Zm-11.15,1.36a13.51,13.51,0,0,1,11.36-4.49c.56,0,1.09.09,1.6.17a14.46,14.46,0,0,1,9.78,5.59,16.29,16.29,0,0,1,2.9,11c0,.62-.11,1.23-.2,1.85l-20.9,139.53c-.71,4.74-1.61,9.12-3.58,12.41-2.12,3.53-5.34,5.75-10.61,5.75h-4.57c-5.41,0-8.27-2.32-9.62-6-1.22-3.35-1-7.79-.39-12.58l18.82-139.53C217.29,213.5,219.27,209.1,221.83,206.24Z"/><path class="cls-12" d="M175.33,201.71h4.87a10.37,10.37,0,0,1,7.35,3.06h0a10.37,10.37,0,0,1,3.06,7.35V367.9a10.37,10.37,0,0,1-3.06,7.35h0a10.37,10.37,0,0,1-7.35,3.06h-4.87v-3.14h4.87a7.26,7.26,0,0,0,5.14-2.13h0a7.21,7.21,0,0,0,2.13-5.14V212.13a7.25,7.25,0,0,0-2.13-5.14h0a7.26,7.26,0,0,0-5.14-2.13h-4.87Z"/><rect class="cls-13" x="68.51" y="168.82" width="213.64" height="22.27" rx="7.17"/><path class="cls-11" d="M175.33,168.82H277.44c2.59,0,4.71,3.23,4.71,7.17v7.94c0,3.94-2.12,7.17-4.71,7.17H175.33Z"/></g></svg>