<svg id="Layer_1" data-name="Layer 1" xmlns="http://www.w3.org/2000/svg" xmlns:xlink="http://www.w3.org/1999/xlink" viewBox="0 0 332.27 352.56"><defs><style>.cls-1{fill:none;}.cls-2{fill:#d8ebf4;}.cls-3{clip-path:url(#clip-path);}.cls-4{fill:#754;}.cls-10,.cls-11,.cls-12,.cls-4,.cls-5{fill-rule:evenodd;}.cls-5{fill:#96755b;}.cls-6{fill:#2b2b2b;}.cls-7{fill:#f4e4e4;opacity:0.49;}.cls-8{fill:#bcafb2;}.cls-9{fill:#d1c3c5;}.cls-10{fill:#c63446;}.cls-11,.cls-13{fill:#e8505b;}.cls-12{fill:#263238;}</style><clipPath id="clip-path"><circle class="cls-1" cx="166.13" cy="186.43" r="166.13"/></clipPath></defs><circle class="cls-2" cx="166.73" cy="186.43" r="166.13"/><g class="cls-3"><path class="cls-4" d="M146,76.33l19.54-17c1.29-2.4,33.65-3.24,24.47,4.6l-10.17,8.71c-4.19,3.59-4,2.91-5.23,8.38l-4.48,20.23c-.65,2.91-14.08,12.65-17.09,12.64a5.75,5.75,0,0,1-5.66-5.48Z"/><path class="cls-5" d="M142.2,104.6l-.52-33c-.14-8.45,12.73-8.65,12.85-.2l.53,33a6.45,6.45,0,0,1-6.33,6.53h0A6.45,6.45,0,0,1,142.2,104.6Z"/><path class="cls-6" d="M162.84,146l-3.69.88h0l-3.7.88a3.56,3.56,0,0,0-2.18,1.59,3.5,3.5,0,0,0-.42,2.66,1.58,1.58,0,0,0,.09.31,3.47,3.47,0,0,0-1.72-.44,3.52,3.52,0,0,0-2.82-6.43l-3.59,1.24h0L141.22,148a3.53,3.53,0,0,0-2.17,4.48,3.54,3.54,0,0,0,4.48,2.18l5.41-1.88a3.46,3.46,0,0,0-1.22,2.92,3.38,3.38,0,0,0-1.59-.53,3.57,3.57,0,0,0-2.12.5,3.52,3.52,0,0,0-3.61,1.49l-4.24,6.3a3.52,3.52,0,0,0,5.59,4.27,3.47,3.47,0,0,0,.21.93l1.36,3.54h0l1.36,3.55a3.51,3.51,0,0,0,2.8,2.22l-.88.47h0l-3.34,1.81a3.52,3.52,0,1,0,3.35,6.2l3.34-1.8h0l2.14-1.16a3.52,3.52,0,0,0,3.3,1.91l3.79-.18h0L163,185a3.54,3.54,0,0,0,2.44-1.16,3.49,3.49,0,0,0,.91-2.54,3.44,3.44,0,0,0-.26-1.16,3.59,3.59,0,0,0,2.4,0,3.44,3.44,0,0,0,1.83,1.32l3.64,1.09h0l3.63,1.1a3.52,3.52,0,0,0,3.13-6.19,3.43,3.43,0,0,0,1.31-1.23,3.54,3.54,0,0,0-1.14-4.85l-3.23-2h0l-3.23-2a3.51,3.51,0,0,0-1.4-.49,3.52,3.52,0,0,0-.83-2.28l-.47-.56,1.17.73h0l3.23,2a3.53,3.53,0,0,0,3.71-6l-3.23-2h0l-3.23-2-.13-.07A3.7,3.7,0,0,0,174,156l1.15.71a3.52,3.52,0,0,0,3.71-6l-6.46-4a3.53,3.53,0,0,0-4.85,1.14,3.43,3.43,0,0,0-.39.88s0-.08,0-.12A3.53,3.53,0,0,0,162.84,146Zm-.21,31.93-1.29.07a3.52,3.52,0,0,0,.9-1,3.28,3.28,0,0,0,.24-.45l1.26,1.49A3.68,3.68,0,0,0,162.63,177.94Zm-5.54-23.31,5-1.19a3.47,3.47,0,0,0-1.31,1.46,3.53,3.53,0,0,0-.26,2.38,3.31,3.31,0,0,0-1-.87l-2.77-1.72ZM144.29,164l.64-1,.72.85A3.49,3.49,0,0,0,144.29,164Zm11-1.87a3.45,3.45,0,0,0-1.42.77,4,4,0,0,0-.47-.72l-2.18-2.57Zm6.34-3a3.59,3.59,0,0,0-.54,2.73l-.95,0a3.38,3.38,0,0,0,.5-.63,3.51,3.51,0,0,0,.42-2.7A3.48,3.48,0,0,0,161.67,159.14Zm-12.57,8.39a3.53,3.53,0,0,0,3.93-.42l.06-.06a3.52,3.52,0,0,0,.44.69,3.48,3.48,0,0,0-1.54,0,3.58,3.58,0,0,0-2.2,1.57h0Zm8.78,2.65L156,169a1.93,1.93,0,0,0,.34,0l3.27-.06a3.47,3.47,0,0,0-.68,1.86l-1-.63ZM173.33,175l-1-.3a3.5,3.5,0,0,0-2.15,0l-.17-.22-4.91-5.79-.1-.11a3.87,3.87,0,0,0,.92-.49l.87,1a3.55,3.55,0,0,0,2.24,1.21,3.53,3.53,0,0,0,1.66,3Zm-6-16.07.8-.28a3.51,3.51,0,0,0-.18,1Zm.09-7.49-1.11.38h0l-.2.08a3.71,3.71,0,0,0,.91-1.54A3.28,3.28,0,0,0,167.45,151.48Zm-16,23,2.68,1.65h0l3.22,2,.05,0-2.39.11-.18,0-.15-.31a3.53,3.53,0,0,0-3.72-1.79A3.68,3.68,0,0,0,151.49,174.52Z"/><polygon class="cls-7" points="207.96 87.05 198.71 88.5 191.99 87.05 127.77 87.05 124.41 188.22 194.07 191.1 213.73 186.29 207.96 87.05"/><path class="cls-7" d="M170.14,185.76l-15-7a29.33,29.33,0,0,1-7.77-5.28l-4.5-4.25a15,15,0,0,0-17-2.52l-.68.34-.7,21.17,69.66,2.88Z"/><polygon class="cls-8" points="207.96 87.05 198.71 88.5 191.99 87.05 194.07 191.1 213.73 186.29 207.96 87.05"/><polygon class="cls-9" points="198.71 88.5 191.99 87.05 194.07 191.1 202.07 177.37 198.71 88.5"/><path class="cls-5" d="M143.31,67.11l20.23-29L196.2,24.86c12.28-5,62.59-21.6,75.42-24.86l-.1,50.66-33.12,1c-.45,0-4.86,12.11-8.74,14.73l-29.92,20.2a1.18,1.18,0,0,1-.8.16l-28.4,23.19c-3.27,2.67-7.86,3-10.84,0h0a7.67,7.67,0,0,1,0-10.84c9.38-9.38,19.26-18.72,28.15-28.56L189,65.06c1-4.7.87-5.7-3.6-6.28l-5.59-.73c-5.06-.66-3.78-.76-7.54,2.83L153.8,78.5l-10.49-3.33C140.32,74.23,141.51,69.68,143.31,67.11Z"/><path class="cls-5" d="M229.66,66.34l-29.92,20.2a1.16,1.16,0,0,1-.8.16l-28.4,23.19c-3.27,2.67-7.86,3-10.84,0h0a7.67,7.67,0,0,1,0-10.84c9.38-9.38,19.26-18.72,28.15-28.56L189,65.06Z"/><path class="cls-10" d="M234.14,206.65h23.49a16.2,16.2,0,0,1,16.18,16.17v20.29a16.22,16.22,0,0,1-16.18,16.18H234.14A16.23,16.23,0,0,1,218,243.11V222.82a16.22,16.22,0,0,1,16.18-16.17Zm23.49,6.72H234.14a9.49,9.49,0,0,0-9.45,9.45v20.29a9.49,9.49,0,0,0,9.45,9.45h23.49a9.49,9.49,0,0,0,9.45-9.45V222.82a9.49,9.49,0,0,0-9.45-9.45Z"/><path class="cls-11" d="M74.46,206.65H98a16.2,16.2,0,0,1,16.18,16.17v20.29A16.22,16.22,0,0,1,98,259.29H74.46a16.22,16.22,0,0,1-16.18-16.18V222.82a16.2,16.2,0,0,1,16.18-16.17ZM98,213.37H74.46A9.49,9.49,0,0,0,65,222.82v20.29a9.49,9.49,0,0,0,9.45,9.45H98a9.49,9.49,0,0,0,9.45-9.45V222.82A9.49,9.49,0,0,0,98,213.37Z"/><path class="cls-11" d="M95.21,188.94H236.66c9.45,0,18.61,7.85,17.19,17.19L228.2,374.4c-1.42,9.35-7.74,17.19-17.19,17.19H120.86c-9.45,0-15.77-7.84-17.2-17.19L78,206.13C76.6,196.78,85.76,188.94,95.21,188.94Z"/><path class="cls-10" d="M165.94,188.94h70.72c9.45,0,18.61,7.85,17.19,17.19L228.2,374.4c-1.42,9.35-7.74,17.19-17.19,17.19H165.94Z"/><path class="cls-12" d="M111.27,211.19c4.28,0,7.76.89,10.48,3.6s4.39,6.86,5.3,13.61l17.8,132c.62,4.53.8,8.73-.36,11.9-1.27,3.5-4,5.69-9.1,5.69h-4.33c-5,0-8-2.09-10-5.43-1.86-3.12-2.71-7.26-3.38-11.75l-19.79-132a20.88,20.88,0,0,1-.23-3.1,15.63,15.63,0,0,1,2.9-9.45,12.53,12.53,0,0,1,8.39-4.89,15.15,15.15,0,0,1,2.36-.18Zm8.39,5.69c-2-2-4.87-2.72-8.39-2.72a13.07,13.07,0,0,0-1.93.14,9.59,9.59,0,0,0-6.45,3.74,12.63,12.63,0,0,0-2.31,7.67,18.89,18.89,0,0,0,.2,2.67l19.79,132.05c.63,4.17,1.39,8,3,10.66,1.47,2.45,3.75,4,7.5,4h4.33c3.61,0,5.48-1.44,6.32-3.74.95-2.62.77-6.38.21-10.5l-17.8-132C123.3,222.74,121.82,219,119.66,216.88Z"/><path class="cls-12" d="M161.32,211.19h9.22a9.82,9.82,0,0,1,7,2.9h0a9.87,9.87,0,0,1,2.89,7V368.47a9.84,9.84,0,0,1-2.89,7h0a9.85,9.85,0,0,1-7,2.89h-9.22a9.85,9.85,0,0,1-6.95-2.89h0a9.84,9.84,0,0,1-2.89-7V221.05a9.87,9.87,0,0,1,2.89-7h0a9.81,9.81,0,0,1,6.95-2.9Zm9.22,3h-9.22a6.9,6.9,0,0,0-4.86,2h0a6.88,6.88,0,0,0-2,4.86V368.47a6.9,6.9,0,0,0,2,4.87h0a6.89,6.89,0,0,0,4.86,2h9.22a6.9,6.9,0,0,0,4.87-2h0a6.86,6.86,0,0,0,2-4.87V221.05a6.84,6.84,0,0,0-2-4.86h0A6.9,6.9,0,0,0,170.54,214.16Z"/><path class="cls-12" d="M220.5,214.19a9.93,9.93,0,0,0-8.35,3.27c-2.07,2.29-3.66,5.93-4.4,11.36L190,360.87c-.56,4.12-.75,7.88.21,10.5.83,2.3,2.71,3.74,6.32,3.74h4.33c3.75,0,6-1.54,7.5-4,1.6-2.67,2.36-6.49,3-10.66l19.78-132c.08-.52.14-1,.17-1.51a12.63,12.63,0,0,0-2.16-8.46,10.76,10.76,0,0,0-7.32-4.11c-.42-.07-.84-.11-1.27-.14Zm-10.56,1.29a12.77,12.77,0,0,1,10.75-4.25c.53,0,1,.09,1.51.16a13.69,13.69,0,0,1,9.26,5.29,15.47,15.47,0,0,1,2.75,10.41c0,.58-.1,1.17-.19,1.75l-19.79,132c-.67,4.49-1.51,8.63-3.38,11.75-2,3.34-5.06,5.44-10,5.44h-4.33c-5.12,0-7.83-2.2-9.1-5.7-1.15-3.17-1-7.37-.37-11.9l17.81-132C205.64,222.35,207.51,218.18,209.94,215.48Z"/><path class="cls-12" d="M165.94,211.19h4.6a9.82,9.82,0,0,1,7,2.9h0a9.87,9.87,0,0,1,2.89,7V368.47a9.84,9.84,0,0,1-2.89,7h0a9.85,9.85,0,0,1-7,2.89h-4.6v-3h4.6a6.9,6.9,0,0,0,4.87-2h0a6.86,6.86,0,0,0,2-4.87V221.05a6.84,6.84,0,0,0-2-4.86h0a6.9,6.9,0,0,0-4.87-2h-4.6Z"/><rect class="cls-13" x="64.84" y="180.07" width="202.18" height="21.08" rx="6.78"/><path class="cls-11" d="M165.94,180.07h96.63c2.45,0,4.46,3.05,4.46,6.78v7.51c0,3.74-2,6.79-4.46,6.79H165.94Z"/></g></svg>