<svg id="Layer_1" data-name="Layer 1" xmlns="http://www.w3.org/2000/svg" xmlns:xlink="http://www.w3.org/1999/xlink" viewBox="0 0 346.48 335.74"><defs><style>.cls-1{fill:none;}.cls-2{fill:#d8ebf4;}.cls-3{clip-path:url(#clip-path);}.cls-4{fill:#c8877f;}.cls-5{fill:#a06763;}.cls-6{fill:#ebebeb;}.cls-7{fill:#263238;}.cls-8{fill:#ff725e;}.cls-9{fill:#455a64;}.cls-10{fill:#fafafa;}.cls-11{fill:#ffbe9d;}</style><clipPath id="clip-path"><rect class="cls-1" x="8.51" y="3.74" width="325" height="325" rx="162.5"/></clipPath></defs><rect class="cls-2" x="7.5" y="4.9" width="325" height="325" rx="162.5"/><g class="cls-3"><path class="cls-4" d="M341.71,195.4l-69.5-24-13.32,42.31s48.19,24.67,90.67,42.87c28.32,12.13,57.24,15.88,76.45-8.2h0c1.51-4.48-.14-19-2.61-23Z"/><path class="cls-4" d="M234.59,122.47s13.15,16.51,18.54,20.2a27.3,27.3,0,0,1,7.78,7.78l15.58,28.94-8.78,36.26L199.65,201s-24.56-8.8-22.85-17.18c0,0,.84-4.1,6.23-2.78,0,0-24-5.61-22.34-12.86s11.29-2.25,20.18.25,11.69,3.06,11.69,3.06L166,162.14s-7.29-2.19-4.4-8,14,.39,18.11.86,30.13,9.43,30.13,9.43-19.88-10.23-21.17-10.7-16.55-3.78-14.57-10.63,18.31.12,23.14,1.21,25.68,11,29.44,11.27S238,158,240.7,155s-9.92-12.39-10.9-17.36S226.77,123.25,234.59,122.47Z"/><path class="cls-5" d="M249.41,185.39c.12-.21-1.79-1.07-3.74-3.62a20.65,20.65,0,0,1-3.77-11.68c-.29-4.94.36-9.41.29-12.79a10.22,10.22,0,0,0-.77-3.93c-.42-.87-.83-1.23-.89-1.18a14.31,14.31,0,0,1,.68,5.11c-.17,3.2-1,7.76-.69,12.87s2.07,9.73,4.4,12.22S249.39,185.53,249.41,185.39Z"/><path class="cls-5" d="M212,190.79c.11-.1-1.39-1.46-4.4-1.94s-7.16,0-11.05-1.64a31.21,31.21,0,0,1-5.17-3.29,19.22,19.22,0,0,0-4.57-2.59c-2.91-1.1-4.9-.37-4.81-.22s1.87-.11,4.43,1.12a22.12,22.12,0,0,1,4.19,2.72,27.28,27.28,0,0,0,5.37,3.52,16.71,16.71,0,0,0,6.39,1.19c2,.05,3.66,0,5.09.16C210.34,190,211.89,191,212,190.79Z"/><path class="cls-6" d="M-15.89-7S-60.38.54-71.28,25.54-95.84,127.6-99,171.19s3.77,79.47,24.29,91.65,206.12-46.16,206.12-46.16l-22.76-50L-31.8,176.29Z"/><path class="cls-7" d="M-40.2,262.09s.29-.11.86-.28l2.57-.72,9.89-2.7,36.53-9.8,121.61-32.32-.28.59-3.71-8.15c-6.61-14.53-13-28.64-19-41.87l.41.25c-40.32,3-75.36,5.45-100.31,7-12.48.79-22.44,1.36-29.28,1.72l-7.85.37-2,.08c-.45,0-.69,0-.69,0s.23,0,.69-.08l2-.15,7.84-.51,29.26-2c25-1.73,60-4.26,100.29-7.33l.29,0,.12.26,19.07,41.86,3.7,8.14.21.47-.49.12L9.81,249.16l-36.61,9.55-9.93,2.55-2.59.64C-39.9,262-40.2,262.09-40.2,262.09Z"/><path class="cls-8" d="M174.1,93.74V88.82H147.56v4.92a6.14,6.14,0,0,0-5.16,6.06v36.44a6.15,6.15,0,0,0,6.16,6.15H173.1a6.15,6.15,0,0,0,6.15-6.15V99.8A6.13,6.13,0,0,0,174.1,93.74Z"/><path class="cls-7" d="M174.1,93.91c0,.24-5.94.43-13.27.43s-13.27-.19-13.27-.43,5.94-.43,13.27-.43S174.1,93.67,174.1,93.91Z"/><path class="cls-7" d="M174.1,92.49c0,.24-5.94.43-13.27.43s-13.27-.19-13.27-.43,5.94-.43,13.27-.43S174.1,92.25,174.1,92.49Z"/><path class="cls-7" d="M174.1,91.07c0,.23-5.94.43-13.27.43s-13.27-.2-13.27-.43,5.94-.43,13.27-.43S174.1,90.83,174.1,91.07Z"/><rect class="cls-7" x="142.4" y="80.73" width="36.23" height="8.66" rx="0.91"/><path class="cls-9" d="M144.28,88.94c-.23,0-.42-1.81-.42-4s.19-4,.42-4,.43,1.82.43,4S144.52,88.94,144.28,88.94Z"/><path class="cls-9" d="M146.55,88.94c-.24,0-.43-1.81-.43-4s.19-4,.43-4,.43,1.82.43,4S146.78,88.94,146.55,88.94Z"/><path class="cls-9" d="M148.81,88.94c-.24,0-.43-1.81-.43-4s.19-4,.43-4,.43,1.82.43,4S149.05,88.94,148.81,88.94Z"/><path class="cls-9" d="M151.07,88.94c-.23,0-.43-1.81-.43-4s.2-4,.43-4,.43,1.82.43,4S151.31,88.94,151.07,88.94Z"/><path class="cls-9" d="M153.34,88.94c-.24,0-.43-1.81-.43-4s.19-4,.43-4,.43,1.82.43,4S153.57,88.94,153.34,88.94Z"/><path class="cls-9" d="M155.6,88.94c-.24,0-.43-1.81-.43-4s.19-4,.43-4,.43,1.82.43,4S155.84,88.94,155.6,88.94Z"/><path class="cls-9" d="M157.86,88.94c-.23,0-.43-1.81-.43-4s.2-4,.43-4,.43,1.82.43,4S158.1,88.94,157.86,88.94Z"/><path class="cls-9" d="M160.13,88.94c-.24,0-.43-1.81-.43-4s.19-4,.43-4,.43,1.82.43,4S160.36,88.94,160.13,88.94Z"/><path class="cls-9" d="M162.39,88.94c-.24,0-.43-1.81-.43-4s.19-4,.43-4,.43,1.82.43,4S162.63,88.94,162.39,88.94Z"/><path class="cls-9" d="M164.65,88.94c-.23,0-.43-1.81-.43-4s.2-4,.43-4,.43,1.82.43,4S164.89,88.94,164.65,88.94Z"/><path class="cls-9" d="M166.92,88.94c-.24,0-.43-1.81-.43-4s.19-4,.43-4,.42,1.82.42,4S167.15,88.94,166.92,88.94Z"/><path class="cls-9" d="M169.18,88.94c-.24,0-.43-1.81-.43-4s.19-4,.43-4,.43,1.82.43,4S169.42,88.94,169.18,88.94Z"/><path class="cls-9" d="M171.44,88.94c-.24,0-.43-1.81-.43-4s.19-4,.43-4,.43,1.82.43,4S171.68,88.94,171.44,88.94Z"/><path class="cls-9" d="M173.7,88.94c-.23,0-.42-1.81-.42-4s.19-4,.42-4,.43,1.82.43,4S173.94,88.94,173.7,88.94Z"/><path class="cls-9" d="M176,88.94c-.24,0-.43-1.81-.43-4s.19-4,.43-4,.43,1.82.43,4S176.21,88.94,176,88.94Z"/><rect class="cls-10" x="145.7" y="105.72" width="30.4" height="20.8"/><path class="cls-9" d="M177.57,86.89h22.26a0,0,0,0,1,0,0v73.3a4.44,4.44,0,0,1-4.44,4.44H182a4.44,4.44,0,0,1-4.44-4.44V86.89a0,0,0,0,1,0,0Z" transform="translate(36.94 -42.74) rotate(14.31)"/><rect class="cls-10" x="176.8" y="105.69" width="13.22" height="45.01" transform="translate(37.37 -41.35) rotate(14.31)"/><path class="cls-7" d="M185.48,85.41h24.89a2.7,2.7,0,0,1,2.7,2.7v5.63a0,0,0,0,1,0,0H182.78a0,0,0,0,1,0,0V88.11A2.7,2.7,0,0,1,185.48,85.41Z" transform="translate(28.28 -46.14) rotate(14.31)"/><path class="cls-11" d="M118.58,164.16c.63-1.27,23-39.71,23-39.71l1.9,7s51.22-21.81,55-21.18,6.64,3.79,3.48,7.27S166.84,138,166.84,138s31.3-11.37,34.46-9.32,2.72,4.26,2,7.74-31.08,18.34-31.08,18.34,25-10.12,26.87-8.22,2.21,2.84.95,6.95-2.85,11.7-6.64,15.18-8.22,6.74-8.22,6.74l-54.77,38-21.8-46.8Z"/><path class="cls-8" d="M198.44,156.31c.1.22-5.2,3-11.84,6.31s-12.12,5.75-12.23,5.54,5.2-3,11.85-6.31S198.33,156.1,198.44,156.31Z"/></g></svg>