<svg xmlns="http://www.w3.org/2000/svg" xmlns:xlink="http://www.w3.org/1999/xlink" viewBox="0 0 454.74 393.59"><defs><style>.cls-1{fill:none;}.cls-2{isolation:isolate;}.cls-3{fill:#f5f5f5;}.cls-4{clip-path:url(#clip-path);}.cls-5,.cls-7{fill:#e1b6a4;}.cls-14,.cls-6{fill:#455a64;}.cls-10,.cls-14,.cls-15,.cls-7{mix-blend-mode:multiply;}.cls-14,.cls-15,.cls-7{opacity:0.5;}.cls-8{fill:#35474f;}.cls-10,.cls-9{fill:#b5d8eb;}.cls-11{fill:#4b6071;}.cls-12,.cls-15{fill:#3c5462;}.cls-13{fill:#ff725e;}.cls-16{fill:#263238;}.cls-17{fill:#ffbe9d;}.cls-18{fill:#eb996e;}.cls-19{opacity:0.3;}.cls-20{fill:#3c5660;}.cls-21{fill:#d07e5d;}.cls-22{fill:#ffd9d4;}.cls-23{fill:#6584aa;}.cls-24{fill:#9b4731;}.cls-25{fill:#fff;}</style><clipPath id="clip-path"><circle class="cls-1" cx="224.91" cy="195.91" r="195.91"/></clipPath></defs><g class="cls-2"><g id="Layer_1" data-name="Layer 1"><circle class="cls-3" cx="224.91" cy="195.91" r="195.91"/><g class="cls-4"><path class="cls-5" d="M79.31,162.9a10,10,0,0,1,6.08-7.32c10.42-4.38,22,.55,32.33,5.3,31.77,14.63,11.46,31.22,4.35,29.7-8-2.26-20.54-4.59-28.23-7.45-4.77-2.45-6.06-6.69-8.28-11C80.26,170.26,78.65,166.64,79.31,162.9Z"/><path class="cls-6" d="M79.31,162.9a10,10,0,0,1,6.08-7.32c10.42-4.38,22,.55,32.33,5.3,31.77,14.63,11.46,31.22,4.35,29.7-8-2.26-20.54-4.59-28.23-7.45-4.77-2.45-6.06-6.69-8.28-11C80.26,170.26,78.65,166.64,79.31,162.9Z"/><path class="cls-7" d="M111.09,167.51c-10-4.63-21.33-9.43-31.54-5.61a8.56,8.56,0,0,0-.24,1c-.66,3.74,1,7.36,6.25,9.27,2.22,4.27,3.51,8.51,8.28,11,7.69,2.86,20.26,5.19,28.23,7.45a8.69,8.69,0,0,0,5.35-1.12C130.14,183.6,128,175.27,111.09,167.51Z"/><rect class="cls-8" x="118.37" y="164.77" width="12.86" height="157.15" rx="1.69" transform="translate(-147.87 264.47) rotate(-67.28)"/><path class="cls-9" d="M454.74,217.1h-255L84.93,167.6a13.65,13.65,0,1,0-10.81,25.06l118.69,51.19a13.55,13.55,0,0,0,5.85,1.1v7.27H454.74a17.56,17.56,0,0,0,17.56-17.56h0A17.56,17.56,0,0,0,454.74,217.1Z"/><path class="cls-10" d="M454.74,252.22H455c15.36-.2,16.49-23.1,1.21-24.67-.6-.06-1.2-.09-1.81-.09h-255L84.56,178a13.61,13.61,0,0,0-9.87-.36c-6.86,2.39-7.32,12.09-.68,15l.11,0,118.69,51.19a13.55,13.55,0,0,0,5.85,1.1v7.27Z"/><rect class="cls-8" x="289.66" y="216.36" width="3.83" height="180.22" transform="translate(-86.85 495.51) rotate(-72.97)"/><rect class="cls-8" x="289.66" y="216.36" width="3.83" height="180.22" transform="translate(83.92 675.01) rotate(-107.03)"/><rect class="cls-11" x="58.02" y="270.51" width="425.78" height="15.67"/><rect class="cls-8" x="88.57" y="326.76" width="382.52" height="10.85"/><rect class="cls-8" x="153.75" y="286.18" width="7.23" height="40.58"/><rect class="cls-8" x="417.25" y="286.18" width="7.23" height="40.58"/><circle class="cls-12" cx="110.14" cy="375.69" r="14.79"/><path d="M118,375.69a7.9,7.9,0,1,1-7.9-7.9A7.9,7.9,0,0,1,118,375.69Z"/><path class="cls-13" d="M91.48,352.91s-.57,7.36,7.3,11.36,7.87,7.87,7.87,7.87-.76,6,3.55,6.09,4.57-5.46,4.19-10-3.8-9.26-4.5-10.4-.26-4.89-.26-4.89Z"/><rect class="cls-12" x="88.57" y="349.42" width="22.59" height="5.2"/><path class="cls-12" d="M474.87,375.69a14.79,14.79,0,1,1-14.79-14.78A14.79,14.79,0,0,1,474.87,375.69Z"/><path d="M468.26,375.69a7.9,7.9,0,1,1-7.9-7.9A7.9,7.9,0,0,1,468.26,375.69Z"/><path class="cls-13" d="M441.42,352.91s-.57,7.36,7.3,11.36,7.87,7.87,7.87,7.87-.76,6,3.55,6.09,4-5.88,3.61-10.45-3.23-8.84-3.92-10-.26-4.89-.26-4.89Z"/><rect class="cls-12" x="438.5" y="349.42" width="22.59" height="5.2"/><rect class="cls-8" x="447.71" y="337.61" width="3.5" height="11.81"/><path class="cls-6" d="M206,249.21,69.33,190.58l-2.23,5.87a15,15,0,0,0,8.72,19.37L206,270.51H452.56a15,15,0,0,0,15-15v-6.28Z"/><path class="cls-14" d="M204.75,261H466.54a14.92,14.92,0,0,0,1-5.48v-6.28H206L69.33,190.58l-2.23,5.87a14.92,14.92,0,0,0-.94,6.24Z"/><path class="cls-11" d="M197.38,240.17h12.19a4.54,4.54,0,0,1,4.54,4.54v41.47a0,0,0,0,1,0,0H192.84a0,0,0,0,1,0,0V244.71A4.54,4.54,0,0,1,197.38,240.17Z"/><circle class="cls-8" cx="203.48" cy="252.22" r="7.71"/><rect class="cls-15" x="192.84" y="263.17" width="21.28" height="7.33"/><rect class="cls-16" x="-117.09" y="389.97" width="812.57" height="3.61"/><path class="cls-16" d="M118.54,129a13.56,13.56,0,0,1,12.2,3c1.58,1.41,3.14,3.33,5.26,3.21s3.67-2.26,5.76-2.31c2.47,0,4,2.72,6.22,3.74a4.87,4.87,0,0,0,6-1.94,19,19,0,0,1-2.46,10l-4.3,0a3.51,3.51,0,0,1,3.28,2.79,8.06,8.06,0,0,1-.53,4.56,24.17,24.17,0,0,1-15.58,14.77"/><path class="cls-16" d="M109.34,171.85a46.79,46.79,0,0,0-2.73-4.31c-2.38-2.77-6.64-3.83-8.15-7.16-1.07-2.37-.37-5.14.52-7.59s2-5,1.67-7.54c-.24-1.89-1.24-3.63-1.48-5.52-.36-2.7.86-5.36,2.37-7.62a16.29,16.29,0,0,1,6-5.71,9,9,0,0,1,8.07-.19,26.55,26.55,0,0,0,3.51,2.08c1.41.49,3,.27,4.44.53a7.15,7.15,0,0,1,5.75,6.62l8.08,30.22c-1.23,4.12-8.59,10.76-12.84,11.43S111.79,175.38,109.34,171.85Z"/><path class="cls-17" d="M126.52,133.94c-5-2.77-12.81-3.39-15.38,1.67l-5.82,17.2a3.32,3.32,0,0,0,1.21,4.32l36.68,21.47-.05.12s12.23,3.16,15.5-8.59c.65-2.33-.89-4.59-2.82-6.39l.08-.09-.74-.49a27.5,27.5,0,0,0-4.85-3.24h0l-4-2.64s2.92-6.72-4.19-13.1C138.6,141,132,137,126.52,133.94Z"/><path class="cls-16" d="M131.82,140.35a1.17,1.17,0,0,1,.33,1.59,1.12,1.12,0,0,1-1.55.39,1.16,1.16,0,0,1-.32-1.59A1.1,1.1,0,0,1,131.82,140.35Z"/><path class="cls-16" d="M130.32,137.36c0,.21-1,.56-1.7,1.59s-.72,2.14-.92,2.17-.24-.26-.25-.76a3.27,3.27,0,0,1,.58-1.84,3.14,3.14,0,0,1,1.51-1.16C130,137.22,130.3,137.26,130.32,137.36Z"/><path class="cls-16" d="M124.79,149.94a1.16,1.16,0,0,1,.32,1.59,1.11,1.11,0,0,1-1.54.39,1.17,1.17,0,0,1-.33-1.59A1.12,1.12,0,0,1,124.79,149.94Z"/><path class="cls-16" d="M123.52,147.61c0,.21-1,.56-1.7,1.59s-.71,2.14-.92,2.17-.23-.26-.24-.76a3.12,3.12,0,0,1,.58-1.84,3.06,3.06,0,0,1,1.51-1.16C123.21,147.47,123.51,147.51,123.52,147.61Z"/><path class="cls-16" d="M133.74,149.15a7.87,7.87,0,0,1,.85-1.88c.15-.28.27-.57.12-.74a1.58,1.58,0,0,0-.9-.36l-2.53-.6a42.2,42.2,0,0,1-6.44-1.87,40.48,40.48,0,0,1,6.57,1.34l2.53.65a1.87,1.87,0,0,1,1.12.57.8.8,0,0,1,.09.7,1.6,1.6,0,0,1-.25.49A8.62,8.62,0,0,1,133.74,149.15Z"/><path class="cls-18" d="M136.08,151a3.09,3.09,0,0,0-2.55,1.32,2,2,0,0,0-.2,1.86A2,2,0,0,0,135,155.3a1.93,1.93,0,0,0,1.76-1.26,4.62,4.62,0,0,0,.11-2.16,1.53,1.53,0,0,0-.16-.59.66.66,0,0,0-.55-.32"/><path class="cls-16" d="M137.64,152.3c0,.2-1.35-.1-2.55.82s-1.38,2.36-1.57,2.33-.18-.38-.06-1a3.33,3.33,0,0,1,1.23-1.95,2.92,2.92,0,0,1,2.12-.6C137.38,152,137.67,152.21,137.64,152.3Z"/><path class="cls-16" d="M117.47,150.72c-.28-.22.27-1.36.56-2.81s.29-2.7.64-2.79c.17,0,.41.27.57.82a5,5,0,0,1-.91,4.27C118,150.65,117.61,150.82,117.47,150.72Z"/><path class="cls-16" d="M124.17,138.15c0-.35.75-.78,1.48-1.52s1.17-1.52,1.53-1.46c.16,0,.27.33.21.79a2.93,2.93,0,0,1-.85,1.57,3,3,0,0,1-1.58.84C124.5,138.43,124.2,138.32,124.17,138.15Z"/><path class="cls-16" d="M104.09,156.65a7.69,7.69,0,0,1,.3-4.68,86.63,86.63,0,0,1,8-18.94c1.63.17,2.67,1.95,2.7,3.58a15.63,15.63,0,0,1-1.11,4.76,6.11,6.11,0,0,0,.1,4.77c.87,1.51,2.72,2.21,3.67,3.67,1.62,2.51,0,6.19,1.61,8.7,1.24,1.89,3.8,2.28,5.77,3.4a8.09,8.09,0,0,1,2.51,11.9l-20.14-13.58C106.14,159.29,104.66,158.24,104.09,156.65Z"/><path class="cls-16" d="M110.47,182c-.64-1.59,0-3.58-1-5-1.45-2-4.84-2.21-5.82-4.51-.89-2.09,1.2-4.67.22-6.73-.76-1.61-2.44-1.71-3.36-2.79a3.78,3.78,0,0,1,.3-4.42l19.42.91c4.89,2.44,7.79,3.35,9.59,6.17a25.16,25.16,0,0,0,3.12,4.51c1.29,1.3,6.3,4.79,10.54,2-3.58,5.57,16,22.75,9.86,25.27-2.16.89-7.89-3.11-10.65,4.66-2.61,7.33-20.56-1.46-22.4-9.49C118.4,184.22,112.1,186.05,110.47,182Z"/><path class="cls-6" d="M120.37,181.87a3.5,3.5,0,0,0,.53-.48,6,6,0,0,0,1.13-1.72,6.3,6.3,0,0,0,.51-3.22,6.24,6.24,0,0,0-1.93-3.84,6.43,6.43,0,0,0-2.14-1.36,9.94,9.94,0,0,0-2.7-.51,10.06,10.06,0,0,1-2.79-.54,3.29,3.29,0,0,1-2-2c-.28-1,.24-2,.54-3a3,3,0,0,0,0-1.76,3,3,0,0,0-1.1-1.41,18.38,18.38,0,0,0-3.19-1.48,3.69,3.69,0,0,1-1.35-1,2.43,2.43,0,0,1-.49-1.57,6.62,6.62,0,0,1,1.32-3.2,7.19,7.19,0,0,0,1.26-3.31,6.32,6.32,0,0,0-.6-3.39,10.55,10.55,0,0,0-2-2.6,14.55,14.55,0,0,1-2-2.31,6.37,6.37,0,0,1-.92-2.65,7.64,7.64,0,0,1,1.12-4.89,7.55,7.55,0,0,1,3.15-2.73,9.09,9.09,0,0,1,3.08-.85,12.2,12.2,0,0,1,2.75.11l-.18,0a3.69,3.69,0,0,0-.52-.11,8.11,8.11,0,0,0-2.06-.1,9.16,9.16,0,0,0-3.16.8,7.65,7.65,0,0,0-4.5,7.86,6.82,6.82,0,0,0,.95,2.79,15.48,15.48,0,0,0,2,2.38,10.46,10.46,0,0,1,1.92,2.51,6.08,6.08,0,0,1,.56,3.19,6.9,6.9,0,0,1-1.22,3.15,6.86,6.86,0,0,0-1.37,3.38,2.75,2.75,0,0,0,.57,1.82,4.1,4.1,0,0,0,1.48,1.12,18.56,18.56,0,0,1,3.14,1.45,2.61,2.61,0,0,1,1,1.22,2.7,2.7,0,0,1,0,1.54c-.13.52-.34,1-.47,1.57a3.06,3.06,0,0,0-.05,1.67,3.6,3.6,0,0,0,2.22,2.19,9.8,9.8,0,0,0,2.9.54,9.9,9.9,0,0,1,2.62.48,6.2,6.2,0,0,1,4,4.94,6.32,6.32,0,0,1-.44,3.14A7.11,7.11,0,0,1,120.37,181.87Z"/><path class="cls-6" d="M116.17,157.16l0,.11a6.92,6.92,0,0,0,1.63,2.46,15.26,15.26,0,0,0,2.54,1.79,10.43,10.43,0,0,1,2.5,1.94,6.12,6.12,0,0,1,1.35,2.94,6.79,6.79,0,0,1-.37,3.35,6.92,6.92,0,0,0-.47,3.63,2.7,2.7,0,0,0,1,1.61,4.12,4.12,0,0,0,1.72.71,18.51,18.51,0,0,1,3.4.6,2.56,2.56,0,0,1,1.25.93,2.72,2.72,0,0,1,.37,1.5c0,.53-.07,1.08-.07,1.63a3.21,3.21,0,0,0,.38,1.63,3.64,3.64,0,0,0,2.72,1.56,10.06,10.06,0,0,0,2.93-.22,10.15,10.15,0,0,1,2.65-.21,6.18,6.18,0,0,1,5.09,3.77,6.12,6.12,0,0,1,.38,3.14,6.82,6.82,0,0,1-.9,2.58,2.65,2.65,0,0,0,.4-.6,6.08,6.08,0,0,0,.65-1.95,6.32,6.32,0,0,0-.33-3.24,6.25,6.25,0,0,0-2.84-3.23,6.55,6.55,0,0,0-2.42-.77,10.15,10.15,0,0,0-2.73.2,10,10,0,0,1-2.84.19,3.27,3.27,0,0,1-2.45-1.4c-.51-.86-.27-2-.26-3.08a3,3,0,0,0-.42-1.7,2.89,2.89,0,0,0-1.43-1.08,19.09,19.09,0,0,0-3.46-.63,3.7,3.7,0,0,1-1.56-.63,2.36,2.36,0,0,1-.87-1.4,6.54,6.54,0,0,1,.45-3.42,7.21,7.21,0,0,0,.38-3.53,6.41,6.41,0,0,0-1.44-3.12,10.84,10.84,0,0,0-2.59-2,15.39,15.39,0,0,1-2.5-1.74,6.39,6.39,0,0,1-1.41-2C116.48,157.37,116.32,157.27,116.17,157.16Z"/><path class="cls-6" d="M131.43,192.52a9.93,9.93,0,0,1-2.83.19,3.27,3.27,0,0,1-2.45-1.4c-.52-.86-.27-2-.26-3.08a3,3,0,0,0-.42-1.7,1.34,1.34,0,0,1-.11-.14l-.55,0a2.57,2.57,0,0,1,.35.39,2.65,2.65,0,0,1,.36,1.5c0,.53-.06,1.08-.06,1.63a3.21,3.21,0,0,0,.38,1.63,3.63,3.63,0,0,0,2.71,1.56,10.1,10.1,0,0,0,2.94-.22,10.12,10.12,0,0,1,2.65-.21,6.17,6.17,0,0,1,2.32.71,6.09,6.09,0,0,1,2.77,3.06,6.37,6.37,0,0,1,.38,3.15,6.81,6.81,0,0,1-.9,2.57,3.15,3.15,0,0,0,.4-.6,6.08,6.08,0,0,0,.65-1.95,6.32,6.32,0,0,0-.33-3.24,6.25,6.25,0,0,0-2.84-3.23,6.55,6.55,0,0,0-2.42-.77A10.68,10.68,0,0,0,131.43,192.52Z"/><path class="cls-16" d="M106,182a1.35,1.35,0,0,0,.3.5,2.34,2.34,0,0,0,1.47.77,2.64,2.64,0,0,0,1.22-.13,2.6,2.6,0,0,0,1.15-.9,3.29,3.29,0,0,0,.3-3.41,4.35,4.35,0,0,0-1.32-1.59,6.08,6.08,0,0,0-2-1c-1.45-.45-3.13-.53-4.48-1.53a3.08,3.08,0,0,1-1.34-2,3.36,3.36,0,0,1,.86-2.36,8.4,8.4,0,0,0,1.5-2.46,2.5,2.5,0,0,0-.08-1.53,3.47,3.47,0,0,0-.87-1.27,11.64,11.64,0,0,0-2.47-1.59,6.5,6.5,0,0,1-2.08-1.77,6.86,6.86,0,0,1-1.34-4.88,9.76,9.76,0,0,1,1.94-4.28,13.72,13.72,0,0,0,2-3.72,9,9,0,0,0,.31-3.48,8.61,8.61,0,0,0-.68-2.55,6.31,6.31,0,0,0-1.19-1.9,11.83,11.83,0,0,1,1.06,2,9,9,0,0,1,.24,5.89,13.42,13.42,0,0,1-2,3.62,9.87,9.87,0,0,0-2,4.41A7.2,7.2,0,0,0,97.82,162a6.87,6.87,0,0,0,2.19,1.88,11.26,11.26,0,0,1,2.4,1.53,2.48,2.48,0,0,1,.84,2.42,7.88,7.88,0,0,1-1.43,2.33,3.7,3.7,0,0,0-.92,2.64,3.41,3.41,0,0,0,1.5,2.22,6.44,6.44,0,0,0,2.32,1c.79.2,1.56.33,2.27.54a5.89,5.89,0,0,1,1.93.88,4.08,4.08,0,0,1,1.25,1.48,3,3,0,0,1-.22,3.16,2.35,2.35,0,0,1-1,.85,2.27,2.27,0,0,1-1.13.16,2.31,2.31,0,0,1-1.43-.67C106.08,182.16,106,182,106,182Z"/><path class="cls-16" d="M114.2,181.6a7.25,7.25,0,0,0,1.43,4.1,6.72,6.72,0,0,0,2.19,1.87,11.7,11.7,0,0,1,2.4,1.54,2.44,2.44,0,0,1,.84,2.42,7.88,7.88,0,0,1-1.43,2.33,3.7,3.7,0,0,0-.92,2.64,3.41,3.41,0,0,0,1.5,2.22,6.44,6.44,0,0,0,2.32,1c.79.2,1.56.33,2.28.54a5.93,5.93,0,0,1,1.92.88,4.08,4.08,0,0,1,1.25,1.48,3,3,0,0,1-.22,3.16,2.46,2.46,0,0,1-1,.85,2.4,2.4,0,0,1-2.57-.51c-.26-.27-.34-.46-.36-.45a1.35,1.35,0,0,0,.3.5,2.34,2.34,0,0,0,1.48.77,2.48,2.48,0,0,0,1.21-.14,2.58,2.58,0,0,0,1.16-.89,3.31,3.31,0,0,0,.29-3.41,4.46,4.46,0,0,0-1.32-1.6,6.06,6.06,0,0,0-2-.95c-1.45-.45-3.13-.53-4.47-1.53a3,3,0,0,1-1.34-2,3.34,3.34,0,0,1,.85-2.37,7.83,7.83,0,0,0,1.5-2.45,2.5,2.5,0,0,0-.08-1.53,3.57,3.57,0,0,0-.86-1.27,12,12,0,0,0-2.48-1.59,6.35,6.35,0,0,1-2.07-1.77,6.92,6.92,0,0,1-1.38-3.79Z"/><path class="cls-16" d="M151.27,129a2.69,2.69,0,0,1,1.36,1.06,2.29,2.29,0,0,1,.27,1.94,2.4,2.4,0,0,1-2,1.53,2.22,2.22,0,0,1-1.45-.39,4.66,4.66,0,0,1-1.17-1.21c-.68-1-1.21-2.27-2.44-3.06a5.31,5.31,0,0,0-4.25-.71,6.06,6.06,0,0,0-2.11,1,8.86,8.86,0,0,0-1.69,1.66,12,12,0,0,1-1.58,1.67,3,3,0,0,1-1.95.75,3.83,3.83,0,0,1-1.94-.67,7.67,7.67,0,0,1-1.52-1.37,15.44,15.44,0,0,0-2.71-2.81,5.85,5.85,0,0,0-3.27-1,7.64,7.64,0,0,0-2.75.61,15,15,0,0,1-2,.65,4.57,4.57,0,0,1-1.76,0l.11.05a2.26,2.26,0,0,0,.34.09,3.73,3.73,0,0,0,1.34,0,13.61,13.61,0,0,0,2-.6,7.56,7.56,0,0,1,2.68-.54,5.63,5.63,0,0,1,3.09,1,15.27,15.27,0,0,1,2.62,2.78,8.09,8.09,0,0,0,1.58,1.44,4,4,0,0,0,2.14.74,3.37,3.37,0,0,0,2.2-.82,12,12,0,0,0,1.63-1.72,8.75,8.75,0,0,1,1.62-1.6,5.88,5.88,0,0,1,2-.93,5,5,0,0,1,4,.64c1.13.72,1.66,1.95,2.38,2.95a4.83,4.83,0,0,0,1.27,1.28,2.51,2.51,0,0,0,1.64.41,2.64,2.64,0,0,0,2.17-1.73,2.52,2.52,0,0,0-1.39-3A1.33,1.33,0,0,0,151.27,129Z"/><path class="cls-13" d="M141,175.26a12.41,12.41,0,0,0-.67,6.87,21.05,21.05,0,0,0,4.52,8.48c2.57,3,15.51,10,19.18,12.13s18,9.37,20.56,10.26,5.52,3.67,7.11,6c2.85,4.25,6.64,2.49,6.64,2.49L221.24,182l-1.56-.71c-2.71-1.24-4.75-3.73-7.7-4.16a28.35,28.35,0,0,1-12.09-4.7c-6.25-4.37-9.56-9-14.07-10-6.88-1.59-23.64-3.32-33.59.67,0,0-4.64,5-5.87,6.07C143.57,171.55,142.08,172.79,141,175.26Z"/><path class="cls-13" d="M202.67,176.52l-10.76,11.79L162.25,172s-12.58-5.84-17.2-.54l9.38,24.88c9.46,4.51,26,15.29,35,15s16.64-1.16,22.18-11.62c2.58-4.84,6.76-12.3,10.51-18.89A69.12,69.12,0,0,1,202.67,176.52Z"/><path class="cls-16" d="M192.07,188.31c.11,0,.68,1.39,1.75,2.93s2.17,2.6,2.09,2.69a7.71,7.71,0,0,1-2.42-2.47A7.39,7.39,0,0,1,192.07,188.31Z"/><g class="cls-19"><path d="M160.86,171.45c12.29,2.73,28.81,13.5,38.45,10.56l-7.4,6.3a46.72,46.72,0,0,0-5.56-3.37c-8.52-4.17-16.86-9-25.49-13.49"/></g><path class="cls-16" d="M157.43,170.23c.45.14,1.11.35,2,.67s1.9.75,3.1,1.33,2.52,1.36,4,2.19l25.3,14,.11.06.08-.09c3.95-4.32,9.37-7.44,14-12.52l-.32-.16c-4.57,5-9.93,8.09-13.83,12.37l-25.26-13.85c-1.51-.82-2.85-1.58-4.06-2.15s-2.26-1-3.13-1.3a22.89,22.89,0,0,0-2.68-.79l.17.06Z"/><path class="cls-16" d="M222.2,180.35c-1.45,2.55-2.88,5.08-4.27,7.57q-2.35,4.19-4.56,8.23a50.57,50.57,0,0,1-4.63,7.69,19.49,19.49,0,0,1-3,3,17.74,17.74,0,0,1-3.59,2.14,25,25,0,0,1-7.78,1.86q-2,.18-3.84.24l-.93,0-.93,0-.91,0-.89-.14a32,32,0,0,1-6.66-1.9,105.45,105.45,0,0,1-10.86-5c-3.14-1.62-5.8-3.08-8-4.25s-3.9-2.05-5.08-2.64l-1.34-.64-.46-.2.44.24,1.33.67c1.16.61,2.86,1.51,5,2.71s4.84,2.66,8,4.31a107.43,107.43,0,0,0,10.87,5.09,32.74,32.74,0,0,0,6.71,1.94l.91.15.93,0c.32,0,.63,0,.95,0l.94,0c1.26,0,2.54-.12,3.85-.23a25.26,25.26,0,0,0,7.89-1.87,18,18,0,0,0,3.67-2.18,20.19,20.19,0,0,0,3.1-3.1,51.09,51.09,0,0,0,4.68-7.73q2.2-4.05,4.57-8.23c1.41-2.53,2.87-5.09,4.34-7.68Z"/><path class="cls-20" d="M220,160.38s94.66,14,100.43,15.1,46.18,4.75,52.31,8,21.29,13,32.11,8.66,20.75-11.54,28.05-4.33,25.5,32.83,25.5,32.83-59,10.1-80.25,11.91-32.23,7.57-59.23,0-19.29-11.91-54-5.77-68,7.57-73.18-.73S206.52,162.18,220,160.38Z"/><path class="cls-16" d="M263.09,102.67,233.75,105a1.8,1.8,0,0,1-1.85-1.18L217.33,64.66a1.82,1.82,0,0,1,1.56-2.45l29.34-2.36A1.81,1.81,0,0,1,250.08,61l14.56,39.19A1.82,1.82,0,0,1,263.09,102.67Z"/><path class="cls-21" d="M223.25,81.11s6.54-.37,7.57,1-5.51,2.65-5.51,2.65,3.87-.12,4.85.8-3.82,2.4-3.82,2.4,2.58,0,2.68,1.44-.88,1.92-2.32,2.27a3.94,3.94,0,0,1-3.42-.78c-.56-.57-.08-2-.08-2s-2.46-1.21-2.55-2.15a2,2,0,0,1,.58-1.57,2.17,2.17,0,0,1-1.58-1.31,1.88,1.88,0,0,1,.13-1.81s-.45-1.72-.76-2.94,1.91-2.17,3.21-2.94,3.07,1.52,5.23,2c0,0,1.1.67-.08,1.49s-3,.43-3.54.48S223.25,81.11,223.25,81.11Z"/><path class="cls-13" d="M315.38,130.37c.05,5.35-2.81,8-7,9.06l-1,.22c-11.09,2-29.83-5.83-29.83-5.83l28.22-53.08s8.39,27.07,9.47,46.58c.05.89.08,1.76.09,2.6C315.38,130.07,315.38,130.22,315.38,130.37Z"/><path class="cls-22" d="M315.38,130.37c.05,5.35-2.81,8-7,9.06.24-4.47,4-7.66,7-9.51C315.38,130.07,315.38,130.22,315.38,130.37Z"/><path class="cls-16" d="M259.65,42.55a5,5,0,0,1-.9-3.84.31.31,0,0,1,.31-.26h9.28a.32.32,0,0,1,.32.32s-.06,5.33-5,5.33A5,5,0,0,1,259.65,42.55Zm-.32-3.47a4.34,4.34,0,0,0,.8,3.07,4.39,4.39,0,0,0,3.56,1.32c3.68,0,4.24-3.33,4.32-4.39Z"/><polygon class="cls-21" points="245.96 360.37 244.15 376.37 234.28 377.14 232.63 360.82 245.96 360.37"/><polygon class="cls-21" points="294.14 362.2 292.33 378.2 283.35 378.94 281.69 362.61 294.14 362.2"/><path class="cls-16" d="M245.42,181.38s-15.53,70-19.49,100.4,4.88,84.42,4.88,84.42l18.32,1.54c3.43-35.07,4.4-68.84,4.4-84.2,9.37-15.79,24.06-74.31,24.06-74.31Z"/><polygon class="cls-13" points="229.11 361.02 229.99 367.74 249.93 368.76 250.47 362.78 229.11 361.02"/><path class="cls-13" d="M251.15,283.67A78.31,78.31,0,0,1,233.81,282c-.51-.11-.3-.89.21-.78a77.66,77.66,0,0,0,17.13,1.69.41.41,0,0,1,0,.81Z"/><path class="cls-16" d="M303.93,204.47l-2.44,81.41a65.72,65.72,0,0,1,3.79,24c-.28,14-9.18,56.35-9.18,56.35L280,367.74s-11.94-120-11.64-148.22S303.93,204.47,303.93,204.47Z"/><polygon class="cls-13" points="298.82 360.47 297.93 367.19 278.87 368.1 278.33 362.13 298.82 360.47"/><path class="cls-13" d="M300.06,287.21a30.43,30.43,0,0,0-15.16.62.4.4,0,0,1-.21-.78,31.29,31.29,0,0,1,15.58-.62c.51.11.29.89-.21.78Z"/><path class="cls-13" d="M273,228.83a65.86,65.86,0,0,1-2.72,10.41c-.17.49-.95.28-.78-.22a66.41,66.41,0,0,0,2.73-10.41c.09-.51.86-.29.77.22Z"/><path class="cls-16" d="M246.27,374.29c1.22,3.26,1.3,16.62,1.3,16.62l-30.29,0c-1.57-4.84,1.71-7.7,4.78-8.14,1.32-.18,5.95-2,7.09-3.16,0-.16,1.62-7.58,2.61-7.93,0,0,.69-.77,1.28,0a12.46,12.46,0,0,1,1.09,3.27C238.24,369.89,242.28,370.57,246.27,374.29Z"/><path class="cls-23" d="M246.6,378.14a9.44,9.44,0,0,0-8.8,1.15c-.42.3-.83-.4-.41-.7a10.18,10.18,0,0,1,9.42-1.23c.48.18.28,1-.21.78Z"/><path class="cls-23" d="M217.28,389h0l30,0a.41.41,0,1,0,0-.81h0l-30,0a.4.4,0,0,0-.41.4A.41.41,0,0,0,217.28,389Z"/><path class="cls-16" d="M294.79,374.29c1.23,3.26,1.31,16.62,1.31,16.62l-30.29,0c-1.57-4.84,1.7-7.7,4.78-8.14,1.32-.18,6-2,7.08-3.16,0-.16,1.62-7.58,2.62-7.93,0,0,.69-.77,1.27,0a12.09,12.09,0,0,1,1.09,3.27C286.77,369.89,290.8,370.57,294.79,374.29Z"/><path class="cls-23" d="M295.12,378.14a9.42,9.42,0,0,0-8.79,1.15c-.43.3-.83-.4-.41-.7a10.18,10.18,0,0,1,9.42-1.23c.48.18.27,1-.22.78Z"/><path class="cls-23" d="M265.8,389h0l30,0a.41.41,0,0,0,0-.81h0l-30,0a.4.4,0,0,0,0,.8Z"/><path class="cls-13" d="M248.35,97.93c1.85,9.9,1.89,34,.82,40.89-.45,2.85,7.28,6.27,14.65,7.93,13.28,3,32.08-3.15,32.06-6.38,0-5.43.23-18.33.92-22.74C299.67,99.24,307.22,89,306,81.39c-.59-3.54-5.57-8.07-10-11.46-3.71-2.85-7-4.9-7-4.9l-13-4s-21.47,4.53-27,9.57C243,76.14,245.87,84.64,248.35,97.93Z"/><path class="cls-13" d="M250.71,115.51s4.6,22-7,26.16c-4.89,1.73-9.87,1.92-14.18-1-.22-.15-.43-.34-.67-.48-7.62-4.51,17.73-67.43,17.73-67.43C255.9,80.21,256.72,94.94,250.71,115.51Z"/><path class="cls-22" d="M244.3,141.41c-4.79,2-9.76,2.43-14.21-.3-.23-.14-.67-.17-.7-.45-.15-2,3.91-2.71,7.64-2.43A11.18,11.18,0,0,1,244.3,141.41Z"/><path class="cls-22" d="M263.12,133.94a12.23,12.23,0,0,1,2.16,3.71c.18.49-.6.7-.78.22a11.32,11.32,0,0,0-1.95-3.36c-.34-.39.23-1,.57-.57Z"/><circle class="cls-22" cx="260.55" cy="136.37" r="0.73"/><path class="cls-22" d="M259.57,138.32a6.74,6.74,0,0,0,7.15-3c.28-.43,1,0,.7.41a7.58,7.58,0,0,1-8.07,3.41c-.51-.1-.29-.88.22-.78Z"/><path class="cls-21" d="M286.46,67a24.27,24.27,0,0,1-17.74-.44l1.16-5.18,1.27-5.66.88-4,12.43-6.44Z"/><path class="cls-22" d="M287.52,61.08,290.39,66s2.86,3.23-8.32,3.91a29.34,29.34,0,0,1-18.82-5.51s2.05-4.56,5.15-5.67S287.52,61.08,287.52,61.08Z"/><path class="cls-21" d="M288.42,42.69c-1.31,3.93-2.49,5.2-5.58,9a14.9,14.9,0,0,1-9.63,5c-8.38.34-12.13-3.2-10.65-14.48.92-7-.87-11,1-13.66h0l.37-.35a15.89,15.89,0,0,1,11.13-4C295.39,24.74,290.3,37.05,288.42,42.69Z"/><path class="cls-21" d="M263.14,37.93s-.47,5-2.16,6.62,2.27,2.26,2.27,2.26Z"/><path class="cls-16" d="M271.22,42.91c-1.54,4.79-3.4,15.4-7.41,19.38,12.27,3.61,22.06,4.56,29.19,2.63l.5-6.13,1.75,5.4a17.12,17.12,0,0,0,5.16-3.11c-4.94-18.42,2.1-34.55-12.57-40.22-15.95-6.16-25.4,5.57-25.4,5.57-3.91,5.3-.78,11.93,3.45,11.67S272.6,38.62,271.22,42.91Z"/><path class="cls-21" d="M263.19,44a5,5,0,0,1,.91-4.32c1.2-1.6,3.4-4,5.32-3.64,2.83.58,3,3.13,2.55,5.7s-2.36,5.84-5.89,5.06A3.67,3.67,0,0,1,263.19,44Z"/><path class="cls-24" d="M270.34,45.85a3.86,3.86,0,0,1-3.71,1.51c-.51-.11-.3-.89.21-.78a3.09,3.09,0,0,0,2.93-1.3c.35-.39.92.18.57.57Z"/><path class="cls-25" d="M265.62,50.72a2.77,2.77,0,0,1-1.68-1.24,2.68,2.68,0,0,1-.31-2.07,2.72,2.72,0,0,1,1.23-1.68,2.69,2.69,0,0,1,2.07-.31,2.73,2.73,0,0,1,2,3.3h0a2.75,2.75,0,0,1-2.65,2.08A3,3,0,0,1,265.62,50.72Zm2.78-2.13a2.19,2.19,0,1,0-4,.61,2.16,2.16,0,0,0,1.35,1,2.19,2.19,0,0,0,1.66-.25,2.16,2.16,0,0,0,1-1.35Z"/><path class="cls-16" d="M267.46,43.94a6.47,6.47,0,0,0,1.85-2.6c.29-.93.32-2.59-.83-3-.38-.14-.22-.77.16-.62a2.61,2.61,0,0,1,1.48,2.72,6.1,6.1,0,0,1-2.2,4,.33.33,0,0,1-.46-.46Z"/><path class="cls-13" d="M282.7,267.27,282,262.9l-.14-.91-2.25-14.87-2.86,14.73-.18.9-.83,4.28c-28.23-1.13-59.79-3.92-63.42-6.41,0,0,9.11-40.27,19.86-63.5C245.43,168.62,249.8,112,249.8,112l55.49-23.63S297.51,138.86,311,189c7.42,27.63,7.91,69.86,10.34,75.92C322.32,267.47,304.35,267.94,282.7,267.27Z"/><path class="cls-22" d="M259.67,195.77a63.27,63.27,0,0,0,44.36-7,.41.41,0,0,1,.41.7,64.16,64.16,0,0,1-45,7.12c-.51-.1-.3-.88.21-.78Z"/><path class="cls-22" d="M237.92,258.48c12.93,1.65,25.89,2.92,38.87,3.37l-.18.9c-21-.8-41.88-3.84-62.69-6.71-.51-.07-.29-.85.22-.78C222.06,256.35,230,257.46,237.92,258.48Z"/><path class="cls-22" d="M320,260.55a225,225,0,0,1-23.46,2.2c-4.84.2-9.67.24-14.49.15l-.14-.91a231.46,231.46,0,0,0,37.88-2.22C320.29,259.7,320.5,260.48,320,260.55Z"/><path class="cls-22" d="M303.84,101.52c-.36,5.7-.66,11.41-.68,17.12,0,6.87.31,13.73.68,20.59,0,.52-.78.51-.81,0-.37-6.86-.7-13.72-.68-20.59,0-5.71.33-11.42.68-17.12,0-.52.84-.52.81,0Z"/><path class="cls-22" d="M260.24,106.18A429.06,429.06,0,0,1,255,166.06a445,445,0,0,1-13.57,59.11q-5,16.58-11.24,32.73c-.19.48-1,.27-.78-.22a459.46,459.46,0,0,0,18.06-57.91,433.73,433.73,0,0,0,10-59.59q1.65-17,1.93-34a.4.4,0,0,1,.8,0Z"/><path class="cls-22" d="M243.14,190.36A42.93,42.93,0,0,1,238,209.64c-1.31,2.39-3,4.84-5.42,6.17a7.08,7.08,0,0,1-7.32-.05c-.43-.28,0-1,.41-.7,2.55,1.7,5.75.9,8-1a19.37,19.37,0,0,0,4.55-6.59,41.9,41.9,0,0,0,4.13-17.14.41.41,0,0,1,.81,0Z"/><path class="cls-22" d="M242.91,190.5a30.92,30.92,0,0,0-8.33,2.56c-.46.22-.87-.48-.4-.7a31.34,31.34,0,0,1,8.52-2.64c.51-.08.72.7.21.78Z"/><path class="cls-22" d="M246.7,140.12c2-6.66,15-37.65,15.34-44.59,0-.52.84-.55.81,0-.37,7-13.34,38.07-15.36,44.8-.15.5-.94.32-.79-.18Z"/><path class="cls-22" d="M259.65,105.7l3.05-1.26c.48-.2.69.59.22.78l-3.06,1.26c-.48.2-.69-.58-.21-.78Z"/><path class="cls-22" d="M252.34,69.71A14.58,14.58,0,0,1,265.1,85.26c0,.52-.85.52-.81,0a13.75,13.75,0,0,0-12-14.74c-.51-.07-.51-.87,0-.81Z"/><path class="cls-16" d="M265.9,38.44a.33.33,0,0,0,.26-.25.32.32,0,0,0-.25-.37c-2.91-.6-6.71.87-6.88.93a.32.32,0,0,0,.23.59s3.79-1.47,6.53-.91Z"/></g></g></g></svg>