<svg id="Layer_1" data-name="Layer 1" xmlns="http://www.w3.org/2000/svg" xmlns:xlink="http://www.w3.org/1999/xlink" viewBox="0 0 454.3 452.33"><defs><style>.cls-1{fill:none;}.cls-2{fill:#e8505b;}.cls-3{clip-path:url(#clip-path);}.cls-4{fill:#263238;}.cls-5{fill:#c17878;}.cls-6{fill:#a56767;}.cls-7{fill:#455a64;}.cls-8{fill:#ff725e;}.cls-9{fill:#b55462;}.cls-10{opacity:0.26;isolation:isolate;}</style><clipPath id="clip-path"><circle class="cls-1" cx="228.13" cy="226.17" r="226.17"/></clipPath></defs><circle class="cls-2" cx="226.17" cy="226.17" r="226.17"/><g class="cls-3"><path class="cls-4" d="M296.14,144.74a22.59,22.59,0,0,0-1.62-39.35l-27.12-5.26q1.08,51,1.48,102c6.92-1.3,14-3.42,19.19-8.18s8-12.73,5-19.09a17.91,17.91,0,0,0,3.11-30.15Z"/><path class="cls-5" d="M288.47,228.47c-.05.46-.1.9-.16,1.34-4.42,34.75-29.14,42.19-32.82,43.11l-.46.1.49,7.84h0v.75l1.72,27.32.06,1c.23,5.57-.79,10.05-2.83,13.66-.12.23-.26.47-.4.7A22.89,22.89,0,0,1,243.6,333l-.51.23a49.91,49.91,0,0,1-11.5,3.22h-.19a104.5,104.5,0,0,1-12.73,1.25h-1.73a35.79,35.79,0,0,1-4.39-.26h-.47a38.55,38.55,0,0,1-15.24-5.27,3.79,3.79,0,0,1-.34-.2,38.92,38.92,0,0,1-12.82-12.8h0a7,7,0,0,1-.46-.74,38.45,38.45,0,0,1-4.79-13.12c-.22-1.21-.37-2.44-.47-3.68l-1.75-22.79-.64-8.43-2.94-38.27-.83-10.89-1.21-15.66-1.17-15.34-.49-6.4h0l-.07-.84-3.08-40.11-.6-12,72-16c10.54-1.44,21.65,2.63,30.66,9.72a53,53,0,0,1,10.47,10.89,7.57,7.57,0,0,1,.52.74,43.24,43.24,0,0,1,2.41,3.83,39.89,39.89,0,0,1,5.19,15.8c1.1,11.75,2.11,24.75,2.61,37.16v.44C289.6,206.49,289.55,218.9,288.47,228.47Z"/><path class="cls-4" d="M273.92,182.68a4.81,4.81,0,0,1-4.47,5,4.59,4.59,0,0,1-5.07-4s0-.08,0-.13a4.79,4.79,0,0,1,4.47-5,4.6,4.6,0,0,1,5.07,4.08S273.92,182.65,273.92,182.68Z"/><path class="cls-4" d="M278.59,171.09c-.58.64-4.29-1.93-9.45-1.76s-8.86,2.87-9.44,2.26c-.28-.27.29-1.42,1.9-2.67a13.1,13.1,0,0,1,7.53-2.58,12.65,12.65,0,0,1,7.54,2.18C278.3,169.69,278.87,170.8,278.59,171.09Z"/><path class="cls-4" d="M225.59,184.15a4.81,4.81,0,0,1-4.47,5,4.6,4.6,0,0,1-5.11-4s0-.09,0-.14a4.81,4.81,0,0,1,4.47-5,4.61,4.61,0,0,1,5.11,4S225.59,184.11,225.59,184.15Z"/><path class="cls-4" d="M230.26,172.38c-.58.64-4.3-1.93-9.45-1.76s-8.86,2.87-9.44,2.26c-.28-.27.28-1.42,1.9-2.67a13.1,13.1,0,0,1,7.53-2.58,12.68,12.68,0,0,1,7.55,2.18C230,171,230.54,172.09,230.26,172.38Z"/><path class="cls-4" d="M248.74,211.31c0-.3,3.15-.95,8.33-1.78,1.31-.17,2.55-.47,2.75-1.38s-.32-2.36-1-3.88l-4.21-9.91c-5.85-14.11-10.14-25.73-9.57-26s5.78,11,11.64,25.14q2.11,5.22,4,10c.55,1.48,1.46,3.15.84,5.15a3.27,3.27,0,0,1-2.1,2,8.83,8.83,0,0,1-2.23.38C252,211.47,248.77,211.6,248.74,211.31Z"/><path class="cls-6" d="M255.47,272.28s-26.37,2.37-51.75-11.84c0,0,13.44,25.78,52,21.16Z"/><path class="cls-4" d="M203.72,157.25c-.08-1.49,4.93-2.87,10.24-5.88s9.18-6.43,10.41-5.58c.56.41.28,2-1,4a20.55,20.55,0,0,1-15.73,8.73C205.23,158.53,203.77,158,203.72,157.25Z"/><path class="cls-4" d="M262.4,146.91c1.34-.69,5.06,1.59,9.91,3.13s9.19,2.08,9.82,3.42c.26.64-.7,1.45-2.79,1.84a18,18,0,0,1-8.59-.83,17.58,17.58,0,0,1-7.31-4.45C262,148.46,261.79,147.26,262.4,146.91Z"/><path class="cls-4" d="M299,121.09c7.36-5.33,10.62-15.48,8.3-24.26S297.48,81,288.71,78.63a27.84,27.84,0,0,0-5.45-.84,24,24,0,0,0-11.72-3c-.72-4.79-5.14-8.39-9.86-9.51s-9.68-.22-14.37,1a24.4,24.4,0,0,0-39.22,2.94,20,20,0,0,0-29.16,13.2,19.93,19.93,0,0,0-14.05,7.15,19.26,19.26,0,0,0-3.06,5.24,18.79,18.79,0,0,0-3.31,7.49,22.47,22.47,0,0,0-8.89,41.23A20.53,20.53,0,0,0,155.11,176a26.27,26.27,0,0,0,2.65,20.51c1.57,2.62,3.93,5.08,6.77,5.92a5,5,0,0,0,.62,1.38c2.34,3.43,7.8,1.74,11-.94,7.7-6.53,11.64-16.52,13.58-26.43s2.17-20.08,4-30a5,5,0,0,1,.13-.7,27.43,27.43,0,0,1,5-11.35,71,71,0,0,0,9.14,5.47c11.51,5.27,26.37,1.84,34.41-8a43.7,43.7,0,0,0,28.08,9.28c10.06-.29,20-2.48,27.48-9.17a14,14,0,0,0,4.18-6.42C302.67,123.79,300.84,121.58,299,121.09Z"/><path class="cls-5" d="M173.8,191.33c-.5-.25-20.31-7.07-20.62,13.46s20.35,16.6,20.4,16S173.8,191.33,173.8,191.33Z"/><path class="cls-6" d="M167.43,212.93c-.09-.06-.36.25-1,.52a3.55,3.55,0,0,1-2.68,0c-2.15-.83-3.92-4.3-4-8a12,12,0,0,1,1.08-5.11,4.14,4.14,0,0,1,2.73-2.7,1.83,1.83,0,0,1,2.1,1c.27.58.13,1,.24,1s.44-.34.29-1.19a2.27,2.27,0,0,0-.79-1.3,2.72,2.72,0,0,0-2-.55c-1.58.08-3,1.52-3.78,3.12a12.25,12.25,0,0,0-1.33,5.7c.07,4.14,2.13,8.05,5.08,9a3.85,3.85,0,0,0,3.28-.49C167.38,213.43,167.5,213,167.43,212.93Z"/><path class="cls-7" d="M306.16,93.48a1.66,1.66,0,0,1,.19.48,12.19,12.19,0,0,1,.38,1.47,15.71,15.71,0,0,1,0,5.8,15.41,15.41,0,0,1-4.21,8A16.13,16.13,0,0,1,291.64,114l.36-.32a35.31,35.31,0,0,1-8.22,18,27.28,27.28,0,0,1-8.92,7,22.67,22.67,0,0,1-11.77,1.93,39.87,39.87,0,0,1-11.43-2.7,30.88,30.88,0,0,1-9.56-5.56h.62c-5.18,5-11.16,8.49-17,9.82A29.27,29.27,0,0,1,210.23,141a30.58,30.58,0,0,1-8.94-4.86,18.23,18.23,0,0,1-2-1.78,4.64,4.64,0,0,1-.64-.69s1,.84,2.87,2.23a31.58,31.58,0,0,0,8.93,4.57,29,29,0,0,0,15.11.85c5.69-1.33,11.54-4.81,16.58-9.71l.31-.3.31.29A30.44,30.44,0,0,0,252,137a39.45,39.45,0,0,0,11.17,2.62,21.66,21.66,0,0,0,11.31-1.83,26.37,26.37,0,0,0,8.64-6.69,34.73,34.73,0,0,0,8.15-17.48v-.32h.32a15.57,15.57,0,0,0,10.46-4.4,15.12,15.12,0,0,0,4.21-7.69,16.19,16.19,0,0,0,.22-5.68C306.32,94.17,306.11,93.49,306.16,93.48Z"/><path class="cls-7" d="M161.39,101.16a43.91,43.91,0,0,0-1.76,7.06,29.39,29.39,0,0,0,3.42,18.24l.17.29L163,127a18.9,18.9,0,0,0-5.4,8.37,18.17,18.17,0,0,0-.07,10.92,19,19,0,0,0,8.82,10.84l.38.21-.2.39a23.56,23.56,0,0,0-2.3,12.82,25.47,25.47,0,0,0,3,9.92,27.3,27.3,0,0,0,5.87,7.24,4.22,4.22,0,0,1-.54-.35,18.08,18.08,0,0,1-1.45-1.17,22.73,22.73,0,0,1-4.37-5.44,25.45,25.45,0,0,1-3.29-10.13,24.12,24.12,0,0,1,2.26-13.3l.18.6a19.73,19.73,0,0,1-9.28-11.35,18.87,18.87,0,0,1,.09-11.47,19.52,19.52,0,0,1,5.72-8.72l-.09.51a29.15,29.15,0,0,1-3.19-18.72,25.64,25.64,0,0,1,1.43-5.23c.22-.59.44-1,.57-1.32S161.37,101.15,161.39,101.16Z"/><path class="cls-6" d="M228.13,190.05a7.36,7.36,0,0,1-2.21,1.3,19.13,19.13,0,0,1-12.19,1,7.48,7.48,0,0,1-2.41-.9c0-.2,3.78,1.22,8.55.78S228.06,189.86,228.13,190.05Z"/><path class="cls-6" d="M224.78,194.62a6.61,6.61,0,0,1-3.63,1.12,6.69,6.69,0,0,1-3.77-.51c0-.18,1.7.08,3.72-.1S224.72,194.45,224.78,194.62Z"/><path class="cls-6" d="M253.53,154.13a9.55,9.55,0,0,1-2.64,1.25,25.38,25.38,0,0,1-13.92.91,9.67,9.67,0,0,1-2.77-.9c0-.2,4.32,1.2,9.76.81S253.46,153.94,253.53,154.13Z"/><path class="cls-6" d="M246.55,151.92c.08.13-2.28,1.26-5.42,1.15a9.67,9.67,0,0,1-5.34-1.47c.07-.18,2.36.79,5.36.86S246.49,151.74,246.55,151.92Z"/><path class="cls-6" d="M279,187a5,5,0,0,1-1.78,1.28,12.56,12.56,0,0,1-10.37.42,5.21,5.21,0,0,1-1.89-1.13,17.7,17.7,0,0,1,2,.73,14.24,14.24,0,0,0,10-.41A18.5,18.5,0,0,1,279,187Z"/><path class="cls-6" d="M275.62,190.91a2.61,2.61,0,0,1-1.16.75,7.37,7.37,0,0,1-6.45-.51c-.73-.46-1.07-.88-1-.93a10.72,10.72,0,0,0,4.23,1.37C273.72,191.77,275.55,190.74,275.62,190.91Z"/><path class="cls-8" d="M323.36,286.44l-42.26-9.68a43.49,43.49,0,0,0-24.69,1.55h0c-9.42,31.4-59.53,21-78.62.48L175,279l-41.71,7.49-4.72,134.27,50.66,88.53,103.5.72,42.7-98.25Z"/><path class="cls-8" d="M230.07,331.38c2.72,2.79,9.19,82.91,19.77,105.75,4.33,9.34,7.25,20.86,10.88,31.46,5.25,15.3,10.94,29.12,15.66,35.37,8,10.58,41.41,27.85,59.79,23.95s22.28-42.89,25.06-56.25,3.34-57.93,3.34-62.94,2.67-29.1,2.11-42.09c-.8-18.57-6-73.81-43.32-80.19l-11.14,37.63L305,414.29s-36.2-81.87-36.76-83.54-2.55-28-2.55-28l-32,23.53Z"/><path class="cls-8" d="M133.25,286.44s-33.91,9.07-36.8,52.5c-2.69,40.35-5.81,59-7.14,89.6-1,23.72,5.61,55.36,8.48,63.44s25.68,29.3,34,32.43,38.19,3.9,46.46-7.4c7.9-10.79,18.07-58.14,18.07-58.14l14.36-85s1.55-23.82,1.75-30.41c.23-7.83.08-21.75.08-21.75L178,305.15l-30.89,89.24s.44-67.45-2.17-80S133.25,286.44,133.25,286.44Z"/><path class="cls-4" d="M335.34,294.25c.05.11-1.92,1-4.8,2.85a41.42,41.42,0,0,0-4.78,3.66,45,45,0,0,0-5.07,5.35,45.82,45.82,0,0,0-4.06,6.16,42.37,42.37,0,0,0-2.47,5.5c-1.18,3.23-1.56,5.34-1.68,5.32a7.55,7.55,0,0,1,.22-1.49,17.27,17.27,0,0,1,.39-1.73c.19-.66.36-1.43.66-2.24a37.48,37.48,0,0,1,2.39-5.62,39.7,39.7,0,0,1,9.25-11.67,36.93,36.93,0,0,1,4.92-3.6,22.12,22.12,0,0,1,2-1.16,15.6,15.6,0,0,1,1.59-.78A6.79,6.79,0,0,1,335.34,294.25Z"/><path class="cls-4" d="M135.17,337.82a11.67,11.67,0,0,1-.44-1.74c-.23-1.12-.62-2.74-1.15-4.72A87.57,87.57,0,0,0,120,302.56c-1.19-1.66-2.2-3-2.92-3.88a10.68,10.68,0,0,1-1.06-1.44,9.46,9.46,0,0,1,1.24,1.29c.78.85,1.84,2.14,3.09,3.78A78.8,78.8,0,0,1,134,331.26c.47,2,.8,3.64,1,4.78A8.2,8.2,0,0,1,135.17,337.82Z"/><path class="cls-4" d="M120,283.18a11.93,11.93,0,0,0-1.89,0,6.64,6.64,0,0,0-4.35,2.34,6,6,0,0,0-1.33,3.15,6.37,6.37,0,0,1-.57,2,3.27,3.27,0,0,1-1.72,1.47c-1.49.52-3.07.28-4.62.32a7.34,7.34,0,0,0-2.28.31,3,3,0,0,0-1.72,1.39c-.77,1.37-.71,3.06-.81,4.63a11.65,11.65,0,0,1-.31,2.36,4,4,0,0,1-1.2,2,4.21,4.21,0,0,1-2,.91,9.6,9.6,0,0,0-1.9.47,5.54,5.54,0,0,0-2.59,2.19,6.44,6.44,0,0,0-.92,4.85,11,11,0,0,0,.66,1.76,2.85,2.85,0,0,1-.31-.4,4.52,4.52,0,0,1-.58-1.31,6.52,6.52,0,0,1,.79-5.13,5.91,5.91,0,0,1,2.76-2.42c1.25-.56,2.77-.42,3.76-1.34s1.21-2.46,1.28-4a10.7,10.7,0,0,1,.88-4.91,3.74,3.74,0,0,1,2-1.65,7.64,7.64,0,0,1,2.47-.33,14.66,14.66,0,0,0,4.43-.26,2.68,2.68,0,0,0,1.45-1.2,5.85,5.85,0,0,0,.54-1.83,6.3,6.3,0,0,1,1.5-3.34,6.71,6.71,0,0,1,4.66-2.3,5.64,5.64,0,0,1,1.42.12A1.52,1.52,0,0,1,120,283.18Z"/><path class="cls-4" d="M115.31,279.27a11.8,11.8,0,0,0-1.88,0,6.64,6.64,0,0,0-4.35,2.34,6,6,0,0,0-1.33,3.16,6.37,6.37,0,0,1-.57,2,3.27,3.27,0,0,1-1.72,1.47,14.63,14.63,0,0,1-4.62.32,7.65,7.65,0,0,0-2.28.31,3.14,3.14,0,0,0-1.73,1.39c-.76,1.37-.71,3.07-.8,4.63a12.51,12.51,0,0,1-.31,2.36,4,4,0,0,1-1.2,2,4.12,4.12,0,0,1-2,.91,11.11,11.11,0,0,0-1.89.47A5.59,5.59,0,0,0,88,302.8a6.52,6.52,0,0,0-.93,4.85,13.8,13.8,0,0,0,.66,1.76,1.62,1.62,0,0,1-.3-.39,4.17,4.17,0,0,1-.58-1.31,6.58,6.58,0,0,1,.79-5.14,6,6,0,0,1,2.76-2.42c1.24-.56,2.76-.41,3.75-1.34s1.22-2.46,1.28-4a10.53,10.53,0,0,1,.88-4.9,3.76,3.76,0,0,1,2-1.66,7.43,7.43,0,0,1,2.48-.33,14.9,14.9,0,0,0,4.42-.25,2.79,2.79,0,0,0,1.46-1.2,6.53,6.53,0,0,0,.54-1.83,6.36,6.36,0,0,1,1.49-3.34,6.76,6.76,0,0,1,4.66-2.31,5.72,5.72,0,0,1,1.43.12C115.16,279.2,115.32,279.25,115.31,279.27Z"/><path class="cls-4" d="M369,308.24a11.8,11.8,0,0,0,0-1.88,6.68,6.68,0,0,0-2.43-4.3,6.05,6.05,0,0,0-3.18-1.27,6,6,0,0,1-2-.53,3.22,3.22,0,0,1-1.5-1.69,14.31,14.31,0,0,1-.42-4.61,7.28,7.28,0,0,0-.36-2.27,3.08,3.08,0,0,0-1.43-1.7c-1.38-.74-3.07-.64-4.64-.71a12.55,12.55,0,0,1-2.37-.26,4,4,0,0,1-2.05-1.15,4.18,4.18,0,0,1-.95-2,10.35,10.35,0,0,0-.51-1.89,5.64,5.64,0,0,0-2.24-2.54,6.5,6.5,0,0,0-4.87-.82,11,11,0,0,0-1.75.69,2.31,2.31,0,0,1,.39-.31,4.54,4.54,0,0,1,1.3-.61,6.57,6.57,0,0,1,5.14.68,6.05,6.05,0,0,1,2.49,2.71c.58,1.24.47,2.76,1.41,3.73s2.49,1.16,4,1.2a10.59,10.59,0,0,1,4.92.78,3.62,3.62,0,0,1,1.69,2A7.58,7.58,0,0,1,360,294a14.66,14.66,0,0,0,.35,4.43,2.72,2.72,0,0,0,1.23,1.42,5.86,5.86,0,0,0,1.84.51,6.35,6.35,0,0,1,3.37,1.42,6.82,6.82,0,0,1,2.4,4.61,5.71,5.71,0,0,1-.09,1.43A1.57,1.57,0,0,1,369,308.24Z"/><path class="cls-4" d="M372.79,303.48a11.93,11.93,0,0,0,0-1.89,6.65,6.65,0,0,0-2.44-4.3,5.93,5.93,0,0,0-3.17-1.26,6,6,0,0,1-2-.53,3.19,3.19,0,0,1-1.5-1.69,14.31,14.31,0,0,1-.42-4.61,7.39,7.39,0,0,0-.36-2.28,3.09,3.09,0,0,0-1.43-1.69c-1.38-.74-3.07-.65-4.64-.71a12.55,12.55,0,0,1-2.37-.26,3.91,3.91,0,0,1-2-1.16,4.18,4.18,0,0,1-1-2,9.45,9.45,0,0,0-.52-1.89,5.47,5.47,0,0,0-2.24-2.54,6.48,6.48,0,0,0-4.86-.83,11,11,0,0,0-1.75.7,3.83,3.83,0,0,1,.39-.32,4.52,4.52,0,0,1,1.3-.6,6.57,6.57,0,0,1,5.14.68,6,6,0,0,1,2.48,2.7c.58,1.23.46,2.76,1.41,3.73s2.49,1.16,4,1.19a10.59,10.59,0,0,1,4.92.78,3.7,3.7,0,0,1,1.69,2,7.58,7.58,0,0,1,.39,2.46,14.94,14.94,0,0,0,.34,4.42,2.74,2.74,0,0,0,1.23,1.43,5.86,5.86,0,0,0,1.84.51,6.38,6.38,0,0,1,3.38,1.42,6.76,6.76,0,0,1,2.39,4.61,5.7,5.7,0,0,1-.08,1.43A1.46,1.46,0,0,1,372.79,303.48Z"/><path class="cls-4" d="M209.49,57.18a12,12,0,0,0-1.72-.76,6.62,6.62,0,0,0-4.92.48,6,6,0,0,0-2.44,2.4,6.18,6.18,0,0,1-1.3,1.62,3.31,3.31,0,0,1-2.16.69c-1.57-.09-2.94-.92-4.38-1.48a6.82,6.82,0,0,0-2.22-.59,3.12,3.12,0,0,0-2.13.61,10.72,10.72,0,0,0-2.53,4,11.43,11.43,0,0,1-1.2,2.06,3.62,3.62,0,0,1-4.11,1.41,11.65,11.65,0,0,0-1.94-.29,5.58,5.58,0,0,0-3.23,1,6.5,6.5,0,0,0-2.72,4.12,10.72,10.72,0,0,0-.07,1.88,1.55,1.55,0,0,1-.13-.48,4.35,4.35,0,0,1,0-1.44A6.56,6.56,0,0,1,175,68a6.06,6.06,0,0,1,3.48-1.17c1.36,0,2.71.69,4,.21s2.07-1.8,2.72-3.19a10.88,10.88,0,0,1,2.71-4.19,3.73,3.73,0,0,1,2.52-.73,7.75,7.75,0,0,1,2.41.64A14.66,14.66,0,0,0,197,61.05a2.72,2.72,0,0,0,1.8-.54A6.24,6.24,0,0,0,200,59a6.37,6.37,0,0,1,2.66-2.51,6.74,6.74,0,0,1,5.19-.33,5.12,5.12,0,0,1,1.27.66A1.8,1.8,0,0,1,209.49,57.18Z"/><path class="cls-4" d="M206.67,51.77A11,11,0,0,0,205,51a6.62,6.62,0,0,0-4.92.48,6.06,6.06,0,0,0-2.44,2.4,6.31,6.31,0,0,1-1.29,1.62,3.31,3.31,0,0,1-2.16.69c-1.58-.09-2.94-.92-4.38-1.48a7.23,7.23,0,0,0-2.23-.6,3.24,3.24,0,0,0-2.13.62,11,11,0,0,0-2.53,4,11.38,11.38,0,0,1-1.19,2.06,4,4,0,0,1-1.89,1.41,4,4,0,0,1-2.23,0,11.38,11.38,0,0,0-1.93-.29,5.58,5.58,0,0,0-3.23,1A6.46,6.46,0,0,0,169.73,67a10.72,10.72,0,0,0-.07,1.88,1.56,1.56,0,0,1-.14-.48,5,5,0,0,1,0-1.44,6.63,6.63,0,0,1,2.71-4.43,5.93,5.93,0,0,1,3.49-1.17c1.36,0,2.71.69,4,.21s2.07-1.8,2.72-3.2a10.68,10.68,0,0,1,2.7-4.18,3.76,3.76,0,0,1,2.53-.74,8,8,0,0,1,2.41.65,14.46,14.46,0,0,0,4.18,1.47,2.74,2.74,0,0,0,1.81-.55,5.86,5.86,0,0,0,1.2-1.47,6.4,6.4,0,0,1,2.67-2.51,6.74,6.74,0,0,1,5.19-.33,5.89,5.89,0,0,1,1.27.66C206.56,51.64,206.69,51.76,206.67,51.77Z"/><path class="cls-4" d="M230,232.56c.73-3.55,4.42-7.72,7.89-7.86,4.51-.18,8.46,4.14,12.3,6.23,6.85,3.73,13.6,6.44,20.58.77,1.74-1.41,1.16-2.72-.56-1.32-3.19,2.58-7.7,4.07-11.32,2.81-4.35-1.53-8.19-6.21-12.43-8-3.89-1.65-8.4-2.67-12.53-1.21-3.5,1.23-6.52,3.92-7.29,7.66-.44,2.19,2.91,3.13,3.36.93Z"/><path class="cls-9" d="M189.76,249.35c.24.75.42,1.61.64,2.36a19,19,0,0,1,.93,6.69c-.5,7.64-8.4,13.69-15.76,12l-2.94-38.27a6.22,6.22,0,0,1,2.41-.46c7.07,0,22.22-2.27,21.85,8.91C196.76,244.41,193.65,248.54,189.76,249.35Z"/><path class="cls-9" d="M288.47,228.47a7.86,7.86,0,0,1-9.25-6.17,7.56,7.56,0,0,1-.15-1.5,6.28,6.28,0,0,1,.16-1.88c-.83-.53-1.8-1.2-1.88-1.27A11.1,11.1,0,0,1,272.6,211c-.85-4.18,1.36-7.69,4.16-10.77,1.81-2,3.87-3.78,5.5-5.47a5.69,5.69,0,0,1,6.53-1.45l.3.12C289.6,206.49,289.55,218.9,288.47,228.47Z"/><path class="cls-9" d="M203.42,203a8.88,8.88,0,0,0-1.45-1.14q-.16-.42-.36-.81a9.4,9.4,0,0,0-4.91-4.13,6.36,6.36,0,0,0-8.06.74,8.45,8.45,0,0,0,.25,12l.3.27a10.52,10.52,0,0,0,1.2.91,10.36,10.36,0,0,0,1,2.32c2.54,4.23,8.71,5.3,12.26,1.66A8.48,8.48,0,0,0,203.42,203Z"/><path class="cls-4" d="M340.46,483.83a4.4,4.4,0,0,1,.26-.8,19.73,19.73,0,0,0,.74-2.25,23.4,23.4,0,0,0,.57-8.66,33.53,33.53,0,0,0-4-12.2,61.64,61.64,0,0,0-9.7-12.52c-3.91-4.07-7.86-7.76-11.18-11.4a61.38,61.38,0,0,1-7.89-10.4,34.46,34.46,0,0,1-3.49-8.08,20.79,20.79,0,0,1-.52-2.34,3.32,3.32,0,0,1-.11-.83c.06,0,.24,1.13.85,3.1a37.21,37.21,0,0,0,3.64,7.93,63.49,63.49,0,0,0,7.93,10.25c3.32,3.59,7.28,7.26,11.21,11.35a61.55,61.55,0,0,1,9.75,12.67,32.94,32.94,0,0,1,4,12.43,22.73,22.73,0,0,1-.76,8.76,16.37,16.37,0,0,1-.85,2.24A5.73,5.73,0,0,1,340.46,483.83Z"/><path class="cls-4" d="M126.85,440.56c0,.11-1.27.28-3.27.88a21.42,21.42,0,0,0-7.13,3.72,28.8,28.8,0,0,0-5.45,6c-1.19,1.71-1.85,2.83-1.93,2.79s.09-.33.35-.85a22.18,22.18,0,0,1,1.23-2.18,25.12,25.12,0,0,1,5.42-6.21,19.61,19.61,0,0,1,7.4-3.66,15.86,15.86,0,0,1,2.46-.44A2.58,2.58,0,0,1,126.85,440.56Z"/><path class="cls-4" d="M146.05,399.32a13.38,13.38,0,0,1-.35-1.89c-.2-1.32-.46-3.06-.78-5.16-.65-4.36-1.6-10.37-2.81-17s-2.44-12.58-3.37-16.89l-1.1-5.1a11,11,0,0,1-.34-1.89,11.75,11.75,0,0,1,.57,1.83c.33,1.19.77,2.92,1.28,5.07,1,4.29,2.34,10.25,3.56,16.87s2.09,12.66,2.64,17c.27,2.19.47,4,.58,5.19A10.81,10.81,0,0,1,146.05,399.32Z"/><path class="cls-4" d="M200.74,464.74c0-.13,2-.55,5-1.91a25.24,25.24,0,0,0,2.43-1.24,30,30,0,0,0,2.65-1.64,33.34,33.34,0,0,0,9.66-10.4,30.17,30.17,0,0,0,1.44-2.76,22.93,22.93,0,0,0,1.05-2.51c1.14-3.14,1.41-5.21,1.54-5.19a6.54,6.54,0,0,1-.17,1.46,11.9,11.9,0,0,1-.34,1.68,21,21,0,0,1-.62,2.19,24.38,24.38,0,0,1-1,2.57,30.08,30.08,0,0,1-1.42,2.84,31.8,31.8,0,0,1-9.83,10.58,28.67,28.67,0,0,1-2.72,1.62,24.89,24.89,0,0,1-2.5,1.19,20.15,20.15,0,0,1-2.13.79,13.6,13.6,0,0,1-1.66.46A7.17,7.17,0,0,1,200.74,464.74Z"/><path class="cls-4" d="M257.09,466a4.33,4.33,0,0,1-1.13-.15,23.67,23.67,0,0,1-3-.8,32.84,32.84,0,0,1-16.23-11.93,24.4,24.4,0,0,1-1.65-2.61,3.84,3.84,0,0,1-.48-1c.09,0,.89,1.35,2.48,3.39a36.23,36.23,0,0,0,16,11.77C255.54,465.59,257.11,465.93,257.09,466Z"/><path class="cls-10" d="M341.74,446.54c-2.31-4.08-6.15-7.07-10.18-9.46s-8.34-4.3-12.25-6.88c-5.59-3.69-11.05-10.07-14.33-15.91.79,5.8,4.78,11.69,8,16.58,3.74,5.64,10,10.52,14.71,15.39a102.68,102.68,0,0,1,11,14.1c.43.67.36,1,1.16,1A2.69,2.69,0,0,0,342,459.9C344.51,456,344,450.62,341.74,446.54Z"/><path class="cls-10" d="M259.64,466c-8.23-.05-18.31-5.12-23.06-13.41-1.77-3.09-4.12-6.44-7.67-6.83-4.08-.44-6.82,2.08-9.1,5.49-5.38,8-13.07,13.5-22.86,13.79a282.77,282.77,0,0,1-13.86,43.37,85.29,85.29,0,0,0,22.79-28.79,40.56,40.56,0,0,0,21.2-16c3,5,10.11,9.6,16.36,11.51s13.31,3.32,19.74.72C261.91,474,260.9,467.85,259.64,466Z"/><path class="cls-10" d="M102.81,449c-1.38,1.66-2.53,4.2-1.11,5.83a3.43,3.43,0,0,0,3.57.76,9.8,9.8,0,0,0,4.18-2.79c5.12-7.87,11.61-11.2,17.4-12.21l.88-1.45C118.88,438.21,108.47,442.12,102.81,449Z"/><path class="cls-4" d="M193.33,430.42a4.15,4.15,0,0,1-.41.53l-1.26,1.46c-1.1,1.25-2.76,3-4.87,5.14a163.77,163.77,0,0,1-17.62,15.35,166.77,166.77,0,0,1-19.63,12.68c-2.63,1.44-4.78,2.54-6.29,3.25l-1.75.81a2.85,2.85,0,0,1-.63.25,2.63,2.63,0,0,1,.58-.35c.44-.25,1-.55,1.69-.92,1.48-.77,3.6-1.93,6.19-3.41a181.79,181.79,0,0,0,37.16-28c2.14-2.08,3.84-3.8,5-5l1.35-1.38A3.8,3.8,0,0,1,193.33,430.42Z"/></g></svg>