<svg xmlns="http://www.w3.org/2000/svg" viewBox="0 0 325 330.37"><defs><style>.cls-1{isolation:isolate;}.cls-2{fill:#d8ebf4;}.cls-3{fill:#455a64;}.cls-4,.cls-8{fill:#065b7a;}.cls-5{fill:#044c64;}.cls-6{fill:none;stroke:#d8ebf4;stroke-miterlimit:10;}.cls-7{fill:#ff725e;}.cls-8{mix-blend-mode:multiply;opacity:0.1;}.cls-9{fill:#636675;}.cls-10{fill:#828591;}.cls-11{fill:#063f52;}.cls-12{fill:#9b9da7;}</style></defs><g class="cls-1"><g id="Layer_1" data-name="Layer 1"><rect class="cls-2" y="5.37" width="325" height="325" rx="162.5"/><rect class="cls-3" x="87.3" y="78.24" width="150.39" height="179.25"/><rect class="cls-3" x="87.3" y="256.68" width="150.39" height="0.81"/><rect class="cls-4" x="82.57" y="102.36" width="159.87" height="131.02" transform="translate(330.37 5.37) rotate(90)"/><rect class="cls-5" x="159.27" y="25.66" width="6.46" height="131.02" transform="translate(253.66 -71.34) rotate(90)"/><rect class="cls-5" x="159.27" y="82.26" width="6.46" height="130.85" transform="translate(310.18 -14.82) rotate(90)"/><rect class="cls-5" x="124.94" y="171.49" width="6.46" height="62.2" transform="translate(330.76 74.42) rotate(90)"/><rect class="cls-5" x="23.52" y="161.41" width="159.87" height="12.92" transform="translate(271.32 64.42) rotate(90)"/><rect class="cls-5" x="118.9" y="188.05" width="106.58" height="12.92" transform="translate(366.7 22.32) rotate(90)"/><rect class="cls-3" x="82.57" y="102.36" width="159.87" height="131.02" transform="translate(330.37 5.37) rotate(90)"/><rect class="cls-6" x="83.37" y="103.17" width="158.25" height="129.4" transform="translate(330.37 5.37) rotate(90)"/><circle class="cls-7" cx="162.58" cy="154.95" r="24.22"/><rect class="cls-3" x="146.51" y="149.73" width="32.14" height="10.44"/><rect class="cls-3" x="146.51" y="149.73" width="32.14" height="10.44" transform="translate(7.63 317.53) rotate(-90)"/><path class="cls-8" d="M114.81,169.67a4.74,4.74,0,0,1-4.2,4.71v2.46H110v-2.44a4.74,4.74,0,1,1,4.78-4.74Z"/><circle class="cls-9" cx="109.91" cy="169.51" r="4.74"/><circle class="cls-9" cx="109.91" cy="169.51" r="4.74"/><path class="cls-9" d="M110.61,168.23v6a5.67,5.67,0,0,1-.58.05v-6a.29.29,0,1,1,.58,0Z"/><circle class="cls-10" cx="109.91" cy="169.51" r="3.75"/><path class="cls-8" d="M114.4,170a.63.63,0,0,1-.62.63h-3.17v3.58a5.67,5.67,0,0,1-.58.05v-3.63h-3.66a.63.63,0,0,1-.45-1.07.64.64,0,0,1,.45-.19h7.41A.63.63,0,0,1,114.4,170Z"/><path class="cls-8" d="M110.61,168.39v1H110v-1a.29.29,0,1,1,.58,0Z"/><path class="cls-8" d="M114.75,178a1.1,1.1,0,0,0-1-1,24.7,24.7,0,0,0-3.15-.21H110c-1.11,0-1.83.12-2.54.2a1.1,1.1,0,0,0-1,1c-.1.81-.22,2-.22,2.46s.11,1.55.2,2.33a1.09,1.09,0,0,0,1.09,1H109s0,0,0,.05l.57,1.12a.2.2,0,0,1,0,.22l-.19.26a.22.22,0,0,0,0,.22l.24.48a.28.28,0,0,1,0,.18l-.25.53a.23.23,0,0,0,0,.2l.21.35a.22.22,0,0,1,0,.18l-.28.8a.22.22,0,0,0,0,.16l.27.58a.25.25,0,0,1,0,.19l-.22.42a.23.23,0,0,0,0,.2l.21.37a.22.22,0,0,1,0,.22l-.17.27a.2.2,0,0,0,0,.26l.59.63a.76.76,0,0,0,1.14,0l.67-.79a.2.2,0,0,0,0-.2l-.26-.83a.13.13,0,0,1,0-.12l.29-1a.26.26,0,0,0,0-.15l-.3-.65a.21.21,0,0,1,0-.19l.26-.45a.22.22,0,0,0,0-.21l-.2-.39a.2.2,0,0,1,0-.17l.24-.66a.26.26,0,0,0,0-.15l-.29-.77a.2.2,0,0,1,0-.17l.52-1h1.53a1.09,1.09,0,0,0,1.09-1c.09-.78.2-1.83.2-2.34S114.85,178.82,114.75,178Zm-4.11,1.74a1,1,0,0,1-1-1,1,1,0,0,1,.48-.86.29.29,0,0,0,.5-.15h0a1,1,0,1,1,0,2Z"/><path class="cls-10" d="M108.41,183.33l.57,1.11a.22.22,0,0,1,0,.22l-.2.27a.2.2,0,0,0,0,.21l.23.49a.19.19,0,0,1,0,.18l-.24.53a.2.2,0,0,0,0,.2l.21.35a.19.19,0,0,1,0,.18l-.28.8a.16.16,0,0,0,0,.15l.26.59a.19.19,0,0,1,0,.18l-.23.43a.2.2,0,0,0,0,.2l.2.36a.22.22,0,0,1,0,.22l-.18.27a.22.22,0,0,0,0,.26l.59.64a.76.76,0,0,0,1.14,0l.68-.79a.24.24,0,0,0,0-.2l-.27-.83a.29.29,0,0,1,0-.13l.29-.94a.19.19,0,0,0,0-.15l-.29-.65a.2.2,0,0,1,0-.2l.27-.45a.2.2,0,0,0,0-.21l-.2-.38a.2.2,0,0,1,0-.17l.23-.67a.17.17,0,0,0,0-.14l-.3-.77a.2.2,0,0,1,0-.17l.55-1.07a.2.2,0,0,0-.19-.3l-2.75.1A.21.21,0,0,0,108.41,183.33Z"/><path class="cls-9" d="M110.13,183v8.38a.88.88,0,0,1-.28,0V183Z"/><path class="cls-9" d="M110.13,183v8.38a.88.88,0,0,1-.28,0V183Z"/><path class="cls-11" d="M114.11,177.53a1.09,1.09,0,0,0-1-1,23.66,23.66,0,0,0-6.29,0,1.09,1.09,0,0,0-1,1c-.09.81-.22,2-.22,2.46s.11,1.55.2,2.32a1.11,1.11,0,0,0,1.09,1H113a1.09,1.09,0,0,0,1.08-1c.09-.77.21-1.82.21-2.33S114.2,178.33,114.11,177.53ZM110,179.27a1,1,0,1,1,1-1A1,1,0,0,1,110,179.27Z"/><path class="cls-11" d="M114.33,169.51h0a.64.64,0,0,1-.63.63h-7.41a.63.63,0,0,1-.63-.63h0a.63.63,0,0,1,.63-.63h7.41A.63.63,0,0,1,114.33,169.51Z"/><path class="cls-12" d="M110,178h0a.29.29,0,0,1-.29-.29v-9.44a.29.29,0,0,1,.29-.29h0a.29.29,0,0,1,.29.29v9.44A.29.29,0,0,1,110,178Z"/></g></g></svg>