<svg id="Layer_1" data-name="Layer 1" xmlns="http://www.w3.org/2000/svg" xmlns:xlink="http://www.w3.org/1999/xlink" viewBox="0 0 324.1 324.1"><defs><style>.cls-1{fill:none;}.cls-2{fill:#e8505b;}.cls-3{clip-path:url(#clip-path);}.cls-4{fill:#db4c56;}.cls-5{fill:#fafafa;}.cls-6{opacity:0.42;}.cls-7{fill:#ffbe9d;}.cls-8{fill:#263238;}.cls-9{fill:#eb996e;}.cls-10{fill:#455a64;}</style><clipPath id="clip-path"><circle class="cls-1" cx="162.05" cy="162.05" r="162.05"/></clipPath></defs><circle class="cls-2" cx="162.05" cy="162.05" r="162.05"/><g class="cls-3"><path class="cls-4" d="M275.51,293.29l-17.75-84.66s-10.41-40.8-46.23-54.86l-2.47-.76L205.61,152c-1.44-.56-7.32-2.43-8.87-2.91-48.3-16.74-61.11-12.39-111.44,4.79,0,0-22.36,6-33.2,35.18S20.52,263.8,20.52,263.8l50.21,17.73,9.63-14.3v97.82h138.1l-3.81-45,7.88-19.72"/><path class="cls-5" d="M134.94,159a7.54,7.54,0,0,1-1.15,1.07,15.07,15.07,0,0,1-1.45,1.14c-.59.42-1.23.93-2,1.39a37.18,37.18,0,0,1-5.65,2.93,42.61,42.61,0,0,1-7.47,2.26,41.71,41.71,0,0,1-7.78.72,36.81,36.81,0,0,1-6.34-.59c-.9-.13-1.69-.36-2.39-.52a15.94,15.94,0,0,1-1.77-.51,7.27,7.27,0,0,1-1.47-.56c0-.12,2.15.62,5.7,1.17a40.84,40.84,0,0,0,6.27.45,44.31,44.31,0,0,0,7.66-.76,44.88,44.88,0,0,0,7.38-2.18,41.22,41.22,0,0,0,5.64-2.78C133.18,160.42,134.86,158.93,134.94,159Z"/><path class="cls-5" d="M212.62,220.36a4.19,4.19,0,0,1-.79-.14l-1-.2-1.31-.17a22.37,22.37,0,0,0-8.3.85,50.56,50.56,0,0,0-11.36,5.12c-4.07,2.36-8.44,5.26-13.53,7.35a29,29,0,0,1-7.73,2.12,19.81,19.81,0,0,1-7.45-.52,34,34,0,0,1-6.27-2.5c-1.89-.93-3.62-1.85-5.23-2.61a22.42,22.42,0,0,0-8-2.42,16.25,16.25,0,0,0-2.28.07,4,4,0,0,1-.8.06,3.16,3.16,0,0,1,.78-.18,12.7,12.7,0,0,1,2.31-.18,21.37,21.37,0,0,1,8.16,2.26c1.64.74,3.38,1.64,5.27,2.55a34.52,34.52,0,0,0,6.19,2.41,19.33,19.33,0,0,0,7.24.47,28.63,28.63,0,0,0,7.57-2.09c5-2.06,9.37-4.93,13.48-7.28a49.37,49.37,0,0,1,11.52-5,21.41,21.41,0,0,1,8.45-.67l1.32.23c.37.08.69.18.94.25A3.58,3.58,0,0,1,212.62,220.36Z"/><path class="cls-6" d="M101.83,293.93c17.29-12.47,27-31.19,36.38-49.94s18-38.3,32.06-54.09c6.47-7.26,6.15-21.22,7.85-30.63l-23.37,23.32L91.49,285.51Z"/><polygon class="cls-6" points="80.36 304.46 91.68 317.54 102.81 317.54 102.81 331.77 217.9 358.38 216.96 347.3 108.68 310.12 90.54 310.12 81.79 303.13 80.36 304.46"/><path class="cls-7" d="M114.25,292.82l-9.6-1.78s-22.76-24.89-27-25.24c-3.51-.29-22.87-.11-29.61,0a2.35,2.35,0,0,0-2.32,2.35h0A2.35,2.35,0,0,0,48,270.46l22.87.89.1,1.84-22.9.3c-2.33.18-3.82,3.88,3.64,4.54l19.16.68v1.19L51.4,282.62c-1,.14-3.56.64-3.58,1.63,0,0-1.18,2.43,4.35,3.12,1.9.24,18.76-.32,18.76-.32l-.65,1.52-17.45,3.76a2.49,2.49,0,0,0-1.94,2.77h0a2.49,2.49,0,0,0,2.69,2.13l18.65-1.73,18.31,14.62H115Z"/><path class="cls-4" d="M212.21,294.81l-103.53-3.34,0,35.78,68.69,13.64,48.23,7.7c30,0,53.95-27.51,49.31-57.12l-.13,0Z"/><path class="cls-8" d="M240.72,294.15a8.49,8.49,0,0,1-1.35.1l-3.84.11-14.16.25c-12,.18-28.47.38-46.71.21s-34.77-.84-46.7-1.65c-6-.4-10.79-.79-14.12-1.12l-3.83-.39a10.48,10.48,0,0,1-1.33-.19,8.13,8.13,0,0,1,1.35,0l3.84.24c3.33.24,8.16.54,14.12.86,11.93.66,28.44,1.23,46.68,1.41s34.74.06,46.7,0h14.15l3.85,0A8.38,8.38,0,0,1,240.72,294.15Z"/><path class="cls-8" d="M108.69,291.79s0,.22,0,.63,0,1.07,0,1.86c0,1.66,0,4,.08,7.05,0,6.12.06,14.82.11,25.29l-.2-.25c11.69,2.51,25.71,5.62,40.8,8.78,20.68,4.38,39.51,7.83,53.2,10,6.84,1,12.39,1.82,16.23,2.33l4.43.58,1.15.17a2.11,2.11,0,0,1,.38.07,1.64,1.64,0,0,1-.39,0l-1.16-.11-4.43-.47c-3.85-.43-9.42-1.14-16.28-2.14-13.71-2-32.57-5.4-53.26-9.77-15.09-3.17-29.1-6.31-40.78-8.88l-.2,0v-.21c0-10.47.08-19.17.1-25.29,0-3,0-5.39.07-7.05,0-.79,0-1.4,0-1.86A2.83,2.83,0,0,1,108.69,291.79Z"/><path class="cls-8" d="M99.84,193.92a10,10,0,0,1,.08-1.75c.07-1.12.18-2.74.23-4.74a81.8,81.8,0,0,0-1.09-15.58c-1.06-6-2.4-11.47-4.48-14.86a11.71,11.71,0,0,0-3.1-3.49c-.9-.64-1.48-.88-1.46-.94s.16,0,.44.14a7.05,7.05,0,0,1,1.16.61,11.1,11.1,0,0,1,3.32,3.45,24.8,24.8,0,0,1,2.79,6.53,73.63,73.63,0,0,1,1.93,8.46,71.84,71.84,0,0,1,.91,15.7c-.09,2-.27,3.63-.42,4.75A8.9,8.9,0,0,1,99.84,193.92Z"/><path class="cls-8" d="M213.7,162.46c.17,0,.3,23.79.3,53.13s-.13,53.13-.3,53.13-.3-23.78-.3-53.13S213.53,162.46,213.7,162.46Z"/><path class="cls-8" d="M249.43,282c0,.12-1.76.06-4.56.41a37.12,37.12,0,0,0-4.85.94,41.39,41.39,0,0,0-5.7,2,40.66,40.66,0,0,0-5.28,2.94,37.08,37.08,0,0,0-3.91,3c-2.11,1.88-3.23,3.23-3.32,3.16a4.94,4.94,0,0,1,.73-1,21.84,21.84,0,0,1,2.3-2.47,31.56,31.56,0,0,1,3.89-3.17,36.29,36.29,0,0,1,5.34-3,37,37,0,0,1,5.81-2,32.58,32.58,0,0,1,4.94-.83,24.69,24.69,0,0,1,3.38-.1A5.15,5.15,0,0,1,249.43,282Z"/><path class="cls-8" d="M52.91,241.32c0,.23-4.17.07-8.94,1.7a43.82,43.82,0,0,0-5.89,2.6,13.32,13.32,0,0,1-2.44,1.16,11.45,11.45,0,0,1,2.23-1.54,32.21,32.21,0,0,1,5.9-2.8,24,24,0,0,1,6.43-1.22A9.6,9.6,0,0,1,52.91,241.32Z"/><path class="cls-5" d="M213.26,279.41a16.47,16.47,0,0,0-4-1.85c-2.73-.85-7-.84-11.91.74s-10.07,5-16.4,7.59a24,24,0,0,1-10.54,2,28.45,28.45,0,0,1-11-3.38c-3.54-1.77-6.83-3.75-10.17-5.31a30.81,30.81,0,0,0-10.15-2.86,33.12,33.12,0,0,0-17.45,3.15,32,32,0,0,0-9.72,7.14l-1.27,1.43-.84,1.12-.52.68a1.63,1.63,0,0,1-.2.23s0-.1.15-.26l.47-.72.8-1.16c.36-.43.78-.92,1.23-1.47a31.06,31.06,0,0,1,9.71-7.37,32.41,32.41,0,0,1,8-2.76,32.79,32.79,0,0,1,9.7-.57,31.33,31.33,0,0,1,10.34,2.88c3.39,1.57,6.69,3.56,10.19,5.3a27.94,27.94,0,0,0,10.77,3.33,23.39,23.39,0,0,0,10.29-1.94c6.26-2.56,11.45-6.05,16.48-7.48s9.34-1.5,12.11-.56a12.23,12.23,0,0,1,3,1.39l.71.5A1.33,1.33,0,0,1,213.26,279.41Z"/><path class="cls-5" d="M263.88,236.31a10.09,10.09,0,0,0-2.1-.4,10.22,10.22,0,0,0-5.48,1.68c-2.15,1.21-4.23,3.39-7.16,5a9.39,9.39,0,0,1-5.1,1.29,14,14,0,0,1-5.37-1.71c-1.71-.86-3.3-1.83-4.94-2.48a22.37,22.37,0,0,0-4.9-1.37,21.55,21.55,0,0,0-4.61-.25,21.79,21.79,0,0,0-4,.52,23.21,23.21,0,0,0-5.5,2c-1.24.62-1.88,1.06-1.91,1s.14-.14.44-.35a10.65,10.65,0,0,1,1.36-.87,21.14,21.14,0,0,1,5.51-2.18,22.06,22.06,0,0,1,4.07-.61,22.63,22.63,0,0,1,9.77,1.58c1.7.67,3.3,1.64,5,2.49a13.4,13.4,0,0,0,5.13,1.65,8.72,8.72,0,0,0,4.8-1.18c2.85-1.55,5-3.72,7.22-4.92a10,10,0,0,1,5.71-1.54,5.31,5.31,0,0,1,1.58.37A1.75,1.75,0,0,1,263.88,236.31Z"/><path class="cls-5" d="M248.72,184.5a6.65,6.65,0,0,1-1.25.73c-.82.42-2,1-3.54,1.69a32.56,32.56,0,0,1-5.52,1.92,20.45,20.45,0,0,1-7.16.48c-2.54-.26-4.89-.8-7-1.09a20.6,20.6,0,0,0-5.72-.11,12.39,12.39,0,0,0-4.92,1.82s.08-.11.26-.27a6.45,6.45,0,0,1,.87-.63,10.54,10.54,0,0,1,3.72-1.34,19.67,19.67,0,0,1,5.86,0c2.19.27,4.54.79,7,1.05,5,.59,9.42-1,12.45-2.19,1.53-.61,2.76-1.16,3.61-1.52A7.54,7.54,0,0,1,248.72,184.5Z"/><path class="cls-5" d="M82.9,209.58a12.31,12.31,0,0,0,4.41-1.77c.49-.32.92-.64,1.35-1q.84-.94,1.74-1.83l0,0c-1,.7-2.1,1.57-3.33,2.34A11.89,11.89,0,0,1,82.8,209a20.63,20.63,0,0,1-10.38-1.3c-3.56-1.28-6.81-2.93-10-4a26.16,26.16,0,0,0-4.57-1.19,18.25,18.25,0,0,0-4.12-.17,12.47,12.47,0,0,0-5.68,1.71,8.48,8.48,0,0,0-1.3,1,2.64,2.64,0,0,0-.39.41c.05.05.6-.5,1.81-1.17a12.84,12.84,0,0,1,5.58-1.5,18.86,18.86,0,0,1,4,.25,25.75,25.75,0,0,1,4.46,1.22c3.1,1.09,6.33,2.75,9.94,4.05A20.94,20.94,0,0,0,82.9,209.58Z"/><path class="cls-5" d="M163.68,293.18s.14.09.37.32a7.72,7.72,0,0,1,.92,1.07,11.25,11.25,0,0,1,1.91,4.83,11.12,11.12,0,0,1-1.55,7.51c-1.55,2.51-4.19,4.49-5.68,7.38a7,7,0,0,0-.58,4.53,17.26,17.26,0,0,0,1.52,4.17c1.27,2.54,2.45,5,2.4,7.3a5.82,5.82,0,0,1-2.18,4.64,3.55,3.55,0,0,1-1.28.62,2.11,2.11,0,0,1-.5.06,5.59,5.59,0,0,0,1.64-.86,5.74,5.74,0,0,0,1.89-4.46c0-2.15-1.16-4.5-2.48-7.06a17.47,17.47,0,0,1-1.59-4.29,7.62,7.62,0,0,1,.62-4.92,18.21,18.21,0,0,1,2.92-4,30,30,0,0,0,2.83-3.45,10.8,10.8,0,0,0,1.59-7.15,11.43,11.43,0,0,0-1.68-4.75C164.12,293.69,163.63,293.22,163.68,293.18Z"/><path class="cls-5" d="M212.53,344.34s-.16-.11-.44-.38a4.75,4.75,0,0,1-.9-1.4,7.93,7.93,0,0,1,.3-6,12.2,12.2,0,0,1,2.26-3.57c1-1.15,2.17-2.26,3.35-3.46a19.22,19.22,0,0,0,3.24-4.07,13.67,13.67,0,0,0,1.55-5.3c.39-3.84-.3-7.52-.49-10.91a18.79,18.79,0,0,1,1.13-8.93,10.16,10.16,0,0,1,3.83-4.69,7.26,7.26,0,0,1,1.5-.71,2.36,2.36,0,0,1,.56-.13,15.87,15.87,0,0,0-1.93,1,10.24,10.24,0,0,0-3.57,4.66,19,19,0,0,0-1,8.72c.22,3.35.94,7.05.55,11a14.29,14.29,0,0,1-1.64,5.53,19.59,19.59,0,0,1-3.37,4.18c-2.41,2.36-4.68,4.43-5.61,6.8a7.88,7.88,0,0,0-.47,5.76A7.54,7.54,0,0,0,212.53,344.34Z"/><path class="cls-7" d="M153.68,165.4h0A24.23,24.23,0,0,0,179,143.31c.68-7.69,1.21-14.26,1.21-14.26s19.86-.5,22.63-19.93S208,44.56,208,44.56h0A68.2,68.2,0,0,0,139,44.29l-3.17,1.84-5.11,93.74A24.24,24.24,0,0,0,153.68,165.4Z"/><path class="cls-8" d="M183,95.69c0-.21,1.71-.33,4.45-.36.72,0,1.29-.07,1.39-.44a3.85,3.85,0,0,0-.25-2.07c-.46-1.87-.92-3.75-1.41-5.73C185.23,79,184,72.28,184.42,72.18s2.31,6.42,4.23,14.56c.44,2,.87,3.88,1.29,5.75a4.46,4.46,0,0,1,0,3,1.85,1.85,0,0,1-1.35,1,4.49,4.49,0,0,1-1.22,0C184.65,96.16,183,95.9,183,95.69Z"/><path class="cls-9" d="M180.29,128.77s-12.43-.59-24.43-10.5c0,0,4.18,14.79,23.82,15.55Z"/><path class="cls-8" d="M207.8,49.51S195.56,54.62,180.47,46c-9.9-5.64-21.64-8.78-24.36-6.88S152.24,51.51,142,54c0,0-.41,20.06-8.36,18.91S132.39,41,132.39,41l20.05-8.46L174,29.72l19.92,3.94,15.3,5.11Z"/><path class="cls-7" d="M135.57,66.6c-.31-.18-12.86-5.69-14.16,7.68s12.38,11.91,12.44,11.53S135.57,66.6,135.57,66.6Z"/><path class="cls-9" d="M130.27,80.35c-.06,0-.25.14-.66.28a2.39,2.39,0,0,1-1.75-.13c-1.36-.66-2.33-3-2.16-5.43a7.74,7.74,0,0,1,1-3.27,2.7,2.7,0,0,1,1.92-1.62,1.19,1.19,0,0,1,1.31.77c.15.4,0,.65.1.68s.31-.19.26-.75a1.49,1.49,0,0,0-.45-.89,1.78,1.78,0,0,0-1.25-.47,3.27,3.27,0,0,0-2.63,1.84A7.76,7.76,0,0,0,124.77,75c-.18,2.7,1,5.36,2.83,6.1a2.51,2.51,0,0,0,2.16-.14C130.21,80.67,130.31,80.37,130.27,80.35Z"/><path class="cls-8" d="M150.86,41.29c-2.73,2.91-5.5,5.85-8.89,8s-7.52,3.31-11.41,2.41-7.33-4.26-7.49-8.24,3.74-7.88,7.64-7a4.36,4.36,0,0,1-4-5.46,4.37,4.37,0,0,1,6.48-2c-3.38-.63-3.76-6-1.07-8.15s6.65-1.67,9.84-.38,6.13,3.3,9.5,4c5.28,1.13,10.7-1.06,15.37-3.78s9.1-6,14.31-7.47c6.39-1.76,13.29-.47,19.41,2.09,5.07,2.13,9.88,5.21,13.18,9.62s4.93,10.25,3.46,15.56-6.4,9.7-11.91,9.73c0,0-12.37,1.24-22.43-6.23s-31.3-6.49-31.3-6.49Z"/><path class="cls-10" d="M132.24,25.73c0,.05.24.26.77.62a27.8,27.8,0,0,0,2.41,1.47,43.6,43.6,0,0,0,9.63,3.83,46.49,46.49,0,0,0,15.33,1.46c5.85-.39,12-2.27,18.39-3.84s12.71-2.35,18.17-1,9.78,4.57,11.68,8.31a13.23,13.23,0,0,1,1,9.7,20,20,0,0,1-1.54,3.38s.28-.21.7-.7a9.59,9.59,0,0,0,1.37-2.5,13.37,13.37,0,0,0-.63-10.33C207.59,32,203,28.39,197.26,27s-12.38-.69-18.83.89-12.49,3.48-18.16,3.92a47.73,47.73,0,0,1-15-1.13C136.9,28.63,132.38,25.45,132.24,25.73Z"/><path class="cls-10" d="M126.25,46.38c-.15.08.28,1.38,1.72,3a13.63,13.63,0,0,0,15.73,3.4c2-.91,2.94-1.92,2.83-2.06s-1.24.5-3.19,1.12a14.77,14.77,0,0,1-14.65-3.17C127.17,47.35,126.44,46.26,126.25,46.38Z"/><path class="cls-10" d="M130.41,39.78c-.34.16.69,2.59,3.27,4.36s5.21,1.9,5.24,1.52-2.14-1.09-4.42-2.69S130.77,39.56,130.41,39.78Z"/><path class="cls-8" d="M214.36,58.42c.18,0,.56-.62.66-1.82a7.38,7.38,0,0,0-4.81-7.38c-1.14-.4-1.89-.32-1.92-.14-.12.39,2.63,1.15,4.35,3.81S214,58.37,214.36,58.42Z"/><path class="cls-10" d="M221.29,39.26c-.4-.17-1.87,3.37-5.36,6.29s-7.17,3.87-7.07,4.28,4.2.07,8-3.19S221.66,39.3,221.29,39.26Z"/><path class="cls-8" d="M203.4,73.91c-.42.34-2.46-1.63-5.67-2s-5.77.89-6.07.45c-.15-.2.32-.85,1.45-1.46A8.23,8.23,0,0,1,198,70a7.93,7.93,0,0,1,4.45,2.1C203.36,73,203.6,73.76,203.4,73.91Z"/><path class="cls-8" d="M173.93,70c-.42.34-2.47-1.62-5.67-2s-5.77.88-6.07.45c-.15-.2.32-.85,1.44-1.47a8.26,8.26,0,0,1,4.92-.84A8,8,0,0,1,173,68.25C173.89,69.13,174.13,69.88,173.93,70Z"/><path class="cls-8" d="M172.69,61.21c-.63.56-3-1.19-6.28-1.5s-6,.83-6.46.14c-.24-.33.2-1.15,1.39-2a8.42,8.42,0,0,1,5.39-1.2,8.32,8.32,0,0,1,5,2.31C172.74,60,173,60.94,172.69,61.21Z"/><path class="cls-8" d="M203.19,66.53c.14.38-.41,1-1.58,1.52a9.47,9.47,0,0,1-9.32-1.47c-1-.84-1.29-1.61-1-1.93.56-.66,2.94.48,6,.91S202.87,65.73,203.19,66.53Z"/><path class="cls-10" d="M133.2,90.89s0,.31-.3.78a4,4,0,0,1-1.69,1.54,4.22,4.22,0,0,1-3.4.2,4.88,4.88,0,0,1-2.92-3A5.28,5.28,0,0,1,127.82,84a5.62,5.62,0,0,1,2.24-.47,1.77,1.77,0,0,1,.82.13,9.05,9.05,0,0,0-2.87.73,5,5,0,0,0-2.21,2.16,4.82,4.82,0,0,0-.34,3.69A4.48,4.48,0,0,0,128,92.89a3.91,3.91,0,0,0,3-.07A5.35,5.35,0,0,0,133.2,90.89Z"/><path class="cls-5" d="M95.91,282.65a21.38,21.38,0,0,0-2.78-1.6A16.79,16.79,0,0,0,84.59,280a30.25,30.25,0,0,0-5.89,1.23c-2.07.62-4.23,1.51-6.51,2.41a67.55,67.55,0,0,1-7.29,2.55,23.27,23.27,0,0,1-8.29.81,28.64,28.64,0,0,1-8-2.23c-2.48-1-4.78-2.2-7-3.21-4.42-2.05-8.71-3.39-12.4-3.18a13.32,13.32,0,0,0-8,2.91,12.71,12.71,0,0,0-2.12,2.39,4.25,4.25,0,0,1,.39-.74A9.79,9.79,0,0,1,21,281.09a13.41,13.41,0,0,1,8.15-3.16c3.79-.27,8.19,1.06,12.65,3.1,2.25,1,4.55,2.16,7,3.17a28.42,28.42,0,0,0,7.85,2.17,22.44,22.44,0,0,0,8.08-.78A68.26,68.26,0,0,0,72,283.1c2.29-.89,4.46-1.76,6.57-2.38a30.79,30.79,0,0,1,6-1.17,16.52,16.52,0,0,1,8.68,1.29A9.59,9.59,0,0,1,95.91,282.65Z"/><path class="cls-9" d="M188.17,103.39a9.15,9.15,0,0,0-8.58,1.69,8.23,8.23,0,0,0-3.09,5.61,5,5,0,0,0,2.91,5.1c2.15.81,4.75-.37,6.38-2.24a18.91,18.91,0,0,0,3.27-6.62,5.64,5.64,0,0,0,.39-2,1.62,1.62,0,0,0-1-1.52"/><path class="cls-8" d="M185.67,115.92c0,.09-.43.18-1.22.34a19.67,19.67,0,0,1-3.42.42,4.68,4.68,0,0,1-1.21-.16,5.92,5.92,0,0,1-1.24-.47,3.93,3.93,0,0,1-1.16-.93,6.52,6.52,0,0,1-.79-1.26,6.85,6.85,0,0,1-1.1-3,4,4,0,0,1,.07-.91l.18-.8a14.66,14.66,0,0,1,.48-1.61,8,8,0,0,1,1.77-2.92,7.24,7.24,0,0,1,2.7-1.7,10.78,10.78,0,0,1,5.19-.45c2.9.47,4.52,1.18,4.5,1.31s-1.8-.23-4.59-.45a10.57,10.57,0,0,0-4.7.64,6.38,6.38,0,0,0-2.25,1.48A7,7,0,0,0,177.4,108c-.18.49-.32,1-.45,1.48l-.18.75a3.36,3.36,0,0,0-.06.63,6.4,6.4,0,0,0,.9,2.52,3.66,3.66,0,0,0,1.46,1.84,4.79,4.79,0,0,0,2,.65c1.36.09,2.54,0,3.33,0S185.67,115.84,185.67,115.92Z"/><path class="cls-7" d="M168.09,170.33s15.48-17.68,17.89-21.05,11.69-14.25,11.67-16.91c0-2.51-4-1.14-4-1.14S204,120.28,202.76,117a2.38,2.38,0,0,0-3.51-1.3s6.3-6.21,3.41-9.46c-1.49-1.67-5.87,1.89-5.87,1.89s-2-4.07-5.81-.77-20.13,18.26-20.13,18.26,3.14-8.41,3.07-14c0-3.8-4.55-7.26-7.92,3.28-2.18,6.81-19.51,36.8-19.51,36.8Z"/><path class="cls-2" d="M170.93,172,89.69,293.63c-12.43,18.92-34.83,25.84-53.44,15.57C22.64,301.69,12.67,285.92,21,253.45L95.35,201l51.56-54.25Z"/><path class="cls-9" d="M201.88,115.08a2.38,2.38,0,0,0-1.51-.49,3.85,3.85,0,0,0-.49.08,21.35,21.35,0,0,0,2-2.63,8.67,8.67,0,0,0,1.49-4.19,3.49,3.49,0,0,0-.79-2.22,1.61,1.61,0,0,0-1.14-.6,3.44,3.44,0,0,0-1.21.14,12.47,12.47,0,0,0-3.72,2.12,4.28,4.28,0,0,0-1.66-1.58,3.17,3.17,0,0,0-2.66,0,6.81,6.81,0,0,0-2.15,1.48l-1.86,1.73-7.55,7.05-9.23,8.61a58.39,58.39,0,0,0,2.21-8.92,24.16,24.16,0,0,0,.28-2.53,10.18,10.18,0,0,0-.08-2.58,4.38,4.38,0,0,0-1.22-2.31,2.47,2.47,0,0,0-2.57-.55,4.81,4.81,0,0,0-2,1.61c-.22.35-.49.68-.68,1l-.58,1.08c-.69,1.46-1.13,3-1.66,4.46-1.12,2.89-2.5,5.62-3.8,8.29-4.47,8.89-8.79,16.86-12.59,23.79l.33.3c3.85-6.93,8.22-14.91,12.74-23.85,1.31-2.68,2.7-5.4,3.84-8.33.57-1.5,1-3,1.65-4.41l.56-1c.19-.34.43-.65.65-1a4.07,4.07,0,0,1,1.73-1.42,1.84,1.84,0,0,1,2,.43,3.88,3.88,0,0,1,1,2,9.73,9.73,0,0,1,.06,2.42,23.53,23.53,0,0,1-.28,2.48,60.47,60.47,0,0,1-2.54,9.92.29.29,0,0,0,.18.38.31.31,0,0,0,.31-.06L181,116.38l7.55-7,1.85-1.73a6.26,6.26,0,0,1,2-1.37,2.56,2.56,0,0,1,2.18,0,4,4,0,0,1,1.6,1.59.3.3,0,0,0,.41.13l0,0a12.08,12.08,0,0,1,3.74-2.2c.66-.19,1.38-.22,1.74.27a3,3,0,0,1,.66,1.84,8.12,8.12,0,0,1-1.4,3.88A21,21,0,0,1,198.8,115a.3.3,0,0,0,0,.41.29.29,0,0,0,.33,0,2.24,2.24,0,0,1,2.39,0,2.46,2.46,0,0,1,.72,1,2.06,2.06,0,0,1,.05,1.21,15.67,15.67,0,0,1-2.4,4.8,76.86,76.86,0,0,1-6.49,8.15.26.26,0,0,0,.27.42,5.69,5.69,0,0,1,2.77-.32,1.09,1.09,0,0,1,.87.74,1.3,1.3,0,0,1,0,.62l0,.32-.12.32a26.35,26.35,0,0,1-2.77,4.78c-2.07,3-4.18,5.73-6.14,8.31-3.77,5.29-7.45,9.57-10.39,13.18L171,167.37c-.78.95-1.38,1.68-1.81,2.19l-.27.34,0,0,.3-.34,1.87-2.14,7-8.2c3-3.57,6.7-7.85,10.5-13.11,2-2.58,4.1-5.3,6.19-8.3a25.66,25.66,0,0,0,2.84-4.89,2.24,2.24,0,0,0,.2-.75,1.86,1.86,0,0,0,0-.81,1.62,1.62,0,0,0-1.23-1.09,5.13,5.13,0,0,0-2.21.09,73.43,73.43,0,0,0,6-7.55,16.22,16.22,0,0,0,2.49-5,2.63,2.63,0,0,0-.08-1.54A3.1,3.1,0,0,0,201.88,115.08Z"/><path class="cls-9" d="M177.44,129.36c.13.11,4.56-4.56,9.9-10.43s9.57-10.72,9.45-10.84-4.55,4.56-9.9,10.43S177.32,129.24,177.44,129.36Z"/><path class="cls-9" d="M181.63,136.13c.12.11,4.17-4.38,9-10s8.7-10.33,8.58-10.44-4.18,4.39-9,10S181.5,136,181.63,136.13Z"/><path class="cls-9" d="M182.82,144a8.87,8.87,0,0,0,2-1.52,46,46,0,0,0,7.75-9,8.58,8.58,0,0,0,1.19-2.17c-.15-.1-2.22,3-5.23,6.54S182.69,143.9,182.82,144Z"/><path class="cls-8" d="M27,321s.3.14.86.44l2.48,1.31a33.81,33.81,0,0,0,10.38,2.78,34.77,34.77,0,0,0,7.78-.14,39,39,0,0,0,4.39-.77c.75-.17,1.5-.42,2.27-.63a22.6,22.6,0,0,0,2.33-.76,46,46,0,0,0,9.55-4.69,37.78,37.78,0,0,0,9-7.82C83.21,304.26,170.12,173,170.93,172l0,.39-23.69-25.62.4,0c-16.18,13.36-36,41.26-49.63,52.62s-25.74,21.36-36,29.5-18.64,14.48-24.46,18.74c-2.9,2.15-5.19,3.74-6.71,4.84l-1.75,1.24c-.39.27-.6.4-.6.4s.18-.16.57-.45l1.71-1.27c1.51-1.14,3.78-2.75,6.65-4.93,5.78-4.3,14.11-10.69,24.35-18.87S84.15,210.38,97.69,199s33.41-39.31,49.6-52.69l.21-.18.19.21,23.71,25.61.17.18-.15.2C170.61,173.4,83.24,305.6,76.34,311a38,38,0,0,1-9.06,7.86,46.13,46.13,0,0,1-9.64,4.69,22,22,0,0,1-2.35.75c-.78.21-1.54.46-2.3.63a41.44,41.44,0,0,1-4.43.75,35,35,0,0,1-7.83.09,33.18,33.18,0,0,1-10.41-2.91c-1.09-.58-1.91-1.06-2.46-1.37S27,321,27,321Z"/><path class="cls-5" d="M120.77,241.15a6.18,6.18,0,0,1,2.62,2.17c.07-.1.15-.19.22-.28a6.46,6.46,0,0,0-2.66-2.28c-2.3-1.18-5.4-1.29-8.31-2.74a29.29,29.29,0,0,1-8.3-6.57,97.3,97.3,0,0,0-7.52-7.71,19.39,19.39,0,0,0-7.71-4.26,12.58,12.58,0,0,0-5.94-.21,8.17,8.17,0,0,0-1.55.49,2.48,2.48,0,0,0-.5.26c0,.06.73-.27,2.1-.52a12.77,12.77,0,0,1,5.77.4,19.45,19.45,0,0,1,7.47,4.26,106.85,106.85,0,0,1,7.44,7.71,29.18,29.18,0,0,0,8.5,6.66,20.45,20.45,0,0,0,4.51,1.44A19.74,19.74,0,0,1,120.77,241.15Z"/></g></svg>