<svg id="Layer_1" data-name="Layer 1" xmlns="http://www.w3.org/2000/svg" xmlns:xlink="http://www.w3.org/1999/xlink" viewBox="0 0 401.49 220.32"><defs><style>.cls-1{fill:none;}.cls-2{fill:#263238;}.cls-3{fill:#ffbe9d;}.cls-4{fill:#eb996e;}.cls-5{fill:#e0e0e0;}.cls-6{fill:#ff725e;}.cls-7{fill:#455a64;}.cls-8{fill:#fff;}.cls-9{clip-path:url(#clip-path);}.cls-10{fill:#a05544;}.cls-11{fill:#f2f2f2;}.cls-12{fill:#fdfbec;}.cls-13{fill:#d07e5d;}.cls-14{fill:#9b4731;}.cls-15{fill:#e97f5b;}</style><clipPath id="clip-path"><path class="cls-1" d="M252.09,167.35c0,60.62-81.71,52.17-142.33,52.17A109.76,109.76,0,0,1,109.76,0C170.38,0,252.09,106.73,252.09,167.35Z"/></clipPath></defs><path class="cls-2" d="M309.76,92.32c-.34,2.84-1.46,7.14-2.6,9a14,14,0,0,0-1.77,6c-.43,3.78,2.48,7.66,1.08,11.2-.8,2-2.93,3.73-2.46,5.84a3.54,3.54,0,0,0,2.4,2.38,10.2,10.2,0,0,0,3.49.35l11.86-.14c2.12,0,4.54-.18,5.88-1.83a7.2,7.2,0,0,0,1.21-4.08q1.11-12.7,1.31-25.47Z"/><path class="cls-3" d="M275.57,121.25a4.72,4.72,0,0,0-2.78,1,3.87,3.87,0,0,0-1.11,2.53A8.74,8.74,0,0,0,273,131l4.89,8.87-.3,3.1,13.17.68-.07-7.54s.7-2.51,1-3.49a21.75,21.75,0,0,0,.37-3.89s-1.19-7-.77-10.21-1.1-12-1.75-14.57-3-1.07-3.24,1,.76,6.79,0,10.76c0,0-.35,1.31-1.05.4a3.22,3.22,0,0,0-4.35.46,3.47,3.47,0,0,0-.72,1.32c-.14.48-.4,1.1-.74,1a3.25,3.25,0,0,0-2.11,0C276.31,119.37,275.57,121.25,275.57,121.25Z"/><path class="cls-3" d="M280.31,119.6q-.18,4.5-.35,9a5.39,5.39,0,0,0,.34,2.67,2.07,2.07,0,0,0,2.29,1.19,2,2,0,0,0,1.2-1.24,5.6,5.6,0,0,0,.23-1.73q.21-5.75,1-11.44"/><path class="cls-4" d="M285,118.05a1.69,1.69,0,0,1,0,.3c0,.23-.05.51-.09.86-.07.78-.18,1.85-.3,3.14s-.24,2.92-.33,4.68c0,.88-.09,1.81-.12,2.77a4.93,4.93,0,0,1-.24,1.49,2.18,2.18,0,0,1-1,1.2,1.79,1.79,0,0,1-1.58,0,2.53,2.53,0,0,1-1.1-1.07,5.35,5.35,0,0,1-.39-2.78c.08-1.76.16-3.34.22-4.69s.13-2.37.17-3.16c0-.35.05-.63.06-.86a1.4,1.4,0,0,1,0-.3,1,1,0,0,1,0,.3c0,.23,0,.52,0,.86,0,.79-.05,1.86-.08,3.17s-.1,2.93-.15,4.69a5.2,5.2,0,0,0,.36,2.64,2.28,2.28,0,0,0,1,.94,1.48,1.48,0,0,0,1.33,0,1.86,1.86,0,0,0,.89-1,4.76,4.76,0,0,0,.22-1.4c0-1,.08-1.89.14-2.77.1-1.77.24-3.35.39-4.68s.28-2.41.39-3.15c.06-.37.1-.65.14-.85A.92.92,0,0,1,285,118.05Z"/><path class="cls-3" d="M290.23,127.67c-1-.35-2.67-1.45-3.65-1.94a2.46,2.46,0,0,0-2.34-.21,2,2,0,0,0-.8,1.82,4.53,4.53,0,0,0,.92,2.46,4.8,4.8,0,0,0,.66.77,3.62,3.62,0,0,0,.86.53.6.6,0,0,1,.25.19,2.74,2.74,0,0,1,.18.75,4.07,4.07,0,0,0,1,1.75,3.34,3.34,0,0,0,.33.32"/><path class="cls-4" d="M287.6,134.11s-.05,0-.14-.1a2.48,2.48,0,0,1-.37-.34,4.09,4.09,0,0,1-.88-1.61c0-.2-.06-.4-.11-.58a.38.38,0,0,0-.14-.2,1.45,1.45,0,0,0-.28-.14,3.23,3.23,0,0,1-1.16-.91,4.78,4.78,0,0,1-1.22-3.1,2.13,2.13,0,0,1,.72-1.62,1.84,1.84,0,0,1,1.62-.27,5.25,5.25,0,0,1,1.36.57c.39.22.75.44,1.08.64.65.4,1.19.71,1.56.91a5.16,5.16,0,0,1,.59.31,2,2,0,0,1-.64-.21c-.39-.17-.94-.46-1.61-.84l-1.1-.6a5.3,5.3,0,0,0-1.29-.53,1.62,1.62,0,0,0-1.4.24,1.89,1.89,0,0,0-.61,1.41,4.67,4.67,0,0,0,1.14,2.92,2.91,2.91,0,0,0,1.07.86c.09.06.2.09.31.17a.64.64,0,0,1,.21.32c.06.23.06.43.1.6a4.19,4.19,0,0,0,.77,1.59A5.92,5.92,0,0,1,287.6,134.11Z"/><path class="cls-4" d="M289.88,119.65a8,8,0,0,1-4.83,3.56,26.38,26.38,0,0,0,2.59-1.54A27.42,27.42,0,0,0,289.88,119.65Z"/><path class="cls-4" d="M281.43,132.46s0,0,.09.16a2.44,2.44,0,0,1,.17.49,1.49,1.49,0,0,1,0,.84,1.1,1.1,0,0,1-.86.71,3.11,3.11,0,0,1-2.63-1,7.94,7.94,0,0,1-1.7-3,20.74,20.74,0,0,1-.95-3.34,10.88,10.88,0,0,1-.16-2.83,7.86,7.86,0,0,1,.38-1.87,2.17,2.17,0,0,1,.29-.64,11,11,0,0,0-.47,2.53,11.17,11.17,0,0,0,.22,2.77,21.61,21.61,0,0,0,1,3.28,7.79,7.79,0,0,0,1.62,2.94,3,3,0,0,0,2.4,1,1,1,0,0,0,.75-.57,1.37,1.37,0,0,0,0-.77C281.51,132.7,281.41,132.47,281.43,132.46Z"/><path class="cls-4" d="M279.63,121.64c.08,0,.07,1,.2,2.3a19.87,19.87,0,0,1,.23,2.3,6.2,6.2,0,0,1-.52-2.27A6.31,6.31,0,0,1,279.63,121.64Z"/><path class="cls-4" d="M277.83,133s-.19.18-.6.29a2.59,2.59,0,0,1-1.59-.13,3,3,0,0,1-1.29-.95c-.25-.33-.32-.58-.29-.59s.17.19.44.46a3.71,3.71,0,0,0,1.24.82,3.08,3.08,0,0,0,1.46.2C277.58,133,277.81,133,277.83,133Z"/><path class="cls-5" d="M319.69,116.05s-10.53,3.64-13.14,9.69c-.45,1.05-10.9,27.74-10.9,27.74l-17.26,25s4.49,14.81,19.6,14.17c0,0,4.95,0,10.73-9,5.11-7.94,8.24-22.36,8.24-22.36Z"/><polygon class="cls-5" points="278.39 178.52 272.5 142.59 293.73 138.98 301.98 179.02 278.39 178.52"/><path class="cls-2" d="M299.8,171a1.19,1.19,0,0,1-.1-.32c-.06-.24-.13-.55-.23-.92-.19-.81-.44-2-.74-3.41-.59-2.89-1.32-6.9-2.07-11.33s-1.44-8.45-2-11.34L294,140.2c-.07-.38-.13-.69-.17-.93a1.16,1.16,0,0,1,0-.33,1.93,1.93,0,0,1,.1.32c0,.24.13.54.22.92.19.8.45,2,.74,3.41.6,2.89,1.32,6.9,2.07,11.33s1.45,8.44,2,11.34l.65,3.42c.07.38.13.69.17.94A1.51,1.51,0,0,1,299.8,171Z"/><path d="M296.5,154.52a36.06,36.06,0,0,1,6,17.23,2.77,2.77,0,0,1-.19,1.54,1,1,0,0,1-1.33.46,1.43,1.43,0,0,1-.49-1l-3.81-18"/><path class="cls-2" d="M315.34,59.18s-5.12,19.14-5.56,32.69l-.15,4.51s11.3,9.38,20.77,10l7.94-19.52Z"/><path class="cls-2" d="M365.51,70.92c-2.16-9.33-3-20.2-10.75-26.28-5.76-4.52-12.33-5.78-19.64-5.47-3.6.15-7.67,1.81-10.8,3.59-4.31,2.43-6.13,7.37-8.2,11.85-4.16,9-3.63,21.16-.82,24.54L352.85,99c7.5-3.91,12.2-5.46,13.4-15.45A36.9,36.9,0,0,0,365.51,70.92Z"/><path class="cls-3" d="M353.94,52.06l-23.63-7c-7.61-1.11-13.06,8.11-13.85,15.76-.87,8.5-1.6,18.91-.84,25.31C317.15,99,326.88,101,326.88,101s0,.2-.05,4l-.25,6.16a10.69,10.69,0,0,0,2.08,7c3.49,4.51,9.84,5.12,17.33,2.35,4.34-1.61,7.36-4.84,7.69-9.24l4.11-54.49A4.49,4.49,0,0,0,353.94,52.06Z"/><path class="cls-2" d="M320.61,71.77a1.66,1.66,0,0,0,1.52,1.72,1.58,1.58,0,0,0,1.75-1.42,1.64,1.64,0,0,0-1.52-1.71A1.57,1.57,0,0,0,320.61,71.77Z"/><path class="cls-2" d="M318.44,68.55c.19.22,1.47-.65,3.24-.58s3,1,3.22.8-.09-.48-.64-.92a4.52,4.52,0,0,0-2.57-.9,4.34,4.34,0,0,0-2.59.72C318.54,68.07,318.34,68.45,318.44,68.55Z"/><path class="cls-2" d="M337.4,71.77a1.64,1.64,0,0,0,1.51,1.72,1.57,1.57,0,0,0,1.75-1.42,1.63,1.63,0,0,0-1.51-1.71A1.57,1.57,0,0,0,337.4,71.77Z"/><path class="cls-2" d="M335.8,68.76c.19.22,1.47-.65,3.24-.58s3,1,3.22.8-.09-.48-.64-.92a4.52,4.52,0,0,0-2.57-.9,4.34,4.34,0,0,0-2.59.72C335.9,68.28,335.7,68.66,335.8,68.76Z"/><path class="cls-2" d="M328.93,80.2a11.94,11.94,0,0,0-2.85-.63c-.45-.07-.87-.17-.94-.48a2.36,2.36,0,0,1,.36-1.33L327,74.39c2.05-4.82,3.55-8.78,3.35-8.86s-2,3.75-4.05,8.57l-1.41,3.4a2.62,2.62,0,0,0-.31,1.76,1.13,1.13,0,0,0,.72.68,2.93,2.93,0,0,0,.76.14A11.4,11.4,0,0,0,328.93,80.2Z"/><path class="cls-4" d="M326.88,101c-.65-.06,10.19,0,17.31-3.89,0,0-4.59,8.78-17.34,7.08Z"/><path class="cls-4" d="M334.44,84.15a2.87,2.87,0,0,0-2.31-1.38c-1.14-.08-1.76-.64-3.43,1.53a2.33,2.33,0,0,0-.21,1.65c.11.29,0,.15.23.35A6.42,6.42,0,0,0,331.29,88a2.78,2.78,0,0,0,3-1A2.85,2.85,0,0,0,334.44,84.15Z"/><path class="cls-2" d="M333.86,82.44c-.28,0-.37,1.89-2.07,3.17s-3.73,1-3.76,1.25.44.39,1.3.46a4.8,4.8,0,0,0,3.13-.94,4.15,4.15,0,0,0,1.62-2.66C334.19,82.92,334,82.44,333.86,82.44Z"/><path class="cls-2" d="M335.13,62.3c.13.49,1.91.44,3.94.89s3.65,1.17,4,.77c.14-.2-.1-.67-.73-1.2a7,7,0,0,0-6-1.27C335.5,61.72,335.08,62.06,335.13,62.3Z"/><path class="cls-2" d="M318.59,63.8c.4.35,1.68-.26,3.3-.51s3-.17,3.28-.63c.11-.22-.17-.59-.82-.88a5,5,0,0,0-2.78-.26,4.9,4.9,0,0,0-2.52,1.18C318.53,63.19,318.41,63.63,318.59,63.8Z"/><path class="cls-2" d="M330.64,43.7a2.3,2.3,0,0,1-.06.28l.05,0C330.63,43.9,330.64,43.8,330.64,43.7Z"/><path class="cls-2" d="M330.08,47a28.61,28.61,0,0,0,2.27,10.24,10.31,10.31,0,0,0,2.34,3.63,4.67,4.67,0,0,0,4,1.29,17.26,17.26,0,0,1-3.48-9.94c1.51,3.64,3.06,7.35,5.62,10.34a13.6,13.6,0,0,0,8.32,4.8c.76,5.71,2.83,11.58,1.32,17.1-.94,3.45-3.24,6.5-3.66,10-.39,3.35,1,6.71.6,10.07l23.76-6.63h0c-.26-24.19-3.79-35.39-9.14-45l-.13-.23a25.5,25.5,0,0,0-12.43-10.32,36.1,36.1,0,0,0-19-.89l-.1.51a1.1,1.1,0,0,0,0,.18L330,42c-2.4-1.26-4-2.68-7.75.62a23,23,0,0,0-5.18,7.22,29.5,29.5,0,0,0-2.88,7.79c-.56,3.51.31,15.32.69,19.07.52-3.29,1-13.13,2.27-15.69,1.17-2.32,1.86-5.2,3.14-7.47C320.33,53.56,324.62,46.33,330.08,47Z"/><path class="cls-2" d="M357.89,137.12a4.24,4.24,0,0,1,0-1,17.44,17.44,0,0,1,.49-2.69,18.84,18.84,0,0,1,11.71-12.9,17.71,17.71,0,0,1,2.63-.74,3.49,3.49,0,0,1,1-.12c0,.08-1.4.29-3.51,1.15a19.58,19.58,0,0,0-11.53,12.7C358.05,135.7,358,137.13,357.89,137.12Z"/><path class="cls-6" d="M352,106.44s-14.29,10.8-21.25,9.58c-5.58-1-4.62-9.46-4.62-9.46l-2.71,5.86-5.84,23.39,2.47,11,13.28-8.2Z"/><path class="cls-5" d="M378.25,219.86c-2.21-16.55-11.14-36.57-11.14-36.57l5.79-14.86,1.64-50.71-16.15-9-3.64-5.21L336.35,123,320,138.89c.42-.39,3.33-19.53,3.33-19.53l2.92-13.12L323.3,111s-18.56,26.74-20.07,42.17,4.25,31.37,4.25,31.37-2.54,24.85-2.88,35.33Z"/><path class="cls-5" d="M320.62,114.89s-6.89,2.93-9.13,6.45-3.75,18.79-3.75,18.79l10.93-18.41Z"/><path class="cls-2" d="M320.62,114.89a4.69,4.69,0,0,1,0,.56l-.12,1.62c-.12,1.45-.29,3.5-.51,6.08v.07l-.06,0-1.86,1.06.08-.13c.31,4.26.71,9.68,1.16,15.82l-.27-.18,14.7-5.31,4.7-1.69-.14.23c-.23-1.61-.46-3.19-.68-4.74l-.05-.34.32.11,5.6,2-.23.08,10.85-15.43,3.14-4.4c.36-.48.64-.87.85-1.16a4.86,4.86,0,0,1,.31-.39,3.16,3.16,0,0,1-.25.43l-.8,1.19c-.72,1.07-1.75,2.57-3,4.46l-10.73,15.53-.09.12-.14-.05-5.61-2,.28-.23c.23,1.55.46,3.13.7,4.74l0,.17-.16.06-4.7,1.69-14.71,5.29-.25.09,0-.26c-.41-6.15-.77-11.57-1.05-15.83v-.09l.07,0,1.87-1-.06.1c.26-2.57.48-4.63.62-6.07.08-.68.14-1.22.19-1.61A2.11,2.11,0,0,1,320.62,114.89Z"/><path class="cls-2" d="M307.4,206.13a2.06,2.06,0,0,1,0-.39c0-.29,0-.66,0-1.13,0-1,0-2.48-.07-4.31,0-3.75-.09-9.05-.15-15.43v0c-1-3.4-1.84-7.17-2.68-11.21-.42-2-.81-4.1-1.19-6.24a42.29,42.29,0,0,1-.77-6.64,44.81,44.81,0,0,1,3-17.46v0a80.33,80.33,0,0,1,4.6-10.38c1.56-3,3-5.63,4.28-7.77s2.28-3.81,3-4.94l.83-1.29a2.42,2.42,0,0,1,.31-.43,4.6,4.6,0,0,1-.25.46c-.2.33-.46.77-.78,1.33-.69,1.15-1.68,2.84-2.9,5s-2.66,4.77-4.19,7.8a81.78,81.78,0,0,0-4.52,10.35h0v0a44.65,44.65,0,0,0-2.93,17.29,41.54,41.54,0,0,0,.75,6.57q.56,3.21,1.18,6.24c.82,4,1.67,7.81,2.62,11.19v.05c0,6.38,0,11.68,0,15.43,0,1.83,0,3.28,0,4.31,0,.47,0,.84,0,1.13A2.06,2.06,0,0,1,307.4,206.13Z"/><path d="M372.23,172.41c-9-6.44-14.4-17.67-14.55-28.74Z"/><path class="cls-5" d="M368.18,114.83s7.7,1.5,10.73,8.09,20.77,53.36,21.77,56.75c1.42,4.83-.91,11.78-3.64,15.52-3.87,5.28-18.79,24.67-18.79,24.67H350.34L375.72,180l-17.94-37S359.11,117.54,368.18,114.83Z"/><path class="cls-2" d="M387.21,185a30.24,30.24,0,0,0-10.74-5.11,5.6,5.6,0,0,1,1.76.23,19.22,19.22,0,0,1,4,1.4,19,19,0,0,1,3.64,2.26A5.68,5.68,0,0,1,387.21,185Z"/><path class="cls-2" d="M386.18,177.09a42.38,42.38,0,0,0-5,.78,43,43,0,0,0-4.71,1.79,13.6,13.6,0,0,1,9.68-2.57Z"/><path class="cls-2" d="M357.89,137.12a4.24,4.24,0,0,1,0-1,17.44,17.44,0,0,1,.49-2.69,18.84,18.84,0,0,1,11.71-12.9,17.71,17.71,0,0,1,2.63-.74,3.49,3.49,0,0,1,1-.12c0,.08-1.4.29-3.51,1.15a19.58,19.58,0,0,0-11.53,12.7C358.05,135.7,358,137.13,357.89,137.12Z"/><polygon points="343.41 130.26 338.81 130.11 339.77 134.76 319.09 140.01 338.49 133.02 337.81 128.28 343.41 130.26"/><path class="cls-7" d="M354.42,127.44,353.3,127c0-.06,2.52-6.07,5-12.44a12.27,12.27,0,0,0,1-6.26,2.91,2.91,0,0,0-2.95-2.36l-.76-1.1a4.37,4.37,0,0,1,4.91,3.26,13.4,13.4,0,0,1-1.12,6.9C357,121.36,354.44,127.38,354.42,127.44Z"/><path class="cls-7" d="M356.22,141.48l-1.54-.6c1.27-3.26,3-9,2.25-10.67a4.76,4.76,0,0,0-3.32-2.2,5.54,5.54,0,0,0-4.85,1c-1.77,1.49-4.44,6.78-5.32,8.69l-1.51-.69c.14-.3,3.35-7.23,5.76-9.27A7.17,7.17,0,0,1,354,126.4a6.34,6.34,0,0,1,4.47,3.12C359.69,132.25,356.81,140,356.22,141.48Z"/><path class="cls-2" d="M339.53,166.7c-1.91,0-3.79-1-5.59-3.06l.62-.55c2,2.24,4,3.13,6.05,2.65,8.27-1.94,14.57-24.91,14.63-25.14l.8.21c-.26,1-6.49,23.68-15.24,25.74A5.51,5.51,0,0,1,339.53,166.7Z"/><path class="cls-2" d="M335.53,164.6h0a1,1,0,0,1-1.29.08l-1.79-1.33a1.17,1.17,0,0,1-.34-1.65h0a1.19,1.19,0,0,1,1.83-.18l1.61,1.68A1,1,0,0,1,335.53,164.6Z"/><path class="cls-2" d="M343,167.45c-2.55,0-4.45-.84-5.64-2.52-5.08-7.13,4.5-26.92,4.91-27.76l.75.37c-.1.2-9.78,20.18-5,26.91,1.25,1.75,3.44,2.45,6.53,2.07l.1.82A14,14,0,0,1,343,167.45Z"/><path class="cls-2" d="M342.89,167h0a1,1,0,0,0,.91.92l2.23.19a1.19,1.19,0,0,0,1.34-1h0a1.18,1.18,0,0,0-1.25-1.34l-2.32.19A1,1,0,0,0,342.89,167Z"/><path class="cls-2" d="M309.52,147.58a6.5,6.5,0,1,1-6.5-6.49A6.5,6.5,0,0,1,309.52,147.58Z"/><path class="cls-2" d="M309.52,147.58a6.5,6.5,0,1,1-6.5-6.49A6.5,6.5,0,0,1,309.52,147.58Z"/><path class="cls-5" d="M307.82,147.58a4.8,4.8,0,1,1-4.8-4.8A4.8,4.8,0,0,1,307.82,147.58Z"/><path class="cls-7" d="M305.69,141.72l-1.08-.55c.54-1.06,13.38-26,14.15-27.14.13-.2.3-.48.48-.79a19.54,19.54,0,0,1,1.28-1.93c1.29-1.59,2.84-3.07,4.69-3.41l-1.08,1.74c-1,.39-1.51,1-2.66,2.44a17.37,17.37,0,0,0-1.19,1.79c-.2.33-.37.63-.52.84C319.16,115.6,309.4,134.51,305.69,141.72Z"/><path class="cls-2" d="M316,219.67a4.25,4.25,0,0,1-.08-.83c0-.6-.07-1.4-.13-2.4-.08-2.13-.21-5.13-.36-8.81-.26-7.45-.66-17.72-1-29.09-.13-5.68-.07-11.11.29-16a87.29,87.29,0,0,1,1.83-13,66.18,66.18,0,0,1,2.53-8.46c.38-1,.71-1.71.93-2.21a5.46,5.46,0,0,1,.36-.76,4.27,4.27,0,0,1-.26.8l-.84,2.24a74.49,74.49,0,0,0-2.36,8.47,90.77,90.77,0,0,0-1.71,12.93c-.34,4.9-.38,10.31-.25,16,.31,11.34.59,21.6.8,29.09.08,3.68.15,6.68.2,8.82,0,1,0,1.8,0,2.39A7.75,7.75,0,0,1,316,219.67Z"/><path class="cls-2" d="M350.34,219.86a5.87,5.87,0,0,1,.42-.75L352,217l4.81-7.69,16-25.28,2.65-4.16,0,.25c-4.64-9.44-8.75-17.81-11.74-23.87l-3.44-7.13-.91-1.93a3.65,3.65,0,0,1-.28-.69,4.61,4.61,0,0,1,.37.64l1,1.9,3.58,7.05c3,6,7.2,14.39,11.9,23.8l.06.13-.08.13c-.84,1.33-1.74,2.73-2.64,4.16-6.29,9.82-12,18.71-16.14,25.2l-5,7.6-1.36,2.06A4.93,4.93,0,0,1,350.34,219.86Z"/><path class="cls-2" d="M360.18,202.94s-.13.12-.4.3l-1.18.77c-.53.31-1.21.64-2,1.05s-1.7.78-2.75,1.1a32.59,32.59,0,0,1-17,1.2,23,23,0,0,1-7.56-2.88l.37-.18-1.22,11.52c-.17,1.36-.3,2.47-.4,3.31a6.4,6.4,0,0,1-.2,1.19,6.82,6.82,0,0,1,0-1.2c.06-.85.15-2,.25-3.33.27-2.92.63-6.91,1.05-11.54l0-.39.34.2a22.64,22.64,0,0,0,7.41,2.78,33.42,33.42,0,0,0,16.74-1A37.51,37.51,0,0,0,360.18,202.94Z"/><path class="cls-2" d="M293.81,138.94a1.59,1.59,0,0,1-.38.1l-1.13.23-4.31.79-15.46,2.74.18-.25C273.94,150,275.4,159,277,168.67L278.64,179v0a24.54,24.54,0,0,0,9.28,11.25,15.68,15.68,0,0,0,5.89,2.17l1.44.18a9.23,9.23,0,0,0,1.39,0l1.34,0a8.72,8.72,0,0,0,1.22-.31,14,14,0,0,0,6.28-4.46c1.15-1.43,1.61-2.34,1.66-2.31a13,13,0,0,1-1.52,2.42,13.83,13.83,0,0,1-6.32,4.66,8.27,8.27,0,0,1-1.28.34l-1.37,0a11.19,11.19,0,0,1-1.42,0l-1.48-.17a15.93,15.93,0,0,1-6.06-2.18,24.81,24.81,0,0,1-9.52-11.45v-.05c-.53-3.3-1.1-6.76-1.67-10.31l-4.19-26.13,0-.21.21,0L288,139.82l4.32-.68,1.14-.17A2,2,0,0,1,293.81,138.94Z"/><path class="cls-2" d="M378.25,219.86a1.31,1.31,0,0,1,.13-.21l.42-.59,1.66-2.27,6.25-8.41c2.69-3.58,5.9-7.88,9.53-12.72l1.39-1.85c.46-.62.87-1.28,1.28-1.95a16.74,16.74,0,0,0,1.73-4.5,16.35,16.35,0,0,0-1.05-10.06v0h0c-1.82-4.89-3.76-10.11-5.75-15.49-3.24-8.63-6.39-16.82-9.37-24.23-1.47-3.7-2.94-7.2-4.35-10.45-.75-1.61-1.42-3.19-2.2-4.63a8.69,8.69,0,0,0-2.8-3.65,76.8,76.8,0,0,0-6.82-4.41c-2.06-1.22-3.86-2.24-5.33-3.07l-3.39-1.89-.89-.49a2.57,2.57,0,0,1-.29-.19,1.51,1.51,0,0,1,.32.14l.91.45c.79.4,1.95,1,3.44,1.81s3.3,1.79,5.38,3a77.59,77.59,0,0,1,6.89,4.38,9.18,9.18,0,0,1,2.94,3.75c.79,1.46,1.47,3,2.23,4.64,1.43,3.25,2.92,6.75,4.41,10.45,3,7.41,6.16,15.6,9.4,24.22,2,5.38,4,10.6,5.74,15.51v0a16.85,16.85,0,0,1,1.07,10.39,17.28,17.28,0,0,1-1.8,4.63c-.43.68-.86,1.36-1.32,2l-1.4,1.83L387,208.57l-6.37,8.33-1.73,2.21c-.19.24-.34.42-.45.57S378.26,219.87,378.25,219.86Z"/><path class="cls-2" d="M370.26,89.35l-23.11,14.13c.85,3.94-1.65,7-.91,9.34.43,1.33,1.26,2.57,1.32,4,.09,1.92-1.27,3.56-2.54,5,3.77,1.74,8.13,0,12.2-.76,5.46-1.07,11.53-.63,16-3.89Q371.38,103.28,370.26,89.35Z"/><path class="cls-6" d="M271.59,220.12l-10.21-42-7.15-65.19-15.38-3c-13.08-1-29-.2-30.8.36L195,114.58c-6,.94-16.8,9.8-17.76,17.79-.44,3.64-2.83,42-3,46.14s-.59,9.87,7,16.16c0,0,8.16,5.28,14.56,4.52l-5.3,21.13Z"/><path d="M266.54,195.1c-4.67,3.7-10.55,6.16-16.5,5.75-2.73-.19-5.41-1-8.15-1-4.31-.12-8.46,1.5-12.61,2.66-12.56,3.5-22.6,6.26-34.72,1.47l1.28-4.74c6.67-.85,7.46-1.2,7.46-1.2,30.18-15.94,29.85-7.11,48.63-6.63,4.94.12,10.08.48,14.39,2.92"/><path class="cls-2" d="M184.72,188a2.78,2.78,0,0,1,.14-.79,6.67,6.67,0,0,1,.25-.9c.12-.35.23-.75.42-1.18a19.05,19.05,0,0,1,1.45-2.9,21.44,21.44,0,0,1,2.41-3.17,22,22,0,0,1,3-2.62,19.42,19.42,0,0,1,2.8-1.65c.41-.21.81-.35,1.15-.49a8.06,8.06,0,0,1,.89-.31,3.9,3.9,0,0,1,.77-.2c0,.07-1.06.41-2.69,1.25a20.83,20.83,0,0,0-2.71,1.68,23.69,23.69,0,0,0-2.93,2.6,22.8,22.8,0,0,0-2.39,3.09,19.83,19.83,0,0,0-1.5,2.83C185.05,187,184.79,188.06,184.72,188Z"/><path class="cls-2" d="M181.28,178.81s.15-.19.49-.49a15.11,15.11,0,0,1,1.49-1.15,20.32,20.32,0,0,1,5.62-2.69,20.84,20.84,0,0,1,6.17-.87,15.17,15.17,0,0,1,1.88.14,2.12,2.12,0,0,1,.68.14c0,.07-1,0-2.56,0a22.92,22.92,0,0,0-11.64,3.51C182.08,178.23,181.32,178.86,181.28,178.81Z"/><path class="cls-2" d="M176.61,145.27v.19c0,.15,0,.34,0,.57,0,.52-.08,1.25-.13,2.17-.13,1.91-.31,4.63-.54,8s-.53,7.38-.85,11.82c-.16,2.22-.33,4.56-.51,7-.09,1.2-.18,2.43-.26,3.68a22.73,22.73,0,0,0,.14,3.77,13.71,13.71,0,0,0,2.44,6.53l0,0h0a21,21,0,0,0,8.52,8,21.6,21.6,0,0,0,9.15,2.2,28.16,28.16,0,0,0,6.27-.52c.72-.15,1.28-.29,1.65-.38l.43-.11c.09,0,.14,0,.14,0l-.13.06-.42.14c-.37.12-.92.28-1.65.44a26.36,26.36,0,0,1-6.3.65,21.69,21.69,0,0,1-9.28-2.15,21.26,21.26,0,0,1-8.7-8.11l0,0a13.88,13.88,0,0,1-2.54-6.73,22.55,22.55,0,0,1-.15-3.84c.1-1.25.19-2.48.28-3.7.18-2.42.36-4.75.53-7,.35-4.44.67-8.44.93-11.81s.5-6.05.66-8c.09-.92.15-1.64.2-2.17,0-.23.05-.41.06-.56S176.6,145.27,176.61,145.27Z"/><path class="cls-8" d="M197.23,146.81a3.82,3.82,0,0,1,.52-.17c.34-.09.85-.21,1.52-.34a34.75,34.75,0,0,1,5.69-.51c2.41,0,5.28,0,8.46.06l10.36.17,18.82.4,5.7.16,1.55.06a3.18,3.18,0,0,1,.54.05,3.68,3.68,0,0,1-.54,0H248.3l-5.7,0-18.83-.29-10.35-.2c-3.19,0-6.06-.16-8.46-.14a40.2,40.2,0,0,0-5.67.39c-.66.1-1.18.2-1.52.27A3.55,3.55,0,0,1,197.23,146.81Z"/><path class="cls-8" d="M200.22,153.4c0-.1,10.94-.1,24.43,0s24.42.27,24.42.38-10.93.11-24.43,0S200.22,153.51,200.22,153.4Z"/><path class="cls-8" d="M177.28,141.81a2.9,2.9,0,0,1,.76-.27,21.71,21.71,0,0,1,2.12-.54,31.74,31.74,0,0,1,7.2-.61,31.19,31.19,0,0,1,7.16,1c.89.24,1.61.47,2.09.65a3.53,3.53,0,0,1,.74.32c0,.06-1.11-.3-2.9-.71a36.32,36.32,0,0,0-14.24-.41C178.4,141.58,177.3,141.87,177.28,141.81Z"/><path class="cls-8" d="M176.38,147.27a3.9,3.9,0,0,1,.76-.26c.49-.14,1.22-.31,2.13-.48a31.6,31.6,0,0,1,14.34.67c.89.25,1.6.49,2.08.68a3.51,3.51,0,0,1,.73.33c0,.06-1.1-.31-2.88-.75a36.25,36.25,0,0,0-14.22-.67C177.5,147.06,176.39,147.34,176.38,147.27Z"/><path d="M231.21,120.87c4.66,7.87,6.09,17.18,7.43,26.22,1.59,10.7.44,22.1,1,32.89-2.82-.5-4.82-3.19-5.52-6s-.39-5.69-.3-8.56C234.3,150.52,228.59,135.58,231.21,120.87Z"/><path class="cls-6" d="M250.39,112.85c7.79,1.46,17.95,1.49,20.89,16.36,2.8,14.18-.83,39.67-5.77,48s-11,12.34-20.32,7.59S237,165.46,237,165.46l18.26-13.67-2.68-3.42Z"/><path class="cls-2" d="M252.06,145.12a54.76,54.76,0,0,1,.35-6.55,59.65,59.65,0,0,1,.74-6.51,54.76,54.76,0,0,1-.35,6.55A59.65,59.65,0,0,1,252.06,145.12Z"/><path class="cls-8" d="M252.09,142.78a3.09,3.09,0,0,1,.81-.12c.52,0,1.28-.1,2.21-.13a60.53,60.53,0,0,1,14.55,1.3c.91.19,1.65.37,2.15.52a3.09,3.09,0,0,1,.78.26,3.85,3.85,0,0,1-.81-.12l-2.17-.4c-1.84-.33-4.39-.72-7.22-1s-5.41-.32-7.27-.32h-2.21A3,3,0,0,1,252.09,142.78Z"/><path class="cls-8" d="M253.42,148.59a2.4,2.4,0,0,1,.72-.06c.47,0,1.14,0,2,0,1.66,0,3.94.15,6.46.38s4.78.56,6.41.84c.82.14,1.47.26,1.93.36a2.41,2.41,0,0,1,.69.19,24.08,24.08,0,0,1-2.66-.28c-1.64-.21-3.9-.49-6.41-.73s-4.78-.39-6.43-.49A24.89,24.89,0,0,1,253.42,148.59Z"/><path class="cls-2" d="M243,55.08a16.33,16.33,0,0,0-8.11-9.68A20.63,20.63,0,0,0,221,44.12a43.86,43.86,0,0,0-13,5.8A21.43,21.43,0,0,0,201.92,55c-2.92,3.9-5.73,10.24-5.89,15.1-.12,3.93,1.66,13.72,3.42,17.23a8.87,8.87,0,0,0,3.87,3.3,33.33,33.33,0,0,0,7.38,9.2c.83-2.66,1.67-5.32,2.5-8Z"/><path class="cls-2" d="M240.61,50.3l-7.77-1.16c4.51,10,6.32,33,9,43.54,2.73-4.22,9-17,8.5-22S249.78,49.19,240.61,50.3Z"/><path class="cls-3" d="M204.41,68.12A13.22,13.22,0,0,1,214,55.67l17.69-5.06c7.68-1,13.09,8.28,13.82,16,.8,8.57,1.4,17.62.58,24.06-1.65,13-11.47,14.89-11.47,14.89s.17,6.13.27,9.89l-3.68,5.43-22.52-8.47-4.32-44.12C204.36,68.06,204.4,68.41,204.41,68.12Z"/><path class="cls-2" d="M240.57,76.06A1.66,1.66,0,0,1,239,77.78a1.58,1.58,0,0,1-1.75-1.44,1.66,1.66,0,0,1,1.54-1.72A1.59,1.59,0,0,1,240.57,76.06Z"/><path class="cls-2" d="M243.71,71.7c-.19.22-1.47-.66-3.25-.6s-3.06,1-3.25.77.09-.49.65-.92a4.55,4.55,0,0,1,2.6-.89,4.44,4.44,0,0,1,2.6.76C243.62,71.22,243.81,71.6,243.71,71.7Z"/><path class="cls-2" d="M224.34,76.45a1.65,1.65,0,0,1-1.54,1.71,1.58,1.58,0,0,1-1.75-1.44A1.64,1.64,0,0,1,222.59,75,1.58,1.58,0,0,1,224.34,76.45Z"/><path class="cls-2" d="M226.83,72.18c-.2.23-1.48-.66-3.26-.6s-3,1-3.25.78.09-.49.65-.92a4.55,4.55,0,0,1,2.6-.89,4.35,4.35,0,0,1,2.6.75C226.73,71.7,226.92,72.09,226.83,72.18Z"/><path class="cls-2" d="M232.79,86a11.9,11.9,0,0,1,2.87-.61c.45-.06.88-.16.94-.47a2.24,2.24,0,0,0-.34-1.34l-1.45-3.42c-2-4.86-3.49-8.87-3.29-9s2,3.8,4,8.67l1.4,3.44a2.66,2.66,0,0,1,.29,1.77,1.18,1.18,0,0,1-.73.69,3.44,3.44,0,0,1-.77.13A11.56,11.56,0,0,1,232.79,86Z"/><path class="cls-4" d="M217.4,101.45s4.44,8.73,17.3,7.13l-.08-3A32.45,32.45,0,0,1,217.4,101.45Z"/><path class="cls-2" d="M226.09,65.78c-.16.48-2,.31-4,.63s-3.75.93-4,.51c-.13-.21.15-.67.81-1.16a7.11,7.11,0,0,1,6.14-.87C225.76,65.18,226.15,65.54,226.09,65.78Z"/><path class="cls-2" d="M243,66.28c-.3.41-1.54,0-3,.06s-2.71.35-3-.06c-.14-.2,0-.61.58-1a4.17,4.17,0,0,1,2.43-.74,4.12,4.12,0,0,1,2.42.74C242.93,65.67,243.11,66.08,243,66.28Z"/><path class="cls-2" d="M241.67,54.93a5.65,5.65,0,0,0-5.1-3.06,11,11,0,0,0-5.89,1.9c-7.55,4.65-11.19,15.48-18.64,20.28-1.83,1.19-4.29.22-5.83,1.76s-2.51,4-1.57,5.93a18.2,18.2,0,0,1-2.76-4.37,6.08,6.08,0,0,1,.07-5c.62-1.16,1.76-2.06,2-3.34.25-1.13-.23-2.29-.21-3.44a7.4,7.4,0,0,1,1.08-3.32,33.4,33.4,0,0,1,11.95-13.31A21.81,21.81,0,0,1,228,45.68a16.71,16.71,0,0,1,10.88,4c1.74,1.54,3.57,3.12,2.75,5.29"/><path class="cls-3" d="M206.44,77.4c-.15-.36-6.94-2.6-6.82,4.55.11,6.94,7.07,5.38,7.08,5.18S206.44,77.4,206.44,77.4Z"/><path class="cls-4" d="M204.51,84.54s-.12.09-.32.18a1.19,1.19,0,0,1-.91,0,3,3,0,0,1-1.43-2.66,4.09,4.09,0,0,1,.3-1.74,1.42,1.42,0,0,1,.89-.94.6.6,0,0,1,.72.31c.1.2.06.34.1.35s.14-.12.08-.41a.76.76,0,0,0-.28-.43.93.93,0,0,0-.67-.16,1.69,1.69,0,0,0-1.24,1.1,4.06,4.06,0,0,0-.39,1.94c.08,1.4.82,2.7,1.83,3a1.28,1.28,0,0,0,1.1-.21C204.5,84.71,204.53,84.55,204.51,84.54Z"/><path class="cls-7" d="M203.58,73.92l.41-.25c.26-.18.66-.41,1.14-.77a23.64,23.64,0,0,0,3.65-3.52,67.09,67.09,0,0,0,4.41-6.08,54.63,54.63,0,0,1,5.53-7.3,21.74,21.74,0,0,1,3.61-3,18.12,18.12,0,0,1,3.94-1.92,19.6,19.6,0,0,1,7.33-1.11,19,19,0,0,1,5,.82c.57.16,1,.34,1.3.44a2.24,2.24,0,0,0,.46.15l-.44-.21a13.37,13.37,0,0,0-1.28-.5,18.22,18.22,0,0,0-5-.93,19.89,19.89,0,0,0-7.44,1.06,18.46,18.46,0,0,0-4,1.94,22.39,22.39,0,0,0-3.67,3.07A52.82,52.82,0,0,0,213,63.13a73.43,73.43,0,0,1-4.34,6.11,26.73,26.73,0,0,1-3.55,3.56c-.47.37-.86.62-1.11.82A1.83,1.83,0,0,0,203.58,73.92Z"/><path class="cls-8" d="M203.76,85.79a1.36,1.36,0,1,0,.32.09"/><path class="cls-2" d="M204.08,85.88a1.87,1.87,0,0,1,.65.92,1.16,1.16,0,0,1-.24,1.09,1.21,1.21,0,0,1-2.15-.62,1.17,1.17,0,0,1,.38-1,1.83,1.83,0,0,1,1-.43s-.11-.07-.33-.07a1.42,1.42,0,0,0-.86.33,1.38,1.38,0,0,0-.52,1.27,1.49,1.49,0,0,0,2.67.76,1.4,1.4,0,0,0,.23-1.35,1.38,1.38,0,0,0-.55-.73C204.21,85.88,204.09,85.87,204.08,85.88Z"/><path class="cls-2" d="M205.38,75.83c-.06,1.9-.09,3.9.84,5.56s3.16,2.74,4.78,1.75c1.33-.8,1.68-2.54,1.86-4.07.54-4.44.71-8.92,1.28-13.35Z"/><path class="cls-7" d="M239.87,51.68s-.62-.1-1.73-.1a11.75,11.75,0,0,0-4.57,1,14.92,14.92,0,0,0-2.84,1.56,32.19,32.19,0,0,0-2.9,2.35,35.73,35.73,0,0,0-5.63,6.43c-.85,1.27-1.6,2.56-2.41,3.76a17,17,0,0,1-2.69,3.21A31,31,0,0,1,211.35,74c-1.75,1-3.22,1.69-4.23,2.18-.48.22-.87.39-1.17.54a3.19,3.19,0,0,1-.42.16,1.73,1.73,0,0,1,.38-.23l1.14-.61c1-.52,2.44-1.26,4.16-2.28a31.49,31.49,0,0,0,5.64-4.11,17.59,17.59,0,0,0,2.63-3.16c.79-1.19,1.54-2.49,2.39-3.76a34.12,34.12,0,0,1,5.72-6.48,30.25,30.25,0,0,1,3-2.36,15.61,15.61,0,0,1,2.91-1.55,11.58,11.58,0,0,1,4.68-.87,9,9,0,0,1,1.29.15A2.41,2.41,0,0,1,239.87,51.68Z"/><path class="cls-7" d="M205.06,71.55a2.8,2.8,0,0,1-.6.43l-1.73,1.08-.58.36a2,2,0,0,1-.75.27.68.68,0,0,1-.47-.1.58.58,0,0,1-.28-.45,1.58,1.58,0,0,1,.31-.88l1.94-3.33.29.25a7.22,7.22,0,0,1-4.68,1.54,2,2,0,0,1-.63-.09.84.84,0,0,1-.55-.45.78.78,0,0,1,.09-.71,2.94,2.94,0,0,1,.39-.45,14.59,14.59,0,0,0,2.27-3,25.7,25.7,0,0,0,1.42-3.24,3.86,3.86,0,0,1-.2.94,13.38,13.38,0,0,1-1,2.43,13.73,13.73,0,0,1-2.27,3.16c-.25.26-.5.55-.39.76s.49.31.85.31a7,7,0,0,0,2.34-.35A7,7,0,0,0,203,68.88l.81-.63-.53.88-2,3.3a1.26,1.26,0,0,0-.27.68c0,.2.18.31.41.29a3.88,3.88,0,0,0,1.23-.55l1.78-1A3.34,3.34,0,0,1,205.06,71.55Z"/><path class="cls-4" d="M226.12,89.46a2.32,2.32,0,0,1,2.34-1.83,2.45,2.45,0,0,1,1.91,1.28,3,3,0,0,1,.17,2.31l0,.17a2.64,2.64,0,0,1-3,.72A2.46,2.46,0,0,1,226.12,89.46Z"/><path class="cls-2" d="M232.1,89.83c0,.28-1.65.58-3.7.65s-3.72-.09-3.73-.38,1.65-.58,3.7-.66S232.09,89.54,232.1,89.83Z"/><path class="cls-4" d="M240.69,90.12s.58,0,1.09.73a10.46,10.46,0,0,1,1.2,2.9,16.12,16.12,0,0,1,.89,4.32c-.1,0-.55-1.89-1.26-4.2A13.66,13.66,0,0,0,241.56,91C241.16,90.34,240.66,90.18,240.69,90.12Z"/><path class="cls-3" d="M255.42,152.77s-13-25.4-14.84-35.74l-9.9,1.67,6.15,47Z"/><path class="cls-3" d="M240.53,117.29l.49-2.8,4.5-11.87a3.47,3.47,0,0,0,.13-2.09l-1.79-7.24a4.35,4.35,0,0,0-3.33-3.22c-2.5-.53-6-1.08-6.73-.25C232.58,91.15,233,92,233,92s-3.22.78-3.22,2.45c0,0-2.56,1.33-2.34,2.33s1.12,4.22,2.12,4a1.82,1.82,0,0,0,1.28-.78l.6,2.11-.6,3.45s-2.17,7.33-1.73,9.33a33.61,33.61,0,0,0,1.73,4.9"/><path class="cls-4" d="M230.86,119.83a2.37,2.37,0,0,1-.12-.23l-.32-.71c-.27-.62-.66-1.55-1.06-2.77A5.88,5.88,0,0,1,229,114a18.45,18.45,0,0,1,.31-2.51c.33-1.78.82-3.77,1.44-5.94h0c.19-1.09.39-2.24.59-3.44v.07l-.61-2.11.31,0a1.89,1.89,0,0,1-1,.75,1.7,1.7,0,0,1-.65.13,1.09,1.09,0,0,1-.58-.37,6.89,6.89,0,0,1-1.08-2.21c-.13-.39-.24-.79-.35-1.2l-.07-.3a.85.85,0,0,1,0-.39,1.35,1.35,0,0,1,.32-.63,7.34,7.34,0,0,1,2.1-1.58l-.1.17a2.29,2.29,0,0,1,1.29-1.79,8.27,8.27,0,0,1,2.08-.85l-.13.28a1.76,1.76,0,0,1,.07-1.32,3.8,3.8,0,0,1,.71-1.09,2.22,2.22,0,0,1,1.46-.5,11.67,11.67,0,0,1,1.45,0c1,.08,1.87.23,2.78.39l1.36.28a4.51,4.51,0,0,1,3.1,2.58,7.66,7.66,0,0,1,.38,1.27l.3,1.23c.2.82.4,1.62.59,2.41s.38,1.56.57,2.31c.08.38.19.74.26,1.14a3.76,3.76,0,0,1,0,1.16,5.58,5.58,0,0,1-.33,1.07l-.39,1c-.25.66-.49,1.29-.73,1.9l-1.31,3.42c-.82,2.09-1.49,3.82-2,5.13v0c-.16.88-.3,1.57-.39,2.07l-.12.54c0,.12,0,.18-.05.18a.69.69,0,0,1,0-.19c0-.14.05-.32.08-.54l.33-2.08h0c.49-1.31,1.13-3.06,1.91-5.16l1.28-3.43.71-1.9c.13-.33.25-.66.38-1a5.34,5.34,0,0,0,.31-1,3.2,3.2,0,0,0,0-1.07c-.05-.35-.17-.73-.26-1.1-.18-.75-.38-1.52-.57-2.31s-.4-1.58-.6-2.4c-.1-.41-.21-.82-.31-1.24a6,6,0,0,0-.37-1.2,4.17,4.17,0,0,0-1.65-1.88,7.37,7.37,0,0,0-2.54-.75,27.37,27.37,0,0,0-2.74-.39,10.77,10.77,0,0,0-1.39,0,1.82,1.82,0,0,0-1.2.38,3.44,3.44,0,0,0-.65,1,1.5,1.5,0,0,0-.08,1l.09.21-.21.06a7.41,7.41,0,0,0-2,.8A1.92,1.92,0,0,0,230,94.49v.11l-.1.05a7.23,7.23,0,0,0-2,1.48,1,1,0,0,0-.25.47,1.39,1.39,0,0,0,.08.53c.1.4.21.79.34,1.18a6.47,6.47,0,0,0,1,2.08.67.67,0,0,0,.37.26,1.29,1.29,0,0,0,.48-.11,1.62,1.62,0,0,0,.8-.58l.21-.33.11.37c.2.73.41,1.45.59,2.11v.07c-.22,1.2-.42,2.36-.62,3.45h0c-.63,2.16-1.14,4.14-1.49,5.9a20.35,20.35,0,0,0-.34,2.48,5.76,5.76,0,0,0,.35,2c.37,1.22.73,2.15,1,2.79l.28.72A1,1,0,0,1,230.86,119.83Z"/><path class="cls-4" d="M229.66,94.49a3.16,3.16,0,0,1,1.27-.39,3.1,3.1,0,0,1,1.49.08,2.52,2.52,0,0,1,1.36,1.22,24.36,24.36,0,0,1,1.8,4.13,29.25,29.25,0,0,1-2.13-3.94,2.3,2.3,0,0,0-1.15-1.08,3.37,3.37,0,0,0-1.34-.15A8.65,8.65,0,0,1,229.66,94.49Z"/><path class="cls-4" d="M230.09,97.58c.11,0,.3.65.57,1.47a5,5,0,0,1,.41,1.52c-.09.05-.5-.56-.77-1.41A2.7,2.7,0,0,1,230.09,97.58Z"/><path class="cls-4" d="M228.87,97.88c.1,0,.32.28.71.49s.78.26.79.36-.46.27-1,0S228.76,97.91,228.87,97.88Z"/><path class="cls-4" d="M239.91,99.63a27.11,27.11,0,0,0-1.69-5.77,2.63,2.63,0,0,0-1.41-1.62,4.15,4.15,0,0,0-1.84-.08,3.6,3.6,0,0,1-1.79,0s.67,0,1.75-.28a4,4,0,0,1,2,0,2.23,2.23,0,0,1,1,.7,5,5,0,0,1,.64,1.1,15.56,15.56,0,0,1,1.24,4.14A5.71,5.71,0,0,1,239.91,99.63Z"/><path class="cls-4" d="M240.07,105.65c0-.1.79-.49,1.36-1.41a8.46,8.46,0,0,0,.69-1.83s.12.22.1.61a2.89,2.89,0,0,1-.47,1.42,3.08,3.08,0,0,1-1.08,1C240.33,105.66,240.09,105.69,240.07,105.65Z"/><path class="cls-4" d="M234.79,105.45c0-.11.74-.25,1.34-.91s.7-1.4.81-1.39.1.2.05.52a2.19,2.19,0,0,1-.58,1.13,2.27,2.27,0,0,1-1.09.66C235,105.53,234.8,105.49,234.79,105.45Z"/><path class="cls-2" d="M257.11,185.89s-.05,0-.16.07l-.49.15a15.55,15.55,0,0,1-1.91.43,14.27,14.27,0,0,1-7.22-.59,16.73,16.73,0,0,1-8.28-7,12.83,12.83,0,0,1-1.37-2.92,28.45,28.45,0,0,1-.72-3.28,50.58,50.58,0,0,1-.53-7.08v-.1l.09-.06,4.64-3.17,15.09-10.29.11-.08.1.1a43.51,43.51,0,0,1,5.92,6.65,21.22,21.22,0,0,1,1.83,3.26,18,18,0,0,1,1,3,21.93,21.93,0,0,1,.59,4.41c0,.52,0,.92,0,1.18a3.24,3.24,0,0,1,0,.41,2.18,2.18,0,0,1,0-.41c0-.29,0-.68,0-1.17a22.91,22.91,0,0,0-.68-4.37,17.45,17.45,0,0,0-1.06-3,21,21,0,0,0-1.85-3.2,44,44,0,0,0-5.91-6.57l.21,0-15.07,10.32-4.64,3.17.08-.16a51.33,51.33,0,0,0,.51,7A25.46,25.46,0,0,0,238,176a12.08,12.08,0,0,0,1.32,2.84,16.54,16.54,0,0,0,8.08,6.92,14.53,14.53,0,0,0,7.11.69c.84-.12,1.48-.27,1.92-.37l.49-.12Z"/><path class="cls-3" d="M265.51,177.24s5.07-.33,6.59.68,1.4,3.73,1.4,3.73v1.19a5,5,0,0,1-.15,3.16c-.71,1.71-3.57.87-3.57.87s2.1.48,1.93,2.34a2.31,2.31,0,0,1-1.93,2.1,3,3,0,0,1,.18,1.8,2.54,2.54,0,0,1-2.26,1.58l-3.05.38s-11.69,2-14.23,1.49-7.5-2.2-7.5-2.2l-1.31-13.89Z"/><path class="cls-3" d="M241.61,180.47s-22.43,1.84-32.25-2.29l-6.6,19.51s38.18-2,40.16-3.33S241.61,180.47,241.61,180.47Z"/><path class="cls-4" d="M265.07,189.8a7,7,0,0,1,2.48.35,4.2,4.2,0,0,1,2.23,1.16c-.06.09-1-.46-2.33-.79A9.75,9.75,0,0,1,265.07,189.8Z"/><path class="cls-4" d="M265,185.77c0-.06.28-.11.74-.15a8.07,8.07,0,0,1,1.83,0,4.06,4.06,0,0,1,1.74.65c.39.29.54.55.51.58s-.26-.14-.66-.35a5.21,5.21,0,0,0-1.65-.5c-.67-.1-1.3-.1-1.76-.13S265,185.82,265,185.77Z"/><path class="cls-4" d="M264.17,181.16s0-.15.22-.34a1.79,1.79,0,0,1,1-.4,5.4,5.4,0,0,1,1.61.12c.59.11,1.23.23,1.9.38A15.79,15.79,0,0,1,272.3,182a2.93,2.93,0,0,1,1.2.85s-.49-.28-1.31-.6a22.37,22.37,0,0,0-3.34-1l-1.89-.4a6,6,0,0,0-1.52-.2A2,2,0,0,0,264.17,181.16Z"/><path class="cls-2" d="M209.13,178.17a3.37,3.37,0,0,1-.86-.22l-2.34-.77-8.18-2.85-.16-.05v-.17c0-2.47,0-5.19-.05-8.05,0-5.54,0-10.55,0-14.18,0-1.74.05-3.19.07-4.3a8.58,8.58,0,0,1,.1-1.57,9.9,9.9,0,0,1,.1,1.57c0,1.11.06,2.56.1,4.3.06,3.63.11,8.64.12,14.18,0,2.86,0,5.58,0,8.05l-.16-.23,8.11,3,2.3.9A5.35,5.35,0,0,1,209.13,178.17Z"/><path class="cls-2" d="M199.24,137.14a22.68,22.68,0,0,1-.79-2.56,35.42,35.42,0,0,0-2.43-5.92,34.83,34.83,0,0,0-3.49-5.37,23.11,23.11,0,0,1-1.65-2.1,10.37,10.37,0,0,1,1.94,1.86,27.84,27.84,0,0,1,6,11.43A10.21,10.21,0,0,1,199.24,137.14Z"/><g class="cls-9"><path class="cls-2" d="M98.4,52a10.71,10.71,0,0,0-13.9,1.73c-6.7,6.83-4.13,16.8-2.54,22.87s7.94,16.13,13.6,16.36S98.4,52,98.4,52Z"/><path class="cls-6" d="M163.91,219.89H88.48c0,.14,0,.29,0,.43l-1.72-.43H51.85a138.3,138.3,0,0,0,.21-14c-.06-1.33-.14-2.63-.26-3.91-1.15-13.1-4-23-6.14-31.65-2.33-9.62-3.68-17.83-.61-27.42a29.82,29.82,0,0,1,3.05-6.75,20.87,20.87,0,0,1,5.15-5.64,22.78,22.78,0,0,1,3.49-2.16c.45-.23.91-.44,1.38-.64,6.53-2.86,14.52-3.57,22.81-6.21a50.12,50.12,0,0,0,9.95-4.34c.51-.29,1-.6,1.54-.93,19.41-12.36,29.94,0,29.94,0s3.08.67,7.41,1.8c1.74.46,3.69,1,5.72,1.56l1.26.37c6.92,2,14.51,4.68,18.24,7.36,5.14,3.72,6.49,21.14,6.86,39.63l0,1.38c0,1.59.05,3.18.06,4.78,0,2.4,0,4.79.05,7.15v1.56c0,6,0,11.68.08,16.69l0,1.65c.05,2.91.13,5.54.27,7.81q.09,1.47.21,2.73C162.84,213.43,163.31,216.54,163.91,219.89Z"/><path class="cls-10" d="M52.88,214.55A163.15,163.15,0,0,0,52.21,193c-.71-6.79-1.86-13.53-2.93-20.27-.15-.95-1.59-.55-1.45.4,1.07,6.73,2.22,13.45,2.91,20.23a162.87,162.87,0,0,1,.64,21.19c0,1,1.47,1,1.5,0Z"/><path class="cls-11" d="M145.8,158.08a42.6,42.6,0,0,0,16.08,10.24l0-1.38a39,39,0,0,1-4.25-1.85,39.74,39.74,0,0,1-19.92-22.71,41.17,41.17,0,0,1-.93-22.44l-1.26-.36a42.32,42.32,0,0,0-1.15,8.47A40.93,40.93,0,0,0,145.8,158.08Z"/><path class="cls-11" d="M101.43,123.73a26.23,26.23,0,0,1-12.18,9.14,31.71,31.71,0,0,1-9.63,2.07c-8.17.49-16.08-2.22-22.88-6.6.45-.23.91-.44,1.38-.64A42.7,42.7,0,0,0,64.61,131a33.05,33.05,0,0,0,24.69.47l.2-.09a24.67,24.67,0,0,0,10.8-8.34C100.79,122.4,101.92,123.05,101.43,123.73Z"/><path class="cls-11" d="M62.45,214.67a37.06,37.06,0,0,0,24-2,23.3,23.3,0,0,0,8.43-6c3-3.45,5.1-7.47,7.51-11.3a43.9,43.9,0,0,1,19.17-16.89A42.64,42.64,0,0,1,162,181.81v-1.56h0a44.55,44.55,0,0,0-17-6.31c-16.9-2.5-33.86,5.57-43.12,19.81-2.6,4-4.78,8.33-7.9,12a22.62,22.62,0,0,1-9,6.17,35.88,35.88,0,0,1-22.16,1.52A.65.65,0,0,0,62.45,214.67Z"/><path class="cls-11" d="M58.34,162.59a67.68,67.68,0,0,1,22.09-12,66.57,66.57,0,0,1,12.15-2.67c3.59-.44,7.38-.64,10.86.52a9.9,9.9,0,0,1,6.71,6.88c1,3.84-.18,7.79-2.24,11.06a42.09,42.09,0,0,1-8.3,9.17,71.23,71.23,0,0,1-9.72,7c-8,4.81-16.62,8.34-25.22,11.81-.78.32-1.11-.94-.35-1.25,14.09-5.69,28.9-11.74,39.3-23.28,2.65-2.95,5.18-6.46,5.54-10.54a8.83,8.83,0,0,0-4.58-9c-3-1.55-6.61-1.6-9.9-1.32a62,62,0,0,0-11.62,2.16,65.89,65.89,0,0,0-23.8,12.36c-.64.53-1.56-.39-.92-.92Z"/><path class="cls-11" d="M162.1,200.15a27.28,27.28,0,0,0-18.21-5.75c-7.89.42-16.52,5-18.91,13a15.84,15.84,0,0,0,1.65,12.49h-1.5a17.77,17.77,0,0,1-1.93-10.29c1-8.61,9.11-14.59,17.18-16.09a28.51,28.51,0,0,1,21.69,5Z"/><path class="cls-12" d="M80.92,121.48c5.19,6.59,18.83,14.75,30.59,13.54,16.41-1.7,20.93-10.47,18.25-17-4.32-1.13-7.4-1.81-7.4-1.81s-10.53-12.35-29.94,0A48,48,0,0,1,80.92,121.48Z"/><path class="cls-13" d="M92.77,121.69s17.58,14.56,31.56,0l-4.27-11.79-2.82-7.78-2-5.45L92.54,94.33A77.55,77.55,0,0,1,92.77,121.69Z"/><path class="cls-2" d="M98.4,102.28c10.86,11.22,19.89,12,22.73,10.56l-3.89-10.75Z"/><path class="cls-13" d="M89.66,88.35a20.64,20.64,0,0,0,.54,2.5,16,16,0,0,0,2.3,4.84,52.65,52.65,0,0,0,5.9,6.65c4.11,4.14,10.07,5.1,15.6,4.35,14.69-2,14.63-12.18,11.33-27.13-2-9.28-.12-14.86-3-18.18h0l-.55-.42a21.31,21.31,0,0,0-15.39-4.08c-1,.12-2,.27-3,.45l-.64.12-.26.06c-.25,0-.48.09-.72.15l-.5.12c-.39.09-.76.19-1.12.29C88.66,61.29,86.72,68.85,87.29,76,87.67,80.8,89.21,85.42,89.66,88.35Z"/><path class="cls-2" d="M95.41,57.66s5.72-3,7.77-1,.09,8,4.5,8.76c4.12.72,4.51-3.72,7.89-2.55,2.34.81,1.17,4.33,3.54,6.4,2.6,2.27,4.43-2.47,7,6.88,1.23,4.48,6.46-2.67,3.14-10.63S111.78,44.36,95.41,57.66Z"/><path class="cls-2" d="M111.5,79.76a1.32,1.32,0,0,1-1,1.5c-.6,0-1.12-.61-1.15-1.41s.43-1.48,1-1.5S111.47,79,111.5,79.76Z"/><path class="cls-2" d="M121.12,78.63a1.32,1.32,0,0,1-1,1.5c-.6,0-1.12-.61-1.15-1.41a1.32,1.32,0,0,1,1-1.5C120.57,77.2,121.09,77.83,121.12,78.63Z"/><path class="cls-14" d="M104.88,84.87c.13.8,1.48,1.26,3,1s2.69-1.09,2.57-1.89-1.48-1.26-3-1S104.76,84.07,104.88,84.87Z"/><path class="cls-14" d="M126.11,83.33a4.16,4.16,0,0,1-2.11.9c-1.54.24-2.89-.22-3-1s1-1.65,2.57-1.89a4.29,4.29,0,0,1,2.2.18Z"/><path class="cls-2" d="M111.26,75.4c-.85-.62-2.25-.94-3,.06a1.43,1.43,0,0,1-1.91.5,1.42,1.42,0,0,1-.5-1.92A4.85,4.85,0,0,1,112.68,73a1.44,1.44,0,0,1,.5,1.92,1.41,1.41,0,0,1-1.92.49Z"/><path class="cls-2" d="M122.35,74.46a2.64,2.64,0,0,0-3.12,0c-1.47,1-3.11-1.24-1.63-2.27a5.4,5.4,0,0,1,5.92-.32c1.55.89.4,3.44-1.17,2.55Z"/><path class="cls-2" d="M95.56,91.65a8.11,8.11,0,0,1-5.36-.8,16,16,0,0,0,2.3,4.84A8.33,8.33,0,0,0,95.56,91.65Z"/><path class="cls-2" d="M101.48,83.71c-2.72,2.17-4.85-7.68-10.92-8.36a5,5,0,0,0-3.27.61c.38,4.83,1.92,9.46,2.37,12.39a20.05,20.05,0,0,0,.53,2.44c-3.19-5.72-6.81-12.48-7.8-15.42a10.87,10.87,0,0,1-.43-1.7c.11-.17.23-.34.35-.5a11.18,11.18,0,0,1,1.81-1.89,14.47,14.47,0,0,1,3.63-2.14,30.27,30.27,0,0,1,12.57-2C99.86,71.54,103.71,81.93,101.48,83.71Z"/><path class="cls-2" d="M104.87,60.32s-3.83,2.1-4.41,5.42a20.07,20.07,0,0,0,.09,6.6s-11,1.57-13.35.41S85,64.1,85,64.1,99.67,54.4,103.93,56,104.87,60.32,104.87,60.32Z"/><path class="cls-8" d="M121.37,87.65s-3.48.16-10.33.52c0,0,1.57,7.19,6.48,6.39C121.68,93.89,121.37,87.65,121.37,87.65Z"/><path class="cls-14" d="M118.67,97.29a3.07,3.07,0,0,1-3.25,0c-.51-.35.06-1.14.58-.78a2.15,2.15,0,0,0,2.27-.13c.56-.29,1,.6.4.89Z"/><path class="cls-13" d="M99.64,87.31a8.26,8.26,0,0,0-2.1-6.86c-2.18-2.41-6.07-6-9.12-5.12C84,76.68,84,80.84,85.13,84.93S89.8,94,95.38,92.26A6,6,0,0,0,99.64,87.31Z"/><path class="cls-2" d="M94.07,87.42A10.66,10.66,0,0,0,93,82.24c-.81-1.4-2.82-3.3-4.63-2.38-.61.31-1.2-.58-.59-.89,1.75-.9,3.68-.09,5,1.23,1.9,1.9,2.35,4.6,2.41,7.18a.54.54,0,0,1-1.07,0Z"/><path class="cls-11" d="M64.24,194.35c.05,4.61-.13,9.23-.46,13.8q-.2,2.7-.45,5.4l-.12,1.32c-.17,1.68-.35,3.35-.54,5H61.34c1.21-10.76,2-21.57,1.35-32.41a98.39,98.39,0,0,0-1.42-11.61c-.06-.39-.14-.79-.22-1.18-.12-.63-.25-1.26-.4-1.89s-.34-1.5-.53-2.25a74.87,74.87,0,0,0-3.26-10c-.32-.79,1-1.13,1.28-.35s.53,1.32.78,2l.45,1.28a78.72,78.72,0,0,1,3,11.34c.09.44.18.87.25,1.31a2.51,2.51,0,0,1,0,.27c.07.37.14.73.2,1.1a111.22,111.22,0,0,1,1.33,15.7C64.23,193.55,64.24,194,64.24,194.35Z"/><path d="M79.15,126.65c-6.79,1.7-12,1.12-17.41,3.43-.47.19-.93.39-1.38.62a22.38,22.38,0,0,0-3.49,2.09c-1.73,1.79-3.46,3.61-5.15,5.46-11.17,12.18-20.82,25.34-22.61,35.87a40,40,0,0,0-.53,7.17c0,.24,0,.48,0,.73.31,12.34,5.44,26.2,13,37.32H90.37l1.72.42c0-.14,0-.28,0-.42a29.74,29.74,0,0,0-.91-7.47c-.11-.43-.23-.85-.37-1.24a12.47,12.47,0,0,0-2.25-4.43c-2.91-3.24-9.47-8.65-14-14.07l-.83-1c-2.81-3.56-4.61-7.06-3.8-9.92,2.12-7.49,17.7-44.51,17.7-44.51C88.45,133.87,83.19,129.7,79.15,126.65Z"/><path d="M90.37,219.34h-6a6.08,6.08,0,0,1,3.11-.67Z"/><path d="M69.66,181.35a18,18,0,0,0-11.55-8.88c-.48-.12-.69.6-.21.72A17.14,17.14,0,0,1,69,181.73c.23.42.89.05.67-.38Z"/><path d="M62.36,171.05A16.7,16.7,0,0,1,65.7,177c.14.46.89.27.74-.19a17.81,17.81,0,0,0-3.53-6.29c-.32-.37-.86.16-.55.53Z"/><path d="M38.54,155a20.92,20.92,0,0,1-10.07,26.33c-.43.22,0,.87.39.64a21.65,21.65,0,0,0,10.43-27.16c-.18-.45-.93-.26-.75.19Z"/><path class="cls-6" d="M76.78,122.66c-6.78,1.75-13.23,2.66-18.66,5-.47.2-.93.41-1.38.64a22.78,22.78,0,0,0-3.49,2.16c-1.73,1.85-3.46,3.73-5.15,5.64-11.17,12.58-20.82,26.17-22.61,37.05a42.56,42.56,0,0,0-.53,7.4c0,.25,0,.5,0,.76.31,12.74,5.44,27.06,13,38.54H86.75l1.72.43c0-.14,0-.29,0-.43a31.75,31.75,0,0,0-.91-7.72c-.11-.44-.23-.87-.37-1.28A13,13,0,0,0,85,206.32c-2.91-3.35-9.47-8.93-14-14.53l-.83-1c-2.81-3.67-4.61-7.29-3.8-10.24C68.41,172.76,85,151,85,151s0-.12.11-.36.24-.78.43-1.43h0a157,157,0,0,0,3.76-16.31c.09-.48.17-1,.25-1.46l.09-.61A78.88,78.88,0,0,1,76.78,122.66Z"/><path class="cls-15" d="M86.75,219.89h-6a5.84,5.84,0,0,1,3.11-.69Z"/><path class="cls-11" d="M66,180.65a18.05,18.05,0,0,0-11.55-9.17.38.38,0,0,0-.2.74A17.27,17.27,0,0,1,65.37,181c.23.44.89.05.67-.39Z"/><path class="cls-11" d="M58.75,170a17.69,17.69,0,0,1,3.33,6.15c.15.47.89.27.74-.2a18.63,18.63,0,0,0-3.53-6.5c-.32-.38-.86.17-.54.55Z"/><path class="cls-11" d="M34.92,153.46a21.91,21.91,0,0,1-10.07,27.19c-.43.23,0,.9.39.66a22.66,22.66,0,0,0,10.43-28.05c-.18-.46-.92-.26-.75.2Z"/><path class="cls-11" d="M91.75,129.72a25.8,25.8,0,0,1-4,2.08l-.2.09a33.05,33.05,0,0,1-24.69-.47,42.7,42.7,0,0,1-6.49-3.33c-.47.2-.93.41-1.38.64,6.8,4.38,14.71,7.09,22.88,6.6a31.71,31.71,0,0,0,9.63-2.07A28.49,28.49,0,0,0,93,130.41C92.6,130.18,92.17,130,91.75,129.72Z"/><path class="cls-2" d="M85.8,64.46s8.09-20.23,23.86-20.31c13.07-.06,15,7.72,19.87,12s10.42-1.4,10.34,3.57a6.78,6.78,0,0,1-4.67,6.32s7.28-.15,5.43,5.14-7.84,3.32-7.84,3.32,2.41,5.88-.89,8.32c-8.07,6-12.38-18.41-20.91-16.18C102,69,85.8,64.46,85.8,64.46Z"/><path class="cls-2" d="M116.26,83a1.59,1.59,0,1,0,1.06-3c-.42-.12-.65,0-1,0-.6-.07-.8-.76-.9-1.41a5.41,5.41,0,0,1,.63-.24c.09.42.22.85.46,1s.9,0,1.3.15a2.22,2.22,0,0,1,1.32,1.61,2.28,2.28,0,0,1-3,2.57C115.68,83.55,115.86,82.91,116.26,83Z"/></g></svg>