<svg id="Layer_1" data-name="Layer 1" xmlns="http://www.w3.org/2000/svg" viewBox="0 0 540.79 428.8"><defs><style>.cls-1{fill:#ad6d68;}.cls-2{fill:#263238;}.cls-3{fill:#ff725e;}.cls-4{fill:#455a64;}.cls-5{fill:#824e4b;}.cls-6{fill:#fff;}.cls-7{fill:#b78876;}.cls-8{fill:#aa6550;}.cls-9{fill:#e8505b;}.cls-10{fill:#ebebeb;}.cls-11{fill:#e0e0e0;}.cls-12{opacity:0.22;}.cls-13{opacity:0.3;}.cls-14{fill:#5b342f;}.cls-15{fill:#333;}</style></defs><path class="cls-1" d="M323.41,261.46s-.32,55.36,2.38,88.35c2.28,27.94-31.61,74.1-31.61,74.1h39.51l38-113.7-10.45,11.23-14.07-54.31Z"/><path class="cls-2" d="M383.53,69.83A9.44,9.44,0,0,1,381.63,55c1.59-1.59,3.71-2.58,5.19-4.26A30.27,30.27,0,0,0,389.69,46a19.07,19.07,0,0,1,14.81-8.83,24.56,24.56,0,0,1,16.68,5.31c1.88,1.45,3.66,3.19,5.94,3.83s4.56.15,6.86.17A15.61,15.61,0,0,1,447.31,70a13.44,13.44,0,0,1-4.89,26c-3.88,0-7.51-1.76-11.05-3.33a204.82,204.82,0,0,0-44.83-14"/><path class="cls-3" d="M445.52,166.06a48.13,48.13,0,0,0,12.27-30.46c.35-11.17-1.52-25.1-8.49-33.84,4.79-5.25,2.76-11-.73-17.23S438.91,74.11,432.52,71a76.42,76.42,0,0,0-30.58-7.63c-8.62-.31-20.11,1.21-21.24,7.43-1.18,6.48,3.05,9.36,3.05,9.36a42.6,42.6,0,0,0-16,9.69C357,100.24,352.9,110.7,354.4,122.32s4.06,20.67,11.07,28"/><path class="cls-4" d="M372.45,164a10.58,10.58,0,0,0-4.37-2.63l.33,0a5.8,5.8,0,0,0-.92-.12,4.27,4.27,0,0,0-3.31.54h0a8,8,0,0,0-4.15,3.92,9.34,9.34,0,0,0,1.48,9.56c1.89,2.27,5,3.69,7.87,2.87a7.86,7.86,0,0,0,5.1-5.85A8.83,8.83,0,0,0,372.45,164Z"/><path class="cls-1" d="M438.56,212.31l6.77-97.89a8.69,8.69,0,0,0-7.88-8.72L391.19,94.61c-14.78-1.39-24.38,16.92-25.14,31.75-.84,16.48-1.21,36.63.89,48.9,4.22,24.66,23,27.53,23,27.53S383.29,228,383.29,228L404.17,260l54.61-39.75Z"/><path class="cls-2" d="M374.75,146.92a3.17,3.17,0,0,0,3.09,3.16,3,3,0,0,0,3.23-2.9A3.17,3.17,0,0,0,378,144,3,3,0,0,0,374.75,146.92Z"/><path class="cls-2" d="M371.43,138.79c.52.26,2.16-2.24,5.36-3.41s6.14-.43,6.34-.95c.11-.24-.53-.8-1.82-1.17a8.71,8.71,0,0,0-5.25.28,8.4,8.4,0,0,0-4.09,3.21C371.26,137.86,371.19,138.69,371.43,138.79Z"/><path class="cls-2" d="M406.68,146.92a3.18,3.18,0,0,0,3.1,3.16,3,3,0,0,0,3.23-2.9,3.17,3.17,0,0,0-3.09-3.16A3,3,0,0,0,406.68,146.92Z"/><path class="cls-2" d="M402.34,135.15c.24.52,3.08-.43,6.32.63s5.09,3.46,5.57,3.17c.23-.12.08-.95-.71-2a8.74,8.74,0,0,0-4.31-3,8.31,8.31,0,0,0-5.18,0C402.78,134.32,402.21,134.92,402.34,135.15Z"/><path class="cls-2" d="M392,162.45c0-.19-2.11-.53-5.55-.93-.87-.08-1.69-.24-1.85-.83a4.46,4.46,0,0,1,.55-2.59q1.2-3.18,2.5-6.66c3.46-9.48,6-17.28,5.57-17.41s-3.5,7.44-7,16.92q-1.25,3.51-2.39,6.7a5.07,5.07,0,0,0-.41,3.42,2.22,2.22,0,0,0,1.45,1.26,6,6,0,0,0,1.48.18C389.85,162.66,392,162.65,392,162.45Z"/><path class="cls-5" d="M389.79,202.83a62.85,62.85,0,0,0,33-9.23s-8.25,17.64-33,15.63Z"/><path class="cls-2" d="M413.09,129.7c0-1-3.37-1.69-7-3.45s-6.33-3.85-7.1-3.24c-.36.3-.11,1.31.83,2.58a13.5,13.5,0,0,0,10.74,5.09C412.15,130.6,413.09,130.16,413.09,129.7Z"/><path class="cls-2" d="M386,123c-.84-.51-2.74,1.08-5.37,2.13s-5.05,1.39-5.28,2.34c-.08.45.55,1,1.79,1.35a7.92,7.92,0,0,0,4.83-.5,8,8,0,0,0,3.75-3.1C386.35,124.12,386.37,123.26,386,123Z"/><path class="cls-3" d="M388,101.7s23.18-.78,41.22,25.06c11.89,17,14.74,38.64,14.74,38.64L452.1,124,445,105.35,428.84,96.6l-30.43-1.14-11.36,5.9"/><path class="cls-3" d="M433.44,103c-37.1-8.19-66.38,4.59-71.25,33.65l-7.87-18.91,18.77-23.5L394,88.36,436.47,94Z"/><path class="cls-4" d="M449.52,162.61a11.44,11.44,0,0,0-4.7-2.83l.35,0a6.69,6.69,0,0,0-1-.12,4.55,4.55,0,0,0-3.56.59h0a8.42,8.42,0,0,0-4.47,4.22,10,10,0,0,0,1.6,10.29c2,2.44,5.4,4,8.46,3.09,2.8-.8,4.8-3.46,5.49-6.3A9.49,9.49,0,0,0,449.52,162.61Z"/><path class="cls-6" d="M440.54,149.59a4,4,0,0,0,1.63-.64,9.57,9.57,0,0,0,4.28-10.49c-.33-1.31-.85-2.59-1.09-3.93a4.05,4.05,0,0,1,.92-3.69,14.11,14.11,0,0,1,3.55-2.31,10.57,10.57,0,0,0,3.32-2.68,11.7,11.7,0,0,0,2.54-6.65,10.18,10.18,0,0,0-.8-4.71A3.81,3.81,0,0,0,454,113c-.22.07,1.39,2.24,1,6.15a11.32,11.32,0,0,1-2.54,6.1,9.85,9.85,0,0,1-3.09,2.41,14.36,14.36,0,0,0-3.81,2.5,5,5,0,0,0-1.15,4.55c.29,1.48.83,2.76,1.16,4a8.89,8.89,0,0,1-.68,6.47,9.91,9.91,0,0,1-2.92,3.45C441.07,149.26,440.5,149.5,440.54,149.59Z"/><path class="cls-6" d="M446,99.2c-.21.07,1.27,2.08,1.21,5.75a11.6,11.6,0,0,1-1.76,6c-1.22,2.06-3.5,3.47-5.78,5.25a10.38,10.38,0,0,0-2.87,3.25,7.2,7.2,0,0,0-.7,4c.26,2.55,1.07,4.65,1,6.43a5.72,5.72,0,0,1-1.41,3.86c-.7.71-1.32.8-1.28.9s.15,0,.43,0a3,3,0,0,0,1.11-.58,5.82,5.82,0,0,0,1.86-4.11c.21-2-.57-4.17-.74-6.53a6.4,6.4,0,0,1,.65-3.5,9.68,9.68,0,0,1,2.62-2.91c2.16-1.7,4.64-3.25,5.94-5.55A11.93,11.93,0,0,0,448,105a10.74,10.74,0,0,0-1-4.38A3.82,3.82,0,0,0,446,99.2Z"/><path class="cls-6" d="M420.38,117.26s.29.37,1,.21a2.07,2.07,0,0,0,1.06-.7,2.54,2.54,0,0,0,.52-1.6c0-1.25-.68-2.53-.76-3.83s1-2.45,2.44-3.2a10.56,10.56,0,0,0,3.94-3,8.53,8.53,0,0,0,1.59-3.76c.35-2.33-.36-3.7-.44-3.65a18.84,18.84,0,0,1-.26,3.51,8.67,8.67,0,0,1-1.62,3.33,10.35,10.35,0,0,1-3.7,2.68,6.56,6.56,0,0,0-2.08,1.66,3.42,3.42,0,0,0-.79,2.48c.2,1.65.95,2.76,1,3.79a1.85,1.85,0,0,1-1,1.91C420.76,117.33,420.41,117.17,420.38,117.26Z"/><path class="cls-6" d="M413,97.29c0-.05-.25-.06-.52.2a1.78,1.78,0,0,0-.42,1.45,9.24,9.24,0,0,0,.64,1.9,4,4,0,0,1,0,2.09,8.53,8.53,0,0,1-2,3.53c-.71.83-1.15,1.38-1.05,1.49s.69-.25,1.56-1a7.29,7.29,0,0,0,2.47-3.81,4.49,4.49,0,0,0-.17-2.63c-.32-.75-.69-1.25-.81-1.71A2,2,0,0,1,413,97.29Z"/><path class="cls-6" d="M375.77,84.5c-.06,0,.07.4.42,1s.94,1.39,1.48,2.42a5.07,5.07,0,0,1,.37,3.84c-.33,1.48-1.11,3.19-1.08,5.19a9.24,9.24,0,0,0,1.62,5.16,8.77,8.77,0,0,0,3.33,2.89c2.3,1.11,3.93.86,3.91.77a20.89,20.89,0,0,1-3.57-1.4A8.62,8.62,0,0,1,378,96.93c0-1.74.66-3.35,1-5a5.66,5.66,0,0,0-.66-4.39,18.54,18.54,0,0,0-1.78-2.29C376.08,84.75,375.84,84.47,375.77,84.5Z"/><path class="cls-6" d="M358.51,102.11c-.14.17,1.12.72,1.61,2.53.23.94.72,2.06,1.08,3.24a21.69,21.69,0,0,0,1.43,4,8,8,0,0,0,6.58,4.08c2.07.09,3.2-.64,3.15-.72a26.74,26.74,0,0,1-3.09,0,7.76,7.76,0,0,1-5.75-3.85,27.37,27.37,0,0,1-1.44-3.85c-.44-1.27-1-2.26-1.29-3.19a4,4,0,0,0-1.46-1.94C358.85,102.15,358.55,102.06,358.51,102.11Z"/><path class="cls-6" d="M355.64,126.9c-.12,0,0,.63.52,1.4a5.27,5.27,0,0,0,3,2,5.35,5.35,0,0,0,3.58-.39c.83-.43,1.18-.9,1.11-1s-2,1-4.45.41S355.87,126.74,355.64,126.9Z"/><path class="cls-6" d="M397.66,80.41c-.1.15,1,.72,2.1,2.33a7.55,7.55,0,0,1,.77,7c-.56,1.3-1.44,2.71-1.32,4.24a5.92,5.92,0,0,0,1.42,3.4c1.35,1.59,2.51,2.14,2.56,2.06s-.88-.91-2-2.48a5.51,5.51,0,0,1-1.07-3c-.07-1.19.67-2.37,1.32-3.82a7.56,7.56,0,0,0,.42-4.48,8.15,8.15,0,0,0-1.54-3.31C399,80.67,397.67,80.31,397.66,80.41Z"/><path class="cls-6" d="M421.25,97.77c.27-.11-.53-2.3-.59-5.1s.57-5,.29-5.12-1.4,2.12-1.3,5.15S421,97.91,421.25,97.77Z"/><path class="cls-6" d="M438.37,95.08c0-.07-.22-.25-.45-.74a3.71,3.71,0,0,1-.23-2.21c.32-1.93,2.21-4.12,3.78-6.91a11.38,11.38,0,0,0,1.44-4.36,6.61,6.61,0,0,0-.65-3.74,4,4,0,0,0-1.79-1.84c-.58-.24-.94-.17-.94-.12s.31.16.75.46a4.29,4.29,0,0,1,1.34,1.81c.83,1.78.48,4.66-1,7.31s-3.4,5-3.6,7.29a3.61,3.61,0,0,0,.6,2.51C438,95.05,438.35,95.14,438.37,95.08Z"/><path class="cls-6" d="M414.65,84.4c0-.05-.16-.32-.54-.75a3.57,3.57,0,0,1-1.12-1.9,5.16,5.16,0,0,1,1.59-2.85c.89-1,2.08-1.89,3.28-3s2.33-2.33,2.55-4a6.42,6.42,0,0,0-1-3.73c-1.09-1.84-2-2.76-2.1-2.69s.59,1.18,1.47,3a6.27,6.27,0,0,1,.69,3.28c-.15,1.16-1.21,2.3-2.31,3.35-2.26,2-4.88,4-4.89,6.65a3.51,3.51,0,0,0,1.56,2.12C414.32,84.29,414.6,84.45,414.65,84.4Z"/><path class="cls-6" d="M391.69,80.76a4.48,4.48,0,0,1-1.38-2.19,4.56,4.56,0,0,1,.29-2.74,19.72,19.72,0,0,1,1.75-3.18A9.51,9.51,0,0,0,393.82,69a4.82,4.82,0,0,0-.76-3.17c-.93-1.65-2.28-1.93-2.27-1.75a5.83,5.83,0,0,1,1.64,2.08,4.44,4.44,0,0,1,.47,2.69,9.67,9.67,0,0,1-1.41,3.23,17.18,17.18,0,0,0-1.77,3.39,5,5,0,0,0-.09,3.25,3.28,3.28,0,0,0,1.29,1.77C391.37,80.81,391.67,80.82,391.69,80.76Z"/><path class="cls-2" d="M383.75,80.16a15.16,15.16,0,0,0,2.82.07c1.81-.06,4.43,0,7.66.14a84,84,0,0,1,24.58,5.16,126.06,126.06,0,0,1,22.43,11.52l6.46,4.15a16,16,0,0,0,2.43,1.46,15.12,15.12,0,0,0-2.2-1.78c-1.45-1.09-3.6-2.62-6.3-4.43a112.76,112.76,0,0,0-22.46-11.87,78,78,0,0,0-24.91-4.92,73.81,73.81,0,0,0-7.71.18A14.84,14.84,0,0,0,383.75,80.16Z"/><path class="cls-2" d="M442.46,101.85a.86.86,0,0,1-.25-.08l-.7-.27-1.12-.47-1.56-.57a45.86,45.86,0,0,0-10.28-2.27,64.12,64.12,0,0,0-15.61.37c-2.92.4-5.95,1-9.09,1.72s-6.35,1.55-9.58,2.61c-13,4-23,12.49-27.39,20.2a35.75,35.75,0,0,0-3.88,9.76c-.3,1.21-.48,2.16-.59,2.81l-.15.73a1,1,0,0,1-.07.25.74.74,0,0,1,0-.26c0-.2.06-.44.09-.74.08-.66.22-1.62.49-2.84a34.36,34.36,0,0,1,3.75-9.92c4.37-7.86,14.41-16.46,27.56-20.53,3.25-1.08,6.49-1.91,9.64-2.62s6.2-1.31,9.14-1.69a61.58,61.58,0,0,1,15.72-.25,43.24,43.24,0,0,1,10.32,2.46l1.55.62,1.1.52.67.33Z"/><path class="cls-2" d="M394.14,102.82a4.41,4.41,0,0,1,.8,0,19.71,19.71,0,0,1,2.3.25,33.18,33.18,0,0,1,8.08,2.53c6.53,2.95,14.74,9,21.35,17.75a89.54,89.54,0,0,1,8.06,13.11A107.46,107.46,0,0,1,440,147.91a58.59,58.59,0,0,1,2.52,8.09c.21,1,.35,1.74.42,2.26a4,4,0,0,1,.09.8,3.93,3.93,0,0,1-.2-.78c-.11-.51-.29-1.26-.53-2.23a64.43,64.43,0,0,0-2.68-8,114.43,114.43,0,0,0-5.31-11.33,93,93,0,0,0-8.05-13C419.66,115,411.57,109,405.15,106a34.72,34.72,0,0,0-7.95-2.68c-1-.18-1.75-.3-2.27-.36A4.65,4.65,0,0,1,394.14,102.82Z"/><path class="cls-2" d="M122.08,18.17c1.8-8.53,7.9-13,16-16.29a27.23,27.23,0,0,1,25,2.66c4.82,3.28,8.73,8.2,14.34,9.81,9.23,2.65,19.47-4.71,28.38-1.12A12.78,12.78,0,0,1,213.32,27a12.78,12.78,0,0,1-12.1,10.07c6,1.83,8.33,10.16,5.17,15.61s-10.15,7.83-16.4,7-11.85-4.27-16.76-8.21-9.37-8.48-14.58-12-11.43-6.1-17.7-5.42c-8.48.93-15.43,7.74-18.8,15.58s-3.77,16.6-3.78,25.13.32,17.19-1.75,25.47c-.24,1-.64,2.07-1.58,2.41-1.35.5-2.61-.9-3.36-2.13A125.15,125.15,0,0,1,94.84,54.82c-1.49-9.37-1.73-18.31,3-26.53s17.52-14.78,24.22-10.12Z"/><path class="cls-7" d="M109.35,74.11c-.43-.18-17.24-4.59-16.23,12.42S111,99,111,98.52,109.35,74.11,109.35,74.11Z"/><path class="cls-8" d="M105.42,92.38c-.07,0-.28.23-.77.49a3,3,0,0,1-2.21.18c-1.83-.55-3.52-3.32-3.78-6.38a9.82,9.82,0,0,1,.57-4.29A3.47,3.47,0,0,1,101.32,80a1.53,1.53,0,0,1,1.8.71c.26.46.17.81.26.83s.35-.3.17-1a1.87,1.87,0,0,0-.73-1,2.27,2.27,0,0,0-1.67-.34A4.18,4.18,0,0,0,98.22,82a10.07,10.07,0,0,0-.75,4.81c.32,3.42,2.26,6.52,4.76,7.08a3.2,3.2,0,0,0,2.69-.61C105.42,92.8,105.49,92.41,105.42,92.38Z"/><path class="cls-7" d="M148.37,14.69a45.83,45.83,0,0,1,49,43.32c1.12,21.31,2.1,44.35,1.86,56-.5,24.91-25.45,28.58-25.45,28.58s.55,7.38,1.17,16.55a32.82,32.82,0,0,1-31.49,35h0a32.81,32.81,0,0,1-34-31.57l-3.7-100.38a45.85,45.85,0,0,1,42.64-47.44Z"/><path class="cls-8" d="M173.77,142.54s-15.3.8-32-9.84c0,0,7.54,18.12,32.41,16.07Z"/><path class="cls-2" d="M189,75.55a3.54,3.54,0,0,1-3.45,3.56,3.4,3.4,0,0,1-3.64-3.23,3.55,3.55,0,0,1,3.45-3.57A3.4,3.4,0,0,1,189,75.55Z"/><path class="cls-2" d="M191.27,66.83c-.44.46-3.12-1.55-7-1.57s-6.64,1.87-7.06,1.4c-.2-.21.26-1,1.49-1.93A9.79,9.79,0,0,1,184.4,63a9.39,9.39,0,0,1,5.53,1.83C191.1,65.79,191.49,66.63,191.27,66.83Z"/><path class="cls-2" d="M152.06,75a3.56,3.56,0,0,1-3.46,3.56A3.4,3.4,0,0,1,145,75.33a3.55,3.55,0,0,1,3.45-3.56A3.42,3.42,0,0,1,152.06,75Z"/><path class="cls-2" d="M153.65,67.25c-.45.46-3.13-1.56-7-1.58s-6.65,1.87-7.06,1.4c-.2-.21.25-1,1.48-1.92a9.8,9.8,0,0,1,5.66-1.7,9.38,9.38,0,0,1,5.52,1.84C153.47,66.2,153.87,67,153.65,67.25Z"/><path class="cls-2" d="M167.31,95.74c0-.22,2.37-.61,6.23-1.07,1-.09,1.9-.28,2.07-.94a4.92,4.92,0,0,0-.63-2.91l-2.83-7.46c-3.93-10.63-6.76-19.37-6.34-19.52s4,8.33,7.9,19c.94,2.62,1.85,5.12,2.71,7.51.36,1.11,1,2.38.47,3.84a2.47,2.47,0,0,1-1.62,1.42,6.55,6.55,0,0,1-1.66.21C169.73,96,167.32,96,167.31,95.74Z"/><path class="cls-2" d="M156,98.3c.62,0,.59,4.12,4.13,7.1s8,2.56,8,3.14c.06.26-1,.8-2.86.83a10.35,10.35,0,0,1-6.67-2.38,9,9,0,0,1-3.19-5.95C155.27,99.3,155.74,98.27,156,98.3Z"/><path class="cls-2" d="M154.32,54.78c-.38,1-4.2.51-8.69,1s-8.14,1.7-8.73.76c-.26-.45.38-1.42,1.85-2.42A15.23,15.23,0,0,1,152,52.78C153.67,53.46,154.49,54.29,154.32,54.78Z"/><path class="cls-2" d="M190.74,55.4c-.68.87-3.31-.06-6.48-.13s-5.86.54-6.47-.37c-.27-.45.16-1.31,1.34-2.13a9.38,9.38,0,0,1,10.43.41C190.68,54.08,191,55,190.74,55.4Z"/><path class="cls-2" d="M201.75,46.58c-4.84,7-24,4.15-33.61-3-6.7-5-12.62-8.89-20.77-10.88-5.48-1.34-11.4.18-16.17,3.2s-8.52,7.42-11.69,12.09c5.86,13,3.34,28.14.7,42.19-.29,1.56-.65,3.23-1.84,4.27-2,1.76-5.28.67-7.25-1.16-3.14-2.92-4.55-7.24-5.56-11.41A74,74,0,0,1,104,52.7a50.33,50.33,0,0,1,12.31-26.19c8.33-9,20.44-14.06,32.65-14.6A58.63,58.63,0,0,1,183.61,22c4.72,3.14,9.13,7,11.77,12Z"/><polygon class="cls-2" points="57.41 423.91 57.21 419.99 151.82 421.83 151.98 421.83 152.4 421.83 152.83 421.84 222.41 423.2 222.51 423.91 57.41 423.91"/><path class="cls-9" d="M109.91,178.52,109,149s5.87,27,36.62,26.69c29.4-.34,28.86-23.83,28.86-23.83l1.05,11.91v48.12l-19.17,78.5-24.48,3.11L104.79,186.16Z"/><path class="cls-2" d="M171.71,169.06a2.83,2.83,0,0,1-.35.63,17.19,17.19,0,0,1-1.17,1.72,25.24,25.24,0,0,1-5.47,5.29,31.5,31.5,0,0,1-10.23,4.81,36.06,36.06,0,0,1-13.79,1,45,45,0,0,1-13.25-4,57.57,57.57,0,0,1-9.68-5.83,66.27,66.27,0,0,1-5.86-4.86c-.67-.6-1.15-1.1-1.49-1.44a2.9,2.9,0,0,1-.48-.53,3.33,3.33,0,0,1,.57.44l1.56,1.35c1.35,1.17,3.36,2.82,6,4.68a60.32,60.32,0,0,0,9.66,5.67,45.64,45.64,0,0,0,13.09,3.89,36.35,36.35,0,0,0,13.56-.89,31.68,31.68,0,0,0,10.12-4.61,26.63,26.63,0,0,0,5.54-5.09C171.12,169.87,171.66,169,171.71,169.06Z"/><path class="cls-10" d="M51.43,314.22c-1.42-17.85-2.46-31.3-2.27-29.8.26,2,8.59-25.12,17.14-53.75.06-.2.12-.4.19-.6,8.65-29,17.49-59.41,18.29-62.2a1.23,1.23,0,0,0,.06-.21l.12-.09,24-18.12,0,0,.7,16.16.63,14.48,39.47,96.55.38.93,0,.1h0l1.73,4.22,0,9.06,0,11.91v.57l.16,46.38v1.32l.05,14.6v0l.06,21.67V388l.11,33.86v2.07H55.3l2.36-32s-.14-1.72-.38-4.72l0-.31c0-.21,0-.42,0-.65-.91-11.25-3-37.27-4.84-60.2,0-.23,0-.45,0-.67-.29-3.58-.57-7.07-.83-10.42C51.46,314.68,51.44,314.45,51.43,314.22Z"/><path class="cls-10" d="M152,423.91l-.05-2.08-.58-27.25v-.26l-.14-6.15v-.56l-.79-37.08v-1.26l-1-46v-.56l-.24-11.46-.25-11.9.68-2.26.11-.37,0-.14,21.64-71.82,3.3-39.18.05-.59v-9.27l-.31-3.77v-.13l0-.43v-.08a2.41,2.41,0,0,1,1.68.3,6.75,6.75,0,0,1,1.13.66h0a15.18,15.18,0,0,1,2.58,2.37,37.16,37.16,0,0,1,3.44,4.6c.57.88,1.16,1.85,1.77,2.92.05.08.09.16.14.23l5.53,3.15,2.46,1.39,47.7,27.11.92,68.44-1.5,14.28-.9,8.61-.07.7L238,298.83l-.89,8.42-.06.62-1.42,13.52-.11,1.15L230,375l0,.15,0,.27-1.18,11.26,7.52,37.21Z"/><path class="cls-2" d="M152.83,421.84c0,.7,0,1.39,0,2.07h-1c0-.69,0-1.38,0-2.08-.12-8.08-.26-17.27-.42-27.25v-.26c0-2-.07-4.07-.1-6.15v-.32a2.18,2.18,0,0,1,0-.25c-.11-7-.23-14.3-.34-21.83-.09-5.17-.19-10.25-.27-15.18v-.19c0-.22,0-.45,0-.67v-.39c-.3-17.7-.56-33.56-.78-46,0-.16,0-.32,0-.48v-.18c-.05-4.26-.1-8.1-.14-11.46,0-2.94-.07-5.51-.1-7.67s0-3.89,0-5.21c0-.51,0-.91,0-1.21a1.86,1.86,0,0,1,.06-.6s0,.08.05.23.08.81.12,1.58c.07,1.31.15,3,.25,5.19s.16,4.7.26,7.61c.12,3.37.24,7.23.39,11.51v.15a.41.41,0,0,1,0,.11c0,.15,0,.3,0,.46.37,12.46.78,28.48,1.13,46.36,0,.14,0,.29,0,.43s0,.45,0,.67a1.61,1.61,0,0,1,0,.22c.1,4.77.19,9.68.28,14.67v0c.12,7.46.23,14.7.32,21.62a2,2,0,0,0,0,.25v.32C152.71,400.53,152.8,412,152.83,421.84Z"/><polygon class="cls-11" points="85.2 187.59 90.1 191.3 86.65 213.86 144.48 274.43 91.96 205.47 96.44 187.59 85.2 187.59"/><path class="cls-10" d="M152.54,349.89l-88.74-26-2.94-67.4L85.2,167.66s-58,29-62,47.37S9.77,278.22,8.76,310.58c-.91,28.94-1,48.29,5.57,57.52,11.1,15.53,58.67,25.6,106.13,23.27,33.39-1.63,66.74-10.42,87.32-23.3Z"/><path class="cls-2" d="M145.59,275.9l-.28-.33-.8-1-3-3.86-11-14.27c-9.25-12.12-22-28.8-36.08-47.23l-2.71-3.56-.09-.12,0-.15,4.48-17.87.3.37H84.91v-.28c0-7.3,0-14,0-19.93v-.12l.09-.07,17.44-13.25,4.79-3.59,1.26-.93.44-.29a2.15,2.15,0,0,1-.4.35l-1.21,1-4.71,3.69L85.35,167.85l.09-.19c0,5.93,0,12.63,0,19.93l-.29-.29H96.82l-.09.37c-1.43,5.72-2.92,11.7-4.47,17.88l-.05-.26,2.71,3.56c14,18.47,26.72,35.2,35.94,47.34l10.83,14.39,2.92,3.93.75,1A2.1,2.1,0,0,1,145.59,275.9Z"/><path class="cls-10" d="M240.84,194.06s21,15.53,22.86,40.51c1.48,20.3,4.87,75.86,5.49,87.95.95,18.84-13.72,63-51.9,50.46-22.91-7.5-107.52-36.26-107.52-36.26l5.63-35.93,100.43,6,2-83.77Z"/><path class="cls-7" d="M114.25,304.93s-28.42-3.08-35-1.49c-6.32,1.53-15.33,9.27-15.33,9.27L64,323.94l45.73,12.78Z"/><path class="cls-2" d="M149.93,278.22a2.15,2.15,0,0,1,.12-.39l.43-1.11c.41-1,1-2.43,1.7-4.24l6.36-15.58,9.51-23.07c.9-2.16,1.79-4.42,2.91-6.62s2.34-4.41,3.64-6.61a148.11,148.11,0,0,1,9-13c1.64-2.11,3.29-4.17,5-6.15l-.06.32c-1.2-3.06-2.38-6.07-3.54-9l-.11-.3.3-.1,14.81-5-.15.41-16.8-28c-2-3.4-3.76-6.12-5.61-7.24a7.39,7.39,0,0,0-2.24-.91,7.62,7.62,0,0,1-.82-.2,6.53,6.53,0,0,1,.84.11,7.33,7.33,0,0,1,2.32.85,10.3,10.3,0,0,1,2.85,2.76,51.29,51.29,0,0,1,3,4.45l17,27.93.18.3-.33.12-14.8,5.07.18-.4,3.55,9,.07.18-.12.14c-1.69,2-3.34,4-5,6.13a143.28,143.28,0,0,0-9,13c-1.3,2.19-2.56,4.35-3.63,6.55s-2,4.41-2.91,6.58c-3.63,8.65-6.89,16.45-9.64,23l-6.54,15.5-1.81,4.2c-.2.46-.36.81-.49,1.09A1.82,1.82,0,0,1,149.93,278.22Z"/><path class="cls-2" d="M252.38,366a3.84,3.84,0,0,1-.35.37c-.27.26-.63.6-1.08,1.05a32,32,0,0,1-4.62,3.5,31,31,0,0,1-8.45,3.54,34.14,34.14,0,0,1-12.1.77,38.35,38.35,0,0,1-6.93-1.47c-2.36-.75-4.72-1.67-7.22-2.55-5-1.8-10.28-3.67-15.88-5.64-11.21-3.92-23.57-8.13-36.59-12.4-26-8.55-49.79-15.76-67-20.9l-20.4-6-5.54-1.64-1.44-.45a2.56,2.56,0,0,1-.48-.17l.5.11,1.45.39L71.83,326c4.84,1.35,11.83,3.34,20.45,5.84,17.25,5,41,12.18,67.08,20.74,13,4.27,25.38,8.49,36.58,12.45,5.6,2,10.91,3.87,15.87,5.69,2.48.89,4.87,1.83,7.18,2.58a38.4,38.4,0,0,0,6.84,1.49,34,34,0,0,0,12-.67,31.54,31.54,0,0,0,8.41-3.41,33.54,33.54,0,0,0,4.66-3.39l1.12-1A2.82,2.82,0,0,1,252.38,366Z"/><path class="cls-2" d="M64,324.14c0,.13-1.6-.21-4.15-.11a19.4,19.4,0,0,0-4.39.72A20.24,20.24,0,0,0,50.56,327a23,23,0,0,0-6.88,7.06c-1.34,2.17-1.93,3.67-2,3.62a3.78,3.78,0,0,1,.34-1.08,20,20,0,0,1,1.32-2.77,21.63,21.63,0,0,1,6.92-7.36,19.53,19.53,0,0,1,5.13-2.28,18,18,0,0,1,4.53-.62,15.15,15.15,0,0,1,3.06.28A4.13,4.13,0,0,1,64,324.14Z"/><path class="cls-2" d="M36.08,315.33s0-.11.11-.31a3.16,3.16,0,0,1,.56-.79,5.7,5.7,0,0,1,3.16-1.57,16.21,16.21,0,0,1,5.21,0,30,30,0,0,1,6.18,1.51,27,27,0,0,1,9.8,6,20.93,20.93,0,0,1,2.28,2.66,5.59,5.59,0,0,1,.66,1.1c-.1.07-1.1-1.47-3.24-3.44a29.1,29.1,0,0,0-9.71-5.73A31.71,31.71,0,0,0,45,313.25,16.58,16.58,0,0,0,40,313.1a5.83,5.83,0,0,0-3.06,1.3C36.33,314.94,36.13,315.37,36.08,315.33Z"/><path class="cls-2" d="M69.21,237.92a10.56,10.56,0,0,1-.4-1.83c-.18-.57-.45-1.26-.72-2.06s-.76-1.66-1.31-2.58a36.21,36.21,0,0,0-4.53-6,48.34,48.34,0,0,0-6.93-6.1,41.6,41.6,0,0,0-15.15-7,31,31,0,0,0-5.05-.64,9.84,9.84,0,0,1-1.87-.16,11.55,11.55,0,0,1,1.88-.09,27.45,27.45,0,0,1,5.13.45,40,40,0,0,1,15.43,6.89,46.12,46.12,0,0,1,7,6.21,34.3,34.3,0,0,1,4.48,6.19c.54,1,.9,1.88,1.26,2.67s.48,1.54.62,2.14A11.33,11.33,0,0,1,69.21,237.92Z"/><path class="cls-2" d="M237.69,341a2.43,2.43,0,0,1,0-.43c0-.32,0-.73,0-1.26,0-1.11-.08-2.74-.24-4.84a67.47,67.47,0,0,0-3.56-17.37,25,25,0,0,0-2.44-5.31,10.42,10.42,0,0,0-4.7-4c-4-1.74-8.9-1.51-13.84-1.79l-32.36-1.36c-26.75-1.16-50.53-2.16-65.48-3l.2-.16c-.9,5.49-1.61,9.84-2.11,12.86-.25,1.46-.45,2.6-.59,3.41-.07.36-.12.65-.16.88a1.09,1.09,0,0,1-.08.29,1.36,1.36,0,0,1,0-.3c0-.23.07-.52.12-.88.11-.82.27-2,.48-3.43.46-3,1.12-7.39,1.94-12.89l0-.17H115L180.51,304l32.36,1.41c2.49.12,4.91.18,7.28.37a21.24,21.24,0,0,1,6.75,1.52,10.86,10.86,0,0,1,4.9,4.2,24.49,24.49,0,0,1,2.44,5.42,65.1,65.1,0,0,1,3.4,17.5c.12,2.11.12,3.75.12,4.86,0,.53,0,.94,0,1.26A2.43,2.43,0,0,1,237.69,341Z"/><path class="cls-2" d="M218.54,262.36c.17,0,.31,9.73.31,21.73s-.14,21.72-.31,21.72-.32-9.72-.32-21.72S218.36,262.36,218.54,262.36Z"/><path class="cls-2" d="M23.94,212.85s-.08.28-.25.8S23.22,215,23,216c-.58,2.08-1.33,5.2-2.16,9.27-1.68,8.12-3.75,20-6.06,34.88-1.15,7.44-2.38,15.63-3.59,24.48-.61,4.42-1,9-1.31,13.8s-.57,9.7-.76,14.77c-.36,10.13-.58,20.84-.29,32,.09,2.79.19,5.61.43,8.44.07,1.42.3,2.82.47,4.24a35.58,35.58,0,0,0,1,4.16,23.65,23.65,0,0,0,4,7.63A17.06,17.06,0,0,0,21.57,375l0,0h0A103.78,103.78,0,0,0,39.5,381.8c6.23,1.87,12.67,3.37,19.21,4.72a264.23,264.23,0,0,0,43.16,5.25,200.26,200.26,0,0,0,20.6-.53c6.71-.47,13.26-1.17,19.59-2.11A206,206,0,0,0,177.21,381a179.58,179.58,0,0,0,28.43-12.2l0,.39-39-13.8-10.5-3.75-2.71-1c-.61-.22-.92-.35-.92-.35l.94.29,2.73.93,10.54,3.65,39.06,13.62.46.16-.43.23a180.11,180.11,0,0,1-28.47,12.31,205.72,205.72,0,0,1-35.23,8.25q-9.52,1.43-19.63,2.13a198.38,198.38,0,0,1-20.66.56,264.47,264.47,0,0,1-43.27-5.26c-6.56-1.34-13-2.85-19.26-4.73a105,105,0,0,1-18-6.88l.05,0a17.88,17.88,0,0,1-7.14-5.48,24.31,24.31,0,0,1-4.09-7.84A33.22,33.22,0,0,1,9.1,358c-.18-1.44-.41-2.87-.48-4.29-.23-2.85-.33-5.68-.41-8.47-.28-11.18-.05-21.89.33-32q.3-7.62.79-14.78c.33-4.77.72-9.4,1.35-13.83,1.23-8.85,2.48-17,3.66-24.48,2.37-14.88,4.5-26.75,6.25-34.87.86-4.06,1.64-7.17,2.26-9.26.28-1.05.61-1.81.78-2.34S23.94,212.85,23.94,212.85Z"/><path class="cls-11" d="M63.91,315.81c14.84-16.43,14.18-45.64,5.67-66.37-.79,22.45-3.44,42.37-5.47,64.19Z"/><path class="cls-2" d="M69.61,253.64a3.3,3.3,0,0,1,0,.72c0,.54-.08,1.22-.14,2.05-.14,1.87-.35,4.42-.59,7.54-.53,6.43-1.25,15.18-2,24.84s-1.44,18.42-1.94,24.86c-.24,3.11-.43,5.67-.57,7.53-.07.83-.13,1.51-.18,2.05a3.64,3.64,0,0,1-.1.71,2.68,2.68,0,0,1,0-.72c0-.54,0-1.22.06-2.05.06-1.79.19-4.37.37-7.55.37-6.37,1-15.17,1.77-24.88s1.6-18.48,2.23-24.83c.32-3.11.59-5.66.79-7.52.1-.83.18-1.51.25-2A2.93,2.93,0,0,1,69.61,253.64Z"/><path class="cls-2" d="M106.19,224c.18,0,.32,5.7.32,12.74s-.14,12.74-.32,12.74-.31-5.71-.31-12.74S106,224,106.19,224Z"/><path class="cls-11" d="M96.53,266.28A13,13,0,0,0,99.26,273c1.39,1.81,4.23,3.59,6.51,3.46,0,0,5.69.48,8.76-4.4,2.78-4.42,3.46-13.62,1.23-19.06-1.53-3.74-5-7.21-9-7.31-5.3-.12-8.63,3.71-9.76,7.59Z"/><path class="cls-2" d="M97,253.32a8.16,8.16,0,0,1,1-2.6,10.64,10.64,0,0,1,2-2.61,9.31,9.31,0,0,1,6.28-2.61,7.84,7.84,0,0,1,2.76.36,10.81,10.81,0,0,1,4.92,3.54,14.15,14.15,0,0,1,2.9,6,26.41,26.41,0,0,1,.54,7.15c-.25,3.77-1,7.53-3.08,10.4a9.27,9.27,0,0,1-4,3,10.84,10.84,0,0,1-4.53.76h0a6.8,6.8,0,0,1-3.25-.8,10.82,10.82,0,0,1-2.44-1.71,12.17,12.17,0,0,1-2.66-4,11.56,11.56,0,0,1-.84-2.93,5.74,5.74,0,0,1-.07-.79c0-.18,0-.27,0-.28a15.76,15.76,0,0,0,1.17,3.88,12.22,12.22,0,0,0,2.67,3.78,10.44,10.44,0,0,0,2.37,1.59,6.42,6.42,0,0,0,3,.71h0a9.62,9.62,0,0,0,8-3.63c2-2.69,2.7-6.38,2.93-10.08.26-4.77-.54-9.57-3.26-12.77a10.41,10.41,0,0,0-4.63-3.4,7.1,7.1,0,0,0-2.59-.37,9,9,0,0,0-6,2.38,11.09,11.09,0,0,0-2,2.47A21.4,21.4,0,0,0,97,253.32Z"/><path class="cls-11" d="M93.7,266.52a13.08,13.08,0,0,0,2.73,6.76c1.4,1.81,4.23,3.59,6.52,3.45,0,0,5.69.49,8.76-4.39,2.77-4.42,3.46-13.62,1.23-19.06-1.53-3.74-5-7.21-9-7.31-5.3-.12-8.63,3.71-9.76,7.59Z"/><path class="cls-2" d="M94.17,253.56a8.16,8.16,0,0,1,1-2.6,10.64,10.64,0,0,1,2-2.61,9.27,9.27,0,0,1,6.28-2.61,7.75,7.75,0,0,1,2.75.36,10.89,10.89,0,0,1,4.93,3.53,14.23,14.23,0,0,1,2.89,6,25.64,25.64,0,0,1,.54,7.15c-.24,3.77-1,7.53-3.07,10.4a9.3,9.3,0,0,1-4,3,10.84,10.84,0,0,1-4.53.76h0a6.89,6.89,0,0,1-3.25-.8,10.82,10.82,0,0,1-2.44-1.71,12,12,0,0,1-2.66-4,11.78,11.78,0,0,1-.84-2.93c0-.34-.07-.61-.08-.79a1.23,1.23,0,0,1,0-.28,16.15,16.15,0,0,0,1.18,3.88,12.22,12.22,0,0,0,2.67,3.78,10.9,10.9,0,0,0,2.37,1.59,6.39,6.39,0,0,0,3,.71h0a9.66,9.66,0,0,0,8-3.63c2-2.69,2.69-6.38,2.93-10.08.25-4.77-.54-9.57-3.26-12.77a10.38,10.38,0,0,0-4.64-3.4,7,7,0,0,0-2.58-.38,8.93,8.93,0,0,0-2.41.35,9.06,9.06,0,0,0-3.64,2,11.12,11.12,0,0,0-2,2.48A21.4,21.4,0,0,0,94.17,253.56Z"/><path class="cls-11" d="M98.82,252.2c-2.64-.52-5.36,1.29-6.47,3.73a10.7,10.7,0,0,0,0,7.87,9.73,9.73,0,0,0,2,3.54A5.27,5.27,0,0,0,98,269.09a6.27,6.27,0,0,0,5-2.94,11.18,11.18,0,0,0,1.7-9.25c-.55-2.09-2.09-4.23-4.25-4.29Z"/><path class="cls-2" d="M100.39,252.61a1.06,1.06,0,0,1,.48,0,3.32,3.32,0,0,1,1.31.44,6.42,6.42,0,0,1,2.76,4.15,11.39,11.39,0,0,1-.75,7.38,9.53,9.53,0,0,1-2.7,3.55,5.2,5.2,0,0,1-4.65,1.11,6.47,6.47,0,0,1-3.72-3A13.44,13.44,0,0,1,91.57,262a9.23,9.23,0,0,1,1.21-7.28,6.48,6.48,0,0,1,4.2-2.68,4.79,4.79,0,0,1,1.38,0,1.29,1.29,0,0,1,.46.13,9.19,9.19,0,0,0-1.79.11A6.45,6.45,0,0,0,93.14,255a8.94,8.94,0,0,0-1,6.91,13.3,13.3,0,0,0,1.51,4A5.93,5.93,0,0,0,97,268.63a4.62,4.62,0,0,0,4.1-1,9.11,9.11,0,0,0,2.56-3.3,11.15,11.15,0,0,0,.83-7,6.34,6.34,0,0,0-2.45-4A5.17,5.17,0,0,0,100.39,252.61Z"/><path class="cls-2" d="M104.9,272c-.1,0-.23-.38-.64-.87a4.5,4.5,0,0,0-2.06-1.31,11.17,11.17,0,0,0-2.53-.4c-.67-.05-1.1-.1-1.1-.19s.41-.19,1.1-.25a7,7,0,0,1,2.72.24,4,4,0,0,1,2.23,1.66C105,271.53,105,272,104.9,272Z"/><path class="cls-2" d="M105.85,250.56c.05.05-.19.43-.75.87a5.76,5.76,0,0,1-2.54,1.11,5.84,5.84,0,0,1-2.77-.15c-.68-.22-1-.49-1-.56s1.67.48,3.67.1S105.73,250.42,105.85,250.56Z"/><path class="cls-2" d="M188.69,164.2s.14,0,.39.15.62.29,1.08.55a22.47,22.47,0,0,1,3.61,2.59,25.94,25.94,0,0,1,7.76,12.27,79,79,0,0,1,2.95,14.3c.21,1.85.33,3.36.4,4.4a8.49,8.49,0,0,1,0,1.63,7.68,7.68,0,0,1-.28-1.6c-.15-1.16-.35-2.63-.59-4.38a93,93,0,0,0-3.11-14.17,26.75,26.75,0,0,0-7.46-12.12A42.45,42.45,0,0,0,188.69,164.2Z"/><path class="cls-2" d="M173.67,296.91c3.5-.14,6.29-3.62,9.78-3.43a4.85,4.85,0,1,1-.82,9.67c-3.67-.42-5.82-4.72-9.41-5.55Z"/><path class="cls-2" d="M203.3,299.88a20.79,20.79,0,0,1-3.27-.27l.19-1.19c4.32.7,7.94,0,10.78-2.1,3.57-2.62,5.87-7.32,6.84-13.94l0-.26c.39-2.62.93-54.19.94-64,0-15.29-13.43-17.38-14-17.46s-12.74-2.14-19.22,14.57c-6.77,17.49-17.61,51.19-18.33,55.14-.08.49-.22,1.08-.37,1.78-1.13,5.06-3.47,15.58,3.55,21.64,7.82,6.76,14,4.14,14.25,4l.49,1.1c-.28.13-7.09,3.07-15.53-4.22-7.57-6.53-5.12-17.53-3.94-22.81.15-.68.28-1.26.37-1.73.72-4,11.59-37.83,18.39-55.37s20.4-15.35,20.54-15.32,15,2.3,15,18.65c0,8.07-.53,61.37-1,64.16l0,.25c-1,7-3.48,11.92-7.31,14.74A13.85,13.85,0,0,1,203.3,299.88Z"/><path class="cls-2" d="M219.42,228a22.57,22.57,0,0,0-2.51-6,20.5,20.5,0,0,0-4.77-5.15,20.28,20.28,0,0,0-7.74-3.66,22.59,22.59,0,0,0-15.26,2,26.89,26.89,0,0,0-5.31,3.8s.08-.14.28-.37a9.66,9.66,0,0,1,.9-1,18,18,0,0,1,3.92-2.86,22.3,22.3,0,0,1,15.61-2.21,20.33,20.33,0,0,1,12.75,9.19,16.26,16.26,0,0,1,1.86,4.49,9.08,9.08,0,0,1,.24,1.3A1.29,1.29,0,0,1,219.42,228Z"/><path class="cls-2" d="M250.12,324.38a43.55,43.55,0,0,0-1.65-5.14,22.53,22.53,0,0,0-8.18-9.81,17.66,17.66,0,0,0-6.64-2.39,55.14,55.14,0,0,0-5.84-.61l-4-.28a6.67,6.67,0,0,1-1.45-.19,6,6,0,0,1,1.46,0l4,.08a49.37,49.37,0,0,1,5.92.47,17.73,17.73,0,0,1,6.88,2.44,21.87,21.87,0,0,1,8.25,10.17,19.91,19.91,0,0,1,1.1,3.85A6.14,6.14,0,0,1,250.12,324.38Z"/><path class="cls-7" d="M189.31,304.26s11.85-17.95,14.88-20.31,28.91-14,31.94-12.15,1.16,5.95,1.16,5.95,11-3.84,12.12-2.32a5.4,5.4,0,0,1,0,6.17s6.06-.93,6.06.93-.69,4.2-3.49,6.3-21,14.2-22.45,17.55l-5.89-.36Z"/><path class="cls-8" d="M223.42,299.13A4.59,4.59,0,0,1,224,298a20.45,20.45,0,0,1,1.94-2.81,32.78,32.78,0,0,1,8.6-7.24,65.53,65.53,0,0,1,10.17-4.78c1.34-.51,2.44-.9,3.2-1.15a4.63,4.63,0,0,1,1.21-.34,5.32,5.32,0,0,1-1.12.57l-3.12,1.33a81.64,81.64,0,0,0-10,4.91,35.71,35.71,0,0,0-8.59,7C224.37,297.62,223.52,299.19,223.42,299.13Z"/><path class="cls-8" d="M208.39,298.84a5.58,5.58,0,0,1,.57-1.32c.41-.83,1-2,1.82-3.47a33.84,33.84,0,0,1,3.27-4.84,15.28,15.28,0,0,1,2.49-2.46c1-.68,2.05-1.31,3.14-2A86.12,86.12,0,0,1,231.25,279a36.71,36.71,0,0,1,3.73-1.25,6.54,6.54,0,0,1,1.42-.25c0,.11-2,.57-5,1.91A111.42,111.42,0,0,0,220,285.34c-1.07.64-2.13,1.27-3.11,1.91a16.48,16.48,0,0,0-2.39,2.33,37,37,0,0,0-3.32,4.69l-2,3.36A7.48,7.48,0,0,1,208.39,298.84Z"/><path class="cls-3" d="M479.83,270.6V423.91H331.17l11.71-46.39,1.65-6.55-2.94-34.08S334,313.34,334,307.38c0-14,.7-29.93,3.46-42.56.17-.76.34-1.51.52-2.24,5.42-21.94,31.39-43.51,31.39-43.51l17.14-2.77s1.17,7.33,15.42,9.6c18.37,2.94,42.22-11.23,42.22-11.23l31,11.73Z"/><path class="cls-3" d="M355.05,321l-33.69-3.67V279.68c-.32-31.78,16.67-60.61,48-60.61h0l-5.49,77Z"/><path class="cls-2" d="M340.19,330.5a4,4,0,0,1-.4-.75c-.22-.51-.6-1.25-1-2.23A63.36,63.36,0,0,1,336,319c-1.92-7.34-3-17.9-1.91-29.43a182.78,182.78,0,0,1,5.42-29.06c.94-3.66,1.76-6.61,2.34-8.64.28-1,.51-1.74.68-2.34a3.94,3.94,0,0,1,.28-.8,4.45,4.45,0,0,1-.15.84c-.15.6-.33,1.39-.57,2.36-.52,2.13-1.24,5.08-2.13,8.69a200.57,200.57,0,0,0-5.22,29,92.75,92.75,0,0,0,1.71,29.27,71.2,71.2,0,0,0,2.57,8.54c.35,1,.69,1.75.87,2.27A4.55,4.55,0,0,1,340.19,330.5Z"/><path class="cls-12" d="M333.07,300.41l1.37-1a152.27,152.27,0,0,1,8.11-49.64C332.43,264.77,328.12,283.65,333.07,300.41Z"/><path class="cls-13" d="M376,292.89s21.48,79.44,33.43,94,18.49,18.92,36.94,20.39,25.29-19.87,29.39-28.19,3.35-20.81,3.35-20.81l-25.14-14.05L434.05,377l-51.24-85.54Z"/><path class="cls-1" d="M379.34,303.23s21.86,50.86,37.53,80c13.27,24.68,40.34,21.94,48.93,8.21s23-54.85,23-54.85l-45.66-8L438,343.05,403.4,298.91Z"/><path class="cls-1" d="M416.69,295.9l-3.36-15.21s-1.53-4.21-4-.49S408,290.92,408,290.92s-4.72-36.18-8.88-40.12c-1.52-1.44-3.6.54-3.6.54s-.49-7.08-2.7-7-4.32,5.32-4.32,5.32a4,4,0,0,0-4.92,1.12c-1.94,2.36-1.95,22-1.95,22s-1.85-16.2-4.75-17.22c-4.65-1.64-4.65,4.53-4.65,4.53l1.36,21.09s2.53,14.39,5.73,23.44,5.06,9.14,5.06,9.14l20.85-.55s4.7-4.3,8.4-7.63A10,10,0,0,0,416.69,295.9Z"/><path class="cls-1" d="M452.06,363.56a2.8,2.8,0,0,1-.36-.63c-.23-.49-.53-1.1-.89-1.85l-1.62-2.82c-.66-1.08-1.47-2.28-2.34-3.62-3.6-5.28-9.05-12.25-15.26-19.8s-11.93-14.29-15.95-19.28c-2-2.5-3.6-4.55-4.67-6l-1.19-1.69a2.88,2.88,0,0,1-.38-.61,2.85,2.85,0,0,1,.49.54l1.28,1.61c1.13,1.39,2.77,3.39,4.83,5.84,4.1,4.91,9.88,11.62,16.1,19.17s11.61,14.58,15.14,19.95c.84,1.36,1.63,2.59,2.27,3.69s1.13,2.09,1.53,2.89l.79,1.92A3.11,3.11,0,0,1,452.06,363.56Z"/><path class="cls-3" d="M470,225.05s24.93,5.09,31.2,33.31c5.77,25.95,4,81.13,4,81.13l-67.88-11.94,16.51-94.23Z"/><path class="cls-3" d="M446.89,270.07a1,1,0,0,1,0,.3q0,.35-.12.87c-.12.81-.28,1.92-.49,3.33-.47,2.95-1.14,7.13-2,12.29-1.72,10.42-4.09,24.78-6.73,40.74l-.26-.38,2.22.4,42.13,7.61,12.75,2.38,3.47.67.89.2c.21,0,.31.07.31.09a1.27,1.27,0,0,1-.32,0l-.91-.13-3.48-.55-12.79-2.18-42.17-7.41-2.22-.4-.32-.06.06-.32,6.92-40.71c.91-5.14,1.64-9.31,2.16-12.25l.62-3.32c.07-.34.13-.62.17-.85A1.54,1.54,0,0,1,446.89,270.07Z"/><path d="M450.7,261a8.4,8.4,0,0,1,.52-1.62c.37-1,.94-2.5,1.7-4.29,1.56-3.55,3.87-8.61,8.16-12.9a24.31,24.31,0,0,1,6.93-4.83,27.81,27.81,0,0,1,6.58-2.1,26.93,26.93,0,0,1,4.61-.48,8.1,8.1,0,0,1,1.7.08c0,.14-2.43,0-6.22.86a26.39,26.39,0,0,0-13.14,6.94c-4.18,4.17-6.53,9.13-8.19,12.61l-1.9,4.21A8,8,0,0,1,450.7,261Z"/><path class="cls-14" d="M388.06,276a23.19,23.19,0,0,1-.34-3.85c-.13-2.38-.26-5.68-.28-9.32a92.42,92.42,0,0,1,.38-9.33,17.08,17.08,0,0,1,.63-3.82,33.74,33.74,0,0,1-.17,3.85c-.13,2.38-.2,5.66-.18,9.3s.06,6.72.08,9.3A22.63,22.63,0,0,1,388.06,276Z"/><path class="cls-14" d="M395,251.59a17.18,17.18,0,0,1,.2,3.15c.06,1.94.14,4.61.29,7.57s.35,5.63.49,7.56a15.73,15.73,0,0,1,.12,3.15,14.56,14.56,0,0,1-.58-3.1c-.26-1.93-.53-4.61-.69-7.58s-.16-5.66-.1-7.6A14.13,14.13,0,0,1,395,251.59Z"/><path class="cls-14" d="M400.59,178a5.92,5.92,0,0,0-3.45-5.05,5.25,5.25,0,0,0-5.89,1.27,4.72,4.72,0,0,0-.3,5.66,5.2,5.2,0,0,0,2.27,2,6.54,6.54,0,0,0,3.86.41,4.48,4.48,0,0,0,2.79-1.52A4.17,4.17,0,0,0,400.59,178Z"/><path class="cls-2" d="M398.57,170.25c-.6,0-.27,4-3.45,7.11s-7.46,3-7.44,3.59c0,.25,1,.69,2.8.59a10,10,0,0,0,6.24-2.76,8.67,8.67,0,0,0,2.64-5.95C399.37,171.15,398.85,170.2,398.57,170.25Z"/><rect class="cls-15" y="422.8" width="540.79" height="6"/></svg>