<svg id="Layer_1" data-name="Layer 1" xmlns="http://www.w3.org/2000/svg" xmlns:xlink="http://www.w3.org/1999/xlink" viewBox="0 0 391.83 403.15"><defs><style>.cls-1{fill:none;}.cls-2{fill:#f5f5f5;}.cls-3{clip-path:url(#clip-path);}.cls-4{fill:#e0e0e0;}.cls-5{fill:#455a64;}.cls-6{fill:#ffbe9d;}.cls-7{fill:#ff725e;}.cls-8{fill:#263238;}</style><clipPath id="clip-path"><circle class="cls-1" cx="195.91" cy="207.23" r="195.91"/></clipPath></defs><circle class="cls-2" cx="195.91" cy="207.23" r="195.91"/><g class="cls-3"><polygon class="cls-4" points="274.88 -141.2 296.41 329.48 305.76 329.48 290.32 -6.27 286.42 -141.2 274.88 -141.2"/><path class="cls-5" d="M294.89,316.7h13.76l3.29,23.15s-20,.36-20,0S294.89,316.7,294.89,316.7Z"/><path class="cls-6" d="M122.28-1.38s-12.5,8-11.56,11.56,5.75,16.15,5.75,16.15l15.13,1.19L140,26.33s6.53-8.32,4.48-9.62-6.9,0-6.9,0V9.06s1.68.37,4.66-3.92,3.64-10.25,3.64-10.25l5.69-59.68,1.23-22.78,9.4-48.27L134-141.2s-1.68,33.15-2.43,38-8.76,29.66-8,36.18,5.09,63,5.09,63Z"/><path class="cls-7" d="M267.17,277.87l-1.56,39.57s39.69,14.87,40.12,22.21l-76.82-.26-.11-61.75Z"/><path class="cls-4" d="M241.87,314a3.13,3.13,0,0,0-2.18,3.57,3,3,0,0,0,3.52,2.19c1.49-.37,2.8-2.33,2.29-3.79s-2.56-2.6-3.92-1.88"/><path class="cls-8" d="M228.91,339.39l.23-6.23,73.57,2.58s3.41,1.5,3,3.91Z"/><path class="cls-8" d="M266.86,317.05c0,.38-1.89.54-3.74,1.74s-2.84,2.77-3.18,2.62.22-2.31,2.48-3.72S266.94,316.71,266.86,317.05Z"/><path class="cls-8" d="M274.9,320.41c.09.36-1.54,1-2.82,2.58s-1.65,3.26-2,3.24-.61-2.14,1-4.08S274.9,320.05,274.9,320.41Z"/><path class="cls-8" d="M279.45,330.07c-.34.08-.86-1.8.11-3.85s2.73-2.86,2.89-2.55-.94,1.41-1.71,3.11S279.82,330,279.45,330.07Z"/><path class="cls-8" d="M165.84-51l-1.14,5.13c-.65-1.31-12,33.72-16.76,75.82-3.53,31.35-1.21,80.7-.32,91,3,34.2,4.53,72.58,4.53,72.58l46.74,3.19c.77-1.71,16.59-135.32,16.59-135.32l3.3-15.59V-39.6Z"/><path class="cls-8" d="M212.86,31c.74,3.69,8.54,99.38,8.54,99.38l5.45,181,48,.41s6.52-60,6.65-115c.08-36.93.12-52.35.12-76.38,0-2.33,8.33-39.9,8.65-79.78s-3.9-96-3.9-96L218.78-39.6Z"/><path class="cls-5" d="M214.21,54.38a10.51,10.51,0,0,1-.5-2.38c-.27-1.55-.52-3.8-.74-6.59-.46-5.59-.48-13.34-.33-21.86s.09-16.22-.35-21.77-1-9-.81-9a10.27,10.27,0,0,1,.61,2.36c.33,1.53.67,3.77,1,6.56a179.18,179.18,0,0,1,.68,21.86c-.16,8.52-.26,16.22,0,21.79S214.4,54.36,214.21,54.38Z"/><path class="cls-5" d="M224.56-6.43c0-.06.4,0,1,.36a4.22,4.22,0,0,1,1.64,2.29,4.28,4.28,0,0,1-.82,4.17,4.89,4.89,0,0,1-5,1.34,4.52,4.52,0,0,1-3-4.21,4.32,4.32,0,0,1,1.86-3.8,5,5,0,0,1,2.68-.86c.67,0,1,.12,1,.19s-1.53,0-3.22,1.29a3.59,3.59,0,0,0-1.31,3.13A3.56,3.56,0,0,0,221.67.68a4,4,0,0,0,3.93-1,3.54,3.54,0,0,0,.82-3.26C225.93-5.68,224.43-6.28,224.56-6.43Z"/><path class="cls-5" d="M188.17-7c.07.09-1.41,1.4-4.2,3a37,37,0,0,1-11.73,4,37.12,37.12,0,0,1-12.41-.06c-3.14-.58-5-1.34-4.93-1.45,0-.38,7.7,2,17.16.42S188-7.32,188.17-7Z"/><path class="cls-4" d="M142.71-139.63,114.59,77.59S112,151.72,112,156.32s-12.78,103-12.78,103l-7.88,61L103.86,318s23.52-171.89,23.52-173.43,11.24-44,12.27-49.08c.92-4.62,26.52-185.85,28.88-221,.08-1.23-1.29-3.13-1.29-3.13l-2.82-6-5.06-.82L131.47,94l-11.25,45.5L123.29,74l27.59-213.64Z"/><path class="cls-8" d="M131.18,8.47,143.38,10s3.72,3.69,0,6.8H130.11l1.07-8.32"/><path class="cls-5" d="M91.17,312.49h13.76l3.86,27.1s-22.83.35-22.83,0S91.17,312.49,91.17,312.49Z"/><path class="cls-4" d="M151.47,184.21s-5.73,1.68-7.62,12.52,6,106,6,106l-21.69,43.78s-2.94,3-.79,11.83,32.32,15.44,39.91,11.38,27.05-35.2,30.24-41.84,5.19-56.79,4.17-61.88,5.12-73.75,1.58-78.81C201.26,184.3,151.47,184.21,151.47,184.21Z"/><path class="cls-8" d="M200.32,319a8.11,8.11,0,0,1-2.06.87,41.2,41.2,0,0,1-5.91,1.47,54.71,54.71,0,0,1-20-.6,66.67,66.67,0,0,1-18.78-7,34.85,34.85,0,0,1-5-3.44,6.75,6.75,0,0,1-1.58-1.58,79.84,79.84,0,0,0,7,4.33,74.83,74.83,0,0,0,18.62,6.63,59.45,59.45,0,0,0,19.68.91C197.27,319.84,200.26,318.76,200.32,319Z"/><path class="cls-8" d="M200.86,277.6a8.36,8.36,0,0,1-1.31,1.86,39.47,39.47,0,0,1-4.33,4.45,61.32,61.32,0,0,1-17.5,10.52c-1.86.74-3.6,1.48-5.31,2.29a21.55,21.55,0,0,1-5.25,1.66c-3.41.67-6.48,1.07-9.07,1.42s-4.68.59-6.13.73a8.9,8.9,0,0,1-2.27.11,9.71,9.71,0,0,1,2.21-.54L158,299c2.57-.45,5.64-.93,9-1.65a21,21,0,0,0,5-1.65c1.68-.81,3.5-1.59,5.34-2.33a67.59,67.59,0,0,0,17.41-10.08C198.71,280,200.71,277.47,200.86,277.6Z"/><path class="cls-8" d="M201.53,265.08a5.8,5.8,0,0,1-1.87,1.19,21.78,21.78,0,0,1-5.81,1.67,160.5,160.5,0,0,1-19.74,1.3,179.32,179.32,0,0,1-19.76-.89c-2.51-.26-4.54-.53-5.94-.75a8.24,8.24,0,0,1-2.16-.47c0-.16,3.14.12,8.17.44s12,.65,19.68.56,14.66-.46,19.64-1A27.43,27.43,0,0,0,201.53,265.08Z"/><path class="cls-8" d="M203.28,231.47a7.66,7.66,0,0,1-1.87,1.42,36.74,36.74,0,0,1-5.72,2.88c-5,2.06-12.24,3.9-20.2,5.91s-15.28,3.37-20.59,4.22c-2.66.43-4.81.73-6.31.91a10.27,10.27,0,0,1-2.34.16,9.28,9.28,0,0,1,2.27-.58l6.24-1.26c5.26-1,12.52-2.58,20.47-4.53s15.17-3.72,20.18-5.56A82.54,82.54,0,0,0,203.28,231.47Z"/><path class="cls-8" d="M204.08,208a9.23,9.23,0,0,1-2.3.66c-1.5.37-3.7.78-6.43,1.19a100.07,100.07,0,0,1-42.74-3.07c-2.64-.8-4.75-1.52-6.18-2.1a9.66,9.66,0,0,1-2.19-1c.06-.18,3.28.94,8.58,2.32A114.69,114.69,0,0,0,195.25,209C200.7,208.41,204.05,207.77,204.08,208Z"/><path class="cls-8" d="M189.51,340c-.07.15-2.76-1-7.13-2.7s-10.42-4.06-17.21-6.34-13-4.1-17.54-5.4-7.32-2.11-7.28-2.27a7.94,7.94,0,0,1,2,.29c1.3.25,3.16.67,5.45,1.22,4.58,1.11,10.86,2.83,17.69,5.11s12.87,4.74,17.17,6.67c2.15,1,3.87,1.78,5,2.39A7.42,7.42,0,0,1,189.51,340Z"/><path class="cls-8" d="M171,366.68c-.13.12-2-1.84-5.21-4.73A85.74,85.74,0,0,0,152,352.12c-5.64-3.45-11.11-6-14.75-8.51s-5.48-4.54-5.36-4.62,2,1.77,5.78,4,9.2,4.73,14.9,8.22a71.67,71.67,0,0,1,13.71,10.2c1.57,1.53,2.75,2.85,3.55,3.78S171,366.63,171,366.68Z"/></g></svg>