<svg id="Layer_1" data-name="Layer 1" xmlns="http://www.w3.org/2000/svg" xmlns:xlink="http://www.w3.org/1999/xlink" viewBox="0 0 454.3 452.33"><defs><style>.cls-1{fill:none;}.cls-2{fill:#e8505b;}.cls-3{clip-path:url(#clip-path);}.cls-4{fill:#263238;}.cls-5{fill:#c17878;}.cls-6{fill:#a56767;}.cls-7{fill:#455a64;}.cls-8{fill:#ff725e;}.cls-9{fill:#b55462;}.cls-10{opacity:0.26;}</style><clipPath id="clip-path"><circle class="cls-1" cx="228.13" cy="226.17" r="226.17"/></clipPath></defs><circle class="cls-2" cx="226.17" cy="226.17" r="226.17"/><g class="cls-3"><path class="cls-4" d="M296.14,144.74a22.59,22.59,0,0,0-1.62-39.35l-27.12-5.26q1.08,51,1.48,102c6.92-1.3,14-3.42,19.19-8.18s8-12.73,5-19.09a17.9,17.9,0,0,0,3.11-30.15Z"/><path class="cls-5" d="M288.47,228.47c-.05.46-.1.9-.16,1.34-4.42,34.75-29.14,42.19-32.82,43.11l-.46.1.49,7.84h0l0,.75,1.72,27.32.06,1c.23,5.57-.79,10.05-2.83,13.66-.12.23-.26.47-.4.7A22.9,22.9,0,0,1,243.6,333l-.51.23a49.93,49.93,0,0,1-11.5,3.22l-.13,0h-.06a104.78,104.78,0,0,1-12.73,1.25c-.58,0-1.15,0-1.73,0a35.33,35.33,0,0,1-4.39-.26.34.34,0,0,1-.14,0,1.76,1.76,0,0,1-.33,0,38.61,38.61,0,0,1-15.24-5.27,3.79,3.79,0,0,1-.34-.2,38.92,38.92,0,0,1-12.82-12.8h0a7,7,0,0,1-.46-.74,38.46,38.46,0,0,1-4.79-13.12c-.22-1.21-.37-2.44-.47-3.68l-1.75-22.79-.64-8.43-2.94-38.27-.83-10.89-1.21-15.66-1.17-15.34-.49-6.4h0l-.07-.84-3.08-40.11-.6-12,72-16c10.54-1.44,21.65,2.63,30.66,9.72a53.23,53.23,0,0,1,10.47,10.89,7.57,7.57,0,0,1,.52.74,43.85,43.85,0,0,1,2.41,3.83,39.86,39.86,0,0,1,5.19,15.8c1.1,11.75,2.11,24.75,2.61,37.16,0,.15,0,.29,0,.44C289.6,206.49,289.55,218.9,288.47,228.47Z"/><path class="cls-4" d="M273.92,182.68a4.8,4.8,0,0,1-4.47,5,4.58,4.58,0,0,1-5.08-4.17,4.79,4.79,0,0,1,4.47-5A4.6,4.6,0,0,1,273.92,182.68Z"/><path class="cls-4" d="M278.59,171.09c-.58.64-4.29-1.93-9.45-1.76s-8.86,2.87-9.44,2.26c-.28-.27.29-1.42,1.9-2.67a13.15,13.15,0,0,1,7.53-2.58,12.66,12.66,0,0,1,7.54,2.18C278.3,169.69,278.87,170.8,278.59,171.09Z"/><path class="cls-4" d="M225.59,184.15a4.81,4.81,0,0,1-4.47,5A4.59,4.59,0,0,1,216,185a4.81,4.81,0,0,1,4.47-5A4.6,4.6,0,0,1,225.59,184.15Z"/><path class="cls-4" d="M230.26,172.38c-.58.64-4.3-1.93-9.45-1.76s-8.86,2.87-9.44,2.26c-.28-.27.28-1.42,1.9-2.67a13.1,13.1,0,0,1,7.53-2.58,12.67,12.67,0,0,1,7.55,2.18C230,171,230.54,172.09,230.26,172.38Z"/><path class="cls-4" d="M248.74,211.31c0-.3,3.15-.95,8.33-1.78,1.31-.17,2.55-.47,2.75-1.38s-.32-2.36-1-3.88l-4.21-9.91c-5.85-14.11-10.14-25.73-9.57-26s5.78,11,11.64,25.14q2.11,5.22,4,10c.55,1.48,1.46,3.15.84,5.15a3.28,3.28,0,0,1-2.1,2,9.21,9.21,0,0,1-2.23.38C252,211.47,248.77,211.6,248.74,211.31Z"/><path class="cls-6" d="M255.47,272.28s-26.37,2.37-51.75-11.84c0,0,13.44,25.78,52,21.16Z"/><path class="cls-4" d="M203.72,157.25c-.08-1.49,4.93-2.87,10.24-5.88s9.18-6.43,10.41-5.58c.56.41.28,2-1,4a20.54,20.54,0,0,1-15.73,8.73C205.23,158.53,203.77,158,203.72,157.25Z"/><path class="cls-4" d="M262.4,146.91c1.34-.69,5.06,1.59,9.91,3.13s9.19,2.08,9.82,3.42c.26.64-.7,1.45-2.79,1.84a18,18,0,0,1-8.59-.83,17.59,17.59,0,0,1-7.31-4.45C262,148.46,261.79,147.26,262.4,146.91Z"/><path class="cls-4" d="M299,121.09c7.36-5.33,10.62-15.48,8.3-24.26S297.48,81,288.71,78.63a27.84,27.84,0,0,0-5.45-.84,24,24,0,0,0-11.72-3c-.72-4.79-5.14-8.39-9.86-9.51s-9.68-.22-14.37,1a24.4,24.4,0,0,0-39.22,2.94,20,20,0,0,0-29.16,13.2,19.91,19.91,0,0,0-14.05,7.15,19.26,19.26,0,0,0-3.06,5.24,18.85,18.85,0,0,0-3.31,7.49,22.47,22.47,0,0,0-8.89,41.23A20.54,20.54,0,0,0,155.11,176a26.27,26.27,0,0,0,2.65,20.51c1.57,2.62,3.93,5.08,6.77,5.92a5,5,0,0,0,.62,1.38c2.34,3.43,7.8,1.74,11-.94,7.7-6.53,11.64-16.52,13.58-26.43s2.17-20.08,4-30c0-.22.09-.45.13-.7a27.38,27.38,0,0,1,5-11.35,71.7,71.7,0,0,0,9.14,5.47c11.51,5.27,26.37,1.84,34.41-7.95a43.68,43.68,0,0,0,28.08,9.28c10.06-.29,20-2.48,27.48-9.17a14,14,0,0,0,4.18-6.42C302.67,123.79,300.84,121.58,299,121.09Z"/><path class="cls-5" d="M173.8,191.33c-.5-.25-20.31-7.07-20.62,13.46s20.35,16.6,20.4,16S173.8,191.33,173.8,191.33Z"/><path class="cls-6" d="M167.43,212.93c-.09-.06-.36.25-1,.52a3.58,3.58,0,0,1-2.68,0c-2.15-.83-3.92-4.3-4-8a12,12,0,0,1,1.08-5.11,4.14,4.14,0,0,1,2.73-2.7,1.83,1.83,0,0,1,2.1,1c.27.58.13,1,.24,1s.44-.34.29-1.19a2.27,2.27,0,0,0-.79-1.3,2.69,2.69,0,0,0-2-.55c-1.58.08-3,1.52-3.78,3.12a12.23,12.23,0,0,0-1.33,5.7c.07,4.14,2.13,8.05,5.08,8.95a3.85,3.85,0,0,0,3.28-.49C167.38,213.43,167.5,213,167.43,212.93Z"/><path class="cls-7" d="M306.16,93.48a1.79,1.79,0,0,1,.19.48,11.85,11.85,0,0,1,.38,1.47,15.65,15.65,0,0,1,0,5.8,15.4,15.4,0,0,1-4.21,8A16.13,16.13,0,0,1,291.64,114l.36-.32a35.29,35.29,0,0,1-8.22,18,27.31,27.31,0,0,1-8.92,7,22.69,22.69,0,0,1-11.77,1.93,40,40,0,0,1-11.43-2.7,30.86,30.86,0,0,1-9.56-5.56h.62c-5.18,5-11.16,8.49-17,9.82A29.22,29.22,0,0,1,210.23,141a30.6,30.6,0,0,1-8.94-4.86c-.93-.74-1.61-1.35-2-1.78a4.33,4.33,0,0,1-.64-.69c.05-.05,1,.84,2.87,2.23a31.58,31.58,0,0,0,8.93,4.57,29,29,0,0,0,15.11.85c5.69-1.33,11.54-4.81,16.58-9.71l.31-.3.31.29A30.31,30.31,0,0,0,252,137a39.45,39.45,0,0,0,11.17,2.62,21.68,21.68,0,0,0,11.31-1.83,26.44,26.44,0,0,0,8.64-6.69,34.73,34.73,0,0,0,8.15-17.48l0-.32h.32a15.55,15.55,0,0,0,10.46-4.4,15.1,15.1,0,0,0,4.21-7.69,16.17,16.17,0,0,0,.22-5.68C306.32,94.17,306.11,93.49,306.16,93.48Z"/><path class="cls-7" d="M161.39,101.16a43.35,43.35,0,0,0-1.76,7.06,29.35,29.35,0,0,0,3.42,18.24l.17.29L163,127a18.89,18.89,0,0,0-5.4,8.37,18.15,18.15,0,0,0-.07,10.92,19,19,0,0,0,8.82,10.84l.38.21-.2.39a23.56,23.56,0,0,0-2.3,12.82,25.56,25.56,0,0,0,3,9.92c2.87,5.18,6,7.09,5.87,7.24,0,0-.2-.1-.54-.35a18.11,18.11,0,0,1-1.45-1.17,22.69,22.69,0,0,1-4.37-5.44,25.45,25.45,0,0,1-3.29-10.13,24.11,24.11,0,0,1,2.26-13.3l.18.6a19.73,19.73,0,0,1-9.28-11.35,18.92,18.92,0,0,1,.09-11.47,19.53,19.53,0,0,1,5.72-8.72l-.09.51a29.15,29.15,0,0,1-3.19-18.72,25.9,25.9,0,0,1,1.43-5.23c.22-.59.44-1,.57-1.32S161.37,101.15,161.39,101.16Z"/><path class="cls-6" d="M228.13,190.05a7.53,7.53,0,0,1-2.21,1.3,19.21,19.21,0,0,1-6,1.52,18.89,18.89,0,0,1-6.19-.48,7.57,7.57,0,0,1-2.41-.9c0-.2,3.78,1.22,8.55.78S228.06,189.86,228.13,190.05Z"/><path class="cls-6" d="M224.78,194.62a6.53,6.53,0,0,1-3.63,1.12,6.73,6.73,0,0,1-3.77-.51c0-.18,1.7.08,3.72-.1S224.72,194.45,224.78,194.62Z"/><path class="cls-6" d="M253.53,154.13a9.61,9.61,0,0,1-2.64,1.25,25.37,25.37,0,0,1-13.92.91,9.71,9.71,0,0,1-2.77-.9c0-.2,4.32,1.2,9.76.81S253.46,153.94,253.53,154.13Z"/><path class="cls-6" d="M246.55,151.92c.08.13-2.28,1.26-5.42,1.15a9.64,9.64,0,0,1-5.34-1.47c.07-.18,2.36.79,5.36.86S246.49,151.74,246.55,151.92Z"/><path class="cls-6" d="M279,187a5.08,5.08,0,0,1-1.78,1.28,12.57,12.57,0,0,1-10.37.42,5.16,5.16,0,0,1-1.89-1.13,17.16,17.16,0,0,1,2,.73,14.24,14.24,0,0,0,10-.41A18.39,18.39,0,0,1,279,187Z"/><path class="cls-6" d="M275.62,190.91c0,.06-.36.41-1.16.75a7.05,7.05,0,0,1-3.29.49,7,7,0,0,1-3.16-1c-.73-.46-1.07-.88-1-.93s1.75,1.19,4.23,1.37S275.55,190.74,275.62,190.91Z"/><path class="cls-8" d="M323.36,286.44l-42.26-9.68a43.5,43.5,0,0,0-24.69,1.55h0c-9.42,31.4-59.53,21-78.62.48L175,279l-41.71,7.49-4.72,134.27,50.66,88.53,103.5.72,42.7-98.25Z"/><path class="cls-8" d="M230.07,331.38c2.72,2.79,9.19,82.91,19.77,105.75,4.33,9.34,7.25,20.86,10.88,31.46,5.25,15.3,10.94,29.12,15.66,35.37,8,10.58,41.41,27.85,59.79,23.95s22.28-42.89,25.06-56.25,3.34-57.93,3.34-62.94,2.67-29.1,2.11-42.09c-.8-18.57-6-73.81-43.32-80.19l-11.14,37.63L305,414.29s-36.2-81.87-36.76-83.54-2.55-28-2.55-28l-32,23.53Z"/><path class="cls-8" d="M133.25,286.44s-33.91,9.07-36.8,52.5c-2.69,40.35-5.81,59-7.14,89.6-1,23.72,5.61,55.36,8.48,63.44s25.68,29.3,34,32.43,38.19,3.9,46.46-7.4c7.9-10.79,18.07-58.14,18.07-58.14l14.36-85s1.55-23.82,1.75-30.41c.23-7.83.08-21.75.08-21.75L178,305.15l-30.89,89.24s.44-67.45-2.17-80S133.25,286.44,133.25,286.44Z"/><path class="cls-4" d="M335.34,294.25c.05.11-1.92,1-4.8,2.85a42,42,0,0,0-4.78,3.66,45.16,45.16,0,0,0-5.07,5.35,45.87,45.87,0,0,0-4.06,6.16,42,42,0,0,0-2.47,5.5c-1.18,3.23-1.56,5.34-1.68,5.32a7.28,7.28,0,0,1,.22-1.49,15.89,15.89,0,0,1,.39-1.73c.19-.66.36-1.43.66-2.24a38,38,0,0,1,2.39-5.62,39.66,39.66,0,0,1,9.25-11.67,37.35,37.35,0,0,1,4.92-3.6,23,23,0,0,1,2-1.16,15.14,15.14,0,0,1,1.59-.78A7.07,7.07,0,0,1,335.34,294.25Z"/><path class="cls-4" d="M135.17,337.82a11.28,11.28,0,0,1-.44-1.74c-.23-1.12-.62-2.74-1.15-4.72A87.72,87.72,0,0,0,120,302.56c-1.19-1.66-2.2-3-2.92-3.88a11,11,0,0,1-1.06-1.44,9.84,9.84,0,0,1,1.24,1.29c.78.85,1.84,2.14,3.09,3.78A78.8,78.8,0,0,1,134,331.26c.47,2,.8,3.64,1,4.78A8.6,8.6,0,0,1,135.17,337.82Z"/><path class="cls-4" d="M120,283.18a12.25,12.25,0,0,0-1.89,0,6.64,6.64,0,0,0-4.35,2.34,6.07,6.07,0,0,0-1.33,3.15,6.32,6.32,0,0,1-.57,2,3.28,3.28,0,0,1-1.72,1.47c-1.49.52-3.07.28-4.62.32a7.26,7.26,0,0,0-2.28.31,3.08,3.08,0,0,0-1.72,1.39c-.77,1.37-.71,3.06-.81,4.63a11.74,11.74,0,0,1-.31,2.36,3.91,3.91,0,0,1-1.2,2,4.22,4.22,0,0,1-2,.91,10,10,0,0,0-1.9.47,5.52,5.52,0,0,0-2.59,2.19,6.46,6.46,0,0,0-.92,4.85,10.5,10.5,0,0,0,.66,1.76s-.13-.13-.31-.4a4.57,4.57,0,0,1-.58-1.31,6.54,6.54,0,0,1,.79-5.13,5.89,5.89,0,0,1,2.76-2.42c1.25-.56,2.77-.42,3.76-1.34s1.21-2.46,1.28-4,0-3.3.88-4.91a3.72,3.72,0,0,1,2-1.65,7.61,7.61,0,0,1,2.47-.33,14.74,14.74,0,0,0,4.43-.26,2.7,2.7,0,0,0,1.45-1.2,5.88,5.88,0,0,0,.54-1.83,6.39,6.39,0,0,1,1.5-3.34,6.75,6.75,0,0,1,4.66-2.3,5.27,5.27,0,0,1,1.42.12A1.5,1.5,0,0,1,120,283.18Z"/><path class="cls-4" d="M115.31,279.27a12.06,12.06,0,0,0-1.88,0,6.64,6.64,0,0,0-4.35,2.34,6,6,0,0,0-1.33,3.16,6.19,6.19,0,0,1-.57,2,3.28,3.28,0,0,1-1.72,1.47,14.61,14.61,0,0,1-4.62.32,7.57,7.57,0,0,0-2.28.31,3.17,3.17,0,0,0-1.73,1.39c-.76,1.37-.71,3.07-.8,4.63a12.4,12.4,0,0,1-.31,2.36,3.91,3.91,0,0,1-1.2,2,4.12,4.12,0,0,1-2,.91,10.88,10.88,0,0,0-1.89.47A5.58,5.58,0,0,0,88,302.8a6.53,6.53,0,0,0-.93,4.85,13.29,13.29,0,0,0,.66,1.76,1.7,1.7,0,0,1-.3-.39,4.18,4.18,0,0,1-.58-1.31,6.57,6.57,0,0,1,.79-5.14,6,6,0,0,1,2.76-2.42c1.24-.56,2.76-.41,3.75-1.34s1.22-2.46,1.28-4,0-3.29.88-4.9a3.73,3.73,0,0,1,2-1.66,7.67,7.67,0,0,1,2.48-.33,15,15,0,0,0,4.42-.25,2.81,2.81,0,0,0,1.46-1.2,6.25,6.25,0,0,0,.54-1.83,6.34,6.34,0,0,1,1.49-3.34,6.76,6.76,0,0,1,4.66-2.31,5.81,5.81,0,0,1,1.43.12C115.16,279.2,115.32,279.25,115.31,279.27Z"/><path class="cls-4" d="M369,308.24a13.06,13.06,0,0,0,0-1.88,6.63,6.63,0,0,0-2.43-4.3,6,6,0,0,0-3.18-1.27,6.19,6.19,0,0,1-2-.53,3.24,3.24,0,0,1-1.5-1.69,14.26,14.26,0,0,1-.42-4.61,7.19,7.19,0,0,0-.36-2.27,3.07,3.07,0,0,0-1.43-1.7c-1.38-.74-3.07-.64-4.64-.71a12.64,12.64,0,0,1-2.37-.26,3.93,3.93,0,0,1-2.05-1.15,4.13,4.13,0,0,1-.95-2,10.82,10.82,0,0,0-.51-1.89,5.65,5.65,0,0,0-2.24-2.54,6.5,6.5,0,0,0-4.87-.82,11.55,11.55,0,0,0-1.75.69,1.88,1.88,0,0,1,.39-.31,4.53,4.53,0,0,1,1.3-.61,6.58,6.58,0,0,1,5.14.68,6,6,0,0,1,2.49,2.71c.58,1.24.47,2.76,1.41,3.73s2.49,1.16,4,1.2,3.29-.08,4.92.78a3.63,3.63,0,0,1,1.69,2,7.65,7.65,0,0,1,.39,2.46,14.58,14.58,0,0,0,.35,4.43,2.73,2.73,0,0,0,1.23,1.42,5.9,5.9,0,0,0,1.84.51,6.36,6.36,0,0,1,3.37,1.42,6.8,6.8,0,0,1,2.4,4.61,6.12,6.12,0,0,1-.09,1.43A1.56,1.56,0,0,1,369,308.24Z"/><path class="cls-4" d="M372.79,303.48a13.17,13.17,0,0,0,0-1.89,6.65,6.65,0,0,0-2.44-4.3,6,6,0,0,0-3.17-1.26,6.19,6.19,0,0,1-2-.53,3.23,3.23,0,0,1-1.5-1.69,14.28,14.28,0,0,1-.42-4.61,7.55,7.55,0,0,0-.36-2.28,3.08,3.08,0,0,0-1.43-1.69c-1.38-.74-3.07-.65-4.64-.71a12.55,12.55,0,0,1-2.37-.26,3.94,3.94,0,0,1-2.05-1.16,4.1,4.1,0,0,1-.95-2,9.6,9.6,0,0,0-.52-1.89,5.49,5.49,0,0,0-2.24-2.54,6.49,6.49,0,0,0-4.86-.83,10.82,10.82,0,0,0-1.75.7s.12-.12.39-.32a4.7,4.7,0,0,1,1.3-.6,6.58,6.58,0,0,1,5.14.68A6,6,0,0,1,351.4,279c.58,1.23.46,2.76,1.41,3.73s2.49,1.16,4,1.19,3.29-.07,4.92.78a3.68,3.68,0,0,1,1.69,2,7.61,7.61,0,0,1,.39,2.46,14.85,14.85,0,0,0,.34,4.42,2.76,2.76,0,0,0,1.23,1.43,6.06,6.06,0,0,0,1.84.51,6.36,6.36,0,0,1,3.38,1.42,6.74,6.74,0,0,1,2.39,4.61,5.71,5.71,0,0,1-.08,1.43A1.71,1.71,0,0,1,372.79,303.48Z"/><path class="cls-4" d="M209.49,57.18a12.48,12.48,0,0,0-1.72-.76,6.65,6.65,0,0,0-4.92.48,6,6,0,0,0-2.44,2.4,6.26,6.26,0,0,1-1.3,1.62,3.29,3.29,0,0,1-2.16.69c-1.57-.09-2.94-.92-4.38-1.48a7,7,0,0,0-2.22-.59,3.12,3.12,0,0,0-2.13.61c-1.24,1-1.84,2.55-2.53,4a11.78,11.78,0,0,1-1.2,2.06,4,4,0,0,1-1.88,1.41,4,4,0,0,1-2.23,0,10.86,10.86,0,0,0-1.94-.29,5.62,5.62,0,0,0-3.23,1,6.51,6.51,0,0,0-2.72,4.12,10.69,10.69,0,0,0-.07,1.88,1.79,1.79,0,0,1-.13-.48,4.63,4.63,0,0,1,0-1.44A6.58,6.58,0,0,1,175,68a6,6,0,0,1,3.48-1.17c1.36,0,2.71.69,4,.21s2.07-1.8,2.72-3.19,1.27-3,2.71-4.19a3.68,3.68,0,0,1,2.52-.73,7.71,7.71,0,0,1,2.41.64A14.63,14.63,0,0,0,197,61.05a2.75,2.75,0,0,0,1.8-.54A6.22,6.22,0,0,0,200,59a6.32,6.32,0,0,1,2.66-2.51,6.76,6.76,0,0,1,5.19-.33,5.32,5.32,0,0,1,1.27.66A1.92,1.92,0,0,1,209.49,57.18Z"/><path class="cls-4" d="M206.67,51.77A11.15,11.15,0,0,0,205,51a6.65,6.65,0,0,0-4.92.48,6.09,6.09,0,0,0-2.44,2.4,6.38,6.38,0,0,1-1.29,1.62,3.29,3.29,0,0,1-2.16.69c-1.58-.09-2.94-.92-4.38-1.48a7.11,7.11,0,0,0-2.23-.6,3.2,3.2,0,0,0-2.13.62c-1.23,1-1.83,2.55-2.53,4a11.73,11.73,0,0,1-1.19,2.06,4,4,0,0,1-1.89,1.41,4,4,0,0,1-2.23,0,10.89,10.89,0,0,0-1.93-.29,5.57,5.57,0,0,0-3.23,1,6.47,6.47,0,0,0-2.72,4.12,10.69,10.69,0,0,0-.07,1.88,1.55,1.55,0,0,1-.14-.48,5,5,0,0,1,0-1.44,6.62,6.62,0,0,1,2.71-4.43,6,6,0,0,1,3.49-1.17c1.36,0,2.71.69,4,.21s2.07-1.8,2.72-3.2,1.26-3,2.7-4.18a3.75,3.75,0,0,1,2.53-.74,7.87,7.87,0,0,1,2.41.65,14.47,14.47,0,0,0,4.18,1.47,2.73,2.73,0,0,0,1.81-.55,5.94,5.94,0,0,0,1.2-1.47,6.4,6.4,0,0,1,2.67-2.51,6.76,6.76,0,0,1,5.19-.33,5.76,5.76,0,0,1,1.27.66C206.56,51.64,206.69,51.76,206.67,51.77Z"/><path class="cls-4" d="M230,232.56c.73-3.55,4.42-7.72,7.89-7.86,4.51-.18,8.46,4.14,12.3,6.23,6.85,3.73,13.6,6.44,20.58.77,1.74-1.41,1.16-2.72-.56-1.32-3.19,2.58-7.7,4.07-11.32,2.81-4.35-1.53-8.19-6.21-12.43-8-3.89-1.65-8.4-2.67-12.53-1.21-3.5,1.23-6.52,3.92-7.29,7.66-.44,2.19,2.91,3.13,3.36.93Z"/><path class="cls-9" d="M189.76,249.35c.24.75.42,1.61.64,2.36a19,19,0,0,1,.93,6.69c-.5,7.64-8.4,13.69-15.76,12l-2.94-38.27a6.31,6.31,0,0,1,2.41-.46c7.07,0,22.22-2.27,21.85,8.91C196.76,244.41,193.65,248.54,189.76,249.35Z"/><path class="cls-9" d="M288.47,228.47a7.86,7.86,0,0,1-9.4-7.67,6.3,6.3,0,0,1,.16-1.88c-.83-.53-1.8-1.2-1.88-1.27A11.09,11.09,0,0,1,272.6,211c-.85-4.18,1.36-7.69,4.16-10.77,1.81-2,3.87-3.78,5.5-5.47a5.69,5.69,0,0,1,6.53-1.45l.3.12C289.6,206.49,289.55,218.9,288.47,228.47Z"/><path class="cls-9" d="M203.42,203a9.33,9.33,0,0,0-1.45-1.14,8.33,8.33,0,0,0-.36-.81,9.41,9.41,0,0,0-4.91-4.13,6.36,6.36,0,0,0-8.06.74,8.45,8.45,0,0,0,.55,12.22,9.47,9.47,0,0,0,1.2.91,10.49,10.49,0,0,0,1,2.32c2.54,4.23,8.71,5.3,12.26,1.66A8.49,8.49,0,0,0,203.42,203Z"/><path class="cls-4" d="M340.46,483.83a4,4,0,0,1,.26-.8,19,19,0,0,0,.74-2.25,23.47,23.47,0,0,0,.57-8.66,33.55,33.55,0,0,0-4-12.2,61.93,61.93,0,0,0-9.7-12.52c-3.91-4.07-7.86-7.76-11.18-11.4a61.53,61.53,0,0,1-7.89-10.4,34.48,34.48,0,0,1-3.49-8.08,20,20,0,0,1-.52-2.34,3.06,3.06,0,0,1-.11-.83c.06,0,.24,1.13.85,3.1a37.17,37.17,0,0,0,3.64,7.93,63.47,63.47,0,0,0,7.93,10.25c3.32,3.59,7.28,7.26,11.21,11.35a61.53,61.53,0,0,1,9.75,12.67,33.07,33.07,0,0,1,4,12.43,22.84,22.84,0,0,1-.76,8.76,16.71,16.71,0,0,1-.85,2.24A4.69,4.69,0,0,1,340.46,483.83Z"/><path class="cls-4" d="M126.85,440.56c0,.11-1.27.28-3.27.88a21.6,21.6,0,0,0-7.13,3.72,29,29,0,0,0-5.45,6c-1.19,1.71-1.85,2.83-1.93,2.79s.09-.33.35-.85a22,22,0,0,1,1.23-2.18,25.1,25.1,0,0,1,5.42-6.21,19.62,19.62,0,0,1,7.4-3.66,15.81,15.81,0,0,1,2.46-.44A2.71,2.71,0,0,1,126.85,440.56Z"/><path class="cls-4" d="M146.05,399.32a12.74,12.74,0,0,1-.35-1.89c-.2-1.32-.46-3.06-.78-5.16-.65-4.36-1.6-10.37-2.81-17s-2.44-12.58-3.37-16.89l-1.1-5.1a11.42,11.42,0,0,1-.34-1.89,11.78,11.78,0,0,1,.57,1.83c.33,1.19.77,2.92,1.28,5.07,1,4.29,2.34,10.25,3.56,16.87s2.09,12.66,2.64,17c.27,2.19.47,4,.58,5.19A11.4,11.4,0,0,1,146.05,399.32Z"/><path class="cls-4" d="M200.74,464.74c0-.13,2-.55,5-1.91a23.35,23.35,0,0,0,2.43-1.24,29.49,29.49,0,0,0,2.65-1.64,33.34,33.34,0,0,0,9.66-10.4,30.69,30.69,0,0,0,1.44-2.76,24.7,24.7,0,0,0,1.05-2.51c1.14-3.14,1.41-5.21,1.54-5.19a6.83,6.83,0,0,1-.17,1.46,12.16,12.16,0,0,1-.34,1.68,20.45,20.45,0,0,1-.62,2.19,24.47,24.47,0,0,1-1,2.57,31.31,31.31,0,0,1-1.42,2.84,31.78,31.78,0,0,1-9.83,10.58,27.73,27.73,0,0,1-2.72,1.62,24.14,24.14,0,0,1-2.5,1.19,19.94,19.94,0,0,1-2.13.79,13.49,13.49,0,0,1-1.66.46A7.18,7.18,0,0,1,200.74,464.74Z"/><path class="cls-4" d="M257.09,466a4.47,4.47,0,0,1-1.13-.15,24.73,24.73,0,0,1-3-.8,32.87,32.87,0,0,1-16.23-11.93,24.49,24.49,0,0,1-1.65-2.61,4.05,4.05,0,0,1-.48-1c.09,0,.89,1.35,2.48,3.39a37.25,37.25,0,0,0,7.18,7,37.63,37.63,0,0,0,8.84,4.77C255.54,465.59,257.11,465.93,257.09,466Z"/><path class="cls-10" d="M341.74,446.54c-2.31-4.08-6.15-7.07-10.18-9.46s-8.34-4.3-12.25-6.88c-5.59-3.69-11.05-10.07-14.33-15.91.79,5.8,4.78,11.69,8,16.58,3.74,5.64,10,10.52,14.71,15.39a103.07,103.07,0,0,1,11,14.1c.43.67.36,1,1.16,1A2.68,2.68,0,0,0,342,459.9C344.51,456,344,450.62,341.74,446.54Z"/><path class="cls-10" d="M259.64,466c-8.23-.05-18.31-5.12-23.06-13.41-1.77-3.09-4.12-6.44-7.67-6.83-4.08-.44-6.82,2.08-9.1,5.49-5.38,8-13.07,13.5-22.86,13.79a283.2,283.2,0,0,1-13.86,43.37,85.29,85.29,0,0,0,22.79-28.79,40.58,40.58,0,0,0,21.2-16c3,5,10.11,9.6,16.36,11.51s13.31,3.32,19.74.72C261.91,474,260.9,467.85,259.64,466Z"/><path class="cls-10" d="M102.81,449c-1.38,1.66-2.53,4.2-1.11,5.83a3.43,3.43,0,0,0,3.57.76,9.77,9.77,0,0,0,4.18-2.79c5.12-7.87,11.61-11.2,17.4-12.21l.88-1.45C118.88,438.21,108.47,442.12,102.81,449Z"/><path class="cls-4" d="M193.33,430.42s-.12.2-.41.53l-1.26,1.46c-1.1,1.25-2.76,3-4.87,5.14a163.8,163.8,0,0,1-17.62,15.35,165.28,165.28,0,0,1-19.63,12.68c-2.63,1.44-4.78,2.54-6.29,3.25l-1.75.81a2.81,2.81,0,0,1-.63.25,3,3,0,0,1,.58-.35c.44-.25,1-.55,1.69-.92,1.48-.77,3.6-1.93,6.19-3.41a181.93,181.93,0,0,0,37.16-28c2.14-2.08,3.84-3.8,5-5l1.35-1.38A3.74,3.74,0,0,1,193.33,430.42Z"/></g></svg>