<svg id="Layer_1" data-name="Layer 1" xmlns="http://www.w3.org/2000/svg" xmlns:xlink="http://www.w3.org/1999/xlink" viewBox="0 0 326.1 326.83"><defs><style>.cls-1{fill:none;}.cls-2{fill:#d8ebf4;}.cls-3{fill:#ff725e;}.cls-4{fill:#fff;}.cls-5{fill:#241e22;}.cls-6{fill:#e97f5b;}.cls-7{fill:#b3452c;}.cls-8{fill:#455a64;}.cls-9{fill:#263238;}.cls-10{clip-path:url(#clip-path);}.cls-11{fill:#b78876;}.cls-12{fill:#aa6550;}.cls-13{fill:#ebebeb;}.cls-14{fill:#e8505b;}.cls-15{fill:#e0e0e0;}</style><clipPath id="clip-path"><path class="cls-1" d="M326.1,162.5a162,162,0,0,1-13.69,65.38q-.93,2.15-1.94,4.24a160.67,160.67,0,0,1-13.78,23.64,163.75,163.75,0,0,1-18.18,21.65c-.48.48-1,1-1.45,1.43l-1.55,1.49a163,163,0,0,1-42.19,29l-1.49.69a160,160,0,0,1-28.69,10.13l-1.5.37a161.69,161.69,0,0,1-22.27,3.72q-7.78.75-15.77.76A162.5,162.5,0,1,1,243.79,21.13c1.73,1,3.45,2,5.14,3.05l1.29.81q2.53,1.59,5,3.29c.75.51,1.48,1,2.22,1.56,0,0,0,0,0,0q5.27,3.72,10.21,7.85l.43.35q3.11,2.63,6.08,5.38,1.68,1.56,3.31,3.16h0l1,1q4,4,7.72,8.28l.24.27q2.68,3.11,5.22,6.35c.82,1,1.63,2.11,2.42,3.18h0l.2.26c1.29,1.75,2.56,3.53,3.78,5.34.27.39.54.79.8,1.19.64,1,1.26,1.9,1.88,2.87h0q3.9,6.12,7.25,12.6h0a161.54,161.54,0,0,1,18,68.68c.06,1.56.1,3.13.1,4.71C326.1,161.73,326.1,162.12,326.1,162.5Z"/></clipPath></defs><path class="cls-2" d="M326.1,164.33a162,162,0,0,1-13.69,65.38q-.93,2.14-1.94,4.24a160.67,160.67,0,0,1-13.78,23.64,163.75,163.75,0,0,1-18.18,21.65c-.48.48-1,1-1.45,1.43l-1.55,1.49a163,163,0,0,1-42.19,29l-1.49.69A160,160,0,0,1,203.14,322l-1.5.37a161.69,161.69,0,0,1-22.27,3.72q-7.78.75-15.77.76A162.5,162.5,0,1,1,243.79,23c1.73,1,3.45,2,5.14,3.05l1.29.81q2.53,1.59,5,3.29c.75.51,1.48,1,2.22,1.56,0,0,0,0,0,0q5.27,3.72,10.21,7.85l.43.35q3.11,2.63,6.08,5.38,1.68,1.56,3.31,3.16h0l1,1q4,4,7.72,8.28l.24.27q2.68,3.11,5.22,6.35c.82,1.05,1.63,2.11,2.42,3.18h0l.2.26c1.29,1.75,2.56,3.53,3.78,5.34.27.39.54.79.8,1.19.64,1,1.26,1.9,1.88,2.87h0q3.9,6.12,7.25,12.6h0a161.54,161.54,0,0,1,18,68.68c.06,1.56.1,3.13.1,4.71C326.1,163.56,326.1,164,326.1,164.33Z"/><path class="cls-3" d="M326.1,164.33a162,162,0,0,1-13.69,65.38q-.93,2.14-1.94,4.24a160.67,160.67,0,0,1-13.78,23.64,163.75,163.75,0,0,1-18.18,21.65c-.48.48-1,1-1.45,1.43l-1.55,1.49a163.69,163.69,0,0,1-17.43,14.4c-7.92-.66-15.7-1.56-23.11-2.75l-1.38-.22A156.83,156.83,0,0,1,207,287l-1.38-.49h0A65.37,65.37,0,0,1,190.68,279l-.15-.1s.29-1,.78-2.76c0,0,0-.05,0-.08a315.63,315.63,0,0,0,7.73-36.48,157.58,157.58,0,0,0,1.68-19.13h0c0-2.82,0-5.53-.21-8.11-.05-.64-.09-1.28-.13-1.93-1.7-25.6,1.82-56.6,10.81-63.13,3.44-2.49,12.62-6.92,22.79-11.48l1.38-.62.74-.33c9.86-4.39,20.31-8.8,27.17-11.65l1.24-.51,1-.4.53-.22h0c.83-.34,1.56-.65,2.2-.9h0l1.95-.79.49-.21.18-.07.13,0,36.47-5.69.52.25.06,0,.16.07q.53.24,1.05.51h0c.79.38,1.6.77,2.42,1.18q3,1.45,6.05,3.08l1,.53,1.46.78a162.16,162.16,0,0,1,5.8,37.71c.06,1.56.1,3.13.1,4.71C326.1,163.56,326.1,164,326.1,164.33Z"/><path class="cls-4" d="M280.43,144.92c20.43-3.84,33-19.17,37.29-25.47-3.57-1.87-7-3.59-10.27-5.12L271,120l-5.49,2.25-1,.4-1.25.52C260.12,132.25,260.56,148.65,280.43,144.92Z"/><path class="cls-4" d="M271,111.19l0,0s0,0,0,0Z"/><path class="cls-3" d="M201.64,322.35a161.69,161.69,0,0,1-22.27,3.72c4.32-16.25,8-32.26,11.31-47.08.22-1,.42-1.91.63-2.86,0,0,0-.05,0-.08q.91-4.23,1.79-8.3,1.33-6.27,2.57-12.13c1.19-5.7,2.31-11.08,3.36-16.05h0l10.7,2,1.4.26,26.64,4.91,1.37.26,38.39,7.08,1.4.26,17.73,3.27a163.75,163.75,0,0,1-18.18,21.65c-.48.48-1,1-1.45,1.43l-1.55,1.49a163,163,0,0,1-42.19,29l-1.49.69A160,160,0,0,1,203.14,322Z"/><path class="cls-4" d="M200.1,210.91A361.65,361.65,0,0,1,188,282.33c-.24.87,1.08,1.37,1.32.5A364.69,364.69,0,0,0,201.5,211a.7.7,0,0,0-1.4-.13Z"/><path class="cls-4" d="M326.09,163.18a453.87,453.87,0,0,0-13.68,66.53q-.93,2.14-1.94,4.24a453.92,453.92,0,0,1,8.14-47.19q3.22-14.26,7.38-28.29C326.05,160,326.09,161.6,326.09,163.18Z"/><path class="cls-4" d="M309.25,115.19a114,114,0,0,0-7.91,13.58q-2.44,4.92-4.45,10c-10.37,26.14-13.07,55.64-15.46,83.24-.93,10.74-1.71,21.51-2.47,32.28-.62,8.78-1.23,17.57-1.9,26.35l-1.55,1.49c.73-9.36,1.39-18.73,2.05-28.1.66-9.11,1.32-18.22,2.07-27.33,1.66-20.14,3.49-40.4,7.72-60.19a180.84,180.84,0,0,1,7.75-26.76q1.81-4.77,4-9.38a117.12,117.12,0,0,1,8.9-15.82l.06,0C308.43,114.79,308.84,115,309.25,115.19Z"/><path class="cls-4" d="M270.18,120.35q-2.34,4.7-4.45,9.47-1.64,3.68-3.13,7.4c-12,29.93-18,62.13-21.74,94.12-.62,5.21-1.17,10.42-1.69,15.64-1.57,15.59-2.8,31.22-4.2,46.83q-.78,8.69-1.65,17.35l-1.49.69q.72-6.84,1.34-13.67l.42-4.59c1.41-15.61,2.65-31.26,4.21-46.87,2.38-23.69,5.49-47.28,11-70.49a278.51,278.51,0,0,1,13.21-41.37q1.81-4.41,3.82-8.74c.76-1.67,1.55-3.32,2.36-5h0Z"/><path class="cls-4" d="M236.12,134.83a87.41,87.41,0,0,0-5.8,12.72,253.16,253.16,0,0,0-8.41,27.74c-4.77,19.26-7.69,38.94-9.9,58.64q-.45,3.93-.85,7.88C209.59,256.86,208.36,272,207,287h0c-1.09,11.67-2.28,23.32-3.81,34.94l-1.5.37c1.13-8.44,2.07-16.9,2.92-25.35.35-3.49.68-7,1-10.46h0c1.4-15,2.63-30,4.19-45,2.16-20.79,5-41.48,9.67-61.87a265.64,265.64,0,0,1,9.3-31.89,96.49,96.49,0,0,1,5.27-12l1.38-.62Z"/><path class="cls-5" d="M299.55,56.5A72,72,0,0,1,312,63.69c5.5,4.13,2.28,11.9-2.92,11.37,0,0,7.12,10.15,3.63,13.61s-6.73-.32-6.73-.32,2.84,9.46-5.23,10.74S286.92,83.7,286.92,83.7Z"/><path class="cls-6" d="M312.16,117.32s-19.05,29.73-46.52,14.82l.74-19.39.5-12.79.34-8.95,32.4-14.11C301.82,92.83,306.18,106.09,312.16,117.32Z"/><path class="cls-5" d="M294.72,91.37c-10.71,21.65-23.67,27-28.52,26.26l.68-17.67Z"/><path class="cls-5" d="M238.47,50.07a38,38,0,0,0,.67,10.38c1.15,4.39,6.37,9.25,6.37,9.25S247.39,53.75,238.47,50.07Z"/><path class="cls-6" d="M301,66.73a32,32,0,0,1,.39,3.94,25,25,0,0,1-1.11,8.21,80.23,80.23,0,0,1-5.57,12.58c-4.1,8-12.43,12.26-20.94,13.76-22.58,4-27.3-11.06-29.47-34.65-1.35-14.64-6.81-21.94-4.18-28.18h0c.2-.3.4-.6.61-.89a33,33,0,0,1,20.75-13.25c1.6-.32,3.15-.56,4.64-.75l1-.12.42-.05,1.12-.11.8-.06c.61-.05,1.2-.08,1.78-.1,18.49-.67,24.89,9.55,27.41,20.3C300.42,54.66,300.33,62.21,301,66.73Z"/><path class="cls-5" d="M263.44,64.22c.33,1.2,1.33,2,2.23,1.72a2,2,0,0,0,1-2.61c-.33-1.2-1.33-2-2.23-1.73A2,2,0,0,0,263.44,64.22Z"/><path class="cls-5" d="M248.73,67.09c.33,1.2,1.33,2,2.23,1.72a2,2,0,0,0,1-2.62c-.33-1.2-1.33-2-2.23-1.72A2,2,0,0,0,248.73,67.09Z"/><path class="cls-7" d="M277,68.77c.2,1.24-1.58,2.55-4,2.93s-4.48-.34-4.67-1.58,1.58-2.55,4-2.92S276.78,67.53,277,68.77Z"/><path class="cls-7" d="M245,76.49a6.39,6.39,0,0,0,3.53.34c2.38-.38,4.16-1.68,4-2.93s-2.29-1.94-4.67-1.57a6.52,6.52,0,0,0-3.16,1.3Z"/><path class="cls-5" d="M263.52,57.17c1.31-.75,3.35-1,4.24.56a2.06,2.06,0,0,0,2.65,1,2,2,0,0,0,1-2.65,7,7,0,0,0-9.56-2.56,2.06,2.06,0,0,0-1,2.65,2,2,0,0,0,2.66,1Z"/><path class="cls-5" d="M247.15,61.41a3.82,3.82,0,0,1,3.93-2.14c2.57.26,3-3.73.46-4A7.73,7.73,0,0,0,243.91,59c-1.33,2.2,1.9,4.58,3.24,2.37Z"/><path class="cls-5" d="M260.45,73.8a.74.74,0,0,0-.39-1.43,6.88,6.88,0,0,1-3.19,0c1.6-2.7,1.29-6.64,1.27-6.82a.74.74,0,0,0-1.48.12s.35,4.42-1.52,6.57a.76.76,0,0,0-.18.61.78.78,0,0,0,.37.53,7.68,7.68,0,0,0,5,.48Z"/><path class="cls-5" d="M293.91,74.38a12.62,12.62,0,0,0,7.52-3.71,25,25,0,0,1-1.11,8.21A12.73,12.73,0,0,1,293.91,74.38Z"/><path class="cls-5" d="M293.6,48c-8.63,3.87-7.12,19.39-12.16,17.47s-.37-28.37-12.16-25.85-10,4.54-15.34,5.78c-9.14,2.1-9.87-2.52-13.77-3,.2-.3.4-.6.61-.89a33,33,0,0,1,20.75-13.25c1.6-.32,3.15-.56,4.64-.75l1-.12.42-.05,1.12-.11.8-.06c.6-.05,1.2-.08,1.78-.1,18.49-.67,24.89,9.55,27.41,20.3A7.77,7.77,0,0,0,293.6,48Z"/><path class="cls-5" d="M281.44,65.46c5,1.92,3.53-13.6,12.16-17.47a7.75,7.75,0,0,1,5.1-.63c1.72,7.3,1.63,14.85,2.34,19.37a32.1,32.1,0,0,1,.38,3.85c2-9.93,4.16-21.6,4.23-26.39a15.58,15.58,0,0,0-.17-2.71l-.75-.57A16.92,16.92,0,0,0,301.16,39a22.61,22.61,0,0,0-6.35-1.45c-7.18-.65-15.06,1.38-20.56,3.28C279.69,45.93,277.32,63.88,281.44,65.46Z"/><path class="cls-8" d="M238.08,39.61l66-.21c.24-9.47-5.89-17.37-14.85-22.13-.81-.43-1.63-.83-2.48-1.21a42.24,42.24,0,0,0-8.44-2.7c-.56-.11-1.11-.22-1.67-.31a43.71,43.71,0,0,0-8.2-.63c-.49,0-1,0-1.47,0a42.83,42.83,0,0,0-8.92,1.37c-.79.2-1.55.43-2.28.68s-1.66.61-2.43,1C237.75,22.47,238.08,39.61,238.08,39.61Z"/><path class="cls-9" d="M286.8,16.06a42,42,0,0,1,7.3,22c0,.92,1.48,1,1.45.07a43.36,43.36,0,0,0-6.27-20.9C288.47,16.84,287.65,16.44,286.8,16.06Z"/><path class="cls-9" d="M278.88,35.24c-.17.89,1.21,1.34,1.38.44a42.39,42.39,0,0,0-1.9-22.32c-.56-.11-1.11-.22-1.67-.31A40.79,40.79,0,0,1,278.88,35.24Z"/><path class="cls-9" d="M265.1,34.76c-.14.91,1.32,1,1.45.07,1.07-7.43.62-15,1.94-22.41-.49,0-1,0-1.47,0C265.78,19.84,266.17,27.36,265.1,34.76Z"/><path class="cls-9" d="M248.24,37.83c.11.91,1.53.59,1.42-.31a32.55,32.55,0,0,1,6.16-23c-.85.3-1.66.61-2.43,1A34.11,34.11,0,0,0,248.24,37.83Z"/><path class="cls-9" d="M304.19,38.76c1.67,1,3.53,13.38.21,14.45h0s-24.66-9.6-40.9-8.4-23,9-25.14,7.68c-4.42-2.84-2.15-14.59-.52-16.49C237.84,36,276.07,22.59,304.19,38.76Z"/><path class="cls-4" d="M252.36,82s5.21-1.41,15.47-4.11c0,0,1.07,11.33-6.53,12.47C254.85,91.32,252.36,82,252.36,82Z"/><path class="cls-7" d="M260.65,94.46a4.76,4.76,0,0,0,4.8-1.49c.59-.77-.62-1.65-1.22-.89-.83,1.08-2.16,1.09-3.41.89-.95-.16-1.12,1.33-.17,1.49Z"/><path class="cls-6" d="M285.85,69.9a12.73,12.73,0,0,1-.14-11.09c2.08-4.58,6.11-11.77,11-11.85,7.23-.12,9.06,6.06,9.36,12.6s-2.59,15.61-11.64,15.63A9.18,9.18,0,0,1,285.85,69.9Z"/><path class="cls-5" d="M294.1,67.44a16.56,16.56,0,0,1-.78-8.16c.54-2.45,2.6-6.2,5.71-5.69,1,.18,1.48-1.42.43-1.59-3-.49-5.45,1.61-6.77,4.17-1.91,3.69-1.3,7.89-.18,11.71a.83.83,0,0,0,1.59-.44Z"/><g class="cls-10"><path class="cls-11" d="M75,69.76c-.32-.13-12.77-3.39-12,9.2s13.23,9.23,13.23,8.87S75,69.76,75,69.76Z"/><path class="cls-12" d="M72.06,83.29s-.21.17-.57.36a2.15,2.15,0,0,1-1.63.13c-1.36-.41-2.61-2.45-2.81-4.72a7.25,7.25,0,0,1,.43-3.17A2.55,2.55,0,0,1,69,74.1a1.12,1.12,0,0,1,1.33.53c.19.34.12.6.19.61s.26-.22.13-.74a1.49,1.49,0,0,0-.55-.76,1.72,1.72,0,0,0-1.23-.25,3.09,3.09,0,0,0-2.17,2.09,7.39,7.39,0,0,0-.55,3.56c.23,2.53,1.67,4.83,3.52,5.24a2.36,2.36,0,0,0,2-.45C72.06,83.6,72.11,83.31,72.06,83.29Z"/><path class="cls-9" d="M106.41,24.78c6.4,0,12.91,0,20.92,4.18,5,2.64,8.2,6.82,10.83,11.87a27.31,27.31,0,0,1,3,13.29c-.23,4.35-.25,7.4-2,11.4"/><path class="cls-11" d="M103.85,25.77a33.94,33.94,0,0,1,36.28,32.08c.82,15.77,1.55,32.83,1.37,41.42-.37,18.43-18.84,21.15-18.84,21.15s.41,5.47.87,12.25a24.29,24.29,0,0,1-23.31,25.9h0A24.27,24.27,0,0,1,75,135.2L72.29,60.89a34,34,0,0,1,31.56-35.12Z"/><path class="cls-12" d="M122.66,120.42S111.33,121,99,113.13c0,0,5.58,13.42,24,11.9Z"/><path class="cls-9" d="M133.07,68.1a2.65,2.65,0,0,1-2.56,2.64,2.52,2.52,0,0,1-2.7-2.4,2.62,2.62,0,0,1,2.56-2.63A2.52,2.52,0,0,1,133.07,68.1Z"/><path class="cls-9" d="M135.62,64.38c-.33.34-2.31-1.16-5.15-1.17s-4.92,1.38-5.22,1c-.15-.16.19-.78,1.1-1.43a7.2,7.2,0,0,1,4.18-1.25,6.94,6.94,0,0,1,4.1,1.35C135.49,63.6,135.78,64.22,135.62,64.38Z"/><path class="cls-9" d="M105.28,68.1a2.64,2.64,0,0,1-2.56,2.64,2.52,2.52,0,0,1-2.7-2.4,2.62,2.62,0,0,1,2.56-2.63A2.52,2.52,0,0,1,105.28,68.1Z"/><path class="cls-9" d="M107.76,64.68c-.33.34-2.31-1.15-5.14-1.16s-4.92,1.38-5.23,1c-.15-.15.19-.77,1.1-1.42a7.24,7.24,0,0,1,4.19-1.26,7,7,0,0,1,4.09,1.36C107.63,63.91,107.93,64.53,107.76,64.68Z"/><path class="cls-9" d="M117.88,85.78c0-.16,1.75-.45,4.61-.8.72-.07,1.41-.2,1.53-.7a3.63,3.63,0,0,0-.46-2.14l-2.1-5.53c-2.91-7.87-5-14.34-4.69-14.45s2.94,6.17,5.84,14l2,5.56A4.15,4.15,0,0,1,125,84.6a1.81,1.81,0,0,1-1.2,1.05,4.83,4.83,0,0,1-1.23.16C119.67,85.94,117.89,85.94,117.88,85.78Z"/><path class="cls-9" d="M109.52,87.67c.47,0,.45,3,3.06,5.26s5.89,1.89,5.91,2.32c.05.19-.73.59-2.11.62a7.69,7.69,0,0,1-4.94-1.77,6.67,6.67,0,0,1-2.37-4.4C109,88.41,109.31,87.65,109.52,87.67Z"/><path class="cls-9" d="M108.58,53.58c-.28.77-3.11.38-6.43.76s-6,1.26-6.46.56c-.2-.33.27-1,1.36-1.79a10.78,10.78,0,0,1,4.8-1.63,10.59,10.59,0,0,1,5,.63C108.1,52.61,108.71,53.22,108.58,53.58Z"/><path class="cls-9" d="M135.22,54.29c-.5.64-2.45,0-4.79-.1s-4.34.4-4.79-.27c-.2-.33.12-1,1-1.58a7,7,0,0,1,7.72.3C135.18,53.31,135.45,54,135.22,54.29Z"/><path class="cls-9" d="M72.5,66.65s.8,4.26,1,6.19c.08.7,0,8.51,1.88,8.9,1.64.34,4.88-1.15,6.32-4.38s4.2-11,3.9-14.51A50.82,50.82,0,0,1,86,48.43c1-4.73,3.22-9.35,7-12.32s9.29-4,13.6-1.85c2.66,1.34,4.65,3.7,7.13,5.35a11.13,11.13,0,0,0,7.61,2,7.16,7.16,0,0,0,5.88-4.82c.79-2.81-.67-5.9-2.92-7.76a17.84,17.84,0,0,0-8-3.29,43.22,43.22,0,0,0-23.93,1.67c-7.56,2.94-14.26,8.58-17.49,16C71.08,52,71.52,57.28,72.5,66.65"/><path class="cls-9" d="M114.65,68.22a21.37,21.37,0,0,0-.48-3,12.37,12.37,0,0,0-16.24-8.53,11.39,11.39,0,0,0-3.12,1.68A11.67,11.67,0,0,0,92.22,61a12.23,12.23,0,0,0,0,14.54,12.29,12.29,0,0,0,5.72,4.3,12.4,12.4,0,0,0,6.47.55,12.25,12.25,0,0,0,5.2-2.29,12.48,12.48,0,0,0,4.57-6.79,21.14,21.14,0,0,0,.48-3,.67.67,0,0,1,0,.21V69a6.18,6.18,0,0,1-.08,1,9.31,9.31,0,0,1-.23,1.31,12.64,12.64,0,0,1-9.88,9.42,12.7,12.7,0,0,1-6.69-.53,12.13,12.13,0,0,1-3.23-1.72,12,12,0,0,1-2.7-2.71,12.66,12.66,0,0,1,0-15.08,11.73,11.73,0,0,1,2.7-2.7,11.89,11.89,0,0,1,3.23-1.73,12.79,12.79,0,0,1,6.69-.52,12.6,12.6,0,0,1,9.88,9.41,9.83,9.83,0,0,1,.23,1.31,6.28,6.28,0,0,1,.08,1V68A.63.63,0,0,1,114.65,68.22Z"/><path class="cls-9" d="M147.11,68.22a25.92,25.92,0,0,0-.48-3,12.47,12.47,0,0,0-9.78-9.09,12.4,12.4,0,0,0-6.47.56A12.4,12.4,0,0,0,124.67,61a12.25,12.25,0,0,0,0,14.54,11.35,11.35,0,0,0,2.6,2.62,11.76,11.76,0,0,0,3.11,1.68,12.34,12.34,0,0,0,11.68-1.74,12.54,12.54,0,0,0,4.57-6.79,25.51,25.51,0,0,0,.48-3,1.66,1.66,0,0,1,0,.21c0,.16,0,.36,0,.59a6,6,0,0,1-.07,1,8.16,8.16,0,0,1-.24,1.31,12.4,12.4,0,0,1-4.54,7,12.62,12.62,0,0,1-12,1.88,12.57,12.57,0,0,1-5.94-4.43,12.66,12.66,0,0,1,0-15.08,12.75,12.75,0,0,1,5.94-4.43,12.75,12.75,0,0,1,6.68-.52,12.57,12.57,0,0,1,9.88,9.41,8.58,8.58,0,0,1,.24,1.31,6.11,6.11,0,0,1,.07,1c0,.24,0,.44,0,.6A1.57,1.57,0,0,1,147.11,68.22Z"/><path class="cls-9" d="M122.34,66.89a7,7,0,0,1-1.15-.4,7.38,7.38,0,0,0-5.61.37c-.67.32-1,.61-1.1.55s.28-.42.94-.84a6.44,6.44,0,0,1,5.89-.39C122,66.51,122.37,66.84,122.34,66.89Z"/><path class="cls-9" d="M127.37,35.78c.18-1-.13-1.49.41-1.88s1.77.72,2.2,1.19c.13.15.57-.43.73-.55a3.11,3.11,0,0,0,.33-1.22c-.08-.67-1.13-.85-1.62-1.3a5.18,5.18,0,0,0-1.74-1,1.66,1.66,0,0,0-1.66.1,1.58,1.58,0,0,0-.37,1.25,3.42,3.42,0,0,0,.25,1.3,1.86,1.86,0,0,0,.88,1"/><path class="cls-13" d="M71.82,56.85s9,3.31,13.74,5.31l-.26-4.63-13.15-5.2S71.81,55.77,71.82,56.85Z"/><path class="cls-13" d="M72.66,49.67a50.28,50.28,0,0,1,6.4,2.45A49.56,49.56,0,0,1,85.28,55a50.93,50.93,0,0,1-6.4-2.45A50.41,50.41,0,0,1,72.66,49.67Z"/><path class="cls-14" d="M75.39,147.06l-.7-21.88s4.34,20,27.11,19.76c21.76-.25,21.36-17.64,21.36-17.64l.78,8.82v35.63l-14.19,58.11-18.13,2.3-20-79.44Z"/><path class="cls-9" d="M121.14,140.06a2.6,2.6,0,0,1-.26.46,11.81,11.81,0,0,1-.87,1.27,18.56,18.56,0,0,1-4.05,3.92,23.17,23.17,0,0,1-7.57,3.56,26.72,26.72,0,0,1-10.21.71,33.14,33.14,0,0,1-9.81-3,43,43,0,0,1-7.17-4.31,50.1,50.1,0,0,1-4.34-3.6c-.49-.45-.85-.82-1.1-1.06a2.94,2.94,0,0,1-.36-.4,2.34,2.34,0,0,1,.43.33L77,139c1,.86,2.49,2.08,4.41,3.46a45.49,45.49,0,0,0,7.16,4.2,33.58,33.58,0,0,0,9.69,2.88,26.91,26.91,0,0,0,10-.66,23.77,23.77,0,0,0,7.49-3.41,20,20,0,0,0,4.1-3.77C120.7,140.65,121.1,140,121.14,140.06Z"/><path class="cls-13" d="M105.34,326.83,105,223.56,75.68,148.19l-1-22.68L56.83,139s-26,89.55-26.42,86.44,0,101.37,0,101.37Z"/><path class="cls-9" d="M104.63,326.55c-.12,0-.23-23.28-.23-52s.11-52,.23-52,.24,23.27.24,52S104.76,326.55,104.63,326.55Z"/><polygon class="cls-15" points="57.09 153.77 60.72 156.52 58.17 173.22 100.98 218.06 62.09 167.01 65.41 153.77 57.09 153.77"/><path class="cls-13" d="M106.94,273.93,41.25,254.67l-2.18-49.9,18-65.75s-42.95,21.43-45.87,35.07S1.25,220.87.5,244.83c-.67,21.42-.77,35.74,4.12,42.58,14,19.58,106.33,23.08,143.22,0"/><path class="cls-9" d="M101.8,219.15s-.08-.08-.21-.24l-.59-.74c-.53-.67-1.28-1.63-2.23-2.86l-8.14-10.56-26.71-35-2-2.64-.07-.09,0-.11c1.15-4.57,2.26-9,3.32-13.23l.22.28H56.88v-.21c0-5.4,0-10.36,0-14.75v-.09l.07-.05,12.91-9.81,3.55-2.66.93-.68a1.31,1.31,0,0,1,.33-.22l-.3.26-.9.72L70,129.23,57.2,139.16l.07-.14c0,4.39,0,9.35,0,14.75l-.21-.21h8.6l-.06.28c-1.06,4.23-2.17,8.66-3.31,13.23l0-.19,2,2.64,26.6,35,8,10.65,2.16,2.91c.23.33.42.58.56.77S101.81,219.14,101.8,219.15Z"/><path class="cls-13" d="M131.09,135.14c-5.24-9.17-8-8.21-8-8.21l.27,3.26v6.87l-2.48,29.44-15.92,64,.33,96.34H165.5L173,209.23l-.68-50.67Z"/><path class="cls-13" d="M172.31,158.56s15.58,11.5,16.93,30c1.09,15,3.61,56.15,4.06,65.11.71,13.94-10.15,46.6-38.42,37.35-17-5.55-79.6-26.84-79.6-26.84l4.17-26.6L153.8,242l1.48-62Z"/><path class="cls-11" d="M78.6,240.64s-21-2.27-25.92-1.1c-4.68,1.13-11.35,6.86-11.35,6.86l.09,8.32,33.86,9.46Z"/><path class="cls-9" d="M105,220.87a1.14,1.14,0,0,1,.09-.29l.32-.82,1.26-3.14,4.71-11.53,7-17.09c.66-1.59,1.33-3.26,2.15-4.9s1.73-3.26,2.7-4.89a107,107,0,0,1,6.68-9.64q1.81-2.35,3.7-4.56l0,.24c-.89-2.27-1.77-4.49-2.62-6.67l-.09-.22.23-.07,11-3.73-.11.31-12.43-20.76c-1.51-2.52-2.79-4.54-4.16-5.36a5.44,5.44,0,0,0-1.66-.68l-.61-.14a3.53,3.53,0,0,1,.62.08,5,5,0,0,1,1.72.62,7.61,7.61,0,0,1,2.11,2.05,36,36,0,0,1,2.19,3.29l12.58,20.68.14.22-.25.09-11,3.76.14-.3q1.29,3.26,2.63,6.66l0,.13-.09.11c-1.25,1.45-2.48,3-3.68,4.53a107.66,107.66,0,0,0-6.66,9.6c-1,1.62-1.9,3.22-2.69,4.85s-1.48,3.26-2.16,4.87c-2.68,6.41-5.09,12.18-7.13,17S108,214,106.85,216.69c-.58,1.33-1,2.37-1.34,3.11l-.36.8A2,2,0,0,1,105,220.87Z"/><path class="cls-9" d="M180.86,285.84s-.09.1-.26.28l-.8.78a24,24,0,0,1-3.42,2.59,23.06,23.06,0,0,1-6.26,2.62,25.32,25.32,0,0,1-9,.57,28.37,28.37,0,0,1-5.13-1.09c-1.74-.55-3.49-1.23-5.34-1.88-3.67-1.34-7.61-2.72-11.76-4.18-8.29-2.91-17.44-6-27.08-9.18C92.57,270,75,264.68,62.24,260.88l-15.1-4.47L43,255.19,42,254.86a2.38,2.38,0,0,1-.36-.13l.38.08,1.07.29,4.13,1.13c3.58,1,8.76,2.47,15.15,4.33,12.76,3.72,30.36,9,49.65,15.35,9.64,3.16,18.79,6.29,27.08,9.22,4.15,1.46,8.08,2.86,11.75,4.21,1.84.66,3.61,1.36,5.32,1.91a27.55,27.55,0,0,0,5.06,1.1,25.14,25.14,0,0,0,8.86-.49,23.33,23.33,0,0,0,6.23-2.53,26,26,0,0,0,3.44-2.5l.83-.74A2.57,2.57,0,0,1,180.86,285.84Z"/><path class="cls-9" d="M41.42,254.87c0,.09-1.18-.16-3.06-.09a14.25,14.25,0,0,0-3.26.54A15.18,15.18,0,0,0,31.44,257a17,17,0,0,0-5.08,5.23c-1,1.6-1.43,2.71-1.52,2.68a2.75,2.75,0,0,1,.25-.8,15.33,15.33,0,0,1,1-2.05,16,16,0,0,1,5.12-5.45,14.18,14.18,0,0,1,3.8-1.69,13.2,13.2,0,0,1,3.36-.46,11.23,11.23,0,0,1,2.26.21C41.14,254.76,41.43,254.83,41.42,254.87Z"/><path class="cls-9" d="M20.73,248.35s0-.09.08-.24a2.24,2.24,0,0,1,.41-.58,4.2,4.2,0,0,1,2.34-1.16,11.87,11.87,0,0,1,3.86,0A21.35,21.35,0,0,1,32,247.49a20.08,20.08,0,0,1,7.26,4.44,15.07,15.07,0,0,1,1.68,2,3.14,3.14,0,0,1,.49.82c-.07.05-.81-1.09-2.39-2.55a21.55,21.55,0,0,0-7.19-4.24,23.53,23.53,0,0,0-4.48-1.13,12.31,12.31,0,0,0-3.74-.11,4.29,4.29,0,0,0-2.27,1C20.91,248.06,20.77,248.37,20.73,248.35Z"/><path class="cls-9" d="M45.25,191a9.91,9.91,0,0,1-.3-1.36c-.13-.42-.32-.93-.52-1.53s-.57-1.22-1-1.9a26.7,26.7,0,0,0-3.35-4.46A34.86,34.86,0,0,0,35,177.28a30.8,30.8,0,0,0-11.22-5.15,22.91,22.91,0,0,0-3.73-.48,8.32,8.32,0,0,1-1.39-.11,7.6,7.6,0,0,1,1.39-.07,19.92,19.92,0,0,1,3.8.33,29.48,29.48,0,0,1,11.42,5.1,35.2,35.2,0,0,1,5.18,4.6,25.85,25.85,0,0,1,3.32,4.59c.4.7.66,1.39.93,2s.35,1.14.46,1.58A6.92,6.92,0,0,1,45.25,191Z"/><path class="cls-9" d="M170,267.34a2,2,0,0,1,0-.32l0-.93c0-.82-.06-2-.18-3.58a49.5,49.5,0,0,0-2.64-12.87,18.17,18.17,0,0,0-1.8-3.93,7.71,7.71,0,0,0-3.48-3c-3-1.29-6.59-1.12-10.25-1.32l-24-1c-19.79-.86-37.4-1.6-48.47-2.19l.15-.12-1.57,9.52c-.18,1.08-.33,1.93-.43,2.53l-.12.64a.66.66,0,0,1-.06.22,1.89,1.89,0,0,1,0-.22l.08-.65c.09-.61.21-1.45.36-2.54.34-2.24.83-5.47,1.44-9.55l0-.12h.13l48.47,2,24,1c1.84.09,3.63.14,5.39.28a15.58,15.58,0,0,1,5,1.12,8.09,8.09,0,0,1,3.63,3.11,18.07,18.07,0,0,1,1.81,4,48.35,48.35,0,0,1,2.51,13c.1,1.56.1,2.77.09,3.6l0,.93A1.34,1.34,0,0,1,170,267.34Z"/><path class="cls-9" d="M155.8,209.13c.13,0,.24,7.2.24,16.08s-.11,16.09-.24,16.09-.23-7.2-.23-16.09S155.67,209.13,155.8,209.13Z"/><path class="cls-9" d="M11.74,172.48s-.06.2-.19.59-.35,1-.54,1.74c-.43,1.55-1,3.86-1.59,6.86-1.25,6-2.78,14.82-4.49,25.83-.86,5.51-1.77,11.57-2.66,18.13-.45,3.27-.74,6.68-1,10.21S.88,243,.74,246.77c-.27,7.5-.43,15.43-.21,23.69.06,2.06.14,4.15.31,6.24.05,1.06.22,2.09.35,3.14A25.17,25.17,0,0,0,2,282.92a17.58,17.58,0,0,0,3,5.65A12.7,12.7,0,0,0,10,292.48h0a76.62,76.62,0,0,0,13.24,5.05c4.61,1.38,9.37,2.5,14.22,3.5a196.24,196.24,0,0,0,32,3.89,150.54,150.54,0,0,0,15.25-.4c5-.34,9.82-.86,14.5-1.56a153.46,153.46,0,0,0,26-6.05,133.64,133.64,0,0,0,21-9l0,.29L117.41,278l-7.78-2.78-2-.73c-.45-.16-.68-.26-.68-.26l.7.22,2,.69,7.8,2.7,28.92,10.08.34.12-.31.17a133.15,133.15,0,0,1-21.08,9.11,153.14,153.14,0,0,1-26.09,6.11c-4.69.7-9.55,1.23-14.53,1.58a148.46,148.46,0,0,1-15.3.41,195.12,195.12,0,0,1-32-3.89c-4.85-1-9.63-2.12-14.26-3.5a77.94,77.94,0,0,1-13.31-5.1l0,0a13.2,13.2,0,0,1-5.28-4.06,17.9,17.9,0,0,1-3-5.8,26.66,26.66,0,0,1-.78-3.14c-.13-1.07-.3-2.13-.35-3.18-.17-2.11-.25-4.2-.31-6.27-.21-8.27,0-16.2.25-23.71.14-3.76.34-7.41.58-10.94s.54-7,1-10.24C2.83,219,3.76,213,4.63,207.46c1.76-11,3.33-19.81,4.63-25.82.64-3,1.21-5.31,1.67-6.85.21-.78.45-1.35.58-1.74S11.74,172.48,11.74,172.48Z"/><path class="cls-15" d="M41.33,248.7c11-12.16,10.5-33.79,4.2-49.14-.59,16.63-2.55,31.37-4.05,47.52"/><path class="cls-9" d="M45.55,202.67a2.53,2.53,0,0,1,0,.54c0,.39-.06.9-.1,1.52-.11,1.37-.26,3.26-.44,5.57-.39,4.77-.93,11.24-1.52,18.4s-1.07,13.63-1.44,18.4c-.17,2.31-.31,4.2-.42,5.57l-.13,1.52a2.26,2.26,0,0,1-.08.53,2.82,2.82,0,0,1,0-.54c0-.39,0-.9,0-1.52,0-1.32.14-3.23.27-5.59.27-4.71.72-11.22,1.31-18.41s1.18-13.69,1.65-18.39c.24-2.3.44-4.19.59-5.56.07-.62.13-1.12.18-1.51A2.1,2.1,0,0,1,45.55,202.67Z"/><path class="cls-9" d="M72.63,180.7c.13,0,.23,4.22.23,9.43s-.1,9.43-.23,9.43-.23-4.22-.23-9.43S72.5,180.7,72.63,180.7Z"/><path class="cls-15" d="M65.48,212a9.6,9.6,0,0,0,2,5,6.56,6.56,0,0,0,4.82,2.55,7.34,7.34,0,0,0,6.48-3.25c2.06-3.27,2.57-10.08.92-14.11-1.14-2.77-3.68-5.34-6.67-5.41a7.36,7.36,0,0,0-7.23,5.61"/><path class="cls-9" d="M65.82,202.43a6.06,6.06,0,0,1,.73-1.92A8,8,0,0,1,68,198.58,6.75,6.75,0,0,1,70.8,197a7,7,0,0,1,1.87-.3,5.4,5.4,0,0,1,2,.27,8,8,0,0,1,3.64,2.61A10.43,10.43,0,0,1,80.5,204a19.33,19.33,0,0,1,.4,5.29,14.63,14.63,0,0,1-2.28,7.7,6.83,6.83,0,0,1-3,2.24,8.14,8.14,0,0,1-3.36.56h0a5,5,0,0,1-2.41-.59,8.11,8.11,0,0,1-1.8-1.26,8.89,8.89,0,0,1-2-2.94,8.71,8.71,0,0,1-.63-2.17,5.63,5.63,0,0,1,0-.58c0-.14,0-.21,0-.21a11.26,11.26,0,0,0,.87,2.87,9,9,0,0,0,2,2.8,8.07,8.07,0,0,0,1.76,1.18,4.67,4.67,0,0,0,2.23.52h0a7.15,7.15,0,0,0,5.94-2.68,14.35,14.35,0,0,0,2.16-7.46c.19-3.53-.4-7.09-2.41-9.46a7.67,7.67,0,0,0-3.43-2.52,5.14,5.14,0,0,0-1.92-.27,6.83,6.83,0,0,0-1.78.25,6.6,6.6,0,0,0-2.69,1.51,8,8,0,0,0-1.5,1.83A16.39,16.39,0,0,0,65.82,202.43Z"/><path class="cls-15" d="M63.39,212.21a9.65,9.65,0,0,0,2,5,6.57,6.57,0,0,0,4.82,2.56,7.34,7.34,0,0,0,6.48-3.25c2.06-3.28,2.57-10.09.92-14.11C76.49,199.64,74,197.07,71,197a7.38,7.38,0,0,0-7.23,5.62"/><path class="cls-9" d="M63.73,202.61a6,6,0,0,1,.73-1.92,8,8,0,0,1,1.47-1.94,6.94,6.94,0,0,1,4.65-1.93,5.83,5.83,0,0,1,2,.27,8,8,0,0,1,3.64,2.62,10.38,10.38,0,0,1,2.15,4.46,19.27,19.27,0,0,1,.4,5.29,14.6,14.6,0,0,1-2.28,7.7,6.9,6.9,0,0,1-3,2.24,8.14,8.14,0,0,1-3.36.56h0a5.12,5.12,0,0,1-2.41-.6A7.8,7.8,0,0,1,66,218.1a9.4,9.4,0,0,1-2.6-5.1,5.78,5.78,0,0,1,0-.59c0-.13,0-.2,0-.2a11.38,11.38,0,0,0,.87,2.87,9.13,9.13,0,0,0,2,2.8A7.7,7.7,0,0,0,68,219.05a4.68,4.68,0,0,0,2.23.53h0a7.13,7.13,0,0,0,5.94-2.69,14.33,14.33,0,0,0,2.16-7.46c.19-3.53-.4-7.09-2.41-9.45a7.67,7.67,0,0,0-3.43-2.52,5.34,5.34,0,0,0-1.91-.28,6.84,6.84,0,0,0-1.79.26,6.59,6.59,0,0,0-2.69,1.5,8,8,0,0,0-1.5,1.84A16.39,16.39,0,0,0,63.73,202.61Z"/><path class="cls-15" d="M67.17,201.61a4.59,4.59,0,0,0-4.79,2.76,8,8,0,0,0,0,5.82,7.16,7.16,0,0,0,1.49,2.63,3.93,3.93,0,0,0,2.66,1.29,4.63,4.63,0,0,0,3.69-2.18,8.31,8.31,0,0,0,1.25-6.84c-.4-1.55-1.54-3.14-3.14-3.18"/><path class="cls-9" d="M68.34,201.91a.86.86,0,0,1,.35,0,2.45,2.45,0,0,1,1,.33,4.74,4.74,0,0,1,2,3.07,8.38,8.38,0,0,1-.55,5.46,7,7,0,0,1-2,2.63,3.87,3.87,0,0,1-3.44.83A4.81,4.81,0,0,1,63,212a10,10,0,0,1-1.15-3.09,6.87,6.87,0,0,1,.89-5.39,4.83,4.83,0,0,1,3.11-2,3.4,3.4,0,0,1,1,0c.23.05.35.08.34.1a5.71,5.71,0,0,0-1.32.08,4.75,4.75,0,0,0-2.88,2,6.64,6.64,0,0,0-.74,5.12,9.81,9.81,0,0,0,1.11,2.93,4.39,4.39,0,0,0,2.49,2,3.42,3.42,0,0,0,3-.74,6.75,6.75,0,0,0,1.89-2.45,8.15,8.15,0,0,0,.62-5.21,4.72,4.72,0,0,0-1.81-3A4,4,0,0,0,68.34,201.91Z"/><path class="cls-9" d="M71.68,216.28c-.08,0-.17-.28-.48-.64a3.4,3.4,0,0,0-1.52-1,8.73,8.73,0,0,0-1.88-.29c-.49,0-.81-.08-.81-.14s.3-.14.81-.19a5.36,5.36,0,0,1,2,.18,3,3,0,0,1,1.65,1.23C71.75,215.92,71.73,216.27,71.68,216.28Z"/><path class="cls-9" d="M72.38,200.39s-.14.32-.56.65a4.38,4.38,0,0,1-1.88.82,4.46,4.46,0,0,1-2-.11c-.5-.16-.77-.36-.74-.41a10.84,10.84,0,0,0,2.71.06A10.86,10.86,0,0,0,72.38,200.39Z"/><path class="cls-9" d="M133.7,136.46a.83.83,0,0,1,.3.11,6.89,6.89,0,0,1,.79.41,15.77,15.77,0,0,1,2.68,1.91,19.24,19.24,0,0,1,5.74,9.09,58.57,58.57,0,0,1,2.19,10.58c.15,1.38.24,2.49.29,3.26a6.47,6.47,0,0,1,0,1.2,5.94,5.94,0,0,1-.2-1.18c-.12-.85-.26-1.94-.44-3.24a69.05,69.05,0,0,0-2.3-10.49,19.9,19.9,0,0,0-5.52-9A29.13,29.13,0,0,0,133.7,136.46Z"/><path class="cls-9" d="M122.59,234.7c2.58-.09,4.65-2.67,7.24-2.54a3.6,3.6,0,1,1-.61,7.17c-2.72-.32-4.3-3.5-7-4.11"/><path class="cls-9" d="M144.52,236.91a15.89,15.89,0,0,1-2.42-.2l.14-.88a10.29,10.29,0,0,0,8-1.56c2.65-1.94,4.35-5.42,5.07-10.32l0-.19c.3-1.95.7-40.12.7-47.37,0-11.32-9.94-12.86-10.36-12.92s-9.43-1.59-14.23,10.78c-5,12.95-13,37.9-13.57,40.82-.06.36-.16.81-.28,1.32-.83,3.74-2.57,11.54,2.63,16,5.79,5,10.36,3.07,10.55,3l.37.81c-.21.09-5.26,2.27-11.5-3.12-5.6-4.84-3.79-13-2.92-16.89.11-.51.21-.94.27-1.29.54-2.94,8.59-28,13.62-41s15.1-11.37,15.2-11.34a13.41,13.41,0,0,1,11.11,13.8c0,6-.39,45.44-.7,47.5l0,.18c-.75,5.16-2.58,8.83-5.42,10.92A10.25,10.25,0,0,1,144.52,236.91Z"/><path class="cls-9" d="M156.46,183.69a16.77,16.77,0,0,0-1.86-4.45,15.2,15.2,0,0,0-9.26-6.52,16.74,16.74,0,0,0-11.3,1.47,20.77,20.77,0,0,0-3.93,2.81s.06-.1.2-.27A9.13,9.13,0,0,1,131,176a13.33,13.33,0,0,1,2.9-2.12,16.65,16.65,0,0,1,11.56-1.64,15.25,15.25,0,0,1,5.89,2.83,14.76,14.76,0,0,1,3.55,4,11.82,11.82,0,0,1,1.37,3.32,5.82,5.82,0,0,1,.18,1A1.45,1.45,0,0,1,156.46,183.69Z"/><path class="cls-9" d="M179.18,255.05a28.23,28.23,0,0,0-1.22-3.81,16.7,16.7,0,0,0-6.05-7.27A13.37,13.37,0,0,0,167,242.2c-1.61-.27-3.08-.36-4.32-.45l-2.94-.2a4.44,4.44,0,0,1-1.07-.15,5,5,0,0,1,1.08,0l2.95.06a36,36,0,0,1,4.37.35,13.1,13.1,0,0,1,5.1,1.8,16.18,16.18,0,0,1,6.1,7.53,14.15,14.15,0,0,1,.82,2.85A4,4,0,0,1,179.18,255.05Z"/><path class="cls-11" d="M134.16,240.15s8.78-13.29,11-15,21.4-10.39,23.65-9,.86,4.41.86,4.41,8.11-2.84,9-1.72a4,4,0,0,1,0,4.57s4.49-.69,4.49.69a5.68,5.68,0,0,1-2.59,4.66c-2.07,1.55-15.54,10.52-16.62,13l-4.36-.27Z"/><path class="cls-12" d="M159.42,236.35a3.48,3.48,0,0,1,.4-.84,15.41,15.41,0,0,1,1.44-2.08,24.34,24.34,0,0,1,6.37-5.36,48.63,48.63,0,0,1,7.53-3.54c1-.37,1.8-.66,2.37-.85a3.5,3.5,0,0,1,.89-.25,3.41,3.41,0,0,1-.83.42l-2.31,1a62.09,62.09,0,0,0-7.41,3.63,26.57,26.57,0,0,0-6.35,5.17C160.13,235.23,159.49,236.39,159.42,236.35Z"/><path class="cls-12" d="M148.29,236.13a4.61,4.61,0,0,1,.42-1c.31-.61.75-1.49,1.35-2.56a24.09,24.09,0,0,1,2.42-3.59,11.75,11.75,0,0,1,1.84-1.82c.74-.5,1.52-1,2.33-1.44a63.88,63.88,0,0,1,8.57-4.28,26.5,26.5,0,0,1,2.75-.92,5,5,0,0,1,1.05-.19c0,.08-1.45.42-3.68,1.42a81.43,81.43,0,0,0-8.46,4.37c-.8.47-1.58.94-2.3,1.42a11.1,11.1,0,0,0-1.77,1.72,27.06,27.06,0,0,0-2.46,3.47l-1.48,2.49A4.45,4.45,0,0,1,148.29,236.13Z"/></g></svg>