<svg id="Layer_1" data-name="Layer 1" xmlns="http://www.w3.org/2000/svg" xmlns:xlink="http://www.w3.org/1999/xlink" viewBox="0 0 452.33 452.33"><defs><style>.cls-1{fill:none;}.cls-2{clip-path:url(#clip-path);}.cls-3{fill:#ff725e;}.cls-4{opacity:0.6;}.cls-5{fill:#fff;}.cls-6{fill:#263238;}.cls-7{fill:#e8505b;}.cls-8{clip-path:url(#clip-path-2);}.cls-9{fill:#ffbe9d;}.cls-10{fill:#fecb27;}.cls-11{fill:#455a64;}.cls-12{fill:#eb996e;}.cls-13{fill:#efb920;}</style><clipPath id="clip-path"><circle class="cls-1" cx="322.62" cy="-467.35" r="162.5"/></clipPath><clipPath id="clip-path-2"><circle class="cls-1" cx="226.17" cy="226.17" r="226.17"/></clipPath></defs><g class="cls-2"><path class="cls-3" d="M399,15.58l15.62,62.59L340.47,97.91c-1.52-7.54,36-33.21,36-33.21L365,22.91Z"/><g class="cls-4"><path class="cls-5" d="M395.4,55.79a3.28,3.28,0,0,1,3.05,3.06A3,3,0,0,1,395.63,62a3.47,3.47,0,0,1-3.21-3.26c.1-1.61,1.78-3.28,3.29-2.9"/></g><g class="cls-4"><path class="cls-5" d="M414.62,78.17l-1.87-6.24L342.36,93.19s-2.9,2.38-1.89,4.72Z"/></g><path class="cls-6" d="M375.58,65.7c.11.38,2,.07,4.07.81s3.48,2.09,3.77,1.85-.82-2.28-3.38-3.14S375.41,65.37,375.58,65.7Z"/><path class="cls-6" d="M366.8,71.82c0,.39,1.75.61,3.41,1.89s2.45,2.88,2.81,2.77,0-2.32-2.06-3.87S366.71,71.45,366.8,71.82Z"/><path class="cls-6" d="M365,82.33c.35,0,.36-2-1.12-3.86s-3.39-2.21-3.46-1.85,1.27,1.19,2.46,2.71S364.65,82.39,365,82.33Z"/><path class="cls-6" d="M373.41,55.14c.24.31,1.76-.66,3.85-1.06s3.86-.14,4-.52-1.79-1.32-4.24-.81S373.15,54.89,373.41,55.14Z"/><path class="cls-6" d="M369.62,46.17c0,.15,1.53,0,3.71-1a16.75,16.75,0,0,0,3.56-2.29,18.52,18.52,0,0,0,1.82-1.75,4.92,4.92,0,0,0,.88-1.21,1.81,1.81,0,0,0-.37-2.07,2,2,0,0,0-1.82-.44,4.74,4.74,0,0,0-1.34.57A13.51,13.51,0,0,0,374,39.41a14,14,0,0,0-2.8,3.27c-1.28,2.13-1.49,3.7-1.35,3.74s.72-1.33,2.11-3.17a15.2,15.2,0,0,1,2.8-2.84,13.56,13.56,0,0,1,1.95-1.25c.72-.43,1.39-.61,1.69-.3.11.12.13.17,0,.46a3.71,3.71,0,0,1-.65.88,17.81,17.81,0,0,1-1.65,1.7,20,20,0,0,1-3.21,2.4C370.93,45.49,369.56,46,369.62,46.17Z"/><path class="cls-6" d="M370.24,46.58c.14,0,.5-1.52,0-4a13.73,13.73,0,0,0-1.64-4.13A12.68,12.68,0,0,0,367,36.33,3.18,3.18,0,0,0,364.14,35a1.77,1.77,0,0,0-1.27,1.49,6,6,0,0,0,0,1.53,9,9,0,0,0,.69,2.62,9.46,9.46,0,0,0,2.65,3.6c2,1.63,3.61,1.68,3.6,1.54s-1.38-.62-3-2.26a9.35,9.35,0,0,1-2.14-3.34,8.37,8.37,0,0,1-.53-2.27c-.1-.85,0-1.6.34-1.59s1.15.35,1.63.93a12.71,12.71,0,0,1,1.48,1.86,14.8,14.8,0,0,1,1.74,3.69C370,45.06,370,46.58,370.24,46.58Z"/><path class="cls-3" d="M461.22,29.25,460,93.75l-76.73-.22c.48-7.67,43.43-22.7,43.43-22.7l-.22-43.34Z"/><g class="cls-4"><path class="cls-5" d="M447.3,67.14a3.29,3.29,0,0,1,2.15,3.75,3,3,0,0,1-3.54,2.27,3.46,3.46,0,0,1-2.25-4c.52-1.52,2.57-2.7,3.92-1.94"/></g><g class="cls-4"><path class="cls-5" d="M460,93.75l-.19-6.52-73.49,2.23s-3.42,1.55-3.05,4.07Z"/></g><path class="cls-6" d="M425.58,71.56c0,.39,1.89.57,3.72,1.84s2.82,2.92,3.16,2.76-.2-2.42-2.45-3.91S425.5,71.2,425.58,71.56Z"/><path class="cls-6" d="M415.51,75.18c-.08.38,1.54,1,2.8,2.71s1.62,3.42,2,3.41.62-2.24-1-4.27S415.52,74.8,415.51,75.18Z"/><path class="cls-6" d="M411.06,84.87c.34.09.87-1.87-.08-4s-2.7-3-2.86-2.69.92,1.48,1.68,3.26S410.69,84.83,411.06,84.87Z"/><path class="cls-6" d="M426.23,60.79c.15.36,1.87-.17,4,0s3.77.86,4,.53-1.38-1.74-3.88-1.89S426,60.49,426.23,60.79Z"/><path class="cls-6" d="M424.91,51.14c0,.17,1.47.41,3.84,0a16.83,16.83,0,0,0,4-1.28A18.06,18.06,0,0,0,435,48.63a4.68,4.68,0,0,0,1.17-.94,1.8,1.8,0,0,0,.18-2.09,2,2,0,0,0-1.64-.9,5.05,5.05,0,0,0-1.44.2,13.51,13.51,0,0,0-5.95,3.28c-1.79,1.72-2.4,3.19-2.28,3.26s1.05-1.09,2.86-2.51a15.38,15.38,0,0,1,3.44-2,14.64,14.64,0,0,1,2.21-.7c.81-.22,1.51-.23,1.71.15.08.15.09.2-.08.45a3.8,3.8,0,0,1-.86.69,20.37,20.37,0,0,1-5.76,2.69C426.35,50.83,424.9,50.93,424.91,51.14Z"/><path class="cls-6" d="M425.39,51.71c.14.06.89-1.35,1-3.89a13.51,13.51,0,0,0-.51-4.4A13.8,13.8,0,0,0,425,41a3.21,3.21,0,0,0-2.45-2,1.81,1.81,0,0,0-1.61,1.12,5.81,5.81,0,0,0-.4,1.47,9.66,9.66,0,0,0,1.61,6.88c1.49,2.08,3.05,2.56,3.08,2.42s-1.18-1-2.31-3a9.57,9.57,0,0,1-1.2-3.78,8.73,8.73,0,0,1,.08-2.33c.12-.85.43-1.54.74-1.45s1,.64,1.34,1.32a13.66,13.66,0,0,1,.94,2.18,14.94,14.94,0,0,1,.72,4C425.6,50.18,425.19,51.65,425.39,51.71Z"/><path class="cls-6" d="M346.3-291.58S314.22-103.77,317.83-90.06,364.29,63.27,364.29,63.27l52.65-16.62L383.82-85.43s21.7-103.64,21.7-105.36,8.68-77,8.68-77Z"/><path class="cls-6" d="M488-247.7c-2.89-34.43-12.3-58.38-12.3-58.38-2.9,1.44-81,42.27-81,42.27l15.11,178.2,8.76,151.85h45.58s7.16-129.57,9.24-157C473.36-90.72,490.9-213.26,488-247.7Z"/></g><circle class="cls-7" cx="226.17" cy="226.17" r="226.17"/><g class="cls-8"><path class="cls-9" d="M186.06,255.22l164.62,28.54s-139,14.59-139,12.68S186.06,255.22,186.06,255.22Z"/><path class="cls-10" d="M326.7,185.4c-.39-10-6.35-18.74-10.78-27.69-6.47-13.06-9.9-27.37-13.51-41.49s-7.5-28.37-14.76-41-18.34-23.67-32.28-27.93S224.59,46.85,216,58.6l16,34.24a692.08,692.08,0,0,0,47,151.09,203.86,203.86,0,0,0,46.35-11.45c3.06-1.16,6.52-2.86,7.14-6.07.77-3.91-3.05-7-5.23-10.3-2.87-4.37-3-10-2.35-15.17S326.91,190.62,326.7,185.4Z"/><path class="cls-11" d="M239.32,61.82a40,40,0,0,0-18.71-5.07c-2.66,0-5.46.21-7.68,1.66s-3.66,4.43-2.61,6.88L231.2,82.15c3.71,1.91,8.35.12,11.45-2.68,2.4-2.17,4.33-5.19,4.12-8.41C246.5,66.94,242.92,63.84,239.32,61.82Z"/><path class="cls-9" d="M213.62,288.36Z"/><path class="cls-9" d="M144.64,154.34c-6-31.29,13.09-63.15,44.51-71.14,33.34-8.48,66.48,11.84,73.62,44.46l25.44,132.15c.49,2.56,5.47,13.63,4.29,15.95-6.32,12.46-24.69,14.83-37.11,18.25-12,3.31-24.88,1.76-36-2.66a11.45,11.45,0,0,1-7-9l-4.46-29.74a.2.2,0,0,0-.23-.17,41,41,0,0,1-8.39.87c-8.14-.89-29.26-6-39.87-34.59C155.83,209.23,149.91,181.76,144.64,154.34Z"/><path class="cls-12" d="M194.59,192.13c0-.3-3.38-.19-8.75.21-1.36.14-2.67.13-3.07-.71s-.22-2.41.12-4.06q.95-5.13,2-10.76c2.66-15.29,4.31-27.76,3.69-27.85s-3.29,12.23-6,27.52q-.94,5.64-1.79,10.78c-.21,1.59-.74,3.45.32,5.28A3.4,3.4,0,0,0,183.7,194a9.75,9.75,0,0,0,2.32-.15C191.35,193.07,194.63,192.42,194.59,192.13Z"/><path class="cls-12" d="M208.24,252.4S228.67,250,250.88,230c0,0-2.77,27.76-41.22,32Z"/><path class="cls-13" d="M223.37,144.51c-.44-1.45-5.77-1-12-2.12s-11.12-3-12-1.77c-.4.59.4,2,2.35,3.45a20.17,20.17,0,0,0,8.78,3.55A20.52,20.52,0,0,0,220,147C222.35,146.25,223.56,145.19,223.37,144.51Z"/><path class="cls-13" d="M168,147.51c-1.55-.49-4.74,2.72-9.28,5.33s-8.81,4-9.1,5.63c-.1.74,1.09,1.44,3.32,1.47a18.22,18.22,0,0,0,14.81-8.83C168.72,149.14,168.66,147.77,168,147.51Z"/><path class="cls-10" d="M184,77.15c2.14-5,7-7.85,12.58-9.47,22.86-6.59,50.75,4,66.4,22s20.2,47.14,13.46,70l-8.54,2.68c-18.37,1.3-55.7-45.45-84.94-70.14C179.35,89.07,182.18,81.53,184,77.15Z"/><path class="cls-10" d="M141.38,98.32c8.3-12.38,22.38-28,43.65-22.95,3.73,5.28-1.32,13.43-5.77,18.39-6.52,7.27-12.38,12.37-16.61,17.51-8.56,10.39-18.65,27.06-17.41,43.91.08,1.06-.7,1.31-1.78,1.29-1.39,0-5.43-6.44-8.23-15.32C129.26,122.24,133.08,110.7,141.38,98.32Z"/><path class="cls-9" d="M260.73,152.41c.5-.37,20.93-11.73,25.28,10.76s-19.13,22.22-19.29,21.58S260.73,152.41,260.73,152.41Z"/><path class="cls-12" d="M271.94,174.9c.09-.09.45.2,1.17.37a4,4,0,0,0,2.94-.5c2.21-1.33,3.48-5.49,2.8-9.57a13.15,13.15,0,0,0-2.18-5.39c-1-1.52-2.29-2.46-3.53-2.44a2,2,0,0,0-2.1,1.52c-.18.69,0,1.11-.06,1.17s-.56-.28-.56-1.25a2.57,2.57,0,0,1,.62-1.58,3,3,0,0,1,2-1c1.76-.21,3.63,1.08,4.77,2.7a13.57,13.57,0,0,1,2.57,6c.73,4.56-.77,9.25-3.84,10.82a4.27,4.27,0,0,1-3.7.1C272.09,175.43,271.87,175,271.94,174.9Z"/><path class="cls-13" d="M137.41,103.55c0,.18,2.58.25,6.72-.12a94.07,94.07,0,0,0,16-3,93.21,93.21,0,0,0,15.21-5.67c3.75-1.8,5.92-3.18,5.84-3.34s-2.43.87-6.24,2.43a139.62,139.62,0,0,1-15.19,5.21A140,140,0,0,1,144,102.43C139.94,103.06,137.39,103.34,137.41,103.55Z"/><path class="cls-13" d="M132.22,120.93c0,.16,1.93.52,5.1.42a38.38,38.38,0,0,0,22.81-8.7c2.44-2,3.65-3.6,3.53-3.71-.3-.36-5.84,5.27-14.73,8.6S132.2,120.47,132.22,120.93Z"/><path class="cls-13" d="M267.05,96.93c-.08-.28-4.82,1.32-12.75,2.29a97,97,0,0,1-14,.66,125.78,125.78,0,0,1-17.06-1.78,136.59,136.59,0,0,1-16.65-4.19,126.85,126.85,0,0,1-13.07-5.11c-7.27-3.33-11.46-6-11.6-5.81a16.28,16.28,0,0,0,2.85,2c.93.64,2.11,1.36,3.51,2.13s3,1.69,4.81,2.55a109.75,109.75,0,0,0,13.09,5.44A126.77,126.77,0,0,0,223,99.5a117.73,117.73,0,0,0,17.29,1.69,89,89,0,0,0,14.15-1,49.1,49.1,0,0,0,5.35-1,29.92,29.92,0,0,0,4-1.06A17.16,17.16,0,0,0,267.05,96.93Z"/><path class="cls-13" d="M184.63,90.69a17.85,17.85,0,0,0,2.28,2.88,41.61,41.61,0,0,0,2.92,3.16c1.2,1.18,2.49,2.6,4.11,4a94.51,94.51,0,0,0,11.77,9.07,101.35,101.35,0,0,0,16.12,8.45,98.89,98.89,0,0,0,17.47,5.15,89.25,89.25,0,0,0,14.78,1.54c2.12.12,4,0,5.71-.09a36.1,36.1,0,0,0,4.29-.34,17.13,17.13,0,0,0,3.62-.57c0-.29-5.21.37-13.58,0a96.9,96.9,0,0,1-14.57-1.81,105.89,105.89,0,0,1-17.19-5.18,108.49,108.49,0,0,1-16-8.24,104.64,104.64,0,0,1-11.81-8.73C188.24,94.48,184.84,90.5,184.63,90.69Z"/><path class="cls-13" d="M250.13,146c0-.34-5.41,1-14-.34s-20-5.87-29.74-14.84-15.77-19.61-19.56-27.37c-1.9-3.91-3.29-7.15-4.23-9.39A21,21,0,0,0,181,90.63a18.21,18.21,0,0,0,1.05,3.66c.79,2.31,2,5.63,3.84,9.62,3.59,7.93,9.58,18.8,19.51,28s21.83,13.78,30.56,14.78a41.12,41.12,0,0,0,10.39.1,26.13,26.13,0,0,0,2.79-.47C249.81,146.17,250.14,146.08,250.13,146Z"/><path class="cls-10" d="M142.75,190.26a3.67,3.67,0,0,0,2.6-.81,5,5,0,0,0,1.61-2.76,5.24,5.24,0,0,0-.89-4.05,14.83,14.83,0,0,0-3.83-3.67,32.32,32.32,0,0,1-5-3.94,8.92,8.92,0,0,1-1.92-3,7.64,7.64,0,0,1-.37-3.74,17.51,17.51,0,0,1,3-7,24.77,24.77,0,0,0,3.41-6.44,10.93,10.93,0,0,0-.36-6.54c-1.4-4.11-3.86-7.4-4.91-10.68a12.58,12.58,0,0,1-.51-8,6.68,6.68,0,0,1,1-2c.32-.38.5-.57.53-.55a13.31,13.31,0,0,0-1.14,2.62,12.67,12.67,0,0,0,.81,7.6c1.09,3.12,3.59,6.32,5.14,10.61a12,12,0,0,1,.43,7.14,25.61,25.61,0,0,1-3.52,6.73,16.78,16.78,0,0,0-2.89,6.57,7,7,0,0,0,2,6,32.94,32.94,0,0,0,4.82,3.9,14.88,14.88,0,0,1,3.94,4,5.78,5.78,0,0,1,.83,4.58,5.39,5.39,0,0,1-1.92,2.94,3.19,3.19,0,0,1-2.12.68A1.36,1.36,0,0,1,142.75,190.26Z"/><path class="cls-13" d="M279.12,149.87a6.2,6.2,0,0,1,0-1.21c0-.79.14-1.95.17-3.45a104,104,0,0,0-.25-12.65,86.86,86.86,0,0,0-3.43-18.4,73.35,73.35,0,0,0-9.79-20.62,56.75,56.75,0,0,0-7.74-8.92,62.07,62.07,0,0,0-8.76-6.69,76.39,76.39,0,0,0-17-7.85,105.24,105.24,0,0,0-12.24-3.23c-1.46-.33-2.61-.5-3.39-.67a6.29,6.29,0,0,1-1.17-.29,4.8,4.8,0,0,1,1.21.08c.78.1,1.95.21,3.43.48a89.88,89.88,0,0,1,12.39,2.91,74.3,74.3,0,0,1,17.25,7.75,61.6,61.6,0,0,1,9,6.75,57.1,57.1,0,0,1,7.9,9.08,73,73,0,0,1,9.86,20.94,84.23,84.23,0,0,1,3.24,18.62,87.54,87.54,0,0,1-.09,12.74c-.09,1.5-.28,2.66-.37,3.44A4.62,4.62,0,0,1,279.12,149.87Z"/><path class="cls-13" d="M276.34,224.45a3.49,3.49,0,0,1-.8-.58,16.06,16.06,0,0,1-2-2,22.3,22.3,0,0,1-4.76-9.17,23.14,23.14,0,0,1-.66-7.17,44.68,44.68,0,0,1,1.76-8c.68-2.68,1-5.87-1-8.11s-5.15-3.31-7.66-5.8a5.41,5.41,0,0,1-1.48-5,22.55,22.55,0,0,1,2-4.46c1.39-2.69.69-5.76-.72-8.12a23.11,23.11,0,0,0-5.37-5.86,42,42,0,0,1-5.22-4.9,10.69,10.69,0,0,1-2.59-9.81,5.72,5.72,0,0,1,1.43-2.45,2.36,2.36,0,0,1,.78-.61,7.58,7.58,0,0,0-1.81,3.17,10.38,10.38,0,0,0,2.76,9.22,43.15,43.15,0,0,0,5.21,4.71,23.49,23.49,0,0,1,5.65,6,11.62,11.62,0,0,1,1.57,4.29,8.29,8.29,0,0,1-.75,4.76,23.42,23.42,0,0,0-1.88,4.24,4.34,4.34,0,0,0,1.23,4c2.19,2.24,5.49,3.32,7.68,5.86a7.22,7.22,0,0,1,1.73,4.52,15.69,15.69,0,0,1-.58,4.5,44.62,44.62,0,0,0-1.82,7.85,22.8,22.8,0,0,0,.51,6.93,23,23,0,0,0,4.34,9.07C275.35,223.52,276.41,224.37,276.34,224.45Z"/><path class="cls-10" d="M345.57,201.39c.2.25-.06,1.06-1.35,1.87a7.78,7.78,0,0,1-6.44.36,11,11,0,0,1-4.14-2.48,10.82,10.82,0,0,1-1.83-2.27,14.35,14.35,0,0,1-1.28-2.71c-1.38-3.95-1.1-8.51-.25-12.88s2-8.58,1.45-12.16-2.85-7.17-6.41-10.89-8.22-7.57-12.29-13a75.12,75.12,0,0,1-9.75-17.43c-5.06-12.46-7.64-24.47-11.09-34.62S284.34,76.7,279.5,70.54a45.11,45.11,0,0,0-13.9-12.05c-2-1-3.56-1.81-4.69-2.31s-1.69-1-1.65-1.4.74-.59,2.06-.69a19.71,19.71,0,0,1,5.72.55c4.84,1.14,11.79,4.45,18,10.94s12.05,15.5,16.25,26.33,7.08,22.6,11.71,33.91a72,72,0,0,0,8.25,15.23c3.09,4.38,7.34,8.13,11.25,12.67a40.32,40.32,0,0,1,5.26,7.51,22.78,22.78,0,0,1,2.64,9.05,26.45,26.45,0,0,1-.95,8.37c-.64,2.42-1.38,4.52-2,6.43-1.19,3.74-1.73,7-1.3,9.52a10.29,10.29,0,0,0,.45,1.78,6.29,6.29,0,0,0,.71,1.39,7.88,7.88,0,0,0,2.11,2.12C342.68,202.09,345.14,200.75,345.57,201.39Z"/><path class="cls-6" d="M218.61,203.68c-.11.21-1.23-.27-3.09-.55a12.8,12.8,0,0,0-12.67,5.29c-1.11,1.52-1.55,2.66-1.77,2.58s-.09-1.33.88-3.14a12,12,0,0,1,13.79-5.76C217.72,202.69,218.7,203.53,218.61,203.68Z"/><path class="cls-12" d="M227.05,165c.16.08,0,.88-.69,2a10.23,10.23,0,0,1-3.71,3.43,10.39,10.39,0,0,1-4.88,1.33c-1.3,0-2.07-.29-2.05-.48,0-.43,3.08-.37,6.21-2.15S226.66,164.76,227.05,165Z"/><path class="cls-12" d="M170.07,179.8c.14.13-.23.83-1.2,1.63a9.13,9.13,0,0,1-4.47,1.91,9.25,9.25,0,0,1-4.82-.57c-1.15-.5-1.71-1.06-1.61-1.23.19-.38,2.85.86,6.22.33S169.78,179.49,170.07,179.8Z"/><path class="cls-12" d="M212.81,283.56c-.41.06-1.61-6.1-2.69-13.77s-1.62-13.92-1.22-14,1.61,6.1,2.69,13.77S213.22,283.51,212.81,283.56Z"/><path class="cls-11" d="M145.77,263.54s-27.57,19.51-34.29,45.22S69.83,527.5,69.83,527.5h61.28l43.76-158.42Z"/><path class="cls-11" d="M365.34,331.6l-14.66-47.84s-114,10.39-119.69,11c-18.18,1.87-44.93-39.52-44.93-39.52H171.25s-14.57-2-28.8,10.67c-2.23,2-4.73,4.19-7.35,6.48-1.19,4-2.3,8-3.36,12-.88,7.92-1,15.94-1.52,23.88-.91,13.32-1.75,26.65-2,40-.18,9.14-.53,18.47.54,27.58,6.69-3.63,13.25-7.27,18.66-10.31.13,2.18.33,4.3.62,6.34,5.9,42.48,14,68,14,68L147.22,547.71H342.46l-6.27-103.46Z"/><path class="cls-6" d="M164.6,442.37a31.87,31.87,0,0,1-1.78-4.72c-1.07-3.06-2.49-7.54-4.14-13.1-3.31-11.12-7.33-26.65-10.69-44s-5.39-33.32-6.45-44.87c-.54-5.77-.88-10.46-1-13.7a33.29,33.29,0,0,1-.1-5,33.41,33.41,0,0,1,.68,5c.32,3.22.83,7.88,1.5,13.63,1.32,11.5,3.52,27.35,6.86,44.7s7.2,32.86,10.24,44c1.52,5.59,2.78,10.1,3.68,13.22A32.49,32.49,0,0,1,164.6,442.37Z"/><path class="cls-11" d="M350.68,283.76S378.25,303.27,385,329s41.65,218.74,41.65,218.74H365.34L321.58,389.29Z"/><path class="cls-5" d="M346.28,396.43a10.36,10.36,0,0,1-2,.54c-1.34.29-3.3.79-5.86,1.22a192.5,192.5,0,0,1-21.87,2.73,241.3,241.3,0,0,1-32.69,0,319.82,319.82,0,0,1-39.68-5.19c-27.91-5.44-52.46-13.25-70.11-19-8.82-2.91-15.93-5.37-20.83-7.1l-5.63-2a10.89,10.89,0,0,1-1.93-.81,10.56,10.56,0,0,1,2,.52l5.72,1.76,21,6.65c17.71,5.52,42.26,13.16,70.06,18.58a338.43,338.43,0,0,0,39.49,5.28,257.94,257.94,0,0,0,32.53.3c9.26-.53,16.72-1.45,21.84-2.25,2.57-.34,4.55-.75,5.9-.94A11.47,11.47,0,0,1,346.28,396.43Z"/><path class="cls-5" d="M399,405.24c0,.26-4.05.37-10.5,1.28-1.62.23-3.38.49-5.25.88s-3.88.82-6,1.31A119.79,119.79,0,0,0,364,413a121,121,0,0,0-12.66,5.93c-1.86,1.07-3.66,2.05-5.26,3.1s-3.11,2-4.45,2.91c-5.36,3.72-8.41,6.39-8.58,6.2s.64-.81,2-2.07c.67-.64,1.5-1.4,2.51-2.22S339.67,425,341,424s2.77-2.06,4.4-3.1,3.39-2.14,5.27-3.26A97.23,97.23,0,0,1,377,407.38c2.13-.46,4.15-.92,6.07-1.19s3.7-.54,5.34-.71,3.12-.26,4.43-.34,2.42-.1,3.34-.08A10.85,10.85,0,0,1,399,405.24Z"/><ellipse class="cls-6" cx="162.18" cy="168.34" rx="4.23" ry="8.15" transform="translate(-29.16 34.06) rotate(-11.01)"/><ellipse class="cls-6" cx="214.24" cy="159.94" rx="4.23" ry="8.15" transform="translate(-26.6 43.85) rotate(-11.01)"/></g></svg>