<svg xmlns="http://www.w3.org/2000/svg" xmlns:xlink="http://www.w3.org/1999/xlink" viewBox="0 0 958.42 595.51"><defs><style>.cls-1,.cls-34,.cls-89,.cls-90,.cls-93,.cls-94{fill:none;}.cls-2{isolation:isolate;}.cls-3{fill:#fff;}.cls-4{clip-path:url(#clip-path);}.cls-27,.cls-35,.cls-5,.cls-6,.cls-7,.cls-9{fill:#646464;}.cls-5{opacity:0.44;}.cls-6{opacity:0.29;}.cls-16,.cls-7{opacity:0.18;}.cls-26,.cls-28,.cls-29,.cls-8{fill:#757575;}.cls-10,.cls-8,.cls-9{opacity:0.6;}.cls-10,.cls-11{fill:#7d7d7d;}.cls-12,.cls-16,.cls-17,.cls-18,.cls-32{fill:#979797;}.cls-13,.cls-15{fill:#d5d5d5;}.cls-13{opacity:0.03;}.cls-14,.cls-21,.cls-24,.cls-25{fill:#b0b0b0;}.cls-15{opacity:0.06;}.cls-17{opacity:0.32;}.cls-18{opacity:0.42;}.cls-19{fill:#c7c7c7;}.cls-20{opacity:0.13;}.cls-21,.cls-31{opacity:0.37;}.cls-22,.cls-23{fill:#cacaca;}.cls-22{opacity:0.68;}.cls-24,.cls-28{opacity:0.12;}.cls-25{opacity:0.27;}.cls-26{opacity:0.17;}.cls-30{fill:#d6d6d6;}.cls-32{opacity:0.11;}.cls-33{fill:#aeaeae;}.cls-34{stroke:#bcbcbc;stroke-linecap:round;stroke-linejoin:round;stroke-width:0;}.cls-35{opacity:0.1;}.cls-36{fill:#f5f5f5;}.cls-37{fill:#ebebeb;}.cls-38{fill:#263238;}.cls-39{fill:#e0e0e0;}.cls-40{fill:#455a64;}.cls-41{fill:#ff725e;}.cls-42{fill:url(#linear-gradient);}.cls-43{mix-blend-mode:soft-light;}.cls-44{fill:url(#linear-gradient-2);}.cls-45{fill:url(#linear-gradient-3);}.cls-46{fill:url(#linear-gradient-4);}.cls-47{fill:url(#linear-gradient-5);}.cls-48{fill:url(#linear-gradient-6);}.cls-49{fill:#b5b5b5;}.cls-50{fill:url(#linear-gradient-7);}.cls-51,.cls-80{mix-blend-mode:multiply;}.cls-51{opacity:0.5;fill:url(#linear-gradient-8);}.cls-52{fill:url(#linear-gradient-9);}.cls-53{fill:url(#linear-gradient-10);}.cls-54{fill:url(#linear-gradient-11);}.cls-55{fill:url(#linear-gradient-12);}.cls-56{fill:url(#linear-gradient-13);}.cls-57{fill:url(#linear-gradient-14);}.cls-58{fill:url(#linear-gradient-15);}.cls-59{fill:url(#linear-gradient-16);}.cls-60{fill:url(#linear-gradient-17);}.cls-61{fill:url(#linear-gradient-18);}.cls-62{fill:url(#linear-gradient-19);}.cls-63{fill:url(#linear-gradient-20);}.cls-64{fill:url(#linear-gradient-21);}.cls-65{fill:url(#linear-gradient-22);}.cls-66{fill:url(#linear-gradient-23);}.cls-67{fill:url(#linear-gradient-24);}.cls-68{fill:url(#linear-gradient-25);}.cls-69{fill:url(#linear-gradient-26);}.cls-70{fill:url(#linear-gradient-27);}.cls-71{fill:url(#linear-gradient-28);}.cls-72{fill:url(#linear-gradient-29);}.cls-73{fill:url(#linear-gradient-30);}.cls-74{fill:url(#linear-gradient-31);}.cls-75{fill:url(#linear-gradient-32);}.cls-76{fill:url(#linear-gradient-33);}.cls-77{fill:url(#linear-gradient-34);}.cls-78{fill:url(#linear-gradient-35);}.cls-79{fill:url(#linear-gradient-36);}.cls-80,.cls-81{opacity:0.3;}.cls-80{fill:url(#linear-gradient-37);}.cls-82{fill:#ffbe9d;}.cls-83{fill:#eb996e;}.cls-84{fill:#a8a8a8;}.cls-85{fill:silver;}.cls-86{fill:#cbcbcb;}.cls-87{fill:#9d9d9d;}.cls-88{fill:#b4b4b4;}.cls-89{stroke:#919191;stroke-width:1.15px;}.cls-89,.cls-90,.cls-93,.cls-94,.cls-95{stroke-miterlimit:10;}.cls-90,.cls-93,.cls-95{stroke:#d7d7d7;}.cls-90{stroke-width:0.52px;}.cls-91,.cls-92{opacity:0.24;}.cls-91{fill:url(#linear-gradient-38);}.cls-92{fill:url(#linear-gradient-39);}.cls-93{stroke-width:0.72px;}.cls-94{stroke:#fff;stroke-width:0.56px;}.cls-95{fill:#d7d7d7;}</style><clipPath id="clip-path"><rect class="cls-1" x="473.93" y="16.74" width="217.65" height="208.66"/></clipPath><linearGradient id="linear-gradient" x1="67.03" y1="95.79" x2="323.19" y2="363.54" gradientUnits="userSpaceOnUse"><stop offset="0" stop-color="#a8a8a8"/><stop offset="1" stop-color="#8d8d8d"/></linearGradient><linearGradient id="linear-gradient-2" x1="150.68" y1="259.31" x2="190.95" y2="259.31" gradientUnits="userSpaceOnUse"><stop offset="0" stop-color="#f9f9f9"/><stop offset="1" stop-color="#dedede"/></linearGradient><linearGradient id="linear-gradient-3" x1="150.68" y1="265.48" x2="190.95" y2="265.48" xlink:href="#linear-gradient-2"/><linearGradient id="linear-gradient-4" x1="150.68" y1="271.65" x2="190.95" y2="271.65" xlink:href="#linear-gradient-2"/><linearGradient id="linear-gradient-5" x1="131.67" y1="156.99" x2="156.7" y2="199.68" gradientUnits="userSpaceOnUse"><stop offset="0" stop-color="#f9f9f9"/><stop offset="1" stop-color="#241f21"/></linearGradient><linearGradient id="linear-gradient-6" x1="160.15" y1="187.66" x2="212.86" y2="351.36" gradientUnits="userSpaceOnUse"><stop offset="0" stop-color="#c3c3c3"/><stop offset="1" stop-color="#f9f9f9"/></linearGradient><linearGradient id="linear-gradient-7" x1="230.08" y1="204.01" x2="219.76" y2="223.25" xlink:href="#linear-gradient-6"/><linearGradient id="linear-gradient-8" x1="127.06" y1="224.03" x2="212.93" y2="224.03" gradientUnits="userSpaceOnUse"><stop offset="0" stop-color="#d2d2d2"/><stop offset="1" stop-color="#9a9a9a"/></linearGradient><linearGradient id="linear-gradient-9" x1="347.56" y1="41.84" x2="256.06" y2="169.12" gradientUnits="userSpaceOnUse"><stop offset="0" stop-color="#d2d2d2"/><stop offset="1" stop-color="#fff"/></linearGradient><linearGradient id="linear-gradient-10" x1="221.7" y1="84.24" x2="357.19" y2="358.16" xlink:href="#linear-gradient"/><linearGradient id="linear-gradient-11" x1="167.84" y1="110.88" x2="303.33" y2="384.8" xlink:href="#linear-gradient"/><linearGradient id="linear-gradient-12" x1="218.49" y1="85.83" x2="353.98" y2="359.74" xlink:href="#linear-gradient"/><linearGradient id="linear-gradient-13" x1="215.28" y1="87.42" x2="350.77" y2="361.33" xlink:href="#linear-gradient"/><linearGradient id="linear-gradient-14" x1="212.07" y1="89" x2="347.56" y2="362.92" xlink:href="#linear-gradient"/><linearGradient id="linear-gradient-15" x1="208.86" y1="90.59" x2="344.35" y2="364.51" xlink:href="#linear-gradient"/><linearGradient id="linear-gradient-16" x1="205.64" y1="92.18" x2="341.14" y2="366.1" xlink:href="#linear-gradient"/><linearGradient id="linear-gradient-17" x1="201.29" y1="94.33" x2="336.78" y2="368.25" xlink:href="#linear-gradient"/><linearGradient id="linear-gradient-18" x1="198.08" y1="95.92" x2="333.57" y2="369.84" xlink:href="#linear-gradient"/><linearGradient id="linear-gradient-19" x1="194.87" y1="97.51" x2="330.36" y2="371.43" xlink:href="#linear-gradient"/><linearGradient id="linear-gradient-20" x1="191.66" y1="99.1" x2="327.15" y2="373.01" xlink:href="#linear-gradient"/><linearGradient id="linear-gradient-21" x1="188.45" y1="100.69" x2="323.94" y2="374.6" xlink:href="#linear-gradient"/><linearGradient id="linear-gradient-22" x1="155.03" y1="117.22" x2="290.52" y2="391.13" xlink:href="#linear-gradient"/><linearGradient id="linear-gradient-23" x1="151.65" y1="118.89" x2="287.14" y2="392.81" xlink:href="#linear-gradient"/><linearGradient id="linear-gradient-24" x1="148.28" y1="120.56" x2="283.77" y2="394.47" xlink:href="#linear-gradient"/><linearGradient id="linear-gradient-25" x1="144.9" y1="122.23" x2="280.4" y2="396.14" xlink:href="#linear-gradient"/><linearGradient id="linear-gradient-26" x1="141.53" y1="123.9" x2="277.02" y2="397.81" xlink:href="#linear-gradient"/><linearGradient id="linear-gradient-27" x1="153.62" y1="77.01" x2="252.16" y2="259.43" xlink:href="#linear-gradient"/><linearGradient id="linear-gradient-28" x1="171.81" y1="67.19" x2="270.35" y2="249.6" xlink:href="#linear-gradient"/><linearGradient id="linear-gradient-29" x1="189.71" y1="57.51" x2="288.25" y2="239.93" xlink:href="#linear-gradient"/><linearGradient id="linear-gradient-30" x1="204.63" y1="49.45" x2="303.17" y2="231.87" xlink:href="#linear-gradient"/><linearGradient id="linear-gradient-31" x1="220.29" y1="41" x2="318.83" y2="223.41" xlink:href="#linear-gradient"/><linearGradient id="linear-gradient-32" x1="186.45" y1="216.52" x2="203.24" y2="216.52" xlink:href="#linear-gradient-6"/><linearGradient id="linear-gradient-33" x1="159.19" y1="287.77" x2="150.2" y2="250.62" gradientUnits="userSpaceOnUse"><stop offset="0" stop-color="#ebebeb"/><stop offset="1" stop-color="#d0d0d0"/></linearGradient><linearGradient id="linear-gradient-34" x1="118.33" y1="181.7" x2="149.89" y2="239.62" gradientTransform="translate(19.7 -11.15) rotate(5)" xlink:href="#linear-gradient-33"/><linearGradient id="linear-gradient-35" x1="154.18" y1="195.31" x2="160.97" y2="202.11" gradientUnits="userSpaceOnUse"><stop offset="0" stop-color="#929292"/><stop offset="1" stop-color="#7f7f7f"/></linearGradient><linearGradient id="linear-gradient-36" x1="216.18" y1="240.65" x2="213.02" y2="237.94" gradientTransform="translate(-1.59 -8.53)" xlink:href="#linear-gradient-33"/><linearGradient id="linear-gradient-37" x1="141.48" y1="228.83" x2="196.7" y2="228.83" xlink:href="#linear-gradient-35"/><linearGradient id="linear-gradient-38" x1="728.34" y1="354.46" x2="768.63" y2="354.46" gradientUnits="userSpaceOnUse"><stop offset="0" stop-color="#fff"/><stop offset="1" stop-color="#fff" stop-opacity="0"/></linearGradient><linearGradient id="linear-gradient-39" x1="745.34" y1="348.47" x2="745.34" y2="364.47" xlink:href="#linear-gradient-38"/></defs><g class="cls-2"><g id="Layer_1" data-name="Layer 1"><rect class="cls-3" x="473.16" y="15.43" width="219.82" height="211.28"/><g class="cls-4"><path class="cls-3" d="M668.14,217.26l-152.83-.18a1,1,0,0,1-1-1L514.55,35a1,1,0,0,1,1-1l152.83.18a1,1,0,0,1,1,1l-.22,181.11A1,1,0,0,1,668.14,217.26Z"/><path class="cls-5" d="M668.14,217.26l-152.83-.18a1,1,0,0,1-1-1L514.55,35a1,1,0,0,1,1-1l152.83.18a1,1,0,0,1,1,1l-.22,181.11A1,1,0,0,1,668.14,217.26Z"/><path class="cls-3" d="M665.69,219.71l-152.84-.18a1,1,0,0,1-1-1l.22-181.1a1,1,0,0,1,1-1l152.84.19a1,1,0,0,1,1,1l-.22,181.11A1,1,0,0,1,665.69,219.71Z"/><path class="cls-6" d="M665.69,219.71l-152.84-.18a1,1,0,0,1-1-1l.22-181.1a1,1,0,0,1,1-1l152.84.19a1,1,0,0,1,1,1l-.22,181.11A1,1,0,0,1,665.69,219.71Z"/><path class="cls-3" d="M662.45,220.2,511.24,220a1,1,0,0,1-1-1l.22-178.83a1,1,0,0,1,1-1l151.22.19a1,1,0,0,1,1,1l-.22,178.83A1,1,0,0,1,662.45,220.2Z"/><path class="cls-7" d="M662.45,220.2,511.24,220a1,1,0,0,1-1-1l.22-178.83a1,1,0,0,1,1-1l151.22.19a1,1,0,0,1,1,1l-.22,178.83A1,1,0,0,1,662.45,220.2Z"/><path class="cls-3" d="M659.2,221l-149.59-.19a1,1,0,0,1-1-1l.21-176.4a1,1,0,0,1,1-1l149.59.18a1,1,0,0,1,1,1L660.17,220A1,1,0,0,1,659.2,221Z"/><rect class="cls-8" x="544.68" y="56.54" width="31.6" height="91.21" rx="0.61" transform="translate(457.66 662.51) rotate(-89.93)"/><path class="cls-9" d="M653.34,154.6l-136.87-.17a.87.87,0,0,1-.87-.87l0-29.86a.87.87,0,0,1,.87-.87l136.87.17a.87.87,0,0,1,.87.87l0,29.86A.87.87,0,0,1,653.34,154.6Z"/><rect class="cls-9" x="516.04" y="165" width="137.76" height="2.43"/><rect class="cls-9" x="516.04" y="158.52" width="137.76" height="2.43"/><rect class="cls-9" x="516.04" y="171.48" width="117.19" height="2.43"/><rect class="cls-10" x="520.53" y="173.54" width="31.6" height="43.09" rx="0.61" transform="translate(340.6 731.18) rotate(-89.93)"/><rect class="cls-9" x="569.09" y="173.6" width="31.6" height="43.09" rx="0.61" transform="translate(389.04 779.8) rotate(-89.93)"/><rect class="cls-8" x="617.3" y="173.66" width="31.6" height="43.09" rx="0.61" transform="translate(437.13 828.07) rotate(-89.93)"/><path class="cls-10" d="M652.79,90.05l-41.66,0a.71.71,0,0,1-.71-.72h0a.71.71,0,0,1,.71-.71l41.66.05a.72.72,0,0,1,.72.72h0A.71.71,0,0,1,652.79,90.05Z"/><path class="cls-10" d="M652.78,94.36l-41.65,0a.72.72,0,0,1-.72-.72h0a.71.71,0,0,1,.72-.71l41.66.05a.71.71,0,0,1,.71.71h0A.72.72,0,0,1,652.78,94.36Z"/><path class="cls-10" d="M652.78,98.67l-41.66,0a.71.71,0,0,1-.71-.72h0a.72.72,0,0,1,.71-.72l41.66,0a.73.73,0,0,1,.72.72h0A.72.72,0,0,1,652.78,98.67Z"/><path class="cls-10" d="M652.77,103l-41.65,0a.72.72,0,0,1-.72-.72h0a.72.72,0,0,1,.72-.72l41.65.05a.72.72,0,0,1,.72.72h0A.72.72,0,0,1,652.77,103Z"/><path class="cls-10" d="M652.77,107.29l-41.66-.05a.72.72,0,0,1-.72-.72h0a.73.73,0,0,1,.72-.72l41.66,0a.72.72,0,0,1,.72.72h0A.72.72,0,0,1,652.77,107.29Z"/><path class="cls-10" d="M652.76,111.6l-41.65,0a.72.72,0,0,1-.72-.72h0a.72.72,0,0,1,.72-.72l41.65,0a.72.72,0,0,1,.72.72h0A.72.72,0,0,1,652.76,111.6Z"/><path class="cls-10" d="M652.76,115.91l-41.66,0a.72.72,0,0,1-.72-.72h0a.72.72,0,0,1,.72-.72l41.66,0a.72.72,0,0,1,.72.72h0A.72.72,0,0,1,652.76,115.91Z"/><rect class="cls-11" x="566.98" y="25.67" width="2.87" height="107.01" rx="0.51" transform="translate(488.55 647.49) rotate(-89.93)"/><path class="cls-11" d="M528.74,63.52a6.87,6.87,0,0,1-1.57,4.87,7.16,7.16,0,0,1-9.19,0,6.84,6.84,0,0,1-1.59-4.88A6.78,6.78,0,0,1,518,58.65a7.18,7.18,0,0,1,9.21,0A6.8,6.8,0,0,1,528.74,63.52Zm-8.73,0c0,2.45.85,3.68,2.55,3.69a2.21,2.21,0,0,0,1.94-.9,4.86,4.86,0,0,0,.63-2.78,4.88,4.88,0,0,0-.64-2.81,2.14,2.14,0,0,0-1.9-.91Q520,59.79,520,63.51Z"/><path class="cls-11" d="M541,61.24a4.31,4.31,0,0,1-1.26,3.29,5,5,0,0,1-3.57,1.15h-1v4.21h-3.43l0-12.7h4.39a5.36,5.36,0,0,1,3.61,1A3.74,3.74,0,0,1,541,61.24Zm-5.79,1.65h.62a1.7,1.7,0,0,0,1.23-.44,1.55,1.55,0,0,0,.46-1.19c0-.86-.47-1.29-1.42-1.29h-.89Z"/><path class="cls-11" d="M543.69,69.91l0-12.7h3.44v12.7Z"/><path class="cls-11" d="M562.48,63.56a6.82,6.82,0,0,1-1.57,4.87,7.16,7.16,0,0,1-9.19,0,6.83,6.83,0,0,1-1.59-4.88,6.85,6.85,0,0,1,1.59-4.84A6.08,6.08,0,0,1,556.33,57a6,6,0,0,1,4.6,1.67A6.8,6.8,0,0,1,562.48,63.56Zm-8.73,0c0,2.46.85,3.68,2.55,3.69a2.21,2.21,0,0,0,1.94-.9,4.86,4.86,0,0,0,.63-2.78,5,5,0,0,0-.63-2.81,2.17,2.17,0,0,0-1.91-.91Q553.75,59.83,553.75,63.55Z"/><path class="cls-11" d="M565.48,69.93l0-12.7h3.44v12.7Z"/><path class="cls-11" d="M583.17,63.33a6.58,6.58,0,0,1-1.75,4.9,6.68,6.68,0,0,1-4.93,1.71h-4.11l0-12.7h4.4a6.57,6.57,0,0,1,4.71,1.57A5.89,5.89,0,0,1,583.17,63.33Zm-3.56.12a4,4,0,0,0-.69-2.59,2.55,2.55,0,0,0-2.09-.84h-1v7.11h.76a2.79,2.79,0,0,0,2.3-.9A4.44,4.44,0,0,0,579.61,63.45Z"/><path class="cls-11" d="M597.15,59.9a2.2,2.2,0,0,0-1.91,1,4.83,4.83,0,0,0-.69,2.77c0,2.44.92,3.67,2.78,3.67a5.89,5.89,0,0,0,1.63-.23,16.85,16.85,0,0,0,1.59-.57v2.9a8.79,8.79,0,0,1-3.6.7,5.68,5.68,0,0,1-4.4-1.67A6.89,6.89,0,0,1,591,63.65a7.64,7.64,0,0,1,.75-3.47,5.27,5.27,0,0,1,2.14-2.29,6.4,6.4,0,0,1,3.28-.8,9,9,0,0,1,3.93.9l-1,2.7a11.8,11.8,0,0,0-1.41-.56A4.92,4.92,0,0,0,597.15,59.9Z"/><path class="cls-11" d="M607.17,65.36V70h-3.43V57.28h4.16c3.45,0,5.18,1.26,5.17,3.76a3.75,3.75,0,0,1-2.15,3.41L614.62,70h-3.89L608,65.36Zm0-2.58h.64c1.2,0,1.8-.53,1.8-1.58,0-.88-.59-1.32-1.76-1.32h-.68Z"/><path class="cls-11" d="M616.49,70V57.3H620V70Z"/><path class="cls-11" d="M631.7,66.16a3.73,3.73,0,0,1-.6,2.09,3.89,3.89,0,0,1-1.73,1.42,6.43,6.43,0,0,1-2.65.51,10.57,10.57,0,0,1-2.13-.18,8.3,8.3,0,0,1-1.79-.62V66.32a11,11,0,0,0,2,.79,7.57,7.57,0,0,0,1.95.28,2,2,0,0,0,1.12-.26.82.82,0,0,0,.36-.68.78.78,0,0,0-.14-.46,1.91,1.91,0,0,0-.46-.4c-.22-.13-.78-.4-1.69-.81a8.18,8.18,0,0,1-1.86-1.1,3.26,3.26,0,0,1-.92-1.22,4,4,0,0,1-.3-1.62,3.28,3.28,0,0,1,1.28-2.74,5.59,5.59,0,0,1,3.51-1,9.83,9.83,0,0,1,4,.91l-1.06,2.65a7.66,7.66,0,0,0-3.07-.82,1.63,1.63,0,0,0-1,.23.73.73,0,0,0-.31.59.83.83,0,0,0,.39.66,14.42,14.42,0,0,0,2.1,1.08A5.88,5.88,0,0,1,631.06,64,3.44,3.44,0,0,1,631.7,66.16Z"/><path class="cls-11" d="M634.37,70V57.32h3.45V70Z"/><path class="cls-11" d="M649.58,66.18a3.73,3.73,0,0,1-.6,2.09,4,4,0,0,1-1.73,1.43,6.56,6.56,0,0,1-2.65.5,10.57,10.57,0,0,1-2.13-.18,8.3,8.3,0,0,1-1.79-.62V66.34a9.91,9.91,0,0,0,2,.79,7.44,7.44,0,0,0,1.94.28,1.85,1.85,0,0,0,1.12-.26.81.81,0,0,0,.36-.68A.78.78,0,0,0,646,66a1.7,1.7,0,0,0-.46-.39,17.11,17.11,0,0,0-1.69-.82A8.18,8.18,0,0,1,642,63.7a3.26,3.26,0,0,1-.92-1.22,4,4,0,0,1-.3-1.62,3.28,3.28,0,0,1,1.28-2.74,5.65,5.65,0,0,1,3.51-1,9.76,9.76,0,0,1,4,.91l-1.05,2.65a7.7,7.7,0,0,0-3.08-.82,1.57,1.57,0,0,0-1,.24.7.7,0,0,0-.3.58.81.81,0,0,0,.38.67,16.94,16.94,0,0,0,2.1,1.08A5.77,5.77,0,0,1,648.94,64,3.44,3.44,0,0,1,649.58,66.18Z"/><rect class="cls-11" x="642.78" y="39.77" width="3.59" height="18.67" transform="matrix(0, -1, 1, 0, 594.69, 693.62)"/><path class="cls-12" d="M592.37,120A9.12,9.12,0,0,0,595,113.6h0a9.14,9.14,0,0,0-5.09-8.19,24.86,24.86,0,0,0,.32-4h0a26,26,0,0,0-26-25.95h0a26,26,0,0,0-26,26h0a26.6,26.6,0,0,0,.31,4,9.14,9.14,0,0,0-5,8.15h0a9.06,9.06,0,0,0,1.77,5.39,24,24,0,0,0-5.19,14.92h0A24.06,24.06,0,0,0,554.25,158h0a24,24,0,0,0,19.6-10.12A16.63,16.63,0,0,0,583,150.6h0a16.73,16.73,0,0,0,16.73-16.73h0A16.72,16.72,0,0,0,592.37,120Z"/><path class="cls-13" d="M589.3,115a8.08,8.08,0,0,0,2.32-5.67h0a8.11,8.11,0,0,0-4.52-7.27,22.86,22.86,0,0,0,.28-3.54h0a23,23,0,0,0-23-23h0a23,23,0,0,0-23,23h0a23.25,23.25,0,0,0,.28,3.57,8.12,8.12,0,0,0-4.45,7.24h0a8.07,8.07,0,0,0,1.57,4.78,21.3,21.3,0,0,0-4.61,13.25h0a21.37,21.37,0,0,0,21.36,21.36h0a21.32,21.32,0,0,0,17.41-9,14.78,14.78,0,0,0,8.15,2.45h0a14.86,14.86,0,0,0,14.86-14.86h0A14.84,14.84,0,0,0,589.3,115Z"/><path class="cls-14" d="M604,168.61l-4.74-11.85a9.38,9.38,0,0,0-6.08-5.53l-18.61-5.46a12.75,12.75,0,0,0-3.47-.48H555a12.75,12.75,0,0,0-3.47.48l-18.46,5.44a9.49,9.49,0,0,0-6.16,5.61l-5.07,12.67a.36.36,0,0,0,.08.38l1.75,1.77,10.92,11.06.53,2.76.13,6.35.86,38.75H590l.82-37,.16-8.09.56-2.91,10.53-10.64,1.59-1.6A1.58,1.58,0,0,0,604,168.61Z"/><path class="cls-15" d="M600.86,169l-4.38-10.94a8.7,8.7,0,0,0-5.62-5.11l-17.19-5a11.58,11.58,0,0,0-3.21-.45H555.63a11.58,11.58,0,0,0-3.21.45l-17,5a8.83,8.83,0,0,0-5.7,5.18L525,169.85a.32.32,0,0,0,.07.35l1.62,1.64,10.09,10.21.49,2.55.12,5.87.79,35.8h49.75l.76-34.19.15-7.48.51-2.68,9.73-9.84,1.47-1.48A1.47,1.47,0,0,0,600.86,169Z"/><path class="cls-16" d="M571.19,182.47l11.93-34.19-5.45-1.6-8.78,25.17c-1.22,3.5-10.35,3.5-11.56,0l-8.87-25.17-5.44,1.6,12,34.19C556.75,187.36,569.5,187.36,571.19,182.47Z"/><path class="cls-17" d="M574.21,145.69c0,.06,0,.12-.05.19l-6.73,19.27c-.91,2.63-7.76,2.63-8.67,0L552,145.88a1.18,1.18,0,0,1-.07-.2l-.36.09-3.09.91,8.87,25.17c1.21,3.5,10.34,3.5,11.56,0l8.78-25.17-3.12-.91Z"/><path class="cls-18" d="M558.76,165.15c.91,2.63,7.76,2.63,8.67,0l6.73-19.27c0-.07,0-.13.05-.19a12.67,12.67,0,0,0-3.13-.4H555a12.56,12.56,0,0,0-3.11.39,1.18,1.18,0,0,0,.07.2Z"/><path class="cls-12" d="M590.12,232.66a1.25,1.25,0,0,1-1.31,1.25s-3.31.57-17.51-.17c-18.93-1-35.49-2.22-35.49-2.22l0-8.26h54.3Z"/><path class="cls-12" d="M535.19,184.18a.3.3,0,0,1-.3-.31v-10a.3.3,0,0,1,.3-.31.31.31,0,0,1,.31.31v10A.31.31,0,0,1,535.19,184.18Z"/><path class="cls-12" d="M591,184.18a.31.31,0,0,1-.31-.31v-10a.31.31,0,1,1,.62,0v10A.31.31,0,0,1,591,184.18Z"/><path class="cls-19" d="M580.73,108.52v-5.47c0-.36,0-.7,0-1a1,1,0,0,0-1-1H572a.8.8,0,0,1-.81-.8l0-3.62a.16.16,0,0,0-.29-.08l-2.13,3.69a1.18,1.18,0,0,1-1.12.81l-4.71-.06a.83.83,0,0,1-.81-1l1.46-8.11a.15.15,0,0,0-.29-.09c-1.15,2.47-3.9,8.53-3.9,8.53a1.2,1.2,0,0,1-1.09.71h-7.47a1.09,1.09,0,0,1-1.05-1.1s-.11-5.83-.13-5.72l-.94,5.71a1.35,1.35,0,0,1-1.32,1.12s-.67,0-1.15,0a.47.47,0,0,0-.46.45c0,1.69,0,7,0,7h-.09a5.58,5.58,0,1,0-.07,11.16h.16v1.4a16.77,16.77,0,0,0,9.43,15.06v8.54a3.53,3.53,0,0,0,.21,1.2l4.7,13.33c.63,1.82,5.37,1.82,6,0l4.65-13.33a3.78,3.78,0,0,0,.2-1.2V137a3.2,3.2,0,0,0-.07-.7,16.77,16.77,0,0,0,9.86-15.27v-1.41a5.57,5.57,0,0,0,0-11.14Z"/><g class="cls-20"><path class="cls-14" d="M580.51,109v-5.21c0-.34,0-.67,0-1,0-.51-1.12-.36-1.12-.36,3.69,15.06-4.9,45.72-30.66,25.48,0,0-.62,3.68,6.87,8v7.52a3.47,3.47,0,0,0,.19,1.15l4.48,12.7c.6,1.73,5.11,1.73,5.71,0l4.44-12.7a3.68,3.68,0,0,0,.19-1.14v-7.27c0-.23,0,.16-.07-.06,5.54-2.51,10-8.68,10-15.15v-1.35c2.87-.07,4.56-2.42,4.56-5.3S583.38,109,580.51,109Z"/></g><path class="cls-14" d="M545.41,118.69a2,2,0,1,1-2-2A2,2,0,0,1,545.41,118.69Z"/><path class="cls-14" d="M585.18,118.69a2,2,0,1,1-2-2A2,2,0,0,1,585.18,118.69Z"/><path class="cls-14" d="M541.29,114a.26.26,0,0,1-.26-.25,3.45,3.45,0,0,1,3.4-3.69.26.26,0,1,1,0,.51,2.91,2.91,0,0,0-2.89,3.18A.25.25,0,0,1,541.29,114Z"/><path class="cls-14" d="M584.69,114a.26.26,0,0,1-.26-.25,2.9,2.9,0,0,0-2.88-3.18.26.26,0,0,1-.26-.26.26.26,0,0,1,.26-.25,3.44,3.44,0,0,1,3.39,3.69A.25.25,0,0,1,584.69,114Z"/><path class="cls-21" d="M562.52,137.83a16.65,16.65,0,0,1-7.29-1.68v5.61l15.71-5.23-.23-.12a16.64,16.64,0,0,1-6.74,1.42Z"/><path class="cls-22" d="M554.25,121.14h-3.44a2,2,0,0,1-2-2h0a2,2,0,0,1,2-2h3.44a2,2,0,0,1,2,2h0A2,2,0,0,1,554.25,121.14Z"/><path class="cls-22" d="M574.87,121.14h-3.44a2,2,0,0,1-2-2h0a2,2,0,0,1,2-2h3.44a2,2,0,0,1,2,2h0A2,2,0,0,1,574.87,121.14Z"/><path class="cls-14" d="M560.5,132.57a.33.33,0,0,1-.13,0,.26.26,0,0,1-.09-.35,3,3,0,0,1,5.12,0,.26.26,0,0,1-.44.26,2.45,2.45,0,0,0-4.24,0A.25.25,0,0,1,560.5,132.57Z"/><path class="cls-12" d="M555,114.13h0a1,1,0,0,1-1-1v-2a1,1,0,0,1,1-1h0a1,1,0,0,1,1,1v2A1,1,0,0,1,555,114.13Z"/><path class="cls-12" d="M570.75,114.13h0a1,1,0,0,1-1-1v-2a1,1,0,0,1,1-1h0a1,1,0,0,1,1,1v2A1,1,0,0,1,570.75,114.13Z"/><path class="cls-14" d="M565.43,119.92h-3.66a.92.92,0,0,1-.83-.52.89.89,0,0,1,.12-1,6.3,6.3,0,0,0,1.39-3.93V111a.25.25,0,0,1,.25-.26.26.26,0,0,1,.26.26v3.49a6.79,6.79,0,0,1-1.51,4.25.38.38,0,0,0-.05.42.39.39,0,0,0,.37.23h3.66a.26.26,0,0,1,.26.26A.26.26,0,0,1,565.43,119.92Z"/><path class="cls-12" d="M568.38,128h-2.17a3.14,3.14,0,0,1-3.13-3.14v-1a1.68,1.68,0,0,1,1.68-1.68h5.14a1.62,1.62,0,0,1,1.61,1.61v1.12A3.14,3.14,0,0,1,568.38,128Z"/><path class="cls-23" d="M568.7,127.6h-2.81a1.15,1.15,0,0,1-1.14-1.15h0a1.15,1.15,0,0,1,1.14-1.15h2.81a1.16,1.16,0,0,1,1.15,1.15h0A1.16,1.16,0,0,1,568.7,127.6Z"/><path class="cls-12" d="M570.63,106.14a3.86,3.86,0,0,0,1.48.5c.54.11,1.09.23,1.56.35s1,.28,1.53.45a3.82,3.82,0,0,0,1.54.28c.44-.07.73-.52.41-1.24a4.33,4.33,0,0,0-2.86-2,4.14,4.14,0,0,0-3.46.42C570.21,105.33,570.26,105.86,570.63,106.14Z"/><path class="cls-12" d="M550.93,107.84a3.85,3.85,0,0,0,1.53-.35c.52-.19,1-.37,1.51-.52s1-.28,1.54-.41A3.84,3.84,0,0,0,557,106c.34-.3.36-.83-.29-1.28a4.32,4.32,0,0,0-3.52-.25,4.17,4.17,0,0,0-2.73,2.16C550.15,107.36,550.48,107.79,550.93,107.84Z"/><path class="cls-12" d="M580.38,108.75a1.36,1.36,0,0,0-1-.42H567.48a1.39,1.39,0,0,0-1.31.93,7.16,7.16,0,0,0-6.14,0,1.37,1.37,0,0,0-.28-.44,1.35,1.35,0,0,0-1-.43l-11.91,0a1.35,1.35,0,0,0-1,.41,1.38,1.38,0,0,0-.4,1v3.87c0,3.69,2.72,6.69,6.06,6.69h2.56c3.35,0,6.07-3,6.07-6.69v-3.25a6.17,6.17,0,0,1,6,0v3.23c0,3.69,2.72,6.69,6.06,6.69h2.56c3.35,0,6.07-3,6.07-6.69v-3.84A1.34,1.34,0,0,0,580.38,108.75Zm-21.26,4.84c0,3.13-2.27,5.67-5,5.67h-2.56c-2.78,0-5-2.54-5-5.67v-3.87a.36.36,0,0,1,.11-.26.38.38,0,0,1,.26-.11h0l11.91,0a.36.36,0,0,1,.26.11.4.4,0,0,1,.11.27Zm20.64,0c0,3.13-2.26,5.67-5,5.67h-2.56c-2.78,0-5-2.54-5-5.67v-3.87a.37.37,0,0,1,.37-.37h11.91a.36.36,0,0,1,.26.11.39.39,0,0,1,.11.27Z"/><path class="cls-19" d="M534.61,182.7l-10.92-11.06L517,201.79a6.88,6.88,0,0,0,5.22,8.21l1.89.42a6.87,6.87,0,0,0,8.21-5.21l3-13.4-.13-6.35Z"/><path class="cls-24" d="M534.61,182.7l-10.92-11.06L517,201.79a6.88,6.88,0,0,0,5.22,8.21l1.89.42a6.87,6.87,0,0,0,8.21-5.21l3-13.4-.13-6.35Z"/><polygon class="cls-21" points="526.92 174.92 535.1 192.82 535.1 182.51 526.92 174.92"/><path class="cls-19" d="M556.53,170.82l1.41-5.17a7,7,0,0,1,2.82-4l1.29-.88a1.42,1.42,0,0,1,2.22,1.25l-.06,1.05a8.1,8.1,0,0,1-6.86,7.57Z"/><path class="cls-25" d="M556.53,170.82l1.41-5.17a7,7,0,0,1,2.82-4l1.29-.88a1.42,1.42,0,0,1,2.22,1.25l-.06,1.05a8.1,8.1,0,0,1-6.86,7.57Z"/><circle class="cls-12" cx="565.35" cy="144.5" r="5.11"/><rect class="cls-12" x="563.03" y="151.12" width="4.63" height="18.52" rx="0.93"/><path class="cls-26" d="M564.5,169.64h0a1.3,1.3,0,0,1-1.29-1.3V152.41a1.3,1.3,0,0,1,1.3-1.29h0a1.29,1.29,0,0,1,1.29,1.29v15.93A1.3,1.3,0,0,1,564.5,169.64Z"/><rect class="cls-27" x="560.23" y="148.76" width="10.23" height="8.52" rx="0.92"/><path class="cls-28" d="M565.42,157.28h-4.09a.92.92,0,0,1-.92-.91v-6.69a.92.92,0,0,1,.92-.92h4.09Z"/><path class="cls-11" d="M565.45,154a.3.3,0,0,1-.31.25h-.78a.3.3,0,0,1-.31-.25l-.2-1.61,0-.42h-.07c0,.14,0,.29,0,.43l-.19,1.6a.3.3,0,0,1-.32.24h-.78a.3.3,0,0,1-.31-.24l-.36-2.67h.91l.14,1.79c0,.14,0,.3,0,.48h.06a4.13,4.13,0,0,0,.07-.49l.2-1.51a.3.3,0,0,1,.31-.27h.65a.3.3,0,0,1,.31.27l.2,1.52c0,.16,0,.33.06.48h.07c0-.15,0-.33,0-.47l.14-1.8h.91Z"/><path class="cls-29" d="M568.82,154a.21.21,0,0,1-.23.23h-.4c-.13,0-.19-.06-.26-.19l-.76-1.55A3.14,3.14,0,0,1,567,152h0a3.83,3.83,0,0,1,0,.47v1.73h-.62v-2.68a.21.21,0,0,1,.23-.23H567c.14,0,.2.06.26.19L568,153l.21.47h0c0-.16,0-.32,0-.49v-1.67h.6Z"/><path class="cls-30" d="M571,145.35H559.88a.42.42,0,0,1-.43-.42h0a.43.43,0,0,1,.43-.43H571a.43.43,0,0,1,.43.43h0A.42.42,0,0,1,571,145.35Z"/><path class="cls-19" d="M571,160.74a.75.75,0,0,0-1.13-.19l-5.41,2.71a16.68,16.68,0,0,0-5.57,4.51,15,15,0,0,1-2,2.3l-37,29.08a6.75,6.75,0,0,0-.42,9.78,8.81,8.81,0,0,0,12.66,0l30.06-32.22a19.36,19.36,0,0,0,7.38-4.19C574.22,168.61,572,162.82,571,160.74Z"/><path class="cls-19" d="M609.63,205.86l-7.58-34-10.53,10.64-.56,2.91-.16,8.09,3.51,15.73a6.87,6.87,0,0,0,8.21,5.21l1.89-.42A6.88,6.88,0,0,0,609.63,205.86Z"/><path class="cls-24" d="M609.63,205.86l-7.58-34-10.53,10.64-.56,2.91-.16,8.09,3.51,15.73a6.87,6.87,0,0,0,8.21,5.21l1.89-.42A6.88,6.88,0,0,0,609.63,205.86Z"/><polygon class="cls-21" points="598.98 174.92 590.81 192.82 591.01 183.07 598.98 174.92"/><path class="cls-19" d="M630.25,175.56a5.22,5.22,0,0,0,8.58.7l2.77-3.39a1.88,1.88,0,0,0,.15-2.34h0a1.87,1.87,0,0,0-2.51-.5l-4.15,2.57-4.84,3Z"/><g class="cls-31"><path class="cls-14" d="M630.25,175.56a5.22,5.22,0,0,0,8.58.7l2.77-3.39a1.88,1.88,0,0,0,.15-2.34h0a1.87,1.87,0,0,0-2.51-.5l-4.15,2.57-4.84,3Z"/></g><path class="cls-19" d="M650.25,170.05a3.16,3.16,0,0,0-3,1.55,5.91,5.91,0,0,1-5.75,2.91c-3.78-.42-9.43-.65-12,1.31l0,.07-.19.14-32.08,27.38a6.34,6.34,0,0,0-.43,9.18,8.28,8.28,0,0,0,11.88.07l26.92-27.47,9.73-1.86a3.47,3.47,0,0,0,3-1.62l4.33-6.83A3.15,3.15,0,0,0,650.25,170.05Z"/><path class="cls-14" d="M682.09,15h38.58a4.71,4.71,0,0,1,4.71,4.71V58.29A4.71,4.71,0,0,1,720.67,63h-31a2.57,2.57,0,0,0-1.74.68l-6.21,5.64a2.58,2.58,0,0,1-4.32-1.91V19.71A4.71,4.71,0,0,1,682.09,15Z"/><path class="cls-32" d="M682.09,15h38.58a4.71,4.71,0,0,1,4.71,4.71V58.29A4.71,4.71,0,0,1,720.67,63h-31a2.57,2.57,0,0,0-1.74.68l-6.21,5.64a2.58,2.58,0,0,1-4.32-1.91V19.71A4.71,4.71,0,0,1,682.09,15Z"/><path class="cls-14" d="M684,15h34.86a4.25,4.25,0,0,1,4.25,4.26V54.11a4.25,4.25,0,0,1-4.25,4.26h-28a2.33,2.33,0,0,0-1.57.6l-5.61,5.1a2.33,2.33,0,0,1-3.9-1.72V19.26A4.25,4.25,0,0,1,684,15Z"/><polygon class="cls-33" points="693.87 44.01 693.85 44 693.87 44.02 693.87 44.01"/><polygon class="cls-3" points="689.91 41.54 691.2 47.99 693.85 44 689.91 41.54"/><path class="cls-3" d="M717.47,27.44l-27,14.11a.52.52,0,0,1-.55,0l0,0L693.85,44h0a.52.52,0,0,1,.22-.52l23.58-16.15-.15.07Z"/><path class="cls-7" d="M717.52,27.41l0,0-27,14.11a.52.52,0,0,1-.55,0l0,0L691.2,48l2.65-4h0a.52.52,0,0,1,.22-.52l23.58-16.15Z"/><path class="cls-34" d="M717.7,27.3l0,0"/><path class="cls-3" d="M693.87,44h0l1.76,2,4.23,4.45a3.84,3.84,0,0,0,6.13-.76l11.68-22.38L694.09,43.49A.52.52,0,0,0,693.87,44Z"/><path class="cls-3" d="M690.48,41.55l27-14.11,0,0s.09-.06-.07,0l-32.37,6.53a1.84,1.84,0,0,0-.74,3.25l5.55,4.34,0,0A.52.52,0,0,0,690.48,41.55Z"/><polygon class="cls-3" points="693.87 44.02 693.85 44 693.85 44 693.85 44 691.2 47.99 695.63 46.03 695.63 46.03 693.87 44.02"/><polygon class="cls-6" points="693.87 44.02 693.85 44 693.85 44 693.85 44 691.2 47.99 695.63 46.03 695.63 46.03 693.87 44.02"/><rect class="cls-14" x="510.85" y="13.6" width="42.7" height="15.15" rx="0.84"/><path class="cls-3" d="M518.25,16h1.42v9.81h4.7V27h-6.12Z"/><path class="cls-3" d="M528,16V27h-1.42V16Z"/><path class="cls-3" d="M533.57,27,530,16h1.54l1.71,5.42c.47,1.49.88,2.82,1.18,4.11h0c.31-1.27.77-2.66,1.26-4.09L537.56,16h1.51l-3.93,11Z"/><path class="cls-3" d="M546.61,21.8h-4.27v4h4.76V27h-6.18V16h5.94v1.19h-4.52v3.48h4.27Z"/><path class="cls-14" d="M476.35,132.9v-32A3.91,3.91,0,0,1,480.26,97h32a3.91,3.91,0,0,1,3.91,3.91v25.75a2.16,2.16,0,0,0,.56,1.45l4.68,5.15a2.14,2.14,0,0,1-1.58,3.59h-39.6A3.91,3.91,0,0,1,476.35,132.9Z"/><path class="cls-32" d="M476.35,132.9v-32A3.91,3.91,0,0,1,480.26,97h32a3.91,3.91,0,0,1,3.91,3.91v25.75a2.16,2.16,0,0,0,.56,1.45l4.68,5.15a2.14,2.14,0,0,1-1.58,3.59h-39.6A3.91,3.91,0,0,1,476.35,132.9Z"/><path class="cls-14" d="M476.35,132.32V103.54A3.6,3.6,0,0,1,480,100h30.09a3.6,3.6,0,0,1,3.67,3.51v23.14a1.91,1.91,0,0,0,.52,1.3l4.41,4.63a1.92,1.92,0,0,1-1.49,3.23H480A3.61,3.61,0,0,1,476.35,132.32Z"/><path class="cls-3" d="M492.14,125.65a3.18,3.18,0,0,1,.88-2.32,3.24,3.24,0,1,1,0,4.64A3.18,3.18,0,0,1,492.14,125.65Zm6.34-17.35c0,.53,0,1.29,0,2.29s-.07,2.07-.13,3.23-.17,2.32-.28,3.48-.25,2.16-.41,3a1.8,1.8,0,0,1-.42.21,3.54,3.54,0,0,1-.58.17c-.21,0-.41.08-.62.11l-.55,0a3.92,3.92,0,0,1-1.67-.31,1.56,1.56,0,0,1-.85-1.2,20.28,20.28,0,0,1-.29-2.41c-.08-1.08-.15-2.25-.22-3.52s-.12-2.51-.16-3.75c0-.6,0-1.15,0-1.67a2.1,2.1,0,0,1,1.53-2.09h0a6.92,6.92,0,0,1,1.74-.22,3.3,3.3,0,0,1,2.18.65A2.46,2.46,0,0,1,498.48,108.3Z"/><path class="cls-35" d="M495.37,122.41a3.24,3.24,0,1,1,0,6.48c-.52,0,1.18-.41,1.18-3.48S494.85,122.41,495.37,122.41Zm3-14.11c0,.53,0,1.29,0,2.29s-.07,2.07-.14,3.23-.16,2.32-.28,3.48-.25,2.16-.41,3a1.7,1.7,0,0,1-.41.21,3.66,3.66,0,0,1-.59.17c-.21,0-.41.08-.62.11l-.55,0a40.84,40.84,0,0,0,1-7.11c0-4-1.12-8.07-1-8.07a3.35,3.35,0,0,1,2.19.65A2.49,2.49,0,0,1,498.4,108.3Z"/></g><rect class="cls-36" x="473.16" y="15.43" width="219.82" height="15.82"/><polygon class="cls-37" points="692.98 193.13 473.23 193.13 473.23 226.71 484.68 226.71 484.68 258.04 513.53 226.71 692.98 226.71 692.98 193.13"/><path class="cls-38" d="M693,193.46s0,1.31,0,3.87,0,6.37,0,11.33,0,11.08,0,18.29V227c-.27.26-.1.08-.17.13H681.49l-13.18,0-154.75.12.21-.09-28.83,31.34-.53.58v-.79c0-9.8,0-20.46,0-31.33l.31.32H473l-.11-.12h0l-.06-.08V227c0-47.91,0-100.39,0-155.15V15.41h.34L693,15.48h.28v.27c0,54.28-.08,98.7-.11,129.57,0,15.42-.06,27.45-.08,35.64,0,4.08,0,7.2,0,9.31s0,3.19,0,3.19,0-1.08,0-3.19,0-5.23,0-9.31c0-8.19,0-20.22-.07-35.64,0-30.87-.07-75.29-.12-129.57L693,16l-219.82.07.34-.34V71.88c0,54.76,0,107.24,0,155.15l-.06-.19h0l-.26-.13H485V227c0,10.87,0,21.53,0,31.33l-.53-.21,28.86-31.31.08-.1h.13l154.75.13,13.18,0H693c0,.06.16-.12-.08.13V227c0-7.21,0-13.33,0-18.29s0-8.76,0-11.33S693,193.46,693,193.46Z"/><path class="cls-3" d="M504.25,23.91a3,3,0,1,1-3-2.95A3,3,0,0,1,504.25,23.91Z"/><path class="cls-3" d="M486.33,23.91a3,3,0,1,1-3-2.95A3,3,0,0,1,486.33,23.91Z"/><path class="cls-3" d="M495.29,23.91a3,3,0,1,1-3-2.95A3,3,0,0,1,495.29,23.91Z"/><rect class="cls-39" x="847.07" y="22.74" width="11.9" height="59.21" transform="matrix(1, -0.01, 0.01, 1, -0.27, 4.57)"/><rect class="cls-37" x="743.9" y="22.95" width="30.82" height="32.69" transform="translate(-0.2 4.06) rotate(-0.31)"/><rect class="cls-36" x="774.57" y="22.79" width="30.82" height="32.69" transform="translate(-0.2 4.23) rotate(-0.31)"/><path class="cls-39" d="M743.86,32.06q30.72.25,61.49-.28a.33.33,0,0,0,0-.66q-30.72-.16-61.49.38a.28.28,0,0,0,0,.56Z"/><rect class="cls-37" x="724.67" y="55.16" width="55.99" height="26.64" transform="translate(-0.36 4.03) rotate(-0.31)"/><rect class="cls-36" x="780.4" y="54.86" width="55.99" height="26.64" transform="translate(-0.35 4.33) rotate(-0.31)"/><path class="cls-39" d="M724.64,62.72c37.2.42,74.52,0,111.71-.55a.33.33,0,0,0,0-.66c-37.2-.19-74.52-.17-111.71.65a.28.28,0,0,0,0,.56Z"/><rect class="cls-39" x="703.7" y="81.95" width="216.92" height="9.54"/><rect class="cls-39" x="739.22" y="86.54" width="8.81" height="32.57"/><rect class="cls-39" x="870.67" y="86.54" width="8.81" height="32.57"/><rect class="cls-37" x="858.74" y="0.66" width="11.9" height="81.44" transform="translate(-0.21 4.63) rotate(-0.31)"/><rect class="cls-36" x="870.7" y="15.84" width="18.49" height="66" transform="translate(-0.25 4.73) rotate(-0.31)"/><path class="cls-39" d="M888.89,28.51c0,.17-4.14.32-9.24.32s-9.25-.15-9.25-.32,4.14-.32,9.25-.32S888.89,28.33,888.89,28.51Z"/><path class="cls-39" d="M888.89,25.73c0,.18-4.14.32-9.24.32s-9.25-.14-9.25-.32,4.14-.32,9.25-.32S888.89,25.56,888.89,25.73Z"/><path class="cls-39" d="M888.89,71.86c0,.18-4.14.32-9.24.32s-9.25-.14-9.25-.32,4.14-.32,9.25-.32S888.89,71.68,888.89,71.86Z"/><path class="cls-39" d="M888.89,69.09c0,.17-4.14.32-9.24.32s-9.25-.15-9.25-.32,4.14-.32,9.25-.32S888.89,68.91,888.89,69.09Z"/><path class="cls-39" d="M879.94,63c-.17,0-.32-6.66-.32-14.87s.15-14.87.32-14.87.32,6.65.32,14.87S880.12,63,879.94,63Z"/><rect class="cls-37" x="889.09" y="32" width="20.13" height="49.82"/><path class="cls-39" d="M867.72,14.54a3.42,3.42,0,1,1-3.42-3.42A3.42,3.42,0,0,1,867.72,14.54Z"/><rect class="cls-39" x="863.24" y="23.94" width="2.11" height="48.45"/><rect class="cls-36" x="680.96" y="429.27" width="218.94" height="100.97"/><path class="cls-39" d="M894.69,525.48H686v-90.9H894.69Zm-207.36-1.36h206V435.94h-206Z"/><rect class="cls-39" x="899.9" y="429.27" width="53.49" height="100.97"/><path class="cls-39" d="M686.65,462.71H894a.28.28,0,0,0,0-.55H686.65a.28.28,0,0,0,0,.55Z"/><path class="cls-39" d="M791,462.44a228.2,228.2,0,0,0,.07-27.43.28.28,0,0,0-.56,0,226.15,226.15,0,0,0,.07,27.43.21.21,0,0,0,.42,0Z"/><path class="cls-39" d="M846.82,448.72A2.83,2.83,0,1,1,844,445.9,2.83,2.83,0,0,1,846.82,448.72Z"/><path class="cls-39" d="M738,448.72a2.83,2.83,0,1,1-2.83-2.82A2.83,2.83,0,0,1,738,448.72Z"/><path class="cls-39" d="M793.15,480a2.83,2.83,0,1,1-2.82-2.82A2.83,2.83,0,0,1,793.15,480Z"/><polygon class="cls-39" points="707.13 530.24 695.86 593.64 702.2 593.64 722.99 530.24 707.13 530.24"/><polygon class="cls-39" points="884.41 530.24 893.84 593.75 887.5 593.75 868.56 530.24 884.41 530.24"/><polygon class="cls-39" points="926.74 530.24 937.42 593.75 931.08 593.75 910.88 530.24 926.74 530.24"/><path class="cls-39" d="M793,508.61a2.83,2.83,0,1,1-2.82-2.83A2.82,2.82,0,0,1,793,508.61Z"/><path class="cls-39" d="M686.65,494H894a.28.28,0,0,0,0-.55H686.65a.28.28,0,0,0,0,.55Z"/><rect class="cls-39" x="793.95" y="355.34" width="13.48" height="66.2" transform="translate(1184.89 -414.29) rotate(89.7)"/><rect class="cls-36" x="794.36" y="381.82" width="20.94" height="73.78" transform="translate(1219.28 -388.32) rotate(89.7)"/><path class="cls-39" d="M827.56,428.84c-.2,0-.36-4.69-.36-10.47s.16-10.47.36-10.47.36,4.69.36,10.47S827.76,428.84,827.56,428.84Z"/><path class="cls-39" d="M830.66,428.84c-.2,0-.36-4.69-.36-10.47s.16-10.47.36-10.47.36,4.69.36,10.47S830.86,428.84,830.66,428.84Z"/><path class="cls-39" d="M779.09,428.84c-.19,0-.36-4.69-.36-10.47s.17-10.47.36-10.47.36,4.69.36,10.47S779.29,428.84,779.09,428.84Z"/><path class="cls-39" d="M782.19,428.84c-.2,0-.36-4.69-.36-10.47s.16-10.47.36-10.47.36,4.69.36,10.47S782.39,428.84,782.19,428.84Z"/><path class="cls-39" d="M789,418.71c0-.2,7.44-.36,16.62-.36s16.63.16,16.63.36-7.45.36-16.63.36S789,418.91,789,418.71Z"/><rect class="cls-37" x="817.18" y="355.91" width="13.48" height="91.05" transform="translate(1221 -424.6) rotate(89.7)"/><path class="cls-39" d="M856.45,406.26a4.36,4.36,0,1,1,4.3-4.36A4.33,4.33,0,0,1,856.45,406.26Z"/><rect class="cls-39" x="812.79" y="371.43" width="2.69" height="60.95" transform="translate(1216.04 -412.24) rotate(90)"/><polygon class="cls-37" points="73.8 589.89 73.8 47.28 67.09 47.28 67.09 590 11.55 594.18 67.09 594.18 73.8 594.18 129.34 594.18 73.8 589.89"/><polygon class="cls-37" points="32.1 0 7.15 111.47 133.74 111.47 105.27 0.34 32.1 0"/><path class="cls-37" d="M55.3,156.64c-.29,0-.5-13.69-.46-30.56s.3-30.55.59-30.55.49,13.68.46,30.56S55.58,156.64,55.3,156.64Z"/><path class="cls-37" d="M55.24,156.43c0-.14.9,0,1.31,1.13a2.27,2.27,0,0,1-.33,2,2.3,2.3,0,0,1-4-1.48,2.22,2.22,0,0,1,1.07-1.76c1.07-.62,1.83-.1,1.74,0s-.67,0-1.3.61a1.61,1.61,0,0,0-.55,1.17,1.4,1.4,0,0,0,2.3.85,1.63,1.63,0,0,0,.35-1.25C55.73,156.89,55.17,156.57,55.24,156.43Z"/><path class="cls-40" d="M219.42,477.19a41.15,41.15,0,0,1,11-27.18C233.68,463.65,219.42,477.19,219.42,477.19Z"/><path class="cls-40" d="M235.32,469.5a41.13,41.13,0,0,1,29.29-.81C253.42,477.16,235.32,469.5,235.32,469.5Z"/><path class="cls-40" d="M237.12,460.66a32.4,32.4,0,0,1,4-22.77C245.9,447.88,237.12,460.66,237.12,460.66Z"/><path class="cls-40" d="M175.68,428.77c23.23,6.18,35.69,26.37,35.69,26.37C191.51,455.16,175.68,428.77,175.68,428.77Z"/><path class="cls-40" d="M212.78,438.29c-1.21-25,23.26-53.37,23.26-53.37-3.7,31.08-23.26,53.37-23.26,53.37"/><path class="cls-40" d="M212.66,367a67.06,67.06,0,0,1-8.8,35.86C200.4,386.74,212.66,367,212.66,367Z"/><path class="cls-40" d="M203.22,417.85c-18.3-2-28.26-20.18-28.26-20.18C197.1,403.88,203.22,417.85,203.22,417.85Z"/><path class="cls-40" d="M163.74,494.39a41.15,41.15,0,0,1,28.78-5.54C182.85,499,163.74,494.39,163.74,494.39Z"/><path class="cls-40" d="M211.17,502.61c-3.47,9.56-12.3,13.85-12.3,13.85C199.66,508,211.17,502.61,211.17,502.61Z"/><path class="cls-40" d="M208.82,499.91c-10.41,6.41-21.89,3.91-21.89,3.91C194,496.47,208.82,499.91,208.82,499.91Z"/><path class="cls-38" d="M218.18,533.61s0-.13,0-.37,0-.66,0-1.09c0-1,0-2.43,0-4.2s0-4.05,0-6.63,0-5.54-.18-8.79c-.16-6.51-.62-14.25-1.29-22.83s-1.78-18-3.22-27.8c-2.89-19.67-6.84-37.24-10-49.86-1.6-6.32-3-11.41-3.93-14.92l-1.1-4.05c-.1-.42-.19-.77-.26-1.06s-.08-.36-.06-.37a1.8,1.8,0,0,1,.14.35c.09.28.21.62.34,1,.31,1,.72,2.33,1.24,4,1.08,3.48,2.52,8.56,4.19,14.86a462.08,462.08,0,0,1,10.28,49.89c1.43,9.84,2.45,19.27,3.16,27.86s1,16.36,1.11,22.88c.1,3.26.06,6.21.06,8.79s0,4.82-.1,6.65-.11,3.16-.15,4.19c0,.44,0,.8-.05,1.09A1.49,1.49,0,0,1,218.18,533.61Z"/><path class="cls-38" d="M184.58,480.62c.13-.19,7.53,4.66,16.53,10.83s16.18,11.32,16.06,11.5-7.53-4.66-16.53-10.83S184.46,480.81,184.58,480.62Z"/><path class="cls-38" d="M217.17,483.29A6.3,6.3,0,0,1,218.3,482l3.3-3.17,11-10.32,11-10.31,3.33-3.13a6.92,6.92,0,0,1,1.3-1.08,6.56,6.56,0,0,1-1.07,1.3c-.72.81-1.8,1.94-3.15,3.32-2.71,2.76-6.54,6.48-10.85,10.5s-8.27,7.6-11.17,10.15c-1.45,1.27-2.64,2.29-3.47,3A7.35,7.35,0,0,1,217.17,483.29Z"/><path class="cls-40" d="M161.08,468.75S180,468.39,188,483.28A34.07,34.07,0,0,1,161.08,468.75Z"/><path class="cls-40" d="M186.92,461.16s15.4,11,13,27.71A34.07,34.07,0,0,1,186.92,461.16Z"/><path class="cls-40" d="M268,434.09s-6.07,21.18-25.38,25A39.65,39.65,0,0,1,268,434.09Z"/><path class="cls-40" d="M178.52,355.37s24.13,15.74,21.46,41.35A51.88,51.88,0,0,1,178.52,355.37Z"/><path class="cls-38" d="M258.84,495.4a10,10,0,0,1-1.57,1.25c-1,.76-2.53,1.88-4.33,3.31a105.87,105.87,0,0,0-23.88,26.59c-1.22,2-2.18,3.54-2.82,4.66a9.56,9.56,0,0,1-1.08,1.69,9.05,9.05,0,0,1,.8-1.84c.55-1.17,1.44-2.82,2.61-4.81a92,92,0,0,1,24-26.75c1.85-1.38,3.4-2.43,4.5-3.11A8.85,8.85,0,0,1,258.84,495.4Z"/><path class="cls-40" d="M237.84,511.12a41.14,41.14,0,0,1,5.54-28.78C246,500.29,237.84,511.12,237.84,511.12Z"/><path class="cls-40" d="M254.08,502.27A29.91,29.91,0,0,1,275.14,499C263.49,505.18,254.08,502.27,254.08,502.27Z"/><polygon class="cls-41" points="182.99 535.58 192.04 595.08 244.65 595.08 256.86 536.44 182.99 535.58"/><path class="cls-41" d="M177,523.8v11.13a4.4,4.4,0,0,0,4.39,4.39h76.17a4.4,4.4,0,0,0,4.39-4.39V523.8Z"/><path class="cls-38" d="M255.32,539.53c0,.2-16.66.36-37.21.36s-37.2-.16-37.2-.36,16.65-.37,37.2-.37S255.32,539.33,255.32,539.53Z"/><path class="cls-38" d="M958.42,595.15c0,.2-214.57.36-479.19.36S0,595.35,0,595.15s214.52-.36,479.23-.36S958.42,595,958.42,595.15Z"/><polygon class="cls-3" points="600.87 252.1 600.87 319.88 577.66 344.91 600.87 344.91 600.87 465.75 600.87 465.75 823.15 465.75 823.15 252.1 600.87 252.1"/><rect class="cls-36" x="600.94" y="252.33" width="222.28" height="16"/><polygon class="cls-37" points="601.01 432.03 601.01 465.98 612.6 465.98 641.77 465.98 823.23 465.98 823.23 432.03 601.01 432.03"/><path class="cls-3" d="M632.39,260.91a3,3,0,1,1-3-3A3,3,0,0,1,632.39,260.91Z"/><path class="cls-3" d="M614.26,260.91a3,3,0,1,1-3-3A3,3,0,0,1,614.26,260.91Z"/><path class="cls-3" d="M623.32,260.91a3,3,0,1,1-3-3A3,3,0,0,1,623.32,260.91Z"/><path class="cls-38" d="M600.94,252.33h1l3,0,11.84,0,45.07-.08L823.23,252h.29v.29c0,62.16,0,135.36.05,213.65v.34H807.1l-206.15,0h-.13l-.09-.08h0l-.09-.09V466c0-45.65.05-86.41.07-120.84l.23.24-23.2,0h-.49l.33-.36,23.23-25,0,.12c0-21.74.07-38.7.1-50.24,0-5.74,0-10.13,0-13.1,0-1.46,0-2.58,0-3.33s0-1.12,0-1.12,0,.4,0,1.15,0,1.89,0,3.37c0,3,0,7.37,0,13.13,0,11.52.06,28.44.1,50.14v.07l0,.05L577.9,345.29l-.16-.36,23.2,0h.24v.23c0,34.43,0,75.19.07,120.84l-.09-.21h0l-.21-.09,206.15,0h16.13l-.34.34c0-78.29,0-151.49.05-213.65l.29.3-161.14-.15L617,252.4l-11.9,0-3.06,0Z"/><polygon class="cls-3" points="350.46 234.42 319.21 205.65 319.21 94.65 99.39 94.65 99.39 305.93 99.39 305.93 319.21 305.93 319.21 234.42 350.46 234.42"/><path class="cls-42" d="M214.27,276.51,158,282.87a17.75,17.75,0,0,1-19-17.69V145l75.31,3.33Z"/><g class="cls-43"><polygon class="cls-3" points="190.95 159.26 150.68 157.9 150.68 154.18 190.95 155.67 190.95 159.26"/><polygon class="cls-3" points="190.95 165.32 150.68 164.18 150.68 160.46 190.95 161.73 190.95 165.32"/><polygon class="cls-3" points="190.95 171.39 150.68 170.46 150.68 166.74 190.95 167.8 190.95 171.39"/><polygon class="cls-3" points="190.95 177.45 150.68 176.74 150.68 173.02 190.95 173.86 190.95 177.45"/><polygon class="cls-3" points="190.95 183.52 150.68 183.02 150.68 179.3 190.95 179.92 190.95 183.52"/><polygon class="cls-3" points="190.95 191.73 150.68 191.53 150.68 187.81 190.95 188.14 190.95 191.73"/><polygon class="cls-3" points="190.95 197.8 150.68 197.8 150.68 194.09 190.95 194.21 190.95 197.8"/><polygon class="cls-3" points="190.95 203.86 150.68 204.08 150.68 200.36 190.95 200.27 190.95 203.86"/><polygon class="cls-3" points="190.95 209.93 150.68 210.36 150.68 206.64 190.95 206.33 190.95 209.93"/><polygon class="cls-3" points="190.95 215.99 150.68 216.64 150.68 212.92 190.95 212.4 190.95 215.99"/><polygon class="cls-3" points="190.95 225.87 150.68 226.87 150.68 223.15 190.95 222.28 190.95 225.87"/><polygon class="cls-3" points="190.95 231.93 150.68 233.15 150.68 229.43 190.95 228.34 190.95 231.93"/><polygon class="cls-3" points="190.95 238 150.68 239.43 150.68 235.71 190.95 234.4 190.95 238"/><polygon class="cls-3" points="190.95 244.06 150.68 245.71 150.68 241.99 190.95 240.47 190.95 244.06"/><polygon class="cls-3" points="190.95 250.12 150.68 251.99 150.68 248.26 190.95 246.53 190.95 250.12"/><polygon class="cls-44" points="190.95 260 150.68 262.21 150.68 258.49 190.95 256.41 190.95 260"/><polygon class="cls-45" points="190.95 266.07 150.68 268.49 150.68 264.77 190.95 262.48 190.95 266.07"/><polygon class="cls-46" points="190.95 272.13 150.68 274.77 150.68 271.05 190.95 268.54 190.95 272.13"/></g><path class="cls-47" d="M221.16,256.62l-101.45,9.15c-1.52.13-3.69-1.87-3.69-3.39V185.56a2.6,2.6,0,0,1,2.56-2.6l102.33-1.41c1.45,0,4.19,1,4.19,2.5l-1.55,70A2.6,2.6,0,0,1,221.16,256.62Z"/><path class="cls-48" d="M223.22,257.33l-102.33,8.35a2.6,2.6,0,0,1-2.81-2.59V186.27a2.6,2.6,0,0,1,2.56-2.6L223,182.26a2.6,2.6,0,0,1,2.64,2.6v69.88A2.6,2.6,0,0,1,223.22,257.33Z"/><path class="cls-49" d="M129.93,262.56l86.68-6.9a2.67,2.67,0,0,0,2.45-2.65v-66.3a2.65,2.65,0,0,0-2.7-2.66l-86.68,1.33a2.66,2.66,0,0,0-2.62,2.66v71.87A2.66,2.66,0,0,0,129.93,262.56Z"/><path class="cls-50" d="M222.68,222.07h0a.9.9,0,0,1-.91-.9v-6.72a.91.91,0,0,1,.91-.91h0a.91.91,0,0,1,.91.91v6.72A.9.9,0,0,1,222.68,222.07Z"/><path class="cls-51" d="M203.76,240.89c-7.9-6.89-14.23-4.19-22.58-11.19C170.82,221,176,213,166.86,205.36c-11.42-9.56-25.2-1.81-33.77-11.38a18.54,18.54,0,0,1-4.14-8.49,2.67,2.67,0,0,0-1.89,2.55v71.87a2.66,2.66,0,0,0,2.87,2.65l83-6.61A31.4,31.4,0,0,0,203.76,240.89Z"/><path class="cls-52" d="M302.59,258.29c0,6.49-4.89,12.2-11,12.74L158.5,282.91h0c7.68-.68,13.84-7.14,13.84-14.42v-141l130.25,5.07Z"/><polygon class="cls-53" points="292.9 181.46 244.52 181.79 244.52 176.89 292.9 176.78 292.9 181.46"/><polygon class="cls-54" points="239.25 223.29 185.83 225.6 185.83 177.03 239.25 176.91 239.25 223.29"/><polygon class="cls-55" points="292.9 189.37 244.52 190.04 244.52 185.15 292.9 184.69 292.9 189.37"/><polygon class="cls-56" points="292.9 197.27 244.52 198.3 244.52 193.41 292.9 192.59 292.9 197.27"/><polygon class="cls-57" points="292.9 205.17 244.52 206.56 244.52 201.66 292.9 200.49 292.9 205.17"/><polygon class="cls-58" points="292.9 213.08 244.52 214.81 244.52 209.92 292.9 208.4 292.9 213.08"/><polygon class="cls-59" points="292.9 220.98 244.52 223.07 244.52 218.18 292.9 216.3 292.9 220.98"/><polygon class="cls-60" points="292.9 231.69 244.52 234.26 244.52 229.37 292.9 227.01 292.9 231.69"/><polygon class="cls-61" points="292.9 239.59 244.52 242.51 244.52 237.62 292.9 234.91 292.9 239.59"/><polygon class="cls-62" points="292.9 247.5 244.52 250.77 244.52 245.88 292.9 242.81 292.9 247.5"/><polygon class="cls-63" points="292.9 255.4 244.52 259.02 244.52 254.13 292.9 250.72 292.9 255.4"/><polygon class="cls-64" points="292.9 263.3 244.52 267.28 244.52 262.39 292.9 258.62 292.9 263.3"/><polygon class="cls-65" points="239.25 234.54 185.83 237.37 185.83 232.22 239.25 229.62 239.25 234.54"/><polygon class="cls-66" points="239.25 242.83 185.83 246.05 185.83 240.91 239.25 237.92 239.25 242.83"/><polygon class="cls-67" points="239.25 251.13 185.83 254.74 185.83 249.59 239.25 246.21 239.25 251.13"/><polygon class="cls-68" points="239.25 259.42 185.83 263.42 185.83 258.28 239.25 254.51 239.25 259.42"/><polygon class="cls-69" points="239.25 267.71 185.83 272.11 185.83 266.96 239.25 262.8 239.25 267.71"/><path class="cls-70" d="M193.13,158.28v9.06l-6.44-.07V140.43l10.62.34a12.18,12.18,0,0,1,5.33,1.29,8.73,8.73,0,0,1,3.57,3.28,9.06,9.06,0,0,1,1.25,4.71,7.5,7.5,0,0,1-2.72,6.11q-2.73,2.26-7.54,2.19Zm0-5,4.18.09a3.87,3.87,0,0,0,2.81-.87,3.38,3.38,0,0,0,1-2.6,4.41,4.41,0,0,0-1-3,3.65,3.65,0,0,0-2.72-1.21l-4.25-.12Z"/><path class="cls-71" d="M220.3,158.38l-3.33-.06v9.26l-6.18-.07V141.2l10.06.32a11.21,11.21,0,0,1,7,2.27,7.28,7.28,0,0,1,2.51,5.85,8.52,8.52,0,0,1-1.06,4.45,7.37,7.37,0,0,1-3.32,2.82l5.23,10.54v.27l-6.47-.06ZM217,153.46l3.88.09a3.36,3.36,0,0,0,2.62-.89,3.63,3.63,0,0,0,.87-2.6,3.86,3.86,0,0,0-.88-2.67,3.48,3.48,0,0,0-2.61-1l-3.88-.11Z"/><path class="cls-72" d="M249.19,157.09l-9.24-.18v6.14l10.89.15v4.72L234,167.75V141.94l16.88.54v4.74L240,146.91v5.42l9.24.21Z"/><path class="cls-73" d="M265.46,161.39a2.62,2.62,0,0,0-.88-2.08,10.83,10.83,0,0,0-3.11-1.6,31.3,31.3,0,0,1-3.65-1.61c-3.09-1.68-4.65-3.94-4.65-6.76a6.07,6.07,0,0,1,1.16-3.69,7.23,7.23,0,0,1,3.28-2.4,11.72,11.72,0,0,1,4.72-.74,10.43,10.43,0,0,1,4.55,1.11,7.54,7.54,0,0,1,4.21,6.93l-5.62-.15a3.21,3.21,0,0,0-.88-2.4,3.36,3.36,0,0,0-2.39-.91,3.6,3.6,0,0,0-2.41.65,2.18,2.18,0,0,0-.89,1.8,2.33,2.33,0,0,0,1,1.79,12.29,12.29,0,0,0,3.43,1.71,20.3,20.3,0,0,1,4,1.89,7.38,7.38,0,0,1,3.78,6.52,6.18,6.18,0,0,1-2.3,5.12,9.79,9.79,0,0,1-6.38,1.81,12.22,12.22,0,0,1-5.22-1.15,8.28,8.28,0,0,1-3.55-3.07,8.4,8.4,0,0,1-1.19-4.46l5.78.1a4.06,4.06,0,0,0,1,3,4.5,4.5,0,0,0,3.19,1,3.5,3.5,0,0,0,2.23-.62A2.17,2.17,0,0,0,265.46,161.39Z"/><path class="cls-74" d="M285.78,161.72a2.56,2.56,0,0,0-.85-2.05,10.44,10.44,0,0,0-3-1.57,29.65,29.65,0,0,1-3.53-1.58c-3-1.65-4.48-3.86-4.48-6.64a6,6,0,0,1,1.12-3.62,7,7,0,0,1,3.16-2.36,11.11,11.11,0,0,1,4.56-.73,10,10,0,0,1,4.39,1.09,7.44,7.44,0,0,1,3,2.78,7.7,7.7,0,0,1,1.07,4l-5.42-.14a3,3,0,0,0-3.16-3.25,3.44,3.44,0,0,0-2.33.64,2.15,2.15,0,0,0-.86,1.77,2.28,2.28,0,0,0,.95,1.75,11.89,11.89,0,0,0,3.31,1.68,19.35,19.35,0,0,1,3.86,1.86,7.3,7.3,0,0,1,3.65,6.4,6.11,6.11,0,0,1-2.23,5,9.27,9.27,0,0,1-6.14,1.78,11.41,11.41,0,0,1-5-1.13,7.93,7.93,0,0,1-3.43-3,8.42,8.42,0,0,1-1.15-4.38l5.58.1a4.05,4.05,0,0,0,.95,3,4.31,4.31,0,0,0,3.09,1,3.26,3.26,0,0,0,2.14-.61A2.11,2.11,0,0,0,285.78,161.72Z"/><path class="cls-75" d="M203.23,216.81c-.22,6.33-4.17,11.33-8.82,11.17s-8.17-7.84-8-14.17,4.09-8.91,8.74-8.75S203.45,210.48,203.23,216.81Z"/><path class="cls-76" d="M154.21,254.74a5.09,5.09,0,0,1-5-2.71l-14.09-26.85a5.09,5.09,0,0,1,9-4.73l14.09,26.85a5.08,5.08,0,0,1-2.14,6.87A5,5,0,0,1,154.21,254.74Z"/><path class="cls-77" d="M140.86,210.53h2.75a0,0,0,0,1,0,0v19a0,0,0,0,1,0,0h-2.75a9.48,9.48,0,0,1-9.48-9.48v0A9.48,9.48,0,0,1,140.86,210.53Z" transform="translate(-18.66 12.82) rotate(-5)"/><path class="cls-78" d="M143,210a21.1,21.1,0,0,0,1.66,18.88l52.07,12-1.76-48Z"/><rect class="cls-79" x="194.63" y="191.83" width="4.95" height="50.59" rx="2.47"/><path class="cls-80" d="M184.69,226.22c-5.08-1.29-7.24-8.19-13.11-7.86-4.68.26-5.71,4.79-10.41,4.8-4.89,0-6.14-4.88-11.83-6.13a14.16,14.16,0,0,0-7.86.75,21.48,21.48,0,0,0,3.15,11.12l52.07,12-1.38-15.69C190.65,228.64,187.12,226.83,184.69,226.22Z"/><rect class="cls-36" x="99.39" y="94.65" width="219.82" height="15.82"/><polygon class="cls-37" points="99.45 272.35 99.45 305.93 278.91 305.93 307.75 305.93 319.21 305.93 319.21 272.35 99.45 272.35"/><path class="cls-3" d="M130.48,103.13a3,3,0,1,1-2.95-3A3,3,0,0,1,130.48,103.13Z"/><path class="cls-3" d="M112.56,103.13a3,3,0,1,1-3-3A3,3,0,0,1,112.56,103.13Z"/><path class="cls-3" d="M121.52,103.13a3,3,0,1,1-3-3A3,3,0,0,1,121.52,103.13Z"/><path class="cls-38" d="M350.46,234.42l-31.25.12.13-.12c0,17.14.05,41.47.09,71.51v.22h-.22l-219.82.11h-.13l-.1-.1h0l-.1-.09v-.14c0-40.84,0-85.12,0-131V94.31h.34l219.82.08h.26v.26c-.05,46.84-.09,84.83-.11,111l-.05-.1,31.15,28.88-31.34-28.67-.05,0v-.07c0-26.16-.06-64.15-.11-111l.25.25L99.39,95l.34-.33V175c0,45.86,0,90.14,0,131l-.1-.23h0l-.23-.1,219.82.11-.21.22c0-30,.07-54.37.09-71.51v-.13h.12Z"/><polygon class="cls-38" points="372.71 594.88 358.8 594.88 353.64 532.24 370.02 532.24 372.71 594.88"/><polygon class="cls-38" points="493.31 594.88 507.22 594.88 512.38 532.24 496 532.24 493.31 594.88"/><path class="cls-40" d="M521.94,540.17l-179.1,4.2-5.45-115.68a19.86,19.86,0,0,1,19.84-20.8h152.6a19.86,19.86,0,0,1,19.82,21.24Z"/><path class="cls-38" d="M531.13,428.29a2,2,0,0,1-.5,0l-1.47,0-5.65.09-20.76.07c-17.53,0-41.75-.17-68.48.45-26.75.89-51,.74-68.52.47-8.76-.14-15.85-.31-20.75-.45l-5.65-.2-1.46-.07a2.8,2.8,0,0,1-.5-.05l.5,0h1.47l5.64,0,20.76.2c17.53.12,41.75.18,68.49-.71,26.75-.62,51-.33,68.5-.21l20.76.18,5.65.07,1.47,0A3.89,3.89,0,0,1,531.13,428.29Z"/><path class="cls-38" d="M402.72,409.7c0,.27-5.61.36-11.63,3.49s-9.46,7.56-9.65,7.36a10.76,10.76,0,0,1,2.22-2.87,26.82,26.82,0,0,1,15.43-7.88A10.61,10.61,0,0,1,402.72,409.7Z"/><g class="cls-81"><path d="M379.75,407.89c5.31,5.92,14,8.52,21.83,9.71,14.16,2.15,28.65,3.31,42.76.91,9-1.54,18-4.54,27.15-3.92,9.37.65,18.78,5.07,27.82,2.5a18.94,18.94,0,0,0,11.43-9.23c.75-1.42,1.22-3.4,0-4.44-.62-.52-2,1.3-2.78,1.24-42.43-3.24-85.75,6.2-128.21,3.23"/></g><g class="cls-81"><path d="M489,435.69c-.76,3.93,1.15,8,3.94,10.86s6.38,4.82,9.84,6.83c5.75,3.34,11.5,7.16,15.1,12.75,6.84,10.63,4.31,24.58,7.2,36.88,0,0,2.41-53.08,1.92-51.74"/></g><path class="cls-38" d="M435,83.87a27.8,27.8,0,0,1,7.5,24.61c-.83,4.26-2.6,9-.19,12.63s7.83,4.11,10.09,7.76c2.65,4.3-.65,9.85-.11,14.87a10,10,0,0,0,9.7,8.63,39,39,0,0,1-20.21,6.08l-4.56-7.54c1.75,2.66.76,6.45-1.51,8.69s-5.47,3.22-8.6,3.82a49.53,49.53,0,0,1-42.3-12.08"/><path class="cls-38" d="M349.76,112.32c1.47-3.17,3.63-6,4.75-9.31,2.42-7.1-.16-15.71,4.14-21.85,3.06-4.37,8.69-6,13.93-7s10.84-1.65,15.06-4.92c3.09-2.4,5.1-6,8.19-8.38,4.39-3.44,10.35-4.07,15.92-3.76,5.72.32,11.52,1.55,16.33,4.66s8.5,8.31,8.75,14c.12,2.79-.55,5.62,0,8.36.61,3,2.62,5.53,3.7,8.4a14.68,14.68,0,0,1-5.7,17.05l-44.9,45.75c-8.55,2.13-27.95-3.94-33.56-10.73S346.07,120.32,349.76,112.32Z"/><path class="cls-82" d="M434.55,103.11c-.26-11.62-7.36-26.15-19-25.4l-36.42,7.66A6.79,6.79,0,0,0,372.81,92l.34,87.1-.25,0s7.16,24.86,31.31,18.39c4.79-1.28,7.16-6.36,8.33-11.63l.24,0c0-.63.07-1.22.1-1.82a56.69,56.69,0,0,0,.65-11.93h0c.37-7,.49-9.9.49-9.83s14.9-1.86,18.75-21C434.69,131.78,434.84,116,434.55,103.11Z"/><path class="cls-38" d="M428.77,119.14a2.38,2.38,0,0,1-2.46,2.24,2.29,2.29,0,0,1-2.3-2.32,2.38,2.38,0,0,1,2.46-2.23A2.27,2.27,0,0,1,428.77,119.14Z"/><path class="cls-38" d="M432.48,113.38c-.31.29-2-1.17-4.58-1.35s-4.52,1-4.77.64c-.13-.15.21-.68,1.07-1.22a6.48,6.48,0,0,1,3.85-.9,6.39,6.39,0,0,1,3.62,1.46C432.41,112.67,432.64,113.25,432.48,113.38Z"/><path class="cls-38" d="M404.52,116.73a2.38,2.38,0,0,1-2.46,2.23,2.26,2.26,0,0,1-2.3-2.31,2.39,2.39,0,0,1,2.46-2.24A2.29,2.29,0,0,1,404.52,116.73Z"/><path class="cls-38" d="M407.31,112.07c-.31.29-2-1.17-4.58-1.34s-4.52,1-4.78.64c-.12-.15.21-.69,1.08-1.23a6.56,6.56,0,0,1,3.85-.89,6.25,6.25,0,0,1,3.62,1.46C407.24,111.36,407.47,111.94,407.31,112.07Z"/><path class="cls-38" d="M415.25,131.7c0-.15,1.61-.31,4.2-.46.66,0,1.29-.11,1.43-.54a3.27,3.27,0,0,0-.3-2c-.5-1.62-1-3.33-1.58-5.11-2.17-7.27-3.7-13.23-3.41-13.31s2.3,5.73,4.48,13c.52,1.8,1,3.5,1.49,5.14a3.78,3.78,0,0,1,.16,2.59,1.63,1.63,0,0,1-1.14.87,4.56,4.56,0,0,1-1.12.08C416.86,131.94,415.25,131.84,415.25,131.7Z"/><path class="cls-83" d="M414.44,137.75a6.34,6.34,0,0,0-5-3.12,4.1,4.1,0,0,0-3.49,1.6,3.76,3.76,0,0,0,3.81,5.92,9.38,9.38,0,0,0,3.93-2.06,3,3,0,0,0,.88-.9,1.31,1.31,0,0,0,0-1.3"/><path class="cls-38" d="M413.75,141.88c-.39.15-1.24-2.5-4.1-3.66s-5.6,0-5.74-.33c-.09-.16.46-.72,1.65-1.13a6.94,6.94,0,0,1,4.74.13,6,6,0,0,1,3.27,3.12C414,141.09,413.94,141.84,413.75,141.88Z"/><path class="cls-38" d="M395.52,104.64c.1-.73,2.67-1,5.53-1.94s5.07-2.3,5.59-1.78c.24.26,0,1-.85,1.85a9.74,9.74,0,0,1-3.91,2.4,9.89,9.89,0,0,1-4.57.44C396.14,105.4,395.48,105,395.52,104.64Z"/><path class="cls-38" d="M424.68,103.35c.57-.46,2.16.52,4.22,1s3.91.49,4.18,1.18c.11.33-.3.83-1.19,1.19a5.92,5.92,0,0,1-3.65.15,6,6,0,0,1-3.11-1.91C424.53,104.23,424.42,103.59,424.68,103.35Z"/><path class="cls-38" d="M371.09,87.21c2.09-2.52,5.43-3.54,8.6-4.35a177,177,0,0,1,41.8-5.56c1.39,3-.67,6.74-3.52,8.5s-6.29,2.2-9.55,3-6.67,2.23-8.32,5.15c-1.75,3.11-1.05,7.11-2.64,10.3-2.74,5.49-11,6.4-13.67,11.91-2.05,4.16-.08,9.09,0,13.73a16.6,16.6,0,0,1-18.38,16.85q1.47-24.85,3-49.71C368.58,93.57,368.89,89.87,371.09,87.21Z"/><path class="cls-38" d="M333.05,124.88c2.14-2.79,6.37-3.66,7.8-6.87,2.08-4.68-1.15-10.84,1.88-15,2.76-3.76,9.49-2.77,12.1-6.64,2-3,.47-6.09,1.43-8.84s5.27-4.75,8.1-4.08L383,118.71c.8,11.17,2.22,17.23-.88,23.35-1.7,3.35-3.78,6.57-4.72,10.21s-1.89,16.11,7.38,20.75c-13.56-.53-23.48,51.91-34.32,43.74-3.82-2.88-2.73-17.18-19.33-13.95-15.65,3.05-18.84-37.79-6.61-49.41C337.37,141.2,327.58,132,333.05,124.88Z"/><path class="cls-40" d="M343.57,142.22a6.71,6.71,0,0,0,1.4.44,12.39,12.39,0,0,0,4.22.2,13.15,13.15,0,0,0,6.21-2.46,12.83,12.83,0,0,0,4.77-7.4,13.33,13.33,0,0,0,.16-5.21,21.19,21.19,0,0,0-1.9-5.28,20.22,20.22,0,0,1-2-5.49,6.76,6.76,0,0,1,1.39-5.61c1.42-1.49,3.74-1.63,5.94-2.23a6.29,6.29,0,0,0,3.12-1.78,6.12,6.12,0,0,0,1.34-3.42c.26-2.46-.53-4.83-.71-7.17a7.79,7.79,0,0,1,.38-3.44,4.87,4.87,0,0,1,2.26-2.5c2.11-1.15,4.61-1.08,7-1a14.74,14.74,0,0,0,7.16-1.22,13.24,13.24,0,0,0,5.34-4.58,21.67,21.67,0,0,0,2.51-6.24,30.59,30.59,0,0,1,2-5.88A13.48,13.48,0,0,1,398,67.55a15.19,15.19,0,0,1,17.91-.41,18.7,18.7,0,0,1,4.71,4.55,24.21,24.21,0,0,1,2.66,5,1.6,1.6,0,0,0-.09-.37c-.08-.23-.16-.59-.35-1a17.63,17.63,0,0,0-2-3.73,18.26,18.26,0,0,0-4.71-4.74,15.93,15.93,0,0,0-8.35-2.91A16.21,16.21,0,0,0,397.56,67a14.36,14.36,0,0,0-3.94,4.6,31,31,0,0,0-2.11,6,21,21,0,0,1-2.43,6,12.46,12.46,0,0,1-5.05,4.3,13.94,13.94,0,0,1-6.82,1.13c-2.38-.06-5-.17-7.41,1.11a5.69,5.69,0,0,0-2.61,2.9,8.52,8.52,0,0,0-.43,3.79c.21,2.48,1,4.77.72,7a5.36,5.36,0,0,1-1.15,3,5.45,5.45,0,0,1-2.74,1.56c-1.06.3-2.17.47-3.26.79a6.33,6.33,0,0,0-3,1.66,7.37,7.37,0,0,0-1.55,6.21,20.33,20.33,0,0,0,2.06,5.67,21,21,0,0,1,1.9,5.11,12.78,12.78,0,0,1-.12,5,12.44,12.44,0,0,1-4.48,7.17,12.89,12.89,0,0,1-6,2.5A14.7,14.7,0,0,1,343.57,142.22Z"/><path class="cls-40" d="M382.78,109.05l-.15.17a14.23,14.23,0,0,0-2.64,5.44,31.06,31.06,0,0,0-.51,6.35,21,21,0,0,1-.82,6.44,12.45,12.45,0,0,1-3.78,5.44,14,14,0,0,1-6.31,2.84c-2.32.54-4.93,1.11-6.88,3a5.6,5.6,0,0,0-1.78,3.47,8.37,8.37,0,0,0,.54,3.77c.84,2.34,2.15,4.37,2.49,6.62a5.37,5.37,0,0,1-.34,3.19,5.47,5.47,0,0,1-2.26,2.21c-.94.56-2,1-2.95,1.59a6.39,6.39,0,0,0-2.47,2.37,7.36,7.36,0,0,0,.08,6.4,20.41,20.41,0,0,0,3.43,5,20.24,20.24,0,0,1,3.14,4.46,12.52,12.52,0,0,1,1.16,4.84,12.39,12.39,0,0,1-2.51,8.08,12.82,12.82,0,0,1-5.15,3.94,14.56,14.56,0,0,1-5.48,1.1,6.38,6.38,0,0,0,1.47.07,12.5,12.5,0,0,0,4.13-.88,13.06,13.06,0,0,0,5.38-4,12.84,12.84,0,0,0,2.72-8.37,13.22,13.22,0,0,0-1.17-5.08,20.85,20.85,0,0,0-3.19-4.62,20,20,0,0,1-3.29-4.81,6.69,6.69,0,0,1-.09-5.78c1-1.8,3.19-2.52,5.17-3.67a5.47,5.47,0,0,0,3-6.16c-.38-2.45-1.74-4.54-2.52-6.76a7.63,7.63,0,0,1-.5-3.42,4.8,4.8,0,0,1,1.55-3c1.74-1.65,4.17-2.22,6.52-2.77a14.63,14.63,0,0,0,6.61-3,13,13,0,0,0,4-5.79,21.48,21.48,0,0,0,.84-6.67,29.73,29.73,0,0,1,.46-6.2,13.16,13.16,0,0,1,2.07-4.6C382.75,109.83,382.76,109.44,382.78,109.05Z"/><path class="cls-40" d="M336.32,172.85A20,20,0,0,1,333,168a6.73,6.73,0,0,1-.09-5.78c1-1.8,3.2-2.52,5.18-3.67a6.18,6.18,0,0,0,2.55-2.52,3.24,3.24,0,0,0,.13-.33c-.17-.34-.32-.68-.49-1a4,4,0,0,1-.32,1,5.47,5.47,0,0,1-2.26,2.21c-.94.56-2,1-3,1.59a6.46,6.46,0,0,0-2.47,2.37,7.36,7.36,0,0,0,.08,6.4,20.16,20.16,0,0,0,3.44,5,20.58,20.58,0,0,1,3.14,4.46,12.89,12.89,0,0,1,1.16,4.84,12.45,12.45,0,0,1-2.52,8.08,12.8,12.8,0,0,1-5.14,3.94,14.62,14.62,0,0,1-5.49,1.1,6.45,6.45,0,0,0,1.47.07,12.45,12.45,0,0,0,4.13-.88,13.06,13.06,0,0,0,5.38-4,12.84,12.84,0,0,0,2.72-8.37,13.2,13.2,0,0,0-1.16-5.08A20.85,20.85,0,0,0,336.32,172.85Z"/><path class="cls-38" d="M328.37,117a2.83,2.83,0,0,0-.57,1,4.81,4.81,0,0,0,.19,3.4,5.17,5.17,0,0,0,1.5,2,5.36,5.36,0,0,0,2.78,1.1,6.76,6.76,0,0,0,6.33-3,9.19,9.19,0,0,0,1.44-4,12.67,12.67,0,0,0-.43-4.55c-.72-3-2.32-6.09-2-9.5a6.21,6.21,0,0,1,2.1-4.43c1.34-1.07,3.22-1.15,5.06-1s3.83.62,5.89.08a5.13,5.13,0,0,0,2.63-1.73,7.23,7.23,0,0,0,1.33-2.85,23.69,23.69,0,0,0,.22-6,13.2,13.2,0,0,1,1-5.5,14,14,0,0,1,7.22-7.47c3.12-1.42,6.51-1.21,9.57-1a28,28,0,0,0,8.66-.34,18.18,18.18,0,0,0,10.27-6.93,12.76,12.76,0,0,0,2.1-4.08,24.35,24.35,0,0,1-2.35,3.9,18.18,18.18,0,0,1-3.81,3.67,17.6,17.6,0,0,1-6.34,2.89,27.27,27.27,0,0,1-8.49.23c-3.05-.2-6.57-.46-9.9,1a14.73,14.73,0,0,0-7.64,7.84,13.81,13.81,0,0,0-1,5.81,24.06,24.06,0,0,1-.2,5.83,5.08,5.08,0,0,1-3.41,4c-1.78.48-3.71.07-5.6-.1s-4-.14-5.61,1.13a6.94,6.94,0,0,0-2.36,5,13.53,13.53,0,0,0,.64,5.15c.48,1.6,1,3.1,1.42,4.57a12.06,12.06,0,0,1,.45,4.33,8.52,8.52,0,0,1-1.3,3.74,6.28,6.28,0,0,1-5.81,2.91,5.07,5.07,0,0,1-2.6-1A5,5,0,0,1,328,118C328.16,117.31,328.41,117,328.37,117Z"/><path class="cls-38" d="M337.62,131.05a14.74,14.74,0,0,0-5.74,6.81,14,14,0,0,0-1,5.8,23.65,23.65,0,0,1-.19,5.84,5.05,5.05,0,0,1-3.41,4c-1.78.49-3.71.07-5.6-.09s-4-.15-5.61,1.12a7,7,0,0,0-2.36,5,13.48,13.48,0,0,0,.64,5.15c.47,1.6,1,3.1,1.42,4.58a12,12,0,0,1,.45,4.32,8.44,8.44,0,0,1-1.3,3.74,6.28,6.28,0,0,1-5.82,2.92,5.07,5.07,0,0,1-2.59-1,4.87,4.87,0,0,1-1.45-1.84,4.79,4.79,0,0,1-.32-3.23c.21-.73.46-1.07.42-1.09a2.83,2.83,0,0,0-.57,1,4.82,4.82,0,0,0,.18,3.39,5.13,5.13,0,0,0,1.51,2,5.37,5.37,0,0,0,2.78,1.11,6.77,6.77,0,0,0,6.33-3.05,9.15,9.15,0,0,0,1.44-4,12.67,12.67,0,0,0-.43-4.55c-.72-3-2.32-6.1-2-9.5a6.25,6.25,0,0,1,2.11-4.43c1.34-1.08,3.22-1.16,5.06-1s3.83.63,5.89.09a5.08,5.08,0,0,0,2.63-1.74,7.24,7.24,0,0,0,1.33-2.85,23.66,23.66,0,0,0,.22-6,13.22,13.22,0,0,1,1-5.5,14.25,14.25,0,0,1,5.25-6.38C337.77,131.53,337.69,131.29,337.62,131.05Z"/><path class="cls-38" d="M469,141.65a5.44,5.44,0,0,1-.46,3.51,4.67,4.67,0,0,1-3.13,2.5,4.89,4.89,0,0,1-4.77-1.93,4.49,4.49,0,0,1-.82-2.95,9.33,9.33,0,0,1,.91-3.34c1-2.19,2.73-4.49,2.86-7.49a10.92,10.92,0,0,0-3.18-8.24,12.74,12.74,0,0,0-3.93-2.7,18.65,18.65,0,0,0-4.7-1.25,25.4,25.4,0,0,1-4.59-1,6.29,6.29,0,0,1-3.35-2.68,7.59,7.59,0,0,1-.84-4.13,15.25,15.25,0,0,1,.84-4.1c.86-2.62,2-5.14,2.13-7.72a12,12,0,0,0-1.64-6.81,15.52,15.52,0,0,0-3.94-4.22,29.25,29.25,0,0,1-3.22-2.83,8.92,8.92,0,0,1-1.86-3.08s0,.08,0,.24a3.36,3.36,0,0,0,.19.69A7.14,7.14,0,0,0,437,86.45a27.81,27.81,0,0,0,3.17,3,15.4,15.4,0,0,1,3.74,4.16,11.4,11.4,0,0,1,1.46,6.48c-.16,2.44-1.26,4.87-2.16,7.54a15.44,15.44,0,0,0-.9,4.3,8.31,8.31,0,0,0,.92,4.54,7,7,0,0,0,3.74,3,26.86,26.86,0,0,0,4.74,1.08,17.48,17.48,0,0,1,4.52,1.19,11.86,11.86,0,0,1,3.69,2.52,10.2,10.2,0,0,1,3,7.66c-.08,2.74-1.71,5-2.73,7.26a9.82,9.82,0,0,0-.92,3.59,5.1,5.1,0,0,0,1,3.3,5.34,5.34,0,0,0,5.32,2,5,5,0,0,0,3.31-2.8,5.12,5.12,0,0,0,.45-2.72A2.87,2.87,0,0,0,469,141.65Z"/><path class="cls-82" d="M538.07,312.78l-6.86-10.38-11-5.53-.41-.3a14.81,14.81,0,0,0-12.5-2.33c-4.49,1.2-10.48,2.69-15.68,3.57l-11.86-3.24v23.15l59.84-3.78Z"/><path class="cls-83" d="M537.66,312.15a15.9,15.9,0,0,0-2.53-2.31c-1.62-1.35-3.89-3.18-6.42-5.16l-2.38-1.85-.07-.05-.08,0c-2.45-.46-4.58-.83-6.11-1.06a9.06,9.06,0,0,0-2.45-.25,9.88,9.88,0,0,0,2.37.7c1.49.35,3.61.82,6,1.32l-.15-.07,2.36,1.86c2.53,2,4.85,3.75,6.56,5A15.31,15.31,0,0,0,537.66,312.15Z"/><path class="cls-83" d="M533,314.17c.1-.18-3.75-2.5-8.6-5.19l-2.1-1.15-.08-.05h-.08c-4.39-.24-7.64-.3-7.66-.13s3.23.53,7.62.85l-.15,0,2.09,1.17C528.88,312.32,532.89,314.35,533,314.17Z"/><path class="cls-39" d="M607.73,247.28a4.55,4.55,0,0,0-5.9,1.26l-48.2,65.28-76.26,1c-3.05.18-6.74,6.34-4,9.32L559.48,323l49.71-69.08A4.55,4.55,0,0,0,607.73,247.28Z"/><path class="cls-38" d="M607.73,247.28l.38.2a4.45,4.45,0,0,1,1,.86,4.59,4.59,0,0,1,.7,4.77,25.63,25.63,0,0,1-2,3.06q-1.17,1.63-2.54,3.57l-6.31,8.84L559.77,323.2l-.11.14h-.18l-84.55,1.2-1.56,0h-.18l-.13-.13a4.27,4.27,0,0,1-1.05-3.07,7.6,7.6,0,0,1,.81-3.06,8.92,8.92,0,0,1,1.85-2.51,4.4,4.4,0,0,1,2.89-1.36l11.78-.15,22.76-.3,41.53-.52-.28.14,37.9-51.09,10.68-14.27a4.58,4.58,0,0,1,4.29-1.55,3.48,3.48,0,0,1,1.51.58,6.07,6.07,0,0,0-1.53-.48,4.51,4.51,0,0,0-4.11,1.59c-2.44,3.34-6,8.2-10.51,14.37L553.91,314l-.1.14h-.17l-41.52.61-22.76.32-11.77.16a3.57,3.57,0,0,0-2.37,1.14,8,8,0,0,0-1.67,2.28c-.84,1.66-1.14,3.86.11,5.22l-.3-.13,1.55,0,84.56-1.1-.28.14,39.36-54.44c2.39-3.29,4.52-6.23,6.39-8.79l2.58-3.54a29.33,29.33,0,0,0,2.05-3,4.5,4.5,0,0,0-.59-4.62A5.67,5.67,0,0,0,607.73,247.28Z"/><path class="cls-41" d="M376.71,171.68a25.49,25.49,0,0,0-12.81,6,43.11,43.11,0,0,0-10.26,16.81c-2.55,7.64-1.41,37.77-1.41,46.5s2.22,41.52,3.32,47-.71,13.57-3.24,18.85c-4.53,9.46,2.54,14.31,2.54,14.31l93.58-.7-.38-3.49c-.64-6.08,1.62-12.28-.69-17.94a58.42,58.42,0,0,1-4.31-26.22c1.2-15.59,5.86-26.23,3-35.27-4.37-13.8-18.78-45.18-36.19-58.58,0,0-13.73-2.94-16.83-4C386,172.4,382.22,171.07,376.71,171.68Z"/><path class="cls-41" d="M486.74,291.88l-79.95-16.69-2.06-69.41s-2.8-28.28-17-30.9l-34.12,42.47c1.9,21.41.17,61.91,10,77.54s19.41,28.14,43.63,27,77.62-1.62,77.62-1.62Z"/><path class="cls-38" d="M406.94,275.46c.2.15-1.72,2.65-3.33,6.14s-2.33,6.55-2.57,6.5.14-3.25,1.83-6.84S406.8,275.31,406.94,275.46Z"/><g class="cls-81"><path d="M404.17,202.81c8,24.54,6.26,62.37,21.48,76.32l-18.86-3.94a95.72,95.72,0,0,0,.15-13.33c-1.53-19.4-1.71-39.13-2.77-59.05"/></g><path class="cls-38" d="M402.4,194.06a43.65,43.65,0,0,1,1.4,5.57,65.13,65.13,0,0,1,1,6.87c.26,2.73.3,5.88.43,9.41.46,14.16,1.11,34.49,1.9,59.27l-.26-.31,80,16.62.33.07,0,.35c-.59,9.09-1.2,18.66-1.83,28.41l0,.37h-.37l-9.72.11c-13.9.17-27.46.38-40.56.66q-9.83.21-19.28.52c-6.27.16-12.5.75-18.53-.19a40.93,40.93,0,0,1-8.69-2.24,36.71,36.71,0,0,1-7.67-4.2,51.88,51.88,0,0,1-11.54-12c-1.55-2.19-3-4.37-4.41-6.56l-1-1.63c-.33-.55-.61-1.13-.92-1.7l-.9-1.69c-.23-.59-.46-1.17-.68-1.76a67.52,67.52,0,0,1-3.58-13.87A219.82,219.82,0,0,1,355,251.69c-.35-7.23-.52-13.46-.69-18.54s-.35-9-.49-11.72c-.08-1.31-.14-2.33-.19-3s0-1,0-1,.05.35.12,1,.15,1.73.27,3c.19,2.68.42,6.63.63,11.71s.43,11.32.84,18.54A220,220,0,0,0,358,276.08a67,67,0,0,0,3.59,13.73c.22.58.45,1.15.68,1.73l.88,1.65c.3.55.58,1.11.9,1.66l1,1.62q2.08,3.27,4.41,6.52a51.54,51.54,0,0,0,11.41,11.79,36.17,36.17,0,0,0,7.52,4.1,39.35,39.35,0,0,0,8.54,2.18c5.92.92,12.09.33,18.39.16s12.74-.39,19.29-.54c13.1-.29,26.67-.51,40.57-.68l9.72-.11-.4.38c.63-9.75,1.26-19.32,1.85-28.42l.31.42-79.93-16.76-.25-.06v-.25c-.67-24.78-1.23-45.11-1.62-59.28-.1-3.53-.11-6.68-.35-9.4a66,66,0,0,0-.88-6.86c-.33-1.84-.65-3.24-.88-4.18-.11-.45-.19-.8-.25-1.06A2.07,2.07,0,0,1,402.4,194.06Z"/><polygon class="cls-82" points="530.73 462.24 518.86 549.69 549.91 554.78 572 477.18 530.73 462.24"/><path class="cls-38" d="M436.58,327.87s132.45-12.6,142.27-3.59,18,28.64,14.73,35.18-10.64,28.64-10.64,28.64l-61-13.91Z"/><polygon class="cls-82" points="521.93 388.1 497.36 425.6 526.28 444.34 557.65 396.25 521.93 388.1"/><path class="cls-38" d="M357.09,321s-11.46,52.37,7.37,73.65,46.64,21.27,75.28,17.18,96.63-5.51,96.63-5.51-3,18.59-5.25,39.75-2.68,34.53-2.68,34.53L571,484.15s23.72-72.18,27.37-86.47,2.41-33.5-10.2-40.62c-10.69-6-95-29.42-135.36-32.89l-4.38-3.77Z"/><path class="cls-40" d="M557.19,388.94c0,.14-1.65.38-4.17,1.28a26.57,26.57,0,0,0-4.26,2,29.49,29.49,0,0,0-4.64,3.37,29.81,29.81,0,0,0-3.83,4.27,27.19,27.19,0,0,0-2.4,4c-1.16,2.42-1.57,4.06-1.71,4a3.57,3.57,0,0,1,.17-1.18,17.47,17.47,0,0,1,1-3.08,23.8,23.8,0,0,1,2.31-4.22,27.64,27.64,0,0,1,3.9-4.44,27.28,27.28,0,0,1,4.82-3.42,23.14,23.14,0,0,1,4.44-1.87A17.54,17.54,0,0,1,556,389C556.76,388.9,557.18,388.88,557.19,388.94Z"/><path class="cls-40" d="M552.13,345.35c-.19-.1.7-2.15,2.25-4.41s3.11-3.84,3.27-3.7-1.09,1.93-2.61,4.16S552.33,345.46,552.13,345.35Z"/><path class="cls-40" d="M600.16,377.58s-.06-.13-.13-.4-.17-.72-.29-1.21c-.25-1.07-.64-2.63-1.28-4.6a35,35,0,0,0-3-6.88,17.18,17.18,0,0,0-6.87-6.91A188.65,188.65,0,0,0,564,348.86c-9.41-2.82-19.79-5.8-30.75-8.7-21.92-5.82-42-10-56.69-12.41-7.33-1.24-13.28-2.09-17.4-2.66l-4.74-.64-1.23-.19-.42-.09a1.41,1.41,0,0,1,.43,0l1.24.1,4.76.5c4.13.47,10.1,1.23,17.45,2.4a575.5,575.5,0,0,1,56.81,12.2c11,2.9,21.35,5.91,30.76,8.77a181.29,181.29,0,0,1,24.57,8.92,17.48,17.48,0,0,1,7,7.19,34.31,34.31,0,0,1,2.93,7,46.78,46.78,0,0,1,1.14,4.66q.14.75.21,1.23A2.7,2.7,0,0,1,600.16,377.58Z"/><path class="cls-41" d="M552.33,552.51l1-3.79c-13.18-1.38-24.94-6.27-34.27-14.77l-10.52,22.74,70.16,31.2C581.38,581.18,552.33,552.51,552.33,552.51Z"/><path class="cls-39" d="M508.57,556.69l2.57-5.55,66.45,32.05s2.5,2.72,1.14,4.7Z"/><path class="cls-38" d="M551.39,552.07c-.17.33-1.95-.28-4.14,0s-3.75,1.33-4,1.06,1.16-2,3.82-2.32S551.61,551.8,551.39,552.07Z"/><path class="cls-39" d="M524.08,549.63a2,2,0,0,1-2.7.93,2,2,0,0,1-1-2.63,2,2,0,0,1,2.7-.92A1.93,1.93,0,0,1,524.08,549.63Z"/><path class="cls-38" d="M551,551.6a4.29,4.29,0,0,1-1.59-.29,8.46,8.46,0,0,1-3.94-2.1,5.53,5.53,0,0,1-.92-1.2,3.72,3.72,0,0,1-.59-1.62,1.73,1.73,0,0,1,1.1-1.73,2.71,2.71,0,0,1,2.13.09,7.85,7.85,0,0,1,4.34,6.85l-1-.15a8.48,8.48,0,0,1,8.3-5.87,2.52,2.52,0,0,1,1.18.23,1.52,1.52,0,0,1,.8,1,2.71,2.71,0,0,1-.51,2,6.35,6.35,0,0,1-2.69,2.16,11,11,0,0,1-4.82.72,5.85,5.85,0,0,1-1.75-.15,5.68,5.68,0,0,1,1.74-.25,11.82,11.82,0,0,0,4.5-1,5.69,5.69,0,0,0,2.28-2,1.9,1.9,0,0,0,.33-1.37c-.08-.39-.42-.52-1.06-.51a7.73,7.73,0,0,0-6.68,3.85,7.27,7.27,0,0,0-.61,1.38.53.53,0,0,1-.66.34.52.52,0,0,1-.37-.49,7,7,0,0,0-3.68-6c-1-.51-2.06-.07-2,.75a4.8,4.8,0,0,0,1.19,2.39,9,9,0,0,0,3.54,2.21A6.47,6.47,0,0,1,551,551.6Z"/><path class="cls-38" d="M556.77,556.94c-.06.24-2.16-.32-4.64.33s-4.09,2.06-4.25,1.88,1.3-2,4.06-2.67S556.88,556.76,556.77,556.94Z"/><path class="cls-38" d="M560.69,561.39c0,.24-1.93.18-4.11.85s-3.77,1.72-3.91,1.53,1.3-1.61,3.68-2.31S560.73,561.19,560.69,561.39Z"/><path class="cls-41" d="M531.78,440.11l1.66-3.56c-12.76-3.58-23.53-10.38-31.3-20.33l-14.2,20.65,63.92,42.56C555.6,473.27,531.78,440.11,531.78,440.11Z"/><path class="cls-39" d="M487.94,436.87l3.47-5.05,60.11,42.79s2,3.1.34,4.82Z"/><path class="cls-38" d="M530.93,439.52c-.22.3-1.87-.61-4.09-.66s-3.91.68-4.11.37,1.47-1.75,4.15-1.64S531.19,439.29,530.93,439.52Z"/><path class="cls-39" d="M504.43,432.52a2.05,2.05,0,0,1-2.82.46,2,2,0,0,1-.5-2.75,2.05,2.05,0,0,1,2.82-.46A1.94,1.94,0,0,1,504.43,432.52Z"/><path class="cls-38" d="M530.6,439a4.51,4.51,0,0,1-1.52-.55,8.63,8.63,0,0,1-3.53-2.74,5.67,5.67,0,0,1-.7-1.34,3.62,3.62,0,0,1-.31-1.69,1.73,1.73,0,0,1,1.37-1.53,2.7,2.7,0,0,1,2.08.45,7.86,7.86,0,0,1,3.13,7.48l-1-.32a9.1,9.1,0,0,1,1-1.43,8.64,8.64,0,0,1,8.22-3,2.65,2.65,0,0,1,1.13.43,1.51,1.51,0,0,1,.61,1.15,2.68,2.68,0,0,1-.84,1.91,6.29,6.29,0,0,1-3,1.68,10.88,10.88,0,0,1-4.87-.1,6.33,6.33,0,0,1-1.7-.44,5.55,5.55,0,0,1,1.76,0,12,12,0,0,0,4.6-.2,5.66,5.66,0,0,0,2.57-1.55,1.85,1.85,0,0,0,.56-1.29c0-.41-.32-.59-1-.69A7.73,7.73,0,0,0,531.9,438a7,7,0,0,0-.83,1.26.54.54,0,0,1-1-.33,7,7,0,0,0-2.61-6.54c-.85-.66-2-.42-2.08.41a4.7,4.7,0,0,0,.78,2.56,9,9,0,0,0,3.11,2.77A6.06,6.06,0,0,1,530.6,439Z"/><path class="cls-38" d="M535.42,445.23c-.1.22-2.07-.68-4.63-.46s-4.38,1.34-4.51,1.14,1.62-1.76,4.45-2S535.56,445.07,535.42,445.23Z"/><path class="cls-38" d="M538.53,450.27c-.06.24-1.93-.14-4.2.15s-4,1.06-4.11.85,1.56-1.37,4-1.66S538.61,450.08,538.53,450.27Z"/><path class="cls-83" d="M413.92,161.47a49.19,49.19,0,0,1-25.59-7.95s5.73,13.53,25.14,12.5Z"/><path class="cls-84" d="M801.19,411.17a5.57,5.57,0,0,1,5.57,5.57V283.67h0a5.58,5.58,0,0,0-5.57-5.58H637.34V411.17Z"/><path class="cls-85" d="M801.18,288.2a5.56,5.56,0,0,0,5.56-5.57V415.7h0a5.56,5.56,0,0,1-5.56,5.57H622.56V288.2Z"/><path class="cls-85" d="M623.05,420.78a5.57,5.57,0,0,0-5.57,5.57V293.28h0a5.57,5.57,0,0,1,5.57-5.57H801.86V420.78Z"/><path class="cls-3" d="M623.05,299.38a5.58,5.58,0,0,1-5.57-5.57V426.46h0a5.58,5.58,0,0,0,5.57,5.57H796.61V299.38Z"/><path class="cls-86" d="M623.32,289H801.86v-1.31H623.32a5.84,5.84,0,1,0,0,11.67H796.61v-1.31H623.32a4.53,4.53,0,1,1,0-9.05Z"/><path class="cls-86" d="M800.92,278.68H637.43v-1.31H800.92a5.84,5.84,0,1,1,0,11.67H627.63v-1.31H800.92a4.53,4.53,0,1,0,0-9.05Z"/><rect class="cls-87" x="628.86" y="339" width="87.9" height="2.62"/><rect class="cls-87" x="628.86" y="343.94" width="87.9" height="2.62"/><rect class="cls-87" x="628.86" y="348.88" width="87.9" height="2.62"/><rect class="cls-87" x="628.86" y="353.82" width="87.9" height="2.62"/><rect class="cls-87" x="628.86" y="358.76" width="87.9" height="2.62"/><rect class="cls-87" x="628.86" y="363.69" width="87.9" height="2.62"/><rect class="cls-87" x="628.86" y="368.63" width="87.9" height="2.62"/><rect class="cls-87" x="628.86" y="373.57" width="87.9" height="2.62"/><rect class="cls-87" x="628.86" y="384.09" width="87.9" height="2.62"/><rect class="cls-87" x="628.86" y="389.02" width="87.9" height="2.62"/><rect class="cls-87" x="628.86" y="393.96" width="87.9" height="26.45"/><rect class="cls-87" x="628.86" y="423.59" width="87.9" height="2.62"/><rect class="cls-87" x="725.2" y="384.09" width="58.35" height="2.62"/><rect class="cls-87" x="725.2" y="389.02" width="58.35" height="2.62"/><rect class="cls-87" x="725.2" y="374.41" width="58.35" height="2.62"/><rect class="cls-87" x="725.2" y="369.54" width="58.35" height="2.62"/><rect class="cls-87" x="725.2" y="393.96" width="58.35" height="2.62"/><rect class="cls-87" x="725.2" y="398.9" width="58.35" height="2.62"/><rect class="cls-87" x="725.2" y="403.84" width="58.35" height="2.62"/><rect class="cls-87" x="725.2" y="408.78" width="58.35" height="2.62"/><rect class="cls-87" x="725.2" y="413.71" width="58.35" height="2.62"/><rect class="cls-87" x="725.2" y="418.65" width="58.35" height="2.62"/><rect class="cls-87" x="725.2" y="423.59" width="58.35" height="2.62"/><path class="cls-86" d="M650.36,308.29v21.33h-5L636,318.25v11.37h-5.91V308.29h5l9.41,11.36V308.29Z"/><path class="cls-86" d="M671.75,325v4.66H654.62V308.29h16.73V313H660.6v3.6h9.47v4.51H660.6V325Z"/><path class="cls-86" d="M708.26,308.29l-6.92,21.33h-6.46l-4.08-13-4.27,13h-6.46l-6.92-21.33h6.22l4.3,13.62,4.51-13.62h5.54L698,322l4.48-13.74Z"/><path class="cls-86" d="M708.93,327.7l2-4.45a13.44,13.44,0,0,0,7,2.1c2.5,0,3.48-.7,3.48-1.73,0-3.39-12.13-.92-12.13-8.84,0-3.81,3.11-6.92,9.45-6.92a16,16,0,0,1,7.74,1.86l-1.86,4.48a12.6,12.6,0,0,0-5.92-1.65c-2.52,0-3.44.86-3.44,1.92,0,3.26,12.1.83,12.1,8.69,0,3.72-3.11,6.89-9.45,6.89A16.83,16.83,0,0,1,708.93,327.7Z"/><rect class="cls-87" x="725.2" y="339" width="58.35" height="28.34"/><rect class="cls-88" x="736.08" y="305.87" width="47.48" height="26.27"/><line class="cls-89" x1="628.86" y1="334.95" x2="783.55" y2="334.95"/><path class="cls-3" d="M750.79,319.24a10,10,0,1,1,10,10A10,10,0,0,1,750.79,319.24Zm1,0a9,9,0,1,0,9-9A9,9,0,0,0,751.81,319.24Z"/><path class="cls-3" d="M756.33,319.24c0-5.62,2-10,4.48-10s4.49,4.41,4.49,10-2,10-4.49,10S756.33,324.85,756.33,319.24Zm1,0c0,5.3,1.82,9,3.46,9s3.47-3.7,3.47-9-1.83-9-3.47-9S757.35,313.93,757.35,319.24Z"/><rect class="cls-3" x="751.3" y="318.73" width="19.02" height="1.02"/><path class="cls-3" d="M760.81,315.51c5.52,0,7.46-1.94,7.54-2l-.73-.71.37.36-.37-.36s-1.78,1.71-6.81,1.71S754,312.8,754,312.78l-.73.71C753.35,313.57,755.29,315.51,760.81,315.51Z"/><path class="cls-3" d="M767.62,325.69l.73-.71c-.08-.08-2-2-7.54-2s-7.46,1.94-7.54,2l.73.71s1.78-1.71,6.81-1.71S767.61,325.68,767.62,325.69Z"/><polyline class="cls-90" points="776.26 364.67 728.34 364.67 728.34 341.42"/><polygon class="cls-91" points="728.34 358.04 738.67 348.93 741.33 352.54 745.25 344.27 748.01 351.15 751.37 346.65 756.04 354.97 764.72 346.6 768.63 353.56 768.63 364.64 728.34 364.64 728.34 358.04"/><polygon class="cls-92" points="728.34 355.16 738 359.41 745.19 344.81 749.11 355.16 755.55 348.42 762.35 355.77 762.35 364.64 728.34 364.64 728.34 355.16"/><line class="cls-93" x1="774.24" y1="341.03" x2="781.1" y2="341.03"/><line class="cls-93" x1="774.24" y1="342.16" x2="781.1" y2="342.16"/><line class="cls-93" x1="774.24" y1="343.29" x2="781.1" y2="343.29"/><line class="cls-93" x1="769.8" y1="341.03" x2="772.91" y2="341.03"/><line class="cls-93" x1="769.8" y1="342.16" x2="772.91" y2="342.16"/><line class="cls-93" x1="769.8" y1="343.29" x2="772.91" y2="343.29"/><path class="cls-94" d="M730.38,351.28a7.26,7.26,0,0,1,3.32,3.43,14.89,14.89,0,0,0,2.55,4,4.77,4.77,0,0,0,4.76,1.19,5.13,5.13,0,0,0,2.61-3.18,58.4,58.4,0,0,0,3.32-11.32,4.68,4.68,0,0,1,.53-1.66,2,2,0,0,1,1.59-.94,2.76,2.76,0,0,1,1.94,1.05c3.37,3.51,4.83,8.06,7.69,11.88a3.48,3.48,0,0,0,2.34,1.63,3.8,3.8,0,0,0,2.28-.73,21.62,21.62,0,0,0,5.25-4.45"/><path class="cls-95" d="M730.64,351.17a.27.27,0,0,1-.53,0,.27.27,0,1,1,.53,0Z"/><path class="cls-95" d="M740.05,360.07a.27.27,0,0,1-.53,0,.27.27,0,1,1,.53,0Z"/><path class="cls-95" d="M768.58,352.34a.27.27,0,0,1-.53,0,.27.27,0,1,1,.53,0Z"/><path class="cls-95" d="M761.31,357.38a.27.27,0,1,1-.27-.27A.27.27,0,0,1,761.31,357.38Z"/><path class="cls-95" d="M749.05,342.84a.27.27,0,0,1-.27.27.27.27,0,0,1,0-.53A.27.27,0,0,1,749.05,342.84Z"/></g></g></svg>