<svg id="Layer_1" data-name="Layer 1" xmlns="http://www.w3.org/2000/svg" viewBox="0 0 498.54 277.83"><defs><style>.cls-1{fill:#b1c9f2;}.cls-2{fill:#e2ebfa;}.cls-3{fill:#cadaf6;}.cls-4{fill:#ffaa9e;}.cls-5{fill:#bf5647;}.cls-6{fill:#e52144;}.cls-7{fill:#ff575d;}.cls-15,.cls-17,.cls-8{fill:#fff;}.cls-9{fill:#ff878b;}.cls-10{fill:#801000;}.cls-11{fill:#ff725e;}.cls-12{fill:#e8505b;}.cls-13{fill:#cc4252;}.cls-14{fill:#333;}.cls-15{opacity:0.3;}.cls-16{fill:#ba3545;}.cls-17{opacity:0.61;}</style></defs><path class="cls-1" d="M480.78,80.64,471.46,77a9.11,9.11,0,0,1-5.81-8.48v-20H382.92v20a9.11,9.11,0,0,1-5.8,8.48l-9.32,3.63a27.86,27.86,0,0,0-17.77,26V258.16a18.91,18.91,0,0,0,18.91,18.91H479.63a18.91,18.91,0,0,0,18.91-18.91V106.62A27.87,27.87,0,0,0,480.78,80.64Z"/><path class="cls-2" d="M465.47,258.16V106.62a17.41,17.41,0,0,0-11.16-16.33L445,86.66a19.34,19.34,0,0,1-12.4-18.13V58.91h-39.3v9.62a19.36,19.36,0,0,1-12.41,18.14l-9.32,3.62a17.41,17.41,0,0,0-11.16,16.33V258.16a8.56,8.56,0,0,0,8.55,8.55h88A8.56,8.56,0,0,0,465.47,258.16Z"/><path class="cls-3" d="M474.74,144.1h13.44V106.62A17.41,17.41,0,0,0,477,90.29l-9.33-3.63a19.34,19.34,0,0,1-12.4-18.13V58.91H432.58v9.62A19.34,19.34,0,0,0,445,86.66l9.33,3.63a17.41,17.41,0,0,1,11.16,16.33v25.7A59.82,59.82,0,0,1,474.74,144.1Z"/><path class="cls-3" d="M465.47,216.23v41.93a8.56,8.56,0,0,1-8.55,8.55h22.71a8.56,8.56,0,0,0,8.55-8.55V204.45H474.74A59.53,59.53,0,0,1,465.47,216.23Z"/><path class="cls-4" d="M486.79,141.24l-7.2-11.68-7.21-11.68a9.38,9.38,0,0,0-12.87-3,8.61,8.61,0,0,0-1.93,1.6,9.39,9.39,0,0,0-1.13,11.28l7.21,11.67,7.2,11.68a9.4,9.4,0,0,0,10.59,4.06,8.94,8.94,0,0,0,2.29-1A9.38,9.38,0,0,0,486.79,141.24Z"/><path class="cls-5" d="M386.54,135.42l4.55-12.95a9.39,9.39,0,0,0-5.74-11.93,9.21,9.21,0,0,0-2.45-.5,9.41,9.41,0,0,0-9.48,6.23l-4.54,13-4.54,12.95A9.36,9.36,0,1,0,382,148.36Z"/><path class="cls-4" d="M411.47,104.53l-13.06-4.19a9.38,9.38,0,0,0-11.77,6,8.9,8.9,0,0,0-.43,2.47,9.39,9.39,0,0,0,6.48,9.3l13.07,4.19,13.06,4.19a9.38,9.38,0,0,0,10.68-3.79,9.26,9.26,0,0,0,1.09-2.26,9.39,9.39,0,0,0-6-11.77Z"/><path class="cls-5" d="M452.38,103.91a9.24,9.24,0,0,0-2.46-.48,9.4,9.4,0,0,0-9.44,6.28l-4.47,13-4.47,13a9.4,9.4,0,0,0,3.57,10.76,9.2,9.2,0,0,0,2.23,1.14,9.4,9.4,0,0,0,11.9-5.8l4.47-13,4.47-13A9.38,9.38,0,0,0,452.38,103.91Z"/><path class="cls-5" d="M463,236.26,471.5,247a9.39,9.39,0,0,0,11,2.78,9.28,9.28,0,0,0,2.16-1.27,9.39,9.39,0,0,0,1.51-13.15l-8.53-10.75-8.54-10.74a9.39,9.39,0,0,0-13.15-1.51,9.19,9.19,0,0,0-1.72,1.81,9.38,9.38,0,0,0,.22,11.34Z"/><path class="cls-4" d="M463,206.41l8.53,10.74a9.36,9.36,0,0,0,14.66-11.63l-8.53-10.75L469.09,184a9.39,9.39,0,0,0-13.15-1.51,9.23,9.23,0,0,0-1.72,1.82,9.37,9.37,0,0,0,.22,11.33Z"/><path class="cls-4" d="M426.71,242.91a9.35,9.35,0,0,0-7.22-17.26l-12.66,5.29-12.66,5.29a9.38,9.38,0,0,0-5.66,9.82,9.27,9.27,0,0,0,.63,2.43,9.39,9.39,0,0,0,12.25,5l12.66-5.29Z"/><path class="cls-5" d="M429.19,224A9.35,9.35,0,0,0,422,206.75L409.31,212l-12.66,5.29a9.41,9.41,0,0,0-5.66,9.83,9.63,9.63,0,0,0,.64,2.42,9.38,9.38,0,0,0,12.24,5l12.66-5.29Z"/><path class="cls-5" d="M441.3,222.79a9.23,9.23,0,0,0-2.45-.51,9.39,9.39,0,0,0-9.5,6.19l-4.6,12.93-4.59,12.93a9.39,9.39,0,0,0,3.46,10.8,9,9,0,0,0,2.22,1.15,9.37,9.37,0,0,0,12-5.68l4.6-12.93L447,234.74A9.37,9.37,0,0,0,441.3,222.79Z"/><path class="cls-5" d="M363.92,228.64a9.54,9.54,0,0,0-1.73,1.81,9.4,9.4,0,0,0,.21,11.33l8.52,10.76,8.52,10.75a9.41,9.41,0,0,0,11,2.8,9.28,9.28,0,0,0,2.16-1.27,9.39,9.39,0,0,0,1.52-13.15l-8.52-10.76-8.52-10.75A9.39,9.39,0,0,0,363.92,228.64Z"/><path class="cls-4" d="M483.46,257.32a9.65,9.65,0,0,0-.36-2.48,9.38,9.38,0,0,0-9-6.84l-13.72.05-13.72.06a9.38,9.38,0,0,0-9,6.91,9.22,9.22,0,0,0-.33,2.48,9.38,9.38,0,0,0,9.39,9.32l13.72-.05,13.72,0A9.39,9.39,0,0,0,483.46,257.32Z"/><path class="cls-6" d="M474.74,144.1a59.82,59.82,0,0,0-9.27-11.78v83.91a59.53,59.53,0,0,0,9.27-11.78h23.8V144.1Z"/><rect class="cls-1" x="382.92" y="52.63" width="82.74" height="13.65"/><path class="cls-6" d="M465,13.83H442a5.83,5.83,0,0,1,5.84,5.84V47.23c0,3.22-2.61,8.43-5.84,8.43h28.84v-36A5.84,5.84,0,0,0,465,13.83Z"/><path class="cls-7" d="M377.71,19.67V55.54a.12.12,0,0,0,.12.12h73.48v-36a5.84,5.84,0,0,0-5.84-5.84H383.55A5.84,5.84,0,0,0,377.71,19.67Z"/><path class="cls-6" d="M387.55,45.7h9.36V31.59a4.68,4.68,0,0,0-9.36,0Z"/><path class="cls-6" d="M409.83,45.7h9.36V31.59a4.68,4.68,0,0,0-9.36,0Z"/><path class="cls-6" d="M432.11,45.7h9.36V31.59a4.68,4.68,0,0,0-9.36,0Z"/><path class="cls-7" d="M472.76,44.63H375.81a6.56,6.56,0,0,0-6.52,7.23,6.82,6.82,0,0,0,6.9,5.87h96.57a6.55,6.55,0,1,0,0-13.1Z"/><polygon class="cls-7" points="373.83 144.1 350.03 144.1 350.03 204.45 373.83 204.45 373.87 204.51 373.87 144.04 373.83 144.1"/><path class="cls-7" d="M424.29,115.43a58.33,58.33,0,0,0-36.92,13.12V220a58.6,58.6,0,0,0,78.1-3.78V132.32A58.49,58.49,0,0,0,424.29,115.43Z"/><path class="cls-8" d="M387.37,128.55v-.71a6.75,6.75,0,0,0-13.5,0v16.21A59.11,59.11,0,0,1,387.37,128.55Z"/><path class="cls-8" d="M373.87,204.51v16.35a6.77,6.77,0,0,0,6.75,6.75,6.59,6.59,0,0,0,3.29-.9,6.73,6.73,0,0,0,3.46-5.85V220A59.27,59.27,0,0,1,373.87,204.51Z"/><path class="cls-9" d="M373.87,144.05v60.46a59.27,59.27,0,0,0,13.5,15.5V128.55A59.11,59.11,0,0,0,373.87,144.05Z"/><path class="cls-6" d="M436.3,201.52H412.71a3.2,3.2,0,1,1,0-6.4H436.3a3.2,3.2,0,0,1,0,6.4Z"/><path class="cls-10" d="M379,159.33a2.73,2.73,0,0,1,2.87,2.87v3.68a2.74,2.74,0,0,1-2.87,2.88h-4.54v5.13h-2.91V159.33Zm-.73,6.67a.62.62,0,0,0,.69-.68v-2.55a.62.62,0,0,0-.69-.69h-3.81V166Z"/><path class="cls-10" d="M393.72,159.33v2.75H387.1v3h5.36v2.75H387.1v3.32h6.62v2.75h-9.53V159.33Z"/><path class="cls-10" d="M403.89,173.89l-2.35-5.4H399.2v5.4h-2.92V159.33h7.43a2.73,2.73,0,0,1,2.87,2.87v3.42a2.7,2.7,0,0,1-2,2.75l2.43,5.52Zm-.22-11.12a.62.62,0,0,0-.69-.69H399.2v3.7H403a.62.62,0,0,0,.69-.69Z"/><path class="cls-10" d="M416.54,162.69a.62.62,0,0,0-.69-.69h-3.16a.62.62,0,0,0-.69.69v7.85a.62.62,0,0,0,.69.68h3.16a.62.62,0,0,0,.69-.68v-1.78h2.91v2.34a2.74,2.74,0,0,1-2.87,2.88H412a2.74,2.74,0,0,1-2.87-2.88v-9a2.73,2.73,0,0,1,2.87-2.87h4.62a2.73,2.73,0,0,1,2.87,2.87v2.35h-2.91Z"/><path class="cls-10" d="M429.44,159.25a2.74,2.74,0,0,1,2.88,2.87v9a2.75,2.75,0,0,1-2.88,2.88h-4.87a2.74,2.74,0,0,1-2.87-2.88v-9a2.73,2.73,0,0,1,2.87-2.87Zm0,3.44a.62.62,0,0,0-.68-.69H425.3a.62.62,0,0,0-.69.69v7.85a.62.62,0,0,0,.69.68h3.42a.61.61,0,0,0,.68-.68Z"/><path class="cls-10" d="M442.27,162.69a.62.62,0,0,0-.69-.69h-3.15a.62.62,0,0,0-.69.69v7.85a.62.62,0,0,0,.69.68h3.15a.62.62,0,0,0,.69-.68v-1.78h2.91v2.34a2.74,2.74,0,0,1-2.87,2.88H437.7a2.74,2.74,0,0,1-2.87-2.88v-9a2.73,2.73,0,0,1,2.87-2.87h4.61a2.73,2.73,0,0,1,2.87,2.87v2.35h-2.91Z"/><path class="cls-10" d="M457.3,159.33v2.75h-6.61v3h5.36v2.75h-5.36v3.32h6.61v2.75h-9.53V159.33Z"/><path class="cls-10" d="M465.5,162v11.85h-2.92V162h-3.8v-2.71H469.3V162Z"/><path class="cls-10" d="M475.55,159.25a1.36,1.36,0,0,1,1.5,1.29v5a1.3,1.3,0,0,1-1.29,1.29h-3.65a1.3,1.3,0,0,1-1.29-1.29v-5a1.3,1.3,0,0,1,1.29-1.29Zm.75,1.29c0-.24-.14-.57-.75-.57h-3.44a.53.53,0,0,0-.54.57v5a.53.53,0,0,0,.54.56h3.65a.53.53,0,0,0,.54-.56Zm-.81,2.09a.8.8,0,0,1-.69.86l.75,1.75h-.83l-.72-1.75h-.81v1.75h-.77v-4.42h2.2a.8.8,0,0,1,.87.87Zm-1,.14c.14,0,.2-.06.2-.21v-.78c0-.15,0-.23-.2-.23h-1.31v1.22Z"/><path class="cls-11" d="M106.41,253.7V123.56A46.3,46.3,0,0,0,80.32,81.92H26.08A46.31,46.31,0,0,0,0,123.56V130l28.13,37.72L0,249.56v4.14a23.5,23.5,0,0,0,23.5,23.5H82.91A23.5,23.5,0,0,0,106.41,253.7Z"/><path class="cls-5" d="M106.41,253.7a23.5,23.5,0,0,1-23.5,23.5h29.23a23.5,23.5,0,0,0,23.5-23.5v-4.14H106.41Z"/><path class="cls-5" d="M109.56,81.92H80.32a46.31,46.31,0,0,1,26.09,41.64V130h29.23v-6.48A46.31,46.31,0,0,0,109.56,81.92Z"/><rect class="cls-2" y="130.04" width="106.41" height="119.53"/><rect class="cls-1" x="106.41" y="232.99" width="29.23" height="16.57"/><rect class="cls-1" x="106.41" y="154.94" width="29.23" height="65.13"/><rect class="cls-1" x="106.41" y="130.04" width="29.23" height="11.99"/><rect class="cls-12" x="38.01" y="142.03" width="68.39" height="12.92"/><rect class="cls-12" y="142.03" width="41.38" height="12.92"/><rect class="cls-13" x="106.41" y="142.03" width="29.23" height="12.92"/><rect class="cls-12" y="220.07" width="106.41" height="12.92"/><rect class="cls-13" x="106.41" y="220.07" width="29.23" height="12.92"/><rect class="cls-5" x="26.08" y="64.11" width="83.19" height="17.81"/><path class="cls-13" d="M115.68,13.71H89.17a12.52,12.52,0,0,1,12.52,12.52v26.6A12.56,12.56,0,0,1,89.17,65.35h26.51A12.52,12.52,0,0,0,128.2,52.83V26.23A12.52,12.52,0,0,0,115.68,13.71Z"/><path class="cls-12" d="M89.17,13.71H20A12.51,12.51,0,0,0,7.44,26.23v26.6A12.56,12.56,0,0,0,20,65.35H89.17a12.56,12.56,0,0,0,12.52-12.52V26.23A12.52,12.52,0,0,0,89.17,13.71Z"/><path class="cls-13" d="M26.08,55.65a4.5,4.5,0,0,1-4.5-4.5V27.91a4.5,4.5,0,1,1,9,0V51.15A4.49,4.49,0,0,1,26.08,55.65Z"/><path class="cls-13" d="M46.4,55.65a4.5,4.5,0,0,1-4.5-4.5V27.91a4.5,4.5,0,0,1,9,0V51.15A4.49,4.49,0,0,1,46.4,55.65Z"/><path class="cls-13" d="M66.72,55.65a4.49,4.49,0,0,1-4.5-4.5V27.91a4.5,4.5,0,1,1,9,0V51.15A4.49,4.49,0,0,1,66.72,55.65Z"/><path class="cls-13" d="M87,55.65a4.49,4.49,0,0,1-4.5-4.5V27.91a4.5,4.5,0,1,1,9,0V51.15A4.5,4.5,0,0,1,87,55.65Z"/><path class="cls-14" d="M34,187.51H31.17V177.7L28,185.16H25.86l-3.19-7.46v9.81H19.9V172.8h3.22l3.8,8.62,3.8-8.62H34Z"/><path class="cls-14" d="M44.65,172.71a2.77,2.77,0,0,1,2.9,2.91v9.07a2.77,2.77,0,0,1-2.9,2.9H39.73a2.77,2.77,0,0,1-2.9-2.9v-9.07a2.77,2.77,0,0,1,2.9-2.91Zm0,3.48a.63.63,0,0,0-.69-.7H40.46a.63.63,0,0,0-.69.7v7.93a.62.62,0,0,0,.69.69h3.46a.62.62,0,0,0,.69-.69Z"/><path class="cls-14" d="M58.11,187.51l-2.37-5.46H53.37v5.46H50.43V172.8h7.5a2.77,2.77,0,0,1,2.9,2.9v3.45a2.74,2.74,0,0,1-2,2.78l2.45,5.58Zm-.22-11.24a.63.63,0,0,0-.7-.7H53.37v3.74h3.82a.63.63,0,0,0,.7-.69Z"/><path class="cls-14" d="M71.22,172.8a2.77,2.77,0,0,1,2.91,2.9v3.72a2.77,2.77,0,0,1-2.91,2.9H66.65v5.19H63.71V172.8Zm-.73,6.74a.63.63,0,0,0,.69-.7v-2.57a.63.63,0,0,0-.69-.7H66.65v4Z"/><path class="cls-14" d="M76.49,172.8h2.94v5.8H84.5v-5.8h2.94v14.71H84.5v-6.13H79.43v6.13H76.49Z"/><path class="cls-14" d="M90.67,172.8h2.94v14.71H90.67Z"/><path class="cls-14" d="M108.17,172.8v14.71H105l-5.42-10v10H96.83V172.8H100l5.42,10v-10Z"/><path class="cls-14" d="M121,172.8v2.77h-6.68v3h5.41v2.78h-5.41v3.35H121v2.78H111.4V172.8Z"/><path class="cls-15" d="M38,130V114.66a9.85,9.85,0,0,0-19.69,0V130h0v68.33a9.85,9.85,0,0,0,19.69,0V130Z"/><rect class="cls-3" x="195.73" y="13.07" width="93.25" height="36.95" rx="2.22"/><path class="cls-13" d="M266.9,75.27V259.11a18.72,18.72,0,0,1-18.72,18.72h42.27a9.73,9.73,0,0,0,9.73-9.73V245.91L289,184.9l11.19-66.38V75.27H266.9Z"/><path class="cls-12" d="M271.89,75.27V268.1a9.73,9.73,0,0,1-9.72,9.73h-67.9a9.73,9.73,0,0,1-9.73-9.73V245.91l5.58-37.74-5.58-89.65V75.27Z"/><rect class="cls-16" x="184.54" y="79.81" width="115.63" height="10.4"/><path class="cls-8" d="M211.48,105.47a6.75,6.75,0,1,0-13.49,0v13h13.49Z"/><rect class="cls-2" x="184.54" y="118.52" width="87.35" height="127.38"/><rect class="cls-3" x="271.89" y="118.52" width="28.28" height="127.38"/><path class="cls-1" d="M179.82,31.55H304.9a2.22,2.22,0,0,1,2.22,2.22V68.49a0,0,0,0,1,0,0H177.6a0,0,0,0,1,0,0V33.77A2.22,2.22,0,0,1,179.82,31.55Z"/><rect class="cls-2" x="165.62" y="62.94" width="153.48" height="16.87" rx="1.75"/><path class="cls-14" d="M206.25,161.31v11.94h-2.93V161.31h-3.83v-2.73h10.59v2.73Z"/><path class="cls-14" d="M215.3,173.25v-5.07l-4.53-9.6H214l2.77,6.28,2.78-6.28h3.22l-4.53,9.6v5.07Z"/><path class="cls-14" d="M227.42,158.58v11.9h6.15v2.77h-9.08V158.58Z"/><path class="cls-14" d="M245.39,158.58v2.77h-6.66v3h5.4v2.77h-5.4v3.34h6.66v2.77H235.8V158.58Z"/><path class="cls-14" d="M259.29,158.58v14.67h-3.16l-5.4-10v10H248V158.58h3.16l5.4,10v-10Z"/><path class="cls-14" d="M270,158.5a2.76,2.76,0,0,1,2.89,2.89v9.05a2.76,2.76,0,0,1-2.89,2.89h-4.91a2.76,2.76,0,0,1-2.9-2.89v-9.05a2.76,2.76,0,0,1,2.9-2.89Zm0,3.46a.63.63,0,0,0-.7-.69h-3.44a.62.62,0,0,0-.69.69v7.91a.62.62,0,0,0,.69.69h3.44a.63.63,0,0,0,.7-.69Z"/><path class="cls-14" d="M278.67,158.58v11.9h6.15v2.77h-9.09V158.58Z"/><path class="cls-14" d="M238.21,190.36V193h-3l-1.14,3.52h-2.75L232.5,193h-3.14l-1.14,3.52h-2.75l1.14-3.52h-1.79v-2.65h2.65l.83-2.57h-2.08v-2.65h3l1.06-3.28H233l-1.06,3.28h3.14l1.06-3.28h2.75l-1.06,3.28h1.79v2.65h-2.67l-.83,2.57Zm-8,0h3.14l.83-2.57h-3.14Z"/><path class="cls-14" d="M244.24,193.07a.72.72,0,0,0,.81.81h2.73a.73.73,0,0,0,.82-.81v-1.92c0-.61-.41-.81-1-.81h-2.79v-2.61h2.79c.57,0,.81-.16.81-.82v-1.59a.73.73,0,0,0-.81-.81h-2.41a.73.73,0,0,0-.81.81v.94h-2.93v-1.55a2.92,2.92,0,0,1,2.93-2.93h4a2.92,2.92,0,0,1,2.94,2.93v2.12a2.39,2.39,0,0,1-1.29,2.2,2.37,2.37,0,0,1,1.45,2.2v2.45a2.92,2.92,0,0,1-2.93,2.93h-4.36a2.92,2.92,0,0,1-2.94-2.93v-1.55h2.94Z"/><path class="cls-14" d="M258.46,181.78a1.37,1.37,0,0,1,1.51,1.3v5a1.31,1.31,0,0,1-1.31,1.3H255a1.31,1.31,0,0,1-1.31-1.3v-5a1.31,1.31,0,0,1,1.31-1.3Zm.75,1.3c0-.24-.14-.57-.75-.57H255a.54.54,0,0,0-.55.57v5a.54.54,0,0,0,.55.57h3.66a.54.54,0,0,0,.55-.57Zm-.81,2.1a.83.83,0,0,1-.69.88l.75,1.75h-.84l-.73-1.75h-.81v1.75h-.78v-4.44h2.22a.8.8,0,0,1,.88.88Zm-1,.14c.14,0,.2-.06.2-.2v-.79c0-.15,0-.23-.2-.23H256.1v1.22Z"/><path class="cls-17" d="M204.73,223.55a6.77,6.77,0,0,0,6.75-6.75V118.52H198V216.8A6.76,6.76,0,0,0,204.73,223.55Z"/></svg>