<svg id="Layer_1" data-name="Layer 1" xmlns="http://www.w3.org/2000/svg" xmlns:xlink="http://www.w3.org/1999/xlink" viewBox="0 0 329.36 329.36"><defs><style>.cls-1{fill:none;}.cls-2{fill:#e8505b;}.cls-3{clip-path:url(#clip-path);}.cls-4{fill:#263238;}.cls-5{opacity:0.45;}.cls-6{fill:#ef9d78;}.cls-7{fill:#d37a57;}.cls-8{clip-path:url(#clip-path-2);}.cls-9{fill:#f5f5f5;}.cls-10{opacity:0.3;}.cls-11{fill:#fafafa;}</style><clipPath id="clip-path"><circle class="cls-1" cx="164.68" cy="164.68" r="164.68"/></clipPath><clipPath id="clip-path-2"><circle class="cls-1" cx="-635.95" cy="181.47" r="226.17"/></clipPath></defs><circle class="cls-2" cx="164.68" cy="164.68" r="164.68"/><g class="cls-3"><path class="cls-2" d="M261.88,214.12l-44-31a8.21,8.21,0,0,1-6.08,3.32c-18.8,1.62-36.24-9.74-54-13.88-7.29-1.7-46.84,2.07-67.8,4.24a53.67,53.67,0,0,0-32.28,14.9c-3.83,3.79-7,8.14-8,12.74-3,14.29-9.27,107.52-9.27,107.52l8.18,27.55,164.25.26,38.52-.55s14.8-34.57,14.8-44.1S261.88,214.12,261.88,214.12Z"/><path class="cls-4" d="M69.59,247.61s.06.07.17.24l.44.77-.12,0c-.6-2.79-2.21-11.36-4-21.5-1.11-6.24-2.11-11.88-2.84-16-.34-2-.61-3.66-.81-4.87-.08-.54-.15-1-.2-1.33a1.66,1.66,0,0,1,0-.47,3.28,3.28,0,0,1,.12.46c.08.34.17.78.28,1.31.24,1.21.56,2.85,1,4.85.77,4.15,1.81,9.79,3,16,1.84,10.13,3.33,18.72,3.75,21.55l.06.42-.19-.38c-.15-.33-.28-.59-.38-.8A.84.84,0,0,1,69.59,247.61Z"/><path class="cls-4" d="M67.59,245.9c-.11,0-2.21-4.16-4.68-9.41s-4.39-9.55-4.29-9.6,2.21,4.17,4.68,9.42S67.7,245.85,67.59,245.9Z"/><path class="cls-5" d="M66.74,337.33c5.21,2.62,17.29-2,21.69-7.77s5.66-13.26,6.62-20.44q2.15-16.25,3.07-32.61a49.61,49.61,0,0,0,31.23,9.43c7.06-.32,15.09-3.13,17.28-9.84s-2.49-13.48-7.32-18.52a113.41,113.41,0,0,0-15-13.14c-3.52-2.58-7.38-5-11.72-5.5a17.43,17.43,0,0,0-13,4.49A30.92,30.92,0,0,0,91.77,255c-5.57,13.26-5.27,28.11-6.4,42.44S82.71,326.64,70,336"/><path class="cls-4" d="M67.07,337.39l.36-.18,1-.45A19.24,19.24,0,0,0,72,334.31a50.05,50.05,0,0,0,9.61-12l0,.07c.76-5.7,1.65-12.35,2.59-19.42,1.53-11.21,2.88-21.36,4-28.69.67-3.62,1.21-6.56,1.6-8.63.19-1,.35-1.78.46-2.35l.13-.6a.64.64,0,0,1,.06-.21,1.53,1.53,0,0,1,0,.21c0,.17,0,.37-.09.62-.09.57-.21,1.36-.37,2.36-.36,2.07-.86,5-1.47,8.65-1,7.37-2.34,17.5-3.84,28.7-1,7.07-1.87,13.71-2.64,19.41v0l0,0a48.21,48.21,0,0,1-9.79,12,17.87,17.87,0,0,1-3.65,2.39l-1.08.4A1.76,1.76,0,0,1,67.07,337.39Z"/><path class="cls-5" d="M236.91,202.36l.31-2.64c-3.17.3-7.06.68-9.59,2.6-2.95,2.25-4.12,6.09-5.11,9.66-2.26,8.14,4.15,50,3.83,58.45,2.8-1.19,4.78-19.16,5.28-22.17,1.23-7.33-1.26-11.9-.5-13.94a20.18,20.18,0,0,0,.79-6.45c.27-9.71,1.24-16.55,5-25.51"/><path class="cls-4" d="M195.57,68c-4-5-2.7-13,1.9-17.42s11.62-5.75,17.94-4.68A29.49,29.49,0,0,1,236.8,62c2.15,4.53,3.33,9.88,7.29,13,3.47,2.7,8.26,2.94,12.22,4.88,5.31,2.6,8.73,8.16,9.94,13.94s.49,11.81-.74,17.59c-1.12,5.3-2.62,11-.34,16s7.42,7.42,10.83,11.46c6.44,7.59,5,20.52-3,26.49-2.54,1.9-5.75,3.35-7,6.28-1.11,2.68-.17,5.71-.22,8.61-.15,7.46-8.37,13.59-15.56,11.61-3.63-1-7-3.68-10.71-3.17s-6.18,3.93-9.19,6.15a16.09,16.09,0,0,1-20.22-1.49c-2.18-2.17-3.94-5.13-6.92-5.92s-6.09.92-9.14.5c-4-.54-6.61-4.5-7.78-8.35s-1.5-8-3.49-11.51c-2.6-4.58-7.56-7.17-11.73-10.4a40.75,40.75,0,0,1-3.49-61.45"/><path class="cls-6" d="M139.8,167.73a38.27,38.27,0,0,0-8.13,34c3,11.74,21.61,23.09,43.93,14C187,211.08,191,194.31,190.17,191a14.42,14.42,0,0,0-4-6.27,50.85,50.85,0,0,0-44-14.68"/><path class="cls-6" d="M173.45,83.24h0a20.18,20.18,0,0,1,23.07-10.62l28.38,7.23c14.17,4.57,25.28,26.51,16.92,45.73-6.6,15.18-13.37,34.25-20.15,44.72-13.64,21.07-32.28,16.25-32.28,16.25L179.33,209l-41.14-38.58Z"/><path class="cls-4" d="M202.84,148.26c.06-.18,2.15.35,5.48,1.34.84.27,1.66.45,2,0a4.43,4.43,0,0,0,.51-2.6c.11-2.27.22-4.64.34-7.13.56-10.11,1.34-18.28,1.74-18.25s.29,8.24-.27,18.35c-.16,2.48-.3,4.85-.45,7.12-.1,1,0,2.3-1,3.31a2.17,2.17,0,0,1-1.83.59,5.91,5.91,0,0,1-1.44-.41C204.74,149.3,202.77,148.45,202.84,148.26Z"/><path class="cls-7" d="M189.35,186.61a65.62,65.62,0,0,1-27.51-21.93s.63,19.25,25,27.57Z"/><path class="cls-4" d="M193.51,118a1.07,1.07,0,0,0-1.47,0,1,1,0,0,0,0,1.47l8.91,7.4-11.13,1.25a1.08,1.08,0,0,0-1,1,1,1,0,0,0,1,1l13.66-1.53a1.08,1.08,0,0,0,1-.64,1,1,0,0,0-.22-1.14Z"/><path class="cls-4" d="M230.27,133.7l-10.84-1.64a1.05,1.05,0,0,0-1,1.74l6.63,8.49a1,1,0,1,0,1.47-1.47l-5-6.35,8.16,1.23A1.07,1.07,0,0,0,231,135,1,1,0,0,0,230.27,133.7Z"/><path class="cls-4" d="M191.8,106.23c.52-.84,3.77.3,7.8.66s7.42,0,7.77.88c.15.44-.58,1.18-2.05,1.79a13.63,13.63,0,0,1-11.86-1.17C192.14,107.5,191.57,106.63,191.8,106.23Z"/><path class="cls-4" d="M228.05,115.38c1,0,2.35,2.58,4.59,5.06s4.57,4.17,4.42,5.2c-.1.48-1,.68-2.35.27a11.37,11.37,0,0,1-7.26-8.26C227.24,116.24,227.56,115.41,228.05,115.38Z"/><path class="cls-7" d="M195.63,157s1.93-1,1-4.71-5.61-7.06-8.59-4c0,0-3,.24-1.83,3.71s8,8.38,9.33,5.59"/><path class="cls-4" d="M194.5,159.78c-.54-.09.29-3.71-2.2-7s-6.44-3.78-6.35-4.29c0-.24,1-.51,2.66-.17A9.24,9.24,0,0,1,194,151.7a8,8,0,0,1,1.62,5.82C195.36,159.06,194.75,159.86,194.5,159.78Z"/><path class="cls-4" d="M149.19,71.43A17.73,17.73,0,0,0,142.38,86c.12,3.11.88,6.78-1.41,8.88s-6,1-9.17,1A11.8,11.8,0,0,0,120.54,106c-.23,2,0,4.09-1,5.79s-3.14,2.57-4.9,3.64a14.68,14.68,0,0,0,.49,25.38c2,1.13,4.42,1.83,5.91,3.62,1.7,2.05,1.76,5,2.6,7.5a12.33,12.33,0,0,0,23.35.17"/><path class="cls-4" d="M195.18,63.47a17.56,17.56,0,0,0,14.06,23.07c3.94.57,8.65.08,11.19,3.14,2.68,3.23,1.09,8.37,3.21,12,3,5.17,8.18,9.3,13.08,12.75,3.78,2.67-.55,10.1,1.1,14.43s8.43,14.19,13.05,14.36c1-3.87,6.77-20.85,6.87-24.85a17.5,17.5,0,0,0-3.27-11.28c-1.36-1.73-3.14-3.1-4.32-5-2.53-4-1.68-9.17-2.5-13.83a19.22,19.22,0,0,0-10.77-13.91c-4.62-2.11-10-2.34-14.29-5.1-3.15-2-5.41-5.29-8.67-7.13-6.36-3.6-14.33-.86-20.91,2.33"/><path class="cls-4" d="M164.55,111.81c-.66-.44-5,2.86-.71,5.5,7.54,4.61,14-11,13.74-16.16a50,50,0,0,0,11.11-5.84c3.38-2.57,8.45-11,9.35-15.24,2.89,1.17,16.83,1.28,15.62.44-2.75-1.9-8.32-6-9.06-9.18-1.61-7-6.54-13-13-14.8a16.23,16.23,0,0,0-18,7.46c-7.76-2.56-17-.25-23.14,5.8a27.06,27.06,0,0,0-7.38,24.07c.45,2.21,1.2,4.52.49,6.71-.88,2.72-3.6,4.19-5.77,6-5.92,4.79-8.47,13.27-7.74,20.92s2,10.7,5.82,13.47c7.41,5.41-8,19.23,5.81,23.9"/><path class="cls-6" d="M166.16,114.18c2.37-4.65-.82-10.49-6-10.48-2.86,0-5.94,1.56-8.5,6.47-6.83,13.09,7.72,17.24,7.94,16.88S163.38,119.62,166.16,114.18Z"/><path class="cls-7" d="M158.15,120c0-.07-.31,0-.79,0a2.58,2.58,0,0,1-1.72-.86c-1.12-1.22-1.14-4,0-6.42a8.41,8.41,0,0,1,2.34-2.93,3,3,0,0,1,2.63-.86,1.32,1.32,0,0,1,1,1.33c0,.46-.24.67-.18.73s.39-.07.57-.67a1.61,1.61,0,0,0-.09-1.08,1.93,1.93,0,0,0-1.08-1,3.6,3.6,0,0,0-3.44.78,8.77,8.77,0,0,0-2.7,3.24c-1.29,2.68-1.23,5.85.38,7.39a2.77,2.77,0,0,0,2.27.74C158,120.31,158.18,120.05,158.15,120Z"/><path class="cls-4" d="M153.11,296c-1.15-2.15-4.13-3.47-4.13-3.47l-2.48-6.12a6.59,6.59,0,0,0,0-4.79c-1-2.64-8.26-18-8.09-18.5l-1.88-.11s6.7,16.26,7.36,17.08,1.62,5.67,0,6.33-5.16-1.13-6.65-2.62-6.22-12.67-7.05-15,.65-5.54.65-5.54l1.32-3.14h-1.82a61.28,61.28,0,0,0-1.81,6.45c-.67,3.14,6.77,16.85,7.93,18.34s5.12,2.64,7.27,4.13,1.81,6.11,1.81,6.11a11.55,11.55,0,0,0-2,5.45c-.16,3,6.44,17,10.91,20s9.74.83,10.24,1,1.65-2.32,1.65-2.32S154.27,298.12,153.11,296Zm6.09,24.56a9.35,9.35,0,0,1-6.13-3.55c-.55-.72-6.33-10.79-7.08-12.66-1.3-3.27-.4-5.08.08-7,.68-2.78,5-1.15,5-1.15s12.66,21.87,12.37,22.53A4.4,4.4,0,0,1,159.2,320.54Z"/><path class="cls-4" d="M166.33,319.27s36.85-14,38.57-15.61,7.94-10.72,7.94-10.72,3,.53,2.65,1.32-6.22,9.93-12.44,12.58-38.37,14.75-38.37,14.75Z"/><path class="cls-2" d="M49.73,203.72,34.55,291.25S29,308.28,29.76,312s3.62,19.79,12.13,24.85,25.39,1.76,28.85-1.7,10.27-9.8,11.07-12.73S88.21,275,88.21,275l2.22-12.49s-8.25,2.66-13.31-.8-11.71-18.36-11.71-18.36L58,254.8Z"/><path class="cls-4" d="M65.41,243.35a1.94,1.94,0,0,1-.29.5l-.9,1.36c-.78,1.19-1.91,2.91-3.27,5.06-2.73,4.28-6.37,10.28-10.35,16.94s-7.58,12.69-10.25,17c-1.34,2.17-2.44,3.91-3.21,5.1l-.91,1.36a2.82,2.82,0,0,1-.34.46,2.88,2.88,0,0,1,.27-.5l.84-1.41,3.09-5.17L50.22,267c4-6.66,7.68-12.64,10.48-16.89,1.39-2.13,2.56-3.82,3.38-5,.4-.55.72-1,1-1.32A3.83,3.83,0,0,1,65.41,243.35Z"/><path class="cls-4" d="M88.52,273.25a2.28,2.28,0,0,1-.32.36c-.22.22-.52.58-1,1a16.9,16.9,0,0,1-4.2,2.84,13.3,13.3,0,0,1-3.35,1.05,12.61,12.61,0,0,1-4,.1,16.65,16.65,0,0,1-4.31-1.16,23.68,23.68,0,0,1-4.18-2.32,22.39,22.39,0,0,1-3.52-3.25,22.69,22.69,0,0,1-5.06-10.74,22.24,22.24,0,0,1-.34-5.05c0-.6.1-1.06.13-1.37a2.58,2.58,0,0,1,.08-.47s0,.66,0,1.85a24.66,24.66,0,0,0,.47,5A23,23,0,0,0,64,271.56a22.37,22.37,0,0,0,3.45,3.18A23.73,23.73,0,0,0,71.5,277a16.64,16.64,0,0,0,4.19,1.16,12.55,12.55,0,0,0,3.93-.06,13.5,13.5,0,0,0,3.29-1,17.86,17.86,0,0,0,4.21-2.69C88,273.68,88.49,273.22,88.52,273.25Z"/><path class="cls-6" d="M65.41,243.35l11.36-7.3s30.27-12.3,33.35-13,6.62-2.13,8.28,0,18.92,14.67,18.92,14.67,10.17,19.16,10.17,21.76,2.84,5.93,0,6.87l-2.84.93s-1,4.64-4.49,5.16-4.74,0-4.74,0-.23,4.64-3.07,4.35-7.57-4.35-7.57-4.35-2.13,2.41-3.78,2.41-6.86-3.55-6.86-3.55l-10.06-8.75-8.86-3.07-4.79,3s-10.24.87-11.77,0S65.41,243.35,65.41,243.35Z"/><path class="cls-7" d="M123.54,273.25a9.25,9.25,0,0,1-.52-1.34c-.15-.44-.34-1-.59-1.58s-.51-1.3-.88-2-.72-1.57-1.19-2.42-1-1.75-1.54-2.68a48.88,48.88,0,0,0-4.22-5.68,48.55,48.55,0,0,0-5.09-4.93c-.85-.67-1.65-1.33-2.45-1.87s-1.55-1.07-2.24-1.5-1.35-.81-1.92-1.14-1.07-.59-1.48-.79a9.13,9.13,0,0,1-1.26-.69,8.22,8.22,0,0,1,1.33.54,14.36,14.36,0,0,1,1.52.73c.58.31,1.26.64,2,1.08s1.5.9,2.29,1.47,1.64,1.19,2.51,1.86a46.3,46.3,0,0,1,5.15,5,44.76,44.76,0,0,1,4.24,5.76c.55.95,1.09,1.84,1.52,2.72s.83,1.7,1.15,2.46.59,1.47.82,2.09a15.55,15.55,0,0,1,.53,1.6A8.71,8.71,0,0,1,123.54,273.25Z"/><path class="cls-7" d="M135.4,273a2.14,2.14,0,0,1-.25-.37c-.15-.25-.39-.61-.65-1.1a30.35,30.35,0,0,1-1.85-4.3c-.66-1.86-1.29-4.13-2-6.62a35.17,35.17,0,0,0-3.2-7.78,20.29,20.29,0,0,0-5.69-6.1c-2.09-1.53-4.11-2.76-5.65-4a14,14,0,0,1-3.21-3.41,7.21,7.21,0,0,1-.6-1.13,1.85,1.85,0,0,1-.16-.41c.05,0,.28.54.9,1.45a15.44,15.44,0,0,0,3.26,3.26c1.54,1.22,3.57,2.41,5.7,3.94a20.23,20.23,0,0,1,5.82,6.2,34.06,34.06,0,0,1,3.21,7.88c.73,2.51,1.33,4.78,1.95,6.64a36.73,36.73,0,0,0,1.71,4.33A16,16,0,0,1,135.4,273Z"/><path class="cls-7" d="M143.94,267.47a1.42,1.42,0,0,1-.13-.41c-.08-.32-.17-.72-.29-1.2s-.25-1.15-.47-1.88-.4-1.56-.72-2.46-.62-1.9-1.05-2.93-.88-2.14-1.39-3.28a51.86,51.86,0,0,0-9.16-13.47c-.88-.9-1.7-1.77-2.54-2.51s-1.61-1.44-2.35-2-1.42-1.12-2-1.58-1.13-.84-1.58-1.13l-1-.71c-.23-.16-.35-.25-.34-.27a1.86,1.86,0,0,1,.38.2l1.06.64a18.48,18.48,0,0,1,1.62,1.07c.62.45,1.34.92,2.08,1.54s1.57,1.25,2.39,2,1.69,1.6,2.59,2.5a53.9,53.9,0,0,1,5.18,6.4,54.49,54.49,0,0,1,4.05,7.17c.5,1.16,1,2.26,1.37,3.32s.72,2.05,1,3,.48,1.76.67,2.49.31,1.38.4,1.91.15.89.2,1.21A1.74,1.74,0,0,1,143.94,267.47Z"/><path class="cls-7" d="M99.38,235.19c0,.07-.59.16-1.46.54A7.13,7.13,0,0,0,95,238a7.24,7.24,0,0,0-1.37,3.38c-.13.94,0,1.54-.12,1.55a3.1,3.1,0,0,1-.19-1.58,6.61,6.61,0,0,1,4.45-5.87A3.1,3.1,0,0,1,99.38,235.19Z"/><path class="cls-7" d="M107.81,227.17c.07.11-1.4,1-2.84,2.59s-2.31,3-2.43,3a10.55,10.55,0,0,1,5.27-5.57Z"/><path class="cls-6" d="M226.49,128.42c-1.44.6-1.73,2.32-1.71,3.87,0,2,.52,2.27,2.11,5.53,2.6,5.33,5.71,15.44,5.71,15.44s-2.55,25.53-.87,31.52a10.13,10.13,0,0,0,6.62,6.8L236,211.3h27.85s-1-19.09-1.59-24.91c-.63-6.15-.21-43.37-.21-43.37l-2.74-19.87L252.89,112a5,5,0,0,0-1.9,6.1c1.45,4.09,2.41,11.93,2.41,11.93l-16.12-24.27s-3.17.76-3.36,6.63c0,0-4.69,3-1.67,8,3.36,5.53,6.87,22.15,5.64,22.15l-10-14.69Z"/><path class="cls-7" d="M236,211.3s0-.45.12-1.31.24-2.15.43-3.82c.38-3.36.94-8.29,1.67-14.61l.08.12a10.25,10.25,0,0,1-3.55-2,9.6,9.6,0,0,1-2.66-3.51,13.4,13.4,0,0,1-1-4.65c-.1-1.63-.14-3.33-.12-5.07.08-7,.62-14.77,1.4-23.24v.07c-1.3-4.11-2.75-8.44-4.56-12.83-.46-1.1-.94-2.19-1.49-3.27a26.56,26.56,0,0,1-1.59-3.35,6.44,6.44,0,0,1-.2-1.9,6.63,6.63,0,0,1,.27-1.91,2.89,2.89,0,0,1,1.17-1.61,6.37,6.37,0,0,1,.89-.41l.89-.37.15-.06.09.14,10.44,15.31-.38.08a16.57,16.57,0,0,0-.05-3.85,34.76,34.76,0,0,0-.67-3.89,59.46,59.46,0,0,0-2.33-7.73c-.91-2.57-2.07-5.06-3.19-7.63a6.75,6.75,0,0,1-.45-4.23,6.28,6.28,0,0,1,2.38-3.59l-.1.15a15.59,15.59,0,0,1,.89-3.75,7.5,7.5,0,0,1,1-1.77,3.43,3.43,0,0,1,1.66-1.29l.14,0,.09.13.19.28,15.93,24-.39.14a85.8,85.8,0,0,0-1.7-9.51c-.19-.77-.41-1.53-.66-2.27a6.46,6.46,0,0,1-.4-2.39,5.23,5.23,0,0,1,2.35-4.07l.18-.11.11.19,6.44,11.15,0,0v0Q261,133.56,262.26,143h0v0c-.12,10.29-.18,19.71-.16,28,0,4.17,0,8.07.12,11.67,0,1.8.16,3.51.32,5.15s.24,3.22.34,4.71c.39,6,.63,10.63.79,13.81.07,1.59.13,2.81.17,3.64s0,1.25,0,1.25,0-.43-.1-1.25-.12-2.05-.22-3.63c-.2-3.18-.47-7.86-.89-13.81-.1-1.49-.21-3.05-.36-4.7s-.28-3.37-.34-5.17c-.11-3.6-.15-7.5-.17-11.67,0-8.33,0-17.75.1-28v0q-1.31-9.44-2.76-19.87l0,.07-6.46-11.15.29.07a4.83,4.83,0,0,0-2.16,3.74,6.47,6.47,0,0,0,.38,2.24c.26.75.48,1.52.68,2.3a87.13,87.13,0,0,1,1.71,9.56l.12.91-.5-.77-15.95-24-.18-.28.22.1a3,3,0,0,0-1.41,1.13,7.26,7.26,0,0,0-.92,1.66,15.39,15.39,0,0,0-.86,3.64v.1l-.08.06a5.79,5.79,0,0,0-2.2,3.33,6.39,6.39,0,0,0,.43,4c1.1,2.54,2.28,5.07,3.19,7.65a61.38,61.38,0,0,1,2.35,7.78,37.69,37.69,0,0,1,.67,3.94,17,17,0,0,1,0,4l-.07.53-.31-.45C234.54,138,231,132.83,227.72,128l.24.07c-.57.25-1.23.47-1.72.75a2.45,2.45,0,0,0-1,1.39A6,6,0,0,0,225,132a6.26,6.26,0,0,0,.18,1.79,27.23,27.23,0,0,0,1.56,3.28c.55,1.09,1,2.19,1.5,3.29,1.81,4.42,3.25,8.76,4.55,12.88v.07c-.8,8.45-1.36,16.24-1.46,23.2,0,1.74,0,3.43.1,5.05a13.06,13.06,0,0,0,.94,4.57,10,10,0,0,0,6,5.37l.09,0v.09c-.77,6.31-1.36,11.23-1.77,14.59l-.48,3.82C236.1,210.86,236,211.3,236,211.3Z"/><path class="cls-7" d="M248.33,144.68a12.07,12.07,0,0,1-.3-1.38c-.15-.89-.42-2.17-.78-3.74a61.48,61.48,0,0,0-4.12-11.9,79.09,79.09,0,0,0-6.27-10.94c-.9-1.34-1.65-2.41-2.17-3.15a8.22,8.22,0,0,1-.77-1.18,9,9,0,0,1,.91,1.08c.56.7,1.35,1.75,2.28,3.08a69.34,69.34,0,0,1,6.42,10.93,56.65,56.65,0,0,1,4,12c.32,1.59.55,2.88.65,3.79A8.9,8.9,0,0,1,248.33,144.68Z"/><path class="cls-7" d="M257,138.48a26.3,26.3,0,0,1-2-4.32,25.9,25.9,0,0,1-1.64-4.49,27.32,27.32,0,0,1,2,4.32A27,27,0,0,1,257,138.48Z"/><path class="cls-2" d="M233.8,203.13h0c-4.88,43.14-11.25,89.06-18.56,136.77h56.69c10.65-23.6,4.14-44.2,1.29-73.54l-9.34-66.64Z"/><path class="cls-4" d="M215.24,339.9a1.18,1.18,0,0,1,0-.28c0-.21.06-.48.1-.82.1-.75.24-1.8.43-3.14.4-2.76,1-6.69,1.67-11.54,1.44-9.76,3.41-23.2,5.6-38.05S227,257.72,228.19,248c.61-4.88,1.07-8.84,1.38-11.58.16-1.34.28-2.4.37-3.14l.1-.82c0-.18.05-.28.05-.28a1,1,0,0,1,0,.28l-.07.83c-.07.74-.16,1.8-.28,3.15-.26,2.74-.68,6.71-1.24,11.6-1.12,9.78-2.88,23.27-5,38.14s-4.2,28.31-5.71,38c-.77,4.85-1.38,8.77-1.81,11.52-.22,1.34-.39,2.39-.52,3.13-.06.34-.1.61-.14.81A2.52,2.52,0,0,1,215.24,339.9Z"/></g><g class="cls-8"><polygon class="cls-9" points="268.34 345.23 -777.59 345.23 -777.59 236.91 267.17 233.79 268.34 345.23"/><path class="cls-4" d="M267.17,294.13c0,.4-235.14.72-525.14.72s-525.19-.32-525.19-.72,235.09-.73,525.19-.73S267.17,293.73,267.17,294.13Z"/><path class="cls-4" d="M290.22,67.2H278A10.79,10.79,0,0,0,267.17,78V345.23H-777.59V78A10.79,10.79,0,0,0-788.38,67.2h-12.26A10.79,10.79,0,0,0-811.43,78V574.21h33.84V417.31H267.17v156.9H301V81.64C301,72,296.18,67.2,290.22,67.2Z"/><path class="cls-2" d="M265.7,233.44c10.44-14.77,7-38.63-2.93-53.73s-25.39-25.56-40.42-35.61c-29.14-19.48-58.68-39.16-91.77-50.7C86.49,78,38.57,77.94-8,81.45s-93.08,10.41-139.74,8.36c-37.58-1.65-74.77-9.09-112.38-10.1s-77.1,5.18-107.22,27.73l48.89,131.14Z"/><g class="cls-10"><path d="M265.7,233.44c10.44-14.77,7-38.63-2.93-53.73s-25.39-25.56-40.42-35.61c-29.14-19.48-58.68-39.16-91.77-50.7C86.49,78,38.57,77.94-8,81.45s-93.08,10.41-139.74,8.36c-37.58-1.65-74.77-9.09-112.38-10.1s-77.1,5.18-107.22,27.73l48.89,131.14Z"/></g><path class="cls-11" d="M-6.32,209.47c-.33-.24,3.43-5.88,8.39-12.6s9.23-12,9.55-11.74S8.19,191,3.23,197.73-6,209.71-6.32,209.47Z"/><path class="cls-11" d="M48.8,145.42c-.18.36-6.36-2.51-13.79-6.4s-13.3-7.34-13.12-7.69,6.36,2.51,13.79,6.41S49,145.07,48.8,145.42Z"/><path class="cls-11" d="M95,187.78c.26.31-5,5.16-11.69,10.83s-12.36,10-12.61,9.73,5-5.16,11.68-10.83S94.74,187.48,95,187.78Z"/><path class="cls-11" d="M110.2,140.38c-.32.25-5.17-5.58-10.83-13s-10-13.65-9.69-13.89,5.17,5.59,10.84,13S110.51,140.14,110.2,140.38Z"/><path class="cls-11" d="M139.81,162.1c-.3-.27,4.05-5.64,9.71-12S160,138.78,160.32,139s-4,5.64-9.72,12S140.1,162.36,139.81,162.1Z"/><path class="cls-11" d="M188.17,216.08c-.34.2-3.46-4.54-7-10.57s-6.06-11.1-5.72-11.3,3.47,4.53,7,10.57S188.52,215.87,188.17,216.08Z"/><path class="cls-11" d="M229.75,173.69c.39.1-.72,5.36-2.47,11.73s-3.47,11.46-3.86,11.35.72-5.36,2.47-11.73S229.37,173.58,229.75,173.69Z"/></g></svg>