<svg id="Layer_1" data-name="Layer 1" xmlns="http://www.w3.org/2000/svg" xmlns:xlink="http://www.w3.org/1999/xlink" viewBox="0 0 579.44 559.89"><defs><style>.cls-1,.cls-2{fill:none;}.cls-2{stroke:#e8505b;stroke-miterlimit:10;stroke-width:3px;}.cls-3{fill:#d8ebf4;}.cls-4{fill:#ff725e;}</style><symbol id="Arrow_28" data-name="Arrow 28" viewBox="0 0 47.63 34.75"><rect class="cls-1" x="1.5" y="1.5" width="45.72" height="31.75"/><path class="cls-2" d="M3.47,12.61H27.29a.7.7,0,0,0,.5-1.2L20.54,4.16a1.56,1.56,0,0,1,1.1-2.66h7.93a4.3,4.3,0,0,1,3,1.25L45.37,15.52a2.63,2.63,0,0,1,0,3.71L32.6,32a4.3,4.3,0,0,1-3,1.25H21.64a1.56,1.56,0,0,1-1.1-2.66l7.25-7.25a.7.7,0,0,0-.5-1.2H3.47a2,2,0,0,1-2-2V14.59A2,2,0,0,1,3.47,12.61Z"/></symbol></defs><circle class="cls-3" cx="288.33" cy="282.34" r="277.56"/><use width="47.64" height="34.75" transform="translate(85.82 369.72) rotate(-52.92) scale(1.19)" xlink:href="#Arrow_28"/><path class="cls-4" d="M328.49,159.13c.4-.15.8-.31,1.21-.45-.09,0-.53.15-1.26.4Z"/><path class="cls-4" d="M455.83,244.86a56,56,0,0,0-51.19-60.36c-4.16-.34-10.58,1.42-14.23-1.11-3-2.11-3.87-6.63-6.12-9.43a48.59,48.59,0,0,0-34-18,48.34,48.34,0,0,0-20.5,2.71l-.1,0h0c-.41.14-.81.3-1.21.45l-.05,0c-5.11,1.79-24,9.71-27.11,30.17a38.12,38.12,0,0,1,28.16,14.43,33.48,33.48,0,0,1,30.69-6.47,33.31,33.31,0,0,1,22.68,41.28,1.68,1.68,0,0,1-1.74,1.2,1.91,1.91,0,0,1-.33-.06,1.67,1.67,0,0,1-1.13-2.07,30,30,0,0,0-49.29-30.23,1.66,1.66,0,0,1-2.35-.08,1.86,1.86,0,0,1-.21-.28,34.87,34.87,0,0,0-48.57-7.92,1.67,1.67,0,1,1-1.94-2.71A38,38,0,0,1,298,189.23c2.94-20.95,20.81-30,28-32.75a66.78,66.78,0,0,0-100.19,7.94,58.17,58.17,0,0,0-65.3,23.16,63.77,63.77,0,0,0-6.85,13.94,12.37,12.37,0,0,1-.82,1.79c12.34-3.5,29.31-5.48,47.24,1a1.67,1.67,0,1,1-1.14,3.13c-37.37-13.56-71.12,11.05-71.45,11.3a1.62,1.62,0,0,1-.85.32,60.92,60.92,0,0,0-12,10.22,74,74,0,0,0,49.33,122.84c4.59.38,9.68-1.84,14,0-1.87-6.81-2.56-15.22.85-23.74a1.66,1.66,0,1,1,3.09,1.24c-7,17.6,5.63,35.51,5.76,35.69a1.58,1.58,0,0,1,.29.71,32.43,32.43,0,0,0,8,8.31,62.21,62.21,0,0,0,31.46,11.75,61.44,61.44,0,0,0,27.23-3.89A1.66,1.66,0,0,1,255,382c25.86-11.89,31.74-39,31.8-39.3a1.66,1.66,0,0,1,2-1.3,1.68,1.68,0,0,1,1.3,2c-.22,1.05-5,23.24-25.39,37a62.89,62.89,0,0,0,45.56,25.44c9.19.76,18.95-1.15,27.93-3.86,9.46-2.86,15,11.31,18.05,17.46,4.45,9.05,6.4,19.9,13.14,27.7,9.73,11.24,21.92,2.9,24.18-9.72a102.11,102.11,0,0,0,1.4-21.88c-.13-3.6-.54-7.76,1.35-11,2.26-3.9,5.9-3,9.83-3.57a51.7,51.7,0,0,0,42.13-64.19,46,46,0,0,1-15,2.2c-1.11,0-2.3-.06-3.55-.16-9.14-.76-21.72-4.24-35-15.33a1.67,1.67,0,0,1,2.14-2.56c27.37,22.87,51.63,12.24,51.87,12.13a1.69,1.69,0,0,1,.49-.13,48.69,48.69,0,0,0,6.71-88.06ZM265.08,313.93a1.77,1.77,0,0,1-.56.05,1.67,1.67,0,0,1-1.47-1.24,35.58,35.58,0,0,0-42.79-25.58,1.68,1.68,0,0,1-.24.06l-.32.07a1.66,1.66,0,0,1-2-1.19,1.62,1.62,0,0,1,.25-1.36,43.42,43.42,0,0,0-82.74-10.91,1.66,1.66,0,1,1-3.05-1.33,46.74,46.74,0,0,1,89,11.06,38.92,38.92,0,0,1,45.17,28.34A1.66,1.66,0,0,1,265.08,313.93ZM406.13,289a1.67,1.67,0,0,1-2.35.06,39.43,39.43,0,0,0-66.59,29.59,1.67,1.67,0,0,1-1.62,1.71h-.19a1.67,1.67,0,0,1-1.52-1.62,42.77,42.77,0,0,1,72.21-32.1A1.66,1.66,0,0,1,406.13,289Z"/><use width="47.64" height="34.75" transform="translate(497.53 385.11) rotate(-148.24)" xlink:href="#Arrow_28"/><use width="47.64" height="34.75" transform="translate(526.03 254.17) rotate(161.12) scale(0.52)" xlink:href="#Arrow_28"/><use width="47.64" height="34.75" transform="matrix(-0.4, -0.06, 0.06, -0.4, 542.59, 344.02)" xlink:href="#Arrow_28"/><use width="47.64" height="34.75" transform="translate(59.96 261.64) scale(0.52)" xlink:href="#Arrow_28"/><use width="47.64" height="34.75" transform="translate(453.35 144.72) rotate(136.5)" xlink:href="#Arrow_28"/><use width="47.64" height="34.75" transform="translate(116.05 152.09) rotate(31.76)" xlink:href="#Arrow_28"/><use width="47.64" height="34.75" transform="translate(48.08 195.3) rotate(19.24) scale(0.4)" xlink:href="#Arrow_28"/><use width="47.64" height="34.75" transform="translate(301.98 61.77) rotate(93.85) scale(0.4)" xlink:href="#Arrow_28"/><use width="47.64" height="34.75" transform="translate(81.64 71.24) rotate(45.03) scale(0.62)" xlink:href="#Arrow_28"/><use width="47.64" height="34.75" transform="translate(243.54 74.81) rotate(69.66) scale(1.19)" xlink:href="#Arrow_28"/><use width="47.64" height="34.75" transform="translate(393.14 10.91) rotate(108.62) scale(1.19)" xlink:href="#Arrow_28"/></svg>