<svg id="Layer_1" data-name="Layer 1" xmlns="http://www.w3.org/2000/svg" xmlns:xlink="http://www.w3.org/1999/xlink" viewBox="0 0 354.67 330.02"><defs><style>.cls-1{fill:none;}.cls-2{fill:#d8ebf4;}.cls-3{clip-path:url(#clip-path);}.cls-4{fill:#263238;}.cls-5{fill:#ffbe9d;}.cls-6{fill:#eb996e;}.cls-7{fill:#455a64;}.cls-8{fill:#ff725e;}.cls-9{opacity:0.3;}.cls-10{fill:#e97f5b;}.cls-11{fill:#241e22;}.cls-12{fill:#ea7f59;}.cls-13{fill:#e8505b;}.cls-14{fill:#4c454a;}</style><clipPath id="clip-path"><circle class="cls-1" cx="178.84" cy="162.5" r="162.5"/></clipPath></defs><rect class="cls-2" x="16.34" y="0.05" width="325" height="325" rx="162.5"/><circle class="cls-2" cx="178.84" cy="161.5" r="161.45"/><g class="cls-3"><path class="cls-4" d="M228.16,24.22a38.69,38.69,0,0,0-11,27c0,4.48.78,9.18-1,13.3-1.89,4.41-6.46,7.53-7.39,12.24-.69,3.55.88,7.1,2.1,10.5s2.06,7.42.12,10.47c-1.14,1.79-3,2.92-4.45,4.5-3.81,4.22-3.45,10.62-2.87,16.27l53.28-2.27Z"/><path class="cls-4" d="M314.31,53.53c-3.5-14.85-7.08-30.31-19.38-39.33-11-8-23.23-10-36.79-9-6.68.5-14.13,3.83-19.84,7.31-7.84,4.78-10.92,14.06-14.5,22.51-7.18,16.93-5.47,39.49,0,45.6l70.91,34.54c12.13-6.82,20.29-10.09,23.11-23.71C319.71,82.2,316.48,62.76,314.31,53.53Z"/><path class="cls-5" d="M291.82,38.05,249.57,16.5h0c-14.2-1.6-23.76,15.83-24.76,30.09-1.1,15.83-1.83,35.21,0,47,3.59,23.7,21.65,24.73,21.81,24.75l.14,9.62-.13,15.89h0c5.85,19.28,25.39,17,49.8,6.94h0L291.82,38.05Z"/><path class="cls-4" d="M231.91,67.09a3.05,3.05,0,0,0,2.92,3.1A2.92,2.92,0,0,0,238,67.46a3.05,3.05,0,0,0-2.92-3.1A2.92,2.92,0,0,0,231.91,67.09Z"/><path class="cls-4" d="M229,59.16c.37.4,2.69-1.3,6-1.27s5.68,1.69,6,1.29c.17-.17-.21-.89-1.25-1.67A8.46,8.46,0,0,0,234.88,56a8.1,8.1,0,0,0-4.76,1.5C229.11,58.26,228.76,59,229,59.16Z"/><path class="cls-4" d="M261.74,67.09a3.05,3.05,0,0,0,2.92,3.1,2.92,2.92,0,0,0,3.16-2.73,3.05,3.05,0,0,0-2.92-3.1A2.92,2.92,0,0,0,261.74,67.09Z"/><path class="cls-4" d="M259.06,58.49c.38.4,2.7-1.29,6-1.26s5.67,1.69,6,1.29c.18-.18-.2-.9-1.24-1.67A8.41,8.41,0,0,0,265,55.33a8.07,8.07,0,0,0-4.76,1.5C259.23,57.6,258.88,58.31,259.06,58.49Z"/><path class="cls-4" d="M249.12,81.78c0-.19-2-.56-5.32-1-.84-.09-1.63-.27-1.77-.84a4.25,4.25,0,0,1,.58-2.48l2.52-6.36c3.5-9.06,6-16.51,5.67-16.64s-3.5,7.09-7,16.15L241.38,77a4.85,4.85,0,0,0-.45,3.28,2.06,2.06,0,0,0,1.37,1.23,5.61,5.61,0,0,0,1.42.21C247,81.93,249.1,82,249.12,81.78Z"/><path class="cls-6" d="M246.54,118.29A60.43,60.43,0,0,0,278.43,110s-8,16.58-31.75,14.2Z"/><path class="cls-6" d="M259.91,88a5.24,5.24,0,0,0-4.36-2.41,6.84,6.84,0,0,0-6.27,3,4.29,4.29,0,0,0-.3,3.07c.23.52.05.27.45.63a12,12,0,0,0,4.89,3.07,5.14,5.14,0,0,0,5.44-2A5.24,5.24,0,0,0,259.91,88Z"/><path class="cls-4" d="M259.35,84.23c-.54,0-.59,3.53-3.67,6s-6.86,2-6.89,2.54c-.06.23.83.7,2.43.77A8.87,8.87,0,0,0,257,91.63a7.69,7.69,0,0,0,2.84-5C260,85.1,259.59,84.22,259.35,84.23Z"/><path class="cls-4" d="M259.56,48.17c.26.91,3.56.7,7.37,1.41s6.85,2,7.41,1.19c.25-.37-.23-1.24-1.43-2.18a13,13,0,0,0-11.26-2C260.2,47.08,259.45,47.74,259.56,48.17Z"/><path class="cls-4" d="M228.93,52c.77.62,3.12-.58,6.1-1.15s5.61-.49,6.05-1.36c.19-.42-.34-1.08-1.57-1.58a9.42,9.42,0,0,0-5.18-.32,9.29,9.29,0,0,0-4.61,2.35C228.8,50.83,228.59,51.65,228.93,52Z"/><path class="cls-4" d="M250.1,13.92l-.09.52.08,0C250.1,14.29,250.1,14.11,250.1,13.92Z"/><path class="cls-4" d="M250,14.44l-1.46-.56C244,11.69,241,9.15,234.2,15.51A43.07,43.07,0,0,0,225,29.22c-2,4.61-4.24,9.63-4.87,14.63a63,63,0,0,0,0,18.24c4-2.78,5.89-7.61,7.05-12.31s1.79-9.6,4-13.88c-.58,4-1.15,8.08-.39,12.05a5,5,0,0,0,1.38,2.94,2.1,2.1,0,0,0,2.95-.08,26,26,0,0,1-.36-14.29,73.74,73.74,0,0,1,5-13.57,71,71,0,0,0,1.58,24.14,6.19,6.19,0,0,0,1.44,3.13c1.26,1.2,3.24,1.18,4.95.88s3.48-.82,5.16-.37A68.26,68.26,0,0,1,250,14.44Z"/><path class="cls-4" d="M314.29,130.64c-1.32-1.91-4-2.16-6.33-2.23h-.09"/><path class="cls-4" d="M328.26,98.45c1.05-4.29,2.55-8.79,1.29-13-1.15-3.91-4.52-7-5.08-11.05-.47-3.5,1.29-7,.67-10.53-.73-4-4.36-6.77-7.05-9.88-5.61-6.48-7-27.73-19.32-36.48l-1.11,2.18a38.58,38.58,0,0,0-13.3-6.44,67,67,0,0,0-35.08-.43l-.17,1A52.77,52.77,0,0,0,253.75,42a19.41,19.41,0,0,0,4.57,6.6,8.64,8.64,0,0,0,7.47,2.16,32.17,32.17,0,0,1-7.06-18.24c3,6.67,6.13,13.45,11.07,18.85A27.87,27.87,0,0,0,280,58.47a22.11,22.11,0,0,0,1.86,5.86c1.7,3.72,3.88,7.48,3.71,11.57-.17,3.83-2.38,7.22-3.94,10.73a34,34,0,0,0-.28,26.75,356.78,356.78,0,0,0,48.25-2.25C326.77,107.76,327.21,102.74,328.26,98.45Z"/><path class="cls-4" d="M344.23,382.15c-2.9-34.43-12.31-58.39-12.31-58.39-2.89,1.45-81,42.28-81,42.28L266,544.24l8.77,151.84h45.57s7.16-129.56,9.24-157C329.58,539.13,347.12,416.59,344.23,382.15Z"/><path class="cls-7" d="M398.53,379.41q-3.75-10.74-7.51-21.47c-3-8.58-6.19-17.48-12.7-23.82s-19.65-10-27.09-4.78l-5.56,81.86c-1.67,2.09-.57,5.43,1.61,7s5,1.75,7.7,1.73a67.82,67.82,0,0,0,31.92-8.22c6.46-3.51,12.74-8.72,14.22-15.92C402.24,390.29,400.37,384.69,398.53,379.41Z"/><path class="cls-8" d="M352.34,333.15c-3.6-26.21-11.9-58.61-11.9-58.61s7.26-40.46,5.71-63.8c-1.08-16.15-2.94-45.85-4-62.61a17.57,17.57,0,0,0-12.66-15.8L304.17,125,251,134l-26.5,5.82a32.55,32.55,0,0,0-14.15,7,52.58,52.58,0,0,0-16.63,26.78c-3.58,13.25-12.3,92.34-12.3,92.34l-22.77,78.82,36.54,21.51S201.8,334,203.65,328c-4,18.44-22.59,89.32-29.88,141.21l69.85,2.65,10.1-27.2,6,27.81,86.69,3.29S360.38,391.7,352.34,333.15Z"/><path class="cls-4" d="M220,168.06s-.07.16-.25.44l-.82,1.22a39.42,39.42,0,0,0-2.86,4.86,67.52,67.52,0,0,0-6,19.78,108.62,108.62,0,0,0-.19,30.67,323.71,323.71,0,0,1,2.18,37.79c.05,6.7.21,13.27-.19,19.62a149.14,149.14,0,0,1-2.21,18.15c-2.11,11.46-4.7,21.61-6.56,30.2s-3.34,15.55-4.33,20.36c-.48,2.36-.85,4.21-1.13,5.55-.13.59-.23,1.06-.31,1.44a3.24,3.24,0,0,1-.14.49,1.52,1.52,0,0,1,0-.51c.06-.38.13-.86.22-1.45.23-1.35.55-3.22,1-5.59.88-4.84,2.19-11.83,4-20.43s4.29-18.8,6.35-30.22a154.1,154.1,0,0,0,2.14-18.05c.37-6.29.21-12.84.16-19.55A336.06,336.06,0,0,0,209,225.14a107.27,107.27,0,0,1,.4-30.89,65,65,0,0,1,6.31-19.84,33.68,33.68,0,0,1,3-4.8l.9-1.17A2.44,2.44,0,0,1,220,168.06Z"/><path class="cls-8" d="M241.72,138.23l-1.12-15.78c15.88.85,43.89-2,60.92-7.26l2.88,14.34Z"/><path class="cls-4" d="M258.43,122.19s.05.28.1.83.12,1.41.21,2.45c.17,2.2.41,5.36.72,9.41.62,8.18,1.37,20,2.19,34.65,1.59,29.27,3.09,69.76,2.51,114.5s-3.21,85.19-5.63,114.4c-1.23,14.61-2.32,26.42-3.19,34.57-.43,4-.76,7.19-1,9.38-.12,1-.21,1.85-.28,2.44s-.13.83-.13.83,0-.29,0-.84.11-1.41.19-2.45c.19-2.19.46-5.35.81-9.4.75-8.16,1.74-20,2.88-34.58,2.25-29.22,4.74-69.65,5.35-114.37s-.82-85.18-2.23-114.45c-.73-14.63-1.38-26.47-1.89-34.65-.23-4.06-.41-7.22-.53-9.43-.05-1-.09-1.85-.12-2.45S258.43,122.19,258.43,122.19Z"/><path class="cls-4" d="M273,174.42a2.51,2.51,0,0,1,1.38,0,6,6,0,0,1,3.26,2,5.75,5.75,0,0,1,1.26,5.48,6.15,6.15,0,0,1-11.3,1.5,5.76,5.76,0,0,1-.2-5.63,6,6,0,0,1,2.63-2.73c.82-.41,1.33-.43,1.34-.38s-.44.23-1.15.7a6.14,6.14,0,0,0-2.2,2.7,5.12,5.12,0,0,0,.34,4.87,5.3,5.3,0,0,0,9.69-1.29,5.12,5.12,0,0,0-.93-4.78,6.18,6.18,0,0,0-2.84-2C273.52,174.53,273,174.51,273,174.42Z"/><path class="cls-4" d="M273,265.78s.49-.16,1.38,0a6.09,6.09,0,0,1,3.26,2,5.77,5.77,0,0,1,1.26,5.49,6.15,6.15,0,0,1-11.3,1.49,5.74,5.74,0,0,1-.2-5.62,6,6,0,0,1,2.63-2.74,2.51,2.51,0,0,1,1.34-.38c0,.08-.44.23-1.15.7a6.26,6.26,0,0,0-2.2,2.7,5.12,5.12,0,0,0,.34,4.87,5.3,5.3,0,0,0,9.69-1.28,5.14,5.14,0,0,0-.93-4.79,6.08,6.08,0,0,0-2.84-2A12,12,0,0,1,273,265.78Z"/><g class="cls-9"><path d="M251.85,229.26c22.56,23.3,48.14,45.82,79.63,53.6a12.6,12.6,0,0,0,6.2.4c2-.54,3.86-2.36,3.71-4.45-9,1.94-24-8.25-35.5-14.27-19.84-10.4-35.86-24.92-55-36.61"/></g><g class="cls-9"><path d="M208.48,209.59a69.84,69.84,0,0,0-5.61,32.35c.76,10.95,2.72,21.81,3,32.78.52,17.72-6,39.25-4.15,55.3l.89,1.22C218.42,280.46,211.38,250.2,208.48,209.59Z"/></g><path class="cls-4" d="M304.17,128.41a12.66,12.66,0,0,1-2.26,1.12c-.73.36-1.67.68-2.76,1.08s-2.33.82-3.73,1.22a125,125,0,0,1-22.3,4.15,180.55,180.55,0,0,1-22.66.89c-2.9-.07-5.25-.22-6.86-.37a12.16,12.16,0,0,1-2.5-.33,12,12,0,0,1,2.52,0c1.62,0,4,.08,6.85.06,5.78,0,13.78-.29,22.55-1.17a147.71,147.71,0,0,0,22.22-3.85c1.39-.36,2.65-.7,3.74-1.07s2-.62,2.79-.92A13.32,13.32,0,0,1,304.17,128.41Z"/><path class="cls-4" d="M334.25,138c.09.15-1.67,1.3-4.11,3.61a38.13,38.13,0,0,0-11.56,22.89c-.42,3.33-.3,5.43-.47,5.44a4.22,4.22,0,0,1-.23-1.47,23.62,23.62,0,0,1,0-4,34.68,34.68,0,0,1,11.78-23.33,23.71,23.71,0,0,1,3.25-2.41C333.74,138.22,334.21,138,334.25,138Z"/><path class="cls-4" d="M226.23,145.77c.26.09-1,3.94-2.1,8.78s-1.75,8.83-2,8.8-.07-4.12,1.09-9S226,145.67,226.23,145.77Z"/><path class="cls-7" d="M212.57,145.08c-1.12,2.53,20.94,137.64,141.06,199.63a71.15,71.15,0,0,0-2.07-16.89s-89.82-68-105.75-124.14L228.9,138.85S214.94,139.72,212.57,145.08Z"/><path class="cls-8" d="M329.5,132.33s16.91,3,21.71,16.09c6.16,16.77,13.24,57,14.69,85.22S347.09,279.11,337,279.53s-92-54.78-92-54.78l19-29.45,55.71,26Z"/><path class="cls-4" d="M318.37,180.21a3.76,3.76,0,0,1,.07.72c0,.52.06,1.21.11,2.11.08,1.9.19,4.63.33,8.13.25,7.13.6,17.39,1.05,30.16l0,.54-.49-.23L263.7,195.71l.58-.16-19,29.46-.13-.66,11.86,7.89c17.51,11.54,34.32,22.37,49.88,31.75,7.79,4.66,15.24,9,22.5,12.54a41,41,0,0,0,5.45,2.22,6.89,6.89,0,0,0,1.35.31l.66.08c.23,0,.46-.06.69-.08l1.37-.19,1.32-.4a27.72,27.72,0,0,0,9.13-5.34,44.61,44.61,0,0,0,11.21-14.45A47.18,47.18,0,0,0,365,245.5a38.34,38.34,0,0,0,.67-5.05,27.52,27.52,0,0,0,.19-3.72c0-1,0-1.74,0-2.3a4.83,4.83,0,0,1,0-.79,4.61,4.61,0,0,1,.05.78c0,.57,0,1.33.06,2.31a25.89,25.89,0,0,1-.09,3.74,39.48,39.48,0,0,1-.59,5.09,46.61,46.61,0,0,1-4.24,13.36,44.83,44.83,0,0,1-11.25,14.73,28.28,28.28,0,0,1-9.34,5.53l-1.39.42c-.47.09-1,.14-1.45.22-.25,0-.49.08-.74.08l-.78-.07a8,8,0,0,1-1.48-.34,40.76,40.76,0,0,1-5.57-2.24c-7.34-3.49-14.8-7.85-22.62-12.5-15.61-9.35-32.43-20.15-50-31.7l-11.87-7.9-.4-.27.26-.39,19-29.44.22-.34.36.17C285.62,205,304.7,214,319.74,221l-.47.31c-.32-12.77-.57-23-.75-30.17-.07-3.5-.12-6.23-.16-8.14,0-.89,0-1.59,0-2.11A4.47,4.47,0,0,1,318.37,180.21Z"/><path class="cls-4" d="M349.18,240.48c-.14.09-1.28-1.65-3.47-4.14a44.81,44.81,0,0,0-21.6-13.6c-3.19-.89-5.25-1.16-5.23-1.33a4.42,4.42,0,0,1,1.47,0,28.57,28.57,0,0,1,3.93.65,39.85,39.85,0,0,1,22,13.82,25.8,25.8,0,0,1,2.29,3.27A4.42,4.42,0,0,1,349.18,240.48Z"/><g class="cls-9"><path d="M318.37,180.21a99.35,99.35,0,0,1-8.94,36.41c3.4,1.44,7.44,2.82,10.12,5.35.91-.67,0-1.32,0-2.44-.67-12.4-.48-26.92-1.15-39.32"/></g><g class="cls-9"><path d="M319.9,221.54a99.13,99.13,0,0,1,13.68,0,18.84,18.84,0,0,1,6.34,1.12,18.45,18.45,0,0,1,4.4,2.88c3,2.45,6,5.36,6.79,9.18a4.24,4.24,0,0,1-.13,2.47,2,2,0,0,1-2,1.3,3.15,3.15,0,0,1-1.88-1.24c-1.22-1.32-2.44-2.64-3.75-3.88-6.09-5.71-15.18-11.05-23.5-11.79"/></g><path class="cls-5" d="M240.59,216.57c8.9,3.07,9.21.6,9.21.6l13.59-21.4s-5.48-14.56-7.11-17.15S249,163.35,249,163.35s-3.53,2-3.53,7.17,4.16,12.83,4.16,12.83l-13-3.13L219.44,180s-2.9,2,0,5.17h0a5.17,5.17,0,0,0,0,5.92l2.13,3.15s-1.15.67-.14,2.84,5,4.6,5,4.6-3.74,2.17-2.29,4.47S240.59,216.57,240.59,216.57Z"/><path class="cls-6" d="M235.89,188.91c-.14.26-3.59-1.56-8.23-2.52s-8.53-.73-8.55-1,3.94-1,8.75.08S236,188.72,235.89,188.91Z"/><path class="cls-6" d="M232.91,197.58c-.13.25-2.67-.9-5.94-1.88s-6-1.47-6-1.75,2.9-.22,6.27.82S233,197.37,232.91,197.58Z"/><path class="cls-6" d="M232.08,207c-.19.19-1.72-.95-3.6-2.31s-3.44-2.48-3.31-2.72,1.94.52,3.88,1.93S232.26,206.81,232.08,207Z"/><path class="cls-10" d="M148.85,186c-.73,1.59-2.64,3.2-5.13,5h0c-6.36,4.59-16.55,10.29-20.82,19.72a19.55,19.55,0,0,0-1.23,3.36c-3.37,12.35-1.58,36.55-.69,45.93-16.86-8.77-43.6-20.47-72.41-24.32a63.81,63.81,0,0,0-1.56-35c-9.37-29-41.68-20.11-34.76-65C18,98.52,53.94,84.62,69.05,86.94c8,1.22,30.23,12.09,33.25,15.91s2.42,9.27,5,11.08,23.17-1.6,26.79,1.82-3.42,14.9-3.42,14.9,5.65,4.44,5.65,6-13.71,15.72-10.28,21,20,0,22,2.42.41,5.24.81,9.06S151.66,179.84,148.85,186Z"/><path class="cls-11" d="M143.7,191c-6.36,4.59-16.55,10.29-20.82,19.72C104.72,211.92,92.23,200,92.23,200,106.74,206.34,142.78,191.38,143.7,191Z"/><path class="cls-11" d="M82.35,91.57c-1,5.72-26.29,21.46-26,35.66s16,18.74,17.53,25.69-8.46,3.63-9.67,10.28,9.67,13.3,9.37,22.06-19.88,38.92-27.81,34.16c-4.53-2.72,3.78-9.83-3-20.55,0,0-7.56,8.76-15.11,3.62s-9.37-12.09-10.28-27.2c0,0-6.65,10-13.3,6.65s-7.86-19.95,0-37.18c0,0-6.34,6.05-11.18,1.51s-4.23-28.1,29.62-49.56c0,0-7.25-3.63-4.53-11.49S40.34,72.83,53,75.85c0,0,2.11-6,12.09-7.25S83.86,83.11,82.35,91.57Z"/><path class="cls-10" d="M71,159.42s-10.94-7.6-17.23.15c-7.1,8.77-1.21,17.08,2.12,19.65,5.77,4.46,22.21,11,20.85-5.38C76.31,168,71,159.42,71,159.42Z"/><path class="cls-11" d="M95.87,107.17c-14.33,4.24-10.82,20.26-14.57,18.7-4.87-2,3.35-22.06,11.31-23C96.62,102.45,98.85,106.29,95.87,107.17Z"/><path class="cls-11" d="M99.52,123.78c1.41,1.71,1.62,3.88.45,4.85s-3.26.36-4.68-1.36-1.62-3.89-.45-4.85S98.1,122.06,99.52,123.78Z"/><path class="cls-12" d="M152.85,127.94s-3.14,7.12-2.37,8.22,7.37,3.9,9.58-4.45c0,0,4.24,1.4,6.19-3.35Z"/><path class="cls-10" d="M214.52,158.42c-7.77-19.59-17.93-34.91-23-38.8s-13-5.64-16.79-6.1-12.47,2.3-12.47,2.3a16.13,16.13,0,0,1-2.61,1.3,9.71,9.71,0,0,0-3.05,1.66c-.79.64-2.1,3-3,3.51s-3.25.75-5.41,3.28c-2.31,2.69-6.81,11-7.47,13-.3.93,2.14,3.13,6,2.09,4.7-1.27,4.86-11.62,15.3-9,10.18,2.58,9.61,10.3,10.08,17.33.17,2.62-.68,3.92-3.18,4.71-2.89.91-4.41.08-7-2.29a23.65,23.65,0,0,0-9.82-5c-5.93-1.38-7.76,3-7.89,4.45-.09,1.07,4.08,2.81,7.3,4.95,4.8,3.19,4.83,6.09,7.32,7.5s20.72,11.33,39.38,8.17Z"/><path class="cls-12" d="M153.65,122.29s9.42-1.44,12.08-1.21,13.11,5.85,13.11,5.85-8-6.28-12.74-7C160.71,119.15,153.65,122.29,153.65,122.29Z"/><path class="cls-12" d="M159.69,117.12a41.1,41.1,0,0,1,8.41-.22c4.3.62,14.39,6.33,14.39,6.33s-8.7-6.57-13.69-7.15A20.73,20.73,0,0,0,159.69,117.12Z"/><path class="cls-12" d="M162.33,115.85s9.54-1.3,13-.46c3.76.91,9.36,4,11.9,5.78,0,0-7.19-5.93-11.51-6.77C171,113.48,162.33,115.85,162.33,115.85Z"/><path class="cls-12" d="M140.81,138.58s1.63,1.58,3.41-.48,3.09-5.73.71-7.45C144.93,130.65,141.42,136,140.81,138.58Z"/><path class="cls-12" d="M144.24,151.08c.94-2.23,2.48-3.35,6-1.58s2.35,4,1,6.23C148.06,153.48,144.53,152.34,144.24,151.08Z"/><path class="cls-4" d="M223.6,165.09l-8.36-16.46s-26.34,29-30.09,30.14c0,0,4.17,6.79,6.53,10.35Z"/><path class="cls-7" d="M226.76,159.69s-30.54,24.42-41.14,30.09l11.56,81.94L88.54,270.41,31.88,266l44.06,66.93s16.66,35.56,20.6,29.39L271.11,315.1Z"/><path class="cls-13" d="M140.23,149.15l6.53-2.28-1.87-5.48-6.53,2.27a2.91,2.91,0,0,0-1.78,3.69h0A2.87,2.87,0,0,0,140.23,149.15Z"/><path class="cls-8" d="M150.07,145.85l-5.5,1.88c1-.35-.92-6-1.94-5.65l5.51-1.88a3,3,0,0,1,3.77,1.85h0A3,3,0,0,1,150.07,145.85Z"/><path class="cls-7" d="M134.31,292C93.66,308.31,31.88,266,31.88,266l9-31.13c2.57.22,5.15.5,7.7.85A271.77,271.77,0,0,1,118,254.41C137.78,262.68,134.31,292,134.31,292Z"/><path class="cls-14" d="M75.08,89.77a8.94,8.94,0,0,0-.17-7.49A8.19,8.19,0,0,0,69.12,78a9,9,0,0,0-7.05,1.85,19.21,19.21,0,0,0-2.89,2.61c-.46.47-.9,1-1.32,1.48a6.75,6.75,0,0,1-.68.76.4.4,0,0,1-.54,0c-.12-.12-.13-.42.08-.42-.19,0-.11.29,0,.36s.26,0,.36-.1a7.58,7.58,0,0,0,.53-.81c.35-.57.72-1.13,1.12-1.67a17.4,17.4,0,0,1,2.78-3,10.79,10.79,0,0,1,3.63-2,8.77,8.77,0,0,1,10.63,4.81A8.41,8.41,0,0,1,75.08,89.77Z"/><path class="cls-14" d="M68.08,99.74a3.14,3.14,0,0,0,.46-2.23,4,4,0,0,0-.92-2.06,7,7,0,0,0-4-2.09,19.8,19.8,0,0,0-9.17.43c-6,1.7-12.23,3.31-16.71,7.69a87.77,87.77,0,0,1-7.22,6.14c-2.59,1.85-5.29,3.48-7.95,5.14a43.63,43.63,0,0,0-7.45,5.63,23.92,23.92,0,0,0-3.07,3.52,19.56,19.56,0,0,0-2.18,4.15A19.89,19.89,0,0,1,14.71,118a44.59,44.59,0,0,1,7.37-6c2.6-1.79,5.31-3.4,7.81-5.25A86.56,86.56,0,0,0,37,100.57a28.9,28.9,0,0,1,3.86-2.88,26.58,26.58,0,0,1,4.34-2.08c1.49-.58,3-1,4.51-1.51s3-.88,4.6-1.21a20.42,20.42,0,0,1,9.52-.11,7.48,7.48,0,0,1,4.08,2.47,4.32,4.32,0,0,1,.85,2.25A3.17,3.17,0,0,1,68.08,99.74Z"/><path class="cls-14" d="M47,87.62a9.86,9.86,0,0,0-5.26-2,15.79,15.79,0,0,0-5.58.61c-.93.24-1.84.54-2.75.86a14.61,14.61,0,0,0-2.59,1.1A4.61,4.61,0,0,0,28.9,90a2.43,2.43,0,0,0-.25,1.29.54.54,0,0,0,.31.47c.18.06.49,0,.5-.29.06.27-.25.49-.53.47a.79.79,0,0,1-.61-.56,2.78,2.78,0,0,1,0-1.59,5,5,0,0,1,2-2.43A12.34,12.34,0,0,1,33,86c.92-.36,1.87-.68,2.83-1a13.94,13.94,0,0,1,6-.37A8.18,8.18,0,0,1,47,87.62Z"/><path class="cls-14" d="M58.8,107.65a23.58,23.58,0,0,0-10.22,1.4,39.29,39.29,0,0,0-9.1,4.87,36.8,36.8,0,0,0-7.68,6.88,17.46,17.46,0,0,0-2.61,4.4,11.69,11.69,0,0,0-.69,2.48,9.25,9.25,0,0,0-.14,1.29,1.28,1.28,0,0,0,0,.62c.05.08.14.15.23.1s.17-.19.05-.24c.13,0,.06.22,0,.28s-.26,0-.32-.09a1.24,1.24,0,0,1-.13-.67,9.84,9.84,0,0,1,0-1.33,12.57,12.57,0,0,1,.45-2.64,16.51,16.51,0,0,1,2.42-4.77,32.14,32.14,0,0,1,7.74-7.3,33.9,33.9,0,0,1,9.5-4.77A20.09,20.09,0,0,1,58.8,107.65Z"/><path class="cls-14" d="M49.56,118a22.2,22.2,0,0,0-5.19,3.81,21.52,21.52,0,0,0-6.56,14.08c-.07,1.06-.07,2.12,0,3.2,0,2.14.18,4.33,0,6.55a24.61,24.61,0,0,1-1.4,6.46,26.15,26.15,0,0,1-3,5.87A24.92,24.92,0,0,1,29,162.79a28.11,28.11,0,0,0,3.88-5.16,25.85,25.85,0,0,0,2.6-5.84,27.2,27.2,0,0,0,1.14-6.25c.14-2.11,0-4.26-.07-6.45a25.43,25.43,0,0,1,.58-6.6,20.25,20.25,0,0,1,2.57-6.12,21.38,21.38,0,0,1,4.26-5A20.23,20.23,0,0,1,49.56,118Z"/><path class="cls-14" d="M19,136a13.28,13.28,0,0,1,2,8.68,14.11,14.11,0,0,1-1.21,4.43,16.39,16.39,0,0,1-2.57,3.8,58.26,58.26,0,0,0-5.52,6.87q-1.25,1.82-2.34,3.74a7.69,7.69,0,0,0-.85,2,2.72,2.72,0,0,0,.26,2.1,2.67,2.67,0,0,1-.57-2.15,7.93,7.93,0,0,1,.63-2.2,39.25,39.25,0,0,1,4.59-7.71c.91-1.2,1.93-2.32,2.88-3.42a16.4,16.4,0,0,0,2.47-3.51,14.6,14.6,0,0,0,1.3-4.06A15.05,15.05,0,0,0,19,136Z"/><path class="cls-14" d="M63.39,147.58a16.38,16.38,0,0,0-2.52-3.14,10.72,10.72,0,0,0-3.17-2.24,5.26,5.26,0,0,0-3.62-.19,8.82,8.82,0,0,0-3.24,1.92,21.81,21.81,0,0,0-2.71,2.88A26,26,0,0,0,45.82,150a10.56,10.56,0,0,0-1.58,7.6,8.54,8.54,0,0,1-.52-4.08,12.06,12.06,0,0,1,1.27-4,23,23,0,0,1,2.24-3.49A21.48,21.48,0,0,1,50,143a9.84,9.84,0,0,1,3.73-2.11,6.08,6.08,0,0,1,4.32.44,10.19,10.19,0,0,1,3.22,2.7A13.84,13.84,0,0,1,63.39,147.58Z"/><path class="cls-14" d="M38.59,166.92a10.57,10.57,0,0,0-3.73,5.56,9.87,9.87,0,0,0-.32,3.28,14.39,14.39,0,0,0,.74,3.27,21.75,21.75,0,0,1,.89,3.47,10.64,10.64,0,0,1-.16,3.65,16,16,0,0,1-3.1,6.36A22.65,22.65,0,0,0,35.08,186a11.18,11.18,0,0,0,0-3.32,23,23,0,0,0-.91-3.28,14.34,14.34,0,0,1-.73-3.56A10.11,10.11,0,0,1,34,172.2a10.32,10.32,0,0,1,1.82-3.13A8.72,8.72,0,0,1,38.59,166.92Z"/><path class="cls-14" d="M46.53,173.38a6.5,6.5,0,0,0-.24,4.59,12.29,12.29,0,0,0,2.14,4.1c.94,1.26,2,2.46,3,3.77a25.17,25.17,0,0,1,2.51,4.21A22.53,22.53,0,0,1,56,199.56a13.81,13.81,0,0,1-.79,4.84,6.59,6.59,0,0,1-3.08,3.67,6.78,6.78,0,0,0,2.52-3.86,14.69,14.69,0,0,0,.41-4.63,24.71,24.71,0,0,0-2.29-9,25.55,25.55,0,0,0-2.33-4.06c-.89-1.29-1.93-2.52-2.81-3.89a11.89,11.89,0,0,1-1.95-4.51A6.41,6.41,0,0,1,46.53,173.38Z"/><path class="cls-14" d="M59.76,185.93a4.35,4.35,0,0,1,2.47,1.15,5.22,5.22,0,0,1,1.56,5.23,4.42,4.42,0,0,1-1.45,2.32,7.77,7.77,0,0,0,.25-4.81A7.61,7.61,0,0,0,59.76,185.93Z"/><path class="cls-11" d="M60.47,164.24c2.86.46,5.8,1.13,8.15,2.95,2.09,1.62,4.74,5.28,2.85,8-.64.92.68,2.07,1.32,1.14,1.83-2.64.93-5.93-.91-8.36-2.66-3.5-6.95-4.81-11.11-5.48a.88.88,0,0,0-.3,1.73Z"/></g></svg>