<svg id="Layer_1" data-name="Layer 1" xmlns="http://www.w3.org/2000/svg" xmlns:xlink="http://www.w3.org/1999/xlink" viewBox="0 0 460.41 330.99"><defs><style>.cls-1{fill:none;}.cls-2{clip-path:url(#clip-path);}.cls-3{fill:#263238;}.cls-4{fill:#f2f2f2;}.cls-5{fill:#ff725e;}.cls-6{fill:#a05544;}.cls-7{fill:#fdfbec;}.cls-8{fill:#d07e5d;}.cls-9{fill:#9b4731;}.cls-10{fill:#fff;}.cls-11{fill:#ffbe9d;}.cls-12{fill:#eb996e;}.cls-13{fill:#455a64;}.cls-14{fill:#e8505b;}.cls-15{opacity:0.3;}.cls-16{fill:#ebebeb;}.cls-17{fill:#e97f5b;}</style><clipPath id="clip-path"><path class="cls-1" d="M369.17,331H7.39a85.81,85.81,0,0,1-85.81-85.81h0L-98.26,102.5C-98.26,55.11-64.65,0-17.26,0L437.51,8.3C484.9,8.3,455,197.79,455,245.18h0A85.79,85.79,0,0,1,369.22,331Z"/></clipPath></defs><g class="cls-2"><path class="cls-3" d="M132.55,44.6s11.61-29.07,34.27-29.17c18.76-.09,21.56,11.08,28.53,17.27s15-2,14.86,5.13a9.78,9.78,0,0,1-6.71,9.08s10.46-.22,7.81,7.38S200,59.06,200,59.06s3.46,8.44-1.28,12c-11.59,8.55-17.79-26.45-30-23.24C155.74,51.17,132.55,44.6,132.55,44.6Z"/><path class="cls-3" d="M150.64,26.49s-10.33-7.33-20,2.48-5.9,24.14-3.64,32.86S138.4,85,146.53,85.33,150.64,26.49,150.64,26.49Z"/><path class="cls-4" d="M301.2,245.39a156.32,156.32,0,0,0-10.8,20.23c-.5,1.12-2.13.15-1.64-1a158.8,158.8,0,0,1,10.8-20.23C300.21,243.39,301.85,244.31,301.2,245.39Z"/><path class="cls-4" d="M297.19,250.77A78.85,78.85,0,0,0,286,258c-1,.75-2.3-.59-1.34-1.34a80.52,80.52,0,0,1,11.53-7.55c1.07-.58,2,1.06,1,1.64Z"/><path class="cls-5" d="M84.08,247.52c1.67,39.17-12.68,91.56-3.7,129.67.72,3.06,8.58,5.56,20.65,7.24,1.31.18,2.68.35,4.09.52,16.48,1.89,39.27,2.4,62.28.95l1.93-.12c33.93-2.3,68-8.86,82.79-21.49.48-.4.94-.82,1.38-1.24,3.53-3.41,5.71-7.23,6.17-11.5.43-4,0-9.52-1-16.06-.13-.81-.25-1.63-.39-2.47-.87-5.43-2.06-11.44-3.39-17.74l-.48-2.21c-4.4-20.46-10.15-43.42-11.62-58.62-.12-1.2-.22-2.51-.3-3.92-.2-3.26-.32-7.05-.4-11.22v-2.37c-.11-7.2-.09-15.4-.11-24V210.7h0c0-3.39,0-6.83-.07-10.28,0-2.28,0-4.57-.09-6.85v-2c-.53-26.57-2.46-51.6-9.86-56.93-5.35-3.86-16.25-7.66-26.2-10.58-.6-.18-1.2-.36-1.8-.52-2.92-.84-5.72-1.59-8.23-2.25-6.21-1.62-10.64-2.59-10.64-2.59s-15.12-17.75-43,0a69.32,69.32,0,0,1-16.51,7.57c-11.9,3.8-23.37,4.81-32.76,8.92-.67.29-1.33.6-2,.93C83.52,139.8,77.64,145.75,74,157c-4.4,13.77-2.46,25.55.88,39.39,3,12.48,7.18,26.64,8.83,45.46C83.87,243.75,84,245.62,84.08,247.52Z"/><path class="cls-6" d="M84.93,260a240.78,240.78,0,0,0-.42-24.77C84,228.1,83,221,82,214c-.71-4.65-1.46-9.3-2.2-13.95-.15-1-1.59-.55-1.44.4,2.34,14.85,4.79,29.65,5.17,44.71.12,5,.07,9.91-.07,14.86a.75.75,0,0,0,1.5,0Z"/><path class="cls-4" d="M218.73,178.88a61.13,61.13,0,0,0,23.09,14.72v-2a58.91,58.91,0,0,1-6.1-2.66,57.06,57.06,0,0,1-28.62-32.62,59.17,59.17,0,0,1-1.34-32.23c-.6-.18-1.2-.36-1.8-.52a60.83,60.83,0,0,0-1.65,12.16A58.7,58.7,0,0,0,218.73,178.88Z"/><path class="cls-4" d="M90.79,136.17c9.78,6.29,21.14,10.17,32.88,9.47,12.16-.72,24.1-6,31.32-16.1.7-1-.92-1.91-1.62-.94a35.58,35.58,0,0,1-15.8,12.11c-11.44,4.56-24.16,3.92-35.46-.69a60.79,60.79,0,0,1-9.33-4.78C92.11,135.53,91.45,135.84,90.79,136.17Z"/><path class="cls-4" d="M99,260.18c11.12,3.07,23.9,1.74,34.43-2.84a33.41,33.41,0,0,0,12.1-8.69c4.24-5,7.32-10.73,10.78-16.23a63.15,63.15,0,0,1,27.55-24.26c18.94-8.52,41.07-6.28,58.12,4.81v-2.24h0a63.82,63.82,0,0,0-24.48-9c-24.27-3.6-48.63,8-61.92,28.44-3.74,5.76-6.87,12-11.36,17.21a32.6,32.6,0,0,1-12.88,8.87c-9.86,3.9-21.55,5-31.84,2.18a.92.92,0,0,0-1,.86A.91.91,0,0,0,99,260.18Z"/><path class="cls-4" d="M96.41,281.79a112.56,112.56,0,0,1,32-10.14c9-1.33,20.46.06,24.5,9.6,3.77,8.88-.45,19.44-5.7,26.78-5.83,8.18-13.87,14.65-22.06,20.34-10.13,7.05-21,12.84-31.93,18.62-1.06.56-2-1.05-.94-1.62,17.24-9.15,35.64-18.49,49-33.06,6.1-6.62,11.42-15.3,11.08-24.63a14.06,14.06,0,0,0-6.56-11.8c-4.15-2.58-9.1-3.14-13.89-2.77a84.18,84.18,0,0,0-17.82,3.78,118,118,0,0,0-16.73,6.52c-1.08.51-2-1.1-.94-1.62Z"/><path class="cls-4" d="M93.11,185.37a96.2,96.2,0,0,1,49.18-21.09c5.15-.63,10.6-.92,15.59.75a14.27,14.27,0,0,1,9.64,9.88c1.41,5.51-.26,11.19-3.22,15.89A60.62,60.62,0,0,1,152.38,204a102.07,102.07,0,0,1-14,10c-11.44,6.92-23.87,12-36.23,17-1.11.46-1.6-1.35-.5-1.8,20.24-8.17,41.52-16.86,56.45-33.43,3.81-4.24,7.43-9.29,8-15.14.47-5.32-1.73-10.38-6.58-12.88-4.31-2.21-9.5-2.29-14.22-1.89a90.32,90.32,0,0,0-16.7,3.1,94.65,94.65,0,0,0-34.17,17.76c-.93.75-2.26-.56-1.32-1.32Z"/><path class="cls-4" d="M207.71,288a192.85,192.85,0,0,0,38.37,23.43c2.74,1.25,5.72,2.64,8.85,3.9l-.48-2.21c-4.64-1.87-9.19-4.06-13.62-6.29A190.86,190.86,0,0,1,206,284.22c-10-8.17-21.45-20.35-17.22-34.5,3.44-11.49,15.84-18.06,27.17-18.67a39.18,39.18,0,0,1,26.15,8.26v-2.37a40.93,40.93,0,0,0-31.16-7.16c-11.58,2.15-23.19,10.73-24.67,23.1C184.45,268,196.94,279.5,207.71,288Z"/><path class="cls-4" d="M101,384.43c1.31.18,2.68.35,4.09.52a92.49,92.49,0,0,0,14.22-6.84,91.25,91.25,0,0,0,17.42-13.31c5.74-5.6,10.63-12,15.53-18.29,9.21-11.91,19.26-24.65,33.77-30.24,7.95-3.06,16.3-3,24.56-1.36a128.49,128.49,0,0,1,23.07,7.27,146.83,146.83,0,0,1,25,13.31c-.13-.81-.25-1.63-.39-2.47a148.61,148.61,0,0,0-28.11-14.21,108.17,108.17,0,0,0-23.9-6.51,42.27,42.27,0,0,0-22.79,3c-14.29,6.27-24.11,19-33.4,31-4.92,6.35-9.91,12.71-15.77,18.24A89.53,89.53,0,0,1,115.76,378,92.07,92.07,0,0,1,101,384.43Z"/><path class="cls-7" d="M125.54,126.32c7.45,9.46,27,21.19,43.93,19.44,23.57-2.43,30.06-15,26.22-24.42-6.21-1.61-10.64-2.59-10.64-2.59s-15.12-17.75-43,0A69.32,69.32,0,0,1,125.54,126.32Z"/><path class="cls-8" d="M142.55,126.62s25.25,20.91,45.34,0l-6.14-16.94L177.7,98.46l-2.83-7.82-32.65-3.32C144.77,102,144.67,115,142.55,126.62Z"/><path class="cls-3" d="M150.64,98.73c15.6,16.12,28.57,17.2,32.65,15.17L177.7,98.46Z"/><path class="cls-8" d="M138.09,78.73a31.41,31.41,0,0,0,.77,3.59,23.29,23.29,0,0,0,3.3,7,74,74,0,0,0,8.48,9.55c5.91,6,14.47,7.34,22.41,6.26,21.1-2.86,21-17.51,16.28-39-3-13.33-.18-21.33-4.27-26.11h0l-.78-.61a30.66,30.66,0,0,0-22.1-5.86c-1.52.18-3,.4-4.33.65a4.16,4.16,0,0,0-.92.18l-.38.08c-.35.06-.69.14-1,.22l-.72.17c-.55.13-1.08.27-1.6.41C136.68,39.9,133.91,50.75,134.72,61,135.23,67.88,137.44,74.53,138.09,78.73Z"/><path class="cls-3" d="M146.35,34.64s8.22-4.34,11.15-1.43.13,11.48,6.46,12.58c5.93,1,6.5-5.34,11.34-3.66,3.37,1.17,1.68,6.21,5.08,9.19,3.74,3.26,6.37-3.55,10.06,9.88,1.77,6.44,9.28-3.83,4.52-15.26S169.86,15.54,146.35,34.64Z"/><path class="cls-3" d="M169.46,66.39a1.62,1.62,0,1,1-1.63-2C168.67,64.33,169.41,65.24,169.46,66.39Z"/><path class="cls-3" d="M183.28,64.77a1.63,1.63,0,1,1-1.65-2C182.49,62.71,183.23,63.62,183.28,64.77Z"/><path class="cls-9" d="M160,73.73c.18,1.15,2.13,1.81,4.34,1.46s3.86-1.55,3.68-2.71-2.12-1.81-4.33-1.46S159.78,72.58,160,73.73Z"/><path class="cls-9" d="M190.44,71.51a5.88,5.88,0,0,1-3,1.3c-2.21.34-4.15-.31-4.33-1.47s1.47-2.36,3.68-2.71a6.17,6.17,0,0,1,3.16.26Z"/><path class="cls-3" d="M169.12,60.13c-1.23-.9-3.23-1.34-4.29.09a2.07,2.07,0,0,1-2.75.71,2,2,0,0,1-.72-2.74h0a7,7,0,0,1,9.78-1.52h0a2.07,2.07,0,0,1,.71,2.75,2,2,0,0,1-2.74.72Z"/><path class="cls-3" d="M185.05,58.77a3.83,3.83,0,0,0-4.48.06c-2.13,1.48-4.48-1.78-2.35-3.26a7.77,7.77,0,0,1,8.5-.45C189,56.39,187.3,60.05,185.05,58.77Z"/><path class="cls-3" d="M146.56,83.48a11.76,11.76,0,0,1-7.7-1.16,23.29,23.29,0,0,0,3.3,7A11.79,11.79,0,0,0,146.56,83.48Z"/><path class="cls-3" d="M155.07,72.06c-3.92,3.12-7-11-15.69-12a7.21,7.21,0,0,0-4.7.88c.55,7,2.76,13.6,3.41,17.8a29.86,29.86,0,0,0,.75,3.5c-4.57-8.21-9.78-17.92-11.2-22.14a14.52,14.52,0,0,1-.61-2.44c.16-.25.33-.49.5-.72a16.07,16.07,0,0,1,2.61-2.73,21.14,21.14,0,0,1,5.2-3.07c6.17-2.61,12.65-3,18-2.93C152.74,54.58,158.27,69.5,155.07,72.06Z"/><path class="cls-3" d="M159.94,38.47s-5.51,3-6.34,7.79a28.94,28.94,0,0,0,.13,9.47s-15.79,2.26-19.17.6-3.17-12.44-3.17-12.44S152.46,30,158.58,32.24,159.94,38.47,159.94,38.47Z"/><path class="cls-10" d="M183.64,77.73s-5,.23-14.84.74c0,0,2.25,10.32,9.3,9.18C184.08,86.69,183.64,77.73,183.64,77.73Z"/><path class="cls-9" d="M179.76,91.57a4.42,4.42,0,0,1-4.67,0c-.74-.51.08-1.63.83-1.13a3.07,3.07,0,0,0,3.26-.18c.8-.41,1.37.87.58,1.28Z"/><path class="cls-8" d="M152.42,77.23a11.8,11.8,0,0,0-3-9.84c-3.13-3.47-8.73-8.68-13.1-7.37-6.43,1.94-6.3,7.92-4.72,13.79s6.7,13.08,14.71,10.54A8.54,8.54,0,0,0,152.42,77.23Z"/><path class="cls-3" d="M144.43,77.39A15.5,15.5,0,0,0,142.81,70c-1.16-2-4-4.74-6.65-3.41-.87.44-1.72-.84-.84-1.29,2.51-1.28,5.28-.12,7.17,1.77,2.74,2.73,3.38,6.61,3.47,10.31a.79.79,0,0,1-.82.72.78.78,0,0,1-.71-.66Z"/><path class="cls-3" d="M176.3,71.28a2.29,2.29,0,0,0,2.08-4.08,2.35,2.35,0,0,0-.56-.2c-.61-.17-.94.07-1.48,0-.86-.11-1.14-1.09-1.3-2a7.9,7.9,0,0,1,.92-.35c.12.61.3,1.23.65,1.39s1.29,0,1.86.21a3.22,3.22,0,0,1,1.91,2.31,3.27,3.27,0,0,1-4.33,3.69C175.47,72,175.71,71.1,176.3,71.28Z"/><path class="cls-4" d="M92.81,181.87c8.85,21.81,9.76,45.73,8.1,68.93-1.75,24.6-6.42,48.91-7.41,73.57-.57,14.16.12,28.41,3.27,42.27.27,1.19-1.56,1.7-1.83.5-5.55-24.44-3.52-49.63-.57-74.28,2.84-23.8,6.5-47.71,5-71.75A123.26,123.26,0,0,0,91,182.37c-.45-1.13,1.38-1.62,1.84-.5Z"/><path class="cls-3" d="M387.84,57.44c.11-4-3.58-7.07-7.28-8.53s-7.84-2-11.14-4.23c-2.93-2-4.9-5-7.38-7.56a24.55,24.55,0,0,0-41.27,11.26c-1.42,5.67-.45,12.38,4,16.15,5.19,4.38,12.88,3.41,19.54,2s14.18-2.71,19.73,1.2c3.35,2.36,5.27,6.19,7.32,9.73S376,84.68,379.88,86s9.13-1,9.28-5.07"/><path class="cls-3" d="M387.57,59.62c-.44,3.34,2,6.33,4.38,8.69s5.13,4.86,5.55,8.2c.5,3.91-2.35,7.75-1.53,11.6.53,2.44,2.43,4.32,3.58,6.54a13.87,13.87,0,0,1,.71,10.24c-1,3.36-2.57,10.87-4.91,13.48A54,54,0,0,1,369.14,134c-9.46,2.17-19.27,2.19-28.95,1.59-7.93-.49-17-.12-23.64-11-3.42-5.65-5.12-13.16-6.94-19.5-1.56-5.47-2.91-11.32-1.29-16.77.95-3.17,2.86-6,3.79-9.17,1.17-4,.75-8.21,1.22-12.32A28.28,28.28,0,0,1,353.56,44.5"/><path class="cls-11" d="M317.12,73.32C317.86,62,325.43,48,336.76,49.23l35.36,9A6.67,6.67,0,0,1,378.07,65l-4,85.32.24.06s-8.06,24.06-31.44,16.71c-4.64-1.46-6.76-6.53-7.68-11.75H335v-1.78a56,56,0,0,1-.14-11.72h0c-.07-6.89-.06-9.72-.06-9.65s-14.53-2.45-17.5-21.41C315.79,101.41,316.29,86,317.12,73.32Z"/><path class="cls-3" d="M322.81,84.74a2.43,2.43,0,0,0,2.34,2.46,2.31,2.31,0,0,0,2.5-2.1.34.34,0,0,0,0-.1,2.4,2.4,0,0,0-2.33-2.45,2.34,2.34,0,0,0-2.52,2.13Z"/><path class="cls-3" d="M320.45,81.37c.3.31,2.15-1,4.77-1s4.53,1.32,4.81,1c.14-.14-.17-.71-1-1.32a6.62,6.62,0,0,0-3.85-1.2A6.35,6.35,0,0,0,321.39,80C320.58,80.65,320.31,81.22,320.45,81.37Z"/><path class="cls-3" d="M348.53,84.74a2.43,2.43,0,0,0,2.34,2.46,2.31,2.31,0,0,0,2.5-2.12.22.22,0,0,0,0-.08A2.42,2.42,0,0,0,351,82.56a2.32,2.32,0,0,0-2.47,2.16Z"/><path class="cls-3" d="M346.17,81.91c.3.32,2.15-1,4.76-1s4.53,1.33,4.82,1c.14-.14-.17-.72-1-1.33a6.72,6.72,0,0,0-3.86-1.19,6.36,6.36,0,0,0-3.79,1.21C346.3,81.2,346,81.77,346.17,81.91Z"/><path class="cls-3" d="M336.63,101.29c0-.15-1.61-.43-4.25-.77-.66-.07-1.3-.21-1.41-.66a3.49,3.49,0,0,1,.45-2c.63-1.62,1.3-3.31,2-5.09,2.76-7.23,4.76-13.18,4.47-13.29s-2.77,5.67-5.53,12.9c-.66,1.79-1.3,3.49-1.9,5.12a3.84,3.84,0,0,0-.36,2.62,1.69,1.69,0,0,0,1.1,1,4.81,4.81,0,0,0,1.13.16C335,101.43,336.62,101.44,336.63,101.29Z"/><path class="cls-12" d="M334.76,132.25a48.13,48.13,0,0,0,25.4-6.72s-6.41,13.11-25.38,11.3Z"/><path class="cls-12" d="M337.72,107.6a4.71,4.71,0,0,1,4.23-1.74,4.22,4.22,0,0,1,3,1.6,2.71,2.71,0,0,1,.2,3.12,3.16,3.16,0,0,1-3.43.86,10,10,0,0,1-3.34-2,3.05,3.05,0,0,1-.74-.78.87.87,0,0,1,0-1"/><path class="cls-3" d="M344.33,103.12c-.43,0-.44,2.81-2.88,4.82S336,109.64,336,110c0,.18.68.56,1.95.59A7,7,0,0,0,342.5,109a6.16,6.16,0,0,0,2.23-4C344.84,103.81,344.52,103.1,344.33,103.12Z"/><path class="cls-3" d="M345,77.33c.26.71,2.87.38,5.94.76s5.55,1.21,6,.58c.18-.31-.25-1-1.25-1.67a9.82,9.82,0,0,0-4.41-1.55,10,10,0,0,0-4.65.53C345.46,76.43,344.89,77,345,77.33Z"/><path class="cls-3" d="M321.43,73.8c.46.59,2.26,0,4.43,0s4,.41,4.43-.21c.18-.3-.1-.89-.9-1.46a6.14,6.14,0,0,0-3.6-1,6,6,0,0,0-3.54,1.19C321.48,72.89,321.23,73.51,321.43,73.8Z"/><path class="cls-3" d="M385.36,120.63a16.83,16.83,0,0,1-20-18.62c.59-4.66,3.1-9.39,1.49-13.8-2.14-5.83-10.3-7.62-12.47-13.43-1.26-3.38-.13-7.34-1.56-10.65-1.34-3.11-4.62-4.9-7.81-6.06s-6.6-2-9.28-4-4.35-6-2.62-8.93a180.24,180.24,0,0,1,41.39,10c3.1,1.16,6.35,2.54,8.18,5.29,1.93,2.91,1.84,6.67,1.68,10.16q-1.2,25.55-2.39,51.07"/><path class="cls-13" d="M384.17,127.14s.11,0,.31-.19l.84-.64c.73-.58,1.81-1.43,3.14-2.61a32.45,32.45,0,0,0,4.46-4.69,17.35,17.35,0,0,0,3.54-7.8,11.87,11.87,0,0,0-2.44-10,38.67,38.67,0,0,0-4.42-3.76,10.22,10.22,0,0,1-3.44-4.7c-1.41-3.87-.78-8.34-1.32-12.91a25.75,25.75,0,0,0-5.38-13.07,17.83,17.83,0,0,0-5.62-4.59A34.32,34.32,0,0,0,367.21,60a15.45,15.45,0,0,1-5.83-2.87,23.1,23.1,0,0,1-4.22-4.66c-2.38-3.38-4.14-7-6.41-10a21.5,21.5,0,0,0-3.74-4,14.15,14.15,0,0,0-4.43-2.41,9.46,9.46,0,0,0-8.42.84,7.79,7.79,0,0,0-3,5.68,5.63,5.63,0,0,0,1.14,3.9,3.22,3.22,0,0,0,.78.74c.19.15.29.21.3.2s-.08-.1-.25-.26a4.28,4.28,0,0,1-.69-.78,5.57,5.57,0,0,1-.95-3.78,7.41,7.41,0,0,1,2.93-5.32,9,9,0,0,1,8-.66A13.94,13.94,0,0,1,346.61,39a21.26,21.26,0,0,1,3.58,3.88c2.2,3,3.93,6.55,6.34,10a23.3,23.3,0,0,0,4.35,4.84,16.27,16.27,0,0,0,6.1,3,33.67,33.67,0,0,1,6.48,2.2,17.08,17.08,0,0,1,5.36,4.38A25.18,25.18,0,0,1,384,80c.55,4.42-.09,9,1.4,13.07a11,11,0,0,0,3.7,5,37.4,37.4,0,0,1,4.37,3.67,11.26,11.26,0,0,1,2.38,9.42,17.11,17.11,0,0,1-3.34,7.61,33.82,33.82,0,0,1-4.3,4.73c-1.29,1.21-2.33,2.1-3,2.72A9.12,9.12,0,0,0,384.17,127.14Z"/><path class="cls-3" d="M387.63,129.5c3.9-3.77,10.56-.5,13.83,3.83S407,143.22,412,145.39s11.42.31,15.59,3.77c5.75,4.77,2.52,15.83,8.73,20,2.47,1.65,5.72,1.59,8.36,3,6.21,3.2,6.13,12,5.17,18.89-1.34,9.71-2.82,19.78-8.18,28s-15.8,14-25.08,10.82c-8.92-3.05-13.5-12.67-17.12-21.37l-15.06-36.11c-2.91-7-5.84-14-6.78-21.51s.32-15.57,5.08-21.42"/><path class="cls-14" d="M390.13,121.19c2.83-.34,5,3.13,4.25,5.89s-3.39,4.59-6.08,5.53a9,9,0,0,1-4.7.54,4.63,4.63,0,0,1-3.56-2.86,2.7,2.7,0,0,1,1.3-3.56c1.86-1.16,3-2.08,4.43-2.89,2.25-1.24,2.11-1.4,4.36-2.65"/><polygon class="cls-14" points="324.97 151.7 335.97 143.37 377.42 140.72 379.08 146.28 365.6 230.4 376.24 330.76 318.42 330.76 324.97 151.7"/><g class="cls-15"><path d="M369.35,295.15c-1.32-1.41-3.49-3.35-5.43-3.39-13.84-.31-28-1.69-41.82-2l-1.11,41c3.31-5.84,6.44-11.92,7.32-18.57.38-2.91.87-6.38,3.52-7.63a8,8,0,0,1,4.89-.11c5,1,10,2.28,15,2.6s10.41-.42,14.69-3.2a9,9,0,0,0,3.51-3.8A4.66,4.66,0,0,0,369.35,295.15Z"/></g><path class="cls-14" d="M333.94,153.4l-1.28-12a3.8,3.8,0,0,1,3.36-4.19h.08l38.16-3.45a1.8,1.8,0,0,1,2,1.59.76.76,0,0,1,0,.15l.43,14.31-11,18.75-11.35,3.61h-14l-8-8.53Z"/><path class="cls-3" d="M371,145.18l-1.53-.16a27.5,27.5,0,0,0-4.16-.07,40.57,40.57,0,0,0-6.1.88c-2.28.48-4.76,1.15-7.38,1.79a48,48,0,0,1-7.52,1.34,19.43,19.43,0,0,1-6.22-.42,13.42,13.42,0,0,1-3.89-1.62,9.93,9.93,0,0,1-.93-.67c-.2-.17-.3-.26-.29-.28s.46.31,1.32.79a14.07,14.07,0,0,0,3.86,1.45,20,20,0,0,0,6.12.31,51.93,51.93,0,0,0,7.43-1.36c2.62-.64,5.11-1.3,7.41-1.76a37.84,37.84,0,0,1,6.18-.78,22.6,22.6,0,0,1,4.19.22c.49.08.87.15,1.13.22A1.29,1.29,0,0,1,371,145.18Z"/><g class="cls-15"><path d="M334.85,147.07c-1,2.81-1.05,6.29,1,8.44a7.48,7.48,0,0,0,6.79,1.72,21.7,21.7,0,0,0,6.63-3c5.25-3.13,10.59-6.36,16.56-7.69a2,2,0,0,0,1.07-.45.7.7,0,0,0,0-1h0a1,1,0,0,0-.49-.14c-5.28-.53-10.52,1-15.69,2.12s-10.7,2-15.69.19"/></g><path class="cls-3" d="M342.14,136.78a3.35,3.35,0,0,0-1.31,1.25c-.6,1-.57,2.61-.52,4.38.1,3.56.68,6.41.54,6.44a6.45,6.45,0,0,1-.51-1.84,29.32,29.32,0,0,1-.51-4.58,21.71,21.71,0,0,1,.05-2.55,4.6,4.6,0,0,1,.66-2,2.81,2.81,0,0,1,1.08-1C341.93,136.75,342.13,136.75,342.14,136.78Z"/><path class="cls-3" d="M352.22,147.24a56.55,56.55,0,0,0-.28-5.82,55.59,55.59,0,0,0-1.35-5.67,5.32,5.32,0,0,1,.78,1.54,19.91,19.91,0,0,1,1.13,8.24A5.24,5.24,0,0,1,352.22,147.24Z"/><path class="cls-3" d="M364.5,134.74a3.73,3.73,0,0,1,.73,1.41,9.91,9.91,0,0,1,.49,3.82,9.62,9.62,0,0,1-1,3.71,3.7,3.7,0,0,1-.9,1.31,16.14,16.14,0,0,0,1.43-5.05A16.09,16.09,0,0,0,364.5,134.74Z"/><path class="cls-16" d="M311,157.11s-13,8.71-16.43,24.45c-2.68,12.36-10,77.69-10,77.69l-12.89,25.09,8.41,20h0a30.71,30.71,0,0,0,20.22-5.78l5.66-4.1,10.38-15.41Z"/><polygon class="cls-16" points="333.06 145.58 311.01 157.11 305.8 174.21 301.16 223.78 309.89 281.89 294.58 330.58 320.99 330.78 321.62 302.24 324.25 209.85 326.84 151 333.06 145.58"/><path class="cls-3" d="M322.38,222.59a4,4,0,0,1-.41-.69l-1.1-2c-.45-.89-.9-2-1.47-3.33-.27-.66-.49-1.39-.77-2.14a24,24,0,0,1-.77-2.43c-2.08-6.85-3.45-16.74-3.17-27.64,0-.84.07-1.68.12-2.51v-.15l.14,0,3.86-1.62-.06.4-3.85-3.1-.08-.07v-.09a33.43,33.43,0,0,1,1.76-11,81.47,81.47,0,0,1,3-8.29c1-2.29,1.75-4.07,2.33-5.28.29-.61.52-1.07.68-1.38a3.1,3.1,0,0,1,.26-.47,2.34,2.34,0,0,1-.19.5c-.16.36-.36.82-.61,1.41-.54,1.23-1.31,3-2.2,5.33s-1.92,5.07-2.86,8.29a33.51,33.51,0,0,0-1.67,10.88l-.09-.16,3.87,3.09.3.24-.36.16-3.86,1.63.15-.21c-.06.82-.09,1.66-.12,2.49-.29,10.86,1,20.71,3,27.53.21.87.49,1.67.74,2.43s.47,1.48.73,2.14c.55,1.3,1,2.45,1.39,3.35l1,2A6.81,6.81,0,0,1,322.38,222.59Z"/><path class="cls-3" d="M305.08,257.3a4.29,4.29,0,0,1-.22-.72c-.13-.52-.3-1.21-.52-2.08s-.49-2-.74-3.31-.59-2.77-.85-4.41-.6-3.44-.85-5.38-.49-4-.73-6.21c-.39-4.39-.66-9.23-.66-14.31s.3-9.93.72-14.32c.24-2.18.45-4.27.75-6.2s.57-3.74.86-5.38.61-3.11.87-4.41.53-2.4.76-3.31.4-1.56.53-2.07a4.56,4.56,0,0,1,.21-.72,3.09,3.09,0,0,1-.12.74c-.11.52-.26,1.22-.44,2.09s-.44,2-.68,3.32-.55,2.77-.8,4.42-.56,3.43-.8,5.37-.48,4-.71,6.2c-.38,4.37-.65,9.2-.68,14.27s.26,9.89.63,14.27c.22,2.18.41,4.26.68,6.19s.52,3.74.79,5.38.54,3.12.78,4.42.46,2.41.66,3.32.33,1.57.44,2.1A4.57,4.57,0,0,1,305.08,257.3Z"/><path class="cls-3" d="M311,301.92a10.57,10.57,0,0,1-1.07,2.22,36.63,36.63,0,0,1-7.51,9.17,9.34,9.34,0,0,1-2,1.48,18.94,18.94,0,0,1,1.74-1.73,52.86,52.86,0,0,0,4-4.33,52.17,52.17,0,0,0,3.46-4.77A17.39,17.39,0,0,1,311,301.92Z"/><path class="cls-16" d="M412.37,155.7A30.38,30.38,0,0,1,431,177.28c7.21,31.81,19.55,74.1,19.75,87.75.24,17.38-7.36,29.28-17.28,31.47-7.84,1.74-79-2.16-79-2.16l-3.33-26.49,57.59-8.48-7.88-44.06,7.8-61Z"/><path class="cls-16" d="M408.71,154.28l-15.92-6.51L376,137.94l-.1,2.87h0a16.93,16.93,0,0,1,2,11.67l-14,72.88,3.17,53.24,6.5,52.18H424.1l-23.19-54.57,8.18-73.53Z"/><path class="cls-3" d="M423.46,297l-.34.05-1,.09c-.9.1-2.22.09-3.94.14-3.42,0-8.4-.08-14.59-.28-12.37-.41-29.6-1.24-49-2.37h-.2v-.2c-.39-3.15-.81-6.48-1.24-9.86-.71-5.72-1.41-11.29-2.08-16.63v-.23h.23l44-6.4,12.91-1.83,3.47-.47.9-.11h.3l-.3.06-.89.15-3.46.55-12.89,2-44,6.56.19-.26c.68,5.34,1.38,10.91,2.1,16.63.42,3.38.84,6.71,1.23,9.87l-.22-.21c19.45,1.14,36.68,2,49,2.52,6.18.25,11.15.39,14.57.42,1.71,0,3,0,3.93-.05l1-.05Z"/><path class="cls-3" d="M400.44,210.86a2.09,2.09,0,0,1,.13.49c.07.37.16.84.28,1.41.23,1.29.56,3.05.95,5.2.78,4.46,1.83,10.51,3,17.2s2.13,12.75,2.87,17.22c.34,2.16.62,3.93.82,5.23.08.58.15,1.05.2,1.43a.25.25,0,1,1-.13,0c-.08-.37-.18-.84-.29-1.41l-1-5.2c-.79-4.4-1.86-10.48-3-17.2s-2.15-12.81-2.85-17.22c-.34-2.16-.61-3.93-.81-5.23-.07-.58-.14-1-.19-1.43A2.79,2.79,0,0,1,400.44,210.86Z"/><path class="cls-3" d="M383.32,143.07a.67.67,0,0,1,.07.18l.15.53c.11.47.32,1.16.51,2.07a64.83,64.83,0,0,1,1.21,7.84,89,89,0,0,1,.3,12c-.15,4.55-.63,9.58-1.32,14.91v.17h-.17l-5.21,1,.18-.32a25.34,25.34,0,0,1,.84,2.55,32.46,32.46,0,0,1-.59,17.67,55.57,55.57,0,0,1-6.12,13.17c-2.17,3.53-4.13,6.24-5.48,8.11l-1.58,2.14-.42.55c-.1.13-.15.19-.16.18s0-.07.12-.2.22-.35.38-.58l1.51-2.19c1.3-1.91,3.22-4.65,5.35-8.18a56.68,56.68,0,0,0,6-13.13,32.19,32.19,0,0,0,.55-17.41c-.23-.87-.53-1.72-.82-2.5l-.1-.27h.28l5.2-1-.19.2c.7-5.32,1.2-10.34,1.38-14.87a91.19,91.19,0,0,0-.2-11.92,71.17,71.17,0,0,0-1.07-7.83c-.16-.92-.34-1.61-.43-2.09a2.27,2.27,0,0,0-.1-.54A1.09,1.09,0,0,1,383.32,143.07Z"/><path class="cls-14" d="M383.32,217.82V206.19s.15-2.87-2.26-2.26-2,5.13-2,5.13-.46,17.67.6,17.52,1.46-1.51,1.46-1.51v-6.8Z"/><path class="cls-3" d="M393.37,218.54a80.85,80.85,0,0,1-12.45,0A80.85,80.85,0,0,1,393.37,218.54Z"/><path class="cls-3" d="M416.38,162.59a7.65,7.65,0,0,1-1.31.49,32.92,32.92,0,0,0-3.45,1.49,27,27,0,0,0-9.35,8,19.55,19.55,0,0,0-1.83,3,18.54,18.54,0,0,0-1.11,3.08,32,32,0,0,0-.93,5.49c-.13,1.59-.16,2.88-.17,3.77a10.75,10.75,0,0,1,0,1.39,6.5,6.5,0,0,1-.15-1.39,34.23,34.23,0,0,1,0-3.79,29.26,29.26,0,0,1,.84-5.59,18.77,18.77,0,0,1,1.1-3.16,19.82,19.82,0,0,1,1.88-3.08,25.87,25.87,0,0,1,9.58-8A23.2,23.2,0,0,1,415,162.9,7.25,7.25,0,0,1,416.38,162.59Z"/><polygon class="cls-3" points="211.38 259.25 294.58 290.06 364.72 300.79 281.33 260.13 211.38 259.25"/><path class="cls-11" d="M247,292.48a35.38,35.38,0,0,0-4.43-12.61,9.52,9.52,0,0,1-1.14-2.36,2.75,2.75,0,0,1,.47-2.49c1.07-1.16,3-.64,4.34.23a15.34,15.34,0,0,1,5.6,7.85,45,45,0,0,1,1.83,9.62"/><path class="cls-11" d="M279.42,284.56h-4.14a8,8,0,0,0-3.63-2.09,2.89,2.89,0,0,0-2.74,1.07c1.85-3.05,3.85-6.4,4.23-7.32.74-1.79-.89-3.13-3.57-3.13s-14.45,16.68-14.45,16.68,7.31-13.42,8-15.47c1.77-5.12-3.83-5.5-5.86-3-2.53,3.07-12.73,18.5-12.73,18.5s-1.94,3.12-.6,6.1,5.22,1.79,5.22,1.79a5,5,0,0,0,2.73,4.14c3,1.66,6.92-.27,6.92-.27L274,305l5.51-.56a16.88,16.88,0,0,0,15-14.33h0Z"/><path class="cls-12" d="M269.16,283.31c.17.1-1.85,3.29-4.48,7.11-1.32,1.91-2.54,3.62-3.44,4.84a11.45,11.45,0,0,1-1.54,1.93,13.83,13.83,0,0,1,1.27-2.12c.83-1.27,2-3,3.31-4.92s2.53-3.63,3.41-4.87l1.06-1.46A2.55,2.55,0,0,1,269.16,283.31Z"/><path class="cls-12" d="M268.25,300.28a14.6,14.6,0,0,1,1.35-2.49c.9-1.5,2.18-3.54,3.59-5.8.7-1.14,1.37-2.21,1.93-3.21a3.72,3.72,0,0,0,.33-2.83,6.92,6.92,0,0,0-1.3-2.42,2.26,2.26,0,0,1,.59.5,4.75,4.75,0,0,1,1,1.83,4,4,0,0,1-.27,3.12c-.55,1-1.21,2.12-1.92,3.26-1.41,2.26-2.74,4.28-3.71,5.73A20.55,20.55,0,0,1,268.25,300.28Z"/><path class="cls-12" d="M276.25,301.8a8.7,8.7,0,0,1,.81-2.38c.33-.75.7-1.58,1.09-2.48a20.86,20.86,0,0,0,1.12-3.07,3.59,3.59,0,0,0-.49-3,2.81,2.81,0,0,0-1.08-.78,3,3,0,0,0-1.14-.31,4.52,4.52,0,0,0-1.64.57c-.38.19-.61.28-.62.25s.17-.17.53-.41a6.82,6.82,0,0,1,.68-.41,2.45,2.45,0,0,1,1.05-.34,3.24,3.24,0,0,1,1.3.29,3.45,3.45,0,0,1,1.27.86,4,4,0,0,1,.6,3.36,17.74,17.74,0,0,1-1.18,3.14c-.43.93-.84,1.75-1.18,2.45A23.73,23.73,0,0,1,276.25,301.8Z"/><path class="cls-12" d="M279.05,287.4a1.69,1.69,0,0,1,.65.19,7.48,7.48,0,0,1,1.59.94,8.66,8.66,0,0,1,2.46,11,7,7,0,0,1-1,1.52c-.29.32-.48.47-.5.45a23.49,23.49,0,0,0,1.24-2.12,8.82,8.82,0,0,0-2.37-10.62C279.92,287.82,279,287.48,279.05,287.4Z"/><path class="cls-12" d="M252.26,278.65a45.42,45.42,0,0,1-3.45,5.51,43.85,43.85,0,0,1-3.84,5.25,45.42,45.42,0,0,1,3.45-5.51A43.85,43.85,0,0,1,252.26,278.65Z"/><path class="cls-11" d="M351,268.84l-9.51-2.15-9.13-8.61a6.54,6.54,0,0,0-4.08-1.75l-16.62-1a6.52,6.52,0,0,0-4.56,1.52l-11.88,10L347,292.21l7.11.62Z"/><path class="cls-12" d="M322.78,264.4a31.27,31.27,0,0,1-3.21-.4,13.9,13.9,0,0,0-7.52.78,18.81,18.81,0,0,0-3.59,2.25c-1,.78-2,1.52-2.83,2.08a15,15,0,0,1-2.05,1.19,2.76,2.76,0,0,1-.83.3c0-.07,1.1-.57,2.69-1.77.79-.59,1.71-1.34,2.75-2.15a18.17,18.17,0,0,1,3.66-2.33,10.76,10.76,0,0,1,4.25-1,18.85,18.85,0,0,1,3.52.27c1,.16,1.78.34,2.32.47A3.69,3.69,0,0,1,322.78,264.4Z"/><path class="cls-12" d="M326.18,273.66c0,.07-.68-.22-1.79-.34a9.56,9.56,0,0,0-4.27.59,21.6,21.6,0,0,0-3.92,2,7.13,7.13,0,0,1-1.62.9,7.43,7.43,0,0,1,1.44-1.18,16.39,16.39,0,0,1,3.93-2.17,8.82,8.82,0,0,1,4.49-.49A3.58,3.58,0,0,1,326.18,273.66Z"/><path class="cls-12" d="M347.58,275.19a49.69,49.69,0,0,1-3.22-4.27c-1.76-2.37-3.28-4.22-3.18-4.31A32.05,32.05,0,0,1,347.58,275.19Z"/><path class="cls-14" d="M321.4,256.36l21.08-19.63a2,2,0,0,0,.12-2.83,1.55,1.55,0,0,0-.27-.24h0a2,2,0,0,0-2.57.1l-24.71,22.16"/><g class="cls-15"><path d="M321.4,256.36l21.08-19.63a2,2,0,0,0,.12-2.83,1.55,1.55,0,0,0-.27-.24h0a2,2,0,0,0-2.57.1l-24.71,22.16"/></g><path class="cls-5" d="M92.07,134.79S9.88,201.33,3.25,241.71s30.27,101.43,63.64,98.23,28.93-42.39,21.76-50.65-29.85-26-26.8-37.08,26.8-42.41,26.8-42.41S105.34,157.4,92.07,134.79Z"/><path class="cls-17" d="M70.69,315.62s12.7-8.72,16.41-7.83,28.46,6.61,31.08,10.14-17.52,1.51-17.52,1.51S118.82,326,117,328.93,95.58,327,95.58,327s11.86,6.06,12.92,8.61c1.73,4.19-18.28-2.27-18.28-2.27s8,9,7,11.12-14.39,2.7-14.39.1c0-3,4.54-2.1,5-2.63S79.19,339,75.28,337.4C59.64,331.1,70.69,315.62,70.69,315.62Z"/><path class="cls-4" d="M61.48,252.43a25.84,25.84,0,0,0-16.59-13.18.55.55,0,0,0-.29,1.07A24.8,24.8,0,0,1,60.53,253c.32.63,1.28.07,1-.56Z"/><path class="cls-4" d="M51,237.14A25.22,25.22,0,0,1,55.8,246a.55.55,0,1,0,1.06-.3,26.72,26.72,0,0,0-5.07-9.32c-.46-.55-1.24.24-.78.78Z"/><path class="cls-4" d="M16.79,213.37a31.47,31.47,0,0,1-14.46,39c-.63.34-.07,1.29.55,1a32.57,32.57,0,0,0,15-40.3c-.26-.66-1.33-.37-1.07.29Z"/></g></svg>