<svg id="Layer_1" data-name="Layer 1" xmlns="http://www.w3.org/2000/svg" xmlns:xlink="http://www.w3.org/1999/xlink" viewBox="0 0 452.34 452.33"><defs><style>.cls-1{fill:none;}.cls-2{fill:#e8505b;}.cls-3{clip-path:url(#clip-path);}.cls-4{fill:#f5f5f5;}.cls-5{fill:#263238;}.cls-6{fill:#455a64;}.cls-7{fill:#ff725e;}.cls-8{fill:#ffbe9d;}.cls-9{fill:#eb996e;}.cls-10{fill:#fafafa;}</style><clipPath id="clip-path"><circle class="cls-1" cx="226.17" cy="226.17" r="226.17"/></clipPath></defs><circle class="cls-2" cx="226.17" cy="226.17" r="226.17"/><g class="cls-3"><polygon class="cls-4" points="1130.46 389.93 84.53 389.93 84.53 281.61 1129.29 278.49 1130.46 389.93"/><path class="cls-5" d="M1129.29,338.83c0,.39-235.14.72-525.14.72S79,339.22,79,338.83s235.09-.73,525.19-.73S1129.29,338.43,1129.29,338.83Z"/><path class="cls-6" d="M82.36,284.59c21.15,31.23,61.85,47.86,98.82,40.37,19.2-3.88,37.18-13.61,56.73-14.78,23.56-1.4,46.44,9.8,70,8.92a70.19,70.19,0,0,0,57.34-34.87c-16.52-15.25-33.82-30.57-54.87-38.45-20-7.49-41.9-7.69-63.27-7.8-26.74-.13-51.7-6.32-78.45-6.32-31.62,0-71.15,2.63-86.32,52.93"/><path class="cls-5" d="M348.63,279.55a2.67,2.67,0,0,1-.57.43l-1.72,1.16c-1.52,1-3.82,2.44-6.85,4.14a116.33,116.33,0,0,1-27.19,11.15,84.38,84.38,0,0,1-20.18,2.76c-7.4.14-15.11-1.44-23.21-2.56-16.13-2.37-34.2-5.39-52.82-2.32-9.28,1.52-18,4.72-26.46,7.46s-16.91,5.12-25.18,5.72c-16.58,1.27-31.31-2.46-43-6.33A267.8,267.8,0,0,1,94.19,290L87,286.55l-1.85-.94a3.37,3.37,0,0,1-.61-.36,4.15,4.15,0,0,1,.67.23l1.92.81,7.31,3.21c6.35,2.76,15.54,6.82,27.29,10.69s26.33,7.3,42.62,6c8.12-.62,16.4-3,24.85-5.74s17.21-6,26.66-7.54c38.14-6,71.85,11.57,96.19,2.56a121.68,121.68,0,0,0,27.18-10.66c3.06-1.61,5.4-2.95,7-3.88l1.8-1A2.35,2.35,0,0,1,348.63,279.55Z"/><path class="cls-5" d="M1152.34,111.9h-12.26a10.79,10.79,0,0,0-10.79,10.78V389.93H84.53V122.68A10.79,10.79,0,0,0,73.74,111.9H61.48a10.79,10.79,0,0,0-10.79,10.78V618.91H84.53V462H1129.29V618.9h33.84V126.34C1163.13,116.73,1158.3,111.9,1152.34,111.9Z"/><path class="cls-7" d="M572.17,143.23,444.62,155.08l-84.87-5.69a72.42,72.42,0,0,0-60.43,25.84L278.73,199.9l43.67,78.92,304.33-.68Z"/><path class="cls-7" d="M341.11,226.18,181.38,213.32a31.8,31.8,0,0,0-35.94,31.54h0a31.81,31.81,0,0,0,30.94,31.8l146,2.16Z"/><path class="cls-8" d="M195.12,156.83a29.7,29.7,0,0,1,31.71-27.56c.42,0,.83.06,1.24.11,18.65,2.1,41.32,5.4,54.69,10,26.61,9.19,26.66,30.66,26.66,31.11h0l19.09,2.34a29.06,29.06,0,0,1,16.79,7.56c4.91,4.74,9.09,12.2,6.39,23.17-4.41,18-35.69,23.44-35.8,23.44h0L200.06,216.1h0l-8.93-1.4h0Z"/><path class="cls-5" d="M238.31,151.54c-.4-.51,2-2.92,2.55-6.76s-1-6.93-.42-7.28c.24-.17,1,.4,1.72,1.76a9.89,9.89,0,0,1,.92,5.91,9.45,9.45,0,0,1-2.62,5.29C239.39,151.51,238.49,151.78,238.31,151.54Z"/><path class="cls-5" d="M231.28,187.52c-.38-.53,2.09-2.86,2.75-6.68s-.74-7-.2-7.29c.25-.16,1,.43,1.67,1.81a9.91,9.91,0,0,1,.74,5.93,9.56,9.56,0,0,1-2.77,5.22C232.36,187.52,231.45,187.77,231.28,187.52Z"/><path class="cls-5" d="M263.77,165.16c-.22,0-.21-2.47,0-6.4.07-1,0-1.95-.6-2.24a5.62,5.62,0,0,0-3,.14l-7.93,1.58c-11.28,2.13-20.49,3.49-20.57,3s9-2.56,20.27-4.69l8-1.44c1.17-.18,2.54-.59,3.91.17a2.49,2.49,0,0,1,1.15,1.85,6.9,6.9,0,0,1-.06,1.7C264.4,162.77,264,165.18,263.77,165.16Z"/><path class="cls-9" d="M309.42,170.5A71.44,71.44,0,0,1,293,205.81s20.59-6.37,22.9-34.51Z"/><path class="cls-5" d="M222,169.28c1,.56-.2,4.28-.45,8.86s.33,8.41-.71,8.84c-.49.19-1.35-.62-2.1-2.25a15.39,15.39,0,0,1,.88-13.49C220.54,169.71,221.5,169,222,169.28Z"/><path class="cls-5" d="M229.06,135.8c.75.83-.62,3.3-1.22,6.45s-.45,5.95-1.46,6.4c-.49.2-1.29-.38-1.9-1.69a9.53,9.53,0,0,1,2.16-10.36C227.73,135.64,228.69,135.43,229.06,135.8Z"/><path class="cls-5" d="M195.72,101.32c-2.19-.67-4.52.15-6.66,1-1.77.66-3.7,1.47-4.5,3.18s-.11,4,.51,5.94c2.14,6.69,2.07,14.91-3,19.72-4,3.75-10.23,4.67-13.59,9-3.7,4.74-2.43,11.6-.42,17.27s4.64,11.66,3.09,17.48c-1.11,4.18-4.22,7.49-6.57,11.13a30.17,30.17,0,0,0-4.37,22.65c1.75,7.69,7.25,14.59,14.63,17.4s16.42,1.15,21.88-4.55a10.39,10.39,0,0,0,1-.87c14.36,2.3,52.6,5.79,53.82-.78.94-5.1-37.14-13-37.14-13-2-12.74-14.55-15.24-16.57-18.76s3.06-17.46,11-28.89c9.85-14.22,10.69-38.46,10.66-46.91a9.16,9.16,0,0,0,0-2.22v-.79l-.11.09a7,7,0,0,0-.55-1.61c-1.37-2.75-4.45-4.13-7.34-5.18-2.59-.94-5.34-1.8-8.06-1.34a6.73,6.73,0,0,0-4.79,3.37A4.24,4.24,0,0,0,195.72,101.32Z"/><path class="cls-6" d="M201.87,117.62a3,3,0,0,1-1.26-1,5.16,5.16,0,0,1-.9-4.55,5.24,5.24,0,0,1,6.23-3.42,5.16,5.16,0,0,1,3.51,3.24,8.38,8.38,0,0,1,.07,5.33c-1.14,3.84-5,6.12-8.8,7.8a47.68,47.68,0,0,0-5.74,2.82,11.85,11.85,0,0,0-4.53,4.52,8.45,8.45,0,0,0-.23,6.51c.69,2.26,1.87,4.5,2.72,7a16.39,16.39,0,0,1,.69,8.07,23.64,23.64,0,0,1-2.91,7.74c-2.75,4.86-6.65,8.69-10.19,12.33s-6.81,7.35-8.79,11.5a18.49,18.49,0,0,0-1.34,12.56,18.94,18.94,0,0,0,5.64,9.59,19.18,19.18,0,0,0,15.32,4.49,29.43,29.43,0,0,0,5.89-1.64,5.69,5.69,0,0,1-1.38.83,17.51,17.51,0,0,1-4.42,1.4,19.48,19.48,0,0,1-7.34-.05,18.85,18.85,0,0,1-8.79-4.21,20,20,0,0,1-6.16-10.09,19.65,19.65,0,0,1,1.3-13.49c2.06-4.41,5.43-8.24,9-11.93s7.31-7.41,9.94-12.06a22.11,22.11,0,0,0,2.74-7.23,15,15,0,0,0-.61-7.33c-.79-2.35-2-4.6-2.7-7.06a9.85,9.85,0,0,1,.37-7.57c2.54-4.59,7.33-6.23,11-7.87s7.28-3.71,8.28-7a7.39,7.39,0,0,0,.05-4.65,4.25,4.25,0,0,0-2.81-2.75,4.55,4.55,0,0,0-5.44,2.76,5,5,0,0,0,.58,4.19A13.07,13.07,0,0,0,201.87,117.62Z"/><path class="cls-6" d="M206.87,106.59a2.92,2.92,0,0,1,1.16.33,9.91,9.91,0,0,1,2.86,1.92,10.48,10.48,0,0,1,2.88,4.67,11,11,0,0,1-.46,7.28c-1,2.66-3.53,4.65-5.9,6.5a14.06,14.06,0,0,0-3.18,3.26,5.64,5.64,0,0,0-.7,4.37,35.49,35.49,0,0,0,1.8,4.9,17.57,17.57,0,0,1,1.14,5.68,25.91,25.91,0,0,1-2.66,11.66c-3.59,7.43-9,13-12.34,19s-4.9,12.24-3.53,17.19a14,14,0,0,0,7.43,9,15.46,15.46,0,0,0,4.35,1c0,.06-.39.12-1.18.17a10.11,10.11,0,0,1-3.4-.61,14.28,14.28,0,0,1-8.25-9.3c-1.62-5.3-.15-12.08,3.35-18.18s8.76-11.87,12.17-19a24.69,24.69,0,0,0,2.55-11,16,16,0,0,0-1-5.21,35.9,35.9,0,0,1-1.81-5.13,7.11,7.11,0,0,1,1-5.39,15.17,15.17,0,0,1,3.53-3.53c2.49-1.87,4.73-3.58,5.7-5.93a10.25,10.25,0,0,0,.63-6.62,10.41,10.41,0,0,0-2.47-4.48A16.63,16.63,0,0,0,206.87,106.59Z"/><path class="cls-5" d="M275.61,164.32c.37.16.45.81.18,1.47s-.8,1.06-1.16.91-.45-.81-.18-1.47S275.25,164.17,275.61,164.32Z"/><path class="cls-10" d="M210.1,222.21c.4,0-.12,12.1-1.16,27s-2.2,26.9-2.6,26.87.12-12.1,1.16-27S209.7,222.18,210.1,222.21Z"/><path class="cls-10" d="M249.91,221.38c.4,0,0,12.64-.81,28.19s-1.86,28.14-2.26,28.12,0-12.64.81-28.2S249.51,221.36,249.91,221.38Z"/><path class="cls-10" d="M293.68,225.65c.21,0,.17,3,0,7.72-.2,5.23-.45,11.56-.72,18.56-.33,7.25-.73,13.82-1.15,18.56s-.81,7.66-1,7.65-.17-3,0-7.71c.2-5.24.45-11.57.72-18.57.33-7.25.74-13.81,1.15-18.55S293.49,225.64,293.68,225.65Z"/><path class="cls-10" d="M337,221c.4,0,0,12.83-.84,28.61s-1.87,28.56-2.27,28.54,0-12.83.83-28.62S336.61,221,337,221Z"/><path class="cls-10" d="M332.72,153.27c.4,0,.23,4.54-.36,10s-1.41,9.93-1.8,9.89-.24-4.54.36-10S332.32,153.23,332.72,153.27Z"/><path class="cls-10" d="M381.34,278.45c-.4,0-1.73-28.46-3-63.61s-1.92-63.65-1.52-63.66,1.73,28.46,3,63.61S381.74,278.44,381.34,278.45Z"/><path class="cls-10" d="M425.81,277.7a31.68,31.68,0,0,1-.61-4.85c-.29-3.38-.69-7.85-1.17-13.27-1-11.43-2.27-26.8-3.7-43.79S417.74,183.18,417,172c-.34-5.61-.59-10.16-.71-13.3a30.71,30.71,0,0,1-.05-4.89,31.68,31.68,0,0,1,.61,4.85c.3,3.37.69,7.85,1.17,13.27,1,11.43,2.27,26.8,3.71,43.79s2.59,32.6,3.28,43.83c.35,5.62.6,10.16.72,13.31A31.29,31.29,0,0,1,425.81,277.7Z"/><path class="cls-10" d="M451.78,155c.4,0,4.19,27.44,8.46,61.39s7.42,61.52,7,61.57-4.18-27.43-8.45-61.39S451.39,155,451.78,155Z"/></g></svg>