<svg id="Layer_1" data-name="Layer 1" xmlns="http://www.w3.org/2000/svg" xmlns:xlink="http://www.w3.org/1999/xlink" viewBox="0 0 364.22 335.88"><defs><style>.cls-1{fill:none;}.cls-2{clip-path:url(#clip-path);}.cls-3{fill:#f2f2f2;}.cls-4{fill:#263238;}.cls-5{fill:#7e7768;}.cls-6{fill:#ff725e;}.cls-7{opacity:0.34;}.cls-8{fill:#fdfbec;}.cls-9{fill:#d07e5d;}.cls-10{fill:#9b4731;}.cls-11{fill:#e97f5b;}</style><clipPath id="clip-path"><rect class="cls-1" width="364.22" height="335.88"/></clipPath></defs><g class="cls-2"><path class="cls-3" d="M225.58,125.6a25.15,25.15,0,0,0,11.57,31.22c.5.27,0,1-.45.76a26,26,0,0,1-12-32.22c.2-.52,1.06-.29.85.24Z"/><path class="cls-4" d="M263.87,413c-5-39.9-11.44-125.14-11.44-125.14l-86.24.73s15.5,80.84,26.12,124.41Z"/><path class="cls-5" d="M220.7,295.64a55.46,55.46,0,0,0,22.9,31.13,54.38,54.38,0,0,0,10,5.15c.9.35,1.29-1.1.4-1.45a53.86,53.86,0,0,1-27.89-25.1,52,52,0,0,1-4-10.13.75.75,0,0,0-1.45.4Z"/><polygon class="cls-4" points="171.53 412.95 187.89 290.27 122.86 271.56 104.97 412.95 171.53 412.95"/><path class="cls-5" d="M139.57,287.91c-4.12,12.27-9.14,26.33-22,31.83-.89.37-.13,1.66.75,1.29,13.24-5.64,18.48-20.11,22.72-32.73.3-.91-1.14-1.3-1.45-.39Z"/><path class="cls-5" d="M160.81,411.59h-.1a.62.62,0,0,1-.51-.72q1.63-9.72,3.25-19.32c3.5-20.72,7.11-42.14,10.65-64.12,0,0,0,0,0-.06a23.94,23.94,0,0,0,.95-5.67s0-.07,0-.11c.13-.74.32-1.55.5-2.34s.35-1.55.47-2.25c.25-2.24.63-4.44,1-6.57s.72-4.16,1-6.29a.62.62,0,0,1,1.24.14c-.25,2.17-.62,4.3-1,6.36s-.74,4.31-1,6.51v0c-.13.74-.32,1.56-.5,2.34s-.35,1.52-.47,2.22a25.18,25.18,0,0,1-1,5.9c-3.54,22-7.15,43.39-10.65,64.1l-3.25,19.33A.63.63,0,0,1,160.81,411.59Z"/><path class="cls-5" d="M178.15,331.14a11.69,11.69,0,0,1-4-.7.63.63,0,0,1-.34-.82.62.62,0,0,1,.81-.34,10,10,0,0,0,10.24-2c3.78-3.51,7.07-24.26,8.28-34.74a.62.62,0,0,1,1.24.14c-.14,1.26-3.61,30.82-8.67,35.52A10.8,10.8,0,0,1,178.15,331.14Z"/><path class="cls-4" d="M219.71,45s-9.31-23.29-27.46-23.37c-15-.07-17.29,8.88-22.87,13.84s-12-1.61-11.91,4.11a7.82,7.82,0,0,0,5.38,7.28s-8.38-.18-6.26,5.91,9,3.82,9,3.82-2.77,6.77,1,9.58c9.28,6.85,14.25-21.19,24.06-18.62C201.12,50.31,219.71,45,219.71,45Z"/><path class="cls-4" d="M205.21,30.54a12.31,12.31,0,0,1,16,2c7.72,7.87,4.76,19.35,2.93,26.33S215,77.42,208.48,77.68,205.21,30.54,205.21,30.54Z"/><path class="cls-6" d="M258.55,207.66c-1.34,31.39,10.16,73.37,3,103.91-.58,2.46-6.87,4.46-16.54,5.81-1.06.14-2.15.28-3.28.41-13.21,1.52-31.47,1.93-49.91.77l-1.55-.1c-27.19-1.84-54.5-7.1-66.35-17.22-.38-.32-.75-.66-1.1-1a15,15,0,0,1-4.94-9.21,55,55,0,0,1,.77-12.87c.1-.65.19-1.31.3-2,.7-4.35,1.65-9.17,2.73-14.22.12-.58.25-1.17.38-1.77,3.53-16.39,8.13-34.8,9.31-47,.1-1,.17-2,.24-3.15.16-2.61.26-5.64.32-9,0-.63,0-1.26,0-1.91.08-5.77.07-12.34.09-19.21v-1.79h0c0-2.72,0-5.48.06-8.24,0-1.83,0-3.66.07-5.49l0-1.59c.43-21.28,2-41.34,7.9-45.62,4.29-3.09,13-6.14,21-8.48l1.44-.42c2.34-.67,4.58-1.27,6.59-1.79,5-1.3,8.53-2.08,8.53-2.08s12.12-14.22,34.46,0a56.05,56.05,0,0,0,13.23,6.07c9.54,3,18.73,3.85,26.26,7.15.54.23,1.07.48,1.59.74,5.85,2.95,10.56,7.71,13.45,16.75,3.53,11,2,20.48-.7,31.56-2.42,10-5.75,21.35-7.07,36.43C258.72,204.64,258.62,206.14,258.55,207.66Z"/><g class="cls-7"><path class="cls-4" d="M259.22,217.66a187.82,187.82,0,0,1,.73-24.42c.8-7.8,2.13-15.54,3.35-23.29.15-.94-1.29-1.35-1.44-.39-1.23,7.76-2.56,15.51-3.37,23.33a186.19,186.19,0,0,0-.77,24.77.75.75,0,0,0,1.5,0Z"/></g><path class="cls-3" d="M150.64,152.66a49,49,0,0,1-18.5,11.79l0-1.59a44.08,44.08,0,0,0,4.89-2.13A45.73,45.73,0,0,0,160,134.59a47.38,47.38,0,0,0,1.08-25.83l1.44-.42a48.48,48.48,0,0,1,1.33,9.75A47.07,47.07,0,0,1,150.64,152.66Z"/><path class="cls-3" d="M253.17,118.43c-7.84,5-16.94,8.15-26.35,7.59-9.74-.58-19.31-4.85-25.1-12.9-.56-.79.74-1.54,1.3-.76a28.52,28.52,0,0,0,12.67,9.7,38,38,0,0,0,28.41-.54,50.2,50.2,0,0,0,7.48-3.83C252.12,117.92,252.65,118.17,253.17,118.43Z"/><path class="cls-3" d="M246.59,217.81A42.76,42.76,0,0,1,219,215.53a26.59,26.59,0,0,1-9.7-7c-3.4-4-5.87-8.6-8.64-13a50.62,50.62,0,0,0-22.08-19.44A49.08,49.08,0,0,0,132,180v-1.79h0a51.15,51.15,0,0,1,19.62-7.26c19.45-2.88,39,6.41,49.62,22.8,3,4.61,5.51,9.59,9.11,13.79a26,26,0,0,0,10.31,7.11,41.33,41.33,0,0,0,25.52,1.74A.75.75,0,0,1,246.59,217.81Z"/><path class="cls-3" d="M248.67,235.13A90.55,90.55,0,0,0,223.06,227c-7.22-1.07-16.39.05-19.63,7.69-3,7.12.36,15.58,4.56,21.46,4.68,6.56,11.13,11.74,17.69,16.31,8.12,5.64,16.87,10.28,25.58,14.91.86.45,1.61-.84.76-1.29-13.82-7.33-28.57-14.82-39.3-26.49-4.89-5.31-9.16-12.27-8.88-19.75a11.27,11.27,0,0,1,5.26-9.46,18.23,18.23,0,0,1,11.13-2.21,67.28,67.28,0,0,1,14.28,3,93.18,93.18,0,0,1,13.4,5.22c.87.42,1.63-.88.76-1.29Z"/><path class="cls-3" d="M251.31,157.86A76.9,76.9,0,0,0,211.9,141c-4.12-.51-8.49-.74-12.5.6a11.4,11.4,0,0,0-7.72,7.91c-1.13,4.42.21,9,2.58,12.74a48.88,48.88,0,0,0,9.55,10.55,81.89,81.89,0,0,0,11.19,8c9.17,5.54,19.13,9.6,29,13.6.89.36,1.28-1.08.39-1.44-16.21-6.55-33.26-13.51-45.23-26.8-3.06-3.39-6-7.43-6.38-12.12-.38-4.27,1.38-8.32,5.27-10.32,3.45-1.78,7.62-1.84,11.4-1.52a71.68,71.68,0,0,1,13.38,2.48,75.93,75.93,0,0,1,27.39,14.23c.74.61,1.8-.44,1.05-1Z"/><path class="cls-3" d="M159.47,240.06a154,154,0,0,1-30.75,18.78c-2.19,1-4.58,2.11-7.08,3.12.12-.58.25-1.17.38-1.77,3.72-1.5,7.36-3.25,10.91-5a152,152,0,0,0,27.89-18.08c8-6.55,17.19-16.3,13.8-27.65-2.76-9.2-12.69-14.47-21.77-15a31.37,31.37,0,0,0-21,6.63c0-.63,0-1.26,0-1.91a32.84,32.84,0,0,1,25-5.74c9.29,1.73,18.59,8.61,19.78,18.52C178.11,224.09,168.11,233.29,159.47,240.06Z"/><path class="cls-3" d="M245,317.38c-1.06.14-2.15.28-3.28.41a74.64,74.64,0,0,1-11.4-5.48,73.41,73.41,0,0,1-14-10.66A139.22,139.22,0,0,1,203.89,287c-7.39-9.55-15.44-19.75-27.07-24.23-6.36-2.45-13.06-2.44-19.68-1.09a103.25,103.25,0,0,0-18.48,5.82,116,116,0,0,0-20,10.67c.1-.65.19-1.31.3-2a119.68,119.68,0,0,1,22.53-11.39,86.87,86.87,0,0,1,19.16-5.22A33.89,33.89,0,0,1,178.86,262c11.46,5,19.32,15.2,26.77,24.82a123.88,123.88,0,0,0,12.64,14.62,71.27,71.27,0,0,0,14.89,10.79A73.73,73.73,0,0,0,245,317.38Z"/><path class="cls-3" d="M191.78,318.56l-1.55-.1c-.19-.71-.41-1.41-.64-2.11-5.27-15.65-20-27.23-36.6-27.9a37.13,37.13,0,0,0-29.11,12.79c-.38-.32-.75-.66-1.1-1a38.76,38.76,0,0,1,9.89-8.17,37.65,37.65,0,0,1,23.16-4.89,42.21,42.21,0,0,1,35.95,31.38Z"/><path class="cls-8" d="M225.32,110.54c-6,7.58-21.66,17-35.2,15.58-18.89-2-24.09-12.05-21-19.57,5-1.3,8.53-2.08,8.53-2.08s12.12-14.22,34.46,0A56.05,56.05,0,0,0,225.32,110.54Z"/><path class="cls-9" d="M211.69,110.77s-20.23,16.76-36.33,0l4.92-13.57,3.24-9,2.27-6.27L212,79.28A89.26,89.26,0,0,0,211.69,110.77Z"/><path class="cls-4" d="M205.21,88.43c-12.5,12.92-22.9,13.78-26.17,12.15l4.48-12.37Z"/><path class="cls-9" d="M215.26,72.4a25.13,25.13,0,0,1-.61,2.88A18.38,18.38,0,0,1,212,80.84a59.78,59.78,0,0,1-6.79,7.66c-4.73,4.77-11.59,5.88-18,5-16.91-2.29-16.84-14-13-31.23,2.36-10.69.14-17.1,3.42-20.93h0l.63-.49A24.56,24.56,0,0,1,196,36.17c1.21.14,2.36.31,3.47.52l.74.14.3.06.82.18.58.14q.66.15,1.29.33C216.42,41.25,218.65,50,218,58.13,217.56,63.7,215.79,69,215.26,72.4Z"/><path class="cls-4" d="M208.65,37.07s-6.59-3.48-8.94-1.15-.1,9.2-5.18,10.08c-4.75.83-5.2-4.28-9.08-2.93-2.7.93-1.35,5-4.08,7.36-3,2.62-5.1-2.84-8.06,7.92-1.42,5.16-7.43-3.07-3.62-12.23S189.81,21.76,208.65,37.07Z"/><path class="cls-10" d="M197.74,68.39c-.14.92-1.69,1.45-3.47,1.17s-3.1-1.25-3-2.17,1.7-1.45,3.47-1.17S197.89,67.47,197.74,68.39Z"/><path class="cls-10" d="M173.31,66.62a4.83,4.83,0,0,0,2.43,1c1.77.28,3.33-.25,3.47-1.17s-1.18-1.9-3-2.18a4.87,4.87,0,0,0-2.53.21Z"/><path class="cls-4" d="M193.56,54.05c-1.1.52-2.74.57-3.36-.72a1.65,1.65,0,0,0-2.06-1,1.62,1.62,0,0,0-1,2.06,5.59,5.59,0,0,0,7.48,2.66,1.66,1.66,0,0,0,1-2.06,1.62,1.62,0,0,0-2.06-1Z"/><path class="cls-4" d="M182.44,52.86a3.05,3.05,0,0,1-3.22,1.58c-2.06-.3-2.56,2.88-.51,3.18A6.24,6.24,0,0,0,185,54.87c1.14-1.71-1.37-3.73-2.52-2Z"/><path class="cls-4" d="M208.48,76.2a9.44,9.44,0,0,0,6.17-.92A18.38,18.38,0,0,1,212,80.84,9.4,9.4,0,0,1,208.48,76.2Z"/><path class="cls-4" d="M201.66,67.05c3.14,2.5,5.58-8.84,12.58-9.62a5.75,5.75,0,0,1,3.76.7c-.44,5.57-2.21,10.9-2.74,14.27a21.67,21.67,0,0,1-.6,2.81c3.67-6.58,7.84-14.37,9-17.75a12.2,12.2,0,0,0,.49-2c-.13-.2-.26-.39-.4-.57a12.75,12.75,0,0,0-2.09-2.19,16.85,16.85,0,0,0-4.17-2.46A35,35,0,0,0,203,47.93C203.53,53.05,199.1,65,201.66,67.05Z"/><path class="cls-4" d="M197.76,40.14s4.41,2.41,5.08,6.24a23.15,23.15,0,0,1-.11,7.58s12.66,1.82,15.37.48,2.54-10,2.54-10-16.89-11.17-21.8-9.34S197.76,40.14,197.76,40.14Z"/><path class="cls-10" d="M181.88,82.68a3.49,3.49,0,0,0,3.73,0c.6-.41-.06-1.31-.66-.9a2.47,2.47,0,0,1-2.61-.15c-.65-.33-1.1.69-.46,1Z"/><path class="cls-4" d="M185.31,77.19a2.9,2.9,0,0,0-3.08,0c-.49.34.06,1.08.55.75a2,2,0,0,1,2.16.12c.53.27.9-.57.37-.84Z"/><path class="cls-9" d="M203.78,71.2a9.44,9.44,0,0,1,2.42-7.89c2.5-2.78,7-7,10.49-5.9,5.16,1.55,5.05,6.34,3.79,11s-5.38,10.47-11.79,8.44A6.84,6.84,0,0,1,203.78,71.2Z"/><path class="cls-4" d="M210.19,71.33a12.43,12.43,0,0,1,1.29-6c.94-1.61,3.24-3.8,5.33-2.73.7.35,1.38-.68.67-1-2-1-4.22-.09-5.74,1.43-2.19,2.18-2.71,5.29-2.78,8.26a.62.62,0,0,0,1.23,0Z"/><path class="cls-4" d="M184.65,66.43a1.88,1.88,0,0,1-2.56-1.83A1.91,1.91,0,0,1,183.43,63c.48-.13.75.06,1.19,0,.69-.08.91-.88,1-1.63a7.44,7.44,0,0,0-.74-.28c-.1.49-.24,1-.52,1.11s-1,0-1.5.18a2.55,2.55,0,0,0-1.52,1.85,2.62,2.62,0,0,0,3.47,3C185.31,67,185.12,66.28,184.65,66.43Z"/><path class="cls-3" d="M251.56,155.05c-7.1,17.48-7.83,36.65-6.5,55.24,1.41,19.71,5.15,39.19,5.94,59a129.7,129.7,0,0,1-2.62,33.88c-.22.95,1.25,1.36,1.46.41,4.45-19.59,2.82-39.78.47-59.53-2.28-19.08-5.22-38.23-4-57.5a99.13,99.13,0,0,1,6.71-31c.37-.91-1.1-1.31-1.46-.41Z"/><path class="cls-6" d="M140.13,117.83s-65.7,53.19-71,85.47S93.33,284.39,120,281.83,143.13,248,137.4,241.34,113.54,220.58,116,211.7s21.43-33.9,21.43-33.9S150.74,135.91,140.13,117.83Z"/><path class="cls-11" d="M123,262.39s10.15-7,13.12-6.25,22.76,5.27,24.85,8.1-14,1.2-14,1.2,14.52,5.27,13,7.59-17.1-1.51-17.1-1.51,9.48,4.84,10.33,6.88c1.38,3.35-14.62-1.81-14.62-1.81s6.39,7.16,5.56,8.89-11.5,2.16-11.5.08c0-2.4,3.63-1.68,4-2.11s-6.91-2.35-10-3.61C114.21,274.76,123,262.39,123,262.39Z"/><path class="cls-3" d="M115.68,211.87a20.68,20.68,0,0,0-13.26-10.53.44.44,0,0,0-.23.85,19.82,19.82,0,0,1,12.73,10.13c.26.5,1,.06.76-.45Z"/><path class="cls-3" d="M107.31,199.65a20.35,20.35,0,0,1,3.83,7.07c.16.54,1,.31.85-.24a21.33,21.33,0,0,0-4.06-7.45c-.36-.44-1,.19-.62.62Z"/><path class="cls-3" d="M80,180.65a25.16,25.16,0,0,1-11.56,31.22c-.5.27-.06,1,.45.76a26,26,0,0,0,12-32.22c-.21-.52-1.06-.29-.86.24Z"/><path class="cls-6" d="M252.84,118.39s65.7,53.19,71,85.47S299.64,285,273,282.4s-23.12-33.89-17.39-40.49,23.86-20.77,21.43-29.65-21.43-33.9-21.43-33.9S242.23,136.47,252.84,118.39Z"/><path class="cls-11" d="M269.92,263s-10.14-7-13.11-6.25S234.05,262,232,264.8s14,1.2,14,1.2-14.52,5.27-13.05,7.59S250,272.08,250,272.08s-9.48,4.84-10.33,6.88c-1.38,3.35,14.62-1.81,14.62-1.81s-6.39,7.16-5.56,8.89,11.5,2.16,11.5.08c0-2.4-3.63-1.68-4-2.11s6.91-2.34,10-3.61C278.76,275.32,269.92,263,269.92,263Z"/><path class="cls-3" d="M277.29,212.43a20.68,20.68,0,0,1,13.26-10.53.44.44,0,0,1,.23.85,19.85,19.85,0,0,0-12.73,10.13c-.26.5-1,.06-.76-.45Z"/><path class="cls-3" d="M285.66,200.21a20.35,20.35,0,0,0-3.83,7.07c-.16.54-1,.31-.85-.24a21.33,21.33,0,0,1,4.06-7.45c.36-.44,1,.19.62.62Z"/><path class="cls-4" d="M179.66,61.79a.51.51,0,0,1-.45-.29.5.5,0,0,1,.24-.67l3-1.44L179.6,59a.5.5,0,0,1,.13-1l4.57.59a.5.5,0,0,1,.15,1l-4.57,2.17A.59.59,0,0,1,179.66,61.79Z"/><path class="cls-4" d="M190.83,61.79a.5.5,0,0,1-.21,0l-4.57-2.17a.5.5,0,0,1,.15-1l4.57-.59a.5.5,0,1,1,.12,1l-2.88.37,3,1.44a.5.5,0,0,1,.24.67A.49.49,0,0,1,190.83,61.79Z"/></g></svg>