<svg id="Layer_1" data-name="Layer 1" xmlns="http://www.w3.org/2000/svg" xmlns:xlink="http://www.w3.org/1999/xlink" viewBox="0 0 414.48 354.59"><defs><style>.cls-1{fill:none;}.cls-2{fill:#455a64;}.cls-3{clip-path:url(#clip-path);}.cls-4{fill:#f7b48e;}.cls-5{fill:#e0a181;}.cls-6{fill:#754;}.cls-7{fill:#8e6752;}.cls-8{fill:#ccc9cc;}.cls-9{fill:#acacae;}.cls-10{fill:#fecf51;}.cls-11{fill:#fff;}.cls-12{fill:#ff725e;}.cls-13{fill:#f95c68;}.cls-14{fill:#f4e4e4;opacity:0.49;}.cls-15{fill:#bcafb2;}.cls-16{fill:#d1c3c5;}.cls-17{fill:#e8505b;}.cls-18{fill:#96755b;}.cls-19{fill:#ffc79b;}.cls-20{fill:#cee2eb;}.cls-21{fill:#8c3f34;}.cls-22{fill:#bf5647;}</style><clipPath id="clip-path"><circle class="cls-1" cx="195.16" cy="177.29" r="177.29"/></clipPath></defs><circle class="cls-2" cx="195.16" cy="179.76" r="175.54"/><g class="cls-3"><path class="cls-4" d="M103.68,227.45a5.08,5.08,0,0,1,1.49-9.92l11.22-.12.66-.83L101.46,206.2a5.08,5.08,0,0,1-1.42-7c1.56-2.34,8.34,7.89,10.67,9.45l16.57,2.57a5.09,5.09,0,0,1,1.16,7.39l-5.6,7.05a5,5,0,0,1-3.92,1.92l-13.64.15A5.25,5.25,0,0,1,103.68,227.45Z"/><path class="cls-4" d="M96.39,232.69a5.08,5.08,0,0,1,1.38-9.92l12.76-.44L94.16,211.44A5.08,5.08,0,0,1,99.79,203L120,216.42a5.08,5.08,0,0,1,1.68,6.6l-3.55,6.7a5.07,5.07,0,0,1-4.33,2.71l-15.69.49A5,5,0,0,1,96.39,232.69Z"/><path class="cls-5" d="M22.41,200.45l11.12-31.67L83.6,185.61c1.6,10.93-3.38,21.4-11.12,31.67Z"/><path class="cls-5" d="M60.48,213.25c-4.76-20.2,3.07-26.4,16.84-34.3,18.15,10.3,32.27,18.67,41.27,33.08,1.51,5.68-11.14,15.64-17.88,21.48a4.73,4.73,0,0,1-5.33.63Z"/><path class="cls-5" d="M30.27,203.09,41.4,171.42,66,179.7c1.6,10.93-3.38,21.4-11.12,31.68Z"/><path class="cls-5" d="M126.55,208.83l16.67-.22c.67.5.83,2.41.08,4L133.53,217c-2.17.62-4,1.69-7.12,1.82l-19.32-.11a5.29,5.29,0,0,1-.57-.15,5.07,5.07,0,0,1-3.44-5.81c.54-2.75,4.9-8,7.65-7.5Z"/><path class="cls-5" d="M129.59,202.49a16.72,16.72,0,0,1-6.67.16c-4.31-.75-8.24-2.85-12.21-4.68a33.62,33.62,0,0,0-8.6-2.93c-3.22-.53-6.55-.16-9.81-.54-2.79-.33-4.93-1.19-7.86-.67l-.67.06a8.58,8.58,0,0,1-9.34-7.63c-.82-7.37,5.1-8.48,10.88-10.13,5.48-1.56,11.93-2.25,16.74.81s10.41,9.78,15,12.79a53.65,53.65,0,0,0,12.62,6c3,1,7.18,1.75,4.26,4.52A9.53,9.53,0,0,1,129.59,202.49Z"/><path class="cls-5" d="M130.32,202.29a17,17,0,0,1-7.4.36c-4.31-.75-8.24-2.85-12.21-4.68a34.34,34.34,0,0,0-5.94-2.32s-8.14-9.71-3.5-8.12,7.07,3.28,11.19,5.95A79.14,79.14,0,0,0,124.74,200c3.05,1.27,6.11,2.59,8.79.66A9.6,9.6,0,0,1,130.32,202.29Z"/><path class="cls-4" d="M132.3,196.69c-2.44-1.14-14.57-6.48-17.24-8.52-4.25-3.25-6.37-8.34-10.91-11.32-4.3-2.83-12.54-3.16-17.2-1.39-14.21,5.37-21.28,4.43-21.28,4.43s4.26,3.65,14.06,1.34c6.33-1.49,15.55-4.65,21.48-1,5,3,8.06,8.21,13.13,11.26,4.55,2.74,12.29,5.8,17.65,5.89C132.36,197.34,132.73,196.89,132.3,196.69Z"/><path class="cls-6" d="M260.07,191.84a4,4,0,0,0,2.32-4.94c-.81-2.28-3.53-3.56-6.2-3-12.52,2-24.67,1.06-37.05-1.26-2.85-.48-5.42.94-5.67,3.36s2.1,4.94,5.18,5.43a128.37,128.37,0,0,0,40.09.85A5.49,5.49,0,0,0,260.07,191.84Z"/><path class="cls-6" d="M263.53,202.43c2.09-.94,3.13-2.84,2.48-4.6-.79-2.12-3.58-3.28-6.33-2.74a137.78,137.78,0,0,1-35.2-.28c-2.89-.38-5.35,1-5.45,3.28s2.38,4.53,5.47,4.9c12.64,1.61,25,2,37.67-.12A7,7,0,0,0,263.53,202.43Z"/><path class="cls-6" d="M278.28,209c2-1,3-2.87,2.33-4.45-.83-1.89-3.65-2.73-6.36-2a158.46,158.46,0,0,1-29.23,2.9c-2.83,0-5,1.63-4.85,3.69s2.78,3.79,5.78,3.73a126.33,126.33,0,0,0,31-3.36A6.56,6.56,0,0,0,278.28,209Z"/><path class="cls-6" d="M252.8,181.39a4.18,4.18,0,0,0,3-5,4.61,4.61,0,0,0-5.25-3.44,115.44,115.44,0,0,1-27.74,0c-2.56-.41-5,1-5.35,3.42s1.68,4.83,4.47,5.26a96.32,96.32,0,0,0,30.22-.09A5.81,5.81,0,0,0,252.8,181.39Z"/><path class="cls-7" d="M243.26,160.51l.35.33.19.18.12.11.21.18c.3.23.66.51,1,.78l1.09.69c.38.22.81.46,1.25.69.88.44,1.87.9,2.92,1.31,4.2,1.68,9.49,3,14.47,4.5,1.25.37,2.47.75,3.64,1.14s2.29.79,3.35,1.2,2,.83,2.88,1.25c.44.21.84.42,1.22.63s.73.42,1.06.61a16.65,16.65,0,0,1,1.59,1.12,11,11,0,0,1,.94.88,4.6,4.6,0,0,1,.46.54l.14.18.07.08a7.2,7.2,0,1,0,11.19-9,6.37,6.37,0,0,0-.7-.76l-.53-.49a17.2,17.2,0,0,0-1.53-1.29,24.23,24.23,0,0,0-2.43-1.64,31.4,31.4,0,0,0-3.13-1.59c-.56-.24-1.16-.5-1.76-.71s-1.22-.46-1.85-.65c-1.27-.42-2.58-.78-3.92-1.11s-2.7-.62-4.07-.87-2.73-.49-4.09-.7l-7.75-1.16c-1.21-.19-2.33-.38-3.39-.57s-2-.4-2.85-.62-1.57-.42-2.18-.62l-.8-.3-.59-.26-.24-.1h0a.62.62,0,0,1-.12-.08l-.21-.15-.38-.29h0a4.35,4.35,0,0,0-5.59,6.63Z"/><path class="cls-6" d="M334.12,203.17l-3.34-32.47-44.84,4.61c-3.37,10-1.18,21,3.34,32.48Z"/><path class="cls-6" d="M300.27,199.86c2.73-11.55-.29-21.76-8-30.86-17.92-.46-33.11.92-44.84,4.62-4.88,6.82,7.66,25.6,17.78,38l22.3-.62A14.63,14.63,0,0,0,300.27,199.86Z"/><path class="cls-6" d="M327.08,203.9l-3.35-32.48-22.05,2.27c-3.38,10-1.19,21,3.34,32.48Z"/><path class="cls-6" d="M243.92,161.13l.21.18c.3.23.66.51,1,.78l1.09.69c.38.22.81.46,1.25.69.88.44,1.87.9,2.92,1.31,4.2,1.68,11,3.55,16,5,.11,0,8.73-.89,13.6-.22a62.07,62.07,0,0,0-9.7-3.39c-4.22-.88-8.44-1.32-12.71-1.82-4.75-.56-9.69-1.43-14-3.52l.16.15Z"/><path class="cls-7" d="M274.78,161.47c-.63,0-1.22.79-.49,1.15,4.37,2.14,9,3.13,13.22,5.76a18.55,18.55,0,0,1,8.17,11.68c.07.38.76.17.8-.14C298,168.26,284.8,161.49,274.78,161.47Z"/><rect class="cls-8" x="120.87" y="162.67" width="87.82" height="39.78" rx="5.69" transform="translate(-77.79 223.08) rotate(-57.41)"/><path class="cls-9" d="M144.49,214.29a1.12,1.12,0,0,1-.34-1.54l39.37-61.59a1.12,1.12,0,0,1,1.88,1.2L146,214A1.12,1.12,0,0,1,144.49,214.29Z"/><path class="cls-9" d="M152.61,220.28a4.48,4.48,0,0,1-1.36-6.18,4.47,4.47,0,1,1,1.36,6.18Z"/><path class="cls-9" d="M160.36,199.84a4.47,4.47,0,0,1,6.18-1.36h0a4.47,4.47,0,0,1,1.36,6.17h0a4.47,4.47,0,0,1-6.17,1.36h0A4.48,4.48,0,0,1,160.36,199.84Zm9.13-14.28a4.46,4.46,0,0,1,6.17-1.35h0a4.47,4.47,0,0,1,1.36,6.17h0a4.47,4.47,0,0,1-6.17,1.36h0A4.47,4.47,0,0,1,169.49,185.56Zm9.11-14.26a4.48,4.48,0,0,1,6.18-1.36h0a4.47,4.47,0,0,1,1.36,6.17h0a4.48,4.48,0,0,1-6.18,1.36h0A4.47,4.47,0,0,1,178.6,171.3Z"/><path class="cls-9" d="M189.08,163.21a4.5,4.5,0,0,1-1.36-6.18,4.47,4.47,0,0,1,8.14,1.45,4.5,4.5,0,0,1-.6,3.36,4.47,4.47,0,0,1-6.18,1.37Z"/><path class="cls-9" d="M135.78,209.52A4.47,4.47,0,0,1,140.6,202a4.47,4.47,0,0,1-4.82,7.53Z"/><path class="cls-9" d="M143.54,189.08a4.48,4.48,0,0,1,6.18-1.36h0a4.48,4.48,0,0,1,1.36,6.18h0a4.47,4.47,0,0,1-6.18,1.35h0A4.47,4.47,0,0,1,143.54,189.08Zm9.13-14.27a4.47,4.47,0,0,1,6.17-1.36h0a4.48,4.48,0,0,1,1.36,6.18h0A4.48,4.48,0,0,1,154,181h0A4.47,4.47,0,0,1,152.67,174.81Zm9.12-14.27a4.46,4.46,0,0,1,6.17-1.35h0a4.47,4.47,0,0,1,1.36,6.17h0a4.48,4.48,0,0,1-6.18,1.36h0A4.47,4.47,0,0,1,161.79,160.54Z"/><path class="cls-9" d="M172.26,152.45a4.47,4.47,0,1,1,4.81-7.53,4.47,4.47,0,0,1,1.36,6.18,4.47,4.47,0,0,1-6.17,1.35Z"/><path class="cls-10" d="M153.57,218.77a2.68,2.68,0,1,1,2.89-4.52,2.7,2.7,0,0,1,1.17,1.68,2.65,2.65,0,0,1-.35,2,2.73,2.73,0,0,1-1.69,1.18A2.7,2.7,0,0,1,153.57,218.77Z"/><path class="cls-10" d="M161.87,200.79a2.7,2.7,0,0,1,3.71-.81h0a2.7,2.7,0,0,1,.82,3.71h0a2.69,2.69,0,0,1-3.71.81h0A2.7,2.7,0,0,1,161.87,200.79ZM171,186.53a2.68,2.68,0,0,1,3.71-.81h0a2.69,2.69,0,0,1,.82,3.7h0a2.69,2.69,0,0,1-3.71.81h0A2.67,2.67,0,0,1,171,186.53Zm9.12-14.27a2.68,2.68,0,0,1,3.71-.81h0a2.68,2.68,0,0,1,.81,3.7h0a2.68,2.68,0,0,1-3.7.82h0A2.69,2.69,0,0,1,180.11,172.26Z"/><path class="cls-10" d="M190.05,161.7a2.73,2.73,0,0,1-1.18-1.69,2.69,2.69,0,0,1,2-3.19,2.73,2.73,0,0,1,2,.36,2.7,2.7,0,0,1,1.17,1.68,2.74,2.74,0,0,1-.36,2,2.68,2.68,0,0,1-3.7.81Z"/><path class="cls-11" d="M156.5,216.66a1.1,1.1,0,0,1-.34-1.53,1.12,1.12,0,0,1,.71-.5,1.17,1.17,0,0,1,1.33.85,1.2,1.2,0,0,1-.15.85,1.16,1.16,0,0,1-.71.49A1.14,1.14,0,0,1,156.5,216.66Z"/><path class="cls-11" d="M165.28,200.86a1.12,1.12,0,0,1,1.55-.34h0a1.12,1.12,0,0,1,.34,1.54h0a1.13,1.13,0,0,1-1.55.34h0A1.12,1.12,0,0,1,165.28,200.86Zm9.12-14.27a1.12,1.12,0,0,1,1.55-.34h0a1.12,1.12,0,0,1,.34,1.54h0a1.13,1.13,0,0,1-1.55.34h0A1.12,1.12,0,0,1,174.4,186.59Zm9.12-14.27a1.13,1.13,0,0,1,1.55-.34h0a1.13,1.13,0,0,1,.34,1.55h0a1.13,1.13,0,0,1-1.55.33h0A1.12,1.12,0,0,1,183.52,172.32Z"/><path class="cls-11" d="M193,159.59a1.12,1.12,0,0,1-.49-.69,1.17,1.17,0,0,1,.15-.84,1.1,1.1,0,0,1,.7-.5,1.16,1.16,0,0,1,1.33.86,1.09,1.09,0,0,1-.14.84,1.2,1.2,0,0,1-.71.49A1.13,1.13,0,0,1,193,159.59Z"/><path class="cls-11" d="M139.68,205.91a1.12,1.12,0,1,1,1.69-1.18,1.12,1.12,0,0,1-.15.85,1.12,1.12,0,0,1-1.54.33Z"/><path class="cls-11" d="M148.46,190.1a1.13,1.13,0,0,1,1.55-.34h0a1.13,1.13,0,0,1,.33,1.55h0a1.12,1.12,0,0,1-1.54.34h0A1.13,1.13,0,0,1,148.46,190.1Zm9.12-14.26a1.12,1.12,0,0,1,1.55-.34h0a1.12,1.12,0,0,1,.33,1.54h0a1.12,1.12,0,0,1-1.54.34h0A1.12,1.12,0,0,1,157.58,175.84Zm9.12-14.27a1.12,1.12,0,0,1,1.55-.34h0a1.12,1.12,0,0,1,.33,1.54h0a1.12,1.12,0,0,1-1.54.34h0A1.12,1.12,0,0,1,166.7,161.57Z"/><path class="cls-11" d="M176.16,148.84a1.1,1.1,0,0,1-.49-.7,1.12,1.12,0,0,1,.85-1.33,1.15,1.15,0,0,1,1.33.85,1.08,1.08,0,0,1-.15.84,1.15,1.15,0,0,1-.7.5A1.13,1.13,0,0,1,176.16,148.84Z"/><rect class="cls-8" x="89.03" y="177.54" width="64.48" height="40.04" rx="6.93" transform="translate(322.33 312.95) rotate(151.4)"/><path class="cls-9" d="M96.75,211a.87.87,0,0,1,.34-1.18l47.61-26a.86.86,0,0,1,1.17.34.87.87,0,0,1-.34,1.18l-47.61,26A.86.86,0,0,1,96.75,211Z"/><path class="cls-9" d="M128.25,178.24a3.46,3.46,0,0,1,4-5l9.08,2.67a3.4,3.4,0,0,1,2.06,1.67,3.46,3.46,0,0,1-4,5l-9.08-2.67A3.42,3.42,0,0,1,128.25,178.24Z"/><path class="cls-9" d="M118.43,183.59a3.47,3.47,0,0,1,4-5l9.08,2.68a3.45,3.45,0,0,1,2.34,4.29,3.42,3.42,0,0,1-1.66,2.06,3.47,3.47,0,0,1-2.64.28l-9.08-2.67A3.47,3.47,0,0,1,118.43,183.59Z"/><path class="cls-9" d="M108.62,188.94a3.35,3.35,0,0,1-.28-2.63,3.45,3.45,0,0,1,4.29-2.34l9.08,2.67a3.46,3.46,0,0,1-1.95,6.64l-9.08-2.68A3.42,3.42,0,0,1,108.62,188.94Z"/><path class="cls-9" d="M98.8,194.29a3.46,3.46,0,0,1,4-5l9.08,2.67a3.47,3.47,0,0,1,2.35,4.3,3.53,3.53,0,0,1-1.67,2.06,3.44,3.44,0,0,1-2.63.28L100.86,196A3.4,3.4,0,0,1,98.8,194.29Z"/><path class="cls-9" d="M89,199.65a3.47,3.47,0,0,1,4-5l9.08,2.68a3.46,3.46,0,1,1-2,6.63L91,201.31A3.47,3.47,0,0,1,89,199.65Z"/><path class="cls-12" d="M101.7,198.62l-4.54-1.34L92.62,196a2.13,2.13,0,0,0-1.2,4.09L96,201.37l4.54,1.34a2.13,2.13,0,1,0,1.2-4.09Z"/><path class="cls-10" d="M126.61,181.22l-1.2,4.09,4.54,1.34a2.14,2.14,0,0,0,2.65-1.44h0a2.14,2.14,0,0,0-1.45-2.65Z"/><path class="cls-13" d="M119.42,181.33h0a2.14,2.14,0,0,0,1.45,2.65l4.54,1.33,1.2-4.09-4.54-1.33A2.13,2.13,0,0,0,119.42,181.33Z"/><path class="cls-10" d="M97.16,197.28,96,201.37l4.54,1.34a2.15,2.15,0,0,0,2.65-1.44h0a2.14,2.14,0,0,0-1.45-2.65Z"/><path class="cls-13" d="M90,197.39h0A2.13,2.13,0,0,0,91.42,200L96,201.37l1.2-4.09L92.62,196A2.11,2.11,0,0,0,90,197.39Z"/><path class="cls-9" d="M138.1,196.31a3.47,3.47,0,0,1,4-5L151.2,194a3.46,3.46,0,1,1-2,6.63L140.16,198A3.47,3.47,0,0,1,138.1,196.31Z"/><path class="cls-12" d="M139.09,194.05a2.14,2.14,0,0,0,1.45,2.65l4.54,1.33,4.54,1.34a2.13,2.13,0,1,0,1.2-4.09l-4.54-1.34-4.54-1.33a2.13,2.13,0,0,0-2.65,1.44Z"/><path class="cls-9" d="M128.29,201.66a3.46,3.46,0,0,1,4-5l9.08,2.67a3.46,3.46,0,0,1,.68,6.35,3.36,3.36,0,0,1-2.63.28l-9.08-2.67A3.42,3.42,0,0,1,128.29,201.66Z"/><path class="cls-12" d="M142.45,203.28a2.13,2.13,0,0,0-1.44-2.65l-4.54-1.33L131.93,198a2.13,2.13,0,0,0-2.65,1.44h0a2.13,2.13,0,0,0,1.44,2.65l4.54,1.34,4.54,1.33a2.13,2.13,0,0,0,2.65-1.44Z"/><path class="cls-9" d="M118.47,207a3.46,3.46,0,0,1,4-5l9.08,2.67a3.47,3.47,0,0,1,2.35,4.3,3.49,3.49,0,0,1-1.67,2.06,3.44,3.44,0,0,1-2.63.28l-9.08-2.67A3.46,3.46,0,0,1,118.47,207Z"/><path class="cls-12" d="M131.19,206l-4.54-1.33-4.54-1.34a2.13,2.13,0,1,0-1.2,4.09l4.54,1.34,4.54,1.34a2.14,2.14,0,0,0,1.2-4.1Z"/><path class="cls-9" d="M108.66,212.37a3.42,3.42,0,0,1-.29-2.64,3.47,3.47,0,0,1,4.3-2.34l9.08,2.67a3.5,3.5,0,0,1,2.06,1.67,3.46,3.46,0,0,1-4,5L110.72,214A3.42,3.42,0,0,1,108.66,212.37Z"/><path class="cls-12" d="M121.37,211.34,116.83,210l-4.54-1.34a2.14,2.14,0,0,0-1.2,4.1l4.54,1.33,4.54,1.34a2.13,2.13,0,1,0,1.2-4.09Z"/><path class="cls-9" d="M98.84,217.72a3.46,3.46,0,0,1,4-5l9.08,2.67a3.46,3.46,0,1,1-2,6.63l-9.08-2.67A3.42,3.42,0,0,1,98.84,217.72Z"/><path class="cls-12" d="M111.56,216.69,107,215.35,102.48,214a2.13,2.13,0,1,0-1.21,4.09l4.54,1.34,4.54,1.33a2.13,2.13,0,0,0,1.21-4.09Z"/><path class="cls-10" d="M146.28,193.94l-1.2,4.09,4.54,1.34a2.14,2.14,0,0,0,2.65-1.44h0a2.14,2.14,0,0,0-1.45-2.65Z"/><path class="cls-13" d="M139.09,194.05h0a2.14,2.14,0,0,0,1.45,2.65l4.54,1.33,1.2-4.09-4.54-1.33A2.13,2.13,0,0,0,139.09,194.05Z"/><path class="cls-10" d="M136.47,199.3l-1.21,4.09,4.54,1.33a2.13,2.13,0,0,0,2.65-1.44h0a2.13,2.13,0,0,0-1.44-2.65Z"/><path class="cls-13" d="M129.28,199.4h0a2.13,2.13,0,0,0,1.44,2.65l4.54,1.34,1.21-4.09L131.93,198A2.13,2.13,0,0,0,129.28,199.4Z"/><path class="cls-10" d="M126.65,204.65l-1.2,4.09,4.54,1.34a2.13,2.13,0,0,0,2.64-1.45h0a2.13,2.13,0,0,0-1.44-2.65Z"/><path class="cls-13" d="M119.46,204.76h0a2.13,2.13,0,0,0,1.45,2.64l4.54,1.34,1.2-4.09-4.54-1.34A2.14,2.14,0,0,0,119.46,204.76Z"/><path class="cls-10" d="M116.83,210l-1.2,4.09,4.54,1.34a2.14,2.14,0,0,0,2.65-1.45h0a2.13,2.13,0,0,0-1.45-2.64Z"/><path class="cls-13" d="M109.65,210.11h0a2.13,2.13,0,0,0,1.44,2.65l4.54,1.33,1.2-4.09-4.54-1.34A2.13,2.13,0,0,0,109.65,210.11Z"/><path class="cls-10" d="M107,215.35l-1.21,4.1,4.54,1.33a2.13,2.13,0,0,0,2.65-1.44h0a2.13,2.13,0,0,0-1.44-2.65Z"/><path class="cls-13" d="M99.83,215.46h0a2.13,2.13,0,0,0,1.44,2.65l4.54,1.34,1.21-4.1L102.48,214A2.13,2.13,0,0,0,99.83,215.46Z"/><path class="cls-11" d="M111.6,219.93a.94.94,0,0,1,.39-.4.94.94,0,0,1,1.36,1.08.44.44,0,0,1-.06.16,1,1,0,0,1-.39.41.93.93,0,0,1-1.28-.38.92.92,0,0,1-.08-.71Z"/><path class="cls-11" d="M121.32,214.62a1,1,0,0,1,.39-.41,1,1,0,0,1,1.28.38,1,1,0,0,1,0,.88.94.94,0,0,1-.39.4.9.9,0,0,1-.72.07.93.93,0,0,1-.57-1.32ZM131,209.3a1,1,0,0,1,.39-.4.94.94,0,0,1,1.28.38.92.92,0,0,1,0,.87.91.91,0,0,1-.39.41.95.95,0,0,1-1.27-.38A.94.94,0,0,1,131,209.3Zm9.71-5.31a.95.95,0,1,1,1.3,1.25.91.91,0,0,1-.72.08.93.93,0,0,1-.56-.45A.94.94,0,0,1,140.74,204Z"/><path class="cls-11" d="M150.45,198.68a1,1,0,0,1,.4-.4.93.93,0,0,1,.71-.08,1,1,0,0,1,.56.46.93.93,0,0,1,.08.71,1,1,0,0,1-.06.16.94.94,0,0,1-.39.4,1,1,0,0,1-.72.08,1,1,0,0,1-.56-.45,1,1,0,0,1-.08-.72Z"/><path class="cls-11" d="M101.69,201.83a.91.91,0,0,1,.39-.41,1,1,0,0,1,.72-.08,1,1,0,0,1,.64,1.17.77.77,0,0,1-.07.16,1,1,0,0,1-.39.41,1,1,0,0,1-.72.07,1,1,0,0,1-.56-.45,1,1,0,0,1-.08-.71A.77.77,0,0,1,101.69,201.83Z"/><path class="cls-11" d="M111.4,196.51a.94.94,0,0,1,1.67,0,.92.92,0,0,1,0,.87,1,1,0,0,1-.39.41.95.95,0,0,1-1.27-.38A.94.94,0,0,1,111.4,196.51Zm9.71-5.31a.94.94,0,0,1,.39-.4,1,1,0,0,1,.72-.08.93.93,0,0,1,.56.45.94.94,0,0,1-1.09,1.36.93.93,0,0,1-.56-.45A1,1,0,0,1,121.11,191.2Zm9.72-5.31a.89.89,0,0,1,.39-.4.95.95,0,0,1,1.28.37.95.95,0,1,1-1.67,0Z"/><path class="cls-11" d="M140.54,180.58a.89.89,0,0,1,.39-.4,1,1,0,0,1,.72-.08.89.89,0,0,1,.55.46,1,1,0,0,1,.09.71l-.06.15a1,1,0,0,1-.4.41.92.92,0,0,1-.71.08,1,1,0,0,1-.56-.46.93.93,0,0,1-.08-.71A.44.44,0,0,1,140.54,180.58Z"/><rect class="cls-8" x="123.19" y="198.45" width="73.27" height="33.19" rx="6.63" transform="translate(321.35 428.81) rotate(179.55)"/><path class="cls-9" d="M129.35,216.48l61-.49a1.19,1.19,0,0,0,0-2.38l-61,.48a1.2,1.2,0,0,0,0,2.39Z"/><path class="cls-9" d="M131.56,213.31a6.44,6.44,0,0,0,6.39-6.48,6.44,6.44,0,1,0-12.88.1,6.44,6.44,0,0,0,6.49,6.38Z"/><path class="cls-9" d="M150.4,213.16h0a6.44,6.44,0,0,1-6.5-6.38h0a6.44,6.44,0,0,1,6.39-6.49h0a6.44,6.44,0,0,1,.11,12.87Zm18.83-.15h0a6.43,6.43,0,0,1-6.49-6.38h0a6.43,6.43,0,0,1,6.39-6.49h0a6.44,6.44,0,1,1,.1,12.87Z"/><path class="cls-9" d="M188.06,212.86A6.44,6.44,0,1,0,183.5,211,6.46,6.46,0,0,0,188.06,212.86Z"/><path class="cls-9" d="M131.69,230a6.44,6.44,0,1,0-6.49-6.39,6.45,6.45,0,0,0,6.49,6.39Z"/><path class="cls-9" d="M150.53,229.82h0a6.43,6.43,0,0,1-6.49-6.39h0a6.44,6.44,0,0,1,6.39-6.49h0a6.44,6.44,0,0,1,.1,12.88Zm18.83-.15h0a6.44,6.44,0,0,1-6.49-6.38h0a6.44,6.44,0,0,1,6.39-6.5h0a6.44,6.44,0,1,1,.1,12.88Z"/><path class="cls-9" d="M188.2,229.52a6.45,6.45,0,0,0,6.39-6.49,6.43,6.43,0,0,0-11-4.46,6.44,6.44,0,0,0,4.64,11Z"/><path class="cls-12" d="M131.55,211.41a4.52,4.52,0,1,0-3.22-1.3A4.58,4.58,0,0,0,131.55,211.41Z"/><path class="cls-12" d="M150.38,211.25h0a4.53,4.53,0,0,1-4.57-4.49h0a4.54,4.54,0,0,1,4.5-4.57h0a4.53,4.53,0,0,1,.07,9.06Z"/><path class="cls-12" d="M131.68,228.06a4.54,4.54,0,1,0-3.21-1.3A4.55,4.55,0,0,0,131.68,228.06Z"/><path class="cls-11" d="M128.89,205.85a1.21,1.21,0,0,0,1.19-1.2,1.26,1.26,0,0,0-.36-.84,1.24,1.24,0,0,0-1.69,0,1.22,1.22,0,0,0-.34.85,1.19,1.19,0,0,0,1.2,1.18Z"/><path class="cls-11" d="M147.72,205.7h0a1.18,1.18,0,0,1-1.19-1.18h0a1.18,1.18,0,0,1,1.18-1.2h0a1.19,1.19,0,1,1,0,2.38Zm18.84-.15h0a1.19,1.19,0,0,1-1.2-1.18h0a1.19,1.19,0,0,1,1.18-1.2h0a1.19,1.19,0,0,1,0,2.38Z"/><path class="cls-11" d="M185.4,205.4a1.19,1.19,0,1,0-.86-2,1.25,1.25,0,0,0-.35.85,1.2,1.2,0,0,0,1.21,1.18Z"/><path class="cls-11" d="M129,222.5a1.15,1.15,0,0,0,.84-.35,1.22,1.22,0,0,0,.35-.84,1.16,1.16,0,0,0-.36-.84,1.23,1.23,0,0,0-1.69,0,1.2,1.2,0,0,0-.34.84,1.16,1.16,0,0,0,.36.84A1.1,1.1,0,0,0,129,222.5Z"/><path class="cls-11" d="M147.86,222.35h0a1.19,1.19,0,0,1-1.21-1.17h0a1.21,1.21,0,0,1,1.19-1.21h0a1.19,1.19,0,0,1,1.2,1.19A1.18,1.18,0,0,1,147.86,222.35Zm18.83-.14h0a1.2,1.2,0,0,1-1.2-1.18h0a1.2,1.2,0,0,1,1.18-1.21h0a1.2,1.2,0,1,1,0,2.39Z"/><path class="cls-11" d="M185.53,222.06a1.22,1.22,0,0,0,.84-.36,1.18,1.18,0,0,0,.34-.84,1.21,1.21,0,0,0-.35-.84,1.2,1.2,0,0,0-2,.86,1.2,1.2,0,0,0,.36.84A1.22,1.22,0,0,0,185.53,222.06Z"/><polygon class="cls-14" points="208.81 79.62 195.03 81.77 185.02 79.62 89.39 79.62 84.37 230.28 188.12 234.58 217.41 227.42 208.81 79.62"/><path class="cls-14" d="M152.48,226.63,130.1,216.2a43.59,43.59,0,0,1-11.57-7.86l-6.7-6.33a22.4,22.4,0,0,0-25.4-3.75l-1,.5-1,31.52,103.75,4.3Z"/><polygon class="cls-15" points="208.81 79.62 195.03 81.77 185.02 79.62 188.12 234.58 217.41 227.42 208.81 79.62"/><polygon class="cls-16" points="195.03 81.77 185.02 79.62 188.12 234.58 200.04 214.13 195.03 81.77"/><circle class="cls-11" cx="137.54" cy="162.5" r="34.08"/><rect class="cls-17" x="132.03" y="139.77" width="11.01" height="45.46"/><rect class="cls-17" x="132.04" y="139.77" width="11.01" height="45.46" transform="translate(-71.96 200.36) rotate(-60)"/><rect class="cls-17" x="114.81" y="156.99" width="45.46" height="11.01" transform="translate(-62.82 90.54) rotate(-30)"/><path class="cls-7" d="M239.42,234.48a4.92,4.92,0,0,0-3.51-9.09l-35.5,6.07a4.91,4.91,0,1,0,2.28,9.56l35.5-6.07A5.5,5.5,0,0,0,239.42,234.48Z"/><path class="cls-7" d="M243.83,246.12a4.56,4.56,0,0,0-3-8.52l-30.71,4.74a4.56,4.56,0,0,0,1.86,8.93l30.71-4.74A4.91,4.91,0,0,0,243.83,246.12Z"/><path class="cls-7" d="M254.93,255.55a4.19,4.19,0,0,0-2.32-8l-24,2.28a4.19,4.19,0,1,0,1.24,8.28l24-2.28A4.21,4.21,0,0,0,254.93,255.55Z"/><path class="cls-18" d="M329.15,246.49l-3.79-36.83-50.84,5.24c-3.82,11.31-1.34,23.82,3.79,36.83Z"/><path class="cls-18" d="M290.77,242.73c3.09-13.1-.33-24.67-9.08-35-20.32-.52-37.55,1-50.84,5.24-5.54,7.73,8.68,29,20.16,43.11l25.28-.7A16.6,16.6,0,0,0,290.77,242.73Z"/><path class="cls-6" d="M321.17,247.31l-3.79-36.82-25,2.57c-3.82,11.32-1.34,23.82,3.8,36.83Z"/><path class="cls-18" d="M234.26,222.07a4.91,4.91,0,0,0-2.83-9.39l-29.36,6.75a4.91,4.91,0,1,0,2.19,9.58l29.36-6.75A4.71,4.71,0,0,0,234.26,222.07Z"/><path class="cls-18" d="M226.13,198.11l.39.38.22.21.13.12.25.2c.33.26.74.58,1.18.89l1.23.78c.44.25.92.52,1.42.78,1,.5,2.12,1,3.31,1.48,4.76,1.91,10.76,3.42,16.41,5.11,1.41.42,2.8.85,4.12,1.29s2.6.9,3.8,1.36,2.29.94,3.26,1.42c.5.24,1,.48,1.39.71s.82.48,1.2.7a16.32,16.32,0,0,1,1.8,1.27,10.24,10.24,0,0,1,1.07,1,5.4,5.4,0,0,1,.52.62l.17.21.07.09a8.17,8.17,0,1,0,12.69-10.28,9.23,9.23,0,0,0-.8-.85l-.6-.56a19.56,19.56,0,0,0-1.73-1.46,27.19,27.19,0,0,0-2.75-1.85,32.61,32.61,0,0,0-3.55-1.81c-.64-.27-1.32-.57-2-.81s-1.39-.51-2.1-.74c-1.44-.48-2.92-.87-4.44-1.25s-3.07-.71-4.61-1-3.11-.55-4.65-.8L244.75,194c-1.37-.21-2.65-.43-3.85-.65s-2.28-.45-3.23-.69-1.78-.49-2.47-.72l-.9-.33-.67-.3a1.06,1.06,0,0,0-.28-.1l-.06,0a.77.77,0,0,1-.13-.09l-.24-.17-.43-.33h0a4.92,4.92,0,0,0-6.34,7.51Z"/><path class="cls-7" d="M226.87,198.82l.25.2c.33.26.74.58,1.18.89l1.23.78c.44.25.92.52,1.42.78,1,.5,2.12,1,3.31,1.48,4.76,1.91,12.47,4,18.12,5.73.12,0,9.89-1,15.42-.26a71,71,0,0,0-11-3.84c-4.78-1-9.57-1.5-14.42-2.07-5.38-.63-11-1.61-15.82-4l.18.17Z"/><path class="cls-4" d="M103.68,249.65a5.08,5.08,0,0,1,1.49-9.92l11.22-.12.66-.83-15.59-10.37a5.09,5.09,0,0,1-1.42-7c1.56-2.33,8.34,7.9,10.67,9.45l16.57,2.57a5.09,5.09,0,0,1,1.16,7.39l-5.6,7.06a5.08,5.08,0,0,1-3.92,1.92l-13.64.14A5,5,0,0,1,103.68,249.65Z"/><path class="cls-4" d="M96.39,254.89A5.08,5.08,0,0,1,97.77,245l12.76-.43L94.16,233.65a5.08,5.08,0,0,1,5.63-8.46L120,238.62a5.09,5.09,0,0,1,1.68,6.61l-3.55,6.7a5.08,5.08,0,0,1-4.33,2.7l-15.69.5A5,5,0,0,1,96.39,254.89Z"/><path class="cls-19" d="M22.41,222.65,33.53,191,83.6,207.82c1.6,10.92-3.38,21.39-11.12,31.67Z"/><path class="cls-19" d="M60.48,235.45c-4.76-20.19,3.07-26.4,16.84-34.29,18.15,10.29,32.27,18.66,41.27,33.07,1.51,5.69-11.14,15.65-17.88,21.49a4.75,4.75,0,0,1-5.33.62Z"/><path class="cls-5" d="M15.21,219.34l11.12-31.67L51,196c1.6,10.93-3.38,21.39-11.12,31.67Z"/><path class="cls-19" d="M126.55,231l16.67-.22c.67.49.83,2.4.08,4l-9.77,4.32c-2.17.62-4,1.68-7.12,1.81l-19.32-.11a5.27,5.27,0,0,1-.57-.14,5.08,5.08,0,0,1-3.44-5.81c.54-2.76,4.9-8.05,7.65-7.51Z"/><path class="cls-19" d="M129.59,224.7a16.91,16.91,0,0,1-6.67.16c-4.31-.76-8.24-2.86-12.21-4.69a33.6,33.6,0,0,0-8.6-2.92c-3.22-.53-6.55-.16-9.81-.54-2.79-.33-4.93-1.19-7.86-.68l-.67.07a8.59,8.59,0,0,1-9.34-7.63c-.82-7.37,5.1-8.49,10.88-10.13,5.48-1.56,11.93-2.25,16.74.8s10.41,9.78,15,12.79a53.26,53.26,0,0,0,12.62,6c3,1,7.18,1.76,4.26,4.53A9.53,9.53,0,0,1,129.59,224.7Z"/><path class="cls-4" d="M130.32,224.5a17.2,17.2,0,0,1-7.4.36c-4.31-.76-8.24-2.86-12.21-4.69a34.34,34.34,0,0,0-5.94-2.32s-8.14-9.71-3.5-8.12,7.07,3.29,11.19,6a78.24,78.24,0,0,0,12.28,6.48c3.05,1.28,6.11,2.6,8.79.66A9.44,9.44,0,0,1,130.32,224.5Z"/><path class="cls-2" d="M367.3,211.5l-4.45-48.16-60.49,5.59c-4.57,14.58-1.65,30.86,4.45,48.16Z"/><path class="cls-20" d="M414.48,154.07l-15.92,65.51-76.36,6.48c-6.56-22.15-9.93-43.29-5.74-62Z"/><path class="cls-2" d="M361.44,251.62,357,203.46l-60.48,5.59c-4.58,14.58-1.66,30.86,4.45,48.16Z"/><path class="cls-11" d="M408.62,194.19,392.7,259.7l-76.36,6.48c-6.55-22.15-9.92-43.29-5.73-62Z"/><path class="cls-21" d="M14.13,152.11l34.46,9.81c1.53,12.77-3.41,25.78-11.14,39.14L7,192.4Z"/><path class="cls-22" d="M15.17,146.18l9.52,2.71a14.64,14.64,0,0,1,10.45,16.45,110.67,110.67,0,0,1-8,25.68A14.65,14.65,0,0,1,9.9,199.35L6,198.29Z"/><path class="cls-22" d="M8.14,179.83l32.73,9.31c1.53,12.77-3.41,25.78-11.14,39.14L1,220.12Z"/><path class="cls-12" d="M9.19,173.9,17,176.11a14.65,14.65,0,0,1,10.45,16.45,109.94,109.94,0,0,1-8,25.68,14.65,14.65,0,0,1-17.27,8.33L0,226Z"/></g></svg>